<svg width="940" height="1048" viewBox="0 0 940 1048" fill="none" xmlns="http://www.w3.org/2000/svg">
<path d="M18.9865 218.099C-8.19351 132.589 -14.6435 0.0986328 68.7165 0.0986328C152.076 0.0986328 151.716 96.2386 127.896 218.019L18.9865 218.099Z" fill="#FBF6F0"/>
<path d="M23.2367 218.099C-1.63327 138.209 -5.39327 14.3887 70.7667 14.3887C146.927 14.3887 144.467 104.209 122.707 218.099H23.2367Z" fill="#85267A" fill-opacity="0.14"/>
<path d="M28.5764 218.099C6.3464 143.829 1.0764 28.6987 69.1764 28.6987C137.276 28.6987 136.986 112.209 117.526 218.099H28.5764Z" fill="#FBF6F0"/>
<path d="M35.6865 218.099C17.2265 149.419 14.4365 42.9587 70.9865 42.9587C127.536 42.9587 125.696 120.179 109.546 218.099H35.6865Z" fill="#85267A" fill-opacity="0.14"/>
<path d="M46.6264 218.099C33.9664 154.809 29.6264 56.6987 68.3864 56.6987C107.146 56.6987 108.336 127.909 97.2664 218.099H46.6264Z" fill="#FBF6F0"/>
<path d="M60.0767 218.099H82.6267C87.3767 158.759 86.1867 72.0986 68.9767 72.0986C49.3967 72.0986 55.3267 188.379 60.0767 218.099Z" fill="#85267A" fill-opacity="0.14"/>
<path d="M159.986 218.099C132.766 132.589 126.306 0.0986328 209.666 0.0986328C293.026 0.0986328 292.676 96.2686 268.856 218.099H159.986Z" fill="#FBF6F0"/>
<path d="M164.187 218.099C139.317 138.159 135.567 14.3386 211.727 14.3386C287.887 14.3386 285.427 104.209 263.667 218.099H164.187Z" fill="#85267A" fill-opacity="0.14"/>
<path d="M169.536 218.099C147.296 143.779 141.986 28.6487 210.126 28.6487C278.266 28.6487 277.986 112.209 258.486 218.099H169.536Z" fill="#FBF6F0"/>
<path d="M176.647 218.099C158.187 149.369 155.397 42.9087 211.987 42.9087C268.577 42.9087 266.657 120.179 250.497 218.099H176.647Z" fill="#85267A" fill-opacity="0.14"/>
<path d="M187.587 218.099C174.927 154.809 170.587 56.6987 209.337 56.6987C248.087 56.6987 249.337 127.909 238.217 218.099H187.587Z" fill="#FBF6F0"/>
<path d="M201.036 218.099H223.576C228.326 158.709 227.146 72.0986 209.986 72.0986C190.356 72.0986 196.286 188.379 201.036 218.099Z" fill="#85267A" fill-opacity="0.14"/>
<path d="M300.986 218.099C273.716 132.589 267.266 0.0986328 350.626 0.0986328C433.986 0.0986328 433.626 96.2386 409.816 218.019L300.986 218.099Z" fill="#FBF6F0"/>
<path d="M305.147 218.099C280.277 138.159 276.527 14.3386 352.687 14.3386C428.847 14.3386 426.377 104.209 404.617 218.099H305.147Z" fill="#85267A" fill-opacity="0.14"/>
<path d="M310.487 218.099C288.257 143.829 282.987 28.6987 351.087 28.6987C419.187 28.6987 418.897 112.209 399.437 218.099H310.487Z" fill="#FBF6F0"/>
<path d="M317.596 218.099C299.136 149.419 296.356 42.9587 352.896 42.9587C409.436 42.9587 407.606 120.179 391.456 218.099H317.596Z" fill="#85267A" fill-opacity="0.14"/>
<path d="M328.537 218.099C315.877 154.809 311.537 56.6987 350.297 56.6987C389.057 56.6987 390.247 127.859 379.177 218.099H328.537Z" fill="#FBF6F0"/>
<path d="M341.986 218.099H364.536C369.286 158.759 368.096 72.0986 350.886 72.0986C331.306 72.0986 337.236 188.379 341.986 218.099Z" fill="#85267A" fill-opacity="0.14"/>
<path d="M441.897 218.099C414.677 132.589 408.227 0.0986328 491.577 0.0986328C574.927 0.0986328 574.577 96.2386 550.767 218.019L441.897 218.099Z" fill="#FBF6F0"/>
<path d="M446.096 218.099C421.236 138.209 417.476 14.3887 493.636 14.3887C569.796 14.3887 567.336 104.209 545.576 218.099H446.096Z" fill="#85267A" fill-opacity="0.14"/>
<path d="M451.447 218.099C429.207 143.829 423.936 28.6987 492.036 28.6987C560.136 28.6987 559.847 112.209 540.396 218.099H451.447Z" fill="#FBF6F0"/>
<path d="M458.557 218.099C440.097 149.419 437.307 42.9587 493.847 42.9587C550.387 42.9587 548.567 120.179 532.407 218.099H458.557Z" fill="#85267A" fill-opacity="0.14"/>
<path d="M469.497 218.099C456.837 154.809 452.497 56.6987 491.257 56.6987C530.017 56.6987 531.257 127.909 520.127 218.099H469.497Z" fill="#FBF6F0"/>
<path d="M482.986 218.099H505.536C510.276 158.759 509.096 72.0986 491.886 72.0986C472.266 72.0986 478.196 188.379 482.986 218.099Z" fill="#85267A" fill-opacity="0.14"/>
<path d="M582.846 218.099C555.626 132.589 549.176 0.0986328 632.536 0.0986328C715.896 0.0986328 715.536 96.2386 691.726 218.019L582.846 218.099Z" fill="#FBF6F0"/>
<path d="M587.057 218.099C562.187 138.209 558.437 14.3887 634.597 14.3887C710.757 14.3887 708.287 104.209 686.527 218.099H587.057Z" fill="#85267A" fill-opacity="0.14"/>
<path d="M592.406 218.099C570.166 143.829 564.896 28.6987 632.996 28.6987C701.096 28.6987 700.806 112.209 681.346 218.099H592.406Z" fill="#FBF6F0"/>
<path d="M599.517 218.099C581.047 149.419 578.267 42.9587 634.807 42.9587C691.347 42.9587 689.517 120.179 673.367 218.099H599.517Z" fill="#85267A" fill-opacity="0.14"/>
<path d="M610.447 218.099C597.787 154.809 593.447 56.6987 632.207 56.6987C670.967 56.6987 672.157 127.859 661.087 218.099H610.447Z" fill="#FBF6F0"/>
<path d="M623.896 218.099H646.446C651.196 158.759 650.006 72.0986 632.796 72.0986C613.216 72.0986 619.156 188.379 623.896 218.099Z" fill="#85267A" fill-opacity="0.14"/>
<path d="M723.807 218.099C696.587 132.589 690.137 0.0986328 773.497 0.0986328C856.857 0.0986328 856.497 96.2386 832.677 218.019L723.807 218.099Z" fill="#FBF6F0"/>
<path d="M727.987 218.099C703.117 138.209 699.357 14.3887 775.517 14.3887C851.677 14.3887 849.247 104.209 827.487 218.099H727.987Z" fill="#85267A" fill-opacity="0.14"/>
<path d="M733.357 218.099C711.127 143.829 705.847 28.6987 773.947 28.6987C842.047 28.6987 841.767 112.209 822.307 218.099H733.357Z" fill="#FBF6F0"/>
<path d="M740.467 218.099C722.007 149.419 719.217 42.9587 775.767 42.9587C832.317 42.9587 830.477 120.179 814.317 218.099H740.467Z" fill="#85267A" fill-opacity="0.14"/>
<path d="M751.407 218.099C738.747 154.809 734.407 56.6987 773.167 56.6987C811.927 56.6987 813.167 127.909 802.037 218.099H751.407Z" fill="#FBF6F0"/>
<path d="M764.857 218.099H787.407C792.147 158.759 790.967 72.0986 773.757 72.0986C754.177 72.0986 760.107 188.379 764.857 218.099Z" fill="#85267A" fill-opacity="0.14"/>
<path d="M91.9865 310.219C64.7965 224.759 58.3365 92.2986 141.697 92.2986C225.057 92.2986 224.697 188.439 200.887 310.219H91.9865Z" fill="#FBF6F0"/>
<path d="M96.2164 310.219C71.3464 230.339 67.5963 106.509 143.756 106.509C219.916 106.509 217.456 196.379 195.696 310.219H96.2164Z" fill="#85267A" fill-opacity="0.14"/>
<path d="M101.567 310.219C79.3266 235.949 74.0566 120.819 142.157 120.819C210.257 120.819 209.987 204.379 190.517 310.219H101.567Z" fill="#FBF6F0"/>
<path d="M108.677 310.219C90.2166 241.539 87.4266 135.099 143.987 135.099C200.547 135.099 198.687 212.349 182.527 310.219H108.677Z" fill="#85267A" fill-opacity="0.14"/>
<path d="M119.616 310.219C106.956 246.929 102.616 148.819 141.366 148.819C180.116 148.819 181.366 220.029 170.246 310.219H119.616Z" fill="#FBF6F0"/>
<path d="M133.066 310.219H155.606C160.356 250.889 159.176 164.219 141.966 164.219C122.386 164.249 128.316 280.559 133.066 310.219Z" fill="#85267A" fill-opacity="0.14"/>
<path d="M232.986 310.219C205.746 224.759 199.296 92.2986 282.656 92.2986C366.016 92.2986 365.656 188.439 341.846 310.219H232.986Z" fill="#FBF6F0"/>
<path d="M237.176 310.219C212.306 230.339 208.556 106.509 284.716 106.509C360.876 106.509 358.406 196.379 336.646 310.219H237.176Z" fill="#85267A" fill-opacity="0.14"/>
<path d="M242.517 310.219C220.287 235.949 214.987 120.819 283.117 120.819C351.247 120.819 350.927 204.379 331.467 310.219H242.517Z" fill="#FBF6F0"/>
<path d="M249.637 310.219C231.167 241.539 228.387 135.099 284.927 135.099C341.467 135.099 339.637 212.349 323.487 310.219H249.637Z" fill="#85267A" fill-opacity="0.14"/>
<path d="M260.566 310.219C247.906 246.929 243.566 148.819 282.326 148.819C321.086 148.819 322.326 220.029 311.206 310.219H260.566Z" fill="#FBF6F0"/>
<path d="M273.986 310.219H296.566C301.316 250.889 300.126 164.219 282.916 164.219C263.336 164.249 269.266 280.559 273.986 310.219Z" fill="#85267A" fill-opacity="0.14"/>
<path d="M373.926 310.219C346.706 224.759 340.256 92.2986 423.606 92.2986C506.956 92.2986 506.606 188.439 482.796 310.219H373.926Z" fill="#FBF6F0"/>
<path d="M378.127 310.219C353.267 230.339 349.507 106.509 425.667 106.509C501.827 106.509 499.367 196.379 477.607 310.219H378.127Z" fill="#85267A" fill-opacity="0.14"/>
<path d="M383.476 310.219C361.236 235.949 355.966 120.819 424.066 120.819C492.166 120.819 491.876 204.379 472.426 310.219H383.476Z" fill="#FBF6F0"/>
<path d="M390.586 310.219C372.126 241.539 369.336 135.099 425.876 135.099C482.416 135.099 480.596 212.359 464.436 310.229L390.586 310.219Z" fill="#85267A" fill-opacity="0.14"/>
<path d="M401.526 310.219C388.866 246.929 384.526 148.819 423.286 148.819C462.046 148.819 463.236 220.029 452.156 310.219H401.526Z" fill="#FBF6F0"/>
<path d="M414.987 310.219H437.537C442.277 250.889 441.097 164.219 423.887 164.219C404.297 164.249 410.227 280.559 414.987 310.219Z" fill="#85267A" fill-opacity="0.14"/>
<path d="M514.877 310.219C487.657 224.759 481.207 92.2986 564.567 92.2986C647.927 92.2986 647.567 188.439 623.757 310.219H514.877Z" fill="#FBF6F0"/>
<path d="M519.086 310.219C494.216 230.339 490.466 106.509 566.626 106.509C642.786 106.509 640.316 196.379 618.556 310.219H519.086Z" fill="#85267A" fill-opacity="0.14"/>
<path d="M524.436 310.219C502.196 235.949 496.926 120.819 565.026 120.819C633.126 120.819 632.836 204.379 613.376 310.219H524.436Z" fill="#FBF6F0"/>
<path d="M531.546 310.219C513.076 241.539 510.296 135.099 566.836 135.099C623.376 135.099 621.546 212.359 605.396 310.229L531.546 310.219Z" fill="#85267A" fill-opacity="0.14"/>
<path d="M542.477 310.219C529.817 246.929 525.477 148.819 564.237 148.819C602.997 148.819 604.237 220.029 593.117 310.219H542.477Z" fill="#FBF6F0"/>
<path d="M555.927 310.219H578.477C583.227 250.889 582.037 164.219 564.827 164.219C545.247 164.249 551.187 280.559 555.927 310.219Z" fill="#85267A" fill-opacity="0.14"/>
<path d="M655.836 310.219C628.616 224.759 622.166 92.2986 705.526 92.2986C788.886 92.2986 788.526 188.439 764.706 310.219H655.836Z" fill="#FBF6F0"/>
<path d="M660.046 310.219C635.176 230.339 631.416 106.509 707.576 106.509C783.736 106.509 781.276 196.379 759.516 310.219H660.046Z" fill="#85267A" fill-opacity="0.14"/>
<path d="M665.386 310.219C643.156 235.949 637.876 120.819 705.976 120.819C774.076 120.819 773.796 204.379 754.336 310.219H665.386Z" fill="#FBF6F0"/>
<path d="M672.497 310.219C654.037 241.539 651.247 135.099 707.797 135.099C764.347 135.099 762.507 212.359 746.357 310.229L672.497 310.219Z" fill="#85267A" fill-opacity="0.14"/>
<path d="M683.436 310.219C670.776 246.929 666.436 148.819 705.196 148.819C743.956 148.819 745.146 220.029 734.066 310.219H683.436Z" fill="#FBF6F0"/>
<path d="M696.886 310.219H719.436C724.176 250.889 722.996 164.219 705.786 164.219C686.206 164.249 692.136 280.559 696.886 310.219Z" fill="#85267A" fill-opacity="0.14"/>
<path d="M796.787 310.219C769.567 224.759 763.117 92.2986 846.477 92.2986C929.837 92.2986 929.477 188.439 905.667 310.219H796.787Z" fill="#FBF6F0"/>
<path d="M800.986 310.219C776.116 230.339 772.366 106.509 848.526 106.509C924.686 106.509 922.226 196.379 900.466 310.219H800.986Z" fill="#85267A" fill-opacity="0.14"/>
<path d="M806.346 310.219C784.106 235.949 778.836 120.819 846.936 120.819C915.036 120.819 914.746 204.379 895.286 310.219H806.346Z" fill="#FBF6F0"/>
<path d="M813.456 310.219C794.986 241.539 792.206 135.099 848.746 135.099C905.286 135.099 903.466 212.359 887.306 310.229L813.456 310.219Z" fill="#85267A" fill-opacity="0.14"/>
<path d="M824.387 310.219C811.737 246.929 807.387 148.819 846.147 148.819C884.907 148.819 886.147 220.029 875.027 310.219H824.387Z" fill="#FBF6F0"/>
<path d="M837.836 310.219H860.386C865.136 250.889 863.946 164.219 846.746 164.219C827.156 164.249 833.096 280.559 837.836 310.219Z" fill="#85267A" fill-opacity="0.14"/>
<path d="M24.0363 402.399C-3.17374 316.929 -9.63374 184.469 73.7263 184.469C157.086 184.469 156.726 280.609 132.916 402.399H24.0363Z" fill="#FBF6F0"/>
<path d="M28.2466 402.399C3.37663 322.509 -0.373367 198.679 75.7866 198.679C151.947 198.679 149.487 288.549 127.727 402.399H28.2466Z" fill="#85267A" fill-opacity="0.14"/>
<path d="M33.5964 402.399C11.3564 328.099 6.0864 212.989 74.1864 212.989C142.286 212.989 141.986 296.549 122.546 402.399H33.5964Z" fill="#FBF6F0"/>
<path d="M40.7067 402.399C22.2467 333.709 19.4567 227.259 75.9867 227.259C132.517 227.259 130.717 304.519 114.557 402.399H40.7067Z" fill="#85267A" fill-opacity="0.14"/>
<path d="M51.6467 402.399C38.9867 339.099 34.6367 240.999 73.3967 240.999C112.157 240.999 113.397 312.199 102.277 402.399H51.6467Z" fill="#FBF6F0"/>
<path d="M65.0967 402.399H87.6367C92.3867 343.059 91.2067 256.399 73.9967 256.399C54.4167 256.419 60.3467 372.729 65.0967 402.399Z" fill="#85267A" fill-opacity="0.14"/>
<path d="M164.986 402.399C137.776 316.929 131.326 184.469 214.686 184.469C298.046 184.469 297.686 280.609 273.876 402.399H164.986Z" fill="#FBF6F0"/>
<path d="M169.207 402.399C144.337 322.509 140.587 198.679 216.747 198.679C292.907 198.679 290.437 288.549 268.677 402.399H169.207Z" fill="#85267A" fill-opacity="0.14"/>
<path d="M174.547 402.399C152.317 328.099 147.047 212.989 215.147 212.989C283.247 212.989 282.987 296.549 263.497 402.399H174.547Z" fill="#FBF6F0"/>
<path d="M181.666 402.399C163.196 333.709 160.416 227.259 216.986 227.259C273.556 227.259 271.666 304.519 255.516 402.399H181.666Z" fill="#85267A" fill-opacity="0.14"/>
<path d="M192.596 402.399C179.986 339.099 175.586 240.999 214.356 240.999C253.126 240.999 254.356 312.199 243.236 402.399H192.596Z" fill="#FBF6F0"/>
<path d="M206.047 402.399H228.597C233.347 343.099 232.157 256.419 214.987 256.419C195.367 256.419 201.307 372.729 206.047 402.399Z" fill="#85267A" fill-opacity="0.14"/>
<path d="M305.986 402.399C278.736 316.929 272.286 184.469 355.636 184.469C438.986 184.469 438.636 280.609 414.826 402.399H305.986Z" fill="#FBF6F0"/>
<path d="M310.156 402.399C285.296 322.509 281.536 198.679 357.696 198.679C433.856 198.679 431.396 288.549 409.636 402.399H310.156Z" fill="#85267A" fill-opacity="0.14"/>
<path d="M315.506 402.399C293.266 328.099 287.986 212.989 356.096 212.989C424.206 212.989 423.906 296.549 404.456 402.399H315.506Z" fill="#FBF6F0"/>
<path d="M322.617 402.399C304.157 333.709 301.367 227.259 357.907 227.259C414.447 227.259 412.627 304.519 396.467 402.399H322.617Z" fill="#85267A" fill-opacity="0.14"/>
<path d="M333.557 402.399C320.897 339.099 316.557 240.999 355.317 240.999C394.077 240.999 395.267 312.199 384.187 402.399H333.557Z" fill="#FBF6F0"/>
<path d="M346.987 402.399H369.537C374.277 343.059 373.097 256.399 355.887 256.399C336.327 256.419 342.257 372.729 346.987 402.399Z" fill="#85267A" fill-opacity="0.14"/>
<path d="M446.906 402.399C419.686 316.929 413.236 184.469 496.596 184.469C579.956 184.469 579.596 280.609 555.786 402.399H446.906Z" fill="#FBF6F0"/>
<path d="M451.116 402.399C426.246 322.509 422.496 198.679 498.656 198.679C574.816 198.679 572.346 288.549 550.586 402.399H451.116Z" fill="#85267A" fill-opacity="0.14"/>
<path d="M456.466 402.399C434.226 328.099 428.986 212.989 497.056 212.989C565.126 212.989 564.866 296.549 545.406 402.399H456.466Z" fill="#FBF6F0"/>
<path d="M463.577 402.399C445.107 333.709 442.327 227.259 498.867 227.259C555.407 227.259 553.577 304.519 537.427 402.399H463.577Z" fill="#85267A" fill-opacity="0.14"/>
<path d="M474.506 402.399C461.846 339.099 457.506 240.999 496.266 240.999C535.026 240.999 536.266 312.199 525.146 402.399H474.506Z" fill="#FBF6F0"/>
<path d="M487.986 402.399H510.536C515.286 343.059 514.096 256.399 496.886 256.399C477.276 256.419 483.216 372.729 487.986 402.399Z" fill="#85267A" fill-opacity="0.14"/>
<path d="M587.867 402.399C560.647 316.929 554.197 184.469 637.557 184.469C720.917 184.469 720.557 280.609 696.737 402.399H587.867Z" fill="#FBF6F0"/>
<path d="M592.077 402.399C567.207 322.509 563.447 198.679 639.607 198.679C715.767 198.679 713.307 288.549 691.547 402.399H592.077Z" fill="#85267A" fill-opacity="0.14"/>
<path d="M597.417 402.399C575.187 328.099 569.907 212.989 637.987 212.989C706.067 212.989 705.807 296.549 686.347 402.399H597.417Z" fill="#FBF6F0"/>
<path d="M604.526 402.399C586.066 333.709 583.276 227.259 639.826 227.259C696.376 227.259 694.536 304.519 678.386 402.399H604.526Z" fill="#85267A" fill-opacity="0.14"/>
<path d="M615.466 402.399C602.806 339.099 598.466 240.999 637.226 240.999C675.986 240.999 677.176 312.199 666.096 402.399H615.466Z" fill="#FBF6F0"/>
<path d="M628.917 402.399H651.467C656.207 343.059 655.027 256.399 637.817 256.399C618.237 256.419 624.167 372.729 628.917 402.399Z" fill="#85267A" fill-opacity="0.14"/>
<path d="M728.816 402.399C701.596 316.929 695.146 184.469 778.506 184.469C861.866 184.469 861.506 280.609 837.696 402.399H728.816Z" fill="#FBF6F0"/>
<path d="M732.986 402.399C708.156 322.509 704.407 198.679 780.567 198.679C856.727 198.679 854.267 288.549 832.507 402.399H732.986Z" fill="#85267A" fill-opacity="0.14"/>
<path d="M738.376 402.399C716.136 328.099 710.866 212.989 778.986 212.989C847.106 212.989 846.796 296.549 827.336 402.399H738.376Z" fill="#FBF6F0"/>
<path d="M745.487 402.399C726.987 333.709 724.237 227.259 780.777 227.259C837.317 227.259 835.497 304.519 819.337 402.399H745.487Z" fill="#85267A" fill-opacity="0.14"/>
<path d="M756.416 402.399C743.766 339.099 739.416 240.999 778.176 240.999C816.936 240.999 818.176 312.199 807.056 402.399H756.416Z" fill="#FBF6F0"/>
<path d="M769.867 402.399H792.417C797.167 343.059 795.977 256.399 778.777 256.399C759.187 256.419 765.127 372.729 769.867 402.399Z" fill="#85267A" fill-opacity="0.14"/>
<path d="M96.9865 494.569C69.8065 409.099 63.3565 276.639 146.716 276.639C230.076 276.639 229.716 372.789 205.906 494.569H96.9865Z" fill="#FBF6F0"/>
<path d="M101.236 494.569C76.3664 414.679 72.6164 290.849 148.776 290.849C224.936 290.849 222.466 380.729 200.706 494.569H101.236Z" fill="#85267A" fill-opacity="0.14"/>
<path d="M106.576 494.569C84.3464 420.289 79.0764 305.159 147.176 305.159C215.276 305.159 214.986 388.719 195.526 494.569H106.576Z" fill="#FBF6F0"/>
<path d="M113.696 494.569C95.2263 425.889 92.4463 319.429 148.986 319.429C205.526 319.429 203.696 396.699 187.546 494.569H113.696Z" fill="#85267A" fill-opacity="0.14"/>
<path d="M124.626 494.569C111.966 431.269 107.626 333.169 146.386 333.169C185.146 333.169 186.336 404.369 175.266 494.569H124.626Z" fill="#FBF6F0"/>
<path d="M138.077 494.569H160.627C165.377 435.229 164.187 348.569 146.977 348.569C127.397 348.599 133.337 464.899 138.077 494.569Z" fill="#85267A" fill-opacity="0.14"/>
<path d="M237.987 494.569C210.767 409.099 204.317 276.639 287.667 276.639C371.017 276.639 370.667 372.789 346.857 494.569H237.987Z" fill="#FBF6F0"/>
<path d="M242.187 494.569C217.327 414.679 213.567 290.849 289.727 290.849C365.887 290.849 363.427 380.729 341.667 494.569H242.187Z" fill="#85267A" fill-opacity="0.14"/>
<path d="M247.536 494.569C225.296 420.289 219.986 305.159 288.126 305.159C356.266 305.159 355.986 388.719 336.486 494.569H247.536Z" fill="#FBF6F0"/>
<path d="M254.647 494.569C236.187 425.889 233.397 319.429 289.987 319.429C346.577 319.429 344.707 396.699 328.547 494.569H254.647Z" fill="#85267A" fill-opacity="0.14"/>
<path d="M265.586 494.569C252.926 431.269 248.586 333.169 287.346 333.169C326.106 333.169 327.346 404.369 316.216 494.569H265.586Z" fill="#FBF6F0"/>
<path d="M279.037 494.569H301.587C306.327 435.229 305.147 348.569 287.937 348.569C268.357 348.599 274.287 464.899 279.037 494.569Z" fill="#85267A" fill-opacity="0.14"/>
<path d="M378.986 494.569C351.716 409.099 345.266 276.639 428.626 276.639C511.986 276.639 511.626 372.789 487.816 494.569H378.986Z" fill="#FBF6F0"/>
<path d="M383.147 494.569C358.277 414.679 354.527 290.849 430.687 290.849C506.847 290.849 504.377 380.729 482.617 494.569H383.147Z" fill="#85267A" fill-opacity="0.14"/>
<path d="M388.496 494.569C366.256 420.289 360.986 305.159 429.086 305.159C497.186 305.159 496.896 388.719 477.436 494.569H388.496Z" fill="#FBF6F0"/>
<path d="M395.606 494.569C377.136 425.889 374.356 319.429 430.896 319.429C487.436 319.429 485.606 396.699 469.456 494.569H395.606Z" fill="#85267A" fill-opacity="0.14"/>
<path d="M406.537 494.569C393.877 431.269 389.537 333.169 428.297 333.169C467.057 333.169 468.297 404.369 457.177 494.569H406.537Z" fill="#FBF6F0"/>
<path d="M419.986 494.569H442.536C447.286 435.229 446.096 348.569 428.886 348.569C409.306 348.599 415.246 464.899 419.986 494.569Z" fill="#85267A" fill-opacity="0.14"/>
<path d="M519.897 494.569C492.677 409.099 486.227 276.639 569.587 276.639C652.947 276.639 652.587 372.789 628.767 494.569H519.897Z" fill="#FBF6F0"/>
<path d="M524.106 494.569C499.236 414.679 495.476 290.849 571.636 290.849C647.796 290.849 645.336 380.729 623.576 494.569H524.106Z" fill="#85267A" fill-opacity="0.14"/>
<path d="M529.447 494.569C507.217 420.289 501.987 305.159 570.037 305.159C638.087 305.159 637.857 388.719 618.397 494.569H529.447Z" fill="#FBF6F0"/>
<path d="M536.557 494.569C518.097 425.889 515.307 319.429 571.857 319.429C628.407 319.429 626.567 396.699 610.417 494.569H536.557Z" fill="#85267A" fill-opacity="0.14"/>
<path d="M547.497 494.569C534.837 431.269 530.497 333.169 569.257 333.169C608.017 333.169 609.257 404.369 598.127 494.569H547.497Z" fill="#FBF6F0"/>
<path d="M560.986 494.569H583.536C588.276 435.229 587.096 348.569 569.886 348.569C550.266 348.599 556.196 464.899 560.986 494.569Z" fill="#85267A" fill-opacity="0.14"/>
<path d="M660.846 494.569C633.626 409.099 627.176 276.639 710.536 276.639C793.896 276.639 793.536 372.789 769.726 494.569H660.846Z" fill="#FBF6F0"/>
<path d="M665.057 494.569C640.187 414.679 636.437 290.849 712.597 290.849C788.757 290.849 786.297 380.729 764.537 494.569H665.057Z" fill="#85267A" fill-opacity="0.14"/>
<path d="M670.407 494.569C648.167 420.289 642.897 305.159 710.987 305.159C779.077 305.159 778.797 388.719 759.337 494.569H670.407Z" fill="#FBF6F0"/>
<path d="M677.517 494.569C659.047 425.889 656.267 319.429 712.807 319.429C769.347 319.429 767.527 396.699 751.367 494.569H677.517Z" fill="#85267A" fill-opacity="0.14"/>
<path d="M688.446 494.569C675.796 431.269 671.446 333.169 710.206 333.169C748.966 333.169 750.206 404.369 739.086 494.569H688.446Z" fill="#FBF6F0"/>
<path d="M701.896 494.569H724.446C729.196 435.229 728.006 348.569 710.806 348.569C691.216 348.599 697.156 464.899 701.896 494.569Z" fill="#85267A" fill-opacity="0.14"/>
<path d="M801.806 494.569C774.586 409.099 768.136 276.639 851.496 276.639C934.856 276.639 934.496 372.789 910.676 494.569H801.806Z" fill="#FBF6F0"/>
<path d="M805.986 494.569C781.116 414.679 777.366 290.849 853.526 290.849C929.686 290.849 927.216 380.729 905.456 494.569H805.986Z" fill="#85267A" fill-opacity="0.14"/>
<path d="M811.356 494.569C789.126 420.289 783.856 305.159 851.986 305.159C920.116 305.159 919.796 388.719 900.336 494.569H811.356Z" fill="#FBF6F0"/>
<path d="M818.467 494.569C799.987 425.889 797.217 319.429 853.767 319.429C910.317 319.429 908.477 396.699 892.327 494.569H818.467Z" fill="#85267A" fill-opacity="0.14"/>
<path d="M829.407 494.569C816.747 431.269 812.407 333.169 851.167 333.169C889.927 333.169 891.167 404.369 880.047 494.569H829.407Z" fill="#FBF6F0"/>
<path d="M842.857 494.569H865.407C870.157 435.229 868.967 348.569 851.757 348.569C832.177 348.599 838.107 464.899 842.857 494.569Z" fill="#85267A" fill-opacity="0.14"/>
<path d="M29.0567 586.739C1.83672 501.279 -4.6133 368.809 78.7467 368.809C162.107 368.809 161.747 464.959 137.937 586.739H29.0567Z" fill="#FBF6F0"/>
<path d="M33.2666 586.739C8.39665 506.849 4.64665 383.019 80.8067 383.019C156.967 383.019 154.497 472.899 132.737 586.739H33.2666Z" fill="#85267A" fill-opacity="0.14"/>
<path d="M38.6067 586.739C16.3767 512.459 11.1067 397.339 79.2067 397.339C147.307 397.339 146.987 480.899 127.557 586.739H38.6067Z" fill="#FBF6F0"/>
<path d="M45.7263 586.739C27.2563 518.099 24.4763 411.599 80.9863 411.599C137.496 411.599 135.696 488.869 119.546 586.739H45.7263Z" fill="#85267A" fill-opacity="0.14"/>
<path d="M56.6567 586.739C43.9967 523.449 39.6567 425.339 78.4167 425.339C117.177 425.339 118.367 496.549 107.297 586.739H56.6567Z" fill="#FBF6F0"/>
<path d="M70.1064 586.739H92.6564C97.4064 527.399 96.2164 440.739 79.0064 440.739C59.4264 440.769 65.3664 557.099 70.1064 586.739Z" fill="#85267A" fill-opacity="0.14"/>
<path d="M169.987 586.739C142.797 501.279 136.347 368.809 219.697 368.809C303.047 368.809 302.697 464.959 278.887 586.739H169.987Z" fill="#FBF6F0"/>
<path d="M174.216 586.739C149.356 506.849 145.596 383.019 221.756 383.019C297.916 383.019 295.456 472.899 273.696 586.739H174.216Z" fill="#85267A" fill-opacity="0.14"/>
<path d="M179.567 586.739C157.327 512.459 152.057 397.339 220.157 397.339C288.257 397.339 287.987 480.899 268.517 586.739H179.567Z" fill="#FBF6F0"/>
<path d="M186.677 586.739C168.217 518.099 165.427 411.599 221.987 411.599C278.547 411.599 276.687 488.869 260.527 586.739H186.677Z" fill="#85267A" fill-opacity="0.14"/>
<path d="M197.617 586.739C184.957 523.449 180.617 425.339 219.377 425.339C258.137 425.339 259.377 496.549 248.247 586.739H197.617Z" fill="#FBF6F0"/>
<path d="M211.066 586.739H233.616C238.356 527.399 237.176 440.739 219.966 440.739C200.386 440.769 206.316 557.099 211.066 586.739Z" fill="#85267A" fill-opacity="0.14"/>
<path d="M310.986 586.739C283.766 501.279 277.316 368.809 360.676 368.809C444.036 368.809 443.676 464.959 419.866 586.739H310.986Z" fill="#FBF6F0"/>
<path d="M315.176 586.739C290.306 506.849 286.556 383.019 362.716 383.019C438.876 383.019 436.406 472.899 414.646 586.739H315.176Z" fill="#85267A" fill-opacity="0.14"/>
<path d="M320.526 586.739C298.286 512.459 292.986 397.339 361.116 397.339C429.246 397.339 428.926 480.899 409.466 586.739H320.526Z" fill="#FBF6F0"/>
<path d="M327.637 586.739C309.167 518.099 306.387 411.599 362.927 411.599C419.467 411.599 417.637 488.869 401.487 586.739H327.637Z" fill="#85267A" fill-opacity="0.14"/>
<path d="M338.566 586.739C325.906 523.449 321.566 425.339 360.326 425.339C399.086 425.339 400.326 496.549 389.206 586.739H338.566Z" fill="#FBF6F0"/>
<path d="M351.986 586.739H374.536C379.286 527.399 378.096 440.739 360.886 440.739C341.336 440.769 347.276 557.099 351.986 586.739Z" fill="#85267A" fill-opacity="0.14"/>
<path d="M451.926 586.739C424.706 501.279 418.256 368.809 501.616 368.809C584.976 368.809 584.616 464.959 560.796 586.739H451.926Z" fill="#FBF6F0"/>
<path d="M456.137 586.739C431.267 506.849 427.507 383.019 503.667 383.019C579.827 383.019 577.367 472.899 555.607 586.739H456.137Z" fill="#85267A" fill-opacity="0.14"/>
<path d="M461.476 586.739C439.246 512.459 433.966 397.339 502.066 397.339C570.166 397.339 569.886 480.899 550.426 586.739H461.476Z" fill="#FBF6F0"/>
<path d="M468.586 586.739C450.126 518.099 447.336 411.599 503.886 411.599C560.436 411.599 558.596 488.869 542.446 586.739H468.586Z" fill="#85267A" fill-opacity="0.14"/>
<path d="M479.526 586.739C466.866 523.449 462.526 425.339 501.286 425.339C540.046 425.339 541.236 496.549 530.156 586.739H479.526Z" fill="#FBF6F0"/>
<path d="M492.987 586.739H515.537C520.277 527.399 519.097 440.739 501.887 440.739C482.297 440.769 488.227 557.099 492.987 586.739Z" fill="#85267A" fill-opacity="0.14"/>
<path d="M592.877 586.739C565.657 501.279 559.207 368.809 642.567 368.809C725.927 368.809 725.567 464.959 701.757 586.739H592.877Z" fill="#FBF6F0"/>
<path d="M597.086 586.739C572.216 506.849 568.466 383.019 644.626 383.019C720.786 383.019 718.326 472.899 696.566 586.739H597.086Z" fill="#85267A" fill-opacity="0.14"/>
<path d="M602.437 586.739C580.197 512.459 574.927 397.339 643.027 397.339C711.127 397.339 710.837 480.899 691.377 586.739H602.437Z" fill="#FBF6F0"/>
<path d="M609.546 586.739C591.076 518.099 588.296 411.599 644.836 411.599C701.376 411.599 699.556 488.869 683.396 586.739H609.546Z" fill="#85267A" fill-opacity="0.14"/>
<path d="M620.486 586.739C607.826 523.449 603.486 425.339 642.236 425.339C680.986 425.339 682.236 496.549 671.116 586.739H620.486Z" fill="#FBF6F0"/>
<path d="M633.927 586.739H656.477C661.227 527.399 660.037 440.739 642.837 440.739C623.247 440.769 629.187 557.099 633.927 586.739Z" fill="#85267A" fill-opacity="0.14"/>
<path d="M733.836 586.739C706.616 501.279 700.166 368.809 783.526 368.809C866.886 368.809 866.526 464.959 842.706 586.739H733.836Z" fill="#FBF6F0"/>
<path d="M738.046 586.739C713.176 506.849 709.426 383.019 785.586 383.019C861.746 383.019 859.276 472.899 837.516 586.739H738.046Z" fill="#85267A" fill-opacity="0.14"/>
<path d="M743.386 586.739C721.156 512.459 715.886 397.339 783.986 397.339C852.086 397.339 851.796 480.899 832.336 586.739H743.386Z" fill="#FBF6F0"/>
<path d="M750.496 586.739C732.036 518.099 729.246 411.599 785.796 411.599C842.346 411.599 840.506 488.869 824.356 586.739H750.496Z" fill="#85267A" fill-opacity="0.14"/>
<path d="M761.437 586.739C748.777 523.449 744.437 425.339 783.197 425.339C821.957 425.339 823.147 496.549 812.077 586.739H761.437Z" fill="#FBF6F0"/>
<path d="M774.886 586.739H797.436C802.186 527.399 800.996 440.739 783.786 440.739C764.206 440.769 770.136 557.099 774.886 586.739Z" fill="#85267A" fill-opacity="0.14"/>
<path d="M102.047 678.909C74.8266 593.449 68.3766 460.979 151.727 460.979C235.077 460.979 234.737 557.099 210.917 678.909H102.047Z" fill="#FBF6F0"/>
<path d="M106.247 678.909C81.3867 599.019 77.6266 475.189 153.787 475.189C229.947 475.189 227.487 565.099 205.727 678.909H106.247Z" fill="#85267A" fill-opacity="0.14"/>
<path d="M111.596 678.909C89.3564 604.639 84.0864 489.509 152.186 489.509C220.286 489.509 219.986 573.099 200.546 678.909H111.596Z" fill="#FBF6F0"/>
<path d="M118.707 678.909C100.247 610.229 97.4567 503.769 153.987 503.769C210.517 503.769 208.707 581.039 192.547 678.909H118.707Z" fill="#85267A" fill-opacity="0.14"/>
<path d="M129.646 678.909C116.986 615.619 112.646 517.509 151.406 517.509C190.166 517.509 191.406 588.719 180.276 678.909H129.646Z" fill="#FBF6F0"/>
<path d="M143.097 678.909H165.647C170.387 619.569 169.207 532.909 151.997 532.909C132.417 532.939 138.347 649.239 143.097 678.909Z" fill="#85267A" fill-opacity="0.14"/>
<path d="M242.986 678.909C215.776 593.449 209.326 460.979 292.686 460.979C376.046 460.979 375.686 557.129 351.876 678.909H242.986Z" fill="#FBF6F0"/>
<path d="M247.207 678.909C222.337 599.019 218.587 475.189 294.747 475.189C370.907 475.189 368.437 565.099 346.677 678.909H247.207Z" fill="#85267A" fill-opacity="0.14"/>
<path d="M252.556 678.909C230.316 604.639 225.046 489.509 293.146 489.509C361.246 489.509 360.986 573.099 341.496 678.909H252.556Z" fill="#FBF6F0"/>
<path d="M259.666 678.909C241.196 610.229 238.416 503.769 294.986 503.769C351.556 503.769 349.696 581.039 333.546 678.909H259.666Z" fill="#85267A" fill-opacity="0.14"/>
<path d="M270.597 678.909C257.937 615.619 253.597 517.509 292.357 517.509C331.117 517.509 332.357 588.719 321.237 678.909H270.597Z" fill="#FBF6F0"/>
<path d="M284.046 678.909H306.596C311.346 619.569 310.156 532.909 292.946 532.909C273.366 532.939 279.306 649.239 284.046 678.909Z" fill="#85267A" fill-opacity="0.14"/>
<path d="M383.986 678.909C356.766 593.449 350.316 460.979 433.676 460.979C517.036 460.979 516.676 557.129 492.856 678.909H383.986Z" fill="#FBF6F0"/>
<path d="M388.166 678.909C363.296 599.019 359.536 475.189 435.696 475.189C511.856 475.189 509.396 565.069 487.636 678.909H388.166Z" fill="#85267A" fill-opacity="0.14"/>
<path d="M393.507 678.909C371.277 604.639 365.997 489.509 434.097 489.509C502.197 489.509 501.917 573.069 482.457 678.909H393.507Z" fill="#FBF6F0"/>
<path d="M400.617 678.909C382.157 610.229 379.367 503.769 435.917 503.769C492.467 503.769 490.627 581.039 474.477 678.909H400.617Z" fill="#85267A" fill-opacity="0.14"/>
<path d="M411.557 678.909C398.897 615.619 394.557 517.509 433.317 517.509C472.077 517.509 473.267 588.719 462.187 678.909H411.557Z" fill="#FBF6F0"/>
<path d="M424.987 678.909H447.537C452.277 619.569 451.097 532.909 433.887 532.909C414.327 532.939 420.257 649.239 424.987 678.909Z" fill="#85267A" fill-opacity="0.14"/>
<path d="M524.906 678.909C497.686 593.449 491.236 460.979 574.596 460.979C657.956 460.979 657.596 557.129 633.786 678.909H524.906Z" fill="#FBF6F0"/>
<path d="M529.117 678.909C504.247 599.019 500.497 475.189 576.657 475.189C652.817 475.189 650.357 565.069 628.597 678.909H529.117Z" fill="#85267A" fill-opacity="0.14"/>
<path d="M534.467 678.909C512.227 604.639 506.957 489.509 575.057 489.509C643.157 489.509 642.867 573.069 623.407 678.909H534.467Z" fill="#FBF6F0"/>
<path d="M541.577 678.909C523.107 610.229 520.327 503.769 576.867 503.769C633.407 503.769 631.587 581.039 615.427 678.909H541.577Z" fill="#85267A" fill-opacity="0.14"/>
<path d="M552.517 678.909C539.857 615.619 535.517 517.509 574.267 517.509C613.017 517.509 614.267 588.719 603.147 678.909H552.517Z" fill="#FBF6F0"/>
<path d="M565.987 678.909H588.527C593.277 619.569 592.087 532.909 574.887 532.909C555.277 532.939 561.217 649.239 565.987 678.909Z" fill="#85267A" fill-opacity="0.14"/>
<path d="M665.867 678.909C638.647 593.449 632.197 460.979 715.557 460.979C798.917 460.979 798.557 557.129 774.737 678.909H665.867Z" fill="#FBF6F0"/>
<path d="M670.077 678.909C645.207 599.019 641.457 475.189 717.617 475.189C793.777 475.189 791.307 565.099 769.547 678.909H670.077Z" fill="#85267A" fill-opacity="0.14"/>
<path d="M675.417 678.909C653.187 604.639 647.917 489.509 716.017 489.509C784.117 489.509 783.827 573.069 764.367 678.909H675.417Z" fill="#FBF6F0"/>
<path d="M682.526 678.909C664.066 610.229 661.276 503.769 717.826 503.769C774.376 503.769 772.536 581.039 756.386 678.909H682.526Z" fill="#85267A" fill-opacity="0.14"/>
<path d="M693.466 678.909C680.806 615.619 676.466 517.509 715.226 517.509C753.986 517.509 755.226 588.719 744.106 678.909H693.466Z" fill="#FBF6F0"/>
<path d="M706.917 678.909H729.467C734.217 619.569 733.027 532.909 715.817 532.909C696.237 532.939 702.167 649.239 706.917 678.909Z" fill="#85267A" fill-opacity="0.14"/>
<path d="M806.817 678.909C779.607 593.449 773.147 460.979 856.507 460.979C939.867 460.979 939.507 557.129 915.697 678.909H806.817Z" fill="#FBF6F0"/>
<path d="M810.986 678.909C786.116 599.019 782.366 475.189 858.526 475.189C934.686 475.189 932.226 565.069 910.466 678.909H810.986Z" fill="#85267A" fill-opacity="0.14"/>
<path d="M816.377 678.909C794.137 604.639 788.867 489.509 856.967 489.509C925.067 489.509 924.777 573.069 905.327 678.909H816.377Z" fill="#FBF6F0"/>
<path d="M823.487 678.909C804.987 610.229 802.237 503.769 858.777 503.769C915.317 503.769 913.497 581.039 897.337 678.909H823.487Z" fill="#85267A" fill-opacity="0.14"/>
<path d="M834.427 678.909C821.767 615.619 817.427 517.509 856.177 517.509C894.927 517.509 896.177 588.719 885.057 678.909H834.427Z" fill="#FBF6F0"/>
<path d="M847.877 678.909H870.417C875.167 619.569 873.986 532.909 856.776 532.909C837.196 532.939 843.127 649.239 847.877 678.909Z" fill="#85267A" fill-opacity="0.14"/>
<path d="M34.0764 771.099C6.85637 685.639 0.40638 553.179 83.7564 553.179C167.106 553.179 166.766 649.299 142.986 771.099H34.0764Z" fill="#FBF6F0"/>
<path d="M38.2764 771.099C13.4164 691.209 9.65644 567.389 85.8164 567.389C161.976 567.389 159.516 657.239 137.756 771.099H38.2764Z" fill="#85267A" fill-opacity="0.14"/>
<path d="M43.6267 771.099C21.3867 696.829 16.1167 581.699 84.2167 581.699C152.317 581.699 151.987 665.239 132.577 771.099H43.6267Z" fill="#FBF6F0"/>
<path d="M50.7367 771.099C32.2767 702.399 29.4867 595.939 85.9867 595.939C142.487 595.939 140.747 673.209 124.587 771.099H50.7367Z" fill="#85267A" fill-opacity="0.14"/>
<path d="M61.6767 771.099C49.0167 707.809 44.6767 609.699 83.4367 609.699C122.197 609.699 123.437 680.909 112.307 771.099H61.6767Z" fill="#FBF6F0"/>
<path d="M75.1265 771.099H97.6765C102.417 711.759 101.237 625.099 84.0265 625.099C64.4465 625.099 70.3765 741.409 75.1265 771.099Z" fill="#85267A" fill-opacity="0.14"/>
<path d="M174.986 771.099C147.766 685.639 141.316 553.179 224.676 553.179C308.036 553.179 307.716 649.299 283.906 771.099H174.986Z" fill="#FBF6F0"/>
<path d="M179.236 771.099C154.366 691.209 150.616 567.389 226.776 567.389C302.936 567.389 300.466 657.239 278.706 771.099H179.236Z" fill="#85267A" fill-opacity="0.14"/>
<path d="M184.587 771.099C162.347 696.829 157.077 581.699 225.177 581.699C293.277 581.699 292.987 665.239 273.527 771.099H184.587Z" fill="#FBF6F0"/>
<path d="M191.696 771.099C173.226 702.399 170.446 595.939 226.986 595.939C283.526 595.939 281.696 673.209 265.546 771.099H191.696Z" fill="#85267A" fill-opacity="0.14"/>
<path d="M202.626 771.099C189.966 707.809 185.626 609.699 224.386 609.699C263.146 609.699 264.386 680.909 253.266 771.099H202.626Z" fill="#FBF6F0"/>
<path d="M216.077 771.099H238.627C243.377 711.739 242.187 625.099 224.987 625.099C205.397 625.099 211.337 741.409 216.077 771.099Z" fill="#85267A" fill-opacity="0.14"/>
<path d="M315.986 771.099C288.766 685.639 282.316 553.179 365.676 553.179C449.036 553.179 448.676 649.319 424.856 771.099H315.986Z" fill="#FBF6F0"/>
<path d="M320.197 771.099C295.327 691.209 291.567 567.389 367.727 567.389C443.887 567.389 441.427 657.259 419.667 771.099H320.197Z" fill="#85267A" fill-opacity="0.14"/>
<path d="M325.537 771.099C303.307 696.809 297.987 581.679 366.127 581.679C434.267 581.679 433.987 665.239 414.487 771.099H325.537Z" fill="#FBF6F0"/>
<path d="M332.647 771.099C314.187 702.399 311.397 595.939 367.987 595.939C424.577 595.939 422.657 673.209 406.507 771.099H332.647Z" fill="#85267A" fill-opacity="0.14"/>
<path d="M343.586 771.099C330.926 707.809 326.586 609.699 365.346 609.699C404.106 609.699 405.296 680.909 394.216 771.099H343.586Z" fill="#FBF6F0"/>
<path d="M357.037 771.099H379.587C384.327 711.759 383.147 625.099 365.937 625.099C346.357 625.099 352.287 741.409 357.037 771.099Z" fill="#85267A" fill-opacity="0.14"/>
<path d="M456.986 771.099C429.766 685.639 423.316 553.179 506.676 553.179C590.036 553.179 589.676 649.319 565.866 771.099H456.986Z" fill="#FBF6F0"/>
<path d="M461.147 771.099C436.277 691.209 432.527 567.389 508.687 567.389C584.847 567.389 582.387 657.239 560.627 771.099H461.147Z" fill="#85267A" fill-opacity="0.14"/>
<path d="M466.496 771.099C444.256 696.829 438.986 581.699 507.086 581.699C575.186 581.699 574.896 665.259 555.436 771.099H466.496Z" fill="#FBF6F0"/>
<path d="M473.606 771.099C455.136 702.419 452.356 595.958 508.896 595.958C565.436 595.958 563.616 673.209 547.456 771.099H473.606Z" fill="#85267A" fill-opacity="0.14"/>
<path d="M484.547 771.099C471.887 707.809 467.547 609.699 506.297 609.699C545.047 609.699 546.297 680.909 535.177 771.099H484.547Z" fill="#FBF6F0"/>
<path d="M497.986 771.099H520.526C525.276 711.759 524.086 625.099 506.886 625.099C487.306 625.099 493.246 741.409 497.986 771.099Z" fill="#85267A" fill-opacity="0.14"/>
<path d="M597.897 771.099C570.677 685.639 564.227 553.179 647.587 553.179C730.947 553.179 730.587 649.319 706.767 771.099H597.897Z" fill="#FBF6F0"/>
<path d="M602.106 771.099C577.236 691.209 573.486 567.389 649.646 567.389C725.807 567.389 723.336 657.239 701.576 771.099H602.106Z" fill="#85267A" fill-opacity="0.14"/>
<path d="M607.447 771.099C585.217 696.829 579.947 581.699 648.047 581.699C716.147 581.699 715.857 665.259 696.397 771.099H607.447Z" fill="#FBF6F0"/>
<path d="M614.557 771.099C596.097 702.419 593.307 595.958 649.857 595.958C706.407 595.958 704.567 673.209 688.417 771.099H614.557Z" fill="#85267A" fill-opacity="0.14"/>
<path d="M625.497 771.099C612.837 707.809 608.497 609.699 647.257 609.699C686.017 609.699 687.257 680.909 676.137 771.099H625.497Z" fill="#FBF6F0"/>
<path d="M638.986 771.099H661.536C666.286 711.759 665.096 625.099 647.886 625.099C628.266 625.099 634.196 741.409 638.986 771.099Z" fill="#85267A" fill-opacity="0.14"/>
<path d="M738.846 771.099C711.636 685.639 705.176 553.179 788.536 553.179C871.896 553.179 871.536 649.319 847.726 771.099H738.846Z" fill="#FBF6F0"/>
<path d="M743.057 771.099C718.187 691.209 714.437 567.389 790.597 567.389C866.757 567.389 864.297 657.259 842.537 771.099H743.057Z" fill="#85267A" fill-opacity="0.14"/>
<path d="M748.407 771.099C726.167 696.829 720.897 581.699 788.997 581.699C857.097 581.699 856.807 665.259 837.357 771.099H748.407Z" fill="#FBF6F0"/>
<path d="M755.516 771.099C737.056 702.419 734.266 595.958 790.806 595.958C847.346 595.958 845.526 673.209 829.366 771.099H755.516Z" fill="#85267A" fill-opacity="0.14"/>
<path d="M766.456 771.099C753.796 707.809 749.456 609.699 788.206 609.699C826.956 609.699 828.206 680.909 817.086 771.099H766.456Z" fill="#FBF6F0"/>
<path d="M779.907 771.099H802.447C807.197 711.759 806.017 625.099 788.807 625.099C769.227 625.099 775.157 741.409 779.907 771.099Z" fill="#85267A" fill-opacity="0.14"/>
<path d="M107.057 863.249C79.8367 777.789 73.3867 645.329 156.747 645.329C240.107 645.329 239.747 741.469 215.987 863.249H107.057Z" fill="#FBF6F0"/>
<path d="M111.267 863.249C86.3966 783.369 82.6466 659.539 158.807 659.539C234.967 659.539 232.497 749.409 210.737 863.249H111.267Z" fill="#85267A" fill-opacity="0.14"/>
<path d="M116.616 863.249C94.3764 788.979 89.1064 673.849 157.206 673.849C225.306 673.849 224.986 757.409 205.556 863.249H116.616Z" fill="#FBF6F0"/>
<path d="M123.726 863.249C105.256 794.569 102.476 688.099 158.986 688.099C215.496 688.099 213.726 765.379 197.576 863.249H123.726Z" fill="#85267A" fill-opacity="0.14"/>
<path d="M134.657 863.249C121.997 799.959 117.657 701.849 156.417 701.849C195.177 701.849 196.417 773.059 185.297 863.249H134.657Z" fill="#FBF6F0"/>
<path d="M148.106 863.249H170.656C175.406 803.919 174.216 717.249 157.006 717.249C137.426 717.279 143.366 833.589 148.106 863.249Z" fill="#85267A" fill-opacity="0.14"/>
<path d="M247.986 863.249C220.796 777.789 214.346 645.329 297.706 645.329C381.066 645.329 380.706 741.469 356.886 863.249H247.986Z" fill="#FBF6F0"/>
<path d="M252.226 863.249C227.356 783.369 223.596 659.539 299.756 659.539C375.916 659.539 373.456 749.409 351.696 863.249H252.226Z" fill="#85267A" fill-opacity="0.14"/>
<path d="M257.567 863.249C235.337 788.979 230.057 673.849 298.167 673.849C366.277 673.849 365.977 757.409 346.517 863.249H257.567Z" fill="#FBF6F0"/>
<path d="M264.677 863.249C246.217 794.569 243.427 688.099 299.987 688.099C356.547 688.099 354.697 765.359 338.547 863.229L264.677 863.249Z" fill="#85267A" fill-opacity="0.14"/>
<path d="M275.617 863.249C262.957 799.959 258.617 701.849 297.377 701.849C336.137 701.849 337.377 773.059 326.247 863.249H275.617Z" fill="#FBF6F0"/>
<path d="M289.066 863.249H311.616C316.356 803.919 315.176 717.249 297.966 717.249C278.386 717.279 284.316 833.589 289.066 863.249Z" fill="#85267A" fill-opacity="0.14"/>
<path d="M388.986 863.249C361.766 777.789 355.316 645.329 438.676 645.329C522.036 645.329 521.676 741.469 497.866 863.249H388.986Z" fill="#FBF6F0"/>
<path d="M393.176 863.249C368.306 783.369 364.556 659.539 440.716 659.539C516.876 659.539 514.416 749.409 492.656 863.249H393.176Z" fill="#85267A" fill-opacity="0.14"/>
<path d="M398.527 863.249C376.287 788.979 371.017 673.849 439.117 673.849C507.217 673.849 506.927 757.409 487.467 863.249H398.527Z" fill="#FBF6F0"/>
<path d="M405.637 863.249C387.167 794.569 384.387 688.099 440.927 688.099C497.467 688.099 495.647 765.359 479.487 863.229L405.637 863.249Z" fill="#85267A" fill-opacity="0.14"/>
<path d="M416.576 863.249C403.916 799.959 399.576 701.849 438.326 701.849C477.076 701.849 478.326 773.059 467.206 863.249H416.576Z" fill="#FBF6F0"/>
<path d="M429.986 863.249H452.526C457.276 803.919 456.086 717.249 438.886 717.249C419.336 717.279 425.276 833.589 429.986 863.249Z" fill="#85267A" fill-opacity="0.14"/>
<path d="M529.926 863.249C502.706 777.789 496.256 645.329 579.616 645.329C662.976 645.329 662.616 741.469 638.796 863.249H529.926Z" fill="#FBF6F0"/>
<path d="M534.137 863.249C509.267 783.369 505.517 659.539 581.677 659.539C657.837 659.539 655.367 749.409 633.607 863.249H534.137Z" fill="#85267A" fill-opacity="0.14"/>
<path d="M539.476 863.249C517.246 788.979 511.976 673.849 580.076 673.849C648.176 673.849 647.886 757.409 628.426 863.249H539.476Z" fill="#FBF6F0"/>
<path d="M546.586 863.249C528.126 794.569 525.336 688.099 581.886 688.099C638.436 688.099 636.596 765.359 620.446 863.229L546.586 863.249Z" fill="#85267A" fill-opacity="0.14"/>
<path d="M557.526 863.249C544.866 799.959 540.526 701.849 579.286 701.849C618.046 701.849 619.236 773.059 608.166 863.249H557.526Z" fill="#FBF6F0"/>
<path d="M570.987 863.249H593.537C598.287 803.919 597.097 717.249 579.887 717.249C560.297 717.279 566.227 833.589 570.987 863.249Z" fill="#85267A" fill-opacity="0.14"/>
<path d="M670.877 863.249C643.667 777.789 637.207 645.329 720.567 645.329C803.927 645.329 803.567 741.469 779.757 863.249H670.877Z" fill="#FBF6F0"/>
<path d="M675.086 863.249C650.216 783.369 646.466 659.539 722.626 659.539C798.786 659.539 796.326 749.409 774.566 863.249H675.086Z" fill="#85267A" fill-opacity="0.14"/>
<path d="M680.437 863.249C658.197 788.979 652.927 673.849 721.027 673.849C789.127 673.849 788.837 757.409 769.387 863.249H680.437Z" fill="#FBF6F0"/>
<path d="M687.546 863.249C669.086 794.569 666.296 688.099 722.836 688.099C779.376 688.099 777.556 765.359 761.396 863.229L687.546 863.249Z" fill="#85267A" fill-opacity="0.14"/>
<path d="M698.486 863.249C685.826 799.959 681.486 701.849 720.236 701.849C758.986 701.849 760.236 773.059 749.116 863.249H698.486Z" fill="#FBF6F0"/>
<path d="M711.987 863.249H734.527C739.277 803.919 738.097 717.249 720.887 717.249C701.257 717.279 707.187 833.589 711.987 863.249Z" fill="#85267A" fill-opacity="0.14"/>
<path d="M811.836 863.249C784.616 777.789 778.166 645.329 861.526 645.329C944.886 645.329 944.526 741.469 920.716 863.249H811.836Z" fill="#FBF6F0"/>
<path d="M816.047 863.249C791.177 783.369 787.427 659.539 863.587 659.539C939.747 659.539 937.277 749.409 915.517 863.249H816.047Z" fill="#85267A" fill-opacity="0.14"/>
<path d="M821.386 863.249C799.156 788.979 793.886 673.849 861.986 673.849C930.086 673.849 929.796 757.409 910.336 863.249H821.386Z" fill="#FBF6F0"/>
<path d="M828.507 863.249C810.037 794.569 807.257 688.099 863.797 688.099C920.337 688.099 918.507 765.359 902.357 863.229L828.507 863.249Z" fill="#85267A" fill-opacity="0.14"/>
<path d="M839.437 863.249C826.777 799.959 822.437 701.849 861.197 701.849C899.957 701.849 901.147 773.059 890.077 863.249H839.437Z" fill="#FBF6F0"/>
<path d="M852.886 863.249H875.436C880.186 803.919 878.996 717.249 861.786 717.249C842.206 717.279 848.146 833.589 852.886 863.249Z" fill="#85267A" fill-opacity="0.14"/>
<path d="M39.0865 955.429C11.8665 869.959 5.4165 737.499 88.7765 737.499C172.136 737.499 171.776 833.639 147.966 955.429H39.0865Z" fill="#FBF6F0"/>
<path d="M43.2964 955.429C18.4264 875.539 14.6764 751.708 90.8364 751.708C166.996 751.708 164.526 841.579 142.766 955.429H43.2964Z" fill="#85267A" fill-opacity="0.14"/>
<path d="M48.6467 955.429C26.4067 881.149 21.1367 766.019 89.2367 766.019C157.337 766.019 157.047 849.579 137.587 955.429H48.6467Z" fill="#FBF6F0"/>
<path d="M55.7564 955.429C37.2864 886.739 34.5064 780.289 91.0464 780.289C147.586 780.289 145.756 857.549 129.606 955.429H55.7564Z" fill="#85267A" fill-opacity="0.14"/>
<path d="M66.6865 955.429C54.0265 892.129 49.6865 794.029 88.4465 794.029C127.206 794.029 128.446 865.229 117.326 955.429H66.6865Z" fill="#FBF6F0"/>
<path d="M80.1367 955.429H102.687C107.437 896.089 106.247 809.429 89.0367 809.429C69.4567 809.449 75.3967 925.759 80.1367 955.429Z" fill="#85267A" fill-opacity="0.14"/>
<path d="M180.046 955.429C152.826 869.959 146.376 737.499 229.736 737.499C313.096 737.499 312.736 833.639 288.916 955.429H180.046Z" fill="#FBF6F0"/>
<path d="M184.256 955.429C159.386 875.539 155.626 751.708 231.786 751.708C307.946 751.708 305.486 841.579 283.726 955.429H184.256Z" fill="#85267A" fill-opacity="0.14"/>
<path d="M189.596 955.429C167.366 881.149 162.096 766.019 230.196 766.019C298.296 766.019 297.986 849.579 278.546 955.429H189.596Z" fill="#FBF6F0"/>
<path d="M196.707 955.429C178.247 886.739 175.457 780.289 231.987 780.289C288.517 780.289 286.697 857.549 270.547 955.429H196.707Z" fill="#85267A" fill-opacity="0.14"/>
<path d="M207.646 955.429C194.986 892.129 190.646 794.029 229.406 794.029C268.166 794.029 269.356 865.229 258.276 955.429H207.646Z" fill="#FBF6F0"/>
<path d="M221.097 955.429H243.647C248.387 896.089 247.207 809.429 229.997 809.429C210.417 809.449 216.347 925.759 221.097 955.429Z" fill="#85267A" fill-opacity="0.14"/>
<path d="M320.986 955.429C293.776 869.959 287.326 737.499 370.686 737.499C454.046 737.499 453.686 833.639 429.876 955.429H320.986Z" fill="#FBF6F0"/>
<path d="M325.207 955.429C300.337 875.539 296.587 751.708 372.747 751.708C448.907 751.708 446.447 841.579 424.687 955.429H325.207Z" fill="#85267A" fill-opacity="0.14"/>
<path d="M330.556 955.429C308.316 881.149 303.046 766.019 371.146 766.019C439.246 766.019 438.986 849.579 419.496 955.429H330.556Z" fill="#FBF6F0"/>
<path d="M337.666 955.429C319.196 886.739 316.416 780.289 372.986 780.289C429.556 780.289 427.706 857.549 411.546 955.429H337.666Z" fill="#85267A" fill-opacity="0.14"/>
<path d="M348.607 955.429C335.947 892.129 331.607 794.029 370.357 794.029C409.107 794.029 410.357 865.229 399.237 955.429H348.607Z" fill="#FBF6F0"/>
<path d="M362.056 955.429H384.596C389.346 896.089 388.156 809.429 370.956 809.429C351.366 809.449 357.306 925.759 362.056 955.429Z" fill="#85267A" fill-opacity="0.14"/>
<path d="M461.986 955.429C434.736 869.959 428.286 737.499 511.646 737.499C595.006 737.499 594.646 833.639 570.826 955.429H461.986Z" fill="#FBF6F0"/>
<path d="M466.167 955.429C441.297 875.539 437.547 751.708 513.707 751.708C589.867 751.708 587.397 841.579 565.637 955.429H466.167Z" fill="#85267A" fill-opacity="0.14"/>
<path d="M471.507 955.429C449.277 881.149 444.007 766.019 512.107 766.019C580.207 766.019 579.917 849.579 560.457 955.429H471.507Z" fill="#FBF6F0"/>
<path d="M478.617 955.429C460.157 886.739 457.367 780.289 513.917 780.289C570.467 780.289 568.627 857.549 552.477 955.429H478.617Z" fill="#85267A" fill-opacity="0.14"/>
<path d="M489.557 955.429C476.897 892.129 472.557 794.029 511.317 794.029C550.077 794.029 551.267 865.229 540.197 955.429H489.557Z" fill="#FBF6F0"/>
<path d="M502.987 955.429H525.537C530.287 896.089 529.097 809.429 511.887 809.429C492.327 809.449 498.257 925.759 502.987 955.429Z" fill="#85267A" fill-opacity="0.14"/>
<path d="M602.906 955.429C575.696 869.959 569.236 737.499 652.596 737.499C735.956 737.499 735.596 833.639 711.786 955.429H602.906Z" fill="#FBF6F0"/>
<path d="M607.117 955.429C582.247 875.539 578.497 751.708 654.657 751.708C730.817 751.708 728.357 841.579 706.597 955.429H607.117Z" fill="#85267A" fill-opacity="0.14"/>
<path d="M612.467 955.429C590.227 881.149 584.987 766.019 653.057 766.019C721.127 766.019 720.867 849.579 701.417 955.429H612.467Z" fill="#FBF6F0"/>
<path d="M619.577 955.429C601.117 886.739 598.327 780.289 654.867 780.289C711.407 780.289 709.587 857.549 693.427 955.429H619.577Z" fill="#85267A" fill-opacity="0.14"/>
<path d="M630.517 955.429C617.857 892.129 613.517 794.029 652.267 794.029C691.017 794.029 692.267 865.229 681.147 955.429H630.517Z" fill="#FBF6F0"/>
<path d="M643.987 955.429H666.527C671.277 896.089 670.097 809.429 652.887 809.429C633.287 809.449 639.217 925.759 643.987 955.429Z" fill="#85267A" fill-opacity="0.14"/>
<path d="M743.867 955.429C716.647 869.959 710.197 737.499 793.557 737.499C876.917 737.499 876.557 833.639 852.747 955.429H743.867Z" fill="#FBF6F0"/>
<path d="M748.077 955.429C723.207 875.539 719.457 751.708 795.617 751.708C871.777 751.708 869.307 841.579 847.547 955.429H748.077Z" fill="#85267A" fill-opacity="0.14"/>
<path d="M753.417 955.429C731.187 881.149 725.917 766.019 794.017 766.019C862.117 766.019 861.827 849.579 842.367 955.429H753.417Z" fill="#FBF6F0"/>
<path d="M760.536 955.429C742.066 886.739 739.286 780.289 795.826 780.289C852.366 780.289 850.536 857.549 834.386 955.429H760.536Z" fill="#85267A" fill-opacity="0.14"/>
<path d="M771.466 955.429C758.806 892.129 754.466 794.029 793.226 794.029C831.986 794.029 833.226 865.229 822.106 955.429H771.466Z" fill="#FBF6F0"/>
<path d="M784.916 955.429H807.466C812.216 896.089 811.026 809.429 793.816 809.429C774.236 809.449 780.176 925.759 784.916 955.429Z" fill="#85267A" fill-opacity="0.14"/>
<path d="M112.077 1047.6C84.8567 962.099 78.4067 829.669 161.767 829.669C245.127 829.669 244.767 925.819 220.987 1047.6H112.077Z" fill="#FBF6F0"/>
<path d="M116.287 1047.6C91.4165 967.709 87.6565 843.879 163.817 843.879C239.977 843.879 237.517 933.759 215.757 1047.6H116.287Z" fill="#85267A" fill-opacity="0.14"/>
<path d="M121.627 1047.6C99.3967 973.319 94.1267 858.199 162.227 858.199C230.327 858.199 230.037 941.759 210.577 1047.6H121.627Z" fill="#FBF6F0"/>
<path d="M128.736 1047.6C110.276 978.919 107.486 872.458 164.036 872.458C220.586 872.458 218.746 949.729 202.596 1047.6H128.736Z" fill="#85267A" fill-opacity="0.14"/>
<path d="M139.677 1047.6C127.017 984.299 122.677 886.199 161.437 886.199C200.197 886.199 201.387 957.399 190.307 1047.6H139.677Z" fill="#FBF6F0"/>
<path d="M153.127 1047.6H175.677C180.417 988.259 179.237 901.599 162.027 901.599C142.447 901.629 148.377 1017.93 153.127 1047.6Z" fill="#85267A" fill-opacity="0.14"/>
<path d="M252.986 1047.6C225.806 962.099 219.356 829.669 302.716 829.669C386.076 829.669 385.716 925.819 361.906 1047.6H252.986Z" fill="#FBF6F0"/>
<path d="M257.236 1047.6C232.366 967.709 228.616 843.879 304.776 843.879C380.936 843.879 378.476 933.759 356.716 1047.6H257.236Z" fill="#85267A" fill-opacity="0.14"/>
<path d="M262.587 1047.6C240.347 973.319 235.077 858.199 303.177 858.199C371.277 858.199 370.987 941.759 351.527 1047.6H262.587Z" fill="#FBF6F0"/>
<path d="M269.696 1047.6C251.226 978.919 248.446 872.458 304.986 872.458C361.526 872.458 359.706 949.729 343.546 1047.6H269.696Z" fill="#85267A" fill-opacity="0.14"/>
<path d="M280.637 1047.6C267.987 984.299 263.617 886.199 302.387 886.199C341.157 886.199 342.387 957.399 331.267 1047.6H280.637Z" fill="#FBF6F0"/>
<path d="M294.087 1047.6H316.627C321.377 988.259 320.187 901.599 302.987 901.599C283.397 901.629 289.337 1017.93 294.087 1047.6Z" fill="#85267A" fill-opacity="0.14"/>
<path d="M393.986 1047.6C366.766 962.099 360.316 829.669 443.676 829.669C527.036 829.669 526.676 925.819 502.856 1047.6H393.986Z" fill="#FBF6F0"/>
<path d="M398.196 1047.6C373.326 967.709 369.576 843.879 445.736 843.879C521.896 843.879 519.426 933.759 497.666 1047.6H398.196Z" fill="#85267A" fill-opacity="0.14"/>
<path d="M403.536 1047.6C381.306 973.319 376.036 858.199 444.136 858.199C512.236 858.199 511.986 941.759 492.486 1047.6H403.536Z" fill="#FBF6F0"/>
<path d="M410.647 1047.6C392.187 978.919 389.397 872.458 445.987 872.458C502.577 872.458 500.697 949.729 484.547 1047.6H410.647Z" fill="#85267A" fill-opacity="0.14"/>
<path d="M421.586 1047.6C408.926 984.299 404.586 886.199 443.346 886.199C482.106 886.199 483.296 957.399 472.226 1047.6H421.586Z" fill="#FBF6F0"/>
<path d="M435.037 1047.6H457.587C462.337 988.259 461.147 901.599 443.937 901.599C424.357 901.629 430.287 1017.93 435.037 1047.6Z" fill="#85267A" fill-opacity="0.14"/>
<path d="M534.986 1047.6C507.726 962.099 501.266 829.669 584.626 829.669C667.986 829.669 667.626 925.819 643.816 1047.6H534.986Z" fill="#FBF6F0"/>
<path d="M539.147 1047.6C514.277 967.709 510.527 843.879 586.687 843.879C662.847 843.879 660.387 933.759 638.627 1047.6H539.147Z" fill="#85267A" fill-opacity="0.14"/>
<path d="M544.497 1047.6C522.257 973.319 516.987 858.199 585.087 858.199C653.187 858.199 652.897 941.759 633.447 1047.6H544.497Z" fill="#FBF6F0"/>
<path d="M551.606 1047.6C533.146 978.919 530.356 872.458 586.896 872.458C643.436 872.458 641.616 949.729 625.456 1047.6H551.606Z" fill="#85267A" fill-opacity="0.14"/>
<path d="M562.547 1047.6C549.887 984.299 545.547 886.199 584.297 886.199C623.047 886.199 624.297 957.399 613.177 1047.6H562.547Z" fill="#FBF6F0"/>
<path d="M575.987 1047.6H598.537C603.277 988.259 602.097 901.599 584.887 901.599C565.317 901.629 571.247 1017.93 575.987 1047.6Z" fill="#85267A" fill-opacity="0.14"/>
<path d="M675.897 1047.6C648.677 962.099 642.227 829.669 725.587 829.669C808.947 829.669 808.587 925.819 784.777 1047.6H675.897Z" fill="#FBF6F0"/>
<path d="M680.106 1047.6C655.236 967.709 651.486 843.879 727.646 843.879C803.806 843.879 801.337 933.759 779.577 1047.6H680.106Z" fill="#85267A" fill-opacity="0.14"/>
<path d="M685.447 1047.6C663.217 973.319 657.947 858.199 726.047 858.199C794.147 858.199 793.856 941.759 774.396 1047.6H685.447Z" fill="#FBF6F0"/>
<path d="M692.566 1047.6C674.096 978.919 671.316 872.458 727.856 872.458C784.396 872.458 782.566 949.729 766.416 1047.6H692.566Z" fill="#85267A" fill-opacity="0.14"/>
<path d="M703.497 1047.6C690.837 984.299 686.497 886.199 725.257 886.199C764.017 886.199 765.257 957.399 754.137 1047.6H703.497Z" fill="#FBF6F0"/>
<path d="M716.986 1047.6H739.536C744.286 988.259 743.096 901.599 725.886 901.599C706.266 901.629 712.206 1017.93 716.986 1047.6Z" fill="#85267A" fill-opacity="0.14"/>
<path d="M816.857 1047.6C789.637 962.099 783.187 829.669 866.537 829.669C949.887 829.669 949.537 925.819 925.727 1047.6H816.857Z" fill="#FBF6F0"/>
<path d="M821.056 1047.6C796.196 967.709 792.436 843.879 868.596 843.879C944.756 843.879 942.296 933.759 920.536 1047.6H821.056Z" fill="#85267A" fill-opacity="0.14"/>
<path d="M826.407 1047.6C804.167 973.319 798.897 858.199 866.987 858.199C935.077 858.199 934.797 941.759 915.347 1047.6H826.407Z" fill="#FBF6F0"/>
<path d="M833.516 1047.6C815.056 978.919 812.266 872.458 868.806 872.458C925.346 872.458 923.526 949.729 907.366 1047.6H833.516Z" fill="#85267A" fill-opacity="0.14"/>
<path d="M844.456 1047.6C831.796 984.299 827.457 886.199 866.216 886.199C904.976 886.199 906.166 957.399 895.086 1047.6H844.456Z" fill="#FBF6F0"/>
<path d="M857.907 1047.6H880.457C885.197 988.259 884.017 901.599 866.807 901.599C847.227 901.629 853.157 1017.93 857.907 1047.6Z" fill="#85267A" fill-opacity="0.14"/>
</svg>
