<svg viewBox="0 0 98 98" fill="none" xmlns="http://www.w3.org/2000/svg">
<g clip-path="url(#clip0)">
<path d="M34.549 75.1205C34.3316 75.165 34.1052 75.1272 33.9136 75.0145C33.8022 74.9491 33.7063 74.8605 33.6322 74.7547C33.5581 74.649 33.5077 74.5286 33.4844 74.4017C33.4611 74.2749 33.4654 74.1446 33.4971 74.0198C33.5289 73.895 33.5872 73.7786 33.6681 73.6785L36.449 70.0681C36.52 69.9731 36.6092 69.8933 36.7115 69.8332C36.8138 69.7731 36.927 69.7339 37.0447 69.7181C37.1624 69.7021 37.2822 69.7097 37.397 69.7405C37.5119 69.7712 37.6196 69.8244 37.7138 69.897C37.808 69.9695 37.887 70.0601 37.946 70.1633C38.005 70.2665 38.0429 70.3804 38.0576 70.4982C38.0722 70.6161 38.0633 70.7356 38.0313 70.8498C37.9993 70.964 37.9449 71.0707 37.8712 71.1636L35.0903 74.7739C34.9592 74.9526 34.7663 75.0761 34.549 75.1205Z" fill="white"/>
<path d="M42.0038 76.4442C41.8309 76.4391 41.663 76.3841 41.5204 76.286C41.4101 76.2102 41.318 76.1108 41.251 75.995C41.1839 75.8793 41.1436 75.7501 41.1329 75.6169L40.7145 71.2186C40.7029 71.1008 40.7148 70.9819 40.7492 70.8688C40.7836 70.7557 40.84 70.6505 40.9152 70.5593C40.9904 70.4681 41.0828 70.3927 41.1873 70.3373C41.2918 70.2819 41.4063 70.2476 41.5241 70.2364C41.642 70.2253 41.761 70.2374 41.8743 70.2722C41.9876 70.3069 42.093 70.3636 42.1846 70.439C42.2761 70.5144 42.3519 70.6071 42.4077 70.7116C42.4634 70.8162 42.4981 70.9307 42.5097 71.0485L42.9169 75.4383C42.9388 75.6098 42.9106 75.7837 42.8357 75.9393C42.7608 76.0948 42.6424 76.2252 42.4948 76.3148C42.3472 76.4044 42.1767 76.4493 42.0038 76.4442Z" fill="white"/>
<path d="M31.3217 68.0598C31.0937 68.1011 30.8583 68.0526 30.6648 67.9243C30.5093 67.8253 30.3878 67.6809 30.3171 67.5107C30.2463 67.3406 30.2297 67.153 30.2694 66.9735C30.309 66.7939 30.4031 66.6311 30.5388 66.5071C30.6746 66.3832 30.8454 66.3041 31.0279 66.2807L35.3874 65.5624C35.6234 65.5243 35.8652 65.5814 36.0596 65.7212C36.254 65.8611 36.3851 66.0722 36.4241 66.3081C36.463 66.544 36.4066 66.7854 36.2673 66.9793C36.128 67.1731 35.9172 67.3034 35.6811 67.3416L31.3217 68.0598Z" fill="white"/>
<path d="M43.3851 67.4526C42.3367 68.8138 40.3311 68.9647 38.9503 67.901C37.5694 66.8374 37.2143 64.8683 38.2628 63.5072L40.8988 60.0851C40.4172 59.9844 39.9571 59.8185 39.5436 59.5C38.5968 58.7707 38.1726 57.617 38.3135 56.5233C37.7783 56.4935 37.2415 56.3505 36.7868 56.0002C35.893 55.3118 35.6088 54.1954 35.8216 53.1393C35.3663 53.0946 34.911 52.9673 34.5212 52.6671C33.2608 51.6962 33.2486 49.837 34.2312 48.5617L40.0319 41.0308C43.049 37.1139 48.5661 36.5937 52.4771 39.6062L54.0216 40.7958C56.8392 42.9661 57.4531 46.5505 57.3852 50.1272C57.3173 53.704 56.5887 57.4363 56.4253 60.2222C56.3746 61.0863 55.8836 61.7806 55.2853 62.1849C54.6868 62.5893 53.9485 62.7847 53.211 62.5105C52.5961 62.2819 52.0903 61.8537 51.7784 61.3365C51.4666 60.8193 51.3161 60.2447 51.2148 59.6319C51.1173 59.0413 51.077 58.2233 51.0284 57.5297L43.3851 67.4526Z" fill="#FF0000"/>
<path d="M43.3851 67.4526C42.3367 68.8138 40.3311 68.9647 38.9503 67.901C37.5693 66.8374 37.2143 64.8683 38.2628 63.5072L40.8988 60.0851C40.4172 59.9844 39.9571 59.8184 39.5436 59.5C38.5968 58.7707 38.1726 57.617 38.3135 56.5233C37.7783 56.4935 37.2415 56.3505 36.7868 56.0002C35.893 55.3118 35.6088 54.1954 35.8216 53.1393C35.3663 53.0946 34.911 52.9673 34.5212 52.667C33.2608 51.6962 33.2486 49.837 34.2312 48.5617L40.0319 41.0308C43.049 37.1139 48.5661 36.5937 52.4771 39.6062L54.0216 40.7958C56.8392 42.9661 57.4531 46.5505 57.3852 50.1272C57.3173 53.704 56.5887 57.4363 56.4253 60.2222C56.3746 61.0863 55.8836 61.7806 55.2853 62.1849C54.6868 62.5893 53.9485 62.7847 53.211 62.5105C52.5961 62.2819 52.0903 61.8537 51.7784 61.3365C51.4666 60.8193 51.3161 60.2447 51.2148 59.6319C51.1173 59.0413 51.0769 58.2233 51.0284 57.5297L43.3851 67.4526Z" fill="#9B621F"/>
<path d="M33.9136 75.0145C34.1052 75.1272 34.3316 75.165 34.549 75.1205C34.7664 75.0761 34.9592 74.9526 35.0903 74.7739L37.8712 71.1636C37.9449 71.0707 37.9993 70.964 38.0313 70.8498C38.0633 70.7356 38.0722 70.6161 38.0576 70.4982C38.0429 70.3804 38.005 70.2665 37.946 70.1633C37.887 70.0601 37.8081 69.9695 37.7138 69.897C37.6196 69.8244 37.5119 69.7712 37.397 69.7405C37.2822 69.7097 37.1624 69.7021 37.0447 69.718C36.927 69.7339 36.8138 69.7731 36.7115 69.8332C36.6093 69.8933 36.52 69.9731 36.449 70.0681L33.6681 73.6785C33.5872 73.7786 33.5289 73.895 33.4972 74.0198C33.4655 74.1446 33.4611 74.2749 33.4844 74.4017C33.5077 74.5286 33.5581 74.649 33.6322 74.7547C33.7063 74.8605 33.8023 74.9491 33.9136 75.0145ZM41.5204 76.286C41.663 76.3841 41.8309 76.4391 42.0038 76.4442C42.1767 76.4493 42.3472 76.4044 42.4948 76.3148C42.6424 76.2252 42.7608 76.0948 42.8357 75.9393C42.9106 75.7837 42.9388 75.6098 42.9169 75.4383L42.5097 71.0485C42.4981 70.9307 42.4634 70.8162 42.4077 70.7116C42.3519 70.6071 42.2761 70.5144 42.1846 70.439C42.093 70.3636 41.9876 70.3069 41.8743 70.2722C41.761 70.2374 41.642 70.2253 41.5241 70.2364C41.4063 70.2476 41.2918 70.2819 41.1874 70.3373C41.0828 70.3927 40.9904 70.4681 40.9152 70.5593C40.84 70.6505 40.7836 70.7557 40.7492 70.8688C40.7148 70.9819 40.7029 71.1008 40.7145 71.2185L41.1329 75.6169C41.1436 75.7501 41.1839 75.8793 41.251 75.995C41.318 76.1108 41.4101 76.2102 41.5204 76.286ZM30.6648 67.9243C30.8583 68.0526 31.0937 68.1011 31.3217 68.0598L35.6812 67.3416C35.9172 67.3034 36.128 67.1731 36.2673 66.9793C36.4066 66.7854 36.4631 66.544 36.4241 66.3081C36.3851 66.0722 36.254 65.8611 36.0596 65.7212C35.8652 65.5814 35.6234 65.5243 35.3874 65.5624L31.028 66.2807C30.8454 66.3041 30.6746 66.3832 30.5389 66.5071C30.4031 66.6311 30.309 66.7939 30.2694 66.9735C30.2297 67.153 30.2463 67.3406 30.3171 67.5107C30.3879 67.6809 30.5093 67.8253 30.6648 67.9243ZM38.9503 67.901C40.3311 68.9646 42.3367 68.8138 43.3851 67.4526L51.0284 57.5297C51.077 58.2233 51.1173 59.0413 51.2148 59.6319C51.3161 60.2447 51.4666 60.8193 51.7784 61.3365C52.0903 61.8537 52.5961 62.2819 53.211 62.5105C53.9485 62.7847 54.6868 62.5893 55.2853 62.1849C55.8836 61.7806 56.3746 61.0863 56.4253 60.2222C56.5887 57.4363 57.3173 53.704 57.3852 50.1272C57.4531 46.5505 56.8392 42.9661 54.0216 40.7958L52.4771 39.6062C48.5661 36.5937 43.049 37.1139 40.0319 41.0308L34.2312 48.5617C33.2486 49.837 33.2608 51.6962 34.5212 52.667C34.911 52.9673 35.3663 53.0946 35.8216 53.1393C35.6089 54.1954 35.893 55.3118 36.7868 56.0002C37.2415 56.3504 37.7783 56.4935 38.3135 56.5233C38.1726 57.617 38.5968 58.7707 39.5436 59.5C39.9571 59.8184 40.4172 59.9844 40.8988 60.0851L38.2628 63.5072C37.2143 64.8683 37.5694 66.8374 38.9503 67.901ZM40.0422 66.4834C39.3747 65.9693 39.2637 65.1497 39.6851 64.6026L46.4582 55.8093C46.532 55.7164 46.5864 55.6097 46.6184 55.4955C46.6503 55.3813 46.6593 55.2618 46.6446 55.1439C46.63 55.0261 46.592 54.9123 46.5331 54.8091C46.474 54.7058 46.3951 54.6153 46.3008 54.5427C46.2066 54.4701 46.0989 54.4169 45.9841 54.3861C45.8692 54.3555 45.7495 54.3478 45.6318 54.3638C45.5141 54.3797 45.4008 54.4189 45.2985 54.479C45.1963 54.539 45.1071 54.6189 45.036 54.7138L42.5025 58.003C42.484 58.0179 42.466 58.0335 42.4487 58.0498C42.0157 58.4931 41.2573 58.5614 40.6355 58.0825C39.9684 57.5686 39.8547 56.7529 40.2785 56.2017L42.8862 52.7932C42.9599 52.7003 43.0143 52.5937 43.0463 52.4795C43.0783 52.3652 43.0872 52.2457 43.0725 52.1278C43.0579 52.01 43.02 51.8961 42.961 51.7929C42.9019 51.6897 42.823 51.5992 42.7288 51.5266C42.6346 51.454 42.5269 51.4008 42.412 51.3701C42.2971 51.3394 42.1774 51.3318 42.0597 51.3477C41.942 51.3636 41.8287 51.4028 41.7265 51.4629C41.6242 51.5229 41.535 51.6028 41.464 51.6977L39.4449 54.3421C39.4419 54.3458 39.4391 54.3494 39.4363 54.3531C39.3978 54.375 39.361 54.3998 39.3262 54.4271C38.8579 54.8466 38.2716 54.8853 37.8786 54.5826C37.4289 54.2362 37.3397 53.5126 37.8079 52.9047L39.787 50.3354C39.8606 50.2425 39.9151 50.1359 39.9471 50.0217C39.9791 49.9074 39.988 49.7879 39.9733 49.6701C39.9587 49.5522 39.9208 49.4383 39.8618 49.3352C39.8027 49.2319 39.7238 49.1414 39.6296 49.0688C39.5353 48.9962 39.4277 48.943 39.3128 48.9123C39.1979 48.8816 39.0782 48.874 38.9605 48.8899C38.8428 48.9058 38.7295 48.945 38.6272 49.005C38.525 49.0651 38.4358 49.145 38.3647 49.24L37.0596 50.9344C37.0279 50.9562 36.9977 50.9801 36.9691 51.0059C36.4877 51.4652 35.9298 51.4934 35.613 51.2495C35.2565 50.9748 35.166 50.2898 35.6534 49.6571L41.4541 42.1263C43.8838 38.9719 48.1876 38.5607 51.3852 41.0237L52.9297 42.2134C55.0849 43.8735 55.6561 46.7376 55.5925 50.0874C55.5288 53.4371 54.809 57.1162 54.6334 60.1123C54.6181 60.3718 54.4826 60.5708 54.282 60.7063C54.0814 60.8419 53.8544 60.8435 53.8295 60.8342C53.5626 60.735 53.4447 60.619 53.3132 60.4012C53.1818 60.1833 53.0649 59.8292 52.9834 59.3355C52.8202 58.3482 52.7967 56.8764 52.5942 55.0831C52.5739 54.9064 52.5014 54.7395 52.386 54.6038C52.2707 54.468 52.1176 54.3695 51.9463 54.3208C51.7749 54.2721 51.5931 54.2754 51.424 54.3303C51.2549 54.3852 51.1061 54.4892 50.9967 54.629L41.9629 66.3572C41.5415 66.9042 40.7096 66.9975 40.0422 66.4834Z" fill="black"/>
</g>
<line x1="35.5349" y1="66.532" x2="31.0156" y2="67.1528" stroke="#FEC601" stroke-width="2" stroke-linecap="round"/>
<line x1="35.5349" y1="66.532" x2="31.0156" y2="67.1528" stroke="#FEC601" stroke-width="2" stroke-linecap="round"/>
<line x1="35.5349" y1="66.532" x2="31.0156" y2="67.1528" stroke="#FEC601" stroke-width="2" stroke-linecap="round"/>
<line x1="37.1157" y1="70.5714" x2="34.3943" y2="74.3124" stroke="#FEC601" stroke-width="2" stroke-linecap="round"/>
<line x1="37.1157" y1="70.5714" x2="34.3943" y2="74.3124" stroke="#FEC601" stroke-width="2" stroke-linecap="round"/>
<line x1="37.1157" y1="70.5714" x2="34.3943" y2="74.3124" stroke="#FEC601" stroke-width="2" stroke-linecap="round"/>
<line x1="41.5151" y1="70.7523" x2="42.0375" y2="75.4266" stroke="#FEC601" stroke-width="2" stroke-linecap="round"/>
<line x1="41.5151" y1="70.7523" x2="42.0375" y2="75.4266" stroke="#FEC601" stroke-width="2" stroke-linecap="round"/>
<line x1="41.5151" y1="70.7523" x2="42.0375" y2="75.4266" stroke="#FEC601" stroke-width="2" stroke-linecap="round"/>
<path d="M24.2399 36.3549C24.315 36.3387 24.3632 36.2957 24.39 36.242C24.4222 36.1776 24.406 36.1025 24.3737 36.0328C24.2231 35.6626 23.8524 35.1692 23.6269 35.0567C23.5302 35.0085 23.4229 35.0086 23.3103 35.0731C22.6719 35.385 22.0071 36.0457 21.5732 36.9155C20.7215 38.6228 21.3506 39.9961 22.6177 40.6282C24.0674 41.3513 25.1723 40.6687 26.3626 39.5192C27.1561 38.735 27.7891 38.4338 28.4334 38.7552C29.1528 39.1141 29.1803 39.8654 28.7732 40.6815C28.2804 41.6694 27.2451 42.1319 26.0589 41.9827C25.9731 41.9667 25.9087 41.9882 25.8712 42.0634C25.8444 42.1171 25.8552 42.1761 25.9036 42.2405C26.0379 42.4818 26.2635 42.7017 26.6394 42.8891C27.7991 43.4677 29.1617 42.9405 29.9652 41.3298C30.9401 39.3755 30.2949 38.0344 29.0278 37.4023C27.6641 36.722 26.5645 37.3402 25.3098 38.5381C24.409 39.3761 23.8565 39.6235 23.1585 39.2753C22.5357 38.9646 22.2883 38.3316 22.7007 37.5047C22.9686 36.9678 23.5531 36.495 24.2399 36.3549Z" fill="black"/>
<path d="M33.5275 36.1106C34.0757 35.5225 34.6315 34.9087 35.1043 34.3487C35.2346 34.1913 35.2293 34.0386 35.1151 33.9322C34.922 33.7522 34.3211 33.3233 34.0801 33.2299C33.9766 33.1826 33.9093 33.2019 33.852 33.2634C33.803 33.3161 33.7878 33.3675 33.7323 33.4799C33.4894 34.0573 32.9413 34.8916 32.1476 35.743C31.6403 36.2873 31.4192 36.278 30.3483 35.2798C29.5847 34.568 29.6341 34.0398 30.3868 33.2322C30.8368 32.7495 31.3794 32.4842 31.5021 32.3525C31.5676 32.2823 31.591 32.222 31.5265 32.08C31.3907 31.8385 31.1214 31.4234 30.9897 31.3007C30.8054 31.1289 30.4324 31.3882 30.0642 31.7832C29.4751 32.4152 29.207 33.002 28.9207 33.3092C28.757 33.4848 28.6213 33.4895 28.4019 33.285C27.805 32.7286 27.1226 31.912 27.0749 31.5231C27.0502 31.3032 27.1449 31.0961 27.4721 30.745C28.1758 29.9901 28.6979 29.6237 29.0556 29.4158C29.1638 29.3526 29.2556 29.3069 29.3047 29.2542C29.362 29.1928 29.3759 29.1074 29.339 29.0238C29.1921 28.7063 28.8414 28.1498 28.7273 28.0434C28.6658 27.9861 28.5722 27.9809 28.4489 28.0956C28.0211 28.4842 27.3244 29.1964 26.6698 29.8986C26.1298 30.478 25.6155 31.0649 25.38 31.3703C25.2742 31.5014 25.2795 31.6541 25.396 31.8283C26.5855 33.544 28.2698 35.3273 29.8323 36.7838C30.3151 37.2338 30.7797 37.6505 31.2174 38.0257C31.4363 38.2133 31.5696 38.1407 31.7583 37.9558C32.2423 37.4718 32.8811 36.8041 33.5275 36.1106Z" fill="black"/>
<path d="M38.1593 32.5378C38.8513 32.1285 39.5579 31.6967 40.1697 31.2931C40.3392 31.179 40.3772 31.031 40.2978 30.8968C40.1634 30.6695 39.7082 30.0883 39.5034 29.9306C39.4174 29.856 39.3474 29.8555 39.2751 29.8983C39.2131 29.9349 39.184 29.98 39.0991 30.0721C38.7029 30.5573 37.9414 31.2028 36.9395 31.7953C36.2991 32.174 36.0896 32.1027 35.3444 30.8425C34.813 29.9439 35.0096 29.4512 35.9599 28.8893C36.528 28.5533 37.1234 28.4522 37.2784 28.3605C37.361 28.3117 37.4004 28.2605 37.3788 28.106C37.3167 27.836 37.1757 27.3617 37.084 27.2068C36.9558 26.9899 36.5247 27.1333 36.0599 27.4081C35.3162 27.8479 34.8933 28.335 34.5318 28.5488C34.3252 28.671 34.1937 28.6372 34.041 28.379C33.6256 27.6766 33.2017 26.7005 33.2659 26.314C33.3044 26.0961 33.4536 25.9241 33.8668 25.6798C34.7551 25.1545 35.3594 24.9505 35.7613 24.8522C35.883 24.8221 35.9839 24.8042 36.0459 24.7676C36.1182 24.7248 36.1557 24.6469 36.144 24.5562C36.0927 24.2102 35.9135 23.5772 35.8341 23.4429C35.7914 23.3706 35.7031 23.3392 35.5524 23.4144C35.0321 23.6663 34.1626 24.1526 33.3363 24.6412C32.6546 25.0444 31.9954 25.4621 31.6832 25.6885C31.5447 25.7844 31.5067 25.9323 31.5692 26.1323C32.2254 28.1143 33.3372 30.3008 34.4245 32.1394C34.7604 32.7075 35.0884 33.2385 35.4022 33.7221C35.5591 33.9639 35.7075 33.9319 35.9409 33.8078C36.5419 33.4803 37.3433 33.0203 38.1593 32.5378Z" fill="black"/>
<path d="M45.7258 30.031C46.0114 29.9941 46.2107 29.9443 46.337 29.8917C46.4618 29.8272 46.4986 29.7377 46.4906 29.5815C46.4584 29.3316 45.8616 27.4242 45.5961 25.3653C45.4565 24.2822 45.3959 23.2495 45.4076 22.401C45.411 22.1465 45.4851 22.0643 45.6994 22.0367C46.4849 21.9355 47.0507 22.3828 47.3363 22.3459C47.4316 22.3337 47.4715 22.268 47.5157 22.1413C47.5771 21.8672 47.5906 21.5025 47.5568 21.2407C47.5323 21.0503 47.4916 20.9224 47.2501 20.8325C46.7046 20.6367 45.7936 20.609 44.5201 20.7731C43.33 20.9266 42.4112 21.2144 42.0576 21.381C41.8868 21.4635 41.8038 21.571 41.7792 21.7557C41.7593 21.976 41.7481 22.5462 41.7772 22.7723C41.7972 22.927 41.8763 22.9773 41.9715 22.965C42.2095 22.9343 42.8415 22.3931 43.746 22.2765C43.9245 22.2535 43.9813 22.3187 43.9997 22.4615C44.0933 23.1875 43.9465 24.489 44.3363 27.512C44.4376 28.2975 44.5864 29.0768 44.7468 29.7579C44.7894 29.9944 44.9177 30.0505 45.0635 30.0559C45.2839 30.0758 45.4997 30.0601 45.7258 30.031Z" fill="black"/>
<path d="M50.2157 29.8712C50.4047 29.9052 50.5701 29.9349 50.7612 29.957C50.8953 29.9567 50.9511 29.9179 50.9786 29.7644C51.0296 29.4809 50.9591 28.1759 51.1458 27.1366C51.2815 26.3806 51.8185 26.0382 53.3185 26.3076C54.3461 26.4921 54.7882 26.9495 54.6673 27.6227C54.5252 28.414 53.9554 29.9576 53.896 30.2883C53.8684 30.4419 53.9308 30.5018 54.0683 30.5509C54.253 30.6085 54.4302 30.6403 54.5955 30.67C54.7609 30.6997 54.9402 30.7197 55.1194 30.7397C55.3009 30.7479 55.3963 30.6919 55.502 30.4426C55.6889 30.0129 56.0797 28.5835 56.3682 26.9772C56.8497 24.2961 56.9147 22.5765 56.8621 22.055C56.8412 21.8318 56.7712 21.7461 56.6219 21.6949C56.4372 21.6373 56.2718 21.6076 56.0947 21.5758C55.9411 21.5482 55.7618 21.5282 55.6041 21.5242C55.4935 21.5288 55.4335 21.5912 55.4123 21.7093C55.3423 22.099 55.4324 23.5661 55.1206 25.3023C55.0824 25.5149 55.0182 25.6009 54.8841 25.6012C54.6908 25.5909 54.2899 25.3116 53.4277 25.1567C52.5537 24.9998 52.0376 25.09 51.7444 25.0251C51.6306 24.9803 51.5627 24.8828 51.5967 24.6938C51.8746 23.1465 52.5837 21.5061 52.6346 21.2226C52.658 21.0927 52.6352 21.0154 52.545 20.9749C52.4075 20.9258 52.2088 20.8779 52.0081 20.8418C51.8191 20.8079 51.6162 20.7837 51.4326 20.7873C51.3221 20.7918 51.2288 20.836 51.1316 21.038C50.8986 21.5204 50.3161 23.1349 49.8367 25.8042C49.5482 27.4105 49.4172 28.8866 49.4429 29.3545C49.4477 29.5992 49.508 29.671 49.6455 29.72C49.8302 29.7776 50.0268 29.8373 50.2157 29.8712Z" fill="black"/>
<path d="M58.2429 32.4531C58.9539 32.8284 59.6917 33.2044 60.3558 33.5143C60.5418 33.5989 60.6878 33.5538 60.7606 33.4159C60.8838 33.1824 61.1407 32.4902 61.1678 32.2332C61.1864 32.1209 61.1502 32.061 61.0759 32.0218C61.0122 31.9882 60.9586 31.987 60.8356 31.9628C60.2148 31.8793 59.2662 31.5685 58.2368 31.0251C57.5789 30.6777 57.53 30.4619 58.2135 29.1673C58.7009 28.244 59.2235 28.1536 60.1998 28.669C60.7835 28.9771 61.1814 29.4315 61.3406 29.5155C61.4255 29.5603 61.4898 29.5671 61.61 29.4678C61.8076 29.2735 62.1378 28.9051 62.2218 28.7459C62.3395 28.523 61.9917 28.2309 61.5141 27.9787C60.7501 27.5754 60.1136 27.4701 59.7422 27.274C59.5299 27.1619 59.4899 27.0322 59.6299 26.7669C60.0109 26.0453 60.6206 25.1731 60.9835 25.0254C61.1893 24.9441 61.4139 24.9813 61.8384 25.2054C62.751 25.6872 63.2412 26.0952 63.5354 26.3862C63.6247 26.4741 63.6928 26.5507 63.7565 26.5843C63.8308 26.6235 63.9168 26.6147 63.9879 26.5572C64.2559 26.3323 64.7014 25.8483 64.7742 25.7104C64.8134 25.6361 64.794 25.5444 64.651 25.4554C64.1641 25.144 63.2945 24.6578 62.4455 24.2096C61.7451 23.8399 61.0441 23.4969 60.6877 23.3495C60.5336 23.2817 60.3876 23.3268 60.25 23.4848C58.9049 25.0815 57.6241 27.1735 56.6269 29.0624C56.3188 29.6461 56.038 30.2035 55.7904 30.7241C55.6665 30.9844 55.7715 31.0941 55.9993 31.2279C56.593 31.5685 57.4045 32.0105 58.2429 32.4531Z" fill="black"/>
<path d="M64.2017 37.4263C65.9631 39.7048 67.8855 39.5232 69.6798 38.136C72.7274 35.7801 72.8435 33.5366 71.0087 31.1631C70.7958 30.8878 70.5515 30.5913 70.3417 30.3592C70.2588 30.2716 70.1263 30.2375 69.9545 30.3096C69.1229 30.725 67.7587 31.4914 65.784 33.0179C63.8092 34.5445 63.1779 35.1994 63.0053 35.5451C62.9471 35.666 62.9678 35.7713 63.0831 35.94C63.2057 36.1182 63.6879 36.7617 64.2017 37.4263ZM65.1053 36.5154C65.0025 36.3825 64.8968 36.2064 64.93 36.0139C64.9691 35.5741 65.7921 34.8924 66.9693 33.9823C68.3745 32.8961 69.4892 32.1406 69.9437 32.1988C70.0783 32.216 70.219 32.3196 70.2924 32.4145C71.2465 33.6487 70.9987 35.2509 68.9385 36.8435C67.4005 38.0325 66.1475 37.8635 65.1053 36.5154Z" fill="black"/>
<path d="M66.9557 41.5598C67.0305 41.7752 67.1087 41.964 67.1786 42.0922C67.2559 42.2051 67.3357 42.2155 67.4678 42.1569C67.7512 42.0586 68.1038 41.7203 68.5573 41.5629C69.4075 41.2678 70.1501 42.0898 70.5238 43.1668C70.8268 44.0397 70.6885 44.5196 70.0196 44.7517C69.328 44.9917 68.7663 44.9834 68.4715 45.0857C68.3468 45.129 68.2945 45.198 68.3038 45.3345C68.3318 45.4518 68.3834 45.6371 68.4542 45.8412C68.5133 46.0112 68.5836 46.1773 68.6461 46.3208C68.7317 46.4943 68.8125 46.5806 68.9904 46.5442C69.6602 46.388 70.2462 46.21 70.8017 46.0172C73.6472 45.0297 75.6031 43.6016 76.5427 41.0018C76.5906 40.8836 76.5857 40.7964 76.5542 40.7057C76.5228 40.615 76.4651 40.5587 76.3578 40.469C73.9468 38.8288 71.1727 39.1437 68.7013 40.0014C68.1004 40.2099 67.5267 40.4598 66.9682 40.7172C66.772 40.8106 66.7581 40.9171 66.8097 41.1024C66.8495 41.2537 66.9007 41.4011 66.9557 41.5598ZM70.544 41.1021C70.5165 41.0227 70.5574 40.9577 70.6594 40.9223C71.7024 40.5603 73.682 40.4449 74.8283 41.076C74.9391 41.1392 74.9888 41.1727 75.0085 41.2294C75.0282 41.2861 74.9986 41.3472 74.9542 41.4388C74.5056 42.3058 73.3547 43.4546 72.1983 43.8559C72.0396 43.911 71.9484 43.9045 71.882 43.7497C71.8077 43.5723 71.7394 43.2657 71.5585 42.7442C71.2206 41.8072 70.6188 41.3175 70.544 41.1021Z" fill="black"/>
<path d="M68.7984 49.9182C68.8063 50.206 68.8359 50.4093 68.8755 50.5403C68.9271 50.6709 69.0124 50.7166 69.1687 50.7243C69.4206 50.7174 71.3783 50.3156 73.4535 50.2587C74.5451 50.2288 75.5787 50.2725 76.4217 50.3694C76.6746 50.3985 76.7488 50.4805 76.7548 50.6964C76.7765 51.4881 76.2745 52.0061 76.2824 52.294C76.285 52.3899 76.3463 52.4363 76.4679 52.4929C76.7344 52.5817 77.0959 52.6318 77.3598 52.6246C77.5517 52.6193 77.683 52.5917 77.7967 52.3605C78.0465 51.8374 78.1658 50.9338 78.1306 49.6503C78.0977 48.4508 77.9038 47.5077 77.7737 47.1392C77.7087 46.9609 77.6101 46.8675 77.4289 46.8245C77.2117 46.7824 76.6456 46.7139 76.4177 46.7202C76.2617 46.7244 76.2037 46.798 76.2063 46.894C76.2129 47.1339 76.6878 47.8172 76.7128 48.7288C76.7177 48.9088 76.6471 48.9587 76.5031 48.9627C75.7714 48.9827 74.4913 48.7057 71.4445 48.7892C70.6528 48.8109 69.8624 48.8806 69.1686 48.9717C68.9291 48.9902 68.8604 49.1122 68.8403 49.2568C68.7983 49.474 68.7922 49.6902 68.7984 49.9182Z" fill="black"/>
<path d="M68.6669 53.8191C68.6044 54.0384 68.56 54.2379 68.5436 54.3829C68.542 54.5197 68.6014 54.5741 68.7432 54.602C69.0317 54.6843 69.5146 54.6098 69.9762 54.7415C70.8417 54.9882 70.9775 56.0876 70.6649 57.1839C70.4115 58.0725 70.0227 58.3859 69.3418 58.1918C68.6379 57.9911 68.1828 57.6616 67.8827 57.5761C67.7558 57.5399 67.6734 57.5663 67.6026 57.6834C67.5581 57.7955 67.494 57.9769 67.4347 58.1846C67.3854 58.3577 67.3476 58.5341 67.3163 58.6874C67.2868 58.8786 67.3033 58.9956 67.4698 59.0681C68.1079 59.3248 68.6898 59.5157 69.2553 59.6769C72.1519 60.5028 74.5732 60.4569 76.8355 58.8683C76.9426 58.7991 76.9887 58.7248 77.0151 58.6325C77.0414 58.5402 77.0265 58.4611 76.9902 58.326C75.9584 55.5985 73.5066 54.2631 70.9909 53.5459C70.3793 53.3715 69.766 53.2465 69.161 53.1364C68.9467 53.1003 68.8742 53.1795 68.81 53.3608C68.7557 53.5075 68.713 53.6576 68.6669 53.8191ZM71.8672 55.5052C71.8903 55.4244 71.9611 55.3947 72.065 55.4243C73.1267 55.727 74.8135 56.7695 75.3894 57.9444C75.4439 58.0598 75.4653 58.1158 75.4489 58.1735C75.4324 58.2312 75.3731 58.2642 75.2841 58.3137C74.419 58.7658 72.817 59.0453 71.6399 58.7097C71.4783 58.6636 71.4074 58.606 71.442 58.4411C71.4831 58.2532 71.6032 57.963 71.7546 57.4322C72.0161 56.4711 71.8047 55.7245 71.8672 55.5052Z" fill="black"/>
<defs>
<clipPath id="clip0">
<rect width="30.9014" height="38.2589" fill="white" transform="translate(37.5136 80.889) rotate(-127.394)"/>
</clipPath>
</defs>
</svg>
