<svg viewBox="0 0 210 166" fill="none" xmlns="http://www.w3.org/2000/svg">
<path d="M88.4771 27.2856C90.4006 27.3921 92.2172 28.4038 92.2172 30.3739C92.2172 34.8467 92.2172 39.3726 92.2172 43.8986H84.6835V30.3739C84.737 28.5635 86.5002 27.2324 88.4771 27.2856ZM99.0563 27.3388C100.659 27.3388 102.743 28.457 102.796 30.4272C102.796 35.1661 102.796 40.0116 102.796 44.8038C101.942 44.2714 100.926 43.8986 99.7509 43.8986H95.2628V30.3739C95.3162 28.457 97.1863 27.3388 99.0563 27.3388ZM109.529 27.3388C111.292 27.3921 113.322 29.309 113.322 31.8648C113.322 36.5506 113.322 41.3428 113.322 45.3895C112.093 48.5843 108.567 48.7973 105.789 48.3714C105.842 42.1415 105.789 35.8583 105.789 30.3739C105.895 28.457 107.819 27.4453 109.529 27.3388ZM120.055 30.3739C122.406 30.3207 123.902 32.557 123.902 34.8467V48.6376C120.589 48.9571 117.704 48.3181 116.368 45.3895C116.368 40.6506 116.314 36.657 116.314 32.557C116.314 30.9596 118.559 30.4272 120.055 30.3739ZM83.1875 46.8804H99.7509C101.674 46.9337 102.796 48.1584 102.796 49.9155C102.743 51.8324 101.461 52.8973 99.7509 52.8973H90.7212C89.8663 52.8973 89.0648 53.8025 89.2251 54.6545L90.7212 63.6C90.828 64.0792 91.1486 64.5052 91.5761 64.6649L100.606 69.1909C101.354 69.6701 102.422 69.4039 102.796 68.6584C103.171 67.8597 102.743 66.7948 101.942 66.5285L93.6064 62.3753L92.5378 55.9324H99.7509C102.743 55.6129 104.346 53.9623 105.468 51.6194C109.315 51.9922 112.307 51.1934 114.872 48.7973C117.169 51.2999 121.016 51.9921 123.902 51.6727V67.5935C119.52 78.1896 113.269 81.3844 102.796 81.3844C101.995 81.3844 101.247 82.1299 101.247 82.9286C101.247 83.7273 101.995 84.4195 102.796 84.4195C107.018 84.2598 111.239 84.526 114.872 82.7688V159.551H92.2172V81.3844C92.2172 81.0117 92.0569 80.639 91.7898 80.3195C87.4619 76.0065 83.0806 70.1493 81.6914 66.1026V49.9155C81.7448 48.4246 82.012 46.8272 83.1875 46.8804Z" fill="#85267A"/>
<path d="M27.3905 59.2791C29.1152 59.3746 30.744 60.2817 30.744 62.0482C30.744 66.0586 30.744 70.1168 30.744 74.175H23.989V62.0482C24.0369 60.4249 25.6179 59.2313 27.3905 59.2791ZM36.8763 59.3268C38.3135 59.3268 40.1819 60.3294 40.2298 62.0959C40.2298 66.3451 40.2298 70.6897 40.2298 74.9866C39.4633 74.5092 38.553 74.175 37.4991 74.175H33.4748V62.0482C33.5227 60.3294 35.1995 59.3268 36.8763 59.3268ZM46.2662 59.3268C47.8472 59.3746 49.6677 61.0933 49.6677 63.385C49.6677 67.5864 49.6677 71.8833 49.6677 75.5118C48.5658 78.3764 45.4039 78.5674 42.9127 78.1854C42.9606 72.5995 42.9127 66.9658 42.9127 62.0482C43.0085 60.3294 44.7332 59.4223 46.2662 59.3268ZM55.7041 62.0482C57.8121 62.0005 59.1535 64.0057 59.1535 66.0586V78.4241C56.1832 78.7106 53.5962 78.1377 52.3985 75.5118C52.3985 71.2627 52.3505 67.6819 52.3505 64.0057C52.3505 62.5734 54.3627 62.0959 55.7041 62.0482ZM22.6476 76.8486H37.4991C39.2238 76.8964 40.2298 77.9945 40.2298 79.57C40.1819 81.2887 39.0321 82.2436 37.4991 82.2436H29.4026C28.6361 82.2436 27.9175 83.0552 28.0612 83.8191L29.4026 91.84C29.4984 92.2697 29.7859 92.6516 30.1691 92.7949L38.2656 96.8531C38.9363 97.2827 39.8945 97.044 40.2298 96.3756C40.5652 95.6595 40.1819 94.7046 39.4633 94.4659L31.9896 90.7419L31.0315 84.965H37.4991C40.1819 84.6785 41.6191 83.1985 42.6252 81.0978C46.0746 81.432 48.7574 80.7158 51.057 78.5674C53.1171 80.8113 56.5665 81.432 59.1535 81.1455V95.4208C55.225 104.922 49.6198 107.786 40.2298 107.786C39.5112 107.786 38.8405 108.455 38.8405 109.171C38.8405 109.887 39.5112 110.508 40.2298 110.508C44.0146 110.364 47.7993 110.603 51.057 109.028V159.721H30.744V107.786C30.744 107.452 30.6003 107.118 30.3608 106.831C26.4802 102.964 22.5518 97.7124 21.3062 94.0839V79.57C21.3541 78.2332 21.5936 76.8009 22.6476 76.8486Z" fill="#4F247D"/>
<path d="M22.7173 56.4483C23.2518 56.3101 24.1448 55.9304 25.0742 55.6901C26.7239 55.2634 28.596 54.928 29.4557 54.7057C32.2904 53.9726 32.5018 51.9348 32.0282 50.1237C31.8218 49.3343 31.4791 48.8775 31.1374 48.5196C30.9727 48.3639 30.7857 48.3131 30.6463 48.3492C30.4372 48.4033 30.2938 48.6139 30.3374 48.8753C30.5419 50.0371 30.6221 51.0079 30.1516 51.675C29.6235 52.4065 28.387 52.8006 24.0187 53.9303C23.5772 54.0445 23.3195 53.9128 23.2466 53.6342C22.7427 51.707 23.6059 50.1699 26.1398 47.4323C28.7484 44.601 29.7621 42.9754 29.0639 40.3052C28.3475 37.5653 26.109 36.3098 23.1814 37.0669C20.6951 37.7099 19.0409 39.3523 18.1626 41.1164C18.0828 41.2858 18.0556 41.4663 18.1042 41.6521C18.1831 41.954 18.6066 42.3402 19.0351 42.6508C19.217 42.7773 19.404 42.8281 19.5666 42.7861C19.706 42.75 19.804 42.6503 19.8837 42.4809C20.7953 40.5595 22.1295 39.4956 23.6166 39.111C25.2896 38.6784 26.6145 39.4761 26.9666 40.8228C27.4159 42.541 26.5899 43.7462 24.6328 45.938C22.111 48.722 20.4216 50.8942 21.3505 54.4468C21.7391 55.9328 22.1132 56.6045 22.7173 56.4483Z" fill="#4F247D"/>
<path d="M42.3609 40.7178C42.5038 43.1136 40.7533 44.804 38.3336 44.9473C36.393 45.0623 35.3432 43.5858 35.2061 41.2858C35.0603 38.8422 36.1582 37.0942 38.3863 36.9622C40.5905 36.8317 42.2252 38.4419 42.3609 40.7178ZM44.9975 43.8074C44.6546 38.0576 42.5069 34.6987 38.434 34.9399C35.0559 35.14 32.8213 37.5803 33.0727 41.7969C33.2841 45.3426 35.4445 46.8976 37.8883 46.7528C39.7091 46.645 41.1319 45.9116 42.3936 44.4905C42.4823 44.365 42.5767 44.3354 42.6485 44.3311C42.8163 44.3212 42.9925 44.455 43.0111 44.7665C43.2354 48.5278 41.7623 51.6443 38.504 51.8373C37.2582 51.9111 36.3178 51.4619 35.5465 51.0267C35.4464 50.9605 35.3731 50.9408 35.2773 50.9465C35.1335 50.955 34.9955 51.0594 34.9351 51.2553C34.758 51.9149 34.6303 52.5957 34.656 53.0269C34.666 53.1946 34.7704 53.3327 35.0172 53.4383C35.6079 53.6677 36.6863 54.0126 38.4832 53.9062C42.6998 53.6564 45.3861 50.3238 44.9975 43.8074Z" fill="#4F247D"/>
<path d="M51.863 45.0348C50.4849 44.7093 50.2532 43.2982 50.8031 40.9867C51.3252 38.7919 52.3492 37.7022 53.5638 37.9891C54.7316 38.2651 55.109 39.6859 54.5869 41.8806C54.037 44.1921 53.2177 45.3549 51.863 45.0348ZM51.353 46.7639C53.712 47.3212 55.5968 46.1389 56.4411 42.59C57.2465 39.2045 56.6664 36.8726 54.0037 36.2435C51.4578 35.642 49.6744 37.5388 48.8968 40.8076C48.0525 44.3565 48.9706 46.201 51.353 46.7639ZM58.1939 54.7179C56.8158 54.3923 56.5841 52.9813 57.134 50.6698C57.6561 48.475 58.7034 47.3908 59.9414 47.6833C61.0859 47.9537 61.4399 49.369 60.9178 51.5637C60.3679 53.8752 59.5486 55.038 58.1939 54.7179ZM57.6839 56.447C60.0429 57.0043 61.9277 55.822 62.772 52.2731C63.5774 48.8875 62.9973 46.5557 60.3346 45.9266C57.7887 45.3251 56.0053 47.2219 55.2277 50.4907C54.3834 54.0396 55.3014 55.8841 57.6839 56.447ZM49.4931 53.6487C51.5445 51.766 54.9045 48.2195 55.0156 47.7525C55.0656 47.5424 54.9299 47.387 54.743 47.3429C54.6262 47.3153 54.5217 47.3399 54.4116 47.3879C52.7137 48.6143 49.0342 51.2222 47.3129 52.4431C47.1917 52.5378 47.1228 52.6202 47.095 52.7369C47.0561 52.9003 47.1574 53.0969 47.4044 53.3032C47.5868 53.4696 48.2676 53.9264 48.5245 53.9871C48.9683 54.0919 49.2107 53.9026 49.4931 53.6487ZM62.497 39.0146C58.2252 43.2828 56.9188 44.6264 56.8077 45.0933C56.7633 45.2801 56.8756 45.43 57.0391 45.4686C57.1559 45.4962 57.2838 45.4771 57.3705 45.4236C59.2209 44.2825 62.898 41.4768 64.6771 40.2202C64.7983 40.1255 64.8673 40.0432 64.895 39.9264C64.9339 39.763 64.8327 39.5664 64.5857 39.3601C64.4033 39.1937 63.7225 38.737 63.4656 38.6763C63.0218 38.5714 62.756 38.7552 62.497 39.0146Z" fill="#4F247D"/>
<path d="M90.4612 23.8963C94.0837 23.1631 95.4608 20.4356 94.8834 17.6141C94.2433 14.487 91.3623 13.5764 89.2794 13.2145C89.1286 13.196 89.0624 13.1115 89.0383 12.9939C89.0142 12.8764 89.0511 12.6975 89.1447 12.5561C89.7418 11.2844 92.5735 6.32808 92.304 5.01137C92.2559 4.77625 92.1281 4.6307 91.8127 4.64557C90.5938 4.79435 89.1022 5.04729 87.5968 5.35202C85.5973 5.75673 83.5653 6.24151 82.1309 6.65428C81.8534 6.73493 81.6423 6.9001 81.7048 7.20577C81.7962 7.65251 81.9545 8.3061 82.2443 8.8841C82.325 9.03916 82.4335 9.09065 82.5982 9.05733C82.6688 9.04304 82.7158 9.03352 82.7816 8.99572C84.4399 8.12134 87.638 7.22915 89.3081 6.89109C89.4963 6.853 89.6096 6.92801 89.6433 7.0926C89.6578 7.16313 89.6487 7.23843 89.6209 7.34201C89.2766 8.29321 86.6555 12.962 86.1797 13.9888C86.1284 14.0971 86.0958 14.1772 86.115 14.2712C86.1439 14.4123 86.2856 14.5061 86.4882 14.5385C90.3845 15.0232 92.2247 15.875 92.6626 18.0147C93.0668 19.9897 92.1318 21.5258 90.0383 21.9495C87.8741 22.3876 86.6322 21.586 85.3748 20.4693C85.285 20.3895 85.1812 20.3615 85.0871 20.3806C84.9931 20.3996 84.8664 20.4987 84.7728 20.6401C84.6418 20.838 84.2959 21.4223 84.1799 21.813C84.1382 21.9684 84.1153 22.0955 84.1441 22.2366C84.1682 22.3541 84.2158 22.4669 84.3056 22.5467C85.2134 23.3914 87.2856 24.5391 90.4612 23.8963Z" fill="#85267A"/>
<path d="M108.959 17.9761C108.941 14.8561 106.846 13.6202 105.884 13.1937C105.74 13.1466 105.667 13.027 105.666 12.907C105.666 12.787 105.737 12.6666 105.88 12.5697C106.692 11.845 108.079 11.021 108.065 8.45309C108.048 5.54914 105.88 4.0736 102.976 4.09031C99.9517 4.10772 97.5128 5.70579 97.5304 8.77774C97.5427 10.9137 98.9175 12.1058 99.617 12.7018C99.7374 12.7731 99.7862 12.9168 99.7869 13.0368C99.7876 13.1568 99.7404 13.3011 99.6208 13.3738C98.7369 14.0989 96.896 15.3335 96.9118 18.0935C96.9281 20.9254 99.0516 22.9292 102.964 22.9067C107.067 22.8831 108.976 20.8321 108.959 17.9761ZM99.0463 17.8172C99.036 16.0172 100.608 13.9201 102.888 13.907C104.736 13.8963 106.737 15.3969 106.751 17.8928C106.761 19.7408 105.353 20.9969 102.977 21.0106C100.409 21.0254 99.0576 19.7851 99.0463 17.8172ZM105.979 8.8251C105.989 10.5531 104.439 12.266 102.807 12.2754C101.199 12.2847 99.6055 10.7098 99.5954 8.93386C99.586 7.30188 100.802 5.97486 102.986 5.96228C104.786 5.95192 105.969 7.19313 105.979 8.8251Z" fill="#85267A"/>
<path d="M115.674 14.7673C114.315 14.3686 114.16 12.9473 114.833 10.6687C115.472 8.50515 116.553 7.47179 117.751 7.82323C118.902 8.16115 119.203 9.60001 118.564 11.7635C117.89 14.0421 117.01 15.1593 115.674 14.7673ZM115.072 16.4665C117.398 17.1491 119.343 16.0693 120.377 12.5709C121.363 9.23355 120.909 6.87423 118.284 6.10378C115.774 5.36711 113.891 7.16568 112.939 10.3879C111.905 13.8864 112.723 15.7772 115.072 16.4665ZM121.476 24.7741C120.117 24.3754 119.962 22.954 120.635 20.6755C121.274 18.5119 122.378 17.4853 123.599 17.8435C124.727 18.1747 125.005 19.6068 124.366 21.7703C123.692 24.0489 122.812 25.1661 121.476 24.7741ZM120.874 26.4733C123.2 27.1559 125.145 26.0761 126.179 22.5777C127.165 19.2403 126.711 16.881 124.086 16.1106C121.576 15.3739 119.693 17.1725 118.741 20.3947C117.707 23.8932 118.525 25.7839 120.874 26.4733ZM112.844 23.2415C114.994 21.4712 118.54 18.1097 118.676 17.6494C118.737 17.4423 118.61 17.2799 118.426 17.2258C118.311 17.192 118.205 17.211 118.093 17.253C116.331 18.3869 112.516 20.7941 110.732 21.9212C110.606 22.0092 110.533 22.0878 110.499 22.2029C110.451 22.364 110.541 22.5656 110.777 22.7848C110.95 22.9607 111.606 23.4532 111.859 23.5275C112.296 23.656 112.549 23.4799 112.844 23.2415ZM126.617 9.32464C122.122 13.358 120.745 14.6297 120.609 15.09C120.554 15.2742 120.658 15.4298 120.82 15.4771C120.935 15.5109 121.064 15.4987 121.153 15.4499C123.062 14.4094 126.885 11.8045 128.729 10.6449C128.855 10.5569 128.929 10.4783 128.963 10.3633C129.01 10.2021 128.92 10.0005 128.684 9.78128C128.511 9.60537 127.856 9.11291 127.602 9.03857C127.165 8.91016 126.89 9.07949 126.617 9.32464Z" fill="#85267A"/>
<path d="M36.0862 151.797C36.1222 151.941 36.2062 151.977 36.3502 151.965C36.8542 151.917 38.6062 151.629 40.9582 151.629C43.0222 151.629 43.7422 152.037 43.7422 153.045C43.7422 153.993 42.9982 154.497 40.9462 154.497C38.8342 154.497 36.8542 154.101 36.3262 154.053C36.1822 154.041 36.0982 154.125 36.0862 154.245C36.0742 154.413 36.0622 154.653 36.0622 154.881C36.0622 155.133 36.0742 155.397 36.0862 155.565C36.0982 155.649 36.1702 155.757 36.3142 155.793C36.8542 155.925 38.5342 156.285 41.1742 156.285C44.0062 156.285 45.3862 155.229 45.3862 153.105C45.3862 150.621 43.6942 149.901 41.0662 149.901C38.3062 149.901 36.7342 150.165 36.2782 150.321C36.1582 150.369 36.0982 150.441 36.0862 150.573C36.0622 150.741 36.0502 150.981 36.0502 151.233C36.0502 151.437 36.0622 151.641 36.0862 151.797ZM37.7542 145.231C37.7542 146.131 38.3542 146.683 38.3542 146.971C38.3542 147.079 38.2702 147.115 38.1382 147.115C37.9582 147.115 37.8862 147.187 37.8622 147.379C37.8502 147.511 37.8502 147.643 37.8502 147.787C37.8502 147.943 37.8502 148.111 37.8742 148.267C37.8862 148.495 37.9822 148.675 38.3182 148.699C39.4702 148.795 40.5502 148.831 41.5222 148.831C42.8422 148.831 43.9822 148.759 44.8942 148.675C45.1702 148.651 45.2302 148.531 45.2422 148.339C45.2542 148.195 45.2542 148.003 45.2542 147.811C45.2542 147.655 45.2542 147.499 45.2422 147.355C45.2182 147.151 45.1342 147.067 44.9182 147.067C44.6302 147.067 42.9142 147.235 41.3902 147.235C40.2022 147.235 39.8182 147.091 39.5542 146.827C39.3382 146.599 39.2182 146.275 39.2182 145.939C39.2182 145.279 39.7582 145.111 40.7662 145.111C42.7342 145.111 44.5942 145.339 44.9902 145.339C45.1222 145.339 45.2182 145.279 45.2302 145.111C45.2542 144.919 45.2542 144.715 45.2542 144.511C45.2542 144.331 45.2542 144.151 45.2422 144.019C45.2302 143.875 45.1342 143.755 44.9422 143.731C44.4382 143.659 42.5662 143.467 40.8622 143.467C38.5582 143.467 37.7542 144.067 37.7542 145.231ZM43.9822 139.709C43.9822 140.513 43.4302 140.981 41.7262 140.981C39.7942 140.981 39.0502 140.549 39.0502 139.853C39.0502 139.277 39.6502 138.641 41.1262 138.641C43.6942 138.641 43.9822 138.821 43.9822 139.709ZM45.3142 139.757C45.3142 138.689 45.1582 137.969 45.0262 137.621C44.9302 137.429 44.7862 137.321 44.6182 137.297C43.7182 137.141 42.4222 137.093 41.0662 137.093C39.0262 137.093 36.8422 137.213 35.8342 137.345C35.5222 137.393 35.4742 137.489 35.4502 137.657C35.4262 137.861 35.4262 138.077 35.4262 138.293C35.4262 138.461 35.4262 138.617 35.4382 138.773C35.4502 138.929 35.5222 139.013 35.6902 139.013C35.9782 139.013 37.2382 138.737 38.2102 138.737C38.3182 138.737 38.3662 138.797 38.3662 138.869C38.3662 138.905 38.3542 138.941 38.3302 138.977C38.0782 139.313 37.7182 139.769 37.7182 140.393C37.7182 141.713 39.1462 142.601 41.9302 142.601C44.1142 142.601 45.3142 141.785 45.3142 139.757ZM43.3342 131.068C42.8302 131.068 42.5662 131.2 42.5662 131.344C42.5662 131.392 42.5902 131.44 42.6502 131.476C43.4662 131.908 43.8862 132.544 43.8862 133.432C43.8862 134.188 43.4422 134.536 42.9022 134.536C42.6982 134.536 42.5542 134.428 42.4222 134.164C41.7622 133.12 41.6782 131.08 39.6022 131.08C38.3302 131.08 37.7302 131.98 37.7302 133.084C37.7302 134.824 38.9542 136.228 41.7262 136.228C43.8502 136.228 45.3862 135.508 45.3862 133.504C45.3862 132.196 44.5942 131.068 43.3342 131.068ZM39.7222 132.52C40.5262 132.52 40.9342 133.756 41.3422 134.404C41.3782 134.476 41.4022 134.524 41.4022 134.596C41.4022 134.704 41.2822 134.752 41.1502 134.752C39.9862 134.752 39.0262 134.188 39.0262 133.228C39.0262 132.772 39.3022 132.52 39.7222 132.52ZM44.9422 128.111C44.7022 128.111 42.9262 128.591 41.0662 128.591C39.7942 128.591 39.5302 128.327 39.5302 128.039C39.5302 127.775 39.6022 127.487 39.6022 127.307C39.6022 127.211 39.5662 127.127 39.3502 127.079C39.1822 127.031 38.8942 127.007 38.5582 127.007C37.9462 127.007 37.7782 127.115 37.7782 127.319C37.7782 127.595 37.9342 127.883 38.2102 128.231C38.2702 128.291 38.3062 128.363 38.3062 128.411C38.3062 128.483 38.2582 128.543 38.1022 128.543C37.9582 128.543 37.8742 128.579 37.8502 128.711C37.8382 128.807 37.8262 128.939 37.8262 129.083C37.8262 129.335 37.8502 129.599 37.8862 129.707C37.9102 129.803 38.0062 129.887 38.1862 129.935C38.5822 130.031 39.4822 130.139 41.5582 130.139C43.0222 130.139 44.2942 130.043 44.9062 129.899C45.1102 129.863 45.2062 129.755 45.2302 129.587C45.2422 129.383 45.2422 129.155 45.2422 128.951C45.2422 128.735 45.2422 128.519 45.2182 128.375C45.1942 128.183 45.0982 128.111 44.9422 128.111ZM45.2902 122.795C45.2902 122.483 45.2902 122.183 45.2542 121.943C45.2062 121.667 45.1222 121.631 44.9182 121.631C43.7662 121.655 41.9542 121.787 40.1902 121.787C38.4982 121.787 36.6742 121.619 36.2902 121.619C36.0382 121.619 35.9422 121.811 35.9422 122.027C35.9422 122.783 36.3742 123.683 36.7222 124.079C36.7942 124.163 36.8782 124.199 36.9502 124.199C37.0462 124.199 37.1422 124.127 37.2142 123.995C37.4542 123.527 37.7062 123.395 38.6542 123.395C40.7662 123.395 43.2622 123.527 44.9902 123.527C45.1822 123.527 45.2422 123.419 45.2662 123.275C45.2902 123.143 45.2902 122.975 45.2902 122.795ZM45.2422 119.788C45.2422 119.524 45.1822 119.008 45.1822 118.528C45.1822 117.604 45.2542 116.584 45.2542 116.032C45.2542 114.688 44.3182 114.292 43.4062 114.292C42.9382 114.292 42.5662 114.424 42.3022 114.616C42.2182 114.676 42.1702 114.76 42.1702 114.832C42.1702 114.928 42.2422 115.024 42.3502 115.048C42.7942 115.132 43.1662 115.264 43.3822 115.54C43.6342 115.9 43.6942 116.464 43.6942 118.072C43.6942 118.312 43.6102 118.432 43.4542 118.432C42.7102 118.432 42.2302 117.94 41.4862 116.764C40.4782 115.108 39.7822 114.436 38.3662 114.436C36.7942 114.436 35.9182 115.468 35.9182 117.052C35.9182 118.432 36.5422 119.56 37.2622 120.148C37.3462 120.208 37.4422 120.244 37.5502 120.244C37.7302 120.244 38.2822 120.016 38.5942 119.752C38.6782 119.68 38.7262 119.596 38.7262 119.5C38.7262 119.44 38.7022 119.38 38.6422 119.32C37.9342 118.624 37.5262 117.82 37.5262 117.124C37.5262 116.488 37.9342 116.092 38.4502 116.092C39.1102 116.092 39.4702 116.512 40.1422 117.544C41.1742 119.14 42.1582 120.244 44.0422 120.244C44.8582 120.244 45.2422 120.148 45.2422 119.788Z" fill="white"/>
<path d="M152.647 85.1355C154.151 85.2188 155.572 86.0098 155.572 87.5504C155.572 91.0478 155.572 94.5868 155.572 98.1259H149.681V87.5504C149.723 86.1347 151.101 85.0938 152.647 85.1355ZM160.92 85.1771C162.173 85.1771 163.802 86.0515 163.844 87.592C163.844 91.2976 163.844 95.0865 163.844 98.8337C163.176 98.4173 162.382 98.1259 161.463 98.1259H157.953V87.5504C157.995 86.0515 159.457 85.1771 160.92 85.1771ZM169.108 85.1771C170.487 85.2188 172.075 86.7176 172.075 88.7162C172.075 92.3801 172.075 96.1274 172.075 99.2917C171.114 101.79 168.356 101.956 166.184 101.623C166.226 96.7519 166.184 91.8389 166.184 87.5504C166.267 86.0515 167.772 85.2604 169.108 85.1771ZM177.339 87.5504C179.177 87.5087 180.347 89.2574 180.347 91.0478V101.831C177.757 102.081 175.501 101.582 174.456 99.2917C174.456 95.5861 174.414 92.4634 174.414 89.2574C174.414 88.0084 176.169 87.592 177.339 87.5504ZM148.511 100.458H161.463C162.967 100.499 163.844 101.457 163.844 102.831C163.802 104.33 162.8 105.162 161.463 105.162H154.402C153.734 105.162 153.107 105.87 153.232 106.536L154.402 113.531C154.486 113.906 154.736 114.239 155.071 114.364L162.131 117.903C162.716 118.278 163.552 118.07 163.844 117.487C164.137 116.862 163.802 116.029 163.176 115.821L156.658 112.574L155.823 107.536H161.463C163.802 107.286 165.056 105.995 165.933 104.163C168.941 104.455 171.281 103.83 173.286 101.956C175.083 103.913 178.091 104.455 180.347 104.205V116.654C176.921 124.939 172.033 127.438 163.844 127.438C163.218 127.438 162.633 128.021 162.633 128.645C162.633 129.27 163.218 129.811 163.844 129.811C167.145 129.686 170.445 129.894 173.286 128.52V159.721H155.572V127.438C155.572 127.146 155.447 126.855 155.238 126.605C151.854 123.232 148.428 118.652 147.341 115.488V102.831C147.383 101.665 147.592 100.416 148.511 100.458Z" fill="#FE2B4C"/>
<path d="M147.6 83.2075C148.142 83.105 149.059 82.7853 150.002 82.6071C151.676 82.2907 153.566 82.0802 154.439 81.9153C157.316 81.3717 157.665 79.3518 157.315 77.5128C157.162 76.7112 156.851 76.2326 156.535 75.8528C156.381 75.6864 156.198 75.6233 156.056 75.65C155.844 75.6902 155.687 75.8908 155.713 76.1546C155.838 77.3277 155.853 78.302 155.338 78.9366C154.762 79.6316 153.502 79.943 149.068 80.7807C148.62 80.8654 148.372 80.7169 148.318 80.4339C147.946 78.477 148.911 77.0002 151.623 74.436C154.417 71.7832 155.538 70.2281 155.022 67.5167C154.493 64.7346 152.345 63.333 149.374 63.8945C146.85 64.3712 145.089 65.9008 144.094 67.6032C144.003 67.767 143.963 67.9454 143.999 68.134C144.058 68.4405 144.454 68.8541 144.86 69.1925C145.033 69.3308 145.216 69.3939 145.381 69.3628C145.523 69.336 145.627 69.243 145.718 69.0793C146.757 67.222 148.16 66.2487 149.669 65.9635C151.367 65.6426 152.635 66.5267 152.895 67.8941C153.227 69.6389 152.322 70.7869 150.221 72.8447C147.518 75.456 145.686 77.5119 146.372 81.1192C146.659 82.6281 146.987 83.3234 147.6 83.2075Z" fill="#FE2B4C"/>
<path d="M160.256 81.4554C160.808 81.4596 161.769 81.323 162.729 81.3304C164.433 81.3435 166.328 81.502 167.216 81.5089C170.144 81.5314 170.878 79.617 170.893 77.745C170.899 76.929 170.687 76.3994 170.45 75.9656C170.332 75.7727 170.165 75.6754 170.021 75.6743C169.805 75.6726 169.611 75.8391 169.585 76.1029C169.48 77.2782 169.305 78.2368 168.677 78.76C167.976 79.3307 166.68 79.3927 162.168 79.358C161.712 79.3545 161.498 79.1609 161.5 78.8729C161.515 76.8809 162.749 75.6184 165.908 73.6266C169.164 71.5636 170.566 70.2543 170.587 67.4944C170.609 64.6625 168.774 62.8723 165.751 62.8491C163.183 62.8293 161.158 63.9898 159.85 65.4678C159.729 65.6109 159.656 65.7783 159.654 65.9703C159.652 66.2823 159.96 66.7647 160.293 67.1753C160.436 67.3444 160.603 67.4416 160.771 67.4429C160.915 67.444 161.036 67.373 161.157 67.2299C162.537 65.6085 164.103 64.9245 165.639 64.9363C167.367 64.9495 168.438 66.0618 168.427 67.4538C168.414 69.2297 167.302 70.1812 164.842 71.7943C161.682 73.8341 159.486 75.4973 159.457 79.1692C159.446 80.7051 159.632 81.4506 160.256 81.4554Z" fill="#FE2B4C"/>
<path d="M177.457 73.76C176.104 73.3431 175.967 71.9199 176.671 69.6505C177.34 67.4958 178.435 66.477 179.627 66.8445C180.774 67.1977 181.055 68.6405 180.387 70.7952C179.683 73.0645 178.787 74.1698 177.457 73.76ZM176.832 75.4509C179.149 76.1646 181.109 75.111 182.19 71.6267C183.221 68.303 182.798 65.9378 180.184 65.1323C177.684 64.3622 175.777 66.1353 174.781 69.3445C173.7 72.8287 174.493 74.7302 176.832 75.4509ZM183.124 83.8433C181.771 83.4264 181.634 82.0032 182.338 79.7338C183.007 77.5791 184.125 76.5674 185.34 76.9419C186.464 77.2881 186.722 78.7238 186.054 80.8785C185.35 83.1478 184.454 84.2531 183.124 83.8433ZM182.499 85.5342C184.816 86.2479 186.776 85.1943 187.857 81.71C188.888 78.3863 188.465 76.0211 185.851 75.2156C183.351 74.4455 181.444 76.2186 180.448 79.4278C179.367 82.912 180.16 84.8135 182.499 85.5342ZM174.514 82.1953C176.687 80.454 180.278 77.1404 180.42 76.6819C180.484 76.4756 180.359 76.3116 180.176 76.255C180.061 76.2197 179.955 76.2373 179.842 76.2778C178.066 77.3879 174.219 79.7438 172.419 80.8469C172.292 80.9333 172.218 81.0108 172.182 81.1254C172.132 81.2859 172.22 81.4887 172.453 81.7111C172.624 81.8893 173.272 82.3904 173.525 82.4682C173.96 82.6024 174.215 82.4297 174.514 82.1953ZM188.473 68.4643C183.923 72.4371 182.529 73.6903 182.387 74.1487C182.33 74.3321 182.432 74.4891 182.593 74.5386C182.708 74.5739 182.837 74.5634 182.927 74.5158C184.85 73.501 188.707 70.9475 190.567 69.8127C190.694 69.7264 190.769 69.6488 190.804 69.5342C190.854 69.3738 190.766 69.1709 190.534 68.9486C190.363 68.7704 189.714 68.2692 189.462 68.1915C189.026 68.0572 188.748 68.2229 188.473 68.4643Z" fill="#FE2B4C"/>
<path d="M151.091 155.867C151.091 155.555 151.091 155.255 151.055 155.015C151.007 154.739 150.923 154.703 150.719 154.703C149.567 154.727 147.755 154.859 145.991 154.859C144.299 154.859 142.475 154.691 142.091 154.691C141.839 154.691 141.743 154.883 141.743 155.099C141.743 155.855 142.175 156.755 142.523 157.151C142.595 157.235 142.679 157.271 142.751 157.271C142.847 157.271 142.943 157.199 143.015 157.067C143.255 156.599 143.507 156.467 144.455 156.467C146.567 156.467 149.063 156.599 150.791 156.599C150.983 156.599 151.043 156.491 151.067 156.347C151.091 156.215 151.091 156.047 151.091 155.867ZM148.691 146.932C147.191 146.932 146.579 147.868 146.339 148.324C146.303 148.384 146.255 148.42 146.195 148.42C146.123 148.42 146.063 148.384 146.015 148.324C145.667 147.928 145.211 147.304 144.071 147.304C142.511 147.304 141.755 148.456 141.755 150.004C141.755 151.624 142.559 152.908 144.155 152.908C145.175 152.908 145.763 152.356 146.099 151.996C146.135 151.936 146.207 151.912 146.255 151.912C146.327 151.912 146.387 151.936 146.435 151.996C146.771 152.38 147.395 153.208 148.751 153.208C150.263 153.208 151.187 152.044 151.187 150.088C151.187 147.892 150.155 146.932 148.691 146.932ZM148.463 151.564C147.635 151.564 146.795 150.952 146.795 150.076C146.795 149.38 147.419 148.6 148.511 148.6C149.279 148.6 149.747 149.164 149.747 150.052C149.747 151.048 149.267 151.564 148.463 151.564ZM144.215 148.84C144.959 148.84 145.691 149.44 145.691 150.112C145.691 150.772 145.007 151.384 144.227 151.384C143.579 151.384 143.051 150.916 143.051 150.04C143.051 149.296 143.543 148.84 144.215 148.84ZM147.515 142.877C147.191 142.793 146.795 142.745 146.591 142.745C146.351 142.745 146.231 142.841 146.207 143.105C146.183 143.489 146.159 144.137 146.159 144.737C146.159 145.133 146.171 145.517 146.195 145.793C146.207 145.973 146.291 146.069 146.519 146.129C146.927 146.237 147.215 146.261 147.479 146.261C147.695 146.261 147.779 146.165 147.791 145.973C147.815 145.541 147.851 144.749 147.851 144.077C147.851 143.765 147.839 143.465 147.827 143.237C147.803 143.021 147.683 142.925 147.515 142.877ZM151.043 141.985C151.043 141.721 150.983 141.205 150.983 140.725C150.983 139.801 151.055 138.781 151.055 138.229C151.055 136.885 150.119 136.489 149.207 136.489C148.739 136.489 148.367 136.621 148.103 136.813C148.019 136.873 147.971 136.957 147.971 137.029C147.971 137.125 148.043 137.221 148.151 137.245C148.595 137.329 148.967 137.461 149.183 137.737C149.435 138.097 149.495 138.661 149.495 140.269C149.495 140.509 149.411 140.629 149.255 140.629C148.511 140.629 148.031 140.137 147.287 138.961C146.279 137.305 145.583 136.633 144.167 136.633C142.595 136.633 141.719 137.665 141.719 139.249C141.719 140.629 142.343 141.757 143.063 142.345C143.147 142.405 143.243 142.441 143.351 142.441C143.531 142.441 144.083 142.213 144.395 141.949C144.479 141.877 144.527 141.793 144.527 141.697C144.527 141.637 144.503 141.577 144.443 141.517C143.735 140.821 143.327 140.017 143.327 139.321C143.327 138.685 143.735 138.289 144.251 138.289C144.911 138.289 145.271 138.709 145.943 139.741C146.975 141.337 147.959 142.441 149.843 142.441C150.659 142.441 151.043 142.345 151.043 141.985ZM149.351 130.636C149.159 130.636 149.087 130.552 149.087 130.42C149.087 130.108 149.135 129.964 149.135 129.712C149.135 129.532 149.039 129.484 148.895 129.472C148.715 129.46 148.535 129.448 148.367 129.448C148.115 129.448 147.899 129.46 147.731 129.472C147.551 129.496 147.491 129.604 147.491 129.772C147.491 129.952 147.527 130.228 147.515 130.408C147.515 130.552 147.455 130.636 147.179 130.636C145.511 130.636 143.747 130.516 143.639 130.516C143.471 130.516 143.411 130.576 143.411 130.672C143.411 130.936 143.879 131.44 144.143 131.656C144.371 131.824 144.491 131.884 144.923 131.944C145.427 132.016 146.159 132.028 147.263 132.1C147.419 132.1 147.551 132.136 147.623 132.208C147.743 132.328 147.767 132.424 147.767 133.96C147.767 134.08 147.731 134.128 147.635 134.128C146.723 134.128 144.155 133.48 142.151 132.16C142.091 132.112 142.031 132.088 141.971 132.088C141.875 132.088 141.791 132.172 141.767 132.328C141.743 132.472 141.731 132.712 141.731 132.988C141.731 133.216 141.743 133.456 141.767 133.672C141.791 133.852 141.875 133.996 142.103 134.116C143.411 134.764 146.519 135.736 148.715 135.736C149.003 135.736 149.231 135.604 149.231 135.256C149.231 134.632 149.171 133.228 149.171 132.592C149.171 132.388 149.243 132.268 149.471 132.268C149.927 132.268 150.407 132.316 150.755 132.316C151.007 132.316 151.043 132.244 151.079 132.016C151.091 131.86 151.103 131.548 151.103 131.248C151.103 131.092 151.091 130.948 151.091 130.828C151.079 130.66 150.959 130.576 150.815 130.576C150.179 130.576 149.735 130.636 149.351 130.636Z" fill="#FE2B4C"/>
<path d="M107.857 155.898C107.857 155.586 107.857 155.286 107.821 155.046C107.773 154.77 107.689 154.734 107.485 154.734C106.333 154.758 104.521 154.89 102.757 154.89C101.065 154.89 99.2406 154.722 98.8566 154.722C98.6046 154.722 98.5086 154.914 98.5086 155.13C98.5086 155.886 98.9406 156.786 99.2886 157.182C99.3606 157.266 99.4446 157.302 99.5166 157.302C99.6126 157.302 99.7086 157.23 99.7806 157.098C100.021 156.63 100.273 156.498 101.221 156.498C103.333 156.498 105.829 156.63 107.557 156.63C107.749 156.63 107.809 156.522 107.833 156.378C107.857 156.246 107.857 156.078 107.857 155.898ZM107.809 152.891C107.809 152.627 107.749 152.111 107.749 151.631C107.749 150.707 107.821 149.687 107.821 149.135C107.821 147.791 106.885 147.395 105.973 147.395C105.505 147.395 105.133 147.527 104.869 147.719C104.785 147.779 104.737 147.863 104.737 147.935C104.737 148.031 104.809 148.127 104.917 148.151C105.361 148.235 105.733 148.367 105.949 148.643C106.201 149.003 106.261 149.567 106.261 151.175C106.261 151.415 106.177 151.535 106.021 151.535C105.277 151.535 104.797 151.043 104.053 149.867C103.045 148.211 102.349 147.539 100.933 147.539C99.3606 147.539 98.4846 148.571 98.4846 150.155C98.4846 151.535 99.1086 152.663 99.8286 153.251C99.9126 153.311 100.009 153.347 100.117 153.347C100.297 153.347 100.849 153.119 101.161 152.855C101.245 152.783 101.293 152.699 101.293 152.603C101.293 152.543 101.269 152.483 101.209 152.423C100.501 151.727 100.093 150.923 100.093 150.227C100.093 149.591 100.501 149.195 101.017 149.195C101.677 149.195 102.037 149.615 102.709 150.647C103.741 152.243 104.725 153.347 106.609 153.347C107.425 153.347 107.809 153.251 107.809 152.891ZM104.281 143.424C103.957 143.34 103.561 143.292 103.357 143.292C103.117 143.292 102.997 143.388 102.973 143.652C102.949 144.036 102.925 144.684 102.925 145.284C102.925 145.68 102.937 146.064 102.961 146.34C102.973 146.52 103.057 146.616 103.285 146.676C103.693 146.784 103.981 146.808 104.245 146.808C104.461 146.808 104.545 146.712 104.557 146.52C104.581 146.088 104.617 145.296 104.617 144.624C104.617 144.312 104.605 144.012 104.593 143.784C104.569 143.568 104.449 143.472 104.281 143.424ZM107.857 141.449C107.857 141.137 107.857 140.837 107.821 140.597C107.773 140.321 107.689 140.285 107.485 140.285C106.333 140.309 104.521 140.441 102.757 140.441C101.065 140.441 99.2406 140.273 98.8566 140.273C98.6046 140.273 98.5086 140.465 98.5086 140.681C98.5086 141.437 98.9406 142.337 99.2886 142.733C99.3606 142.817 99.4446 142.853 99.5166 142.853C99.6126 142.853 99.7086 142.781 99.7806 142.649C100.021 142.181 100.273 142.049 101.221 142.049C103.333 142.049 105.829 142.181 107.557 142.181C107.749 142.181 107.809 142.073 107.833 141.929C107.857 141.797 107.857 141.629 107.857 141.449ZM107.989 136.492C107.989 135.556 107.341 135.244 106.837 135.244C106.681 135.244 106.633 135.292 106.609 135.424C106.549 136.12 106.333 136.372 105.697 136.372C104.617 136.372 102.865 135.532 100.957 134.332C100.621 134.128 100.441 134.032 99.7926 134.032C99.6126 134.032 99.3726 134.032 99.0726 134.056C98.7726 134.08 98.6886 134.152 98.6766 134.416C98.6526 135.016 98.6286 135.784 98.6286 136.624C98.6286 137.38 98.6406 138.184 98.6886 138.988C98.7006 139.24 98.8086 139.348 99.0246 139.36C99.1806 139.372 99.3726 139.384 99.5886 139.384C99.8886 139.372 100.333 139.36 100.621 139.324C100.753 139.3 100.801 139.228 100.801 139.132C100.801 139.048 100.741 138.844 100.693 138.652C100.501 138.088 100.273 137.128 100.273 136.06C100.273 135.928 100.321 135.844 100.465 135.844C101.149 135.844 103.717 138.244 106.033 138.244C107.317 138.244 107.989 137.704 107.989 136.492ZM106.513 131.466C106.729 131.502 107.017 131.514 107.269 131.514C107.413 131.514 107.581 131.514 107.701 131.502C107.893 131.478 108.001 131.43 108.001 131.166C108.001 127.086 105.097 126.234 100.969 126.234C100.657 126.234 100.465 126.294 100.429 126.558C100.417 126.678 100.405 126.858 100.405 127.05C100.405 127.266 100.417 127.482 100.429 127.65C100.441 127.77 100.501 127.89 100.657 127.89C100.825 127.89 101.449 127.806 101.989 127.806C102.865 127.806 103.753 127.902 104.233 128.046C104.389 128.094 104.437 128.178 104.437 128.274C104.437 128.838 103.405 129.81 101.293 129.81C101.041 129.81 100.753 129.786 100.669 129.786C100.477 129.786 100.453 129.882 100.429 130.014C100.417 130.182 100.405 130.386 100.405 130.59C100.405 130.794 100.405 130.974 100.417 131.13C100.441 131.418 100.573 131.466 100.933 131.466C103.489 131.466 104.749 130.686 105.457 129.042C105.493 128.958 105.541 128.898 105.613 128.898C105.865 128.898 106.045 129.246 106.141 129.726C106.225 130.146 106.249 130.662 106.249 131.154C106.249 131.334 106.309 131.442 106.513 131.466ZM105.901 120.566C105.397 120.566 105.133 120.698 105.133 120.842C105.133 120.89 105.157 120.938 105.217 120.974C106.033 121.406 106.453 122.042 106.453 122.93C106.453 123.686 106.009 124.034 105.469 124.034C105.265 124.034 105.121 123.926 104.989 123.662C104.329 122.618 104.245 120.578 102.169 120.578C100.897 120.578 100.297 121.478 100.297 122.582C100.297 124.322 101.521 125.726 104.293 125.726C106.417 125.726 107.953 125.006 107.953 123.002C107.953 121.694 107.161 120.566 105.901 120.566ZM102.289 122.018C103.093 122.018 103.501 123.254 103.909 123.902C103.945 123.974 103.969 124.022 103.969 124.094C103.969 124.202 103.849 124.25 103.717 124.25C102.553 124.25 101.593 123.686 101.593 122.726C101.593 122.27 101.869 122.018 102.289 122.018ZM107.821 117.166C107.821 116.578 107.797 115.33 107.713 114.982C107.677 114.79 107.569 114.706 107.377 114.706C107.221 114.706 106.429 114.802 105.793 114.802C105.061 114.802 104.029 114.754 102.985 114.754C101.257 114.754 100.285 115.39 100.285 117.226C100.285 118.714 100.909 119.674 101.665 119.674C101.965 119.674 102.253 119.542 102.409 119.386C102.469 119.326 102.493 119.278 102.493 119.218C102.493 119.158 102.469 119.098 102.409 119.038C101.929 118.546 101.653 117.97 101.653 117.346C101.653 116.59 102.001 116.278 102.637 116.278C102.877 116.278 103.009 116.398 103.057 116.71C103.297 118.522 104.029 119.842 105.673 119.842C107.125 119.842 107.821 118.954 107.821 117.166ZM105.925 116.266C106.249 116.266 106.429 116.362 106.429 116.89C106.429 117.85 106.213 118.318 105.505 118.318C104.665 118.318 104.185 117.574 104.185 116.554C104.185 116.326 104.293 116.266 104.605 116.266L105.925 116.266ZM107.509 111.574C107.269 111.574 105.493 112.054 103.633 112.054C102.361 112.054 102.097 111.79 102.097 111.502C102.097 111.238 102.169 110.95 102.169 110.77C102.169 110.674 102.133 110.59 101.917 110.542C101.749 110.494 101.461 110.47 101.125 110.47C100.513 110.47 100.345 110.578 100.345 110.782C100.345 111.058 100.501 111.346 100.777 111.694C100.837 111.754 100.873 111.826 100.873 111.874C100.873 111.946 100.825 112.006 100.669 112.006C100.525 112.006 100.441 112.042 100.417 112.174C100.405 112.27 100.393 112.402 100.393 112.546C100.393 112.798 100.417 113.062 100.453 113.17C100.477 113.266 100.573 113.35 100.753 113.398C101.149 113.494 102.049 113.602 104.125 113.602C105.589 113.602 106.861 113.506 107.473 113.362C107.677 113.326 107.773 113.218 107.797 113.05C107.809 112.846 107.809 112.618 107.809 112.414C107.809 112.198 107.809 111.982 107.785 111.838C107.761 111.646 107.665 111.574 107.509 111.574ZM105.181 109.518C105.097 109.554 105.049 109.614 105.049 109.674C105.049 109.734 105.097 109.806 105.181 109.854C105.349 109.95 105.673 110.058 106.093 110.058C107.161 110.058 107.953 109.194 107.953 107.67C107.953 106.158 107.197 105.222 105.757 105.222C104.425 105.222 103.897 106.146 103.345 107.286C102.913 108.15 102.721 108.438 102.277 108.438C101.905 108.438 101.629 108.126 101.629 107.598C101.629 107.022 101.905 106.506 102.277 106.146C102.337 106.086 102.361 106.038 102.361 105.978C102.361 105.906 102.313 105.846 102.241 105.798C101.953 105.63 101.365 105.39 101.065 105.39C100.897 105.39 100.801 105.45 100.705 105.618C100.465 105.99 100.285 106.698 100.285 107.394C100.285 108.942 101.137 109.878 102.421 109.878C103.645 109.878 104.149 109.098 104.713 107.91C105.133 107.046 105.421 106.806 105.853 106.806C106.285 106.806 106.549 107.07 106.549 107.706C106.549 108.666 105.889 109.266 105.181 109.518ZM106.441 99.8087C106.441 100.661 105.661 100.997 104.113 100.997C102.505 100.997 101.641 100.577 101.641 99.7847C101.641 99.0407 102.493 98.5847 104.113 98.5847C105.649 98.5847 106.441 98.9207 106.441 99.8087ZM107.953 99.8807C107.953 98.2007 106.861 97.0127 104.233 97.0127C101.809 97.0127 100.285 97.8167 100.285 99.7247C100.285 101.609 101.869 102.581 104.233 102.581C106.861 102.581 107.953 101.525 107.953 99.8807ZM107.569 93.9812C107.233 93.9812 105.373 94.2212 102.889 94.2212C100.309 94.2212 98.4486 93.9932 98.2446 93.9932C98.0766 93.9932 98.0166 94.1132 98.0046 94.2452C97.9806 94.4012 97.9806 94.5812 97.9806 94.7732C97.9806 94.9532 97.9806 95.1092 98.0046 95.2892C98.0166 95.4452 98.0526 95.5532 98.3046 95.5892C100.057 95.8172 102.169 95.9252 104.137 95.9252C105.337 95.9252 106.477 95.8892 107.461 95.7692C107.737 95.7452 107.797 95.5892 107.809 95.4332C107.821 95.2412 107.833 95.0252 107.833 94.8092C107.833 94.5932 107.821 94.3892 107.809 94.2212C107.797 94.0772 107.725 93.9812 107.569 93.9812ZM106.549 90.2068C106.549 91.0108 105.997 91.4788 104.293 91.4788C102.361 91.4788 101.617 91.0468 101.617 90.3508C101.617 89.7748 102.217 89.1388 103.693 89.1388C106.261 89.1388 106.549 89.3188 106.549 90.2068ZM107.881 90.2548C107.881 89.1868 107.725 88.4668 107.593 88.1188C107.497 87.9268 107.353 87.8188 107.185 87.7948C106.285 87.6388 104.989 87.5908 103.633 87.5908C101.593 87.5908 99.4086 87.7108 98.4006 87.8428C98.0886 87.8908 98.0406 87.9868 98.0166 88.1548C97.9926 88.3588 97.9926 88.5748 97.9926 88.7908C97.9926 88.9588 97.9926 89.1148 98.0046 89.2708C98.0166 89.4268 98.0886 89.5108 98.2566 89.5108C98.5446 89.5108 99.8046 89.2348 100.777 89.2348C100.885 89.2348 100.933 89.2948 100.933 89.3668C100.933 89.4028 100.921 89.4388 100.897 89.4748C100.645 89.8108 100.285 90.2668 100.285 90.8908C100.285 92.2108 101.713 93.0988 104.497 93.0988C106.681 93.0988 107.881 92.2828 107.881 90.2548Z" fill="white"/>
<line x1="0.417969" y1="165.127" x2="209.418" y2="165.127" stroke="black" stroke-dasharray="2 2"/>
</svg>
