<svg viewBox="0 0 274 234" fill="none" xmlns="http://www.w3.org/2000/svg">
<path d="M38.7709 64.2328V10.8808C38.7709 9.51277 38.6189 8.52478 38.3149 8.06877C38.0109 7.61277 37.1749 7.38477 35.8829 7.38477H25.7749C23.4189 7.38477 22.2789 9.58878 22.2789 13.9208C22.2789 15.8968 22.5829 17.7208 23.1909 19.3928C24.8629 19.1648 26.3829 19.5448 27.6749 20.6088C28.8909 21.6728 29.5749 23.1168 29.5749 24.8648C29.5749 26.4608 28.9669 27.7528 27.9029 28.8168C26.8389 29.8808 25.4709 30.4128 23.9509 30.4128C21.9749 30.4128 20.4549 29.5768 19.3149 27.8288C18.2509 26.3088 17.7189 24.2568 17.7189 21.6728C17.7189 18.0248 18.7829 13.3128 20.9869 7.38477H11.4109C10.1949 7.38477 9.51092 7.61277 9.20692 7.91677C8.90292 8.29677 8.82692 9.05677 8.82692 10.2728V63.7768C8.82692 65.2968 8.97892 66.2848 9.35892 66.6648C9.66292 67.0448 10.6509 67.1968 12.2469 67.1968H21.5949C23.8749 67.1968 25.0909 64.9928 25.0909 60.4328C25.0909 58.4568 24.7869 56.7088 24.2549 55.1888C23.8749 55.2648 23.5709 55.2648 23.2669 55.2648C21.7469 55.2648 20.3789 54.7328 19.3149 53.5928C18.2509 52.5288 17.7189 51.1608 17.7949 49.6408C17.7949 48.1208 18.3269 46.8288 19.3909 45.7648C20.4549 44.7008 21.8229 44.1688 23.4189 44.1688C25.5469 44.1688 27.2189 45.2328 28.2829 47.2848C29.1949 48.9568 29.6509 50.9328 29.6509 53.2888C29.6509 56.3288 28.6629 60.9648 26.6869 67.1968H36.5669C37.5549 67.1968 38.1629 66.9688 38.4669 66.4368C38.6189 66.1328 38.7709 65.3728 38.7709 64.2328ZM72.256 59.2168V16.1248C72.256 10.3488 69.14 7.38477 62.908 7.38477H51.128C44.896 7.38477 41.78 10.3488 41.78 16.2008V59.2168C41.78 64.5368 44.896 67.1968 51.204 67.1968H63.212C69.216 67.1968 72.256 64.5368 72.256 59.2168ZM62.604 49.7928C62.604 51.3888 61.996 52.6808 60.856 53.7448C59.716 54.8088 58.424 55.2648 57.056 55.2648C55.46 55.2648 54.168 54.7328 53.104 53.6688C52.04 52.6048 51.508 51.3128 51.508 49.7168C51.508 47.3608 52.42 44.2448 54.32 40.4448C56.372 36.4168 57.512 33.0728 57.816 30.3368C56.22 30.6408 54.776 30.1848 53.484 29.1208C52.116 28.0568 51.508 26.6888 51.508 24.8648C51.508 23.2688 52.04 21.9008 53.104 20.8368C54.168 19.7728 55.536 19.2408 57.132 19.2408C58.652 19.2408 59.944 19.8488 61.008 20.9128C62.072 22.0528 62.604 23.4208 62.604 24.9408C62.604 27.0688 61.768 30.0328 60.096 33.9848C58.348 38.2408 57.36 41.6608 57.132 44.1688C58.576 44.1688 59.868 44.7768 60.932 45.8408C61.996 46.9048 62.604 48.2728 62.604 49.7928ZM120.319 53.0608V10.4248C120.319 8.44877 119.635 7.38477 118.343 7.38477H113.555C112.035 7.38477 110.743 8.22078 109.755 9.74077C105.803 15.6688 103.903 22.0528 103.903 28.8928C103.903 31.1728 104.435 33.9088 105.499 37.1008C106.563 40.2928 107.779 42.8008 109.147 44.5488C109.679 44.3208 110.287 44.1688 110.895 44.1688C112.263 44.1688 113.479 44.7008 114.543 45.7648C115.607 46.8288 116.139 48.1968 116.139 49.8688C116.139 51.3888 115.607 52.6808 114.619 53.7448C113.555 54.8088 112.339 55.2648 110.895 55.2648C107.247 55.2648 104.891 52.7568 103.827 47.7408C102.079 39.9128 100.939 33.7568 100.331 29.2728C99.5709 23.6488 99.1909 16.3528 99.1909 7.38477H96.4549C96.3789 16.3528 95.9229 23.6488 95.1629 29.2728C94.3269 35.2008 93.1869 41.3568 91.7429 47.7408C90.5269 52.7568 88.2469 55.2648 84.9029 55.2648C83.3829 55.2648 82.0149 54.7328 80.9509 53.6688C79.8869 52.6048 79.3549 51.3128 79.3549 49.7928C79.3549 48.0448 79.8869 46.6768 80.9509 45.6888C82.0149 44.7008 83.2309 44.1688 84.7509 44.1688C85.3589 44.1688 85.8909 44.3208 86.4989 44.4728C87.7909 42.4968 89.0069 39.9888 90.0709 37.0248C91.1349 33.8328 91.7429 31.0968 91.7429 28.8168C91.7429 21.9768 89.6909 15.5168 85.5869 9.51277C84.6749 8.14478 83.5349 7.46078 82.2429 7.38477H77.1509C75.7829 7.38477 75.1749 8.44877 75.1749 10.4248V53.0608C75.1749 57.5448 75.4789 60.7368 76.1629 62.5608C77.2269 65.6768 79.5069 67.1968 82.9269 67.1968H88.7789C93.4909 67.1968 96.3789 63.7768 97.4429 56.9368H98.1269C98.8869 63.7768 101.775 67.1968 106.791 67.1968H112.491C115.835 67.1968 118.039 65.6768 119.255 62.5608C119.939 60.5848 120.319 57.4688 120.319 53.0608ZM161.797 59.7488V10.4248C161.797 8.44877 161.113 7.38477 159.821 7.38477H150.473C147.813 7.38477 146.521 9.58878 146.521 13.9968C146.521 16.1248 146.825 17.9488 147.433 19.3928C147.737 19.3168 148.117 19.2408 148.497 19.2408C149.941 19.2408 151.233 19.8488 152.297 20.9888C153.361 22.1288 153.893 23.4208 153.893 24.8648C153.893 26.4608 153.285 27.7528 152.221 28.8168C151.081 29.8808 149.713 30.4128 148.193 30.4128C146.065 30.4128 144.469 29.4248 143.405 27.3728C142.493 25.7768 142.037 23.8008 142.037 21.5208C142.037 19.5448 142.341 17.1888 143.101 14.3768C143.785 11.6408 144.621 9.28478 145.533 7.38477H136.033C134.057 7.38477 133.069 8.52478 133.069 10.7288V47.1328C135.957 44.3968 139.453 43.0288 143.633 43.0288C146.217 43.0288 148.421 43.5608 150.321 44.4728C152.677 45.6888 153.893 47.4368 153.893 49.7168C153.893 51.1608 153.361 52.4528 152.373 53.5928C151.309 54.7328 150.093 55.2648 148.725 55.2648C146.977 55.2648 145.533 54.7328 144.469 53.6688C143.329 52.6048 142.797 51.2368 142.797 49.4888C142.797 49.4128 142.797 49.1088 142.949 48.6528C141.961 48.0448 140.897 47.7408 139.681 47.7408C135.273 47.7408 133.069 50.5528 133.069 56.1008V60.4328C133.069 64.9928 135.805 67.1968 141.277 67.1968H152.449C155.489 67.1968 157.769 66.8168 159.213 65.9048C160.885 64.8408 161.797 62.7888 161.797 59.7488ZM174.867 19.5448V10.2728C174.867 8.29677 173.651 7.30877 171.295 7.30877H167.875C165.595 7.30877 164.455 8.29677 164.455 10.1968V18.8608C164.455 20.3048 165.139 21.0648 166.507 21.2168C167.875 21.3688 168.635 21.8248 168.635 22.5848C168.635 23.8768 167.951 24.6368 166.583 24.7888C165.215 25.0168 164.607 25.4728 164.607 26.2328C164.531 28.4368 164.835 29.5008 165.519 29.5008C169.167 29.5008 171.751 28.6648 173.119 26.9168C174.259 25.5488 174.867 23.0408 174.867 19.5448ZM205.872 63.3968V15.4408C205.872 10.1208 203.212 7.38477 197.968 7.38477H185.2C180.032 7.38477 177.524 9.89278 177.524 14.9088V24.3328C177.524 25.7008 177.98 26.9168 178.892 27.8288C179.804 28.8168 180.944 29.2728 182.312 29.2728C183.984 29.2728 185.352 28.5128 186.492 26.8408C186.188 26.3088 186.112 25.5488 186.112 24.6368C186.112 23.1928 186.644 21.9768 187.784 20.9128C188.848 19.8488 190.216 19.3168 191.736 19.3168C193.256 19.3168 194.548 19.9248 195.612 20.9888C196.676 22.0528 197.208 23.3448 197.208 24.8648C197.208 27.3728 195.46 29.2728 192.04 30.4888C186.264 32.6928 182.996 33.9848 182.388 34.3648C178.892 36.6448 177.22 40.2928 177.22 45.1568V58.0008C177.22 64.1568 180.184 67.1968 186.112 67.1968C188.696 67.1968 190.216 67.1968 190.672 67.0448C192.344 66.7408 193.484 65.9048 194.016 64.4608C194.548 62.8648 194.852 60.5848 194.852 57.6968C194.852 54.2768 194.396 51.4648 193.484 49.2608C192.952 49.4888 192.42 49.5648 191.812 49.5648C190.14 49.5648 188.772 49.1088 187.708 48.0448C186.568 46.9808 186.036 45.6888 186.036 44.0168C186.036 42.4968 186.568 41.2048 187.708 40.1408C188.848 39.0768 190.216 38.4688 191.736 38.4688C195.612 38.4688 197.588 42.0408 197.588 49.1088C197.588 56.8608 196.828 62.8648 195.46 67.1968H202.148C203.44 67.1968 204.352 67.0448 204.96 66.6648C205.568 66.3608 205.872 65.2208 205.872 63.3968ZM235.749 62.1808V37.9368C235.749 35.9608 235.065 34.2888 233.697 32.8448C232.329 31.4768 230.657 30.7168 228.681 30.7168C225.869 30.7168 223.817 31.9328 222.525 34.2888C221.385 36.2648 220.853 38.6968 220.853 41.6608C220.853 42.4968 220.853 43.3328 220.929 44.2448C222.449 44.2448 223.665 44.8528 224.577 45.9168C225.489 47.0568 226.021 48.3488 226.021 49.8688C226.021 51.3888 225.413 52.6808 224.349 53.7448C223.285 54.8088 221.993 55.2648 220.473 55.2648C218.877 55.2648 217.585 54.7328 216.521 53.5928C215.457 52.5288 214.925 51.0088 214.925 49.1848C214.925 43.8648 216.673 38.5448 220.169 33.3008C220.473 32.8448 223.665 28.9688 229.821 21.5208C233.241 17.4168 234.989 13.8448 234.989 10.8808C234.989 9.96878 234.609 9.13277 234.001 8.44877C233.317 7.76477 232.481 7.38477 231.569 7.38477L212.873 7.30877C211.201 7.30877 210.061 7.53678 209.605 7.99277C209.149 8.44877 208.921 9.58878 208.921 11.3368V62.1808C208.921 64.3848 209.225 65.7528 209.985 66.3608C210.669 66.9688 212.189 67.1968 214.469 67.1968H231.265C233.089 67.1968 234.381 66.8168 235.065 65.9808C235.521 65.3728 235.749 64.0808 235.749 62.1808ZM265.214 62.1808V37.9368C265.214 35.9608 264.53 34.2888 263.162 32.8448C261.794 31.4768 260.122 30.7168 258.146 30.7168C255.334 30.7168 253.282 31.9328 251.99 34.2888C250.85 36.2648 250.318 38.6968 250.318 41.6608C250.318 42.4968 250.318 43.3328 250.394 44.2448C251.914 44.2448 253.13 44.8528 254.042 45.9168C254.954 47.0568 255.486 48.3488 255.486 49.8688C255.486 51.3888 254.878 52.6808 253.814 53.7448C252.75 54.8088 251.458 55.2648 249.938 55.2648C248.342 55.2648 247.05 54.7328 245.986 53.5928C244.922 52.5288 244.39 51.0088 244.39 49.1848C244.39 43.8648 246.138 38.5448 249.634 33.3008C249.938 32.8448 253.13 28.9688 259.286 21.5208C262.706 17.4168 264.454 13.8448 264.454 10.8808C264.454 9.96878 264.074 9.13277 263.466 8.44877C262.782 7.76477 261.946 7.38477 261.034 7.38477L242.338 7.30877C240.666 7.30877 239.526 7.53678 239.07 7.99277C238.614 8.44877 238.386 9.58878 238.386 11.3368V62.1808C238.386 64.3848 238.69 65.7528 239.45 66.3608C240.134 66.9688 241.654 67.1968 243.934 67.1968H260.73C262.554 67.1968 263.846 66.8168 264.53 65.9808C264.986 65.3728 265.214 64.0808 265.214 62.1808Z" fill="#85267A"/>
<path d="M46.1946 81.4699C46.1946 75.3319 43.0326 72.2629 36.8016 72.2629H12.7146C10.8546 72.2629 9.7386 72.6349 9.2736 73.3789C8.8086 74.1229 8.6226 75.4249 8.6226 77.4709V140.804C8.6226 142.85 8.9016 144.059 9.4596 144.617C10.0176 145.175 11.2266 145.454 13.1796 145.454H41.2656C44.5206 145.454 46.1946 144.245 46.1946 141.734V141.176C46.1946 137.735 44.2416 133.922 40.3356 129.737C39.4056 128.807 37.5456 127.133 34.7556 124.715C32.2446 122.669 30.1986 120.716 28.7106 118.856C25.4556 115.322 23.3166 110.951 22.2006 105.557C21.3636 101.744 21.2706 97.5589 21.9216 93.0949C22.1076 91.1419 22.9446 89.6539 24.2466 88.5379C25.5486 87.4219 27.0366 86.8639 28.8036 86.8639C30.7566 86.8639 32.3376 87.6079 33.6396 88.9099C34.8486 90.3049 35.4996 91.8859 35.4996 93.5599C35.4996 95.3269 34.9416 96.9079 33.8256 98.3029C32.5236 99.8839 30.9426 100.628 29.0826 100.628C27.7806 100.628 26.5716 100.256 25.2696 99.5119C25.3626 104.069 26.3856 107.603 28.3386 110.114C30.1986 112.625 32.8026 113.834 35.9646 113.834C39.3126 113.834 42.0096 112.532 43.9626 109.742C45.4506 107.51 46.1946 105.092 46.1946 102.488V81.4699ZM82.3207 139.316V109.649C82.3207 107.231 81.4837 105.185 79.8097 103.418C78.1357 101.744 76.0897 100.814 73.6717 100.814C70.2307 100.814 67.7197 102.302 66.1387 105.185C64.7437 107.603 64.0927 110.579 64.0927 114.206C64.0927 115.229 64.0927 116.252 64.1857 117.368C66.0457 117.368 67.5337 118.112 68.6497 119.414C69.7657 120.809 70.4167 122.39 70.4167 124.25C70.4167 126.11 69.6727 127.691 68.3707 128.993C67.0687 130.295 65.4877 130.853 63.6277 130.853C61.6747 130.853 60.0937 130.202 58.7917 128.807C57.4897 127.505 56.8387 125.645 56.8387 123.413C56.8387 116.903 58.9777 110.393 63.2557 103.976C63.6277 103.418 67.5337 98.6749 75.0667 89.5609C79.2517 84.5389 81.3907 80.1679 81.3907 76.5409C81.3907 75.4249 80.9257 74.4019 80.1817 73.5649C79.3447 72.7279 78.3217 72.2629 77.2057 72.2629L54.3277 72.1699C52.2817 72.1699 50.8867 72.4489 50.3287 73.0069C49.7707 73.5649 49.4917 74.9599 49.4917 77.0989V139.316C49.4917 142.013 49.8637 143.687 50.7937 144.431C51.6307 145.175 53.4907 145.454 56.2807 145.454H76.8337C79.0657 145.454 80.6467 144.989 81.4837 143.966C82.0417 143.222 82.3207 141.641 82.3207 139.316ZM120.143 140.804V82.1209C120.143 75.6109 116.888 72.2629 110.471 72.2629H94.8474C88.5234 72.2629 85.4544 75.3319 85.4544 81.4699V93.0019C85.4544 94.6759 86.0124 96.1639 87.1284 97.2799C88.2444 98.4889 89.6394 99.0469 91.3134 99.0469C93.3594 99.0469 95.0334 98.1169 96.4284 96.0709C96.0564 95.4199 95.9634 94.4899 95.9634 93.3739C95.9634 91.6069 96.6144 90.1189 98.0094 88.8169C99.3114 87.5149 100.985 86.8639 102.845 86.8639C104.705 86.8639 106.286 87.6079 107.588 88.9099C108.89 90.2119 109.541 91.7929 109.541 93.6529C109.541 96.7219 107.402 99.0469 103.217 100.535C96.1494 103.232 92.1504 104.813 91.4064 105.278C87.1284 108.068 85.0824 112.532 85.0824 118.484V134.201C85.0824 141.734 88.7094 145.454 95.9634 145.454C99.1254 145.454 100.985 145.454 101.543 145.268C103.589 144.896 104.984 143.873 105.635 142.106C106.286 140.153 106.658 137.363 106.658 133.829C106.658 129.644 106.1 126.203 104.984 123.506C104.333 123.785 103.682 123.878 102.938 123.878C100.892 123.878 99.2184 123.32 97.9164 122.018C96.5214 120.716 95.8704 119.135 95.8704 117.089C95.8704 115.229 96.5214 113.648 97.9164 112.346C99.3114 111.044 100.985 110.3 102.845 110.3C107.588 110.3 110.006 114.671 110.006 123.32C110.006 132.806 109.076 140.153 107.402 145.454H115.586C117.167 145.454 118.283 145.268 119.027 144.803C119.771 144.431 120.143 143.036 120.143 140.804ZM159.028 136.34V75.9829C159.028 73.5649 158.191 72.2629 156.61 72.2629H145.171C141.916 72.2629 140.335 74.9599 140.335 80.3539C140.335 82.9579 140.707 85.1899 141.451 86.9569C141.823 86.8639 142.288 86.7709 142.753 86.7709C144.52 86.7709 146.101 87.5149 147.403 88.9099C148.705 90.3049 149.356 91.8859 149.356 93.6529C149.356 95.6059 148.612 97.1869 147.31 98.4889C145.915 99.7909 144.241 100.442 142.381 100.442C139.777 100.442 137.824 99.2329 136.522 96.7219C135.406 94.7689 134.848 92.3509 134.848 89.5609C134.848 87.1429 135.22 84.2599 136.15 80.8189C136.987 77.4709 138.01 74.5879 139.126 72.2629H127.501C125.083 72.2629 123.874 73.6579 123.874 76.3549V120.902C127.408 117.554 131.686 115.88 136.801 115.88C139.963 115.88 142.66 116.531 144.985 117.647C147.868 119.135 149.356 121.274 149.356 124.064C149.356 125.831 148.705 127.412 147.496 128.807C146.194 130.202 144.706 130.853 143.032 130.853C140.893 130.853 139.126 130.202 137.824 128.9C136.429 127.598 135.778 125.924 135.778 123.785C135.778 123.692 135.778 123.32 135.964 122.762C134.755 122.018 133.453 121.646 131.965 121.646C126.571 121.646 123.874 125.087 123.874 131.876V137.177C123.874 142.757 127.222 145.454 133.918 145.454H147.589C151.309 145.454 154.099 144.989 155.866 143.873C157.912 142.571 159.028 140.06 159.028 136.34ZM183.949 141.083V76.4479C183.949 74.7739 183.67 73.6579 183.112 73.0999C182.554 72.5419 181.438 72.2629 179.764 72.2629H167.395C165.814 72.2629 164.698 72.5419 164.047 73.0999C163.303 73.6579 162.931 74.7739 162.931 76.2619V84.6319C162.931 85.7479 162.838 87.1429 162.745 88.7239C162.559 90.1189 162.559 91.1419 162.559 91.6999C162.559 93.2809 163.117 94.3969 164.14 95.0479C165.07 95.7919 166.093 96.0709 167.116 95.8849C166.744 95.2339 166.651 94.3969 166.651 93.3739C166.651 91.6069 167.209 90.1189 168.418 88.8169C169.534 87.5149 171.115 86.8639 173.161 86.8639C175.114 86.8639 176.695 87.5149 177.997 88.8169C179.206 90.1189 179.857 91.7929 179.857 93.8389C179.857 97.0009 177.811 99.3259 173.719 100.721C170.185 102.023 166.651 102.581 162.931 102.581V140.99C162.931 143.036 163.117 144.245 163.582 144.71C164.047 145.268 165.256 145.454 167.116 145.454H179.95C181.81 145.454 182.926 145.268 183.298 144.803C183.67 144.338 183.949 143.129 183.949 141.083ZM225.294 141.92V76.4479C225.294 74.5879 225.015 73.3789 224.643 72.9139C224.271 72.5419 223.155 72.2629 221.481 72.2629H211.623C209.67 72.2629 208.368 72.8209 207.81 73.9369C206.787 75.7969 206.322 78.5869 206.322 82.3999C206.322 85.1899 206.694 87.7939 207.624 90.2119C208.926 87.9799 210.972 86.8639 213.669 86.8639C215.436 86.8639 217.017 87.6079 218.319 88.9099C219.621 90.3049 220.272 91.9789 220.272 93.8389C220.272 95.6989 219.528 97.1869 218.226 98.4889C216.831 99.7909 215.343 100.442 213.669 100.442C211.623 100.442 209.763 99.6049 208.089 97.9309C206.508 96.4429 205.02 93.8389 203.532 90.0259C202.044 86.4919 201.021 82.9579 200.463 79.5169C199.905 76.1689 199.533 73.7509 199.44 72.2629H190.512C189.21 72.2629 188.466 72.5419 188.094 73.0069C187.722 73.4719 187.629 74.3089 187.629 75.5179V141.92C187.629 143.594 187.908 144.617 188.559 144.989C188.931 145.361 189.954 145.454 191.628 145.454H202.881C204.834 145.454 205.95 144.617 206.322 142.757C206.88 138.944 207.159 135.038 207.159 131.039C207.159 122.576 206.136 115.787 204.183 110.672C202.509 111.974 200.928 112.625 199.254 112.625C197.58 112.625 196.092 112.067 194.79 110.858C193.302 109.649 192.558 108.068 192.558 106.115C192.558 104.162 193.116 102.488 194.325 101.093C195.534 99.7909 197.301 99.0469 199.533 99.0469C200.835 99.0469 202.137 99.5119 203.439 100.442C204.369 101.186 205.113 102.209 205.764 103.418C207.717 107.696 209.577 114.392 211.437 123.506C213.204 132.62 214.134 139.874 214.134 145.454H222.597C223.806 145.454 224.643 145.175 225.015 144.617C225.201 144.245 225.294 143.408 225.294 141.92ZM264.012 136.805V110.579C264.012 107.696 262.896 105.185 260.664 103.139C258.432 101.093 255.828 99.9769 252.945 99.9769C249.969 99.9769 247.272 101.093 245.04 103.232C242.715 105.464 241.692 107.975 241.878 110.765L241.971 111.881C242.901 110.765 244.389 110.114 246.342 110.114C248.388 110.114 250.062 110.765 251.364 112.067C252.666 113.369 253.317 114.95 253.317 116.996C253.317 118.949 252.666 120.53 251.364 121.832C250.062 123.134 248.388 123.692 246.528 123.692C243.273 123.692 240.762 121.925 239.088 118.391C237.6 115.601 236.949 112.439 236.949 108.905C236.949 104.162 238.344 99.9769 241.227 96.3499C244.203 92.5369 248.109 90.5839 252.852 90.5839C257.13 90.5839 260.757 92.5369 263.919 96.2569V80.2609C263.919 76.8199 262.896 74.4949 261.036 73.3789C259.641 72.6349 257.037 72.2629 253.224 72.2629H240.018C232.671 72.2629 229.044 75.9829 229.044 83.2369V136.898C229.044 142.664 232.299 145.454 238.995 145.454H254.433C260.757 145.454 264.012 142.571 264.012 136.805Z" fill="#4F247D"/>
<path d="M45.7211 153.37C45.7211 151.17 44.8411 150.026 43.2571 150.026H10.9611C9.37711 150.026 8.58511 151.17 8.58511 153.37V198.778C10.6971 198.778 12.4571 197.898 13.9531 195.962C18.7051 189.978 21.1691 183.378 21.1691 176.162C20.4651 176.602 19.4971 176.778 18.3531 176.778C16.3291 176.778 14.7451 176.162 13.6011 174.842C12.4571 173.61 11.9291 172.114 11.9291 170.354C11.9291 168.594 12.5451 167.01 13.8651 165.778C15.0971 164.546 16.6811 163.93 18.4411 163.93C20.2891 163.93 21.7851 164.634 23.0171 165.954C24.1611 167.274 24.7771 168.77 24.7771 170.442C24.7771 179.594 23.4571 187.69 20.8171 194.906C19.5851 198.162 17.2971 202.65 13.7771 208.37C10.7851 213.298 9.20111 216.29 9.20111 217.434C9.20111 218.754 10.1691 219.37 12.1931 219.37H42.2891C44.2251 219.37 45.2811 218.754 45.2811 217.434C45.2811 216.378 43.6971 213.386 40.7051 208.458C37.0971 202.738 34.7211 198.25 33.4891 194.906C30.8491 187.69 29.5291 179.506 29.5291 170.354C29.5291 168.682 30.0571 167.186 31.2891 165.866C32.5211 164.634 34.0171 163.93 35.9531 163.93C37.8891 163.93 39.3851 164.634 40.6171 165.866C41.7611 167.186 42.3771 168.682 42.3771 170.442C42.3771 172.114 41.7611 173.61 40.5291 174.842C39.2971 176.162 37.9771 176.778 36.3931 176.778C34.8971 176.778 33.8411 176.602 33.1371 176.162C33.1371 183.202 35.6011 189.802 40.6171 196.05C41.4971 197.282 42.6411 198.162 44.0491 198.514C44.5771 198.69 45.1051 198.778 45.7211 198.778V153.37ZM83.7378 215.938V154.162C83.7378 152.578 83.5618 151.434 83.2098 150.906C82.8578 150.378 81.8898 150.114 80.3938 150.114H68.6898C65.9618 150.114 64.6418 152.666 64.6418 157.682C64.6418 159.97 64.9938 162.082 65.6978 164.018C67.6338 163.754 69.3938 164.194 70.8898 165.426C72.2978 166.658 73.0898 168.33 73.0898 170.354C73.0898 172.202 72.3858 173.698 71.1538 174.93C69.9218 176.162 68.3378 176.778 66.5778 176.778C64.2898 176.778 62.5298 175.81 61.2098 173.786C59.9778 172.026 59.3618 169.65 59.3618 166.658C59.3618 162.434 60.5938 156.978 63.1458 150.114H52.0578C50.6498 150.114 49.8578 150.378 49.5058 150.73C49.1538 151.17 49.0658 152.05 49.0658 153.458V215.41C49.0658 217.17 49.2418 218.314 49.6818 218.754C50.0338 219.194 51.1778 219.37 53.0258 219.37H63.8498C66.4898 219.37 67.8978 216.818 67.8978 211.538C67.8978 209.25 67.5458 207.226 66.9298 205.466C66.4898 205.554 66.1378 205.554 65.7858 205.554C64.0258 205.554 62.4418 204.938 61.2098 203.618C59.9778 202.386 59.3618 200.802 59.4498 199.042C59.4498 197.282 60.0658 195.786 61.2978 194.554C62.5298 193.322 64.1138 192.706 65.9618 192.706C68.4258 192.706 70.3618 193.938 71.5938 196.314C72.6498 198.25 73.1778 200.538 73.1778 203.266C73.1778 206.786 72.0338 212.154 69.7458 219.37H81.1858C82.3298 219.37 83.0338 219.106 83.3858 218.49C83.5618 218.138 83.7378 217.258 83.7378 215.938ZM122.51 210.13V160.234C122.51 153.546 118.902 150.114 111.686 150.114H98.0461C90.8301 150.114 87.2221 153.546 87.2221 160.322V210.13C87.2221 216.29 90.8301 219.37 98.1341 219.37H112.038C118.99 219.37 122.51 216.29 122.51 210.13ZM111.334 199.218C111.334 201.066 110.63 202.562 109.31 203.794C107.99 205.026 106.494 205.554 104.91 205.554C103.062 205.554 101.566 204.938 100.334 203.706C99.1021 202.474 98.4861 200.978 98.4861 199.13C98.4861 196.402 99.5421 192.794 101.742 188.394C104.118 183.73 105.438 179.858 105.79 176.69C103.942 177.042 102.27 176.514 100.774 175.282C99.1901 174.05 98.4861 172.466 98.4861 170.354C98.4861 168.506 99.1021 166.922 100.334 165.69C101.566 164.458 103.15 163.842 104.998 163.842C106.758 163.842 108.254 164.546 109.486 165.778C110.718 167.098 111.334 168.682 111.334 170.442C111.334 172.906 110.366 176.338 108.43 180.914C106.406 185.842 105.262 189.802 104.998 192.706C106.67 192.706 108.166 193.41 109.398 194.642C110.63 195.874 111.334 197.458 111.334 199.218ZM159.33 213.21V153.634C159.33 151.346 158.626 150.114 157.218 150.114H153.434C151.85 150.114 150.706 150.466 149.826 151.17C149.298 151.61 148.418 152.666 147.362 154.25C145.074 158.122 143.226 162.346 141.73 166.922C140.058 172.202 139.266 176.954 139.266 181.266C139.266 186.018 140.058 189.978 141.73 193.322C142.522 192.97 143.402 192.706 144.37 192.706C146.13 192.706 147.626 193.322 148.946 194.554C150.178 195.786 150.882 197.282 150.882 199.218C150.882 200.978 150.178 202.474 148.946 203.706C147.714 204.938 146.218 205.554 144.458 205.554C140.586 205.554 137.946 202.738 136.626 196.93C135.834 193.762 135.482 189.978 135.482 185.402C135.482 180.562 135.834 175.458 136.714 170.09C137.066 167.098 137.77 164.106 138.65 161.026C138.826 160.498 139.53 158.298 140.762 154.426C141.29 152.578 141.818 151.17 142.258 150.114H129.41C127.034 150.114 125.89 152.05 125.89 155.922V202.562C125.89 213.826 129.41 219.37 136.626 219.37H155.81C157.394 219.37 158.45 218.754 158.978 217.346C159.154 216.642 159.33 215.234 159.33 213.21ZM195.935 211.186V186.37C195.935 183.642 194.879 181.266 192.767 179.33C190.655 177.394 188.191 176.338 185.463 176.338C182.647 176.338 180.095 177.394 177.983 179.418C175.783 181.53 174.815 183.906 174.991 186.546L175.079 187.602C175.959 186.546 177.367 185.93 179.215 185.93C181.151 185.93 182.735 186.546 183.967 187.778C185.199 189.01 185.815 190.506 185.815 192.442C185.815 194.29 185.199 195.786 183.967 197.018C182.735 198.25 181.151 198.778 179.391 198.778C176.311 198.778 173.935 197.106 172.351 193.762C170.943 191.122 170.327 188.13 170.327 184.786C170.327 180.298 171.647 176.338 174.375 172.906C177.191 169.298 180.887 167.45 185.375 167.45C189.423 167.45 192.855 169.298 195.847 172.818V157.682C195.847 154.426 194.879 152.226 193.119 151.17C191.799 150.466 189.335 150.114 185.727 150.114H173.231C166.279 150.114 162.847 153.634 162.847 160.498V211.274C162.847 216.73 165.927 219.37 172.263 219.37H186.871C192.855 219.37 195.935 216.642 195.935 211.186ZM234.128 215.938V154.162C234.128 152.578 233.952 151.434 233.6 150.906C233.248 150.378 232.28 150.114 230.784 150.114H219.08C216.352 150.114 215.032 152.666 215.032 157.682C215.032 159.97 215.384 162.082 216.088 164.018C218.024 163.754 219.784 164.194 221.28 165.426C222.688 166.658 223.48 168.33 223.48 170.354C223.48 172.202 222.776 173.698 221.544 174.93C220.312 176.162 218.728 176.778 216.968 176.778C214.68 176.778 212.92 175.81 211.6 173.786C210.368 172.026 209.752 169.65 209.752 166.658C209.752 162.434 210.984 156.978 213.536 150.114H202.448C201.04 150.114 200.248 150.378 199.896 150.73C199.544 151.17 199.456 152.05 199.456 153.458V215.41C199.456 217.17 199.632 218.314 200.072 218.754C200.424 219.194 201.568 219.37 203.416 219.37H214.24C216.88 219.37 218.288 216.818 218.288 211.538C218.288 209.25 217.936 207.226 217.32 205.466C216.88 205.554 216.528 205.554 216.176 205.554C214.416 205.554 212.832 204.938 211.6 203.618C210.368 202.386 209.752 200.802 209.84 199.042C209.84 197.282 210.456 195.786 211.688 194.554C212.92 193.322 214.504 192.706 216.352 192.706C218.816 192.706 220.752 193.938 221.984 196.314C223.04 198.25 223.568 200.538 223.568 203.266C223.568 206.786 222.424 212.154 220.136 219.37H231.576C232.72 219.37 233.424 219.106 233.776 218.49C233.952 218.138 234.128 217.258 234.128 215.938ZM265.189 178.482V167.462C265.189 164.878 264.429 162.978 262.909 161.61C261.389 160.242 259.413 159.558 257.057 159.558H245.049C239.881 159.558 237.373 162.066 237.373 167.082V177.342C237.373 179.318 237.981 180.99 239.197 182.282C240.413 183.65 241.933 184.258 243.833 184.258C245.885 184.258 247.405 183.574 248.393 182.054C246.341 181.066 245.353 179.394 245.353 176.962C245.353 175.442 245.885 174.15 246.949 173.086C248.013 172.022 249.305 171.49 250.825 171.49C252.421 171.49 253.789 172.022 254.853 173.086C255.917 174.15 256.449 175.518 256.449 177.19C256.449 179.546 255.157 181.598 252.725 183.422C251.357 184.334 250.065 185.17 248.849 186.006C246.949 187.374 245.505 188.894 244.593 190.414C243.225 192.542 242.541 195.05 242.541 197.786C242.541 200.37 243.605 201.586 245.885 201.586H250.369C252.193 201.586 253.105 200.446 253.105 198.166V197.33C253.029 195.734 253.865 194.138 255.613 192.466C256.069 192.01 257.589 190.87 260.097 189.046C263.441 186.462 265.189 182.966 265.189 178.482ZM253.105 216.938V208.046C253.105 206.374 252.041 205.462 249.913 205.462H246.189C243.757 205.462 242.617 206.374 242.617 208.122V216.862C242.617 218.534 243.681 219.294 245.885 219.294H250.217C252.117 219.294 253.105 218.534 253.105 216.938Z" fill="#85267A"/>
</svg>
