<svg viewBox="0 0 323 139" fill="none" xmlns="http://www.w3.org/2000/svg">
<path d="M21.2218 23.8521L22.1458 22.1121L25.9378 15.4881V15.3801H20.6818V16.4361H24.8818L20.3818 23.5041L21.2218 23.8521ZM27.2402 23.8401C28.5362 23.8401 30.4442 22.5561 30.4442 20.8041C30.4442 19.4601 29.6762 18.3201 27.7202 17.3241L28.1042 16.3761H30.7922V15.3801H28.0202L26.8922 18.0681C28.9442 19.3881 29.4002 20.3601 29.4002 21.2361C29.4002 22.3401 28.7282 23.1441 27.5642 23.3241L26.7122 22.5801C26.4122 22.6641 26.2202 22.8441 26.2202 23.1081C26.2202 23.6121 26.7962 23.8401 27.2402 23.8401ZM34.2871 14.1321C33.1951 14.1321 32.2951 15.0801 32.2951 16.4121C32.2951 17.6841 33.0871 18.5121 34.2151 18.5121C35.3191 18.5121 36.2191 17.5761 36.2191 16.2561C36.2191 15.2001 35.5951 14.1321 34.2871 14.1321ZM33.8791 21.9921H34.5871L40.2271 13.8321H39.5191L33.8791 21.9921ZM34.2031 14.6241C34.8631 14.6241 35.3311 15.4281 35.3311 16.4361C35.3311 17.1801 35.0191 18.0201 34.3231 18.0201C33.5431 18.0201 33.1831 17.0961 33.1831 16.1961C33.1831 15.4881 33.4831 14.6241 34.2031 14.6241ZM39.9151 17.2401C38.8231 17.2401 37.9231 18.1881 37.9231 19.5201C37.9231 20.7921 38.7151 21.6201 39.8431 21.6201C40.9471 21.6201 41.8471 20.6841 41.8471 19.3641C41.8471 18.3081 41.2231 17.2401 39.9151 17.2401ZM39.8311 17.7321C40.4911 17.7321 40.9591 18.5361 40.9591 19.5441C40.9591 20.2881 40.6471 21.1281 39.9511 21.1281C39.1711 21.1281 38.8111 20.2041 38.8111 19.3041C38.8111 18.5961 39.1111 17.7321 39.8311 17.7321ZM46.3206 18.2601C46.3206 17.0361 46.8966 16.0881 47.8806 16.0881C48.9606 16.0881 49.7046 17.0961 49.7046 18.8601C49.7046 20.0841 49.1166 21.0561 48.1566 21.0561C46.8726 21.0561 46.3206 19.5801 46.3206 18.2601ZM48.0126 21.5841C49.5966 21.5841 50.7966 20.1921 50.7966 18.4521C50.7966 16.6401 49.7166 15.5721 48.0126 15.5721C46.4526 15.5721 45.2286 16.9641 45.2286 18.6801C45.2286 20.2281 46.2006 21.5841 48.0126 21.5841ZM51.7434 21.3921H54.5994V20.9841L53.5194 20.7321V16.3641H55.1514V15.7521H53.5194V14.8041C53.5194 13.4241 54.1434 12.9561 54.8154 12.9561C55.1514 12.9561 55.3674 13.1001 55.3674 13.1001L55.6554 14.0961C55.6554 14.0961 55.7874 14.1441 55.9434 14.1441C56.3394 14.1441 56.5674 13.8321 56.5674 13.5201C56.5674 12.9921 55.9794 12.4401 55.0314 12.4401C53.7234 12.4401 52.4874 13.8321 52.4874 15.5721V15.6201L51.6354 15.8601V16.3521H52.4994V20.7321L51.7434 20.9841V21.3921ZM60.0716 21.5241C60.9836 21.5241 61.6676 20.9841 61.6676 20.9841L61.5956 20.6841C61.5956 20.6841 61.0796 20.7681 60.6956 20.7681C60.2396 20.7681 59.8916 20.6961 59.8916 19.7361V16.3881H61.4756V15.7521H59.8676V14.2041H59.4596L58.9316 15.6321L58.0556 15.8481V16.3521H58.8956L58.8596 20.2161C58.8476 20.9601 59.1236 21.5241 60.0716 21.5241ZM65.796 21.3921H68.28V20.9961L67.5 20.7441V17.6121C67.5 16.0761 66.984 15.5961 65.868 15.5961C64.872 15.5961 64.116 16.4361 63.912 16.6881V12.4401L62.088 12.7521V13.0761L62.892 13.3881V20.7201L62.136 20.9841V21.3921H64.704V20.9841L63.912 20.7441V17.0841C63.912 17.0601 64.596 16.4001 65.376 16.4001C66.18 16.4001 66.432 16.8681 66.48 17.7081V20.7441L65.796 20.9841V21.3921ZM71.6574 21.5841C73.4454 21.5841 74.0094 19.9161 74.0094 19.9161L73.7694 19.7721C73.7694 19.7721 73.1214 20.6721 72.1014 20.6721C70.8534 20.6721 70.0014 19.7481 70.0014 18.2601V18.1401H73.9734C73.9734 16.4961 73.1934 15.5961 71.8614 15.5961C70.1814 15.5961 69.0294 17.0001 69.0294 18.7881C69.0294 19.8201 69.6654 21.5841 71.6574 21.5841ZM71.5974 16.1241C72.3894 16.1241 72.7614 16.8561 72.7734 17.6721H70.0614C70.2414 16.7841 70.8414 16.1241 71.5974 16.1241ZM9.78308 38.3921L12.7231 38.4401C14.8711 38.4761 16.1671 37.5881 16.1671 36.1841C16.1671 34.7561 14.8711 34.1681 13.4671 34.0961V34.0721C14.6671 33.9641 15.7831 33.4721 15.7831 32.2001C15.7831 30.9881 14.6551 30.3641 12.5551 30.3881L9.78308 30.4241V30.8081L10.8031 31.1201V37.7201L9.78308 37.9961V38.3921ZM13.1791 34.4201C14.1631 34.5881 14.9431 35.2121 14.9431 36.2801C14.9431 37.4321 14.0671 38.0081 13.2151 38.0081C12.5671 38.0081 12.1231 37.7561 11.9671 37.4321V34.4201H13.1791ZM11.9671 30.7961C13.6951 30.7721 14.6071 31.2401 14.6071 32.3321C14.6071 33.7361 13.0831 33.9161 11.9671 33.9281V30.7961ZM16.9728 38.3921H19.5648V37.9841L18.7488 37.7441V29.4401L16.9608 29.8601V30.2441L17.7288 30.4721V37.7321L16.9728 37.9841V38.3921ZM21.8871 38.5721C22.6431 38.5721 22.9311 38.2361 23.6031 37.6001H23.6391C23.6391 38.1161 23.8911 38.5361 24.5031 38.5361C24.9471 38.5361 25.6431 38.2361 25.6431 38.2361V37.9001H25.0431C24.7071 37.9001 24.6471 37.8161 24.6471 37.5761V34.3361C24.6471 33.1481 24.1191 32.5961 22.9071 32.5961C21.6711 32.5961 20.6151 33.4721 20.6151 34.0241C20.6151 34.3481 20.8071 34.5401 21.1911 34.5401C21.3711 34.5401 21.6711 34.5041 21.6711 34.5041L21.7191 33.3161C21.8151 33.2561 22.1151 33.1001 22.4751 33.1001C23.1111 33.1001 23.5911 33.5801 23.6151 34.5041V35.1281L22.3791 35.4521C21.1431 35.7761 20.4471 36.2081 20.4471 37.1681C20.4471 38.1281 21.2511 38.5721 21.8871 38.5721ZM22.5231 37.7561C22.0071 37.7561 21.5391 37.4441 21.5391 36.8321C21.5391 36.3281 21.8991 36.1001 22.4631 35.9081L23.6151 35.5241V37.1081C23.4711 37.3241 23.0991 37.7561 22.5231 37.7561ZM28.8826 38.5841C30.5506 38.5841 31.0786 37.1441 31.0786 37.1441L30.8386 36.9881C30.8386 36.9881 30.2986 37.7441 29.4346 37.7441C28.2226 37.7441 27.3586 36.6401 27.3586 35.3081C27.3586 34.0361 28.1146 33.1121 29.1106 33.1121C29.5786 33.1121 29.7946 33.2801 29.8306 33.3041L30.0106 34.4201C30.0106 34.4201 30.2026 34.4561 30.4186 34.4561C30.8386 34.4561 31.0546 34.1441 31.0546 33.7961C31.0546 33.1241 30.2986 32.5961 29.3146 32.5961C27.8626 32.5961 26.3026 33.8321 26.3026 35.7761C26.3026 37.6241 27.5266 38.5841 28.8826 38.5841ZM32.4358 37.7201L31.6798 37.9841V38.3921H34.2478V37.9841L33.4558 37.7441V29.4401L31.6438 29.8361V30.1601L32.4358 30.4721V37.7201ZM36.8158 38.5961C37.2598 38.5841 37.4398 38.3321 37.4398 38.3321L34.5718 34.9361L36.5158 33.2921L37.3198 33.0881V32.7521H34.8958V33.1241L35.6278 33.3641L33.9478 34.9001L33.5158 35.0321V35.0561L35.5798 37.7561C36.0838 38.4041 36.4558 38.6081 36.8158 38.5961ZM40.1605 41.2721H43.0285V40.9001L41.9365 40.5761V38.4641C42.1765 38.5361 42.4405 38.5841 42.7165 38.5841C44.3365 38.5841 45.9205 37.1801 45.9205 35.3201C45.9205 33.3641 44.8645 32.5961 43.6765 32.5961C42.7405 32.5961 42.1165 33.2561 41.8765 33.5561L41.6485 32.5961H41.5885L40.1125 33.1721V33.4961L40.9165 33.6881V40.6001L40.1605 40.8641V41.2721ZM43.1485 33.3761C44.1805 33.3761 44.8885 34.2761 44.8885 35.6561C44.8885 37.2401 43.9885 38.0561 43.1125 38.0561C42.4045 38.0561 42.0445 37.7441 41.9365 37.6361V33.8801C42.1645 33.6761 42.5965 33.3761 43.1485 33.3761ZM49.5324 38.5841C51.3204 38.5841 51.8844 36.9161 51.8844 36.9161L51.6444 36.7721C51.6444 36.7721 50.9964 37.6721 49.9764 37.6721C48.7284 37.6721 47.8764 36.7481 47.8764 35.2601V35.1401H51.8484C51.8484 33.4961 51.0684 32.5961 49.7364 32.5961C48.0564 32.5961 46.9044 34.0001 46.9044 35.7881C46.9044 36.8201 47.5404 38.5841 49.5324 38.5841ZM49.4724 33.1241C50.2644 33.1241 50.6364 33.8561 50.6484 34.6721H47.9364C48.1164 33.7841 48.7164 33.1241 49.4724 33.1241ZM54.0081 35.2601C54.0081 34.0361 54.5841 33.0881 55.5681 33.0881C56.6481 33.0881 57.3921 34.0961 57.3921 35.8601C57.3921 37.0841 56.8041 38.0561 55.8441 38.0561C54.5601 38.0561 54.0081 36.5801 54.0081 35.2601ZM55.7001 38.5841C57.2841 38.5841 58.4841 37.1921 58.4841 35.4521C58.4841 33.6401 57.4041 32.5721 55.7001 32.5721C54.1401 32.5721 52.9161 33.9641 52.9161 35.6801C52.9161 37.2281 53.8881 38.5841 55.7001 38.5841ZM59.1097 41.2721H61.9777V40.9001L60.8857 40.5761V38.4641C61.1257 38.5361 61.3897 38.5841 61.6657 38.5841C63.2857 38.5841 64.8697 37.1801 64.8697 35.3201C64.8697 33.3641 63.8137 32.5961 62.6257 32.5961C61.6897 32.5961 61.0657 33.2561 60.8257 33.5561L60.5977 32.5961H60.5377L59.0617 33.1721V33.4961L59.8657 33.6881V40.6001L59.1097 40.8641V41.2721ZM62.0977 33.3761C63.1297 33.3761 63.8377 34.2761 63.8377 35.6561C63.8377 37.2401 62.9377 38.0561 62.0617 38.0561C61.3537 38.0561 60.9937 37.7441 60.8857 37.6361V33.8801C61.1137 33.6761 61.5457 33.3761 62.0977 33.3761ZM65.6525 38.3921H68.2445V37.9841L67.4285 37.7441V29.4401L65.6405 29.8601V30.2441L66.4085 30.4721V37.7321L65.6525 37.9841V38.3921ZM71.6574 38.5841C73.4454 38.5841 74.0094 36.9161 74.0094 36.9161L73.7694 36.7721C73.7694 36.7721 73.1214 37.6721 72.1014 37.6721C70.8534 37.6721 70.0014 36.7481 70.0014 35.2601V35.1401H73.9734C73.9734 33.4961 73.1934 32.5961 71.8614 32.5961C70.1814 32.5961 69.0294 34.0001 69.0294 35.7881C69.0294 36.8201 69.6654 38.5841 71.6574 38.5841ZM71.5974 33.1241C72.3894 33.1241 72.7614 33.8561 72.7734 34.6721H70.0614C70.2414 33.7841 70.8414 33.1241 71.5974 33.1241ZM13.424 49.6561H12.848L11.456 53.9401C11.384 54.1441 11.336 54.3361 11.336 54.3361H11.312C11.312 54.3361 11.264 54.1441 11.204 53.9401L10.208 50.3521L11.084 50.1241V49.7521H8.52796V50.1241L9.07996 50.3521L10.7 55.5841H11.468L12.788 51.6961C12.848 51.5041 12.92 51.2641 12.92 51.2641H12.932C12.932 51.2641 12.992 51.5041 13.064 51.6961L14.42 55.5841H15.14L16.772 50.3521L17.324 50.1241V49.7521H15.248V50.1241L16.136 50.4241L15.092 53.9401C15.032 54.1441 14.984 54.3361 14.984 54.3361H14.96C14.96 54.3361 14.912 54.1441 14.84 53.9401L13.424 49.6561ZM21.2765 55.3921H23.7605V54.9961L22.9805 54.7441V51.6121C22.9805 50.0761 22.4645 49.5961 21.3485 49.5961C20.3525 49.5961 19.5965 50.4361 19.3925 50.6881V46.4401L17.5685 46.7521V47.0761L18.3725 47.3881V54.7201L17.6165 54.9841V55.3921H20.1845V54.9841L19.3925 54.7441V51.0841C19.3925 51.0601 20.0765 50.4001 20.8565 50.4001C21.6605 50.4001 21.9125 50.8681 21.9605 51.7081V54.7441L21.2765 54.9841V55.3921ZM25.6019 52.2601C25.6019 51.0361 26.1779 50.0881 27.1619 50.0881C28.2419 50.0881 28.9859 51.0961 28.9859 52.8601C28.9859 54.0841 28.3979 55.0561 27.4379 55.0561C26.1539 55.0561 25.6019 53.5801 25.6019 52.2601ZM27.2939 55.5841C28.8779 55.5841 30.0779 54.1921 30.0779 52.4521C30.0779 50.6401 28.9979 49.5721 27.2939 49.5721C25.7339 49.5721 24.5099 50.9641 24.5099 52.6801C24.5099 54.2281 25.4819 55.5841 27.2939 55.5841ZM35.1224 55.5241C36.0344 55.5241 36.7184 54.9841 36.7184 54.9841L36.6464 54.6841C36.6464 54.6841 36.1304 54.7681 35.7464 54.7681C35.2904 54.7681 34.9424 54.6961 34.9424 53.7361V50.3881H36.5264V49.7521H34.9184V48.2041H34.5104L33.9824 49.6321L33.1064 49.8481V50.3521H33.9464L33.9104 54.2161C33.8984 54.9601 34.1744 55.5241 35.1224 55.5241ZM38.3402 52.2601C38.3402 51.0361 38.9162 50.0881 39.9002 50.0881C40.9802 50.0881 41.7242 51.0961 41.7242 52.8601C41.7242 54.0841 41.1362 55.0561 40.1762 55.0561C38.8922 55.0561 38.3402 53.5801 38.3402 52.2601ZM40.0322 55.5841C41.6162 55.5841 42.8162 54.1921 42.8162 52.4521C42.8162 50.6401 41.7362 49.5721 40.0322 49.5721C38.4722 49.5721 37.2482 50.9641 37.2482 52.6801C37.2482 54.2281 38.2202 55.5841 40.0322 55.5841ZM44.891 52.2601C44.891 51.0361 45.467 50.0881 46.451 50.0881C47.531 50.0881 48.275 51.0961 48.275 52.8601C48.275 54.0841 47.687 55.0561 46.727 55.0561C45.443 55.0561 44.891 53.5801 44.891 52.2601ZM46.583 55.5841C48.167 55.5841 49.367 54.1921 49.367 52.4521C49.367 50.6401 48.287 49.5721 46.583 49.5721C45.023 49.5721 43.799 50.9641 43.799 52.6801C43.799 54.2281 44.771 55.5841 46.583 55.5841ZM50.846 54.7201L50.09 54.9841V55.3921H52.658V54.9841L51.866 54.7441V46.4401L50.054 46.8361V47.1601L50.846 47.4721V54.7201ZM55.226 55.5961C55.67 55.5841 55.85 55.3321 55.85 55.3321L52.982 51.9361L54.926 50.2921L55.73 50.0881V49.7521H53.306V50.1241L54.038 50.3641L52.358 51.9001L51.926 52.0321V52.0561L53.99 54.7561C54.494 55.4041 54.866 55.6081 55.226 55.5961ZM66.0227 55.3921H68.5067V54.9961L67.7267 54.7441V51.6121C67.7267 50.0761 67.2107 49.5961 66.1067 49.5961C64.9907 49.5961 64.1747 50.6281 64.0547 50.7841H64.0307C63.9227 50.0281 63.5507 49.5961 62.5067 49.5961C61.4987 49.5961 60.7427 50.4481 60.5387 50.6881H60.5267L60.2627 49.5961H60.2027L58.7267 50.1721V50.4961L59.5307 50.6881V54.7321L58.7747 54.9841V55.3921H61.3427V54.9841L60.5507 54.7441V51.0841C60.5507 51.0601 61.2347 50.4001 62.0147 50.4001C62.8187 50.4001 63.0707 50.8681 63.1187 51.7081V54.7441L62.4347 54.9841V55.3921H64.9187V54.9961L64.1387 54.7441V51.0841C64.3187 50.8921 64.8947 50.4001 65.6027 50.4001C66.4067 50.4001 66.6587 50.8681 66.7067 51.7081V54.7441L66.0227 54.9841V55.3921ZM73.4326 50.4121L71.8726 54.5521H71.8366L70.3486 50.3521L71.2246 50.1241V49.7521H68.6206V50.1241L69.1846 50.3521L71.3086 55.9321L70.6006 57.5881H70.5766C70.4446 57.3361 70.2766 57.1561 69.9886 57.1561C69.6526 57.1561 69.3886 57.3721 69.3886 57.7561C69.3886 58.1521 69.7366 58.4281 70.1326 58.4281C70.7446 58.4281 71.0326 57.9601 71.4046 57.0121L74.0686 50.3641L74.6206 50.1241V49.7521H72.6046V50.1121L73.4326 50.4121ZM19.1631 72.6201C20.3271 72.6201 21.4311 71.8401 21.4311 70.8441C21.4311 70.1961 21.0831 69.6681 20.0151 69.2001L19.4991 68.9721C18.7791 68.6481 18.5271 68.3481 18.5271 67.8681C18.5271 67.4121 18.8631 67.0401 19.4391 67.0401C19.8591 67.0401 20.0991 67.2201 20.2431 67.3401L20.7351 68.3841H21.0951L21.0351 66.9561C20.5671 66.7041 20.0631 66.5721 19.6191 66.5721C18.5271 66.5721 17.5551 67.3161 17.5551 68.2401C17.5551 69.0081 17.9631 69.4401 18.7911 69.8121L19.2711 70.0281C20.1831 70.4361 20.4351 70.7961 20.4351 71.2401C20.4351 71.7921 20.0151 72.1521 19.4031 72.1521C18.8511 72.1521 18.5991 71.9481 18.4191 71.7921L17.8071 70.4721H17.4111L17.6031 72.1521C17.9991 72.3921 18.5511 72.6201 19.1631 72.6201ZM26.7602 72.5721L28.3562 72.3321V71.9361L27.3842 71.6961V66.6681L25.3922 66.8481V67.2921L26.3642 67.5081V71.2161C26.3642 71.2161 25.8242 71.7801 25.0922 71.7801C24.2882 71.7801 23.8682 71.3481 23.8322 70.3521V66.6441L21.9842 66.8241V67.2681L22.8122 67.5081V70.4601C22.8122 71.8161 23.3402 72.5961 24.4082 72.5961C25.5362 72.5961 26.3162 71.7081 26.4122 71.6001L26.7602 72.5721ZM28.845 72.3921H31.665V71.9721L30.609 71.7681V68.6001C30.969 68.1441 31.257 67.9041 31.521 67.6881L32.445 68.0001C32.649 67.7481 32.829 67.4841 32.829 67.1721C32.829 66.8121 32.625 66.5721 32.241 66.5721C31.845 66.5721 31.545 66.8001 30.969 67.5801L30.585 68.0961H30.561L30.489 66.5961H30.429L28.797 67.1721V67.5321L29.601 67.6881V71.7201L28.845 71.9841V72.3921ZM36.2487 72.6081L38.3607 67.3521L38.9127 67.1241V66.7521H36.8727V67.1241L37.7247 67.4121L36.2727 71.1321C36.2247 71.2641 36.1527 71.4681 36.1527 71.4681H36.1287C36.1287 71.4681 36.0687 71.2641 36.0207 71.1321L34.6287 67.3521L35.5047 67.1241V66.7521H32.9487V67.1241L33.5007 67.3521L35.6127 72.6081H36.2487ZM41.8566 72.5841C43.6446 72.5841 44.2086 70.9161 44.2086 70.9161L43.9686 70.7721C43.9686 70.7721 43.3206 71.6721 42.3006 71.6721C41.0526 71.6721 40.2006 70.7481 40.2006 69.2601V69.1401H44.1726C44.1726 67.4961 43.3926 66.5961 42.0606 66.5961C40.3806 66.5961 39.2286 68.0001 39.2286 69.7881C39.2286 70.8201 39.8646 72.5841 41.8566 72.5841ZM41.7966 67.1241C42.5886 67.1241 42.9606 67.8561 42.9726 68.6721H40.2606C40.4406 67.7841 41.0406 67.1241 41.7966 67.1241ZM49.6084 67.4121L48.0484 71.5521H48.0124L46.5244 67.3521L47.4004 67.1241V66.7521H44.7964V67.1241L45.3604 67.3521L47.4844 72.9321L46.7764 74.5881H46.7524C46.6204 74.3361 46.4524 74.1561 46.1644 74.1561C45.8284 74.1561 45.5644 74.3721 45.5644 74.7561C45.5644 75.1521 45.9124 75.4281 46.3084 75.4281C46.9204 75.4281 47.2084 74.9601 47.5804 74.0121L50.2444 67.3641L50.7964 67.1241V66.7521H48.7804V67.1121L49.6084 67.4121ZM53.3558 75.2721H56.2238V74.9001L55.1318 74.5761V72.4641C55.3718 72.5361 55.6358 72.5841 55.9118 72.5841C57.5318 72.5841 59.1158 71.1801 59.1158 69.3201C59.1158 67.3641 58.0598 66.5961 56.8718 66.5961C55.9358 66.5961 55.3118 67.2561 55.0718 67.5561L54.8438 66.5961H54.7838L53.3078 67.1721V67.4961L54.1118 67.6881V74.6001L53.3558 74.8641V75.2721ZM56.3438 67.3761C57.3758 67.3761 58.0838 68.2761 58.0838 69.6561C58.0838 71.2401 57.1838 72.0561 56.3078 72.0561C55.5998 72.0561 55.2398 71.7441 55.1318 71.6361V67.8801C55.3598 67.6761 55.7918 67.3761 56.3438 67.3761ZM59.8986 72.3921H62.4906V71.9841L61.6746 71.7441V63.4401L59.8866 63.8601V64.2441L60.6546 64.4721V71.7321L59.8986 71.9841V72.3921ZM64.8129 72.5721C65.5689 72.5721 65.8569 72.2361 66.5289 71.6001H66.5649C66.5649 72.1161 66.8169 72.5361 67.4289 72.5361C67.8729 72.5361 68.5689 72.2361 68.5689 72.2361V71.9001H67.9689C67.6329 71.9001 67.5729 71.8161 67.5729 71.5761V68.3361C67.5729 67.1481 67.0449 66.5961 65.8329 66.5961C64.5969 66.5961 63.5409 67.4721 63.5409 68.0241C63.5409 68.3481 63.7329 68.5401 64.1169 68.5401C64.2969 68.5401 64.5969 68.5041 64.5969 68.5041L64.6449 67.3161C64.7409 67.2561 65.0409 67.1001 65.4009 67.1001C66.0369 67.1001 66.5169 67.5801 66.5409 68.5041V69.1281L65.3049 69.4521C64.0689 69.7761 63.3729 70.2081 63.3729 71.1681C63.3729 72.1281 64.1769 72.5721 64.8129 72.5721ZM65.4489 71.7561C64.9329 71.7561 64.4649 71.4441 64.4649 70.8321C64.4649 70.3281 64.8249 70.1001 65.3889 69.9081L66.5409 69.5241V71.1081C66.3969 71.3241 66.0249 71.7561 65.4489 71.7561ZM73.4326 67.4121L71.8726 71.5521H71.8366L70.3486 67.3521L71.2246 67.1241V66.7521H68.6206V67.1241L69.1846 67.3521L71.3086 72.9321L70.6006 74.5881H70.5766C70.4446 74.3361 70.2766 74.1561 69.9886 74.1561C69.6526 74.1561 69.3886 74.3721 69.3886 74.7561C69.3886 75.1521 69.7366 75.4281 70.1326 75.4281C70.7446 75.4281 71.0326 74.9601 71.4046 74.0121L74.0686 67.3641L74.6206 67.1241V66.7521H72.6046V67.1121L73.4326 67.4121ZM35.7407 88.9961C36.3047 89.3681 37.2167 89.6201 37.9967 89.6201C39.3407 89.6201 40.8647 88.6361 40.8647 87.1361C40.8647 86.2481 40.4447 85.5761 39.2687 85.0481L37.8407 84.4001C37.2047 84.1121 36.8207 83.7401 36.8207 83.0321C36.8207 82.3361 37.4207 81.6881 38.3567 81.6881C38.9687 81.6881 39.3407 81.9761 39.4127 82.0241L40.0367 83.6561H40.4447L40.3727 81.6761C40.0007 81.4481 39.2687 81.1841 38.5127 81.1841C36.8687 81.1841 35.6927 82.1921 35.6927 83.4881C35.6927 84.4961 36.2687 85.0961 37.3247 85.5521L38.5487 86.0681C39.4127 86.4281 39.7007 86.9801 39.7007 87.5921C39.7007 88.5041 39.0167 89.0801 38.0927 89.0801C37.3847 89.0801 36.9527 88.8041 36.7007 88.6001L36.0407 86.8721H35.5847L35.7407 88.9961ZM41.5199 92.2721H44.3879V91.9001L43.2959 91.5761V89.4641C43.5359 89.5361 43.7999 89.5841 44.0759 89.5841C45.6959 89.5841 47.2799 88.1801 47.2799 86.3201C47.2799 84.3641 46.2239 83.5961 45.0359 83.5961C44.0999 83.5961 43.4759 84.2561 43.2359 84.5561L43.0079 83.5961H42.9479L41.4719 84.1721V84.4961L42.2759 84.6881V91.6001L41.5199 91.8641V92.2721ZM44.5079 84.3761C45.5399 84.3761 46.2479 85.2761 46.2479 86.6561C46.2479 88.2401 45.3479 89.0561 44.4719 89.0561C43.7639 89.0561 43.4039 88.7441 43.2959 88.6361V84.8801C43.5239 84.6761 43.9559 84.3761 44.5079 84.3761ZM49.7426 89.5721C50.4986 89.5721 50.7866 89.2361 51.4586 88.6001H51.4946C51.4946 89.1161 51.7466 89.5361 52.3586 89.5361C52.8026 89.5361 53.4986 89.2361 53.4986 89.2361V88.9001H52.8986C52.5626 88.9001 52.5026 88.8161 52.5026 88.5761V85.3361C52.5026 84.1481 51.9746 83.5961 50.7626 83.5961C49.5266 83.5961 48.4706 84.4721 48.4706 85.0241C48.4706 85.3481 48.6626 85.5401 49.0466 85.5401C49.2266 85.5401 49.5266 85.5041 49.5266 85.5041L49.5746 84.3161C49.6706 84.2561 49.9706 84.1001 50.3306 84.1001C50.9666 84.1001 51.4466 84.5801 51.4706 85.5041V86.1281L50.2346 86.4521C48.9986 86.7761 48.3026 87.2081 48.3026 88.1681C48.3026 89.1281 49.1066 89.5721 49.7426 89.5721ZM50.3786 88.7561C49.8626 88.7561 49.3946 88.4441 49.3946 87.8321C49.3946 87.3281 49.7546 87.1001 50.3186 86.9081L51.4706 86.5241V88.1081C51.3266 88.3241 50.9546 88.7561 50.3786 88.7561ZM57.1101 81.1361L58.1901 81.3281V83.7161C57.9381 83.6561 57.6021 83.5961 57.1581 83.5961C55.4421 83.5961 54.1701 84.9281 54.1701 86.8841C54.1701 88.1921 54.9021 89.5841 56.5941 89.5841C57.3381 89.5841 57.8301 89.1881 58.2861 88.7441L58.5741 89.5601L60.1821 89.3321V88.9361L59.2101 88.6961V80.4401L57.1101 80.7641V81.1361ZM57.1941 88.7681C55.6461 88.7681 55.1781 87.4481 55.1781 86.2721C55.1781 84.8801 55.9461 84.1001 56.8821 84.1001C57.7341 84.1001 58.1901 84.8921 58.1901 84.8921V88.4561C57.9381 88.6241 57.6021 88.7681 57.1941 88.7681ZM63.5832 89.5841C65.3712 89.5841 65.9352 87.9161 65.9352 87.9161L65.6952 87.7721C65.6952 87.7721 65.0472 88.6721 64.0272 88.6721C62.7792 88.6721 61.9272 87.7481 61.9272 86.2601V86.1401H65.8992C65.8992 84.4961 65.1192 83.5961 63.7872 83.5961C62.1072 83.5961 60.9552 85.0001 60.9552 86.7881C60.9552 87.8201 61.5912 89.5841 63.5832 89.5841ZM63.5232 84.1241C64.3152 84.1241 64.6872 84.8561 64.6992 85.6721H61.9872C62.1672 84.7841 62.7672 84.1241 63.5232 84.1241ZM68.7803 89.6201C69.9443 89.6201 71.0483 88.8401 71.0483 87.8441C71.0483 87.1961 70.7003 86.6681 69.6323 86.2001L69.1163 85.9721C68.3963 85.6481 68.1443 85.3481 68.1443 84.8681C68.1443 84.4121 68.4803 84.0401 69.0563 84.0401C69.4763 84.0401 69.7163 84.2201 69.8603 84.3401L70.3523 85.3841H70.7123L70.6523 83.9561C70.1843 83.7041 69.6803 83.5721 69.2363 83.5721C68.1443 83.5721 67.1723 84.3161 67.1723 85.2401C67.1723 86.0081 67.5803 86.4401 68.4083 86.8121L68.8883 87.0281C69.8003 87.4361 70.0523 87.7961 70.0523 88.2401C70.0523 88.7921 69.6323 89.1521 69.0203 89.1521C68.4683 89.1521 68.2163 88.9481 68.0363 88.7921L67.4243 87.4721H67.0283L67.2203 89.1521C67.6163 89.3921 68.1683 89.6201 68.7803 89.6201ZM73.04 89.4401C73.496 89.4401 73.88 89.0561 73.88 88.6001C73.88 88.1561 73.496 87.7721 73.04 87.7721C72.596 87.7721 72.212 88.1561 72.212 88.6001C72.212 89.0561 72.596 89.4401 73.04 89.4401Z" fill="black"/>
<path d="M160.521 4.59497C160.521 4.59497 103.021 48.7463 103.021 96.0545C103.021 109.987 114.466 121.283 128.575 121.283C141.131 121.283 151.554 112.333 153.701 100.546C152.877 110.647 150.183 128.335 141.353 137.053H160.521H179.688C170.858 128.335 168.162 110.647 167.34 100.546C169.489 112.333 179.912 121.283 192.466 121.283C206.577 121.283 218.021 109.987 218.021 96.0545C218.02 48.7463 160.521 4.59497 160.521 4.59497Z" fill="black"/>
<mask id="mask0" mask-type="alpha" maskUnits="userSpaceOnUse" x="102" y="3" width="117" height="136">
<path d="M160.499 3.89209C160.499 3.89209 102.85 48.8908 102.85 97.1071C102.85 111.307 114.325 122.819 128.47 122.819C141.059 122.819 151.509 113.698 153.662 101.685C152.836 111.98 150.135 130.007 141.282 138.892H160.499H179.717C170.863 130.007 168.16 111.98 167.337 101.685C169.491 113.698 179.941 122.819 192.528 122.819C206.675 122.819 218.15 111.307 218.15 97.1071C218.148 48.8908 160.499 3.89209 160.499 3.89209Z" fill="#85267A"/>
</mask>
<g mask="url(#mask0)">
<rect x="63.4314" y="3.89209" width="168.515" height="39" fill="#999999"/>
</g>
<line x1="197.281" y1="42.9604" x2="88.6983" y2="42.9604" stroke="black" stroke-width="2" stroke-dasharray="2 2"/>
</svg>
