<svg width="371" height="520" viewBox="0 0 371 520" fill="none" xmlns="http://www.w3.org/2000/svg">
<path d="M682.544 428.906C604.252 230.288 438.669 115.026 254.231 135.913C254.276 135.243 254.276 134.571 254.231 133.901C458.29 79.5758 654.405 187.268 772.993 411.756C742.554 415.816 712.359 421.541 682.544 428.906V428.906ZM540.507 476.812C522.513 300.614 407.084 173.088 253.369 138.596C253.573 138.034 253.733 137.458 253.848 136.871C426.131 137.638 571.996 257.69 625.021 444.811C596.287 453.998 568.074 464.745 540.507 477.003V476.812ZM423.738 543.88C440.87 370.748 375.881 230.863 251.455 141.47C251.455 140.8 252.316 140.129 252.604 139.554C394.354 195.604 490.162 328.016 490.258 500.956C466.977 513.72 444.735 528.296 423.738 544.551V543.88ZM176.608 763.385C340.563 627.332 399.14 434.367 322.761 265.163C323.284 264.84 323.766 264.454 324.197 264.014C439.052 442.224 396.555 661.633 220.636 844.825C207.464 816.89 192.766 789.702 176.608 763.385ZM86.9251 642.95C248.871 571.761 334.055 422.007 319.985 265.163H321.804C373.68 429.481 304.48 605.296 143.587 714.042C126.012 689.448 107.096 665.842 86.9251 643.333V642.95ZM-13.6688 553.27C156.317 514.945 268.875 409.552 316.157 264.397L318.645 264.876C308.5 416.834 212.309 549.054 48.1615 603.188C28.9143 585.04 8.23734 568.475 -13.6688 553.653V553.27ZM-297.744 385.216C-118.091 499.615 83.7666 495.399 221.401 370.077C221.765 370.569 222.182 371.019 222.645 371.419C88.6478 535.544 -133.31 563.713 -360.531 451.997C-338.371 430.93 -317.408 408.634 -297.744 385.216V385.216ZM-211.602 262.481C-93.3974 394.222 74.8653 429.385 219.678 367.874C219.86 368.433 220.085 368.977 220.348 369.503C80.0338 469.913 -108.616 458.799 -261.277 338.843C-243.207 314.326 -226.496 288.833 -211.22 262.481H-211.602ZM-145.657 124.224C-70.6179 281.356 57.0628 367.299 209.246 381.766C209.15 382.402 209.15 383.048 209.246 383.683C58.6899 407.827 -91.4832 343.921 -180.974 195.7C-167.258 172.828 -155.322 148.932 -145.274 124.224H-145.657ZM-85.7405 -183.332C-137.808 23.8133 -72.1493 214.192 89.4136 306.267C88.9956 306.802 88.7014 307.424 88.5522 308.087C-108.52 231.438 -203.084 29.2746 -168.915 -222.423C-141.811 -207.846 -113.915 -194.796 -85.3576 -183.332H-85.7405ZM57.8284 -138.779C-30.8015 14.5195 -12.5203 185.64 91.4236 304.255L89.9878 305.309C-48.4126 202.982 -95.6946 20.3641 -29.3658 -162.732C-0.586617 -153.197 28.679 -145.202 58.307 -138.779H57.8284ZM191.826 -124.791C76.588 6.47132 47.8743 157.088 94.9649 303.488L92.955 304.255C11.3122 174.909 11.5992 11.9326 113.055 -128.815C139.386 -125.362 165.951 -124.016 192.496 -124.791H191.826ZM520.886 -156.409C308.308 -142.612 147.607 -20.8351 109.992 161.399C109.326 161.299 108.648 161.299 107.982 161.399C120.042 -49.9619 282.944 -202.686 532.371 -247.239C526.868 -217.198 523.034 -186.875 520.886 -156.409V-156.409ZM523.087 -6.17583C349.943 -43.0634 193.262 27.3583 112.672 162.549C112.205 162.19 111.689 161.9 111.14 161.687C165.601 -1.96014 324.579 -103.617 518.685 -97.0055C518.441 -66.702 519.911 -36.4089 523.087 -6.27166V-6.17583ZM551.801 125.949C391.961 56.4851 239.108 75.6475 115.447 165.232C115.044 164.569 114.562 163.958 114.012 163.411C211.447 46.2332 366.597 -4.06796 531.414 48.4369C536.023 74.732 542.712 100.619 551.418 125.853L551.801 125.949Z" fill="#F2E9DD"/>
</svg>
