<svg viewBox="0 0 312 192" fill="none" xmlns="http://www.w3.org/2000/svg">
<path d="M221.386 107.552C216.653 107.552 212.816 103.715 212.816 98.9818C212.816 94.2484 216.653 90.4113 221.386 90.4113C226.119 90.4113 229.957 94.2484 229.957 98.9818C229.957 103.715 226.119 107.552 221.386 107.552Z" stroke="#029C54" stroke-width="1.5"/>
<path d="M221.386 102.473C219.458 102.473 217.894 100.91 217.894 98.9817C217.894 97.0532 219.458 95.49 221.386 95.49C223.314 95.49 224.878 97.0532 224.878 98.9817C224.878 100.91 223.314 102.473 221.386 102.473Z" stroke="#029C54" stroke-width="1.5"/>
<path d="M216.904 126.232C212.317 125.063 209.546 120.398 210.714 115.811C211.883 111.224 216.548 108.453 221.135 109.621C225.722 110.79 228.493 115.456 227.325 120.042C226.156 124.629 221.49 127.4 216.904 126.232Z" stroke="#029C54" stroke-width="1.5"/>
<path d="M218.157 121.31C216.289 120.834 215.16 118.933 215.636 117.064C216.112 115.196 218.013 114.067 219.881 114.543C221.75 115.019 222.879 116.92 222.403 118.788C221.927 120.657 220.026 121.786 218.157 121.31Z" stroke="#029C54" stroke-width="1.5"/>
<path d="M207.895 143.213C203.742 140.942 202.216 135.734 204.487 131.581C206.758 127.428 211.966 125.903 216.119 128.174C220.272 130.445 221.797 135.652 219.526 139.805C217.255 143.958 212.048 145.484 207.895 143.213Z" stroke="#04AADC" stroke-width="1.5"/>
<path d="M210.331 138.757C208.639 137.832 208.018 135.71 208.943 134.018C209.868 132.326 211.99 131.704 213.682 132.63C215.374 133.555 215.995 135.676 215.07 137.368C214.145 139.06 212.023 139.682 210.331 138.757Z" stroke="#04AADC" stroke-width="1.5"/>
<path d="M194.84 157.523C191.385 154.287 191.208 148.863 194.444 145.409C197.68 141.954 203.103 141.777 206.558 145.012C210.012 148.248 210.19 153.672 206.954 157.126C203.718 160.581 198.295 160.758 194.84 157.523Z" stroke="#04AADC" stroke-width="1.5"/>
<path d="M198.312 153.816C196.905 152.498 196.832 150.288 198.151 148.88C199.469 147.473 201.679 147.401 203.086 148.719C204.493 150.037 204.566 152.247 203.247 153.654C201.929 155.062 199.72 155.134 198.312 153.816Z" stroke="#04AADC" stroke-width="1.5"/>
<path d="M178.69 168.112C176.149 164.119 177.326 158.822 181.32 156.281C185.313 153.74 190.611 154.917 193.152 158.911C195.693 162.904 194.515 168.201 190.522 170.742C186.528 173.283 181.231 172.106 178.69 168.112Z" stroke="#04AADC" stroke-width="1.5"/>
<path d="M182.975 165.386C181.94 163.759 182.419 161.601 184.046 160.565C185.673 159.53 187.832 160.01 188.867 161.637C189.902 163.264 189.422 165.422 187.795 166.457C186.168 167.493 184.01 167.013 182.975 165.386Z" stroke="#04AADC" stroke-width="1.5"/>
<path d="M160.46 174.352C158.982 169.855 161.429 165.012 165.925 163.534C170.422 162.055 175.265 164.502 176.744 168.999C178.222 173.496 175.775 178.339 171.278 179.817C166.781 181.295 161.938 178.848 160.46 174.352Z" stroke="#FE2B4C" stroke-width="1.5"/>
<path d="M165.285 172.766C164.682 170.934 165.679 168.961 167.511 168.358C169.343 167.756 171.317 168.753 171.919 170.585C172.521 172.417 171.524 174.39 169.692 174.992C167.86 175.595 165.887 174.598 165.285 172.766Z" stroke="#FE2B4C" stroke-width="1.5"/>
<path d="M141.215 175.814C140.905 171.09 144.482 167.01 149.205 166.7C153.929 166.39 158.009 169.967 158.319 174.69C158.629 179.413 155.052 183.494 150.329 183.804C145.606 184.114 141.525 180.537 141.215 175.814Z" stroke="#FE2B4C" stroke-width="1.5"/>
<path d="M146.283 175.481C146.157 173.557 147.614 171.894 149.538 171.768C151.463 171.641 153.125 173.099 153.251 175.023C153.378 176.947 151.92 178.61 149.996 178.736C148.072 178.863 146.409 177.405 146.283 175.481Z" stroke="#FE2B4C" stroke-width="1.5"/>
<path d="M121.934 172.398C122.821 167.749 127.309 164.698 131.958 165.585C136.608 166.472 139.658 170.96 138.771 175.61C137.884 180.259 133.396 183.31 128.747 182.423C124.097 181.536 121.047 177.048 121.934 172.398Z" stroke="#FE2B4C" stroke-width="1.5"/>
<path d="M126.923 173.35C127.284 171.456 129.113 170.213 131.007 170.574C132.901 170.936 134.144 172.764 133.783 174.658C133.421 176.553 131.593 177.795 129.698 177.434C127.804 177.073 126.561 175.244 126.923 173.35Z" stroke="#FE2B4C" stroke-width="1.5"/>
<path d="M104.423 164.366C106.444 160.086 111.552 158.254 115.832 160.275C120.112 162.296 121.944 167.404 119.923 171.685C117.902 175.965 112.794 177.796 108.514 175.775C104.233 173.754 102.402 168.646 104.423 164.366Z" stroke="#FE2B4C" stroke-width="1.5"/>
<path d="M109.016 166.535C109.839 164.791 111.92 164.045 113.664 164.868C115.408 165.691 116.154 167.772 115.33 169.516C114.507 171.26 112.426 172.006 110.682 171.183C108.938 170.36 108.192 168.278 109.016 166.535Z" stroke="#FE2B4C" stroke-width="1.5"/>
<path d="M89.4538 152.2C92.4832 148.563 97.8874 148.071 101.524 151.1C105.161 154.129 105.654 159.534 102.624 163.17C99.595 166.807 94.1908 167.3 90.5539 164.271C86.9169 161.241 86.4244 155.837 89.4538 152.2Z" stroke="#FE2B4C" stroke-width="1.5"/>
<path d="M93.3563 155.451C94.5905 153.969 96.7922 153.768 98.2739 155.002C99.7556 156.237 99.9563 158.438 98.7221 159.92C97.4879 161.402 95.2862 161.602 93.8045 160.368C92.3227 159.134 92.1221 156.932 93.3563 155.451Z" stroke="#FE2B4C" stroke-width="1.5"/>
<path d="M77.946 136.71C81.7839 133.939 87.141 134.805 89.9114 138.642C92.6818 142.48 91.8164 147.838 87.9785 150.608C84.1405 153.378 78.7834 152.513 76.0131 148.675C73.2427 144.837 74.1081 139.48 77.946 136.71Z" stroke="#FE2B4C" stroke-width="1.5"/>
<path d="M80.9186 140.828C82.4822 139.699 84.6647 140.052 85.7934 141.615C86.9221 143.179 86.5695 145.361 85.0059 146.49C83.4423 147.619 81.2598 147.266 80.1311 145.702C79.0025 144.139 79.355 141.956 80.9186 140.828Z" stroke="#FE2B4C" stroke-width="1.5"/>
<path d="M70.6666 118.891C75.0728 117.162 80.0465 119.332 81.7757 123.739C83.5048 128.145 81.3346 133.119 76.9284 134.848C72.5221 136.577 67.5485 134.407 65.8193 130C64.0902 125.594 66.2604 120.621 70.6666 118.891Z" stroke="#FE2B4C" stroke-width="1.5"/>
<path d="M72.522 123.619C74.3171 122.915 76.3434 123.799 77.0479 125.594C77.7524 127.389 76.8682 129.416 75.0731 130.12C73.2779 130.825 71.2516 129.94 70.5472 128.145C69.8427 126.35 70.7269 124.324 72.522 123.619Z" stroke="#FE2B4C" stroke-width="1.5"/>
<path d="M68.0757 99.9458C72.7731 99.3636 77.0531 102.7 77.6354 107.397C78.2176 112.094 74.8816 116.374 70.1841 116.957C65.4867 117.539 61.2067 114.203 60.6245 109.505C60.0423 104.808 63.3783 100.528 68.0757 99.9458Z" stroke="#FE2B4C" stroke-width="1.5"/>
<path d="M68.7004 104.986C70.6142 104.749 72.3579 106.108 72.5951 108.022C72.8323 109.936 71.4732 111.679 69.5594 111.917C67.6457 112.154 65.902 110.795 65.6648 108.881C65.4276 106.967 66.7867 105.223 68.7004 104.986Z" stroke="#FE2B4C" stroke-width="1.5"/>
<path d="M70.3255 80.4188C75.0183 81.0371 78.3213 85.3426 77.703 90.0354C77.0847 94.7282 72.7792 98.0313 68.0864 97.413C63.3936 96.7947 60.0906 92.4892 60.7089 87.7964C61.3272 83.1036 65.6327 79.8005 70.3255 80.4188Z" stroke="#FE2B4C" stroke-width="1.5"/>
<path d="M69.662 85.4542C71.5739 85.7061 72.9196 87.4602 72.6677 89.3721C72.4158 91.284 70.6617 92.6297 68.7498 92.3778C66.8379 92.1259 65.4923 90.3718 65.7442 88.4599C65.9961 86.548 67.7501 85.2023 69.662 85.4542Z" stroke="#FE2B4C" stroke-width="1.5"/>
<path d="M77.3401 62.3429C81.7266 64.1215 83.8408 69.1192 82.0623 73.5057C80.2838 77.8923 75.2861 80.0065 70.8995 78.228C66.513 76.4495 64.3988 71.4517 66.1773 67.0652C67.9558 62.6787 72.9536 60.5644 77.3401 62.3429Z" stroke="#FE2B4C" stroke-width="1.5"/>
<path d="M75.4317 67.0497C77.2188 67.7743 78.0802 69.8104 77.3556 71.5975C76.631 73.3846 74.5949 74.246 72.8078 73.5214C71.0207 72.7968 70.1594 70.7607 70.8839 68.9736C71.6085 67.1865 73.6446 66.3251 75.4317 67.0497Z" stroke="#FE2B4C" stroke-width="1.5"/>
<path d="M88.5301 46.7595C92.3374 49.5717 93.1441 54.938 90.3318 58.7453C87.5195 62.5527 82.1533 63.3593 78.3459 60.547C74.5386 57.7348 73.7319 52.3685 76.5442 48.5612C79.3565 44.7538 84.7228 43.9472 88.5301 46.7595Z" stroke="#FE2B4C" stroke-width="1.5"/>
<path d="M85.5125 50.8447C87.0636 51.9905 87.3923 54.1767 86.2465 55.7279C85.1008 57.279 82.9145 57.6077 81.3634 56.4619C79.8123 55.3162 79.4836 53.1299 80.6294 51.5788C81.7751 50.0276 83.9614 49.699 85.5125 50.8447Z" stroke="#FE2B4C" stroke-width="1.5"/>
<path d="M102.989 34.5705C105.992 38.2294 105.46 43.6298 101.802 46.6327C98.1426 49.6355 92.7422 49.1037 89.7394 45.4447C86.7365 41.7858 87.2684 36.3854 90.9273 33.3826C94.5862 30.3797 99.9866 30.9116 102.989 34.5705Z" stroke="#FE2B4C" stroke-width="1.5"/>
<path d="M99.0634 37.7926C100.287 39.2832 100.07 41.4834 98.5795 42.7068C97.0888 43.9302 94.8886 43.7135 93.6652 42.2228C92.4419 40.7321 92.6585 38.532 94.1492 37.3086C95.6399 36.0852 97.84 36.3019 99.0634 37.7926Z" stroke="#FE2B4C" stroke-width="1.5"/>
<path d="M120.597 26.0322C122.586 30.3273 120.717 35.4217 116.422 37.4107C112.126 39.3998 107.032 37.5303 105.043 33.2352C103.054 28.94 104.923 23.8457 109.218 21.8566C113.514 19.8675 118.608 21.737 120.597 26.0322Z" stroke="#FE2B4C" stroke-width="1.5"/>
<path d="M115.988 28.1664C116.799 29.9163 116.037 31.9918 114.287 32.8021C112.537 33.6125 110.462 32.8509 109.651 31.101C108.841 29.3511 109.603 27.2756 111.353 26.4653C113.102 25.6549 115.178 26.4166 115.988 28.1664Z" stroke="#FE2B4C" stroke-width="1.5"/>
<path d="M139.466 22.2885C140.318 26.9447 137.233 31.4094 132.577 32.2606C127.921 33.1119 123.456 30.0274 122.605 25.3712C121.754 20.715 124.838 16.2504 129.494 15.3991C134.15 14.5478 138.615 17.6323 139.466 22.2885Z" stroke="#FE2B4C" stroke-width="1.5"/>
<path d="M134.47 23.2019C134.817 25.0989 133.56 26.9178 131.663 27.2646C129.766 27.6114 127.948 26.3548 127.601 24.4578C127.254 22.5609 128.511 20.7419 130.408 20.3951C132.304 20.0483 134.123 21.305 134.47 23.2019Z" stroke="#FE2B4C" stroke-width="1.5"/>
<path d="M159.166 23.3966C158.82 28.1172 154.712 31.6631 149.991 31.3165C145.27 30.9699 141.725 26.862 142.071 22.1414C142.418 17.4207 146.526 13.8749 151.246 14.2215C155.967 14.5681 159.513 18.6759 159.166 23.3966Z" stroke="#FE2B4C" stroke-width="1.5"/>
<path d="M154.101 23.0246C153.96 24.9479 152.286 26.3925 150.363 26.2513C148.44 26.1101 146.995 24.4365 147.136 22.5133C147.277 20.59 148.951 19.1454 150.874 19.2866C152.797 19.4279 154.242 21.1014 154.101 23.0246Z" stroke="#FE2B4C" stroke-width="1.5"/>
<path d="M177.462 29.27C175.95 33.7554 171.089 36.1659 166.603 34.6539C162.118 33.1419 159.707 28.2801 161.219 23.7947C162.731 19.3093 167.593 16.8989 172.079 18.4109C176.564 19.9228 178.974 24.7847 177.462 29.27Z" stroke="#85267A" stroke-width="1.5"/>
<path d="M172.65 27.6477C172.034 29.4751 170.053 30.4571 168.225 29.8411C166.398 29.2251 165.416 27.2444 166.032 25.417C166.648 23.5896 168.629 22.6076 170.456 23.2236C172.283 23.8396 173.266 25.8203 172.65 27.6477Z" stroke="#85267A" stroke-width="1.5"/>
<path d="M193.792 39.5767C191.207 43.542 185.897 44.6612 181.932 42.0764C177.967 39.4917 176.847 34.1818 179.432 30.2165C182.017 26.2512 187.327 25.132 191.292 27.7167C195.257 30.3015 196.377 35.6113 193.792 39.5767Z" stroke="#85267A" stroke-width="1.5"/>
<path d="M189.537 36.8032C188.484 38.4187 186.321 38.8747 184.705 37.8216C183.09 36.7686 182.634 34.6053 183.687 32.9898C184.74 31.3743 186.903 30.9183 188.519 31.9714C190.134 33.0244 190.59 35.1877 189.537 36.8032Z" stroke="#85267A" stroke-width="1.5"/>
<path d="M206.84 53.3435C203.362 56.5541 197.939 56.3372 194.729 52.8592C191.518 49.3811 191.735 43.9589 195.213 40.7483C198.691 37.5377 204.113 37.7546 207.324 41.2326C210.535 44.7107 210.318 50.1329 206.84 53.3435Z" stroke="#85267A" stroke-width="1.5"/>
<path d="M203.395 49.6115C201.978 50.9195 199.769 50.8312 198.461 49.4142C197.153 47.9972 197.241 45.7881 198.658 44.4801C200.075 43.1721 202.284 43.2605 203.592 44.6775C204.9 46.0944 204.812 48.3035 203.395 49.6115Z" stroke="#85267A" stroke-width="1.5"/>
<path d="M216.363 70.3731C212.194 72.6134 206.998 71.0492 204.757 66.8796C202.517 62.7099 204.081 57.5137 208.251 55.2734C212.421 53.0332 217.617 54.5973 219.857 58.767C222.097 62.9367 220.533 68.1329 216.363 70.3731Z" stroke="#85267A" stroke-width="1.5"/>
<path d="M213.96 65.8991C212.261 66.8117 210.144 66.1745 209.231 64.4757C208.319 62.777 208.956 60.66 210.655 59.7473C212.353 58.8346 214.47 59.4719 215.383 61.1706C216.296 62.8694 215.658 64.9864 213.96 65.8991Z" stroke="#85267A" stroke-width="1.5"/>
<path d="M221.204 88.883C216.609 90.0167 211.964 87.2102 210.83 82.6146C209.697 78.019 212.503 73.3745 217.099 72.2409C221.694 71.1072 226.339 73.9137 227.473 78.5093C228.606 83.1049 225.8 87.7494 221.204 88.883Z" stroke="#029C54" stroke-width="1.5"/>
<path d="M219.988 83.9519C218.115 84.4138 216.223 83.2704 215.761 81.3981C215.3 79.5258 216.443 77.6336 218.315 77.1718C220.187 76.7099 222.08 77.8533 222.542 79.7256C223.003 81.5979 221.86 83.49 219.988 83.9519Z" stroke="#029C54" stroke-width="1.5"/>
<path d="M184.913 18.9487C185.155 19.072 185.436 19.1956 185.534 19.2267C185.822 19.3351 186.005 19.3135 186.105 19.1165C186.221 18.8892 186.584 16.9378 187.108 15.9074C187.447 15.2407 187.949 15.2669 188.737 15.6677C189.797 16.2072 190.546 16.7217 190.88 16.8912C191.001 16.9529 191.123 16.9385 191.245 16.8481C191.589 16.5083 192.02 15.8499 192.235 15.4256C192.343 15.2134 192.192 15.0603 191.935 14.9293C190.768 14.3359 189.682 14.146 188.955 13.7761C188.47 13.5295 188.395 13.3009 188.696 12.7099C189.397 11.331 190.259 9.89999 190.731 9.75877C191.028 9.66197 191.362 9.75549 192.029 10.0946C192.983 10.5801 193.512 11.0399 193.792 11.3155C193.875 11.3769 193.966 11.4612 194.041 11.4997C194.117 11.5382 194.231 11.539 194.323 11.4712C194.705 11.1697 195.196 10.504 195.397 10.1101C195.474 9.95854 195.498 9.79904 195.248 9.65288C194.68 9.30686 193.862 8.85269 192.983 8.4057C192.059 7.93559 191.127 7.48064 190.369 7.17133C190.194 7.10171 189.981 7.10785 189.836 7.28172C188.471 8.91457 187.148 11.1407 186.115 13.1712C185.006 15.3532 184.232 17.2866 184.067 18.023C184.012 18.3571 184.163 18.5102 184.322 18.6101C184.405 18.6715 184.655 18.8177 184.913 18.9487Z" fill="#85267A"/>
<path d="M197.622 11.4404C195.823 13.4571 194.284 15.5399 193.045 17.4713C192.108 18.9306 191.349 20.302 190.766 21.4628C190.611 21.7673 190.769 21.9295 190.96 22.0724C191.161 22.2009 191.366 22.353 191.581 22.4907C191.809 22.6376 192.048 22.7702 192.205 22.8712C192.386 22.9671 192.532 22.9599 192.633 22.8025C192.752 22.6165 193.399 21.0113 193.793 20.3961C194.326 19.5663 194.886 19.4811 195.744 20.0321C196.96 20.8125 197.465 22.7325 196.323 25.1102C196.223 25.3289 196.268 25.479 196.516 25.6586C196.679 25.783 196.908 25.93 197.137 26.0769C197.394 26.2422 197.623 26.3891 197.761 26.4574C197.985 26.5808 198.187 26.549 198.325 26.3344C198.995 25.29 199.43 22.6605 198.373 20.6889C198.32 20.6144 198.328 20.5388 198.364 20.4816C198.401 20.4243 198.476 20.3712 198.575 20.3742C200.371 20.3759 201.932 19.8017 202.868 18.3424C204.301 16.1105 203.115 14.3392 200.868 12.8976C200.325 12.5487 198.691 11.601 198.173 11.3695C197.954 11.2696 197.779 11.2585 197.622 11.4404ZM195.547 17.3806C196.667 15.6351 198.135 13.7893 198.698 13.6663C198.98 13.6048 199.498 13.8363 200.042 14.1852C201.287 14.9841 201.809 16.0266 201.038 17.2283C199.918 18.9738 197.05 19.1935 195.505 18.2018C195.262 18.0457 195.226 17.8813 195.547 17.3806Z" fill="#85267A"/>
<path d="M200.999 29.0081C201.155 29.0847 201.253 29.096 201.378 28.9342C201.585 28.6645 202.677 26.4598 204.685 23.8438C206.973 20.8637 208.776 19.5477 209.056 19.1836C209.17 19.0352 209.16 18.9637 209.06 18.8436C208.854 18.6645 208.635 18.475 208.406 18.299C208.19 18.1334 207.978 17.9916 207.792 17.8705C207.586 17.7764 207.426 17.761 207.199 17.9727C206.619 18.449 204.863 20.1226 202.513 23.1836C201.178 24.9231 199.847 26.8803 199.591 27.52C199.497 27.7264 199.537 27.8425 199.664 27.9833C199.846 28.1655 200.089 28.3519 200.304 28.5175C200.547 28.7039 200.763 28.8695 200.999 29.0081Z" fill="#85267A"/>
<path d="M206.076 33.4374C206.918 34.2039 207.797 34.9807 208.599 35.6408C208.824 35.8227 209.04 35.8125 209.189 35.649C209.441 35.3724 210.038 34.5138 210.166 34.1708C210.231 34.0233 210.203 33.9283 210.115 33.8483C210.039 33.7796 209.966 33.759 209.806 33.6823C208.984 33.3481 207.793 32.5861 206.573 31.4764C205.793 30.7671 205.802 30.4538 207.198 28.9197C208.193 27.8257 208.942 27.8865 210.099 28.939C210.791 29.5682 211.176 30.3322 211.365 30.5038C211.465 30.5954 211.551 30.6274 211.751 30.5337C212.091 30.3371 212.674 29.9485 212.846 29.7599C213.086 29.4959 212.712 28.972 212.146 28.4572C211.241 27.6335 210.405 27.2638 209.965 26.8634C209.714 26.6346 209.705 26.4425 209.991 26.1281C210.768 25.2731 211.913 24.2923 212.464 24.2182C212.775 24.1794 213.07 24.3099 213.573 24.7675C214.654 25.7513 215.182 26.4845 215.483 26.9878C215.574 27.1399 215.64 27.2692 215.716 27.3378C215.804 27.4179 215.925 27.4362 216.043 27.3825C216.49 27.1688 217.272 26.6625 217.421 26.499C217.501 26.411 217.507 26.2784 217.342 26.1056C216.785 25.5062 215.764 24.5316 214.758 23.6164C213.928 22.8613 213.088 22.1429 212.651 21.8145C212.463 21.6669 212.247 21.6771 212.002 21.8452C209.592 23.5596 207.095 25.9761 205.059 28.2145C204.43 28.9061 203.847 29.5714 203.323 30.1979C203.061 30.5111 203.166 30.6987 203.432 30.963C204.126 31.6402 205.082 32.5336 206.076 33.4374Z" fill="#85267A"/>
<path d="M210.728 37.9465C210.895 38.1388 211.086 38.3328 211.211 38.4498C211.38 38.6182 211.533 38.6649 211.7 38.5198C211.944 38.3077 214.512 35.1476 218.276 32.1183C218.428 32.0083 218.575 31.9703 218.665 32.0729C218.709 32.1242 218.714 32.2329 218.654 32.3975C217.754 34.962 216.332 38.2737 214.649 41.7C214.471 42.013 214.475 42.1217 214.649 42.3988C214.737 42.5254 214.871 42.6792 215.016 42.8459C215.194 43.051 215.395 43.2818 215.52 43.3989C215.78 43.6458 215.959 43.6702 216.249 43.4854C217.449 42.6888 219.069 41.391 220.658 40.0068C222.505 38.3993 224.299 36.6798 225.312 35.4365C225.484 35.2194 225.46 35.037 225.317 34.8464C225.207 34.6942 225.041 34.4779 224.874 34.2855C224.695 34.0804 224.504 33.8864 224.368 33.7565C224.244 33.6395 224.076 33.6279 223.935 33.7507C223.46 34.1637 221.422 36.9749 217.563 40.335C217.448 40.4355 217.315 40.4383 217.248 40.3614C217.203 40.3101 217.184 40.2365 217.239 40.1439C219.411 36.0888 220.727 32.2155 221.123 30.4957C221.175 30.2703 221.15 30.112 221.051 29.9726C220.952 29.8332 220.809 29.6425 220.664 29.4759C220.519 29.3092 220.362 29.1297 220.214 29.011C220.032 28.8538 219.816 28.8389 219.594 28.9199C218.763 29.2601 216.593 30.8332 214.363 32.7755C212.901 34.0481 211.404 35.4869 210.263 36.8179C210.106 36.9998 210.13 37.1822 210.284 37.3857C210.394 37.5379 210.549 37.7413 210.728 37.9465Z" fill="#85267A"/>
<path d="M219.027 48.3445C221.311 51.725 224.045 51.6419 226.708 49.8429C231.229 46.7875 231.596 43.6262 229.216 40.1048C228.94 39.6963 228.622 39.2551 228.346 38.9079C228.237 38.7766 228.052 38.7164 227.803 38.8028C226.59 39.315 224.592 40.2752 221.662 42.255C218.732 44.2348 217.781 45.1036 217.505 45.5769C217.412 45.7425 217.432 45.8932 217.58 46.1422C217.737 46.4053 218.361 47.3585 219.027 48.3445ZM220.387 47.1384C220.253 46.9412 220.12 46.6827 220.184 46.4135C220.279 45.7952 221.504 44.9059 223.251 43.7256C225.336 42.3169 226.98 41.3494 227.617 41.4727C227.806 41.5093 227.995 41.6684 228.091 41.8092C229.328 43.6404 228.833 45.8831 225.776 47.9486C223.494 49.4906 221.738 49.1385 220.387 47.1384Z" fill="#85267A"/>
<path d="M102.684 106.132C102.736 105.671 102.765 105.149 102.755 104.973C102.755 104.448 102.611 104.169 102.236 104.127C101.804 104.079 98.4702 104.671 96.5103 104.453C95.2421 104.312 94.9829 103.495 95.1497 101.996C95.3743 99.9786 95.7461 98.4735 95.8167 97.8394C95.8424 97.6088 95.7463 97.4231 95.5286 97.2821C94.7793 96.9361 93.4695 96.6444 92.6625 96.5546C92.259 96.5097 92.1052 96.8427 92.0506 97.3327C91.8036 99.5519 92.1523 101.4 91.9983 102.783C91.8956 103.706 91.5753 103.962 90.4513 103.837C87.8285 103.545 85.0264 103.029 84.5173 102.359C84.1843 101.943 84.1332 101.353 84.2744 100.085C84.4765 98.2695 84.8931 97.1487 85.1654 96.537C85.2135 96.3673 85.2936 96.172 85.3096 96.0279C85.3257 95.8838 85.2584 95.7012 85.0951 95.5955C84.3843 95.1662 83.0265 94.7816 82.2771 94.6982C81.9889 94.6661 81.7199 94.7237 81.6365 95.2105C81.4249 96.3249 81.1908 97.9037 81.0047 99.5754C80.809 101.334 80.6421 103.095 80.6034 104.491C80.5969 104.811 80.7346 105.148 81.0996 105.276C84.5261 106.474 88.8749 107.25 92.7371 107.68C96.8875 108.142 100.439 108.217 101.714 108.037C102.281 107.925 102.434 107.592 102.498 107.279C102.547 107.109 102.63 106.622 102.684 106.132Z" fill="#FE2B4C"/>
<path d="M104.298 95.2747C104.507 94.7647 104.667 94.2974 104.745 93.9533C104.785 93.6251 104.657 93.4787 104.323 93.3739C103.652 93.0996 102.473 93.15 101.399 92.7111C99.3855 91.8882 99.3517 89.2114 100.394 86.6612C101.239 84.5942 102.256 83.9448 103.84 84.5922C105.478 85.2615 106.483 86.1738 107.181 86.459C107.476 86.5797 107.681 86.5382 107.883 86.2758C108.019 86.0183 108.222 85.5998 108.419 85.1166C108.584 84.714 108.721 84.3003 108.837 83.9404C108.959 83.4889 108.95 83.2034 108.57 82.9852C107.105 82.1987 105.758 81.5854 104.443 81.0478C97.705 78.2938 91.8767 77.76 86.0203 80.9742C85.7446 81.1122 85.6141 81.2781 85.5263 81.4929C85.4385 81.7076 85.4532 81.9016 85.5046 82.2359C87.2574 89.0615 92.7915 92.9212 98.6436 95.3131C100.066 95.8946 101.506 96.3578 102.93 96.7831C103.435 96.9269 103.63 96.7561 103.833 96.3375C104.002 95.9995 104.145 95.6505 104.298 95.2747ZM97.0597 90.3736C96.9828 90.5615 96.8047 90.6141 96.5631 90.5153C94.0935 89.5059 90.319 86.5533 89.2481 83.578C89.1479 83.2864 89.1113 83.1461 89.1662 83.0119C89.221 82.8777 89.3723 82.8142 89.5992 82.719C91.7974 81.863 95.7198 81.6178 98.4579 82.737C98.8337 82.8906 98.9887 83.0479 98.8619 83.4347C98.7132 83.8752 98.3474 84.5402 97.8427 85.7751C96.9589 88.0141 97.2681 89.8636 97.0597 90.3736Z" fill="#FE2B4C"/>
<path d="M112.303 78.2218C111.71 77.6673 108.53 76.4406 103.551 71.7864C101.963 70.301 100.518 68.8313 99.4068 67.5145C99.2995 67.3745 99.2953 67.2516 99.3745 67.1668C99.4538 67.0821 99.5965 67.0568 99.7421 67.1134C102.552 68.3115 107.77 70.3314 112.029 71.296C112.401 71.3656 112.685 71.274 112.844 71.1045C113.002 70.935 113.033 70.6467 112.94 70.3216C111.676 66.2811 109.592 62.2682 107.738 58.3911C107.693 58.2696 107.71 58.1664 107.789 58.0817C107.868 57.9969 107.991 57.9928 108.117 58.0706C109.439 58.9494 110.939 60.2326 112.21 61.4209C116.489 65.4216 119.196 69.6597 119.79 70.2143C120.001 70.4123 120.226 70.3842 120.485 70.1498C120.684 69.979 121.044 69.6797 121.38 69.3195C121.876 68.7899 122.368 68.1784 122.604 67.8832C122.821 67.6092 122.849 67.2389 122.55 66.8796C120.367 64.2037 118.153 61.816 115.886 59.6969C113.048 57.043 110.042 54.9077 107.088 53.0989C106.711 52.8654 106.364 52.9386 106.065 53.1744C105.707 53.5147 105.388 53.8127 105.111 54.1092C104.755 54.4906 104.418 54.8507 104.183 55.1869C103.95 55.564 103.963 55.9739 104.141 56.3783C105.201 59.2356 106.774 62.6912 108.717 66.7705C108.805 66.9317 108.81 67.0956 108.711 67.2015C108.612 67.3074 108.468 67.2918 108.26 67.2167C103.996 65.493 100.487 64.2364 97.4018 63.4169C96.9652 63.2469 96.681 63.3385 96.3402 63.5757C96.0206 63.8327 95.6033 64.2365 95.1676 64.7026C94.7715 65.1263 94.3768 65.5909 94.1603 65.8649C94.023 66.0542 93.9295 66.3241 94.2288 66.6834C96.8197 69.8995 99.4617 72.8063 102.11 75.2819C104.567 77.5793 107.033 79.5276 109.528 81.1056C109.779 81.2613 110.025 81.253 110.264 81.0398C110.623 80.7404 110.98 80.3591 111.336 79.9778C111.772 79.5118 112.048 79.1742 112.265 78.9002C112.44 78.6276 112.494 78.4 112.303 78.2218Z" fill="#FE2B4C"/>
<path d="M128.971 64.6219C129.189 64.4218 129.267 64.2722 129.087 63.9747C128.786 63.4789 125.955 60.38 123.036 55.5707C119.71 50.092 118.731 46.4116 118.325 45.7423C118.16 45.4696 118.04 45.4403 117.787 45.5262C117.375 45.7422 116.939 45.9732 116.517 46.229C116.121 46.4698 115.764 46.7203 115.457 46.9407C115.18 47.2107 115.056 47.455 115.253 47.9464C115.652 49.1628 117.228 52.9893 120.644 58.6168C122.585 61.8147 124.875 65.1402 125.735 65.9415C126.005 66.2187 126.214 66.2276 126.517 66.1116C126.919 65.9355 127.365 65.6646 127.761 65.4239C128.208 65.153 128.604 64.9122 128.971 64.6219Z" fill="#FE2B4C"/>
<path d="M138.571 55.9748C138.463 56.0168 138.339 56.0965 138.067 56.3578C137.121 57.286 135.863 58.2113 134.62 58.6951C133.593 59.0948 133.18 58.9132 132.528 57.2376C129.846 50.3461 128.498 41.8461 128.267 41.2515C128.172 41.0083 127.98 40.8342 127.564 40.9649C127.256 41.0536 126.705 41.2369 126.219 41.4262C125.624 41.6576 125.121 41.8845 124.861 42.0167C124.602 42.1489 124.486 42.4117 124.558 42.757C125.555 47.8771 127.512 54.024 129.474 58.9862C129.968 60.2564 130.469 61.462 130.943 62.522C131.223 63.1601 131.589 63.142 132.194 62.9376C133.432 62.5184 135.199 61.8618 137.009 61.1571C138.09 60.7364 139.188 60.2781 140.113 59.8559C140.67 59.608 140.841 59.168 140.662 58.7086C140.431 58.114 139.498 56.5166 139.055 56.0978C138.9 55.9402 138.733 55.9117 138.571 55.9748Z" fill="#FE2B4C"/>
<path d="M147.42 58.6999C147.91 58.6445 148.429 58.5858 148.8 58.5146C149.229 58.4368 149.459 58.1481 149.414 57.7447C149.368 57.3413 149.097 56.4964 148.993 55.5743C148.641 52.4621 149.712 50.0644 150.859 47.5705C152.272 44.5797 153.784 41.4317 153.245 36.6771C153.167 35.9855 153.029 35.7968 152.417 35.8077C152.068 35.818 151.518 35.8512 150.999 35.9099C150.595 35.9555 150.25 35.9947 149.994 36.0528C149.654 36.1496 149.466 36.2877 149.515 36.7199C149.55 37.0369 149.673 37.6067 149.771 38.4712C150.143 41.7562 148.88 46.0726 147.686 47.6379C147.507 47.8624 147.315 47.9717 147.085 47.9978C146.854 48.0239 146.607 47.9059 146.29 47.6792C144.872 46.7598 142.706 44.3784 142.236 40.2289C142.122 39.2203 142.126 38.2275 142.113 37.8496C142.054 37.3309 141.993 37.046 141.234 37.0444C140.884 37.0547 140.478 37.0716 140.046 37.1205C139.613 37.1694 139.184 37.2472 138.813 37.3184C138.33 37.4315 138.176 37.6239 138.251 38.2867C139.165 46.3552 143.202 49.021 144.912 50.4618C145.329 50.794 145.592 51.0561 145.628 51.3731C145.644 51.5171 145.638 51.7221 145.571 51.9048C145.292 53.0455 144.479 54.8886 144.779 57.5397C144.877 58.4041 145.051 58.9098 145.832 58.8505C146.297 58.8272 146.844 58.7652 147.42 58.6999Z" fill="#FE2B4C"/>
<path d="M247.908 70.5347C247.891 70.4815 247.856 70.4192 247.737 70.2811C247.316 69.7999 246.904 69.1682 246.705 68.5558C246.54 68.0499 246.639 67.8558 247.464 67.5873C250.859 66.4831 254.993 66.0662 255.286 65.9709C255.406 65.9319 255.495 65.844 255.443 65.64C255.409 65.4892 255.336 65.2186 255.258 64.979C255.163 64.6861 255.067 64.4375 255.01 64.3087C254.954 64.1799 254.83 64.117 254.662 64.1423C252.167 64.4827 249.151 65.2576 246.705 66.0676C246.079 66.2712 245.485 66.4793 244.961 66.6791C244.646 66.7964 244.644 66.9735 244.726 67.2707C244.895 67.8785 245.163 68.7482 245.453 69.6402C245.626 70.1727 245.817 70.7142 245.995 71.1716C246.099 71.4468 246.307 71.5413 246.533 71.4677C246.826 71.3724 247.621 70.9665 247.835 70.7644C247.916 70.6942 247.934 70.6146 247.908 70.5347Z" fill="#029C54"/>
<path d="M247.224 76.0814C247.444 76.9931 247.685 77.9287 247.927 78.7488C247.996 78.9769 248.148 79.0697 248.325 79.0269C248.625 78.9545 249.428 78.6448 249.674 78.4701C249.787 78.3996 249.811 78.3217 249.788 78.2265C249.768 78.1448 249.728 78.097 249.654 77.9708C249.248 77.3633 248.788 76.2936 248.468 74.9736C248.264 74.13 248.415 73.9206 250.075 73.5189C251.259 73.2325 251.742 73.6199 252.044 74.8717C252.226 75.6201 252.135 76.3189 252.185 76.5231C252.211 76.6319 252.255 76.6934 252.435 76.7219C252.757 76.7447 253.334 76.7491 253.538 76.6997C253.824 76.6306 253.811 76.1007 253.663 75.4884C253.426 74.5087 253.027 73.8707 252.911 73.3944C252.846 73.1223 252.928 72.9871 253.268 72.9048C254.194 72.6809 255.427 72.5408 255.837 72.7443C256.067 72.8615 256.207 73.0866 256.339 73.6309C256.622 74.8012 256.644 75.545 256.616 76.0269C256.609 76.1729 256.594 76.2916 256.614 76.3733C256.637 76.4685 256.711 76.537 256.816 76.5548C257.22 76.6156 257.987 76.6316 258.164 76.5888C258.259 76.5657 258.324 76.4779 258.292 76.2841C258.188 75.6178 257.942 74.4818 257.679 73.3932C257.462 72.4951 257.22 71.6172 257.074 71.1917C257.014 71.0045 256.862 70.9116 256.618 70.9132C254.183 70.9694 251.364 71.4642 248.942 72.0502C248.194 72.2313 247.489 72.4161 246.843 72.6014C246.519 72.694 246.504 72.8705 246.563 73.1731C246.724 73.9553 246.964 75.0064 247.224 76.0814Z" fill="#029C54"/>
<path d="M248.33 81.1237C248.369 81.3869 248.417 81.6203 248.469 81.7825C248.533 81.9288 248.622 81.9582 248.787 81.92C249.133 81.8693 249.611 81.5587 250.165 81.4776C251.204 81.3254 251.875 82.4298 252.068 83.7457C252.224 84.8124 251.961 85.332 251.143 85.4517C250.298 85.5755 249.656 85.4431 249.296 85.4959C249.144 85.5182 249.069 85.5858 249.05 85.7442C249.056 85.8848 249.075 86.1085 249.111 86.3578C249.142 86.5656 249.186 86.7713 249.226 86.9494C249.286 87.167 249.36 87.2835 249.572 87.2808C250.373 87.2483 251.084 87.1725 251.763 87.0731C255.24 86.5638 257.793 85.355 259.439 82.5812C259.52 82.4562 259.533 82.3552 259.517 82.2444C259.501 82.1336 259.447 82.0565 259.343 81.9302C256.939 79.5232 253.691 79.2773 250.672 79.7196C249.937 79.8271 249.225 79.988 248.529 80.1608C248.284 80.225 248.244 80.3439 248.263 80.5676C248.276 80.7497 248.302 80.9298 248.33 81.1237ZM252.543 81.384C252.528 81.287 252.589 81.2215 252.714 81.2032C253.989 81.0166 256.282 81.3173 257.458 82.2913C257.571 82.3879 257.621 82.4372 257.631 82.5065C257.641 82.5757 257.594 82.6392 257.523 82.7345C256.819 83.63 255.249 84.6948 253.836 84.9017C253.642 84.9301 253.539 84.9028 253.497 84.7108C253.45 84.4912 253.439 84.125 253.346 83.4878C253.164 82.3401 252.581 81.6472 252.543 81.384Z" fill="#029C54"/>
<path d="M259.743 88.7178C257.53 88.4791 255.398 88.4467 253.51 88.542C252.084 88.6141 250.802 88.7629 249.745 88.9285C249.467 88.9706 249.434 89.1544 249.43 89.3509C249.44 89.5467 249.437 89.7571 249.447 89.9668C249.458 90.1905 249.484 90.4135 249.492 90.5674C249.514 90.7344 249.589 90.8288 249.743 90.821C249.924 90.8118 251.309 90.4755 251.91 90.4452C252.721 90.4042 253.047 90.7382 253.089 91.5771C253.149 92.7656 252.105 94.0239 249.965 94.3983C249.771 94.4362 249.692 94.5383 249.691 94.7907C249.685 94.9592 249.697 95.1829 249.708 95.4066C249.721 95.6583 249.732 95.882 249.752 96.0071C249.777 96.2161 249.895 96.3363 250.105 96.3257C251.126 96.2742 253.095 95.3056 253.909 93.6524C253.933 93.5811 253.988 93.5503 254.044 93.5475C254.1 93.5447 254.171 93.5691 254.216 93.6369C255.076 94.8411 256.209 95.6109 257.635 95.5389C259.816 95.4287 260.434 93.7854 260.323 91.5902C260.296 91.0589 260.148 89.5104 260.055 89.0525C260.017 88.8582 259.94 88.7359 259.743 88.7178ZM254.77 90.1745C256.476 90.0884 258.416 90.1867 258.768 90.5053C258.944 90.6646 259.038 91.1225 259.065 91.6538C259.126 92.8702 258.678 93.7199 257.504 93.7792C255.798 93.8654 254.276 92.0498 254.2 90.5398C254.188 90.3021 254.281 90.1993 254.77 90.1745Z" fill="#029C54"/>
<path d="M249.665 98.7271C249.654 98.9369 249.657 99.1613 249.663 99.3018C249.667 99.4983 249.732 99.6137 249.913 99.623C250.179 99.6365 253.508 99.2316 257.471 99.5879C257.624 99.6097 257.733 99.6714 257.727 99.7832C257.724 99.8391 257.665 99.9062 257.536 99.9697C255.536 100.975 252.8 102.125 249.843 103.194C249.559 103.278 249.499 103.345 249.444 103.608C249.423 103.733 249.415 103.901 249.405 104.083C249.394 104.307 249.381 104.558 249.388 104.699C249.401 104.994 249.493 105.111 249.771 105.167C250.937 105.381 252.64 105.538 254.373 105.626C256.387 105.729 258.433 105.735 259.745 105.578C259.971 105.547 260.061 105.425 260.085 105.23C260.107 105.077 260.132 104.854 260.143 104.645C260.154 104.421 260.152 104.196 260.146 104.042C260.139 103.901 260.046 103.799 259.892 103.791C259.375 103.764 256.559 104.266 252.351 104.051C252.225 104.044 252.145 103.97 252.149 103.886C252.152 103.83 252.183 103.776 252.268 103.752C255.874 102.59 258.868 101.047 260.086 100.254C260.246 100.15 260.322 100.042 260.343 99.9026C260.364 99.7635 260.388 99.5685 260.397 99.3867C260.406 99.2049 260.416 99.0092 260.396 98.854C260.378 98.6568 260.259 98.5245 260.081 98.4454C259.394 98.172 257.208 97.8643 254.776 97.7402C253.182 97.6589 251.472 97.6558 250.035 97.7928C249.838 97.8108 249.747 97.9323 249.723 98.1413C249.701 98.2944 249.676 98.5034 249.665 98.7271Z" fill="#029C54"/>
<path d="M248.148 113.012C247.422 116.678 248.092 118.267 250.249 118.694C251.375 118.917 252.308 118.602 253.292 117.669C253.377 117.6 253.44 117.57 253.508 117.584C253.591 117.6 253.646 117.682 253.72 117.811C254.114 118.56 254.706 119.176 255.681 119.37C256.271 119.486 256.76 119.398 257.155 119.133C257.909 118.64 258.272 117.599 258.587 116.006C258.756 115.154 258.897 114.298 258.937 113.877C258.964 113.669 258.898 113.499 258.684 113.428C257.06 112.835 255.247 112.333 253.187 111.926C251.827 111.656 250.377 111.412 248.861 111.283C248.595 111.259 248.521 111.416 248.475 111.578C248.366 111.984 248.249 112.504 248.148 113.012ZM254.133 114.068C254.176 113.848 254.352 113.826 254.627 113.88C255.753 114.103 257.151 114.466 257.347 114.704C257.512 114.951 257.439 115.465 257.319 116.069C257.115 117.099 256.705 117.874 255.812 117.697C254.535 117.444 253.807 115.716 254.133 114.068ZM249.447 114.311C249.596 113.555 249.7 113.39 249.93 113.236C250.282 113.049 250.965 113.127 251.872 113.306C252.449 113.421 252.636 113.557 252.769 114.183C252.937 114.916 252.972 115.608 252.909 115.924C252.771 116.624 251.742 117.277 250.726 117.076C249.421 116.817 249.191 115.601 249.447 114.311Z" fill="#029C54"/>
<path d="M245.95 121.353C245.882 121.581 245.81 121.823 245.771 122.001C245.724 122.206 245.809 122.363 245.997 122.419C246.184 122.476 246.611 122.516 247.04 122.644C248.489 123.077 249.35 124.007 250.24 124.989C251.3 126.183 252.412 127.451 254.625 128.113C254.947 128.209 255.057 128.184 255.168 127.91C255.229 127.753 255.319 127.502 255.391 127.261C255.447 127.073 255.496 126.912 255.518 126.787C255.54 126.618 255.514 126.509 255.313 126.448C255.165 126.404 254.889 126.351 254.487 126.23C252.958 125.773 251.28 124.395 250.812 123.568C250.746 123.446 250.734 123.34 250.766 123.232C250.798 123.125 250.897 123.038 251.058 122.94C251.735 122.485 253.203 121.974 255.134 122.552C255.604 122.692 256.043 122.882 256.214 122.948C256.455 123.02 256.593 123.047 256.738 122.71C256.8 122.553 256.869 122.369 256.929 122.168C256.989 121.967 257.036 121.762 257.075 121.583C257.116 121.347 257.06 121.243 256.751 121.15C252.996 120.027 251.047 121.315 250.083 121.801C249.857 121.923 249.691 121.99 249.543 121.946C249.476 121.926 249.386 121.884 249.318 121.82C248.864 121.48 248.2 120.77 246.966 120.401C246.564 120.28 246.306 120.262 246.184 120.62C246.107 120.83 246.03 121.085 245.95 121.353Z" fill="#029C54"/>
<path d="M230.147 72.3112C230.106 72.4451 230.105 72.5647 230.148 72.6832C230.186 72.7884 230.264 72.8794 230.386 72.9692C232.179 74.1353 234.989 74.3666 238.371 73.1391C239.384 72.7713 240.229 72.3903 241.094 71.9422C241.387 71.8061 241.458 71.6315 241.394 71.4161C241.355 71.2666 241.283 71.0692 241.212 70.8718C241.154 70.7139 241.097 70.556 241.041 70.4423C240.943 70.2545 240.853 70.2125 240.695 70.2699C240.432 70.3654 239.026 71.1288 237.263 71.7689C235.157 72.5331 233.238 72.2915 232.362 72.0135C232.246 71.9811 232.174 71.9476 232.151 71.8818C232.131 71.8292 232.165 71.7574 232.238 71.6713C233.495 70.2918 234.326 69.5878 236.261 68.8857C238.314 68.1405 239.507 67.8566 239.757 67.7658C239.928 67.7038 239.991 67.5914 239.941 67.3712C239.897 67.2085 239.834 66.9932 239.753 66.7695C239.676 66.5589 239.582 66.34 239.506 66.1737C239.409 65.9858 239.324 65.9571 239.153 66.0192C238.889 66.1147 237.511 66.749 235.721 67.3986C233.813 68.0912 232.716 68.1467 230.842 67.7844C230.744 67.7604 230.677 67.74 230.658 67.6874C230.634 67.6216 230.668 67.5498 230.723 67.4554C231.275 66.555 232.492 65.3537 234.663 64.5656C236.44 63.9208 238.033 63.5509 238.204 63.4888C238.375 63.4267 238.452 63.3096 238.392 63.0631C238.363 62.9399 238.305 62.782 238.243 62.6109C238.181 62.4398 238.114 62.2556 238.044 62.1025C237.978 61.9625 237.833 61.8512 237.653 61.8869C236.631 62.1088 235.704 62.3857 234.533 62.8108C231.269 63.9954 229.235 65.9402 228.607 67.9851C228.554 68.1681 228.557 68.3009 228.595 68.4062C228.634 68.5114 228.707 68.5892 228.837 68.6611C229.404 68.9915 230.83 69.3524 231.961 69.389C232.098 69.3987 232.192 69.4095 232.215 69.4753C232.235 69.5279 232.17 69.5961 232.066 69.6785C231.1 70.5056 230.342 71.6594 230.147 72.3112Z" fill="#029C54"/>
<path d="M231.906 77.4457C231.969 77.7041 232.039 77.9321 232.106 78.0886C232.183 78.2283 232.275 78.2492 232.435 78.1959C232.775 78.113 233.222 77.7591 233.766 77.6265C234.786 77.3779 235.557 78.4147 235.872 79.7069C236.127 80.7542 235.914 81.2962 235.111 81.4918C234.281 81.694 233.63 81.6223 233.276 81.7085C233.127 81.7449 233.058 81.8192 233.054 81.9788C233.074 82.1181 233.113 82.3391 233.173 82.5839C233.222 82.7879 233.286 82.9886 233.342 83.1621C233.423 83.3731 233.507 83.4823 233.718 83.4598C234.513 83.3524 235.213 83.2106 235.88 83.0482C239.294 82.2161 241.723 80.7738 243.102 77.8584C243.171 77.7264 243.175 77.6245 243.148 77.5157C243.122 77.4069 243.061 77.3352 242.946 77.2191C240.328 75.0474 237.071 75.1062 234.106 75.8289C233.385 76.0046 232.691 76.2313 232.014 76.4684C231.775 76.5553 231.748 76.6774 231.787 76.8983C231.817 77.0785 231.86 77.2553 231.906 77.4457ZM236.124 77.3111C236.101 77.2159 236.156 77.1449 236.278 77.1151C237.529 76.8101 239.841 76.8951 241.103 77.7549C241.224 77.8405 241.279 77.8849 241.295 77.953C241.312 78.021 241.271 78.0886 241.209 78.1901C240.592 79.1474 239.128 80.3544 237.741 80.6925C237.55 80.7389 237.445 80.7213 237.385 80.5342C237.318 80.3199 237.273 79.9563 237.121 79.3306C236.832 78.2049 236.187 77.5695 236.124 77.3111Z" fill="#029C54"/>
<path d="M234.084 88.1278C234.133 88.4601 234.196 88.6914 234.26 88.8375C234.338 88.9816 234.443 89.0226 234.625 89.0096C234.916 88.9664 237.127 88.2269 239.523 87.8705C240.783 87.683 241.986 87.5889 242.976 87.5832C243.273 87.5815 243.371 87.666 243.408 87.9153C243.544 88.8292 243.035 89.4994 243.084 89.8318C243.101 89.9425 243.178 89.9876 243.327 90.0363C243.648 90.1017 244.074 90.1091 244.379 90.0638C244.6 90.0309 244.748 89.9805 244.848 89.6968C245.064 89.056 245.075 87.9927 244.855 86.511C244.649 85.1263 244.292 84.0612 244.09 83.6525C243.99 83.4551 243.863 83.3608 243.647 83.3363C243.389 83.318 242.724 83.3179 242.461 83.357C242.281 83.3838 242.224 83.4772 242.24 83.588C242.282 83.8649 242.927 84.5898 243.084 85.6422C243.115 85.8499 243.04 85.9177 242.874 85.9424C242.029 86.0681 240.508 85.9264 236.99 86.4497C236.076 86.5857 235.171 86.7771 234.38 86.9797C234.105 87.0347 234.043 87.1855 234.04 87.3558C234.021 87.6133 234.045 87.8647 234.084 88.1278Z" fill="#029C54"/>
<path d="M234.725 95.9287C234.878 98.3459 236.433 99.2156 237.97 99.1186C238.711 99.0718 239.075 98.8384 239.058 98.5729C239.053 98.4891 238.993 98.4228 238.878 98.3879C237.527 98.0945 236.596 97.3536 236.514 96.0402C236.417 94.5173 237.509 93.8031 239.66 93.6672C242.287 93.5014 244.194 94.1526 244.275 95.438C244.348 96.5977 242.902 97.0257 241.673 97.1033C241.519 97.113 241.295 97.1131 241.141 97.1228C240.973 97.1334 240.893 97.1946 240.902 97.3343C240.916 97.5579 241.249 98.1681 241.455 98.3234C241.669 98.6045 241.928 98.7004 242.235 98.681C243.996 98.5698 245.985 97.6446 245.846 95.437C245.686 92.8941 242.804 91.6873 239.185 91.9157C236.125 92.1089 234.573 93.5255 234.725 95.9287Z" fill="#029C54"/>
<path d="M235.112 101.684C235.105 101.908 235.1 102.104 235.107 102.328C235.13 102.483 235.185 102.541 235.366 102.546C235.702 102.556 237.196 102.251 238.428 102.287C239.323 102.314 239.811 102.875 239.758 104.652C239.721 105.87 239.27 106.458 238.472 106.435C237.534 106.407 235.655 106.014 235.263 106.003C235.081 105.997 235.023 106.08 234.99 106.247C234.955 106.47 234.949 106.68 234.943 106.876C234.937 107.071 234.945 107.282 234.953 107.492C234.975 107.703 235.056 107.803 235.361 107.882C235.889 108.024 237.606 108.23 239.509 108.286C242.686 108.381 244.681 108.16 245.274 108.01C245.528 107.948 245.615 107.852 245.648 107.671C245.683 107.448 245.689 107.252 245.695 107.042C245.7 106.86 245.693 106.65 245.67 106.467C245.646 106.34 245.564 106.282 245.424 106.278C244.962 106.264 243.285 106.62 241.227 106.559C240.976 106.551 240.865 106.492 240.842 106.337C240.821 106.112 241.074 105.602 241.104 104.58C241.135 103.545 240.942 102.965 240.967 102.615C240.999 102.476 241.1 102.381 241.324 102.388C243.157 102.442 245.172 102.979 245.508 102.989C245.662 102.993 245.747 102.954 245.778 102.843C245.811 102.676 245.832 102.438 245.839 102.2C245.846 101.976 245.839 101.738 245.804 101.527C245.779 101.4 245.712 101.3 245.462 101.223C244.866 101.037 242.903 100.642 239.74 100.548C237.837 100.491 236.111 100.594 235.576 100.704C235.294 100.751 235.222 100.833 235.189 101C235.154 101.223 235.119 101.46 235.112 101.684Z" fill="#029C54"/>
<path d="M234.496 111.895C234.509 112.037 234.544 112.111 234.711 112.129C234.989 112.158 237.007 111.976 239.708 112.26C242.785 112.584 244.485 113.284 244.861 113.323C245.015 113.34 245.061 113.302 245.102 113.18C245.139 112.959 245.178 112.723 245.203 112.487C245.226 112.264 245.234 112.054 245.239 111.871C245.217 111.686 245.159 111.567 244.913 111.499C244.329 111.297 242.398 110.784 239.237 110.451C237.441 110.262 235.494 110.17 234.935 110.266C234.749 110.289 234.685 110.366 234.641 110.517C234.591 110.722 234.565 110.973 234.541 111.196C234.515 111.446 234.492 111.669 234.496 111.895Z" fill="#029C54"/>
<path d="M234.068 114.951C234.03 115.158 234.004 115.381 233.992 115.521C233.971 115.716 234.02 115.839 234.199 115.872C234.46 115.92 237.814 115.948 241.698 116.814C241.847 116.855 241.947 116.93 241.927 117.04C241.916 117.095 241.849 117.154 241.712 117.2C239.599 117.939 236.738 118.726 233.668 119.404C233.375 119.45 233.307 119.509 233.218 119.763C233.182 119.885 233.152 120.05 233.119 120.229C233.079 120.449 233.034 120.697 233.022 120.837C232.997 121.132 233.073 121.259 233.341 121.351C234.47 121.714 236.138 122.089 237.846 122.401C239.829 122.763 241.857 123.033 243.179 123.047C243.406 123.046 243.512 122.937 243.561 122.746C243.602 122.597 243.656 122.38 243.694 122.173C243.734 121.953 243.76 121.73 243.774 121.576C243.786 121.436 243.707 121.322 243.555 121.294C243.046 121.201 240.189 121.334 236.044 120.578C235.92 120.555 235.85 120.471 235.865 120.388C235.875 120.333 235.913 120.283 236 120.271C239.726 119.585 242.895 118.441 244.205 117.812C244.377 117.729 244.466 117.632 244.505 117.497C244.543 117.361 244.592 117.171 244.625 116.992C244.658 116.813 244.693 116.62 244.693 116.464C244.701 116.266 244.599 116.119 244.433 116.018C243.787 115.658 241.66 115.07 239.263 114.633C237.693 114.347 235.998 114.123 234.556 114.073C234.358 114.065 234.252 114.174 234.201 114.378C234.16 114.527 234.108 114.731 234.068 114.951Z" fill="#029C54"/>
<path d="M240.382 129.358C240.119 130.273 239.046 130.358 238.373 130.164C238.266 130.133 238.162 130.089 238.041 130.054C237.893 130.012 237.789 130.069 237.75 130.204C237.688 130.419 237.862 131.081 238.064 131.445C238.198 131.687 238.338 131.859 238.634 131.944C239.751 132.264 241.315 131.738 241.826 129.962C242.591 127.298 240.177 125.002 236.665 123.993C233.988 123.223 232.009 124.024 231.267 126.608C230.633 128.814 231.385 130.254 233.094 130.745C233.915 130.981 234.724 131.155 235.468 131.354C235.673 131.399 235.789 131.301 235.828 131.166C235.909 130.884 235.752 130.212 235.8 129.236C235.849 128.609 235.82 128.557 235.511 128.468C235.349 128.421 235.214 128.485 235.143 128.683C234.907 129.402 234.547 129.488 233.902 129.302C232.812 128.989 232.449 128.273 232.786 127.102C233.168 125.77 234.204 125.106 236.545 125.779C239.344 126.583 240.742 128.106 240.382 129.358Z" fill="#029C54"/>
<path d="M205.111 172.007C203.391 169.889 200.938 168.51 199.392 169.765C197.856 171.014 198.695 173.704 200.416 175.822C201.629 177.316 203.122 178.002 204.924 176.538C206.699 175.096 206.325 173.501 205.111 172.007ZM204.083 175.521C203.246 176.201 202.367 176.078 201.313 174.781C200.085 173.27 199.387 171.399 200.19 170.747C200.958 170.123 202.648 171.103 203.938 172.691C204.964 173.954 204.919 174.841 204.083 175.521Z" fill="#04AADC"/>
<path d="M210.032 171.924C210.225 171.744 210.347 171.601 210.414 171.495C210.472 171.38 210.452 171.294 210.363 171.181C210.206 171.012 208.745 169.906 207.451 168.511C206.771 167.777 206.176 167.039 205.733 166.399C205.6 166.207 205.611 166.107 205.757 165.972C206.289 165.478 206.949 165.511 207.143 165.331C207.207 165.272 207.202 165.201 207.168 165.083C207.068 164.846 206.884 164.567 206.719 164.389C206.599 164.26 206.501 164.186 206.273 164.248C205.761 164.392 205.067 164.856 204.204 165.657C203.397 166.405 202.865 167.109 202.69 167.421C202.606 167.574 202.602 167.698 202.681 167.849C202.784 168.024 203.079 168.456 203.221 168.609C203.318 168.714 203.404 168.709 203.469 168.649C203.63 168.5 203.813 167.759 204.426 167.191C204.547 167.079 204.625 167.097 204.714 167.194C205.171 167.686 205.754 168.735 207.654 170.784C208.148 171.316 208.674 171.818 209.156 172.241C209.313 172.395 209.439 172.369 209.551 172.295C209.726 172.193 209.878 172.066 210.032 171.924Z" fill="#04AADC"/>
<path d="M213.669 168.37C213.79 168.242 213.895 168.13 214.008 167.994C214.074 167.891 214.072 167.828 213.968 167.731C213.776 167.55 212.737 166.952 212.032 166.29C211.518 165.808 211.523 165.224 212.479 164.206C213.135 163.508 213.707 163.396 214.164 163.826C214.701 164.33 215.603 165.539 215.828 165.75C215.932 165.848 216.009 165.83 216.116 165.748C216.252 165.635 216.365 165.515 216.471 165.403C216.576 165.29 216.681 165.163 216.786 165.035C216.883 164.899 216.887 164.798 216.748 164.592C216.511 164.234 215.608 163.22 214.517 162.196C212.697 160.487 211.407 159.578 210.98 159.358C210.798 159.263 210.697 159.274 210.584 159.363C210.447 159.476 210.342 159.588 210.229 159.709C210.131 159.813 210.026 159.941 209.944 160.06C209.892 160.147 209.91 160.224 209.991 160.3C210.255 160.548 211.428 161.212 212.607 162.318C212.751 162.454 212.785 162.546 212.718 162.649C212.614 162.793 212.199 162.962 211.649 163.547C211.092 164.14 210.904 164.582 210.708 164.775C210.616 164.84 210.507 164.844 210.379 164.723C209.329 163.737 208.422 162.373 208.229 162.192C208.141 162.109 208.07 162.088 207.994 162.137C207.888 162.218 207.752 162.347 207.624 162.483C207.503 162.612 207.383 162.756 207.294 162.898C207.243 162.986 207.23 163.079 207.337 163.255C207.591 163.675 208.541 164.929 210.354 166.631C211.444 167.655 212.514 168.492 212.886 168.706C213.077 168.825 213.162 168.814 213.268 168.733C213.405 168.62 213.549 168.499 213.669 168.37Z" fill="#04AADC"/>
<path d="M220.458 160.686C220.92 160.112 221.387 159.514 221.782 158.97C221.891 158.818 221.876 158.679 221.764 158.589C221.576 158.437 220.998 158.085 220.771 158.016C220.673 157.979 220.613 158.002 220.565 158.062C220.524 158.113 220.513 158.161 220.47 158.267C220.286 158.812 219.841 159.611 219.172 160.442C218.744 160.974 218.542 160.98 217.496 160.139C216.75 159.539 216.76 159.053 217.395 158.264C217.774 157.793 218.252 157.514 218.356 157.385C218.411 157.317 218.428 157.26 218.36 157.135C218.22 156.923 217.946 156.561 217.817 156.458C217.637 156.313 217.314 156.575 217.003 156.961C216.507 157.578 216.301 158.132 216.06 158.432C215.922 158.604 215.798 158.617 215.584 158.445C215.001 157.976 214.322 157.275 214.253 156.922C214.216 156.723 214.289 156.527 214.564 156.184C215.157 155.447 215.61 155.078 215.923 154.864C216.018 154.799 216.099 154.751 216.14 154.699C216.189 154.639 216.196 154.56 216.156 154.486C216.001 154.206 215.643 153.72 215.532 153.631C215.472 153.583 215.386 153.584 215.281 153.697C214.915 154.081 214.326 154.778 213.774 155.464C213.319 156.03 212.888 156.601 212.693 156.896C212.605 157.022 212.62 157.162 212.738 157.313C213.94 158.802 215.599 160.321 217.125 161.548C217.596 161.927 218.048 162.277 218.474 162.591C218.686 162.748 218.803 162.673 218.964 162.491C219.374 162.016 219.913 161.363 220.458 160.686Z" fill="#04AADC"/>
<path d="M216.551 152.402C217.814 153.611 219.126 154.653 220.347 155.499C221.269 156.137 222.139 156.659 222.876 157.063C223.07 157.17 223.178 157.071 223.275 156.951C223.363 156.824 223.466 156.695 223.56 156.559C223.66 156.414 223.751 156.263 223.82 156.164C223.886 156.049 223.885 155.954 223.785 155.886C223.667 155.804 222.644 155.35 222.255 155.081C221.731 154.717 221.688 154.354 222.064 153.811C222.596 153.042 223.849 152.759 225.361 153.552C225.5 153.621 225.598 153.595 225.72 153.439C225.804 153.337 225.904 153.192 226.004 153.047C226.117 152.884 226.217 152.74 226.265 152.652C226.349 152.51 226.333 152.379 226.198 152.285C225.538 151.828 223.847 151.487 222.548 152.126C222.499 152.159 222.45 152.152 222.414 152.127C222.378 152.102 222.345 152.052 222.349 151.988C222.391 150.826 222.055 149.804 221.132 149.166C219.722 148.189 218.549 148.916 217.566 150.336C217.328 150.68 216.679 151.715 216.517 152.044C216.448 152.184 216.436 152.296 216.551 152.402ZM220.345 153.878C219.241 153.115 218.081 152.124 218.014 151.756C217.981 151.573 218.142 151.243 218.38 150.899C218.925 150.113 219.611 149.798 220.371 150.324C221.474 151.088 221.551 152.948 220.875 153.924C220.769 154.078 220.661 154.098 220.345 153.878Z" fill="#04AADC"/>
<path d="M119.601 81.2689C119.261 82.5099 118.836 85.4679 118.836 87.4569C118.836 87.6779 118.955 87.8309 119.346 88.0009C119.567 88.1029 119.839 88.1879 120.043 88.1879C120.74 88.1879 121.845 87.4909 123.086 87.4909C124.344 87.4909 124.956 88.3239 124.956 89.5819C124.956 91.3669 123.919 92.0299 122.729 92.0299C121.522 92.0299 120.672 91.5539 120.145 91.1629C119.856 90.9249 119.635 90.7039 119.482 90.7039C119.312 90.7039 119.244 90.8059 119.142 90.9589C118.87 91.4349 118.615 92.1149 118.615 92.4379C118.615 92.6589 118.734 92.7949 119.023 92.9819C119.669 93.4409 120.927 94.0529 122.763 94.0529C125.432 94.0529 126.928 92.5909 126.928 89.5649C126.928 87.4229 125.857 85.8079 123.63 85.8079C122.049 85.8079 121.369 86.5729 120.944 86.5729C120.757 86.5729 120.706 86.4199 120.706 86.1819C120.706 85.2809 120.927 83.0369 121.352 82.6629C121.454 82.5439 121.658 82.4589 122.066 82.4589C123.358 82.4589 124.956 82.7819 125.619 82.9689C125.721 83.0029 125.806 83.0199 125.874 83.0199C126.044 83.0199 126.146 82.9009 126.231 82.5949C126.333 82.1869 126.401 81.5239 126.401 81.2519C126.401 81.0819 126.299 80.8949 125.976 80.8779C124.956 80.8269 123.749 80.8099 122.61 80.8099C121.675 80.8099 120.791 80.8269 120.06 80.8439C119.822 80.8439 119.669 80.9969 119.601 81.2689ZM128.865 81.2689C128.525 82.5099 128.1 85.4679 128.1 87.4569C128.1 87.6779 128.219 87.8309 128.61 88.0009C128.831 88.1029 129.103 88.1879 129.307 88.1879C130.004 88.1879 131.109 87.4909 132.35 87.4909C133.608 87.4909 134.22 88.3239 134.22 89.5819C134.22 91.3669 133.183 92.0299 131.993 92.0299C130.786 92.0299 129.936 91.5539 129.409 91.1629C129.12 90.9249 128.899 90.7039 128.746 90.7039C128.576 90.7039 128.508 90.8059 128.406 90.9589C128.134 91.4349 127.879 92.1149 127.879 92.4379C127.879 92.6589 127.998 92.7949 128.287 92.9819C128.933 93.4409 130.191 94.0529 132.027 94.0529C134.696 94.0529 136.192 92.5909 136.192 89.5649C136.192 87.4229 135.121 85.8079 132.894 85.8079C131.313 85.8079 130.633 86.5729 130.208 86.5729C130.021 86.5729 129.97 86.4199 129.97 86.1819C129.97 85.2809 130.191 83.0369 130.616 82.6629C130.718 82.5439 130.922 82.4589 131.33 82.4589C132.622 82.4589 134.22 82.7819 134.883 82.9689C134.985 83.0029 135.07 83.0199 135.138 83.0199C135.308 83.0199 135.41 82.9009 135.495 82.5949C135.597 82.1869 135.665 81.5239 135.665 81.2519C135.665 81.0819 135.563 80.8949 135.24 80.8779C134.22 80.8269 133.013 80.8099 131.874 80.8099C130.939 80.8099 130.055 80.8269 129.324 80.8439C129.086 80.8439 128.933 80.9969 128.865 81.2689ZM140.151 86.8619C139.267 86.8619 138.927 86.0119 138.927 84.4309C138.927 82.9179 139.386 82.1019 140.168 82.1019C140.916 82.1019 141.358 82.9179 141.358 84.4309C141.358 86.0119 141.035 86.8619 140.151 86.8619ZM140.083 88.3919C141.834 88.3919 143.041 87.2529 143.041 84.6349C143.041 82.1699 142.208 80.6399 140.202 80.6399C138.264 80.6399 137.295 82.2379 137.295 84.6349C137.295 87.2529 138.332 88.3919 140.083 88.3919ZM146.118 92.4209C145.234 92.4209 144.894 91.5879 144.894 90.0069C144.894 88.4939 145.37 87.6609 146.152 87.6609C146.9 87.6609 147.325 88.4939 147.325 90.0069C147.325 91.5879 146.985 92.4209 146.118 92.4209ZM146.05 93.9679C147.801 93.9679 148.991 92.8289 148.991 90.1939C148.991 87.7289 148.175 86.2159 146.169 86.2159C144.231 86.2159 143.262 87.8139 143.262 90.1939C143.262 92.8289 144.299 93.9679 146.05 93.9679ZM140.253 93.3899C141.239 91.8259 142.718 88.9019 142.718 88.5279C142.718 88.3579 142.582 88.2559 142.429 88.2559C142.344 88.2559 142.276 88.2899 142.208 88.3409C140.984 89.4799 139.029 91.6729 138.043 92.7949C137.975 92.8969 137.924 92.9819 137.924 93.0839C137.924 93.2029 138.026 93.3219 138.213 93.4069C138.451 93.5259 139.318 93.7979 139.624 93.7979C139.947 93.7979 140.1 93.6279 140.253 93.3899ZM146.152 81.1669C144.265 84.3289 143.619 85.7739 143.619 86.1479C143.619 86.3179 143.738 86.4029 143.874 86.4029C143.959 86.4029 144.044 86.3859 144.112 86.3349C145.421 85.2129 147.342 82.9179 148.362 81.7619C148.43 81.6769 148.481 81.5749 148.481 81.4899C148.481 81.3709 148.379 81.2519 148.192 81.1499C147.954 81.0309 147.087 80.7759 146.781 80.7759C146.458 80.7759 146.288 80.9459 146.152 81.1669Z" fill="#FE2B4C"/>
<path d="M170.997 51.9405C171.206 52.1024 171.648 52.3547 172.027 52.6491C172.728 53.1937 173.463 53.8709 173.871 54.1874C174.97 55.0411 175.855 54.5279 176.422 53.7981C176.694 53.4474 176.796 53.101 176.811 52.8084C176.815 52.7053 176.778 52.6158 176.721 52.5717C176.645 52.5128 176.525 52.5108 176.433 52.5909C176.067 52.9448 175.731 53.2008 175.364 53.2042C174.92 53.2088 174.416 52.8787 172.947 51.7379C172.758 51.5908 172.731 51.4487 172.819 51.335C173.335 50.6715 174.083 50.5688 175.657 50.7128C177.582 50.9155 178.541 50.7947 179.402 49.6858C180.33 48.4916 180.08 47.1888 178.858 46.2394C177.796 45.4151 176.568 45.2361 175.635 45.4389C175.544 45.459 175.457 45.5127 175.398 45.5885C175.287 45.7307 175.174 46.1897 175.192 46.538C175.198 46.6485 175.234 46.738 175.31 46.7968C175.358 46.8336 175.42 46.8515 175.511 46.8314C176.517 46.6706 177.378 46.8531 177.947 47.2947C178.525 47.7436 178.606 48.3835 178.245 48.8479C177.781 49.445 177.159 49.4634 175.839 49.3645C173.954 49.2081 172.516 49.2608 171.368 50.7393C170.882 51.3649 170.722 51.7271 170.997 51.9405ZM179.118 56.6661C178.17 55.9301 178.501 54.7595 179.826 53.0535C181.261 51.2053 182.466 50.6518 183.338 51.3289C184.163 51.9692 183.902 53.225 182.481 55.0543C181.149 56.7698 180.113 57.4389 179.118 56.6661ZM178.185 57.7499C179.692 58.9201 181.554 58.6944 183.57 56.0974C185.425 53.709 185.851 51.6542 184.154 50.3368C182.457 49.0194 180.397 49.9114 178.594 52.2335C176.592 54.8116 176.668 56.5723 178.185 57.7499ZM186.176 57.5283C185.683 57.1455 185.861 56.5244 186.546 55.643C187.201 54.7994 187.81 54.5432 188.246 54.8818C188.663 55.2056 188.556 55.8519 187.901 56.6954C187.217 57.5769 186.669 57.911 186.176 57.5283ZM185.476 58.3518C186.452 59.1099 187.618 58.9974 188.751 57.5378C189.818 56.1635 190.016 54.9498 188.898 54.0814C187.817 53.2424 186.585 53.7138 185.548 55.0502C184.414 56.5098 184.499 57.5938 185.476 58.3518ZM187.096 63.2109C186.603 62.8282 186.774 62.2165 187.459 61.3351C188.114 60.4915 188.74 60.2332 189.176 60.5717C189.593 60.8956 189.469 61.544 188.814 62.3875C188.13 63.269 187.579 63.5862 187.096 63.2109ZM186.388 64.0439C187.365 64.802 188.521 64.6822 189.662 63.2131C190.729 61.8387 190.929 60.6419 189.811 59.7735C188.73 58.9344 187.498 59.4059 186.468 60.7328C185.327 62.2019 185.412 63.2859 186.388 64.0439ZM183.407 61.212C184.633 60.7669 186.724 59.777 186.886 59.5684C186.959 59.4737 186.928 59.3579 186.842 59.2917C186.795 59.2549 186.742 59.2444 186.682 59.2434C185.507 59.3485 183.467 59.7248 182.432 59.9235C182.35 59.9509 182.285 59.9762 182.241 60.0331C182.189 60.0994 182.194 60.2099 182.262 60.3383C182.343 60.5077 182.709 61.0347 182.879 61.1671C183.059 61.307 183.218 61.2784 183.407 61.212ZM191.987 56.9511C189.566 57.8971 188.58 58.4231 188.418 58.6316C188.345 58.7264 188.374 58.8253 188.45 58.8841C188.498 58.9209 188.552 58.9483 188.612 58.9493C189.828 58.8904 191.893 58.4426 192.962 58.2396C193.036 58.2217 193.109 58.1869 193.146 58.1395C193.197 58.0732 193.192 57.9627 193.132 57.8248C193.051 57.6555 192.678 57.1379 192.507 57.0055C192.327 56.8656 192.159 56.8868 191.987 56.9511Z" fill="#85267A"/>
<path d="M188.629 101.635C188.881 101.635 189.097 101.635 189.301 101.611C189.565 101.563 189.601 101.479 189.601 101.263C189.577 100.159 189.469 98.3952 189.469 96.6912C189.469 94.9272 189.637 93.0192 189.637 92.6232C189.637 92.3832 189.469 92.2872 189.289 92.2872C188.665 92.2872 187.825 92.6712 187.441 92.9952C187.357 93.0672 187.321 93.1512 187.321 93.2232C187.321 93.3192 187.393 93.4152 187.525 93.4872C187.993 93.7032 188.089 93.9432 188.089 94.8792C188.089 97.0752 187.957 99.5472 187.957 101.347C187.957 101.539 188.065 101.587 188.209 101.623C188.329 101.635 188.473 101.635 188.629 101.635ZM194.374 100.351C193.174 100.351 192.718 99.2232 192.718 97.0632C192.718 94.7232 193.33 93.5472 194.434 93.5472C195.478 93.5472 196.042 94.6992 196.042 97.0152C196.042 99.1872 195.634 100.351 194.374 100.351ZM194.302 101.779C196.21 101.779 197.542 100.459 197.542 97.1712C197.542 94.1472 196.618 92.2632 194.47 92.2632C192.322 92.2632 191.242 94.2312 191.242 97.1712C191.242 100.435 192.382 101.779 194.302 101.779ZM200.478 96.7032C199.854 96.7032 199.614 96.1032 199.614 94.9872C199.614 93.9192 199.938 93.3432 200.49 93.3432C201.018 93.3432 201.33 93.9192 201.33 94.9872C201.33 96.1032 201.102 96.7032 200.478 96.7032ZM200.43 97.7832C201.666 97.7832 202.518 96.9792 202.518 95.1312C202.518 93.3912 201.93 92.3112 200.514 92.3112C199.146 92.3112 198.462 93.4392 198.462 95.1312C198.462 96.9792 199.194 97.7832 200.43 97.7832ZM204.69 100.627C204.066 100.627 203.826 100.039 203.826 98.9232C203.826 97.8552 204.162 97.2672 204.714 97.2672C205.242 97.2672 205.542 97.8552 205.542 98.9232C205.542 100.039 205.302 100.627 204.69 100.627ZM204.642 101.719C205.878 101.719 206.718 100.915 206.718 99.0552C206.718 97.3152 206.142 96.2472 204.726 96.2472C203.358 96.2472 202.674 97.3752 202.674 99.0552C202.674 100.915 203.406 101.719 204.642 101.719ZM200.55 101.311C201.246 100.207 202.29 98.1432 202.29 97.8792C202.29 97.7592 202.194 97.6872 202.086 97.6872C202.026 97.6872 201.978 97.7112 201.93 97.7472C201.066 98.5512 199.686 100.099 198.99 100.891C198.942 100.963 198.906 101.023 198.906 101.095C198.906 101.179 198.978 101.263 199.11 101.323C199.278 101.407 199.89 101.599 200.106 101.599C200.334 101.599 200.442 101.479 200.55 101.311ZM204.714 92.6832C203.382 94.9152 202.926 95.9352 202.926 96.1992C202.926 96.3192 203.01 96.3792 203.106 96.3792C203.166 96.3792 203.226 96.3672 203.274 96.3312C204.198 95.5392 205.554 93.9192 206.274 93.1032C206.322 93.0432 206.358 92.9712 206.358 92.9112C206.358 92.8272 206.286 92.7432 206.154 92.6712C205.986 92.5872 205.374 92.4072 205.158 92.4072C204.93 92.4072 204.81 92.5272 204.714 92.6832Z" fill="#029C54"/>
<path d="M183.83 146.694C184.02 146.529 184.183 146.387 184.321 146.234C184.488 146.025 184.46 145.938 184.318 145.775C183.575 144.958 182.334 143.7 181.215 142.415C180.056 141.085 178.929 139.536 178.669 139.238C178.511 139.057 178.322 139.095 178.186 139.213C177.715 139.623 177.334 140.464 177.258 140.961C177.242 141.07 177.27 141.157 177.317 141.212C177.38 141.284 177.497 141.309 177.644 141.277C178.139 141.132 178.369 141.25 178.984 141.955C180.427 143.611 181.951 145.561 183.134 146.918C183.26 147.063 183.373 147.028 183.505 146.961C183.604 146.891 183.712 146.797 183.83 146.694ZM180.348 137.95C180.742 138.768 181.888 140.539 182.81 141.598C182.913 141.715 183.047 141.741 183.334 141.651C183.499 141.602 183.683 141.521 183.792 141.427C184.163 141.104 184.427 140.22 185.088 139.645C185.757 139.061 186.469 139.221 187.053 139.89C187.88 140.84 187.636 141.674 187.003 142.226C186.36 142.786 185.687 142.926 185.226 142.963C184.961 142.97 184.741 142.955 184.66 143.026C184.569 143.105 184.581 143.191 184.597 143.319C184.673 143.699 184.853 144.179 185.003 144.351C185.105 144.468 185.232 144.486 185.472 144.451C186.029 144.396 186.982 144.138 187.959 143.287C189.379 142.049 189.498 140.577 188.094 138.967C187.101 137.827 185.782 137.464 184.597 138.497C183.755 139.23 183.748 139.952 183.522 140.15C183.423 140.236 183.325 140.178 183.214 140.052C182.796 139.572 181.873 138.276 181.926 137.88C181.925 137.769 181.994 137.629 182.211 137.44C182.899 136.841 183.899 136.272 184.339 136.064C184.409 136.034 184.462 136.004 184.498 135.972C184.589 135.894 184.588 135.783 184.491 135.581C184.356 135.316 184.085 134.932 183.959 134.787C183.88 134.697 183.739 134.644 183.559 134.785C182.993 135.231 182.342 135.782 181.736 136.31C181.239 136.744 180.776 137.163 180.395 137.511C180.268 137.621 180.258 137.773 180.348 137.95ZM188.948 135.692C188.477 136.102 187.902 135.807 187.169 134.966C186.467 134.161 186.333 133.514 186.749 133.151C187.148 132.804 187.761 133.033 188.463 133.838C189.196 134.68 189.418 135.282 188.948 135.692ZM189.621 136.538C190.553 135.726 190.667 134.56 189.453 133.167C188.31 131.855 187.157 131.427 186.09 132.357C185.058 133.256 185.284 134.556 186.395 135.831C187.609 137.224 188.689 137.35 189.621 136.538ZM194.701 135.883C194.231 136.293 193.664 136.007 192.93 135.166C192.229 134.361 192.096 133.697 192.512 133.334C192.91 132.987 193.523 133.233 194.224 134.039C194.957 134.88 195.163 135.481 194.701 135.883ZM195.383 136.738C196.314 135.926 196.419 134.768 195.197 133.365C194.054 132.054 192.918 131.627 191.851 132.557C190.82 133.456 191.045 134.756 192.149 136.022C193.371 137.425 194.451 137.55 195.383 136.738ZM192.03 139.119C191.829 137.829 191.26 135.587 191.087 135.388C191.008 135.298 190.888 135.306 190.807 135.377C190.761 135.417 190.741 135.466 190.728 135.525C190.605 136.699 190.582 138.772 190.578 139.827C190.589 139.913 190.601 139.982 190.648 140.036C190.703 140.099 190.813 140.115 190.952 140.074C191.134 140.027 191.721 139.769 191.884 139.627C192.056 139.478 192.059 139.316 192.03 139.119ZM189.5 129.878C189.963 132.436 190.289 133.505 190.462 133.704C190.541 133.794 190.644 133.784 190.716 133.721C190.762 133.682 190.799 133.633 190.811 133.575C190.988 132.37 190.946 130.258 190.952 129.17C190.949 129.093 190.929 129.015 190.89 128.97C190.834 128.907 190.725 128.891 190.578 128.923C190.396 128.97 189.817 129.237 189.654 129.378C189.482 129.528 189.47 129.698 189.5 129.878Z" fill="#04AADC"/>
</svg>
