<svg width="450" height="1258" viewBox="0 0 450 1258" fill="none" xmlns="http://www.w3.org/2000/svg">
<g clip-path="url(#clip0)">
<path d="M612.277 1210.88L612.277 1219.14C612.277 1230.53 621.521 1239.77 632.911 1239.77C644.301 1239.77 653.545 1230.53 653.545 1219.14C653.545 1207.75 644.301 1198.5 632.911 1198.5L612.277 1198.5L57.6423 1198.5L37.0086 1198.5C25.6187 1198.5 16.3748 1207.75 16.3748 1219.14C16.3748 1230.53 25.6187 1239.77 37.0086 1239.77C48.3984 1239.77 57.6423 1230.53 57.6423 1219.14L57.6423 1210.88" stroke="#04AADC" stroke-width="2" stroke-miterlimit="10" stroke-linecap="square"/>
<path d="M620.531 1210.88L620.531 1219.14C620.531 1225.99 626.06 1231.52 632.911 1231.52C639.761 1231.52 645.291 1225.99 645.291 1219.14C645.291 1212.29 639.761 1206.76 632.911 1206.76L612.277 1206.76L205.849 1206.76L202.209 1206.76L57.6418 1206.76L37.0081 1206.76C30.1577 1206.76 24.6279 1212.29 24.6279 1219.14C24.6279 1225.99 30.1577 1231.52 37.0081 1231.52C43.8585 1231.52 49.3884 1225.99 49.3884 1219.14L49.3884 1210.88" stroke="#04AADC" stroke-width="2" stroke-miterlimit="10" stroke-linecap="square"/>
<path d="M624.659 1210.88L624.659 1219.14C624.659 1223.68 628.373 1227.39 632.913 1227.39C637.452 1227.39 641.166 1223.68 641.166 1219.14C641.166 1214.6 637.452 1210.88 632.913 1210.88L612.279 1210.88L57.6437 1210.88L37.0099 1210.88C32.4705 1210.88 28.7564 1214.6 28.7564 1219.14C28.7564 1223.68 32.4705 1227.39 37.0099 1227.39C41.5493 1227.39 45.2634 1223.68 45.2634 1219.14L45.2634 1210.88" stroke="#04AADC" stroke-width="2" stroke-miterlimit="10" stroke-linecap="square"/>
<path d="M53.5173 1210.88L53.5173 1219.14C53.5173 1228.22 46.0891 1235.64 37.0103 1235.64C27.9314 1235.64 20.5033 1228.22 20.5033 1219.14C20.5033 1210.06 27.9314 1202.63 37.0103 1202.63L57.644 1202.63L612.279 1202.63L632.913 1202.63C641.992 1202.63 649.42 1210.06 649.42 1219.14C649.42 1228.22 641.992 1235.64 632.913 1235.64C623.834 1235.64 616.406 1228.22 616.406 1219.14L616.406 1210.88" stroke="#04AADC" stroke-width="2" stroke-miterlimit="10" stroke-linecap="square"/>
<path d="M57.2383 1196.63L57.2384 -13.4467" stroke="#04AADC" stroke-width="2" stroke-miterlimit="10" stroke-linecap="square"/>
</g>
<defs>
<clipPath id="clip0">
<rect width="450" height="1258" fill="white"/>
</clipPath>
</defs>
</svg>
