<svg width="98" height="134" viewBox="0 0 98 134" fill="none" xmlns="http://www.w3.org/2000/svg">
<path d="M31.6414 88.7295C31.8317 87.7593 31.7163 87.0866 31.3076 86.7239C30.8988 86.3612 30.097 86.1722 28.9394 86.1784C28.6586 86.1784 28.5307 86.135 28.5556 86.0451C28.5806 85.9552 28.696 85.8932 28.9113 85.8126C30.1812 85.4685 31.136 85.0469 31.7569 84.5231C32.3748 83.9925 32.7974 83.2727 32.9581 82.4772C33.1796 81.5069 33.292 81.0265 33.5166 80.0717C34.0595 77.8058 32.5806 77.1641 29.2857 78.5869C26.307 79.8499 23.4742 81.4286 20.8365 83.2955C20.175 83.7543 19.707 84.1232 19.4074 84.3743C19.2171 84.5355 18.9862 84.7493 18.7179 85.019C15.8321 87.9489 13.2886 91.1933 11.136 94.6904C10.849 95.1554 11.76 95.3972 12.6118 95.4189C15.4667 95.4871 16.9519 95.5212 20.0159 95.577C18.668 94.6098 18.3747 93.5063 18.2468 92.3222C18.1245 91.2471 18.3345 90.1605 18.8489 89.2069C19.3018 88.4508 19.824 87.7379 20.409 87.0773C21.0892 86.2621 21.657 85.6204 22.0939 85.1647C22.6117 84.6474 23.1744 84.1764 23.7756 83.7574C24.5933 83.1614 25.49 82.6805 26.4402 82.3284C27.2233 82.0556 27.8505 81.9719 28.3123 82.0928C28.774 82.2137 28.9675 82.4989 28.8364 82.9174C28.6835 83.3947 28.2686 83.8473 27.5884 84.2968C26.8447 84.7538 26.0312 85.0878 25.1797 85.2856C24.8174 85.3772 24.4479 85.4374 24.0751 85.4654C22.1251 86.8293 20.7709 88.156 20.1095 89.6285C19.448 91.1009 19.8973 92.2478 21.604 93.5032C23.3887 94.8175 26.3809 95.6886 29.6227 95.7289L31.6695 95.7506C30.9238 95.2608 30.5494 94.6811 30.6648 94.0023C31.0486 91.8541 31.242 90.7971 31.6414 88.7295Z" fill="#4F247D"/>
<path d="M44.0097 95.6141C44.2343 95.4715 44.3217 95.0996 44.3404 94.4982C44.5775 88.2335 44.8427 81.9719 45.1735 75.7134C45.1984 75.2236 45.0955 74.9384 44.8615 74.8547C44.3268 74.7612 43.7799 74.7612 43.2452 74.8547C41.3272 75.0466 39.4254 75.3739 37.5541 75.8343C37.0711 75.9216 36.6054 76.086 36.1751 76.3209C35.9228 76.5221 35.7576 76.8116 35.7133 77.13C35.4262 78.4474 35.2858 79.117 35.0112 80.4716C34.9429 80.7983 34.8501 81.1195 34.7336 81.4325C34.6467 81.6453 34.5748 81.8639 34.5183 82.0866C34.4808 82.2788 34.5869 82.4151 34.8303 82.5019C35.0977 82.5893 35.382 82.6126 35.6602 82.5701C35.9006 82.5606 36.1362 82.5003 36.3513 82.3935C36.5665 82.2866 36.7564 82.1355 36.9083 81.9502C36.8469 81.8569 36.8053 81.7521 36.786 81.6424C36.7667 81.5326 36.7701 81.4201 36.796 81.3116C36.874 80.8342 37.2203 80.3817 37.8256 79.9663C38.5121 79.5085 39.3022 79.2274 40.1251 79.148C40.8867 79.0084 41.6731 79.1047 42.3778 79.4238C42.6353 79.5342 42.8515 79.7216 42.9964 79.9601C43.1413 80.1985 43.2076 80.476 43.186 80.7537C43.1236 81.6371 42.044 82.3314 39.9722 82.908C38.1171 83.4069 36.2304 83.7817 34.3248 84.0302C33.7008 87.5174 33.1142 90.9985 32.5713 94.4982C32.521 94.6961 32.5357 94.9047 32.6131 95.0938C32.6906 95.2828 32.8268 95.4423 33.0019 95.549C33.2733 95.6885 33.9161 95.766 34.9364 95.7753C37.7445 95.797 39.1922 95.8063 42.1126 95.8187C43.1423 95.8218 43.785 95.7567 44.0097 95.6141Z" fill="#4F247D"/>
<path d="M53.1991 95.8249C56.3005 95.8249 57.8325 95.8094 60.8403 95.7877C64.9245 95.7567 67.0368 94.8826 66.7404 93.2087C66.4003 91.3054 66.2256 90.3631 65.8574 88.5156C65.7493 87.8185 65.4767 87.1568 65.0618 86.5844C64.4159 85.7785 63.2241 85.0841 61.4549 84.5788C59.4456 84.0054 58.4378 83.7264 56.4191 83.2087C55.4551 82.998 54.5213 82.669 53.6391 82.2292C52.9058 81.8045 52.5158 81.2744 52.4846 80.6297C52.4534 79.9849 52.7966 79.5323 53.5018 79.2317C54.2135 78.9504 54.9862 78.8564 55.7451 78.9589C56.6475 79.0206 57.5134 79.3368 58.2412 79.8702C58.6857 80.1663 58.9977 80.6217 59.1117 81.1411C59.1462 81.3655 59.1053 81.5949 58.9953 81.7938C58.8853 81.9927 58.7124 82.1501 58.5033 82.2416C59.3813 82.7919 60.3776 83.1286 61.4113 83.2242C62.5252 83.3637 63.3489 83.28 63.8762 82.9669C64.3598 82.7065 64.5407 82.347 64.4347 81.9068C64.1227 80.5553 63.9635 79.8888 63.639 78.5776C63.4861 77.9576 62.9401 77.378 62.0072 76.8107C61.1114 76.2567 60.1236 75.8652 59.0899 75.6545C56.638 75.0876 54.1385 74.7472 51.6235 74.6377C48.4659 74.4548 46.8247 75.3259 46.7842 76.8293C46.7218 79.055 46.6937 80.1926 46.6375 82.5019C46.6434 82.844 46.7205 83.1811 46.8638 83.4921C47.0072 83.8031 47.2138 84.0813 47.4706 84.3091C48.2444 85.0934 49.4269 85.6421 50.9901 85.9706C52.806 86.324 53.7139 86.5131 55.5236 86.9006C57.2834 87.2912 58.5096 87.7375 59.2085 88.2118C59.4512 88.3616 59.6571 88.5636 59.811 88.8028C59.9649 89.042 60.0629 89.3125 60.0977 89.5943C60.1601 90.143 59.8668 90.5894 59.1991 90.9458C58.5314 91.3023 57.6172 91.4759 56.4534 91.4573C55.5634 91.4613 54.686 91.2484 53.898 90.8373C53.1586 90.4313 52.781 89.9415 52.7592 89.3711C52.7373 88.8008 53.0712 88.3854 53.7108 88.0754C53.0182 87.567 51.9636 87.2974 50.5189 87.285C49.5723 87.2427 48.6303 87.4378 47.7795 87.8522C46.9402 88.3017 46.4877 88.9248 46.469 89.7369C46.4441 90.9458 46.4316 91.5565 46.4066 92.7809C46.3723 94.7989 48.6999 95.8373 53.1991 95.8249Z" fill="#4F247D"/>
<path d="M71.4511 95.6732C74.9019 95.6215 78.3527 95.5595 81.8036 95.4872C84.8707 95.4221 86.671 94.8982 86.0626 93.959C85.529 93.1407 85.2544 92.7377 84.6897 91.9472C84.3777 91.5194 83.7755 91.1196 82.8863 90.7073C81.9673 90.2759 81.0008 89.9523 80.0064 89.7433C78.8863 89.5139 78.0688 89.5108 77.554 89.7681C78.8332 90.2082 79.6164 90.698 79.9097 91.2994C80.0813 91.6496 79.9315 91.9193 79.4479 92.1177C78.7459 92.3537 77.9992 92.4289 77.2638 92.3378C76.4189 92.2813 75.5908 92.0766 74.8177 91.7333C74.0345 91.3831 73.5696 90.9553 73.4167 90.4779C73.0517 89.331 74.0876 88.5963 76.281 88.525C77.4299 88.532 78.5742 88.6704 79.6913 88.9373C80.6055 89.1295 81.5134 89.3527 82.3995 89.5883C82.2841 89.4302 82.2248 89.3527 82.1062 89.1946C79.2981 88.3018 77.0673 87.6447 75.6383 87.0588C74.5921 86.6476 73.5991 86.1138 72.6804 85.4686C71.813 84.8487 71.2794 84.2287 71.0579 83.6552C70.8863 83.2058 71.0361 82.9268 71.4823 82.8431C71.9284 82.7594 72.5462 82.8803 73.3356 83.1934C74.088 83.498 74.803 83.887 75.4666 84.3527C75.9735 84.6597 76.4163 85.0607 76.7709 85.5337C77.0829 86.0576 76.802 86.2467 75.866 86.1537C76.7384 86.7293 77.6951 87.1674 78.7022 87.4525C79.3959 87.7053 80.1235 87.8547 80.8613 87.8958C81.3075 87.8958 81.3668 87.7408 81.0672 87.4029C80.4245 86.6868 80.0969 86.3366 79.4292 85.6515C78.038 84.3058 76.4983 83.1204 74.8395 82.1177C72.2965 80.4814 69.5932 79.1052 66.7709 78.0105C66.3403 77.84 66.0002 77.716 65.7475 77.6354C65.2795 77.5135 65.0018 77.5445 64.9144 77.7284C64.8904 77.9762 64.9268 78.226 65.0205 78.4569C66.5525 83.7265 67.7475 89.0861 68.852 94.4643C68.8839 94.7013 68.9382 94.9348 69.0142 95.1617C69.1422 95.5275 69.9628 95.6949 71.4511 95.6732Z" fill="#4F247D"/>
<path d="M29.4071 103.314C29.0037 103.263 28.5967 103.244 28.1902 103.258C26.8767 103.463 26.0062 103.587 25.5069 103.68C23.8533 103.99 22.8673 104.263 22.4929 104.678C22.9612 104.96 23.36 105.342 23.6598 105.797C23.8096 106.107 23.7098 106.274 23.3697 106.293C22.8386 106.258 22.3223 106.105 21.8595 105.844C21.2421 105.546 20.6522 105.196 20.0967 104.796C19.6628 104.521 19.2709 104.186 18.9329 103.801C18.599 103.348 18.6708 103.103 19.1887 103.007C19.6139 102.981 20.0407 103.009 20.4586 103.091C20.9927 103.166 21.5212 103.277 22.0405 103.423C22.936 103.677 23.326 103.643 23.1918 103.33C23.0506 103.134 22.8539 102.985 22.6271 102.902C22.3038 102.74 21.9638 102.615 21.613 102.527C20.9726 102.365 20.3465 102.151 19.741 101.888C19.2334 101.682 18.7436 101.452 18.2714 101.2C17.1013 100.58 16.3369 100.035 15.9999 99.4921C15.8127 99.1821 15.9032 98.9868 16.2839 98.8721C16.8571 98.743 17.4513 98.7346 18.028 98.8473C18.7324 98.9372 19.4173 99.1403 20.0561 99.4487C20.6801 99.7586 21.0483 100.069 21.1918 100.416C21.4133 100.94 21.0826 101.228 20.2402 101.234C21.0156 101.716 21.8767 102.045 22.7768 102.204C23.4801 102.398 24.2238 102.391 24.9235 102.186C25.4664 101.981 25.6754 101.628 25.5288 101.15C25.2168 100.137 25.0545 99.6254 24.7519 98.59C24.3837 97.3284 22.8236 96.634 20.1871 96.5193C17.5506 96.4047 16.2714 96.3396 13.7971 96.2094C12.9395 96.1266 12.0739 96.1852 11.2355 96.383C10.6864 96.5472 10.5772 96.8045 10.8892 97.1858C11.3915 97.8058 11.6505 98.1157 12.1809 98.7109C12.8049 99.4301 13.9625 100.115 15.6131 100.881C15.8273 100.959 16.0243 101.078 16.1934 101.231C16.2589 101.315 16.1716 101.343 15.9469 101.309C14.7893 101.123 14.5959 101.274 15.2854 101.929C15.794 102.409 16.053 102.645 16.5772 103.103C17.0296 103.503 17.6911 104.015 18.5366 104.684C19.3822 105.354 20.312 106.092 21.3759 106.814C22.813 107.809 24.3127 108.712 25.8658 109.517C27.9438 110.62 28.8423 110.543 28.4461 109.48L28.2963 109.098C27.9886 108.396 27.6135 107.724 27.1762 107.093L26.8174 106.606C26.6618 106.428 26.5335 106.229 26.4367 106.014C26.3525 105.791 26.4367 105.648 26.7144 105.574C27.0507 105.498 27.4007 105.509 27.7316 105.605C28.858 105.875 29.5194 106.293 29.6941 106.885C29.8221 107.316 29.4289 107.483 28.5459 107.353L28.6614 107.697C28.8752 108.134 29.2196 108.494 29.6473 108.729C30.1602 109.082 30.7256 109.352 31.3228 109.529C31.8119 109.696 32.3377 109.725 32.8423 109.613C32.9297 109.597 33.0125 109.562 33.0852 109.511C33.158 109.461 33.219 109.395 33.2642 109.319C33.3094 109.243 33.3377 109.158 33.3473 109.07C33.3569 108.983 33.3475 108.894 33.3197 108.81C32.989 107.39 32.8267 106.671 32.5116 105.211C32.4149 104.774 32.0686 104.371 31.4664 104.012C30.833 103.646 30.1331 103.409 29.4071 103.314Z" fill="#4F247D"/>
<path d="M50.5495 97.1113C47.1797 97.1113 43.8131 97.1113 40.4465 97.0648C39.5105 97.0648 38.8615 97.1392 38.5308 97.319C38.2 97.4988 38.0721 97.8367 38.1501 98.3295C38.6493 103.345 39.2422 108.351 39.9286 113.348C39.9438 113.69 40.094 114.012 40.3467 114.244C40.5651 114.411 41.0518 114.554 41.81 114.669C45.2913 115.038 48.795 115.158 52.2936 115.025C52.6962 115.003 53.0877 114.887 53.4356 114.684C53.5736 114.619 53.6935 114.522 53.7849 114.4C53.8763 114.279 53.9363 114.137 53.9598 113.987C54.0128 113.311 53.6041 112.663 52.6805 112.012C51.7154 111.396 50.713 110.84 49.679 110.347C48.7054 109.893 47.7785 109.346 46.9114 108.714C46.5838 108.404 46.5183 108.094 46.7304 107.784C46.9758 107.506 47.3034 107.311 47.6665 107.229C48.8083 106.99 49.9656 106.83 51.1298 106.752C52.2156 106.693 52.7554 106.656 53.8287 106.569C53.8443 106.324 53.8506 106.203 53.8662 105.949C51.1704 106.008 49.1173 105.816 47.7726 105.481C46.7408 105.235 45.7628 104.804 44.8865 104.21C44.0503 103.633 43.6134 103.082 43.5854 102.555C43.5573 102.028 43.8381 101.625 44.4434 101.315C45.1559 101.003 45.9268 100.846 46.7052 100.853C47.4835 100.86 48.2515 101.031 48.9582 101.355C49.5822 101.687 49.8693 102.083 49.863 102.551C49.863 103.286 49.2733 103.813 48.1407 104.12C48.7117 104.569 49.629 104.796 50.8896 104.777C51.8361 104.787 52.7691 104.553 53.5978 104.098C54.3435 103.667 54.7429 103.168 54.7804 102.573C54.8584 101.333 54.8958 100.695 54.9707 99.4238C55.0424 97.8739 53.6072 97.102 50.5495 97.1113Z" fill="#4F247D"/>
<path d="M66.5372 103.252C65.1144 103.435 63.9787 103.891 63.1799 104.622C62.5406 105.189 62.1119 105.953 61.9631 106.792C61.9225 107.018 61.8945 107.254 61.8726 107.502C62.6339 107.39 63.2112 107.44 63.6074 107.657C63.784 107.73 63.9272 107.865 64.0095 108.037C64.0918 108.209 64.1075 108.404 64.0536 108.587C63.9631 108.987 63.6261 109.377 63.0489 109.765C62.4604 110.16 61.7968 110.431 61.0988 110.561C60.4917 110.718 59.8496 110.674 59.2704 110.434C59.0536 110.347 58.8743 110.187 58.7633 109.982C58.6523 109.777 58.6165 109.54 58.662 109.312C58.8679 107.796 59.9506 106.169 62.0068 104.498C62.1878 104.356 64.0193 103.02 67.6885 100.726C69.7509 99.4393 70.9054 98.4628 71.1019 97.6879C71.1643 97.4337 71.0426 97.226 70.7306 97.0679C70.3423 96.8831 69.9119 96.8029 69.4826 96.8354C65.9756 96.9264 62.4696 96.9966 58.9647 97.0462C57.9974 97.0617 57.3641 97.1392 57.0739 97.2849C56.7837 97.4306 56.6183 97.7778 56.5778 98.3265C56.2158 103.342 55.7884 108.354 55.2954 113.364C55.233 113.984 55.3641 114.34 55.6792 114.458C55.9943 114.576 56.687 114.554 57.7447 114.359C60.317 113.922 62.8405 113.237 65.2798 112.316C65.9067 112.117 66.4939 111.811 67.0146 111.411C67.3018 111.133 67.516 110.789 67.6386 110.409C68.4498 108.14 68.8398 106.972 69.5793 104.569C69.7322 104.083 69.5294 103.723 68.9553 103.472C68.1836 103.185 67.3485 103.109 66.5372 103.252Z" fill="#4F247D"/>
<path d="M86.5933 96.0234C84.8398 96.1319 83.9381 96.1846 82.0941 96.2838C80.7961 96.352 79.9256 96.8603 79.5044 97.7903C79.4073 97.9496 79.3488 98.1291 79.3337 98.3148C79.3185 98.5004 79.347 98.687 79.417 98.8597C79.5895 98.8149 79.7645 98.7807 79.9412 98.7574C80.4758 98.6505 81.028 98.6685 81.5543 98.8101C81.9225 98.9403 82.0192 99.1201 81.8507 99.3867C81.5256 99.7733 81.1114 100.076 80.6432 100.27C80.0049 100.594 79.3305 100.841 78.6339 101.008C77.6822 101.231 77.0426 101.181 76.7088 100.853C76.4373 100.586 76.3968 100.19 76.5996 99.6812C76.897 99.0705 77.2945 98.5132 77.7759 98.0321C78.3312 97.4242 78.9528 96.8794 79.6292 96.4078C77.7135 96.5008 76.7306 96.5442 74.7306 96.6217C73.6916 96.662 73.0832 96.9657 72.9241 97.5361C72.091 100.534 71.1362 103.531 70.0754 106.46C71.6867 105.458 73.4254 104.673 75.2454 104.126C76.1499 103.827 77.0708 103.58 78.0036 103.385C78.8804 103.215 79.1487 103.28 78.8523 103.664C78.5276 104.02 78.1585 104.332 77.754 104.594C77.2216 104.985 76.6557 105.328 76.0629 105.62C75.5759 105.899 75.0343 106.07 74.4748 106.123C74.1222 106.123 74.0286 105.921 74.2064 105.571C74.2538 105.503 74.3048 105.438 74.3593 105.376C73.9003 105.426 73.449 105.53 73.0146 105.686C71.052 106.336 69.7915 107.266 69.3047 108.55C69.155 108.95 69.077 109.148 68.9241 109.542C68.5247 110.571 69.4888 110.608 71.6885 109.436C73.1892 108.656 74.6387 107.782 76.0286 106.82C77.1893 106.036 78.0598 105.357 78.6963 104.855C79.4794 104.235 80.0941 103.754 80.5372 103.376C82.9852 101.302 85.2037 98.9742 87.1549 96.4326C87.3952 96.1226 87.2111 95.9831 86.5933 96.0234Z" fill="#4F247D"/>
<path d="M23.4613 41.845C22.6251 43.3949 21.2772 44.5511 19.455 45.3106C18.207 45.8282 17.6111 46.0979 16.4129 46.6683C13.7983 47.9082 12.5721 47.1766 12.9558 44.3837L12.6251 44.5728C11.5861 47.3843 9.93244 50.0564 7.39579 51.7582C6.28815 52.4959 5.74525 52.8741 4.67817 53.6552C3.11811 54.7867 2.2944 54.8611 2.18207 53.8133C2.12591 53.1717 2.39112 51.814 3.11811 49.7836C5.63837 43.4067 9.21098 37.4918 13.6891 32.2821C14.3505 31.5598 14.8934 31.0142 15.2897 30.6175C15.9137 29.9975 16.2257 29.7092 16.8653 29.1265C17.2647 28.7669 17.402 28.6925 17.3022 28.9095C16.527 30.7651 15.6521 32.578 14.6813 34.3403C14.2008 35.2145 13.4051 36.4668 12.3006 38.119C11.2835 39.6348 10.31 41.0421 9.38331 42.313C9.13503 42.4205 8.90042 42.5568 8.6844 42.7191C7.98169 43.2485 7.35225 43.8676 6.81233 44.5604C6.22304 45.2644 5.7492 46.0563 5.40827 46.907C5.15866 47.561 5.18363 47.9516 5.48628 48.0849C5.78893 48.2182 6.29127 48.0384 6.96833 47.5548C8.46287 46.4947 9.83572 44.6751 11.168 42.1674C12.7062 39.2752 14.3068 36.3831 16.0042 33.5933C17.7015 30.8035 19.6142 28.0353 21.5986 25.3478C21.9823 25.0812 22.1758 24.9479 22.5658 24.6906C20.7297 26.9812 19.2567 29.537 18.1976 32.2697C17.4349 34.4107 16.9811 36.6482 16.8497 38.9157C16.7218 40.7755 17.6579 41.2746 19.5549 40.4501C20.3452 40.0996 21.0578 39.5971 21.6516 38.9714C22.2077 38.4408 22.6106 37.7718 22.8185 37.0341C22.9933 36.3118 22.8684 35.8437 22.4566 35.6299C22.0447 35.416 21.4894 35.4594 20.7842 35.7693C20.4602 35.9167 20.1545 36.1008 19.8731 36.318C19.4238 35.8902 19.1742 35.1494 19.1711 34.1171C19.1743 33.1294 19.3969 32.1546 19.8232 31.2622C21.2865 28.1624 23.6516 25.6423 25.9605 23.1438C26.5198 22.5388 27.1767 22.0307 27.9043 21.6404C28.6469 21.2808 29.0244 21.1103 29.7764 20.7849C30.2974 20.5617 30.4004 20.7849 30.0634 21.4234C27.4644 26.5195 25.9886 32.0217 24.7312 37.5641C24.3911 39.4085 23.9855 40.8561 23.4613 41.845Z" fill="#85267A"/>
<path d="M43.1677 39.4579C43.0023 39.6718 42.603 39.8144 41.9696 39.864C39.9325 40.0059 37.9039 40.25 35.8916 40.5956C37.2644 37.7003 38.0102 35.701 38.1194 34.4672C38.232 33.6485 38.0364 32.8174 37.5702 32.1331C37.0492 31.4201 36.2005 31.1163 34.9899 31.3457C34.1389 31.5051 33.3437 31.8799 32.681 32.4338C32.0898 32.8807 31.6765 33.5207 31.5141 34.241C31.438 34.5141 31.4585 34.8049 31.572 35.065C31.6856 35.325 31.8853 35.5385 32.1381 35.67C32.6935 35.9954 33.4173 36.0667 34.3003 35.8993C34.4751 35.8652 34.6685 35.8188 34.8776 35.7599C35.1517 36.4291 35.2453 37.1578 35.149 37.8739C34.9774 39.7803 34.213 40.8745 32.8214 41.1628C30.5936 41.6247 29.4954 41.8975 27.3425 42.5205C26.4376 42.784 25.901 42.8739 25.72 42.7716C25.539 42.6693 25.486 42.2881 25.5765 41.6278C26.7247 34.4052 28.4189 27.6787 31.305 20.9211C31.4304 20.6206 31.6114 20.3462 31.8386 20.112C32.1285 19.8916 32.4577 19.7275 32.8089 19.6285C34.1296 19.1585 35.4766 18.7652 36.8432 18.4505C35.2832 20.4809 34.2223 22.2478 33.8479 23.528C33.5858 24.4177 33.642 25.0779 34.032 25.5429C34.422 26.0079 35.1864 26.1628 36.1818 25.9893C36.9735 25.8459 37.7211 25.5223 38.3658 25.0438C38.916 24.6869 39.3044 24.1309 39.4485 23.4939C39.5164 23.2263 39.4854 22.9433 39.3612 22.6965C39.2369 22.4496 39.0277 22.2552 38.7715 22.1486C38.2223 21.8851 37.5234 21.8758 36.6872 22.1486C36.5445 21.5729 36.5693 20.9687 36.759 20.4065C37.174 18.9806 37.9041 18.2118 38.9275 18.0197C40.4201 17.7202 41.93 17.5131 43.4485 17.3997C44.0476 17.3501 44.4126 17.3997 44.5343 17.5268C44.656 17.6539 44.6966 17.9391 44.6498 18.3823C43.9415 25.0779 43.6264 31.7983 43.3799 38.5311C43.3982 38.8537 43.3246 39.1749 43.1677 39.4579Z" fill="#85267A"/>
<path d="M58.7866 40.1988C56.2961 39.8613 53.7868 39.678 51.2734 39.6501C47.2828 39.5664 45.2828 38.528 45.3452 36.3085C45.4918 30.8715 45.6572 25.4344 46.0035 20.0066C46.1252 18.0786 47.6696 17.192 50.5838 17.2168C52.3889 17.2132 54.1919 17.3396 55.9785 17.595C58.7866 17.9577 60.4091 19.1852 60.9707 21.1257C62.5089 26.541 63.3077 32.1083 63.9785 37.6786C64.1876 39.9291 62.4902 40.6576 58.7866 40.1988ZM56.8397 31.1629C56.1828 30.6658 55.3923 30.3735 54.5682 30.3228C54.6525 29.3309 55.133 28.0134 55.9192 26.5286C56.6587 25.1399 56.952 24.1046 56.8553 23.3699C56.7352 22.7592 56.3761 22.2208 55.8568 21.8727C55.2653 21.4286 54.5536 21.1706 53.8132 21.1319C53.12 21.0586 52.4218 21.2132 51.8257 21.572C51.5791 21.7071 51.3752 21.9076 51.2369 22.1513C51.0986 22.3949 51.0313 22.672 51.0425 22.9515C51.0675 23.5714 51.4419 24.0891 52.1782 24.5014C52.9027 24.9087 53.7271 25.1072 54.5589 25.0748C54.509 26.0482 53.9598 27.2602 52.8678 28.776C51.86 30.1771 51.3077 31.4325 51.342 32.3935C51.342 33.0134 51.6915 33.5714 52.353 34.0302C53.0748 34.5066 53.9145 34.7768 54.7804 34.8113C55.5638 34.8864 56.3523 34.7323 57.0487 34.3681C57.6977 34.0085 57.9848 33.5156 57.9348 32.877C57.8873 32.5294 57.7646 32.1962 57.575 31.9003C57.3854 31.6043 57.1334 31.3528 56.8366 31.1629H56.8397Z" fill="#85267A"/>
<path d="M80.627 45.9739C80.3743 46.1785 79.691 46.0421 78.6894 45.605C75.6303 44.3146 72.4951 43.2101 69.301 42.2975C67.9812 41.9318 67.0889 41.597 66.6489 41.2467C66.209 40.8964 65.9469 40.2517 65.8471 39.3217C65.0327 32.7284 63.975 26.2002 61.8221 19.8859C61.6255 19.3187 61.6037 19.0025 61.7566 18.9157C61.9095 18.8289 62.34 18.8816 63.039 19.0924C65.6478 19.8391 68.1663 20.8682 70.5491 22.1612C70.9635 22.3842 71.3472 22.6593 71.691 22.9795C72.0358 23.2771 72.339 23.619 72.5927 23.9963C73.2168 24.9727 73.2792 25.8128 72.4773 26.6249C71.0545 28.0663 69.7566 29.1048 69.6692 29.2319C68.5522 30.6609 68.0561 32.5208 68.4586 34.7216C68.6278 35.5268 69.0507 36.2575 69.6661 36.8078C70.3157 37.437 71.101 37.9108 71.9625 38.1934C72.7924 38.4693 73.457 38.5034 73.9469 38.274C74.4367 38.0446 74.6052 37.6168 74.4523 36.9814C74.2506 36.2542 73.86 35.5925 73.3197 35.0626C72.7503 34.4403 72.0325 33.9702 71.2324 33.6956C71.1169 33.3143 71.0171 32.964 70.9204 32.6385C70.6084 31.4358 70.6333 30.5648 70.9204 30.0223C71.2854 29.3558 72.0935 29.2567 73.3977 29.8146C74.397 30.2655 75.2995 30.9032 76.0561 31.6931C76.8052 32.3892 77.3984 33.2341 77.7971 34.173C78.9387 37.5462 79.8948 40.9786 80.6614 44.455C80.8548 45.2858 80.8267 45.822 80.627 45.9739Z" fill="#85267A"/>
<path d="M88.1869 37.8461C88.7142 38.6118 88.9107 39.0612 88.7578 39.1883C88.6049 39.3154 88.1338 39.0798 87.385 38.4878C86.4849 37.7864 85.6618 36.9925 84.9295 36.1195C85.5098 36.3055 85.4942 35.9304 84.8982 35.0036C83.942 33.6283 82.7853 32.4018 81.4661 31.3644C80.8795 30.9335 80.5051 30.7724 80.3304 30.8808C80.1557 30.9893 80.243 31.3582 80.605 31.9968C81.182 32.9698 81.8506 33.8863 82.6018 34.7339C83.4531 35.7227 84.3627 36.6605 85.3257 37.5423C86.5426 38.6614 88.3241 40.0935 90.4989 41.9813C90.6861 42.3284 90.7797 42.502 90.9606 42.8523C90.2898 42.3129 89.6127 41.7922 88.9232 41.3024C87.8218 40.5244 86.9856 40.0935 86.477 39.9664C84.995 39.582 84.4708 40.2919 85.0418 42.0216C85.3464 42.8593 85.8092 43.6315 86.4053 44.2968C86.9794 45.0017 87.6518 45.6217 88.4021 46.1381C89.151 46.631 89.6814 46.8139 89.9965 46.6775C90.3117 46.5411 90.3429 46.1474 90.1057 45.4995C89.6076 44.2658 88.8428 43.1557 87.8655 42.2478C88.1369 41.9844 88.6986 42.1704 89.5597 42.8275C90.4636 43.5408 91.2711 44.367 91.9622 45.2857C92.71 46.214 93.3214 47.243 93.7781 48.3421C94.3983 49.8708 94.9296 51.4336 95.3694 53.0228C95.9934 55.1927 95.1135 55.36 92.7391 53.621C90.1653 51.7111 87.4539 49.9912 84.6268 48.4754C83.4474 47.8337 82.7173 47.2354 82.4739 46.6682C82.3355 46.3454 82.237 46.0071 82.1806 45.6607C80.5488 38.3235 78.243 31.3365 74.0964 24.985C73.904 24.7191 73.7299 24.4405 73.5753 24.1512C73.5036 23.9528 73.619 23.928 73.9186 24.0799C74.0902 24.1791 74.3304 24.3279 74.6393 24.5293C76.6869 25.8264 78.6107 27.3071 80.3866 28.9528C82.1003 30.4921 83.7028 32.1494 85.1822 33.9125C86.2591 35.1651 87.2624 36.4785 88.1869 37.8461Z" fill="#85267A"/>
<path d="M18.603 83.5777C16.4041 85.2465 14.3822 87.1337 12.5687 89.21C10.188 91.8418 8.2005 92.1517 6.66541 89.6099C2.12876 81.3582 0.203646 73.3421 0.344051 63.9528C0.656063 60.2547 2.87135 56.7736 6.00394 54.7525C8.12591 53.2532 10.3438 51.8926 12.6436 50.6794C14.656 49.5883 16.0757 49.0892 16.7621 49.0954C17.7387 49.0954 18.1786 49.9478 18.0694 51.5504C17.8755 54.0182 17.8359 56.4956 17.9509 58.9683C16.1506 58.0104 14.1162 58.1592 11.8698 59.3868C9.49224 60.6918 7.14279 63.4599 6.06323 65.8964C4.87134 68.5839 4.37836 71.166 4.83702 73.4537C5.17399 75.14 5.91346 76.3613 6.91502 77.1301C8.17866 78.1003 9.56399 78.0011 11.0523 76.8759C11.9243 76.2225 12.6191 75.3639 13.0741 74.3774C13.5221 73.5196 13.6661 72.5368 13.4829 71.5876C13.2707 70.6577 12.7933 70.0935 12.0289 69.9199C11.2645 69.7463 10.3721 69.9943 9.37367 70.6887C8.50548 71.2595 7.83374 72.0805 7.44856 73.0414L7.29255 72.5485C6.93062 71.2714 7.23327 69.6936 8.22859 67.8988C9.11937 66.215 10.4547 64.8037 12.0913 63.8164C13.617 62.9267 15.0367 62.6819 16.3409 63.0321C16.9361 63.1612 17.4735 63.4777 17.8732 63.9346C18.2729 64.3914 18.5135 64.9642 18.5593 65.5678C19.0819 69.4882 20.0157 73.3437 21.3456 77.0712C22.2348 79.4859 21.2956 81.4605 18.603 83.5777Z" fill="#85267A"/>
<path d="M41.8135 73.4133C41.2127 73.6991 40.5705 73.8895 39.9103 73.9775C38.4174 74.2308 36.9403 74.5682 35.4859 74.988C36.0819 71.8882 35.7979 68.6396 35.539 65.5708C35.227 61.9099 33.5858 60.1492 30.6934 60.9211C29.5924 61.2059 28.6017 61.8103 27.8479 62.657C27.0835 63.5125 26.7621 64.365 26.8713 65.1864C26.9128 65.5911 27.077 65.9738 27.3422 66.2838C27.6074 66.5937 27.9611 66.8164 28.3565 66.9223C29.2239 67.2137 30.2285 67.1765 31.383 66.8479C31.7937 66.7342 32.1887 66.5707 32.5593 66.3612C33.3643 67.3346 33.8791 68.7171 34.1692 70.453C34.4126 71.9099 34.4469 73.0692 34.2472 73.9558C34.0725 74.7369 33.4454 75.3662 32.397 75.8962C32.1193 76.045 31.149 76.3984 29.5889 77.0742C25.9571 78.6241 23.6108 78.2521 22.6123 75.0872C21.8836 72.8578 21.3194 70.5786 20.9243 68.2676C20.4314 65.5863 21.3768 62.9979 23.7324 60.8281C24.1849 60.4282 26.3814 58.7853 30.6934 56.4883C33.2644 55.1399 34.5905 53.8938 34.5842 52.5268C34.5866 52.1234 34.4719 51.7279 34.2539 51.3876C34.0359 51.0473 33.7238 50.7766 33.3549 50.608C32.5437 50.1709 31.5608 50.081 30.4126 50.36C29.2877 50.6312 28.2593 51.2037 27.4391 52.0153C26.6061 52.8337 26.1911 53.6644 26.1911 54.4952C26.1664 54.8979 26.2701 55.2982 26.4875 55.639C25.7702 56.7284 24.7221 57.5623 23.4953 58.0197C22.5125 58.3761 21.695 58.4226 21.0304 58.1405C20.7163 58.0156 20.4497 57.7958 20.2683 57.5121C20.0869 57.2284 19.9999 56.8952 20.0195 56.5596C19.9946 54.4301 20.0195 53.3606 20.1381 51.2373C20.3346 48.0662 23.0117 45.9149 25.9103 45.1058C29.0125 44.1244 32.1826 43.3691 35.3954 42.8461C39.4204 42.1641 41.4734 43.5094 41.4298 46.4419C41.358 54.9012 41.489 63.3575 42.2628 71.789C42.344 72.6538 42.1942 73.1901 41.8135 73.4133Z" fill="#85267A"/>
<path d="M71.3256 78.7077C69.1728 77.5423 66.9182 76.5733 64.5892 75.8125C63.3693 75.3941 62.6953 74.7183 62.5518 73.6923C62.1899 70.9954 61.9527 68.2118 62.3302 65.7506C62.9543 61.7859 64.115 59.3866 66.5955 55.98C67.237 56.4126 67.9437 56.7411 68.689 56.9533C69.571 57.2372 70.5179 57.2544 71.4098 57.0029C71.839 56.9029 72.2189 56.6556 72.4826 56.3046C72.7463 55.9536 72.8769 55.5214 72.8513 55.0841C72.8513 54.2348 72.455 53.3699 71.6313 52.5175C70.8302 51.68 69.8121 51.0782 68.689 50.7785C66.377 50.1585 64.6735 51.1939 63.4972 53.652C62.7287 55.1643 62.2023 56.7864 61.9371 58.4598C61.7998 59.5726 61.4847 60.1182 61.0947 60.05C60.7047 59.9818 60.5112 59.3525 60.4114 58.2366C60.2229 56.3922 59.7625 54.5853 59.0448 52.874C57.8966 50.0593 56.0339 48.5032 53.5783 48.3699C52.4423 48.271 51.3044 48.5384 50.3334 49.1325C49.4411 49.6997 48.9918 50.4096 48.9918 51.2404C48.9918 52.2044 49.4723 52.9483 50.4239 53.5001C51.3621 54.05 52.419 54.3688 53.5066 54.4301C54.2695 54.4834 55.0358 54.3994 55.7686 54.1821C58.0871 57.3663 59.2298 61.2473 59.0042 65.1709C58.8139 68.125 58.037 70.5553 56.8732 72.5019C56.3427 73.3358 55.5003 73.6427 54.3147 73.5094C51.7745 73.1807 49.209 73.0894 46.6517 73.2366C45.2289 73.2955 44.4988 72.9452 44.4426 72.0742C43.9278 62.9235 43.7968 53.7853 43.881 44.613C43.8966 43.4567 44.1025 42.7097 44.4894 42.3656C44.8763 42.0215 45.8404 41.8107 47.3911 41.8014C50.427 41.8014 51.9652 41.7766 54.9449 41.9874C57.0261 42.1362 58.4644 42.9577 59.3131 44.3557C59.7624 45.1058 59.987 45.4871 60.4332 46.2466C60.6894 46.6689 60.9751 47.0728 61.2881 47.4555C61.4847 47.4896 61.7343 47.1672 62.0245 46.4976C62.427 45.8777 62.6267 45.5677 63.0136 44.9477C63.6157 43.7667 65.0354 43.3823 67.2507 43.9248C69.4161 44.4294 71.5523 45.0503 73.65 45.7847C74.9823 46.2404 75.8528 46.7487 76.2959 47.2571C76.7389 47.7655 77.0198 48.6055 77.1071 49.771C77.6032 59.6377 76.6547 68.962 73.3786 78.3265C73.0447 79.1479 72.3645 79.2533 71.3256 78.7077Z" fill="#85267A"/>
<path d="M97.2071 69.3402C97.1384 70.4964 96.6891 71.1597 95.8779 71.3395C95.0667 71.5193 94.1213 71.1566 93.0261 70.2918C91.8295 69.3996 90.8866 68.214 90.2898 66.851C91.5597 67.1083 92.2398 66.5565 92.296 65.1523C92.3334 64.2565 92.0277 63.2614 91.388 62.192C90.8036 61.1839 89.9892 60.3261 89.0105 59.6873C88.037 59.0674 87.204 58.8752 86.5144 59.086C85.8249 59.2968 85.4692 59.8888 85.4411 60.856C85.4068 62.0959 85.7531 63.4133 86.4614 64.8857C87.1566 66.342 88.0478 67.6976 89.1104 68.9155C91.1135 71.1938 93.4473 73.2552 95.647 75.3693C95.5472 75.8529 95.4941 76.0977 95.3818 76.5813C94.4458 75.7785 93.4723 74.9973 92.477 74.2843C90.8639 73.1312 89.4973 72.4958 88.5113 72.285C85.6626 71.665 83.9278 72.5949 83.2789 74.7648C83.0155 75.7393 83.1083 76.775 83.5409 77.6879C83.9203 78.6509 84.5372 79.5036 85.335 80.1678C86.2087 80.8745 87.023 81.1969 87.8062 81.0977C88.1853 81.0555 88.5433 80.9025 88.8349 80.6581C89.1265 80.4136 89.3386 80.0887 89.4442 79.7245C89.9559 78.3358 89.7032 76.851 88.686 75.3848C89.6065 75.0748 90.6423 75.3848 91.7718 76.3488C92.8439 77.2742 93.6186 78.4923 93.9996 79.8516C94.4355 81.191 94.3803 82.6405 93.8436 83.9434C93.0368 85.9412 92.0521 87.8634 90.9013 89.6873C89.3413 92.2632 87.3849 92.0215 85.1104 89.4734C82.6559 86.721 79.8957 84.2533 76.8826 82.1176C75.6346 81.2341 75.0105 80.5088 75.0885 79.8485C75.1312 79.4543 75.2365 79.0692 75.4006 78.7078C78.7765 69.368 79.75 60.0934 79.1634 50.2236C79.0865 49.7503 79.0865 49.2679 79.1634 48.7946C79.3225 48.4288 79.7188 48.3327 80.3491 48.5125C80.686 48.6386 81.1405 48.838 81.7126 49.1108C85.421 50.8965 88.97 52.9923 92.321 55.3755C94.9263 57.1951 96.8951 59.9787 97.1634 63.1901C97.3394 65.2359 97.354 67.2921 97.2071 69.3402Z" fill="#85267A"/>
<path d="M45.0271 12.0503C44.7809 10.0655 43.4419 9.40932 42.7992 9.16661C42.7139 9.12882 42.6583 9.07122 42.6485 8.99183C42.6367 8.89656 42.6745 8.81126 42.746 8.73789C43.2128 8.21242 43.9637 7.50662 43.7765 5.99818C43.5205 3.93401 41.8721 3.12277 39.8238 3.37687C37.6802 3.64278 36.1132 4.91739 36.3752 7.0292C36.5426 8.37886 37.3695 9.06629 37.901 9.45179C37.9863 9.48957 38.0299 9.5809 38.0378 9.64442C38.0496 9.73969 38.0277 9.82302 37.9562 9.89638C37.5032 10.404 36.51 11.3656 36.7326 13.1598C36.9808 15.1605 38.6727 16.1921 41.2608 15.871C44.1666 15.5105 45.2674 13.9874 45.0271 12.0503ZM38.8607 12.5089C38.7248 11.4133 39.3967 10.2014 40.5558 10.0576C41.4767 9.94332 42.6112 10.641 42.7905 12.0859C42.9165 13.1021 42.2471 13.8139 41.0721 13.9597C39.7542 14.1232 38.9926 13.5727 38.8607 12.5089ZM41.7677 6.44085C41.8899 7.4253 41.2161 8.49237 40.3269 8.60267C39.4536 8.71101 38.5316 7.9064 38.4035 6.87432C38.2972 6.01689 38.8297 5.24142 39.9889 5.09763C40.9733 4.97551 41.6574 5.55167 41.7677 6.44085Z" fill="#85267A"/>
<path d="M50.2264 13.2568C48.8028 13.2205 48.2941 11.8311 48.3634 9.11197C48.4377 6.20092 49.1942 4.77974 50.5217 4.81361C51.7693 4.84543 52.4052 6.27011 52.3314 9.16517C52.262 11.8843 51.7299 13.2952 50.2264 13.2568ZM50.0729 15.5096C52.632 15.5749 54.5171 13.8304 54.6289 9.44785C54.7309 5.44915 53.5474 2.90614 50.6363 2.83188C47.7093 2.75722 46.1868 5.34324 46.0877 9.22998C45.9763 13.5966 47.5137 15.4444 50.0729 15.5096Z" fill="#85267A"/>
<path d="M59.6282 9.497C58.8963 9.32415 58.7659 8.55356 59.0969 7.15211C59.4095 5.82852 59.9643 5.21974 60.6183 5.3742C61.2412 5.5213 61.4494 6.31028 61.1368 7.63387C60.8095 9.01975 60.36 9.66985 59.6282 9.497ZM59.1944 11.055C60.8139 11.4375 62.2163 10.6508 62.79 8.22159C63.3232 5.9637 62.8756 4.37838 61.007 3.93707C59.1696 3.50311 57.9015 4.76544 57.3866 6.94547C56.8129 9.37464 57.575 10.6726 59.1944 11.055ZM63.8986 15.8486C63.1667 15.6758 63.0364 14.9052 63.3673 13.5037C63.6799 12.1801 64.254 11.5594 64.908 11.7139C65.5308 11.861 65.7198 12.6619 65.4072 13.9855C65.0799 15.3714 64.6305 16.0215 63.8986 15.8486ZM63.4649 17.4066C65.0843 17.7891 66.4867 17.0024 67.0604 14.5732C67.5937 12.3153 67.1616 10.7337 65.2775 10.2887C63.44 9.85472 62.1756 11.1015 61.6571 13.2971C61.0834 15.7262 61.8454 17.0242 63.4649 17.4066ZM58.4476 15.6792C59.6158 14.4919 61.4437 12.1123 61.5282 11.7542C61.5687 11.5829 61.4662 11.46 61.326 11.4269C61.2482 11.4085 61.163 11.4213 61.0896 11.4533C59.5627 12.2106 57.436 13.6976 56.2901 14.512C56.1902 14.5871 56.1214 14.6695 56.0993 14.7629C56.0736 14.8719 56.1257 14.9993 56.2905 15.1368C56.5139 15.3047 57.425 15.8322 57.7676 15.9131C58.0791 15.9867 58.256 15.8641 58.4476 15.6792ZM66.1407 5.65913C63.962 7.92298 63.0639 9.28914 62.9757 9.66286C62.9389 9.81857 63.0258 9.93775 63.166 9.97084C63.2438 9.98923 63.329 9.97648 63.4024 9.94447C64.9842 9.23302 67.1138 7.66449 68.2826 6.8226C68.3825 6.74755 68.4669 6.66883 68.4926 6.55983C68.5183 6.45083 68.4507 6.31976 68.2822 6.19778C68.0744 6.03361 67.1476 5.50239 66.8051 5.42148C66.4936 5.34793 66.3011 5.46687 66.1407 5.65913Z" fill="#85267A"/>
<path d="M37.8873 126.61C38.1717 126.641 38.7344 126.635 39.2515 126.691C40.2468 126.797 41.3373 126.992 41.9319 127.055C43.3797 127.21 43.914 126.247 44.0189 125.265C44.0728 124.761 43.9734 124.345 43.7969 124.038C43.742 123.941 43.657 123.88 43.5794 123.871C43.476 123.86 43.3643 123.927 43.326 124.04C43.1845 124.509 42.9995 124.894 42.6773 125.095C42.2605 125.325 41.6461 125.325 39.9139 125.14C39.6554 125.112 39.5358 125.008 39.5538 124.84C39.6394 124.039 40.2246 123.578 41.577 122.912C43.4768 122.017 44.2808 121.344 44.4437 119.819C44.6246 118.126 43.6138 117.063 41.9075 116.881C40.4209 116.722 39.134 117.265 38.4178 117.973C38.3435 118.056 38.2937 118.155 38.2812 118.272C38.2605 118.466 38.4426 119.087 38.6911 119.453C38.759 119.552 38.8439 119.613 38.9473 119.624C39.012 119.631 39.0794 119.612 39.1509 119.554C39.9821 118.872 40.8951 118.525 41.6449 118.605C42.33 118.678 42.7096 119.163 42.6502 119.719C42.5743 120.43 42.0804 120.769 40.8914 121.375C39.0534 122.303 37.751 123.236 37.5342 125.265C37.4403 126.144 37.4995 126.569 37.8873 126.61Z" fill="#4F247D"/>
<path d="M48.8337 125.765C47.6796 125.682 47.3186 124.536 47.4764 122.331C47.6454 119.971 48.3125 118.846 49.3887 118.923C50.4001 118.996 50.863 120.176 50.695 122.523C50.5372 124.727 50.0526 125.852 48.8337 125.765ZM48.625 127.588C50.6997 127.736 52.2948 126.391 52.5492 122.838C52.7813 119.596 51.9156 117.488 49.5557 117.319C47.1828 117.149 45.8505 119.191 45.6249 122.342C45.3715 125.882 46.5503 127.439 48.625 127.588Z" fill="#4F247D"/>
<path d="M55.2382 122.052C54.6383 122.169 54.2845 121.641 54.0618 120.493C53.8515 119.408 54.0592 118.772 54.5952 118.668C55.1057 118.569 55.5234 119.084 55.7337 120.169C55.9539 121.304 55.838 121.936 55.2382 122.052ZM55.437 123.351C56.7643 123.094 57.5405 122.043 57.1545 120.052C56.7957 118.201 55.9349 117.177 54.4034 117.473C52.8975 117.765 52.3795 119.124 52.7259 120.911C53.1119 122.902 54.1097 123.609 55.437 123.351ZM60.5219 125.332C59.922 125.448 59.5682 124.921 59.3455 123.772C59.1352 122.687 59.3532 122.036 59.8893 121.932C60.3997 121.833 60.8071 122.363 61.0174 123.448C61.2376 124.584 61.1217 125.215 60.5219 125.332ZM60.7207 126.631C62.048 126.373 62.8242 125.322 62.4382 123.331C62.0794 121.481 61.2314 120.453 59.6871 120.753C58.1812 121.045 57.6608 122.39 58.0096 124.19C58.3956 126.181 59.3934 126.888 60.7207 126.631ZM56.4275 127.026C56.8964 125.756 57.4561 123.384 57.3991 123.09C57.3719 122.95 57.255 122.893 57.1401 122.915C57.0763 122.927 57.0175 122.965 56.9738 123.014C56.0956 124.084 55.0166 125.896 54.4397 126.882C54.3907 126.971 54.3673 127.054 54.3821 127.131C54.3994 127.22 54.4806 127.297 54.6486 127.344C54.8701 127.394 55.7211 127.481 56.0019 127.426C56.2571 127.377 56.3473 127.227 56.4275 127.026ZM58.7811 117.035C57.923 119.44 57.7138 120.751 57.7732 121.058C57.7979 121.185 57.9021 121.245 58.017 121.222C58.0808 121.21 58.1396 121.172 58.1833 121.124C59.1175 120.069 60.1714 118.196 60.7561 117.182C60.8051 117.093 60.8413 117.007 60.8239 116.917C60.8066 116.828 60.7127 116.754 60.5472 116.719C60.3385 116.667 59.4747 116.583 59.1939 116.637C58.9386 116.687 58.8358 116.839 58.7811 117.035Z" fill="#4F247D"/>
</svg>
