<svg viewBox="0 0 338 358" fill="none" xmlns="http://www.w3.org/2000/svg">
<g id="Frame 87" clip-path="url(#clip0)">
<g id="Vector">
<path d="M35.0428 103.356C34.6731 103.946 34.3441 104.561 34.0557 105.202C33.747 105.83 33.4907 106.306 33.2867 106.632C33.1337 106.876 32.9745 107.017 32.8091 107.055C32.6309 107.113 32.4097 107.059 32.1454 106.894C31.4133 106.435 30.5687 105.523 29.6115 104.158C28.6671 102.772 27.6732 101.285 26.6299 99.6965C25.5789 98.0745 24.4834 96.5236 23.3432 95.044C22.2158 93.544 21.103 92.4498 20.005 91.7614C19.273 91.3024 18.6867 91.1757 18.2463 91.3811C17.8187 91.5662 17.5029 91.8215 17.2989 92.1468C17.1842 92.3298 17.0834 92.5357 16.9966 92.7646C16.9225 92.9731 16.8345 93.1587 16.7325 93.3213C16.5923 93.545 16.4127 93.6732 16.1939 93.706C15.9751 93.7388 15.7741 93.6978 15.5911 93.583C15.4285 93.4811 15.3142 93.3244 15.2484 93.1132C15.1825 92.9019 15.2197 92.6845 15.3599 92.4608C15.5257 92.1965 15.7908 91.7962 16.1553 91.2599C16.5199 90.7236 16.9265 90.1429 17.3751 89.5177C17.8034 88.8797 18.238 88.2316 18.6791 87.5734C19.1329 86.8947 19.5191 86.3013 19.8378 85.7929C20.5262 84.6949 21.1268 83.6692 21.6395 82.7159C22.1521 81.7626 22.485 81.164 22.638 80.92C22.8037 80.6556 23.0253 80.483 23.3027 80.4019C23.5928 80.3006 23.9209 80.3647 24.2869 80.5941C25.3036 81.2316 26.6803 81.8822 28.4169 82.5461C30.1459 83.1769 31.9603 83.762 33.8599 84.3014C35.7392 84.8281 37.5829 85.2759 39.3912 85.6448C41.1995 86.0137 42.6975 86.2447 43.8855 86.338C44.2187 86.3486 44.4756 86.368 44.6562 86.3963C44.8495 86.4042 45.0174 86.4528 45.1597 86.542C45.3021 86.6312 45.3986 86.7484 45.4492 86.8935C45.4999 87.0385 45.4743 87.1924 45.3723 87.3551C45.1301 87.7415 44.7043 88.3527 44.0952 89.1888C43.4987 90.0046 42.8882 90.9107 42.2635 91.907C42.0085 92.3137 41.6936 92.8386 41.3187 93.4817C40.9566 94.1045 40.6009 94.7171 40.2515 95.3195C39.9021 95.922 39.591 96.4634 39.3181 96.9438C39.0452 97.4243 38.8833 97.7052 38.8323 97.7865C38.6921 98.0102 38.5291 98.1346 38.3433 98.1598C38.1703 98.1646 37.9822 98.1033 37.7788 97.9758C37.5958 97.8611 37.4752 97.7146 37.4169 97.5365C37.3714 97.338 37.406 97.1472 37.5207 96.9642C37.5972 96.8422 37.7004 96.7228 37.8303 96.606C37.9399 96.4764 38.0712 96.2896 38.2242 96.0456C38.4154 95.7405 38.4121 95.3844 38.2142 94.9771C38.0164 94.5697 37.5718 94.1494 36.8804 93.7159C36.25 93.3207 35.7327 93.0389 35.3285 92.8704C34.9242 92.7019 34.577 92.6684 34.2868 92.7697C33.9891 92.838 33.7052 93.0424 33.435 93.3829C33.1445 93.7107 32.8017 94.1897 32.4065 94.8201C31.7181 95.9181 31.3761 96.6669 31.3807 97.0663C31.3979 97.4454 31.5998 97.756 31.9861 97.9982C32.4538 98.2914 32.9318 98.4778 33.4201 98.5574C33.9085 98.6369 34.3828 98.6936 34.8433 98.7273C35.2961 98.7279 35.7158 98.7361 36.1025 98.7519C36.4892 98.7677 36.8045 98.8521 37.0485 99.0051C37.2519 99.1326 37.3928 99.2918 37.4714 99.4827C37.55 99.6736 37.5256 99.8707 37.3981 100.074C37.3343 100.176 37.2031 100.363 37.0043 100.634C36.8182 100.886 36.6066 101.178 36.3696 101.511C36.1122 101.831 35.865 102.158 35.6279 102.491C35.3908 102.824 35.1958 103.112 35.0428 103.356ZM26.0415 94.7387C26.7939 95.2104 27.4129 95.5559 27.8985 95.7754C28.3841 95.9949 28.8062 96.0896 29.165 96.0596C29.5034 96.0168 29.8153 95.8582 30.1006 95.5839C30.3655 95.2968 30.6574 94.8991 30.9761 94.3907C31.639 93.3333 31.9453 92.6189 31.8949 92.2474C31.8573 91.8556 31.6721 91.5411 31.3391 91.3041C31.0545 91.1256 30.6693 90.9266 30.1837 90.7072C29.6778 90.4749 29.1324 90.2605 28.5476 90.0638C27.9551 89.834 27.3232 89.6219 26.6519 89.4277C25.9602 89.2206 25.2863 89.053 24.6301 88.9249C23.4094 88.6128 22.5791 88.4463 22.139 88.4254C21.6786 88.3916 21.3527 88.5273 21.1615 88.8323C20.9703 89.1373 20.9647 89.5304 21.1446 90.0114C21.3373 90.4722 21.661 90.9725 22.1156 91.5125C22.5829 92.0321 23.1609 92.5786 23.8496 93.152C24.5178 93.7126 25.2485 94.2415 26.0415 94.7387Z" fill="#85267A"/>
<path d="M55.5342 67.1906C56.6266 68.1288 57.5071 68.8533 58.1757 69.3641C58.8416 69.8411 59.2929 70.1813 59.5296 70.3846C59.7117 70.5409 59.7935 70.7219 59.7751 70.9275C59.7906 71.1306 59.7201 71.3232 59.5637 71.5052C59.4386 71.6509 59.2667 71.7406 59.048 71.7742C58.8476 71.8235 58.6563 71.7699 58.4742 71.6136C58.4014 71.551 58.309 71.4559 58.1972 71.3282C58.0672 71.185 57.9112 71.0351 57.7291 70.8788C57.4924 70.6755 57.2334 70.6271 56.9522 70.7336C56.6527 70.8244 56.3388 71.061 56.0105 71.4433C55.4788 72.0624 55.1268 72.6933 54.9544 73.3361C54.782 73.979 54.6134 74.6725 54.4487 75.4169C54.2996 76.143 54.0373 76.9459 53.6616 77.8254C53.3015 78.6867 52.6759 79.6363 51.7846 80.6741C50.9872 81.6027 50.1105 82.3841 49.1545 83.0183C48.1986 83.6526 47.1465 84.0304 45.9984 84.1517C44.8321 84.2573 43.5476 84.04 42.145 83.4998C40.7399 82.9258 39.1997 81.9195 37.5247 80.481C34.4476 77.8385 32.6644 75.0892 32.1751 72.233C31.6832 69.3431 32.6647 66.4688 35.1196 63.6102C35.8545 62.7545 36.5788 62.0953 37.2925 61.6326C38.0062 61.1699 38.6847 60.8035 39.3279 60.5333C39.953 60.2476 40.5207 59.9917 41.0311 59.7657C41.5416 59.5397 41.9688 59.2264 42.3128 58.8259C42.4848 58.6256 42.5956 58.4044 42.6453 58.1624C42.6924 57.8865 42.5976 57.6469 42.3609 57.4436C42.2335 57.3342 42.0904 57.2429 41.9317 57.1699C41.7886 57.0787 41.6988 57.0174 41.6624 56.9861C41.4621 56.8141 41.3556 56.6435 41.3427 56.4743C41.3455 56.2869 41.4251 56.1021 41.5814 55.9201C41.7065 55.7744 41.8615 55.686 42.0463 55.655C42.2312 55.6239 42.4238 55.6944 42.624 55.8664C42.97 56.1635 43.4745 56.6442 44.1377 57.3087C44.7983 57.9392 45.4304 58.5295 46.0338 59.0793C46.4187 59.4415 46.8375 59.8011 47.2901 60.1582C47.7583 60.497 48.1381 60.7916 48.4294 61.0417C48.7208 61.2919 48.9105 61.5498 48.9988 61.8154C49.1027 62.0628 48.9917 62.3946 48.666 62.8108C47.3994 64.2856 46.0307 65.0874 44.5598 65.2162C43.1045 65.3267 41.6443 65.1483 40.1792 64.681C39.1486 64.3338 38.3158 64.1248 37.6807 64.0539C37.0456 63.983 36.5092 64.2024 36.0713 64.7123C35.5397 65.3313 35.6703 66.266 36.4631 67.5162C37.2715 68.7483 39.0504 70.5449 41.7997 72.9059C44.4944 75.2201 46.6028 76.7618 48.1249 77.5312C49.6289 78.2849 50.7561 78.2248 51.5066 77.3509C52.0852 76.6772 52.272 75.8886 52.0672 74.9851C51.8781 74.0634 51.1007 73.0162 49.7351 71.8435C48.6609 70.921 47.8635 70.3944 47.343 70.2637C46.8382 70.1149 46.4059 70.2498 46.0463 70.6686C45.9524 70.7778 45.7987 70.9938 45.5849 71.3164C45.3868 71.6207 45.2408 71.8276 45.147 71.9368C44.975 72.1371 44.7771 72.2202 44.5532 72.1861C44.345 72.1339 44.1772 72.053 44.0497 71.9436C43.9041 71.8185 43.8066 71.6557 43.7573 71.4552C43.7237 71.2365 43.7851 71.0361 43.9414 70.854C44.4731 70.235 45.1805 69.4664 46.0639 68.5483C46.9472 67.6303 47.7563 66.7433 48.4912 65.8876C48.8352 65.487 49.1936 65.0513 49.5663 64.5805C49.939 64.1097 50.3051 63.6649 50.6648 63.2461C51.0218 62.7935 51.332 62.3955 51.5952 62.0521C51.8741 61.6906 52.0761 61.4369 52.2012 61.2913C52.295 61.182 52.4265 61.121 52.5957 61.1081C52.7806 61.0771 52.9641 61.1397 53.1461 61.2961C53.3282 61.4524 53.4348 61.6231 53.4658 61.8079C53.4943 61.9589 53.446 62.1073 53.3209 62.2529C53.2584 62.3257 53.1802 62.4168 53.0864 62.526C52.99 62.6014 52.9105 62.6755 52.848 62.7484C52.6291 63.0033 52.4948 63.2517 52.4451 63.4938C52.3929 63.702 52.4642 63.9689 52.6591 64.2945C52.8358 64.6044 53.1635 64.9965 53.642 65.4707C54.1023 65.9293 54.7331 66.5026 55.5342 67.1906Z" fill="#85267A"/>
<path d="M60.4834 67.5941C60.5562 67.5315 60.6719 67.4637 60.8306 67.3906C60.9737 67.2993 61.0725 67.2301 61.1271 67.1832C61.4729 66.886 61.5909 66.563 61.4811 66.2143C61.3556 65.8475 61.0282 65.3377 60.4989 64.685C59.7348 63.7594 58.8548 62.6803 57.8586 61.4478C56.8469 60.1971 55.7778 58.9165 54.6514 57.6061C53.9787 56.8234 53.28 56.0474 52.5552 55.2778C51.8487 54.4927 51.1878 53.779 50.5725 53.1369C50.1789 52.7157 49.7879 52.3714 49.3997 52.1038C49.014 51.8023 48.6482 51.8002 48.3024 52.0975C48.175 52.207 48.0633 52.3347 47.9671 52.4806C47.8736 52.5927 47.7904 52.68 47.7176 52.7426C47.5356 52.899 47.3522 52.9618 47.1673 52.9308C47.0006 52.8842 46.8469 52.7789 46.7061 52.6151C46.5496 52.4331 46.4791 52.2406 46.4944 52.0375C46.5098 51.8345 46.5811 51.6782 46.7085 51.5687C47.4912 50.896 48.2803 50.2493 49.076 49.6286C49.8899 48.9923 50.7246 48.3065 51.58 47.5712C52.217 47.0237 53.036 46.3197 54.0371 45.4592C55.0224 44.5806 56.0169 43.6941 57.0205 42.7999C58.0241 41.9056 58.9718 41.0751 59.8636 40.3086C60.7398 39.5238 61.3781 38.9593 61.7785 38.6151C62.0515 38.3805 62.3246 38.2564 62.5979 38.243C62.8713 38.2297 63.1096 38.3413 63.313 38.5779C63.5164 38.8145 63.7798 39.1577 64.1032 39.6076C64.4109 40.0393 64.8073 40.5373 65.2923 41.1015C65.746 41.6293 66.21 42.1324 66.6845 42.6107C67.1771 43.0734 67.5173 43.4139 67.7051 43.6323C67.8771 43.8325 67.9712 44.0523 67.9871 44.2918C68.0031 44.5313 67.9109 44.7371 67.7107 44.9091C67.0919 45.4411 66.3125 45.6205 65.3725 45.4474C64.4508 45.2586 63.482 45.0153 62.4664 44.7173C61.4689 44.4037 60.4638 44.1917 59.451 44.0811C58.4564 43.955 57.5769 44.2204 56.8125 44.8775C56.3575 45.2686 56.2046 45.7165 56.3536 46.2213C56.5053 46.6923 56.7415 47.1697 57.0624 47.6534C57.5397 48.3191 58.073 49.0317 58.6624 49.791C59.27 50.5346 59.8776 51.2783 60.4851 52.022C60.6259 52.1858 60.7718 52.2819 60.9229 52.3103C61.0921 52.3231 61.2495 52.2669 61.3951 52.1417C61.7591 51.8288 61.9694 51.4107 62.0259 50.8874C62.1007 50.3485 62.1416 49.807 62.1486 49.2629C62.1582 48.685 62.1822 48.1422 62.2205 47.6345C62.2771 47.1112 62.4783 46.7009 62.8241 46.4037C62.9515 46.2942 63.1076 46.2549 63.2925 46.2859C63.4799 46.283 63.6753 46.3999 63.8787 46.6365C64.1133 46.9095 64.3676 47.2606 64.6416 47.6897C64.9337 48.1032 65.3848 48.6649 65.995 49.3747C66.7146 50.2119 67.2634 50.832 67.6414 51.2349C68.0377 51.6223 68.3688 51.9706 68.6347 52.28C68.8381 52.5166 68.8995 52.717 68.8191 52.8811C68.7386 53.0452 68.6177 53.1808 68.4565 53.2877C68.0299 53.5278 67.5484 53.5935 67.012 53.485C66.4756 53.3764 65.9327 53.2418 65.3832 53.0811C64.8519 52.9049 64.3246 52.7884 63.8013 52.7319C63.2779 52.6754 62.807 52.827 62.3884 53.1868C62.2064 53.3433 62.1168 53.5152 62.1197 53.7026C62.1407 53.8744 62.2295 54.0513 62.3859 54.2333C63.1838 55.1615 63.9829 56.0728 64.7833 56.9672C65.5838 57.8616 66.2668 58.6194 66.8326 59.2408C67.3853 59.8101 67.8439 60.1596 68.2085 60.2893C68.5757 60.3851 68.9595 60.2609 69.3599 59.9167C70.1971 59.1971 70.6384 58.3114 70.6838 57.2596C70.7136 56.1897 70.6587 55.1134 70.5192 54.0306C70.3798 52.9479 70.2872 51.9198 70.2416 50.9463C70.1986 49.9389 70.5137 49.1458 71.1872 48.567C71.3874 48.3949 71.5877 48.3334 71.7882 48.3826C71.9887 48.4318 72.1672 48.5474 72.3237 48.7294C72.5114 48.9478 72.797 49.3353 73.1804 49.8918C73.5482 50.4302 73.9668 50.9723 74.4361 51.5183C74.9837 52.1554 75.4803 52.6779 75.926 53.086C76.3717 53.4941 76.7197 53.8437 76.97 54.1349C77.1734 54.3715 77.2649 54.6252 77.2444 54.8959C77.2083 55.1485 77.072 55.3765 76.8354 55.5798C76.344 56.0022 75.6718 56.5642 74.819 57.2656C73.9843 57.9514 73.0768 58.6998 72.0966 59.5107C71.1163 60.3217 70.0996 61.1639 69.0466 62.0374C68.0117 62.8953 67.0575 63.6997 66.1839 64.4507C65.7834 64.7948 65.3454 65.1872 64.8696 65.6278C64.412 66.0528 63.9636 66.4699 63.5242 66.8792C63.103 67.2729 62.7092 67.6431 62.3426 67.9898C61.976 68.3365 61.6927 68.5959 61.4925 68.768C61.3104 68.9245 61.127 68.9872 60.9421 68.9562C60.7755 68.9096 60.6139 68.7953 60.4575 68.6133C60.3167 68.4495 60.2539 68.266 60.2693 68.063C60.2846 67.8599 60.356 67.7036 60.4834 67.5941Z" fill="#85267A"/>
<path d="M88.1721 47.578C87.5659 47.92 86.9833 48.3037 86.4242 48.7293C85.8534 49.1339 85.4008 49.4306 85.0663 49.6192C84.8154 49.7607 84.6083 49.8087 84.4448 49.7631C84.2604 49.7294 84.0916 49.5766 83.9383 49.3049C83.5138 48.5523 83.2065 47.3479 83.0163 45.6917C82.8469 44.0237 82.6827 42.2427 82.5236 40.3485C82.3736 38.4216 82.1504 36.536 81.8541 34.6916C81.5786 32.8355 81.1225 31.343 80.4858 30.2142C80.0613 29.4617 79.6066 29.0707 79.1215 29.0412C78.6573 28.9999 78.258 29.0736 77.9236 29.2622C77.7354 29.3684 77.5486 29.5013 77.3632 29.661C77.1986 29.8089 77.0327 29.9301 76.8655 30.0244C76.6356 30.1541 76.4166 30.1811 76.2087 30.1056C76.0007 30.03 75.8436 29.8981 75.7375 29.71C75.6432 29.5428 75.6175 29.3506 75.6604 29.1335C75.7033 28.9165 75.8397 28.7431 76.0696 28.6134C76.3414 28.4601 76.7653 28.2347 77.3415 27.9373C77.9177 27.6398 78.5521 27.3233 79.2446 26.9878C79.9253 26.6314 80.6165 26.2691 81.3181 25.9009C82.0406 25.5209 82.6632 25.1835 83.1858 24.8888C84.3146 24.252 85.3316 23.637 86.2369 23.0437C87.1422 22.4504 87.7203 22.083 87.9711 21.9415C88.2429 21.7882 88.52 21.7421 88.8025 21.8033C89.1058 21.8526 89.3636 22.0654 89.5759 22.4416C90.1654 23.4868 91.065 24.7153 92.2747 26.1272C93.4935 27.5063 94.809 28.886 96.2213 30.2662C97.6218 31.6255 99.0287 32.8985 100.442 34.0852C101.855 35.2719 103.062 36.1896 104.062 36.8382C104.349 37.0065 104.566 37.1461 104.711 37.2571C104.877 37.3562 105.002 37.479 105.084 37.6253C105.167 37.7716 105.196 37.9206 105.171 38.0723C105.146 38.224 105.05 38.347 104.883 38.4413C104.486 38.6654 103.82 38.9995 102.886 39.4438C101.973 39.8763 101.004 40.3815 99.9796 40.9592C99.5615 41.1951 99.0344 41.5062 98.3981 41.8926C97.7828 42.2672 97.1779 42.636 96.5835 42.9988C95.9891 43.3617 95.4574 43.6891 94.9884 43.9812C94.5194 44.2733 94.2431 44.443 94.1595 44.4901C93.9295 44.6198 93.7269 44.6515 93.5517 44.585C93.3973 44.5067 93.2612 44.3631 93.1432 44.154C93.0371 43.9659 93.001 43.7797 93.0347 43.5953C93.0894 43.3991 93.2108 43.248 93.3989 43.1418C93.5244 43.0711 93.672 43.0154 93.8419 42.9746C94.0001 42.913 94.2045 42.8114 94.4554 42.6699C94.7689 42.4931 94.9359 42.1785 94.9563 41.7261C94.9767 41.2737 94.7864 40.6922 94.3855 39.9814C94.02 39.3334 93.6998 38.8389 93.4248 38.4981C93.1499 38.1572 92.8607 37.962 92.5573 37.9127C92.2631 37.8307 91.916 37.8749 91.5162 38.0453C91.1045 38.1949 90.5747 38.4524 89.9267 38.8179C88.7979 39.4546 88.1402 39.9496 87.9537 40.3028C87.788 40.6442 87.8172 41.0135 88.0413 41.4107C88.3125 41.8915 88.6437 42.2833 89.035 42.5862C89.4262 42.889 89.8161 43.165 90.2047 43.4143C90.6024 43.6308 90.9674 43.8383 91.2997 44.0366C91.632 44.2349 91.8689 44.4595 92.0104 44.7104C92.1283 44.9194 92.1763 45.1266 92.1543 45.3318C92.1323 45.5371 92.0168 45.6987 91.8078 45.8166C91.7033 45.8756 91.4988 45.9771 91.1943 46.1213C90.9108 46.2537 90.5854 46.4097 90.2183 46.5892C89.8393 46.7478 89.4663 46.9169 89.0991 47.0965C88.732 47.276 88.423 47.4365 88.1721 47.578ZM84.3713 35.7104C84.8076 36.4838 85.1867 37.0828 85.5089 37.5073C85.831 37.9318 86.1568 38.2164 86.4865 38.3612C86.8043 38.485 87.154 38.4944 87.5357 38.3893C87.9055 38.2634 88.3517 38.053 88.8743 37.7582C89.9613 37.1451 90.5713 36.6633 90.7042 36.3127C90.8581 35.9504 90.8452 35.5857 90.6657 35.2185C90.5006 34.9259 90.257 34.5673 89.9349 34.1428C89.601 33.6974 89.2239 33.2487 88.8037 32.7969C88.3926 32.3123 87.9384 31.8246 87.441 31.3336C86.9318 30.8217 86.4195 30.353 85.9039 29.9274C84.9798 29.0708 84.3294 28.5284 83.9526 28.3001C83.5641 28.0508 83.213 28.0146 82.8994 28.1915C82.5859 28.3684 82.3934 28.7111 82.3221 29.2198C82.2717 29.7166 82.3176 30.3108 82.4596 31.0022C82.6225 31.6818 82.8698 32.4379 83.2016 33.2702C83.5215 34.0817 83.9114 34.8951 84.3713 35.7104Z" fill="#85267A"/>
<path d="M102.07 15.4661C103.087 15.0359 104.044 14.618 104.941 14.2125C105.828 13.7848 106.725 13.3793 107.631 12.9958C107.852 12.9023 108.035 12.9032 108.179 12.9984C108.324 13.0936 108.443 13.2517 108.537 13.4727C108.602 13.6274 108.628 13.8119 108.614 14.0261C108.591 14.2183 108.469 14.3611 108.248 14.4546C108.138 14.5014 108.001 14.5464 107.837 14.5898C107.663 14.6111 107.499 14.6544 107.344 14.7199C106.924 14.8976 106.753 15.2308 106.829 15.7197C106.918 16.177 107.064 16.6756 107.267 17.2154C107.587 18.0962 107.936 19.0432 108.312 20.0565C108.711 21.0605 109.126 22.0708 109.556 23.0876C110.192 24.5906 110.836 26.051 111.488 27.469C112.14 28.887 112.706 30.1328 113.187 31.2065C113.536 31.9707 113.847 32.4906 114.12 32.766C114.384 33.0193 114.725 33.0572 115.145 32.8795C115.234 32.842 115.34 32.7842 115.463 32.706C115.608 32.6184 115.747 32.5466 115.88 32.4905C116.101 32.397 116.288 32.4089 116.442 32.5262C116.587 32.6214 116.692 32.7463 116.757 32.9011C116.851 33.1221 116.881 33.3176 116.849 33.4876C116.817 33.6577 116.69 33.7894 116.469 33.883C116.226 33.9858 115.894 34.1261 115.474 34.3038C115.045 34.4594 114.587 34.6401 114.101 34.8458C113.606 35.0295 113.092 35.2335 112.562 35.458C112.022 35.6604 111.52 35.8597 111.056 36.0561C110.57 36.2619 110.033 36.5021 109.446 36.7767C108.849 37.0292 108.279 37.2834 107.736 37.5393C107.183 37.7731 106.679 37.9993 106.224 38.2178C105.76 38.4142 105.407 38.5638 105.164 38.6667C104.943 38.7602 104.749 38.7641 104.582 38.6782C104.438 38.583 104.318 38.4249 104.225 38.2039C104.16 38.0491 104.143 37.8868 104.175 37.7167C104.22 37.5153 104.353 37.3678 104.574 37.2742C104.663 37.2368 104.789 37.1964 104.953 37.1531C105.117 37.1097 105.232 37.074 105.299 37.0459C105.719 36.8682 105.929 36.5966 105.931 36.2311C105.923 35.8434 105.767 35.2581 105.462 34.4752C105.026 33.3828 104.53 32.1199 103.976 30.6866C103.412 29.2313 102.812 27.7521 102.176 26.2491C101.746 25.2324 101.299 24.236 100.834 23.2601C100.391 22.2748 99.9647 21.3605 99.5557 20.5172C99.3092 19.9961 99.0371 19.5379 98.7395 19.1426C98.4641 18.738 98.1164 18.6245 97.6964 18.8022C97.5417 18.8677 97.3963 18.9552 97.2603 19.0649C97.1371 19.1431 97.0312 19.2009 96.9428 19.2384C96.7218 19.3319 96.5233 19.3247 96.3473 19.2167C96.1841 19.0773 96.0697 18.9302 96.0042 18.7755C95.9107 18.5545 95.8801 18.3589 95.9124 18.1889C95.9668 18.0095 96.1045 17.8731 96.3255 17.7796C97.2539 17.3868 98.1915 17.0161 99.1385 16.6675C100.076 16.2968 101.053 15.8963 102.07 15.4661Z" fill="#85267A"/>
<path d="M116.553 16.1879C116.481 16.1092 116.383 16.0752 116.261 16.0857C116.156 16.0666 116.057 16.0704 115.965 16.0973C115.849 16.1309 115.751 16.2221 115.669 16.3709C115.581 16.4967 115.571 16.6748 115.638 16.9052C116.397 19.5086 117.296 21.559 118.333 23.0565C119.37 24.5539 120.366 25.7384 121.32 26.61C122.268 27.4585 123.112 28.1246 123.853 28.6083C124.588 29.069 125.036 29.5758 125.197 30.1288C125.271 30.3822 125.27 30.5948 125.196 30.7667C125.121 30.9386 124.968 31.0581 124.738 31.1253C124.139 31.3001 123.513 31.4701 122.861 31.6354C122.203 31.7775 121.586 31.9327 121.01 32.1007C120.088 32.3697 119.288 32.628 118.611 32.8758C117.949 33.0938 117.434 33.2566 117.066 33.3642C116.904 33.4113 116.749 33.394 116.601 33.3124C116.445 33.2078 116.337 33.0518 116.277 32.8445C116.189 32.545 116.203 32.1658 116.32 31.7069C116.459 31.2412 116.537 30.4809 116.554 29.4259C116.571 28.3708 116.433 26.9112 116.139 25.0469C115.861 23.1528 115.265 20.6392 114.35 17.5059C114.001 16.3078 113.702 15.3699 113.454 14.6922C113.23 14.0078 113.024 13.5177 112.838 13.2221C112.675 12.9197 112.502 12.7575 112.321 12.7354C112.133 12.6903 111.923 12.7014 111.693 12.7686C111.486 12.8291 111.308 12.906 111.16 12.9991C111.029 13.0625 110.894 13.1144 110.756 13.1547C110.571 13.2085 110.401 13.1831 110.246 13.0784C110.09 12.9738 109.982 12.8178 109.922 12.6105C109.868 12.4262 109.879 12.2481 109.953 12.0762C110.022 11.8814 110.148 11.757 110.332 11.7032C111.184 11.4545 112.078 11.2187 113.013 10.9958C113.971 10.7662 114.911 10.517 115.833 10.248C116.616 10.0194 117.462 9.74765 118.37 9.43264C119.301 9.1109 120.158 8.83574 120.942 8.60715C121.333 8.49285 121.635 8.54225 121.847 8.75534C122.076 8.93867 122.27 9.21944 122.431 9.59766C122.858 10.548 123.437 11.5041 124.168 12.4659C124.915 13.3979 125.738 14.3329 126.636 15.2707C127.551 16.1787 128.512 17.0733 129.519 17.9544C130.55 18.8288 131.573 19.6802 132.59 20.5085C132.722 20.6199 132.868 20.6899 133.026 20.7187C133.201 20.7177 133.346 20.7004 133.461 20.6668C133.576 20.6332 133.675 20.542 133.756 20.3932C133.838 20.2443 133.845 20.0547 133.778 19.8243C133.166 17.7278 132.423 16.082 131.549 14.8869C130.676 13.6918 129.82 12.7291 128.982 11.9986C128.143 11.2682 127.388 10.651 126.716 10.1471C126.037 9.62018 125.59 8.98808 125.375 8.25083C125.308 8.02044 125.331 7.80108 125.446 7.59274C125.553 7.36137 125.745 7.20534 126.022 7.12466C126.604 6.97962 127.164 6.8413 127.701 6.7097C128.26 6.57138 128.794 6.42826 129.3 6.28035C129.876 6.11227 130.426 5.93939 130.949 5.76171C131.472 5.58404 131.961 5.41645 132.415 5.25894C132.691 5.17826 132.922 5.19839 133.108 5.31932C133.293 5.44025 133.419 5.61592 133.486 5.84631C133.574 6.14581 133.563 6.53654 133.453 7.01847C133.344 7.50041 133.254 8.17674 133.183 9.04747C133.128 9.88844 133.174 10.9876 133.32 12.3451C133.46 13.6794 133.829 15.3719 134.427 17.4223C134.588 17.9753 134.816 18.6712 135.111 19.5102C135.429 20.3425 135.739 21.1897 136.04 22.0517C136.365 22.907 136.661 23.7081 136.929 24.4549C137.213 25.172 137.399 25.6803 137.487 25.9798C137.614 26.4176 137.643 26.7718 137.572 27.0425C137.494 27.2902 137.259 27.4712 136.868 27.5855C136.453 27.7065 135.986 27.818 135.465 27.9198C134.945 28.0216 134.466 28.1364 134.028 28.2642C133.475 28.4255 132.929 28.6099 132.39 28.8173C131.85 29.0248 131.35 29.1957 130.889 29.3302C130.451 29.4579 130.09 29.4633 129.806 29.3462C129.515 29.2061 129.221 28.9671 128.922 28.6292C127.711 27.3075 126.474 25.9809 125.211 24.6496C123.963 23.2885 122.776 22.0474 121.649 20.9262C120.538 19.7754 119.535 18.7805 118.64 17.9416C117.745 17.1026 117.05 16.5181 116.553 16.1879Z" fill="#85267A"/>
<path d="M137.921 14.3501C137.865 14.0433 137.908 13.8156 138.052 13.6672C138.219 13.5144 138.456 13.4098 138.763 13.3533C138.952 13.3185 139.192 13.2986 139.484 13.2937C139.772 13.2651 140.057 13.2248 140.34 13.1726C141.426 12.9727 142.216 12.5587 142.711 11.9308C143.229 11.2985 143.435 10.6992 143.331 10.1327C143.288 9.89666 143.198 9.7423 143.063 9.66962C142.947 9.56899 142.806 9.53389 142.641 9.56432C142.405 9.60778 142.208 9.72951 142.049 9.9295C141.886 10.1059 141.704 10.3102 141.503 10.5425C141.325 10.7705 141.098 10.9953 140.822 11.217C140.541 11.4151 140.177 11.5555 139.728 11.6381C138.855 11.7989 138.097 11.6578 137.454 11.2149C136.807 10.7484 136.377 9.93689 136.164 8.78034C135.951 7.62378 136.108 6.55763 136.636 5.58187C137.16 4.58251 138.118 3.95461 139.511 3.69818C140.927 3.43739 142.121 3.69338 143.093 4.46612C144.089 5.23452 144.739 6.44484 145.043 8.09706C145.338 9.70207 144.984 11.1583 143.98 12.4657C142.996 13.7452 141.371 14.5935 139.105 15.0108C138.798 15.0673 138.539 15.0539 138.329 14.9706C138.114 14.8638 137.978 14.657 137.921 14.3501Z" fill="#85267A"/>
<path d="M158.009 2.05388C159.612 1.92574 161.248 1.75886 162.917 1.55322C164.608 1.32174 166.277 1.12806 167.926 0.972175C168.453 0.930102 168.787 1.04783 168.93 1.32535C169.07 1.57895 169.158 1.92106 169.192 2.35169C169.226 3.07131 169.25 3.82777 169.265 4.62108C169.303 5.38855 169.353 6.16703 169.416 6.95651C169.448 7.36321 169.497 7.8168 169.561 8.31729C169.647 8.79194 169.72 9.25558 169.78 9.70822C169.863 10.135 169.93 10.5269 169.983 10.8838C170.059 11.2389 170.103 11.4882 170.115 11.6317C170.139 11.9427 170.088 12.1996 169.96 12.4025C169.853 12.5795 169.669 12.6786 169.405 12.6996C168.712 12.7551 168.121 12.5976 167.634 12.2272C167.145 11.833 166.718 11.3133 166.354 10.6683C166.013 10.0214 165.714 9.28692 165.455 8.46489C165.219 7.61702 164.982 6.75719 164.744 5.8854C164.498 4.91792 164.235 4.19254 163.956 3.70927C163.674 3.20207 163.318 2.96569 162.888 3.00011C162.529 3.0288 162.276 3.18141 162.13 3.45796C162.005 3.70867 161.961 4.0613 161.998 4.51585C162.346 8.86997 162.654 12.2762 162.923 14.7346C163.19 17.1691 163.454 18.9658 163.715 20.1247C163.998 21.2577 164.294 21.9443 164.602 22.1845C164.932 22.3989 165.312 22.4889 165.743 22.4545C166.102 22.4258 166.398 22.366 166.632 22.2751C166.889 22.1823 167.137 22.1263 167.377 22.1072C167.592 22.09 167.777 22.1474 167.932 22.2795C168.087 22.4115 168.174 22.5972 168.193 22.8364C168.212 23.0757 168.181 23.2828 168.099 23.4579C168.016 23.6331 167.82 23.7331 167.509 23.7579C167.198 23.7828 166.731 23.8201 166.109 23.8698C165.509 23.8937 164.838 23.9353 164.097 23.9946C163.379 24.0519 162.625 24.1122 161.836 24.1753C161.044 24.2145 160.314 24.2608 159.644 24.3144C158.974 24.3679 158.245 24.4382 157.458 24.5253C156.692 24.5864 155.951 24.6457 155.233 24.7031C154.515 24.7605 153.846 24.826 153.226 24.8996C152.628 24.9474 152.173 24.9838 151.862 25.0086C151.575 25.0316 151.377 24.9632 151.268 24.8033C151.159 24.6435 151.095 24.444 151.076 24.2048C151.057 23.9655 151.113 23.7684 151.245 23.6134C151.377 23.4584 151.539 23.3732 151.731 23.3579C151.97 23.3388 152.212 23.3556 152.457 23.4082C152.726 23.4589 153.04 23.47 153.398 23.4413C153.829 23.4068 154.178 23.2585 154.446 22.9964C154.736 22.7083 154.919 21.9835 154.995 20.8217C155.092 19.6342 155.08 17.8174 154.956 15.3715C154.831 12.9016 154.595 9.48959 154.246 5.13548C154.21 4.68093 154.099 4.34073 153.912 4.11488C153.747 3.8632 153.486 3.7517 153.127 3.78038C152.696 3.81481 152.382 4.10474 152.185 4.65019C152.01 5.1698 151.866 5.92769 151.753 6.92386C151.656 7.82242 151.547 8.70998 151.424 9.58653C151.324 10.4372 151.157 11.209 150.923 11.9018C150.69 12.5946 150.351 13.1755 149.907 13.6444C149.485 14.0874 148.927 14.3366 148.233 14.3921C147.97 14.4131 147.76 14.3457 147.603 14.1897C147.468 14.0078 147.388 13.7614 147.363 13.4504C147.352 13.3069 147.344 13.0547 147.339 12.694C147.358 12.3313 147.374 11.9327 147.388 11.4983C147.399 11.0399 147.398 10.5705 147.383 10.0901C147.391 9.58389 147.379 9.12743 147.346 8.72073C147.283 7.93125 147.197 7.15564 147.088 6.39391C146.977 5.60825 146.881 4.85752 146.8 4.14173C146.765 3.7111 146.797 3.35942 146.896 3.0867C147.016 2.78814 147.34 2.61783 147.866 2.57575C149.519 2.46772 151.198 2.39366 152.905 2.35357C154.609 2.28956 156.31 2.18966 158.009 2.05388Z" fill="#85267A"/>
<path d="M185.936 7.72164C185.9 7.62057 185.823 7.55092 185.707 7.51269C185.618 7.45351 185.525 7.41816 185.43 7.40664C185.311 7.39223 185.184 7.43739 185.051 7.54211C184.92 7.62301 184.841 7.7826 184.812 8.02086C184.486 10.7132 184.506 12.9518 184.87 14.7364C185.234 16.5211 185.684 18.0017 186.218 19.1784C186.756 20.3313 187.27 21.2759 187.761 22.0122C188.255 22.7246 188.468 23.3668 188.399 23.9386C188.367 24.2007 188.283 24.396 188.146 24.5246C188.01 24.6531 187.823 24.703 187.584 24.6742C186.965 24.5993 186.323 24.5096 185.659 24.4051C184.997 24.2767 184.369 24.1766 183.773 24.1045C182.82 23.9893 181.983 23.9123 181.263 23.8735C180.569 23.8137 180.031 23.7608 179.65 23.7147C179.483 23.6945 179.348 23.6177 179.243 23.4842C179.141 23.3268 179.103 23.1409 179.129 22.9265C179.167 22.6167 179.329 22.2737 179.616 21.8975C179.927 21.5241 180.298 20.8558 180.729 19.8926C181.16 18.9293 181.607 17.5329 182.07 15.7032C182.559 13.8526 183 11.3071 183.392 8.06674C183.542 6.82777 183.636 5.848 183.675 5.12745C183.737 4.40977 183.741 3.87839 183.686 3.53329C183.655 3.19108 183.561 2.97415 183.402 2.8825C183.247 2.76703 183.05 2.69488 182.812 2.66607C182.598 2.64014 182.404 2.64092 182.232 2.6684C182.086 2.67494 181.941 2.66956 181.798 2.65228C181.608 2.62923 181.462 2.53902 181.36 2.38165C181.258 2.22429 181.22 2.03839 181.246 1.82395C181.269 1.63334 181.349 1.47376 181.485 1.3452C181.624 1.19282 181.789 1.12816 181.98 1.15121C182.862 1.25782 183.776 1.39257 184.723 1.55548C185.694 1.72126 186.656 1.86178 187.61 1.97703C188.42 2.075 189.304 2.15778 190.263 2.22538C191.246 2.29586 192.142 2.38008 192.952 2.47804C193.357 2.52703 193.615 2.69121 193.726 2.97059C193.864 3.22902 193.933 3.56364 193.931 3.97445C193.951 5.01628 194.107 6.12304 194.4 7.29475C194.72 8.4455 195.109 9.62873 195.566 10.8444C196.051 12.0392 196.582 13.2397 197.162 14.446C197.765 15.6552 198.371 16.8405 198.98 18.002C199.058 18.1565 199.164 18.2781 199.298 18.3669C199.459 18.4347 199.599 18.4758 199.719 18.4902C199.838 18.5046 199.964 18.4595 200.098 18.3547C200.231 18.25 200.312 18.0785 200.341 17.8402C200.603 15.672 200.568 13.8667 200.235 12.4243C199.901 10.9818 199.493 9.75999 199.01 8.75873C198.527 7.75747 198.075 6.89301 197.655 6.16537C197.239 5.41389 197.076 4.65693 197.168 3.89449C197.197 3.65623 197.305 3.46379 197.492 3.31717C197.682 3.14673 197.92 3.07879 198.206 3.11337C198.798 3.20923 199.367 3.30221 199.913 3.3923C200.482 3.48528 201.028 3.56346 201.552 3.62685C202.148 3.69888 202.721 3.75612 203.272 3.79856C203.823 3.84101 204.338 3.87913 204.818 3.91293C205.103 3.9475 205.308 4.05683 205.431 4.2409C205.553 4.42497 205.6 4.63614 205.572 4.8744C205.534 5.18415 205.37 5.53905 205.08 5.93911C204.79 6.33918 204.441 6.92553 204.033 7.69817C203.652 8.44987 203.262 9.47845 202.863 10.7839C202.466 12.0656 202.139 13.7667 201.883 15.8872C201.814 16.459 201.75 17.1886 201.691 18.076C201.655 18.9662 201.607 19.8669 201.545 20.778C201.507 21.6921 201.464 22.5451 201.417 23.3372C201.396 24.1083 201.367 24.6487 201.33 24.9584C201.275 25.4111 201.162 25.748 200.99 25.9689C200.821 26.1661 200.534 26.2402 200.129 26.1912C199.7 26.1393 199.227 26.0579 198.708 25.9468C198.19 25.8358 197.704 25.7529 197.251 25.6982C196.68 25.629 196.105 25.5837 195.527 25.5622C194.95 25.5407 194.423 25.5011 193.946 25.4435C193.493 25.3887 193.159 25.2517 192.944 25.0322C192.732 24.789 192.555 24.4533 192.413 24.0252C191.82 22.3338 191.204 20.6275 190.566 18.9065C189.955 17.1645 189.352 15.5564 188.757 14.0823C188.188 12.5872 187.657 11.278 187.165 10.1548C186.672 9.03148 186.262 8.22044 185.936 7.72164Z" fill="#85267A"/>
<path d="M228.463 23.5598C227.55 26.7932 225.982 29.0313 223.761 30.2741C221.545 31.4938 218.336 31.5098 214.133 30.3221C209.952 29.141 207.231 27.4743 205.969 25.322C204.729 23.1762 204.583 20.4288 205.529 17.0799C206.084 15.1168 206.783 13.3939 207.626 11.9112C208.491 10.4351 209.531 9.26993 210.745 8.41583C211.959 7.56172 213.379 7.03998 215.003 6.8506C216.651 6.66774 218.514 6.86996 220.593 7.45726C222.695 8.05108 224.385 8.86534 225.664 9.90004C226.966 10.9413 227.907 12.155 228.488 13.5412C229.099 14.9108 229.375 16.4479 229.318 18.1524C229.29 19.8404 229.005 21.6429 228.463 23.5598ZM220.08 21.191C220.686 19.0431 221.152 17.2171 221.478 15.7128C221.803 14.2086 221.974 12.985 221.991 12.0421C222.015 11.0761 221.874 10.3381 221.569 9.82799C221.264 9.31791 220.812 8.97803 220.211 8.80837C219.611 8.6387 219.047 8.69145 218.521 8.96662C218.017 9.24832 217.523 9.80691 217.037 10.6424C216.558 11.4548 216.064 12.587 215.554 14.039C215.044 15.491 214.497 17.2943 213.913 19.4487C213.166 22.1806 212.826 24.1793 212.892 25.4451C212.982 26.7173 213.627 27.5231 214.828 27.8624C216.052 28.2083 217.035 27.8625 217.777 26.8252C218.519 25.7879 219.286 23.9098 220.08 21.191Z" fill="#85267A"/>
<path d="M245.541 17.4848C247.006 18.1478 248.518 18.7928 250.078 19.4199C251.67 20.035 253.226 20.673 254.744 21.3339C255.225 21.5516 255.461 21.8164 255.452 22.1282C255.452 22.4182 255.363 22.76 255.185 23.1536C254.867 23.7996 254.522 24.4735 254.152 25.1753C253.813 25.8651 253.481 26.5708 253.154 27.2923C252.986 27.664 252.809 28.0844 252.623 28.5535C252.469 29.0106 252.309 29.4518 252.143 29.8771C252.008 30.2905 251.878 30.6661 251.751 31.004C251.646 31.3517 251.564 31.5912 251.505 31.7224C251.376 32.0067 251.207 32.2066 250.997 32.3221C250.818 32.4257 250.608 32.4231 250.368 32.3142C249.734 32.0272 249.293 31.6039 249.046 31.0442C248.809 30.4626 248.686 29.8014 248.679 29.0605C248.694 28.3296 248.787 27.5419 248.958 26.6974C249.161 25.841 249.37 24.9737 249.583 24.0954C249.835 23.1296 249.956 22.3677 249.945 21.8096C249.944 21.2296 249.747 20.8506 249.353 20.6724C249.026 20.524 248.731 20.5354 248.469 20.7067C248.239 20.866 248.029 21.1533 247.841 21.5688C246.041 25.5482 244.663 28.6789 243.71 30.9607C242.766 33.2206 242.128 34.9209 241.796 36.0615C241.496 37.1902 241.423 37.9342 241.577 38.2935C241.762 38.6408 242.051 38.9035 242.445 39.0816C242.773 39.23 243.061 39.3209 243.309 39.3542C243.58 39.3975 243.824 39.4686 244.043 39.5676C244.239 39.6566 244.374 39.7964 244.446 39.987C244.517 40.1775 244.504 40.3821 244.405 40.6008C244.306 40.8195 244.178 40.9855 244.021 41.099C243.865 41.2125 243.644 41.2049 243.36 41.0762C243.076 40.9476 242.649 40.7547 242.081 40.4974C241.544 40.2281 240.937 39.9401 240.259 39.6334C239.603 39.3365 238.914 39.0248 238.193 38.6983C237.481 38.3499 236.819 38.0372 236.207 37.7601C235.595 37.483 234.923 37.1922 234.191 36.8875C233.492 36.5708 232.814 36.2641 232.158 35.9672C231.502 35.6704 230.885 35.4043 230.306 35.1688C229.76 34.9215 229.344 34.7335 229.06 34.6048C228.798 34.4861 228.657 34.3304 228.639 34.1378C228.621 33.9451 228.661 33.7395 228.76 33.5208C228.859 33.3022 229.004 33.1569 229.195 33.0851C229.385 33.0133 229.568 33.017 229.743 33.0961C229.962 33.1951 230.165 33.3268 230.354 33.4914C230.565 33.6658 230.835 33.8273 231.162 33.9757C231.556 34.1538 231.934 34.1929 232.295 34.093C232.688 33.9811 233.199 33.435 233.827 32.4548C234.486 31.4625 235.354 29.8661 236.429 27.6656C237.513 25.4431 238.956 22.3422 240.757 18.3627C240.945 17.9473 241.012 17.5956 240.958 17.3077C240.936 17.0078 240.76 16.7837 240.432 16.6352C240.039 16.4571 239.624 16.5591 239.188 16.9412C238.783 17.3113 238.29 17.905 237.71 18.7223C237.191 19.4621 236.665 20.1859 236.134 20.8939C235.635 21.5899 235.116 22.1847 234.576 22.6782C234.037 23.1717 233.459 23.5162 232.844 23.7119C232.26 23.8956 231.651 23.844 231.017 23.557C230.777 23.4482 230.625 23.2875 230.563 23.0751C230.533 22.8507 230.583 22.5964 230.711 22.3121C230.771 22.1809 230.885 21.9563 231.056 21.6382C231.248 21.33 231.455 20.989 231.677 20.6153C231.908 20.2196 232.134 19.8081 232.354 19.3807C232.605 18.9413 232.815 18.5358 232.984 18.1641C233.31 17.4425 233.61 16.722 233.883 16.0025C234.166 15.2612 234.444 14.5576 234.719 13.8917C234.898 13.4981 235.096 13.2058 235.314 13.0148C235.564 12.8118 235.929 12.8191 236.41 13.0368C237.909 13.7415 239.415 14.4888 240.928 15.2788C242.451 16.0469 243.988 16.7823 245.541 17.4848Z" fill="#85267A"/>
<path d="M259.164 50.6243C258.984 50.5061 258.886 50.3705 258.871 50.2175C258.89 50.0576 258.958 49.8873 259.076 49.7065C259.182 49.5458 259.304 49.4249 259.443 49.3438C259.615 49.2558 259.792 49.2709 259.972 49.3891C260.374 49.6519 260.704 49.6956 260.962 49.5203C261.253 49.338 261.56 49.0224 261.882 48.5736C262.461 47.7764 263.056 46.9325 263.667 46.0418C264.292 45.131 264.926 44.1836 265.57 43.1994C266.056 42.4563 266.231 41.9256 266.095 41.6072C265.992 41.2819 265.439 40.7909 264.435 40.134C263.43 39.4771 262.759 39.1668 262.419 39.203C262.08 39.2393 261.674 39.6189 261.201 40.342C260.557 41.3261 259.943 42.2867 259.359 43.2238C258.788 44.1407 258.253 45.0241 257.755 45.8738C257.473 46.3489 257.297 46.7499 257.226 47.0766C257.189 47.3965 257.371 47.6878 257.773 47.9505C257.954 48.0688 258.028 48.2179 257.997 48.3979C257.998 48.571 257.953 48.7278 257.861 48.8684C257.73 49.0692 257.584 49.2036 257.425 49.2716C257.299 49.3326 257.146 49.304 256.965 49.1858C256.403 48.8179 255.736 48.3677 254.966 47.8353C254.216 47.316 253.439 46.7936 252.636 46.2681C251.712 45.6637 250.762 45.0563 249.784 44.4458C248.827 43.8484 248.017 43.3329 247.354 42.8994C247.214 42.8074 247.123 42.6617 247.081 42.4624C247.059 42.2762 247.114 42.0827 247.246 41.8818C247.364 41.7011 247.503 41.5767 247.662 41.5088C247.854 41.4339 248.041 41.4555 248.222 41.5738C248.322 41.6394 248.429 41.7384 248.544 41.8705C248.671 41.9825 248.775 42.0648 248.855 42.1174C249.237 42.367 249.59 42.3539 249.913 42.0782C250.27 41.7955 250.643 41.3795 251.031 40.8303C251.741 39.8322 252.533 38.687 253.407 37.3946C254.301 36.1154 255.182 34.813 256.049 33.4874C256.653 32.5635 257.231 31.6365 257.782 30.7064C258.353 29.7894 258.875 28.9262 259.347 28.1166C259.642 27.6214 259.864 27.1502 260.014 26.7029C260.196 26.2486 260.096 25.8967 259.715 25.6471C259.574 25.5551 259.42 25.4832 259.254 25.4314C259.12 25.3727 259.003 25.3105 258.902 25.2448C258.702 25.1134 258.6 24.9612 258.599 24.7881C258.611 24.595 258.676 24.408 258.794 24.2273C258.925 24.0264 259.08 23.8986 259.26 23.8438C259.459 23.8021 259.629 23.8272 259.77 23.9192C260.593 24.4578 261.42 25.0131 262.25 25.585C263.081 26.1568 263.958 26.7449 264.882 27.3493C265.665 27.8617 266.425 28.3443 267.161 28.7971C267.917 29.2632 268.647 29.7261 269.35 30.1859C269.531 30.3041 269.612 30.4432 269.593 30.6031C269.608 30.7561 269.556 30.923 269.438 31.1037C269.346 31.2443 269.214 31.3587 269.042 31.4467C268.889 31.5479 268.723 31.5394 268.542 31.4211C268.14 31.1584 267.791 31.1448 267.493 31.3804C267.209 31.5959 266.932 31.8878 266.662 32.2563C266.228 32.8326 265.791 33.4355 265.35 34.0651C264.91 34.6947 264.466 35.3509 264.019 36.0338C263.586 36.6966 263.417 37.174 263.513 37.4661C263.642 37.7512 264.218 38.2287 265.243 38.8988C266.307 39.5951 266.992 39.9286 267.298 39.8993C267.617 39.8499 267.98 39.5139 268.388 38.8912C268.834 38.2083 269.251 37.549 269.639 36.9133C270.039 36.2574 270.423 35.605 270.79 34.9561C271.019 34.5614 271.182 34.1805 271.279 33.8136C271.376 33.4466 271.223 33.1317 270.821 32.869C270.641 32.7507 270.549 32.6051 270.548 32.432C270.58 32.252 270.641 32.0917 270.733 31.9511C270.852 31.7704 270.974 31.6495 271.1 31.5885C271.259 31.5205 271.429 31.5457 271.61 31.6639C272.313 32.1237 273.019 32.6001 273.729 33.0932C274.459 33.5994 275.216 34.1086 275.999 34.621C276.923 35.2254 277.813 35.7934 278.67 36.3251C279.527 36.8568 280.367 37.3919 281.19 37.9306C281.331 38.0226 281.412 38.1616 281.433 38.3478C281.475 38.5472 281.43 38.7473 281.299 38.9481C281.181 39.1289 281.035 39.2633 280.863 39.3513C280.704 39.4193 280.524 39.3876 280.323 39.2562C280.223 39.1905 280.119 39.1082 280.011 39.0093C279.917 38.8903 279.8 38.7848 279.659 38.6928C279.277 38.4432 278.905 38.4864 278.542 38.8224C278.212 39.1515 277.879 39.5505 277.544 40.0194C276.971 40.7633 276.379 41.5806 275.768 42.4712C275.157 43.3619 274.549 44.2692 273.945 45.1931C273.077 46.5187 272.227 47.8408 271.393 49.1595C270.579 50.4913 269.858 51.6825 269.228 52.7331C268.88 53.3086 268.638 53.8099 268.502 54.2372C268.379 54.6443 268.508 54.9727 268.89 55.2223C268.97 55.2748 269.087 55.337 269.241 55.4089C269.408 55.4607 269.542 55.5195 269.642 55.5851C269.843 55.7165 269.937 55.8788 269.926 56.0719C269.927 56.245 269.869 56.4219 269.751 56.6027C269.619 56.8035 269.464 56.9314 269.285 56.9862C269.106 57.041 268.936 57.0158 268.775 56.9107C268.152 56.5035 267.376 55.9811 266.445 55.3435C265.534 54.7191 264.637 54.1178 263.753 53.5398C262.909 52.988 262.079 52.4594 261.263 51.954C260.446 51.4485 259.747 51.0053 259.164 50.6243Z" fill="#85267A"/>
<path d="M288.409 44.5666C289.25 45.2826 290.052 45.9506 290.817 46.5706C291.597 47.1723 292.361 47.7923 293.11 48.4305C293.293 48.5862 293.374 48.7499 293.354 48.9218C293.333 49.0937 293.245 49.2709 293.09 49.4536C292.981 49.5815 292.827 49.6873 292.63 49.7712C292.448 49.8368 292.265 49.7918 292.083 49.6361C291.991 49.5583 291.889 49.4558 291.777 49.3285C291.68 49.183 291.568 49.0558 291.44 48.9468C291.093 48.6511 290.718 48.6469 290.316 48.9344C289.947 49.2192 289.567 49.5731 289.175 49.9959C288.531 50.6772 287.841 51.4132 287.104 52.2041C286.385 53.0106 285.667 53.8339 284.951 54.6742C283.893 55.9164 282.876 57.1467 281.901 58.3651C280.925 59.5836 280.065 60.6482 279.321 61.5588C278.794 62.2137 278.469 62.7249 278.345 63.0923C278.237 63.4414 278.356 63.7639 278.703 64.0597C278.776 64.1219 278.876 64.1906 279.001 64.2658C279.144 64.3565 279.271 64.4485 279.38 64.5419C279.563 64.6976 279.636 64.8705 279.6 65.0606C279.58 65.2325 279.515 65.3823 279.406 65.5102C279.251 65.6929 279.09 65.8079 278.923 65.8552C278.757 65.9026 278.582 65.8484 278.4 65.6927C278.199 65.5215 277.925 65.288 277.578 64.9922C277.246 64.6782 276.879 64.3499 276.478 64.0075C276.091 63.6467 275.679 63.2796 275.24 62.906C274.818 62.5141 274.414 62.1547 274.031 61.8278C273.629 61.4854 273.174 61.1131 272.665 60.7111C272.172 60.2908 271.689 59.8952 271.217 59.5243C270.76 59.1351 270.332 58.7862 269.933 58.4776C269.549 58.1507 269.257 57.9016 269.056 57.7304C268.873 57.5747 268.783 57.4032 268.785 57.2157C268.805 57.0439 268.893 56.8666 269.049 56.6839C269.158 56.5561 269.296 56.4685 269.462 56.4211C269.663 56.3711 269.854 56.4239 270.037 56.5796C270.11 56.6418 270.203 56.7366 270.315 56.8638C270.427 56.9911 270.511 57.078 270.565 57.1247C270.913 57.4205 271.25 57.4872 271.577 57.3249C271.92 57.1443 272.374 56.7421 272.937 56.1183C273.718 55.2388 274.625 54.2301 275.657 53.0921C276.706 51.9359 277.759 50.7367 278.818 49.4946C279.534 48.6543 280.224 47.8076 280.888 46.9544C281.57 46.1169 282.196 45.3263 282.767 44.5827C283.122 44.1288 283.41 43.6802 283.63 43.237C283.868 42.8094 283.814 42.4477 283.467 42.152C283.339 42.043 283.196 41.9523 283.036 41.8799C282.911 41.8047 282.812 41.736 282.739 41.6738C282.556 41.5181 282.474 41.3374 282.492 41.1317C282.543 40.9233 282.623 40.7552 282.732 40.6273C282.888 40.4447 283.049 40.3297 283.215 40.2823C283.4 40.2505 283.584 40.3125 283.767 40.4682C284.534 41.122 285.285 41.794 286.021 42.4844C286.773 43.1564 287.569 43.8505 288.409 44.5666Z" fill="#85267A"/>
<path d="M294.186 57.8251C294.224 57.7246 294.211 57.6222 294.147 57.5179C294.117 57.4149 294.069 57.3282 294.004 57.2578C293.922 57.1698 293.797 57.1226 293.627 57.1161C293.475 57.0934 293.311 57.1636 293.135 57.3268C291.146 59.1706 289.714 60.8911 288.838 62.4883C287.963 64.0855 287.349 65.5058 286.996 66.7492C286.661 67.9762 286.443 69.0294 286.341 69.9087C286.258 70.7716 286.005 71.3989 285.582 71.7905C285.389 71.97 285.198 72.0647 285.011 72.0746C284.824 72.0845 284.649 72.0014 284.486 71.8254C284.062 71.3678 283.63 70.8845 283.19 70.3753C282.769 69.8499 282.354 69.3672 281.946 68.9272C281.293 68.2232 280.705 67.6235 280.18 67.1281C279.689 66.634 279.313 66.2462 279.052 65.9646C278.938 65.8414 278.884 65.695 278.891 65.5254C278.915 65.3395 279.006 65.1731 279.164 65.0263C279.393 64.8142 279.739 64.6574 280.201 64.556C280.68 64.4722 281.395 64.2021 282.346 63.7456C283.297 63.2891 284.541 62.5125 286.077 61.4158C287.647 60.3204 289.629 58.6631 292.022 56.444C292.937 55.5956 293.643 54.909 294.138 54.3843C294.65 53.8772 294.996 53.4742 295.177 53.1754C295.375 52.8941 295.443 52.6674 295.381 52.4953C295.338 52.3068 295.234 52.1246 295.071 51.9486C294.924 51.7902 294.776 51.6657 294.626 51.5751C294.511 51.4859 294.404 51.3884 294.306 51.2828C294.176 51.142 294.123 50.9787 294.147 50.7928C294.171 50.6069 294.262 50.4405 294.42 50.2936C294.561 50.1631 294.725 50.0929 294.912 50.083C295.117 50.0568 295.285 50.1141 295.415 50.2549C296.019 50.9061 296.629 51.6 297.247 52.3366C297.881 53.0909 298.524 53.82 299.177 54.524C299.731 55.1224 300.353 55.7573 301.041 56.4286C301.745 57.1176 302.374 57.7613 302.929 58.3597C303.206 58.6589 303.297 58.9511 303.202 59.2361C303.14 59.5225 302.976 59.822 302.709 60.1346C302.05 60.9418 301.454 61.8872 300.92 62.9709C300.421 64.0559 299.953 65.21 299.516 66.4332C299.113 67.6577 298.742 68.9174 298.405 70.2123C298.083 71.5248 297.78 72.8209 297.493 74.1008C297.453 74.2691 297.455 74.4305 297.5 74.5851C297.579 74.7409 297.66 74.8628 297.741 74.9508C297.823 75.0388 297.949 75.086 298.118 75.0925C298.288 75.0989 298.461 75.0205 298.637 74.8573C300.238 73.3725 301.378 71.9721 302.056 70.6561C302.734 69.3402 303.213 68.144 303.491 67.0676C303.77 65.9913 303.984 65.0399 304.134 64.2134C304.302 63.3706 304.667 62.6881 305.23 62.166C305.407 62.0028 305.613 61.9257 305.851 61.9347C306.106 61.9274 306.331 62.0293 306.527 62.2405C306.917 62.6969 307.291 63.1356 307.649 63.5567C308.023 63.9954 308.389 64.4084 308.748 64.7956C309.156 65.2356 309.557 65.6498 309.95 66.0383C310.342 66.4268 310.711 66.7889 311.055 67.1246C311.251 67.3358 311.336 67.5513 311.31 67.7711C311.285 67.9909 311.185 68.1824 311.009 68.3456C310.78 68.5577 310.425 68.7226 309.945 68.8403C309.465 68.958 308.82 69.1798 308.01 69.5058C307.233 69.833 306.27 70.3655 305.122 71.1033C303.99 71.8247 302.642 72.9115 301.075 74.3637C300.653 74.7553 300.132 75.2706 299.514 75.9095C298.912 76.566 298.292 77.2219 297.656 77.8771C297.036 78.55 296.452 79.1732 295.904 79.7468C295.39 80.3218 295.018 80.7153 294.789 80.9274C294.455 81.2374 294.151 81.4212 293.877 81.4788C293.621 81.5201 293.354 81.3911 293.077 81.0919C292.783 80.7751 292.474 80.4068 292.15 79.9869C291.827 79.5671 291.51 79.19 291.2 78.8556C290.808 78.4332 290.399 78.0271 289.972 77.6373C289.545 77.2475 289.169 76.8767 288.842 76.5247C288.532 76.1902 288.366 75.8698 288.344 75.5632C288.339 75.2404 288.421 74.8699 288.59 74.4517C289.23 72.7777 289.864 71.0779 290.489 69.3523C291.149 67.6281 291.728 66.0112 292.227 64.5016C292.759 62.9933 293.201 61.6514 293.551 60.4758C293.901 59.3003 294.113 58.4167 294.186 57.8251Z" fill="#85267A"/>
<path d="M311.61 98.2464C310.417 99.0531 309.486 99.7116 308.818 100.222C308.182 100.739 307.735 101.084 307.476 101.259C307.278 101.394 307.081 101.425 306.888 101.353C306.688 101.314 306.521 101.196 306.386 100.997C306.279 100.838 306.238 100.648 306.263 100.428C306.268 100.222 306.37 100.052 306.569 99.9172C306.648 99.8635 306.765 99.7995 306.917 99.7252C307.09 99.6376 307.275 99.5265 307.474 99.392C307.733 99.2173 307.847 98.9802 307.819 98.6808C307.81 98.368 307.665 98.0029 307.382 97.5854C306.925 96.9095 306.409 96.4036 305.835 96.068C305.26 95.7323 304.635 95.3869 303.961 95.0319C303.299 94.6968 302.594 94.2322 301.844 93.6381C301.108 93.0638 300.357 92.2101 299.591 91.0769C298.905 90.063 298.382 89.0114 298.022 87.9221C297.662 86.8328 297.575 85.7184 297.761 84.5789C297.966 83.426 298.514 82.2441 299.405 81.0334C300.329 79.8291 301.705 78.6085 303.534 77.3716C306.894 75.0995 310.016 74.1036 312.9 74.3841C315.818 74.671 318.332 76.3751 320.443 79.4964C321.074 80.4308 321.52 81.3032 321.778 82.1136C322.036 82.924 322.211 83.675 322.302 84.3667C322.413 85.0449 322.51 85.66 322.594 86.2119C322.677 86.7639 322.867 87.2585 323.163 87.6959C323.311 87.9146 323.495 88.0798 323.715 88.1915C323.969 88.3096 324.225 88.2813 324.483 88.1065C324.623 88.0124 324.748 87.8984 324.861 87.7646C324.986 87.6506 325.069 87.5801 325.109 87.5532C325.328 87.4053 325.52 87.3475 325.687 87.3797C325.867 87.4317 326.024 87.5572 326.159 87.756C326.266 87.915 326.311 88.0878 326.292 88.2743C326.273 88.4608 326.154 88.628 325.936 88.7759C325.558 89.0313 324.961 89.3914 324.146 89.8561C323.363 90.3272 322.627 90.7814 321.938 91.2187C321.487 91.4946 321.03 91.8038 320.566 92.1463C320.116 92.5088 319.732 92.7975 319.414 93.0127C319.096 93.2278 318.797 93.3429 318.517 93.3581C318.251 93.3931 317.96 93.1987 317.645 92.7747C316.556 91.1644 316.143 89.6328 316.406 88.1799C316.683 86.7469 317.24 85.3853 318.077 84.0951C318.683 83.1924 319.104 82.4441 319.34 81.8501C319.576 81.2561 319.505 80.6808 319.129 80.1241C318.672 79.4482 317.736 79.3279 316.321 79.7633C314.919 80.2185 312.717 81.4612 309.715 83.4914C306.773 85.4812 304.73 87.1089 303.587 88.3745C302.464 89.6267 302.225 90.73 302.87 91.6843C303.367 92.4198 304.079 92.8079 305.004 92.8484C305.943 92.9087 307.158 92.4347 308.65 91.4264C309.822 90.6331 310.541 90.0027 310.804 89.535C311.08 89.0872 311.064 88.6346 310.755 88.1774C310.674 88.0581 310.506 87.8528 310.251 87.5616C310.01 87.2903 309.849 87.095 309.768 86.9757C309.62 86.757 309.592 86.5442 309.684 86.3372C309.789 86.1502 309.912 86.0096 310.051 85.9155C310.21 85.8079 310.393 85.7568 310.599 85.7621C310.819 85.7872 310.996 85.8992 311.13 86.098C311.588 86.774 312.143 87.659 312.796 88.753C313.448 89.847 314.091 90.8612 314.723 91.7956C315.018 92.233 315.344 92.6934 315.7 93.177C316.056 93.6606 316.389 94.131 316.698 94.5882C317.041 95.0519 317.343 95.456 317.605 95.8004C317.88 96.1647 318.072 96.4264 318.179 96.5854C318.26 96.7047 318.284 96.8476 318.252 97.0143C318.233 97.2008 318.124 97.3613 317.926 97.4957C317.727 97.6301 317.534 97.688 317.348 97.6693C317.194 97.657 317.064 97.5713 316.957 97.4122C316.903 97.3327 316.836 97.2333 316.755 97.114C316.708 97.0012 316.657 96.905 316.603 96.8255C316.415 96.5471 316.211 96.3521 315.99 96.2404C315.803 96.1352 315.527 96.1337 315.161 96.2359C314.816 96.3247 314.351 96.5375 313.768 96.8742C313.204 97.1974 312.485 97.6548 311.61 98.2464Z" fill="#85267A"/>
</g>
<path id="Vector 19" d="M16.9349 106.931C-0.805391 142.412 -19.1953 230.464 49.1674 298.827" stroke="#FE2B4C"/>
<path id="Vector 20" d="M287.186 298.154C315.565 270.438 361.771 193.26 319.559 106.282" stroke="#FE2B4C"/>
<g id="Vector_2">
<path d="M60.5876 318.01C60.2 317.701 59.772 317.359 59.3036 316.985C58.8643 316.608 58.4169 316.224 57.9615 315.834C57.506 315.444 57.0522 315.069 56.6 314.708C56.1607 314.33 55.7472 313.987 55.3596 313.677C55.0043 313.394 54.6022 313.086 54.1532 312.754C53.7333 312.419 53.3151 312.098 52.8984 311.792C52.4979 311.498 52.1216 311.224 51.7696 310.97C51.4304 310.699 51.172 310.493 50.9944 310.351C50.8329 310.222 50.7505 310.077 50.7471 309.915C50.7727 309.751 50.8307 309.612 50.921 309.499C51.0499 309.337 51.1789 309.242 51.308 309.213C51.4661 309.18 51.6259 309.229 51.7874 309.358C51.852 309.409 51.9344 309.488 52.0346 309.594C52.1476 309.685 52.2284 309.749 52.2768 309.788C52.5837 310.033 52.8758 310.081 53.1533 309.932C53.4436 309.767 53.8225 309.409 54.29 308.856C54.8477 308.191 55.4909 307.435 56.2195 306.589C56.9482 305.743 57.6993 304.835 58.4731 303.866C59.2339 302.913 59.9802 301.962 60.7119 301.012C61.4566 300.046 62.1335 299.132 62.7427 298.27C62.9716 297.95 63.1423 297.637 63.255 297.33C63.3838 297.037 63.2948 296.767 62.988 296.522C62.8749 296.432 62.749 296.358 62.6101 296.3C62.5003 296.239 62.4131 296.182 62.3485 296.131C62.187 296.002 62.1046 295.856 62.1012 295.695C62.114 295.547 62.1784 295.4 62.2945 295.254C62.4234 295.093 62.575 295.002 62.7493 294.983C62.9236 294.963 63.0672 294.999 63.1803 295.089C63.8424 295.618 64.4981 296.154 65.1474 296.699C65.8128 297.257 66.517 297.832 67.2599 298.426C67.6798 298.761 68.1707 299.14 68.7327 299.562C69.3109 299.997 69.8907 300.447 70.4721 300.911C71.0664 301.359 71.6364 301.788 72.1823 302.197C72.7443 302.619 73.211 302.979 73.5825 303.276C75.1652 304.539 76.1798 305.786 76.6264 307.015C77.0891 308.257 76.8369 309.484 75.8698 310.695C74.98 311.81 73.9768 312.37 72.86 312.378C71.7562 312.369 70.2256 311.637 68.2683 310.179C68.123 310.063 67.9841 310.005 67.8518 310.006C67.7356 310.019 67.6324 310.082 67.5421 310.195C67.4647 310.292 67.4406 310.405 67.4698 310.534C67.5119 310.647 67.5894 310.748 67.7025 310.838C69.6568 312.531 70.8152 313.945 71.1778 315.081C71.5565 316.23 71.2107 317.474 70.1404 318.815C69.5988 319.493 69.0248 320.013 68.4183 320.375C67.8119 320.737 67.1246 320.903 66.3564 320.871C65.6043 320.852 64.7536 320.61 63.8043 320.142C62.8711 319.688 61.7988 318.978 60.5876 318.01ZM63.2757 308.93C62.6825 309.673 62.0861 310.453 61.4866 311.27C60.887 312.088 60.3696 312.785 59.9344 313.363C59.5154 313.954 59.2819 314.429 59.2338 314.787C59.1986 315.13 59.4313 315.5 59.932 315.9C60.7557 316.558 61.4949 316.725 62.1498 316.402C62.8338 316.075 63.5626 315.427 64.3363 314.458C65.4582 313.053 66.0478 311.95 66.1051 311.15C66.1786 310.362 65.8601 309.685 65.1494 309.117C64.6811 308.743 64.313 308.542 64.045 308.513C63.7771 308.484 63.5207 308.623 63.2757 308.93ZM65.4614 306.193C65.2035 306.516 65.0908 306.823 65.1234 307.113C65.1849 307.4 65.4418 307.724 65.894 308.085C66.6531 308.691 67.3488 308.864 67.9812 308.601C68.6426 308.336 69.3537 307.727 70.1145 306.774C70.9785 305.692 71.4118 304.835 71.4144 304.202C71.4461 303.566 71.1631 303.01 70.5656 302.533C70.1295 302.185 69.7195 302.069 69.3355 302.185C68.9645 302.286 68.6483 302.483 68.3872 302.777C67.8874 303.303 67.3973 303.851 66.917 304.42C66.4495 304.972 65.9643 305.563 65.4614 306.193Z" fill="#032CA8"/>
<path d="M86.0807 314.742C85.6868 315.349 85.2821 315.974 84.8667 316.616C84.4797 317.251 84.0658 317.931 83.6251 318.654C82.0555 321.231 81.1236 323.338 80.8292 324.973C80.5455 326.591 81.1538 327.857 82.6541 328.771C83.4837 329.276 84.2359 329.432 84.9106 329.238C85.6137 329.037 86.2663 328.442 86.8683 327.454C87.4488 326.501 87.7975 325.491 87.9145 324.425C88.0314 323.359 88.1023 322.289 88.1272 321.215C88.152 320.141 88.2175 319.08 88.3237 318.032C88.4299 316.983 88.7679 315.991 89.3377 315.056C89.5097 314.773 89.6986 314.622 89.9043 314.602C90.11 314.582 90.2922 314.621 90.4511 314.718C90.8394 314.954 91.2346 315.219 91.6367 315.512C92.0673 315.799 92.4767 316.06 92.865 316.297C93.3592 316.598 93.8411 316.879 94.3108 317.141C94.7912 317.385 95.2168 317.62 95.5874 317.846C95.7992 317.975 95.917 318.119 95.9408 318.279C95.9822 318.449 95.9599 318.605 95.8739 318.746C95.7879 318.888 95.6808 319.004 95.5525 319.095C95.442 319.197 95.2658 319.308 95.024 319.427C94.1704 319.875 93.3347 320.551 92.5171 321.457C91.7101 322.345 90.9465 323.38 90.2263 324.562C89.9038 325.092 89.574 325.653 89.2369 326.247C88.9105 326.822 88.5968 327.357 88.2958 327.851C87.0273 329.934 85.5567 331.216 83.8841 331.698C82.2292 332.19 80.2103 331.711 77.8274 330.259C76.5036 329.453 75.4669 328.652 74.7172 327.857C73.996 327.055 73.5318 326.227 73.3248 325.375C73.1286 324.506 73.1683 323.586 73.4441 322.617C73.7307 321.63 74.2233 320.563 74.9221 319.415C75.4811 318.498 76.0758 317.541 76.7063 316.546C77.3543 315.561 78.017 314.513 78.6943 313.401C79.1243 312.695 79.4595 312.125 79.6998 311.69C79.9578 311.267 80.1302 310.924 80.217 310.662C80.3215 310.411 80.3511 310.224 80.3058 310.099C80.2606 309.975 80.1585 309.864 79.9997 309.768C79.8761 309.692 79.7418 309.635 79.5968 309.595C79.4624 309.537 79.3512 309.482 79.2629 309.428C79.0864 309.32 78.9951 309.192 78.989 309.043C78.9829 308.894 79.0282 308.74 79.125 308.582C79.2325 308.405 79.3572 308.3 79.4992 308.265C79.6697 308.224 79.8166 308.241 79.9402 308.316C80.6462 308.746 81.3469 309.185 82.0421 309.632C82.7551 310.091 83.5087 310.562 84.3029 311.046C85.0619 311.508 85.7468 311.913 86.3577 312.261C86.9862 312.619 87.6535 313.014 88.3595 313.444C88.5713 313.573 88.6891 313.717 88.7128 313.877C88.7366 314.036 88.6947 314.204 88.5872 314.381C88.512 314.505 88.3926 314.601 88.2291 314.671C88.0763 314.723 87.8941 314.685 87.6822 314.556C87.594 314.502 87.5023 314.434 87.4071 314.352C87.3404 314.263 87.2629 314.191 87.1746 314.138C86.9452 313.998 86.7448 314.009 86.5736 314.171C86.4024 314.333 86.2381 314.523 86.0807 314.742Z" fill="#032CA8"/>
<path d="M105.058 322.49C106.319 323.061 107.621 323.617 108.964 324.158C110.335 324.688 111.674 325.238 112.981 325.808C113.396 325.996 113.599 326.224 113.59 326.492C113.591 326.742 113.514 327.036 113.36 327.375C113.086 327.931 112.789 328.512 112.47 329.116C112.178 329.71 111.891 330.317 111.61 330.938C111.465 331.258 111.312 331.62 111.152 332.024C111.019 332.418 110.881 332.797 110.737 333.164C110.621 333.52 110.509 333.843 110.4 334.134C110.309 334.433 110.239 334.639 110.188 334.752C110.077 334.997 109.931 335.169 109.749 335.269C109.596 335.358 109.415 335.355 109.208 335.261C108.662 335.014 108.283 334.649 108.07 334.167C107.866 333.666 107.761 333.097 107.755 332.459C107.768 331.829 107.849 331.151 107.997 330.424C108.172 329.687 108.352 328.94 108.535 328.184C108.753 327.352 108.858 326.696 108.849 326.216C108.848 325.716 108.679 325.39 108.34 325.236C108.057 325.108 107.803 325.118 107.578 325.265C107.38 325.402 107.199 325.65 107.037 326.007C105.485 329.433 104.297 332.129 103.475 334.093C102.662 336.039 102.112 337.502 101.825 338.485C101.567 339.456 101.503 340.097 101.635 340.406C101.795 340.706 102.044 340.932 102.383 341.085C102.665 341.213 102.913 341.292 103.127 341.321C103.36 341.358 103.57 341.419 103.758 341.505C103.928 341.581 104.043 341.702 104.105 341.866C104.167 342.03 104.155 342.206 104.07 342.395C103.984 342.583 103.874 342.726 103.739 342.823C103.604 342.921 103.414 342.914 103.17 342.803C102.925 342.693 102.558 342.526 102.068 342.304C101.606 342.072 101.084 341.824 100.5 341.56C99.9353 341.304 99.3423 341.035 98.7211 340.754C98.1084 340.453 97.5386 340.184 97.0115 339.945C96.4844 339.706 95.906 339.455 95.2763 339.192C94.6739 338.919 94.0904 338.655 93.5257 338.399C92.961 338.143 92.4296 337.914 91.9317 337.711C91.4611 337.498 91.1034 337.335 90.8587 337.225C90.6328 337.122 90.5121 336.988 90.4965 336.822C90.4809 336.656 90.5158 336.479 90.6011 336.291C90.6864 336.103 90.8111 335.978 90.9752 335.916C91.1394 335.854 91.2967 335.857 91.4473 335.926C91.6355 336.011 91.811 336.125 91.9736 336.266C92.1551 336.417 92.387 336.556 92.6694 336.684C93.0082 336.837 93.3332 336.871 93.6444 336.785C93.983 336.689 94.4229 336.219 94.9641 335.375C95.5327 334.521 96.2803 333.147 97.2068 331.252C98.1419 329.339 99.3858 326.669 100.938 323.243C101.1 322.886 101.158 322.583 101.112 322.335C101.093 322.077 100.942 321.884 100.66 321.756C100.321 321.602 99.9633 321.69 99.5874 322.019C99.2388 322.337 98.8144 322.848 98.3141 323.552C97.8667 324.189 97.4141 324.812 96.9564 325.421C96.5261 326.02 96.0786 326.532 95.6138 326.957C95.1491 327.382 94.6517 327.678 94.1217 327.846C93.619 328.004 93.0947 327.959 92.5488 327.712C92.3418 327.618 92.2116 327.48 92.1584 327.297C92.1325 327.104 92.175 326.885 92.2859 326.64C92.3371 326.527 92.4361 326.334 92.5829 326.06C92.7485 325.794 92.9269 325.501 93.1181 325.179C93.3178 324.839 93.5124 324.484 93.7018 324.116C93.9186 323.738 94.0995 323.389 94.2445 323.069C94.526 322.448 94.7844 321.827 95.0197 321.208C95.2636 320.57 95.5041 319.964 95.7412 319.391C95.8947 319.052 96.0655 318.8 96.2534 318.636C96.4687 318.461 96.7834 318.468 97.1976 318.655C98.4879 319.263 99.7842 319.907 101.087 320.588C102.398 321.25 103.721 321.884 105.058 322.49Z" fill="#032CA8"/>
<path d="M119.857 348.405C119.276 348.254 118.686 348.144 118.085 348.073C117.489 347.983 117.031 347.896 116.711 347.813C116.471 347.751 116.314 347.657 116.24 347.531C116.146 347.4 116.133 347.204 116.2 346.944C116.387 346.224 116.916 345.294 117.788 344.154C118.68 343.018 119.643 341.816 120.676 340.547C121.735 339.263 122.724 337.96 123.642 336.64C124.581 335.325 125.19 334.127 125.47 333.047C125.657 332.327 125.609 331.812 125.326 331.504C125.063 331.201 124.771 331.008 124.451 330.925C124.271 330.879 124.076 330.849 123.865 330.837C123.675 330.831 123.5 330.807 123.34 330.765C123.12 330.708 122.968 330.594 122.884 330.423C122.8 330.252 122.782 330.076 122.828 329.896C122.87 329.736 122.969 329.602 123.125 329.493C123.281 329.384 123.47 329.358 123.69 329.415C123.95 329.482 124.347 329.596 124.882 329.756C125.417 329.916 126 330.099 126.629 330.305C127.264 330.491 127.909 330.679 128.564 330.87C129.239 331.067 129.827 331.23 130.327 331.359C131.407 331.639 132.405 331.866 133.321 332.039C134.237 332.213 134.815 332.33 135.055 332.393C135.315 332.46 135.514 332.597 135.653 332.804C135.812 333.016 135.844 333.302 135.751 333.662C135.492 334.662 135.315 335.961 135.221 337.56C135.152 339.143 135.143 340.784 135.194 342.484C135.249 344.164 135.36 345.794 135.527 347.374C135.694 348.955 135.894 350.245 136.125 351.244C136.203 351.521 136.254 351.737 136.278 351.892C136.322 352.053 136.325 352.203 136.289 352.343C136.253 352.483 136.182 352.593 136.076 352.672C135.97 352.752 135.837 352.771 135.677 352.729C135.296 352.631 134.684 352.44 133.839 352.157C133.015 351.879 132.112 351.613 131.132 351.359C130.732 351.255 130.219 351.133 129.594 350.992C128.988 350.857 128.393 350.724 127.808 350.593C127.222 350.463 126.697 350.348 126.232 350.249C125.766 350.15 125.494 350.09 125.414 350.069C125.194 350.012 125.049 349.911 124.98 349.765C124.931 349.624 124.933 349.453 124.985 349.253C125.031 349.073 125.12 348.936 125.251 348.842C125.402 348.753 125.568 348.732 125.748 348.779C125.868 348.81 125.993 348.864 126.123 348.94C126.258 348.996 126.445 349.055 126.685 349.118C126.985 349.195 127.277 349.1 127.56 348.832C127.843 348.564 128.072 348.089 128.249 347.409C128.409 346.789 128.506 346.291 128.54 345.916C128.573 345.54 128.51 345.246 128.352 345.034C128.219 344.807 127.977 344.627 127.627 344.494C127.283 344.341 126.8 344.184 126.18 344.023C125.1 343.743 124.396 343.657 124.07 343.764C123.763 343.877 123.56 344.123 123.462 344.503C123.342 344.963 123.314 345.404 123.375 345.826C123.437 346.247 123.513 346.652 123.605 347.038C123.722 347.41 123.825 347.757 123.912 348.079C124 348.4 124.012 348.681 123.95 348.921C123.898 349.121 123.804 349.278 123.668 349.392C123.531 349.506 123.363 349.538 123.163 349.486C123.063 349.46 122.876 349.401 122.601 349.308C122.346 349.221 122.051 349.123 121.716 349.015C121.386 348.886 121.054 348.768 120.719 348.66C120.384 348.552 120.097 348.467 119.857 348.405ZM124.594 338.776C124.402 339.516 124.279 340.114 124.225 340.57C124.171 341.026 124.203 341.397 124.321 341.684C124.444 341.95 124.655 342.165 124.954 342.328C125.259 342.471 125.661 342.607 126.161 342.737C127.201 343.007 127.868 343.073 128.16 342.935C128.471 342.802 128.681 342.568 128.79 342.233C128.862 341.953 128.926 341.585 128.98 341.13C129.039 340.654 129.073 340.151 129.083 339.619C129.118 339.073 129.128 338.499 129.113 337.898C129.103 337.276 129.066 336.679 129 336.107C128.94 335.024 128.861 334.299 128.764 333.932C128.672 333.546 128.476 333.313 128.176 333.236C127.875 333.158 127.551 333.255 127.203 333.528C126.875 333.806 126.548 334.201 126.223 334.715C125.918 335.234 125.619 335.85 125.327 336.564C125.041 337.259 124.796 337.996 124.594 338.776Z" fill="#032CA8"/>
<path d="M151.883 340.609C151.848 340.523 151.78 340.466 151.679 340.437C151.6 340.389 151.519 340.362 151.437 340.355C151.334 340.347 151.227 340.39 151.115 340.484C151.006 340.558 150.942 340.698 150.926 340.904C150.736 343.232 150.829 345.157 151.203 346.681C151.576 348.204 152.013 349.463 152.513 350.457C153.014 351.431 153.489 352.227 153.936 352.843C154.386 353.44 154.59 353.985 154.55 354.48C154.531 354.706 154.466 354.877 154.353 354.992C154.24 355.107 154.08 355.157 153.874 355.14C153.339 355.096 152.783 355.041 152.208 354.973C151.635 354.885 151.091 354.82 150.576 354.779C149.752 354.712 149.029 354.674 148.408 354.665C147.809 354.637 147.344 354.609 147.015 354.583C146.871 354.571 146.751 354.509 146.657 354.398C146.564 354.266 146.525 354.107 146.54 353.922C146.561 353.654 146.69 353.353 146.924 353.02C147.179 352.688 147.476 352.101 147.814 351.257C148.152 350.414 148.489 349.197 148.826 347.607C149.185 345.998 149.478 343.793 149.705 340.992C149.793 339.921 149.841 339.074 149.85 338.453C149.879 337.834 149.865 337.376 149.806 337.081C149.767 336.788 149.678 336.604 149.539 336.531C149.402 336.437 149.23 336.381 149.024 336.364C148.839 336.349 148.672 336.357 148.525 336.386C148.399 336.397 148.275 336.397 148.151 336.387C147.987 336.373 147.858 336.301 147.765 336.169C147.672 336.037 147.633 335.878 147.648 335.693C147.661 335.528 147.725 335.388 147.838 335.273C147.952 335.137 148.092 335.076 148.257 335.089C149.019 335.151 149.81 335.236 150.631 335.344C151.472 335.454 152.305 335.542 153.129 335.609C153.829 335.666 154.593 335.708 155.42 335.733C156.268 335.761 157.042 335.803 157.743 335.86C158.093 335.888 158.32 336.021 158.426 336.258C158.553 336.475 158.623 336.761 158.636 337.114C158.687 338.01 158.859 338.957 159.151 339.956C159.466 340.935 159.84 341.94 160.275 342.97C160.732 343.982 161.23 344.997 161.769 346.016C162.329 347.036 162.891 348.035 163.454 349.014C163.526 349.144 163.622 349.245 163.74 349.317C163.881 349.37 164.003 349.401 164.106 349.409C164.209 349.417 164.316 349.374 164.428 349.28C164.539 349.185 164.603 349.035 164.62 348.829C164.772 346.954 164.68 345.402 164.345 344.172C164.009 342.942 163.617 341.905 163.167 341.059C162.718 340.214 162.3 339.486 161.914 338.874C161.53 338.241 161.365 337.595 161.418 336.936C161.435 336.73 161.522 336.561 161.677 336.429C161.835 336.275 162.037 336.209 162.285 336.229C162.798 336.292 163.291 336.352 163.763 336.411C164.255 336.472 164.728 336.521 165.181 336.558C165.696 336.6 166.192 336.63 166.667 336.647C167.143 336.665 167.587 336.681 168.001 336.694C168.248 336.714 168.427 336.801 168.539 336.955C168.651 337.109 168.699 337.289 168.682 337.495C168.66 337.763 168.531 338.074 168.295 338.428C168.059 338.782 167.779 339.299 167.454 339.977C167.152 340.637 166.85 341.535 166.551 342.672C166.253 343.788 166.029 345.263 165.88 347.096C165.84 347.59 165.81 348.22 165.789 348.986C165.789 349.753 165.777 350.53 165.755 351.316C165.753 352.104 165.745 352.839 165.731 353.522C165.739 354.186 165.733 354.652 165.711 354.92C165.679 355.311 165.593 355.605 165.453 355.801C165.314 355.976 165.07 356.05 164.719 356.021C164.349 355.991 163.938 355.937 163.489 355.859C163.039 355.781 162.618 355.726 162.227 355.694C161.732 355.654 161.236 355.635 160.739 355.636C160.241 355.637 159.786 355.62 159.374 355.587C158.983 355.555 158.691 355.448 158.498 355.267C158.307 355.065 158.144 354.782 158.007 354.418C157.44 352.983 156.852 351.536 156.245 350.076C155.66 348.598 155.087 347.235 154.525 345.987C153.985 344.719 153.484 343.611 153.022 342.661C152.56 341.711 152.18 341.027 151.883 340.609Z" fill="#032CA8"/>
<path d="M178.099 338.562C178.111 339.286 178.125 340.03 178.14 340.794C178.174 341.538 178.211 342.332 178.25 343.179C178.39 346.193 178.795 348.46 179.465 349.981C180.134 351.481 181.346 352.19 183.101 352.109C184.072 352.064 184.782 351.773 185.233 351.235C185.704 350.675 185.912 349.817 185.859 348.661C185.807 347.546 185.532 346.514 185.033 345.565C184.534 344.616 183.994 343.689 183.415 342.785C182.835 341.881 182.296 340.964 181.798 340.036C181.3 339.107 181.025 338.096 180.975 337.001C180.959 336.671 181.031 336.44 181.191 336.309C181.35 336.177 181.523 336.107 181.709 336.098C182.163 336.077 182.639 336.076 183.136 336.095C183.653 336.091 184.139 336.079 184.593 336.058C185.171 336.031 185.728 335.995 186.264 335.95C186.799 335.884 187.283 335.841 187.716 335.821C187.964 335.809 188.142 335.863 188.251 335.982C188.381 336.1 188.45 336.242 188.457 336.407C188.465 336.572 188.441 336.728 188.386 336.876C188.351 337.022 188.267 337.212 188.133 337.446C187.676 338.295 187.361 339.323 187.189 340.531C187.017 341.718 186.962 343.003 187.026 344.387C187.055 345.006 187.096 345.656 187.148 346.336C187.199 346.996 187.238 347.615 187.265 348.193C187.377 350.629 186.875 352.514 185.757 353.848C184.661 355.182 182.719 355.913 179.932 356.042C178.383 356.114 177.076 356.029 176.01 355.789C174.963 355.527 174.116 355.101 173.468 354.51C172.819 353.899 172.338 353.114 172.025 352.156C171.71 351.178 171.522 350.018 171.46 348.676C171.41 347.602 171.369 346.477 171.335 345.299C171.322 344.12 171.285 342.881 171.225 341.58C171.187 340.754 171.146 340.094 171.102 339.599C171.079 339.104 171.031 338.724 170.956 338.458C170.903 338.192 170.822 338.019 170.715 337.942C170.608 337.864 170.462 337.829 170.276 337.838C170.131 337.844 169.988 337.872 169.845 337.92C169.702 337.947 169.578 337.963 169.475 337.968C169.269 337.977 169.121 337.922 169.033 337.802C168.945 337.682 168.896 337.529 168.888 337.343C168.878 337.137 168.922 336.98 169.021 336.872C169.139 336.742 169.27 336.674 169.415 336.667C170.241 336.629 171.067 336.601 171.894 336.584C172.741 336.565 173.629 336.534 174.558 336.491C175.446 336.45 176.24 336.403 176.941 336.35C177.663 336.296 178.437 336.25 179.262 336.212C179.51 336.2 179.688 336.254 179.797 336.373C179.906 336.492 179.966 336.655 179.975 336.861C179.982 337.006 179.937 337.153 179.84 337.302C179.743 337.431 179.57 337.501 179.323 337.512C179.219 337.517 179.105 337.512 178.98 337.497C178.875 337.461 178.771 337.445 178.668 337.449C178.4 337.462 178.24 337.583 178.188 337.813C178.137 338.043 178.107 338.293 178.099 338.562Z" fill="#032CA8"/>
<path d="M210.158 348.464C210.05 347.579 209.85 346.281 209.56 344.569C209.27 342.857 208.821 340.439 208.215 337.315C208.112 336.787 208.009 336.418 207.905 336.206C207.797 335.975 207.621 335.883 207.377 335.93C207.235 335.957 207.103 336.088 206.98 336.323C206.853 336.537 206.756 336.851 206.689 337.264C206.612 337.952 206.542 338.839 206.479 339.925C206.416 341.011 206.359 342.18 206.308 343.432C206.276 344.681 206.245 345.981 206.213 347.335C206.201 348.685 206.196 349.959 206.197 351.159C206.206 351.747 206.042 352.147 205.704 352.36C205.387 352.569 204.68 352.78 203.585 352.993C203.017 353.103 202.579 353.177 202.27 353.216C201.958 353.235 201.703 353.221 201.505 353.175C201.323 353.105 201.185 352.995 201.093 352.845C201.001 352.694 200.886 352.485 200.75 352.217C200.333 351.371 199.818 350.345 199.205 349.138C198.591 347.93 197.956 346.717 197.298 345.497C196.64 344.278 195.996 343.129 195.366 342.052C194.756 340.97 194.236 340.134 193.805 339.544C193.632 339.304 193.469 339.114 193.316 338.976C193.159 338.817 193.009 338.751 192.867 338.779C192.664 338.818 192.548 338.978 192.518 339.257C192.488 339.537 192.511 339.869 192.585 340.255C193.212 343.48 193.959 346.135 194.827 348.219C195.694 350.304 196.761 351.675 198.026 352.335C198.47 352.565 198.747 352.742 198.856 352.869C198.985 352.991 199.067 353.143 199.102 353.326C199.118 353.407 199.099 353.527 199.046 353.684C198.992 353.842 198.864 353.941 198.661 353.98C198.397 354.031 198.02 354.094 197.529 354.168C197.058 354.239 196.417 354.353 195.606 354.51C194.835 354.66 194.157 354.802 193.573 354.936C192.988 355.071 192.524 355.172 192.179 355.239C192.017 355.27 191.877 355.255 191.76 355.194C191.638 355.112 191.562 354.99 191.531 354.828C191.491 354.625 191.519 354.441 191.613 354.275C191.707 354.109 191.84 353.873 192.012 353.566C192.245 353.142 192.409 352.573 192.502 351.86C192.591 351.127 192.6 350.199 192.53 349.076C192.475 347.929 192.333 346.546 192.103 344.927C191.869 343.288 191.537 341.363 191.108 339.152C190.994 338.564 190.822 338.06 190.594 337.641C190.381 337.198 190.022 337.026 189.514 337.124C189.372 337.152 189.224 337.202 189.07 337.274C188.932 337.322 188.812 337.356 188.711 337.375C188.508 337.415 188.342 337.373 188.213 337.251C188.104 337.125 188.036 336.99 188.008 336.848C187.969 336.646 187.978 336.475 188.035 336.338C188.113 336.197 188.254 336.106 188.456 336.067C189.349 335.893 190.317 335.727 191.359 335.566C192.422 335.402 193.359 335.241 194.171 335.084C195.124 334.898 195.841 334.738 196.32 334.603C196.799 334.468 197.373 334.335 198.042 334.206C198.468 334.123 198.78 334.157 198.978 334.308C199.196 334.455 199.407 334.783 199.611 335.29C199.751 335.684 199.944 336.194 200.192 336.82C200.436 337.425 200.696 338.059 200.972 338.721C201.248 339.383 201.522 340.035 201.794 340.677C202.082 341.295 202.343 341.823 202.575 342.262C202.976 343.027 203.285 343.535 203.503 343.787C203.741 344.036 203.971 344.139 204.194 344.095C204.478 344.04 204.664 343.857 204.751 343.545C204.854 343.209 204.944 342.697 205.021 342.009C205.125 340.809 205.194 339.596 205.23 338.368C205.265 337.14 205.267 335.74 205.235 334.167C205.229 333.705 205.278 333.359 205.381 333.128C205.479 332.877 205.782 332.703 206.289 332.604C207.04 332.459 207.754 332.341 208.431 332.252C209.109 332.162 210.056 331.999 211.273 331.763C212.024 331.617 212.761 331.453 213.483 331.271C214.226 331.084 214.912 330.93 215.541 330.808C215.744 330.769 215.897 330.802 216.002 330.908C216.127 331.01 216.209 331.162 216.249 331.365C216.276 331.507 216.253 331.659 216.179 331.821C216.126 331.979 215.998 332.077 215.795 332.117C215.693 332.136 215.559 332.152 215.393 332.163C215.243 332.15 215.097 332.157 214.955 332.185C214.57 332.26 214.366 332.51 214.343 332.935C214.337 333.337 214.371 333.783 214.445 334.273C214.562 335.093 214.689 335.963 214.826 336.884C214.983 337.801 215.152 338.726 215.333 339.659C215.601 341.039 215.883 342.384 216.18 343.695C216.476 345.005 216.731 346.156 216.944 347.146C217.103 347.852 217.272 348.346 217.453 348.626C217.63 348.887 217.911 348.979 218.296 348.905C218.378 348.889 218.487 348.857 218.625 348.809C218.763 348.761 218.893 348.726 219.015 348.702C219.218 348.663 219.374 348.706 219.482 348.832C219.607 348.934 219.684 349.056 219.711 349.198C219.751 349.401 219.731 349.573 219.654 349.715C219.596 349.852 219.466 349.941 219.263 349.98C218.756 350.079 218.024 350.21 217.066 350.375C216.109 350.54 215.021 350.74 213.804 350.977C212.668 351.197 211.706 351.395 210.919 351.569C210.152 351.739 209.495 351.877 208.947 351.983C208.744 352.022 208.58 351.991 208.455 351.889C208.35 351.783 208.278 351.629 208.239 351.426C208.207 351.264 208.22 351.114 208.278 350.976C208.351 350.814 208.49 350.714 208.693 350.674C208.835 350.647 208.991 350.638 209.161 350.647C209.347 350.632 209.481 350.616 209.562 350.6C209.948 350.526 210.164 350.336 210.21 350.032C210.252 349.708 210.235 349.186 210.158 348.464Z" fill="#032CA8"/>
<path d="M234.048 344.665C233.581 344.832 233.065 345.015 232.5 345.217C231.948 345.391 231.387 345.569 230.815 345.751C230.244 345.933 229.685 346.121 229.14 346.315C228.588 346.49 228.078 346.66 227.611 346.827C227.183 346.979 226.709 347.159 226.191 347.366C225.685 347.546 225.192 347.733 224.712 347.926C224.252 348.112 223.82 348.287 223.419 348.452C223.01 348.598 222.698 348.709 222.484 348.785C222.289 348.854 222.123 348.848 221.984 348.766C221.857 348.657 221.77 348.535 221.721 348.399C221.652 348.204 221.639 348.044 221.682 347.919C221.738 347.768 221.863 347.657 222.058 347.588C222.135 347.56 222.246 347.532 222.389 347.503C222.525 347.454 222.623 347.419 222.681 347.399C223.051 347.267 223.246 347.044 223.266 346.73C223.278 346.396 223.173 345.885 222.95 345.197C222.678 344.372 222.374 343.427 222.039 342.362C221.703 341.297 221.327 340.18 220.911 339.012C220.502 337.864 220.086 336.728 219.665 335.606C219.236 334.464 218.815 333.407 218.403 332.435C218.252 332.072 218.076 331.762 217.874 331.505C217.692 331.241 217.417 331.174 217.047 331.306C216.91 331.355 216.781 331.423 216.659 331.51C216.549 331.571 216.455 331.616 216.377 331.644C216.182 331.713 216.015 331.706 215.877 331.624C215.757 331.535 215.666 331.403 215.604 331.228C215.534 331.033 215.537 330.857 215.612 330.698C215.688 330.54 215.793 330.436 215.93 330.388C216.728 330.103 217.529 329.829 218.335 329.564C219.159 329.292 220.019 328.997 220.915 328.678C221.421 328.497 222.002 328.279 222.656 328.024C223.331 327.762 224.019 327.506 224.719 327.256C225.413 326.987 226.078 326.728 226.714 326.48C227.369 326.225 227.92 326.017 228.368 325.858C230.276 325.178 231.87 324.972 233.15 325.24C234.449 325.501 235.359 326.361 235.879 327.822C236.358 329.165 236.306 330.313 235.725 331.266C235.136 332.2 233.707 333.115 231.437 334.011C231.262 334.074 231.14 334.161 231.07 334.274C231.02 334.38 231.019 334.501 231.068 334.637C231.109 334.754 231.193 334.834 231.318 334.877C231.436 334.901 231.563 334.888 231.699 334.84C234.167 334.07 235.98 333.83 237.136 334.12C238.312 334.403 239.188 335.353 239.764 336.969C240.055 337.786 240.195 338.548 240.183 339.254C240.171 339.961 239.95 340.632 239.518 341.268C239.106 341.898 238.452 342.493 237.555 343.054C236.677 343.608 235.508 344.145 234.048 344.665ZM227.746 337.597C228.065 338.493 228.414 339.411 228.792 340.351C229.171 341.291 229.492 342.098 229.754 342.773C230.036 343.44 230.316 343.889 230.595 344.118C230.868 344.328 231.306 344.326 231.909 344.111C232.902 343.757 233.433 343.217 233.503 342.49C233.586 341.736 233.419 340.776 233.003 339.608C232.4 337.914 231.773 336.832 231.123 336.361C230.492 335.884 229.748 335.798 228.892 336.103C228.327 336.304 227.962 336.511 227.796 336.724C227.631 336.936 227.614 337.228 227.746 337.597ZM226.57 334.298C226.709 334.687 226.91 334.944 227.174 335.07C227.451 335.169 227.861 335.121 228.407 334.927C229.322 334.601 229.834 334.1 229.945 333.424C230.067 332.722 229.924 331.797 229.515 330.649C229.05 329.344 228.55 328.524 228.013 328.189C227.49 327.827 226.868 327.774 226.147 328.031C225.622 328.218 225.307 328.506 225.204 328.894C225.094 329.262 225.095 329.634 225.207 330.011C225.392 330.713 225.599 331.418 225.829 332.126C226.053 332.815 226.299 333.538 226.57 334.298Z" fill="#032CA8"/>
<path d="M243.962 339.414C244.036 339.377 244.147 339.344 244.294 339.315C244.433 339.268 244.53 339.231 244.585 339.203C244.935 339.025 245.1 338.78 245.08 338.465C245.051 338.133 244.882 337.639 244.574 336.985C244.125 336.053 243.611 334.97 243.032 333.735C242.443 332.481 241.813 331.19 241.14 329.862C240.739 329.07 240.314 328.277 239.866 327.484C239.437 326.683 239.031 325.95 238.649 325.286C238.406 324.853 238.15 324.485 237.881 324.181C237.62 323.85 237.315 323.773 236.965 323.95C236.835 324.016 236.716 324.099 236.605 324.202C236.504 324.276 236.417 324.332 236.343 324.369C236.158 324.463 235.992 324.477 235.844 324.414C235.714 324.34 235.607 324.221 235.523 324.055C235.43 323.87 235.41 323.695 235.465 323.528C235.52 323.362 235.611 323.246 235.741 323.18C236.533 322.779 237.326 322.4 238.119 322.045C238.931 321.68 239.77 321.279 240.636 320.84C241.282 320.513 242.111 320.093 243.125 319.579C244.13 319.047 245.144 318.51 246.167 317.969C247.19 317.428 248.153 316.928 249.057 316.471C249.951 315.995 250.601 315.654 251.006 315.449C251.283 315.309 251.537 315.261 251.768 315.306C251.999 315.351 252.176 315.493 252.297 315.733C252.419 315.973 252.568 316.314 252.746 316.757C252.915 317.181 253.144 317.679 253.433 318.251C253.704 318.785 253.988 319.301 254.287 319.799C254.603 320.287 254.818 320.642 254.93 320.863C255.033 321.066 255.066 321.269 255.03 321.473C254.994 321.676 254.875 321.829 254.672 321.932C254.045 322.249 253.357 322.239 252.606 321.901C251.874 321.554 251.114 321.151 250.326 320.693C249.557 320.225 248.76 319.841 247.936 319.54C247.13 319.23 246.34 319.271 245.566 319.664C245.105 319.897 244.885 320.24 244.906 320.693C244.935 321.118 245.035 321.566 245.204 322.036C245.466 322.691 245.765 323.397 246.102 324.153C246.457 324.9 246.812 325.646 247.167 326.393C247.251 326.559 247.353 326.669 247.474 326.724C247.613 326.77 247.756 326.755 247.903 326.68C248.272 326.494 248.534 326.187 248.689 325.761C248.862 325.326 249.008 324.882 249.126 324.428C249.252 323.947 249.384 323.498 249.521 323.081C249.676 322.655 249.928 322.354 250.278 322.176C250.408 322.111 250.546 322.11 250.694 322.174C250.852 322.21 250.991 322.348 251.112 322.588C251.252 322.865 251.393 323.21 251.534 323.626C251.693 324.031 251.955 324.594 252.319 325.313C252.748 326.161 253.08 326.792 253.313 327.207C253.564 327.613 253.77 327.972 253.928 328.285C254.05 328.525 254.06 328.705 253.959 328.826C253.858 328.947 253.729 329.035 253.572 329.091C253.166 329.204 252.75 329.16 252.324 328.959C251.897 328.758 251.471 328.534 251.045 328.286C250.637 328.03 250.22 327.824 249.794 327.669C249.368 327.514 248.943 327.544 248.519 327.759C248.334 327.852 248.224 327.977 248.188 328.135C248.17 328.283 248.208 328.449 248.301 328.633C248.778 329.574 249.258 330.5 249.744 331.412C250.229 332.325 250.644 333.099 250.99 333.735C251.335 334.325 251.646 334.711 251.924 334.895C252.212 335.051 252.558 335.026 252.964 334.82C253.812 334.391 254.363 333.741 254.617 332.871C254.862 331.982 255.038 331.071 255.144 330.137C255.25 329.203 255.384 328.324 255.546 327.501C255.718 326.649 256.144 326.051 256.827 325.706C257.029 325.603 257.21 325.593 257.367 325.675C257.525 325.758 257.65 325.891 257.743 326.075C257.855 326.296 258.015 326.679 258.221 327.223C258.418 327.749 258.656 328.289 258.936 328.842C259.263 329.487 259.571 330.026 259.859 330.459C260.148 330.892 260.367 331.256 260.517 331.551C260.638 331.791 260.662 332.022 260.59 332.244C260.507 332.448 260.347 332.61 260.107 332.732C259.609 332.984 258.931 333.315 258.074 333.726C257.235 334.128 256.322 334.567 255.336 335.044C254.349 335.52 253.326 336.015 252.266 336.529C251.224 337.034 250.26 337.51 249.375 337.958C248.97 338.163 248.523 338.401 248.034 338.672C247.564 338.933 247.104 339.19 246.652 339.442C246.219 339.684 245.813 339.913 245.435 340.127C245.058 340.342 244.767 340.5 244.564 340.603C244.38 340.696 244.214 340.711 244.066 340.647C243.936 340.574 243.824 340.445 243.731 340.261C243.647 340.095 243.632 339.929 243.687 339.762C243.741 339.595 243.833 339.479 243.962 339.414Z" fill="#032CA8"/>
<path d="M266.813 311.812C265.906 310.479 265.142 309.612 264.519 309.211C263.913 308.798 263.277 308.818 262.611 309.271C262.252 309.516 262.008 309.781 261.879 310.069C261.767 310.345 261.802 310.746 261.984 311.272C262.167 311.798 262.532 312.499 263.079 313.377C263.625 314.255 264.381 315.403 265.346 316.821C265.683 317.317 265.946 317.613 266.136 317.708C266.327 317.804 266.524 317.782 266.729 317.643C267.652 317.015 268.117 316.211 268.126 315.231C268.134 314.251 267.696 313.111 266.813 311.812ZM278.127 316.377C278.349 316.226 278.465 316.047 278.475 315.84C278.502 315.622 278.434 315.394 278.271 315.154C277.98 314.727 277.639 314.409 277.247 314.201C276.844 313.975 276.567 313.751 276.416 313.529C276.311 313.375 276.261 313.21 276.265 313.032C276.286 312.843 276.391 312.684 276.579 312.556C276.852 312.37 277.148 312.382 277.465 312.591C277.787 312.771 278.263 313.323 278.89 314.246C279.367 314.947 279.754 315.608 280.052 316.23C280.356 316.823 280.504 317.41 280.498 317.989C280.497 318.539 280.302 319.097 279.912 319.662C279.521 320.227 278.882 320.812 277.993 321.417C276.78 322.242 275.706 322.647 274.771 322.633C273.825 322.601 272.986 322.047 272.254 320.971C271.998 320.595 271.742 320.182 271.486 319.731C271.218 319.264 270.927 318.799 270.613 318.338C270.381 317.996 270.115 317.789 269.817 317.717C269.506 317.628 269.12 317.741 268.659 318.055C268.129 318.415 267.806 318.822 267.69 319.276C267.591 319.718 267.704 320.179 268.029 320.657C268.285 321.033 268.57 321.452 268.884 321.913C269.215 322.363 269.493 322.736 269.719 323.032C270.097 323.55 270.412 323.885 270.666 324.038C270.937 324.179 271.234 324.139 271.559 323.918C271.627 323.871 271.724 323.793 271.849 323.683C271.991 323.561 272.114 323.466 272.216 323.396C272.353 323.303 272.505 323.287 272.672 323.349C272.827 323.393 272.945 323.475 273.026 323.595C273.108 323.714 273.152 323.872 273.16 324.066C273.156 324.244 273.085 324.379 272.948 324.472C272.76 324.6 272.496 324.78 272.154 325.013C271.817 325.217 271.444 325.458 271.034 325.737C270.624 326.016 270.205 326.3 269.778 326.591C269.339 326.864 268.94 327.123 268.581 327.367C268.205 327.623 267.793 327.916 267.343 328.247C266.898 328.549 266.463 328.846 266.035 329.136C265.608 329.427 265.221 329.703 264.874 329.964C264.515 330.208 264.241 330.394 264.053 330.522C263.883 330.638 263.728 330.668 263.59 330.612C263.452 330.556 263.325 330.442 263.209 330.271C263.104 330.118 263.059 329.96 263.075 329.8C263.108 329.627 263.184 329.501 263.304 329.419C263.389 329.361 263.503 329.309 263.646 329.261C263.778 329.197 263.869 329.148 263.92 329.113C264.245 328.892 264.377 328.627 264.317 328.318C264.245 327.992 264.014 327.524 263.625 326.914C263.072 326.065 262.436 325.074 261.714 323.94C260.993 322.806 260.237 321.658 259.447 320.496C258.912 319.709 258.366 318.943 257.809 318.198C257.269 317.44 256.75 316.731 256.251 316.071C255.955 315.673 255.653 315.34 255.347 315.073C255.046 314.778 254.734 314.741 254.409 314.962C254.289 315.043 254.181 315.142 254.085 315.257C253.994 315.344 253.906 315.416 253.82 315.474C253.65 315.591 253.495 315.621 253.357 315.565C253.219 315.509 253.098 315.404 252.993 315.25C252.877 315.079 252.826 314.913 252.842 314.753C252.875 314.58 252.951 314.454 253.071 314.372C253.771 313.896 254.487 313.422 255.216 312.951C255.945 312.48 256.703 311.977 257.489 311.442C257.933 311.14 258.457 310.771 259.061 310.336C259.665 309.901 260.277 309.459 260.897 309.012C261.518 308.565 262.122 308.13 262.708 307.706C263.295 307.282 263.784 306.936 264.178 306.669C265.852 305.53 267.395 304.968 268.805 304.984C270.204 304.983 271.385 305.691 272.35 307.11C272.931 307.964 273.245 308.775 273.292 309.543C273.34 310.31 273.209 311.037 272.9 311.722C272.608 312.395 272.187 313.044 271.636 313.668C271.075 314.275 270.501 314.865 269.916 315.438C269.808 315.536 269.743 315.643 269.721 315.758C269.699 315.873 269.712 315.964 269.758 316.033C269.805 316.101 269.885 316.146 270 316.168C270.132 316.178 270.266 316.137 270.403 316.044C271.736 315.137 272.866 314.631 273.794 314.525C274.739 314.407 275.695 314.894 276.662 315.986C276.917 316.288 277.165 316.469 277.406 316.53C277.665 316.579 277.905 316.528 278.127 316.377Z" fill="#032CA8"/>
</g>
<text style="font-family: 'Lyon Text Web';" fill="black" xml:space="preserve" style="white-space: pre" font-family="Lyon Text Web" font-size="16" letter-spacing="0em"><tspan x="48.1675" y="139.037">Of course how you play Spades, the </tspan><tspan x="48.1675" y="157.037">language you use while playing, </tspan><tspan x="48.1675" y="175.037">what you know about its history </tspan><tspan x="48.1675" y="193.037">and whether or not you can also </tspan><tspan x="48.1675" y="211.037">play Bid Whist differs by region of </tspan><tspan x="48.1675" y="229.037">the country and generation.&#10;</tspan></text>
</g>
<defs>
<clipPath id="clip0">
<rect width="338" height="358" fill="white"/>
</clipPath>
</defs>
</svg>
