<svg width="322" height="474" fill="none" xmlns="http://www.w3.org/2000/svg"><g id="card_back"><g id="black" stroke="#fff" stroke-width="2" stroke-miterlimit="10"><path id="Vector" d="M63.5 186c.1 4.9-.1 10.2-2 15-1.7 4.2-5.9 7-10.7 7.9-.5.1-.8.3-.8.6l.7.4c5 .8 8.5 2.2 10.4 5.2 2.3 3.7 2 8.7 2.1 13l-.5 26.5c-.3 4.3 0 11.5-4.6 13.6-4 1.8-10.5-1-14.5-2.9C32 260.2 20.4 255 8.7 249.6a28.1 28.1 0 01-5.5-3 4.4 4.4 0 01-1.8-3.5v-83.2c0-1.8.7-2.8 2-3.1 1-.3 2.9-.4 5.6-.4 11 .4 21.8 1.2 32.8 2.2 6.8.7 14.8 2 19 7.5 3.1 6 2.7 13.5 2.7 19.9zm-23 46.1c0-3-1-5.8-3.1-8a11.7 11.7 0 00-7.9-3.5c-1.6-.1-3.1 0-4.4.4-3-3.3-4.4-7.1-4.4-10.5 0-3.3 1.4-7.6 4.3-10.8 1.2.6 2.7 1 4.6 1a10.9 10.9 0 0011.2-10.9c0-3-1-5.8-3.2-8.2a11 11 0 00-8-3.9c-8.4-.3-10.7 7.8-12.3 13.8-1.2 6-1.4 12-1.4 18 0 5.1 0 10.4.9 15.4 1.2 6.4 5.4 13.2 12.6 15.3 3 .9 5.6.6 7.8-1 2.1-1.5 3.3-4 3.3-7z"/><path id="Vector_2" d="M122 282.4c-.2 4.6-.7 6.8-1.6 7.6-1.2 1-4 1-7.7 0a378.2 378.2 0 01-33.5-10.2 26.5 26.5 0 01-8.9-4.6c-1.4-1.4-2-3.7-2-8.1.6-33.6 1.1-67.1 1.2-100.7 0-2.5.6-3.6 1.5-4 1-.4 3.2-.4 6.6 0 12.7 1.4 25.4 2.5 38.1 3.1 2 .1 3.6.4 5 1.2 1.3.7 2 1.7 2 2.9-.4 6.3-6.3 12-10.6 17-6.4 6.8-12.7 13.5-19.8 19.6C83 215 81.6 225.2 81 237c-.2 4.4.7 9 3 13 2 3.6 4.6 5.7 7.7 6.4 3 .6 5.7-.3 8-3.2 2.3-2.8 3.4-6.8 3.7-11.5.2-3.8-.6-8.6-2.6-12-1.8-3.2-4.2-4.7-7.3-4.9v-6c.1-6.6 1.4-8.8 3.6-11.2 2.6-3 8.3-5.1 12.6-5 3.8.2 7.4 1.3 10.1 3.2 2.8 1.9 4.2 3 4.2 6-.3 23.5-1.4 47-2 70.6z"/><path id="Vector_3" d="M184.3 288c-.2 4.1-.8 5.6-2 6.2a16 16 0 01-5.7 1.1c-5.3.3-8 .4-13.4.5 7.7-15.4 5.6-37.7 6-54 .2-7.2 3.2-29.8-11-29.5-3 .1-5.8.8-8.2 3-2.4 2.3-3.6 5.4-3.7 9.8-.2 4.4.7 9 3 12.8 2 3.7 4.8 5.6 8.1 5.6 1.2 0 2.4-.4 3.5-1.1 2 10 2 20.5 1.7 30.6-.2 6.1-.2 12.9-2.3 18.7-1 2.8-3.4 3.7-6.9 4-.9 0-4 0-9.2-.4-15.5-1.3-17.4-11.8-17.4-24l1.4-42.8c.7-9.4.9-16.7 11-20.9 6.5-2 13.1-3.8 19.7-6 5.4-1.7 10.6-4.9 10.7-10.4 0-2.9-1-5.4-3.3-7.2a11 11 0 00-8.1-2.2c-3.1.3-5.7 1.4-8 3.4a9.1 9.1 0 00-3.4 7c0 1.5.3 2.9.8 3.8-2.2 2.9-5 4.2-8.5 4.3-2.8 0-5.1-.7-7-2.3a7.6 7.6 0 01-2.7-6v-16.5c-.2-8.2 8-10 15.6-10.3 9-.8 17.6-2 26.4-3.9 8.8-2.3 16.4-2 15.8 8.1-.1 39.5-1.5 79-3 118.5z"/><path id="Vector_4" d="M248.7 181.5c.6 5.8 0 12.3-3.1 17.4-2.6 4.2-6.5 5.9-11 6-5.8.3-11.2-2.2-14-6.9 3-.2 5.5-1.5 7.5-4.3s2.8-6.5 2.5-11c-.2-4-1.4-7.6-3.5-10.4-2.2-2.8-4.6-3.7-7.2-3-5.6 1.6-9 6.8-11 11.6-2 5.4-3.2 11.4-3 17 .6 7.7 3.5 12.9 9 18.6 4.6 4.8 10 9.5 18 9.3a29 29 0 0018-6.9l-2.5 43.8c-.4 11.7-6 21.1-18.9 24.6-7 1.8-14.2 3.3-21.5 4.6-15.2 2.7-17-7.5-17-19 1.4-35.8 2.3-71.4 2.2-107.2-.3-8.8 6.8-13.9 14.8-17.3 7.4-3.3 14.8-6.6 22.4-9.6 10.1-4.5 15.5 1 15.9 10.2l2.4 32.5z"/><path id="Vector_5" d="M320.3 224.4l-.2 16.8c0 1.3-.2 2.3-.7 3a17 17 0 01-5 4.1 507 507 0 01-20 12.1c2.1-9.6 2.4-19.7 2.9-29.5.3-5.1-.7-8.7-3-11.2a10.9 10.9 0 00-9-3.5c-3.2.1-6 1.1-8.4 3.3a12 12 0 00-3.8 8.3c-.3 4 .7 7 3 8.8a8.6 8.6 0 007.8 1.4 10 10 0 001.9-.6 27 27 0 011 10.8c-.1 4-.8 7.7-2 11.4a19.7 19.7 0 01-10.1 11 338 338 0 01-14.2 6.2c-3.3 1.3-5.3 1.8-6 1.5-.7-.4-1-1.7-.9-4.8 1.4-20.7 4.8-42.6 3.7-63.4-1.3-24.3-4-49-6.5-73.2-.4-2.6-.1-3.8.5-4.5.7-.6 2.3-1.3 5-1.8 5.5-1.2 11.2-1.9 17-2.2 4.1-.1 7 1.2 8.5 5.5a62.2 62.2 0 011.2 25.9c-.5-.2-1.3-.3-2.1-.3-3.4 0-6 2-7.8 5.7-2 4-2.5 8.7-2.2 13 .4 4.4 1.6 8.9 4.5 12.5a11 11 0 008.8 4.7c3.5 0 6.5-2 8.6-6.7 2.9-6.7 2.8-14.3 2.5-21.3-.7-12.3-1.1-27.2-7.7-38.6 9.2 1 17.8 3 26.5 5.4 4 1.2 6.1 2.6 6.1 5.9v34.8c-.3 12-.9 28.5-16 33.2-.5 0-.8.3-.8.6 0 .4.4.6.9.8 8 2 16.1 6.3 16 14.9z"/></g><g id="good" fill="#04AADC"><path id="Vector_6" d="M241.7 124.1c.2 4.2-1.7 6-5.8 7.4l-10.2 4c-4.6 2-7 1.9-7-3.7V79.5c-.4-4 1.3-9.5 7-8.6 3.4.3 5.2.5 8.6 1 2.5.4 4.2 1 5 1.6 1.3 1 2 2.6 2 5.5l-.2 14.7c-2-3.6-4.3-5.7-7-6-3.1-.2-5.6 1.7-7.6 5.5a24.5 24.5 0 00-2.8 10.4c0 2 .6 4.7 1.6 7.1 1.2 3.2 2.8 4.8 5 4.5 1.1-.2 2.2-1 3-2.2a7 7 0 001.1-4c0-1.7-.4-2.8-1.4-3.6-.8-.8-2-1.2-3.2-1.2-1.2 0-2.1.4-2.8 1.2v-.7c-.3-1.8.4-3.4 1.9-5.2 1.5-1.8 3.1-2.7 5-2.7 2 0 3.6 1 5 2.7a8 8 0 012.2 5c.4 6.5.5 13 .6 19.6z"/><path id="Vector_7" d="M267.3 119.4c0 3.8-2.4 5.6-7 6.1-3.6.4-5.4.7-9 1.5-4.7 1-7.2.5-7.3-4.2-.3-13.7-.4-27.3-.3-41 0-6.3 2.5-7.6 7.5-6.6l9.3 1.9c4.9 1 7.3 3.1 7.2 8.3l-.4 34zm-7.4-6.7a4.2 4.2 0 00-4.2-4.3c.2-2 .9-4 2.3-7.4 1.3-3.2 2-6.1 2-8.2 0-1.5-.3-2.9-1.1-4a4.3 4.3 0 00-3-2c-1.3-.3-2.4.2-3.2 1.1-.9 1-1.3 2.5-1.3 4.2 0 1.8.4 3.3 1.4 4.4 1 1 2.2 1.5 3.5 1.2-.3 2.5-1.3 5-2.8 7.9a15.6 15.6 0 00-2.1 7.4c0 1.4.4 2.5 1.2 3.3.8.8 1.8 1.1 3 1 1.1-.1 2.2-.7 3-1.5.9-.9 1.3-2 1.3-3.1z"/><path id="Vector_8" d="M294.2 120.9c0 4.2-2 5.3-6.5 4.8a105 105 0 00-9.5-.7c-5.2-.1-8.4-1.9-8.4-5.7l.3-33.6c0-5.1 2.6-6.7 7.5-6l9.2 1c4.9.5 7.3 2.6 7.2 7-.1 11 0 22 .2 33.2zm-7.5-8.2c0-1.3-.6-2.3-1.4-3.2-1-.8-2-1.2-3-1.2 0-1.9.6-4 2-7.1 1.4-2.9 2.1-5.4 2.1-7 0-1.3-.4-2.4-1.2-3.3-.8-1-1.8-1.5-3-1.6-1.2 0-2.3.3-3.2 1.1-.8.9-1.3 2-1.3 3.4 0 1.5.4 2.7 1.5 3.6a4 4 0 003.3 1c-.2 2.2-1.3 4.5-2.7 7.3-1.3 2.6-2 5-1.9 6.7 0 1.2.6 2.2 1.4 3a5 5 0 003.2 1.3 4 4 0 003-1c.9-.8 1.2-1.8 1.2-3z"/><path id="Vector_9" d="M319.2 125.8c0 3-.7 4.9-2 5.7-1.4.9-3 .6-5.2 0a92 92 0 00-12.6-3.8 7.3 7.3 0 01-2.5-1c-.3-.2-.5-1-.5-2.3-.2-13.3-.2-26.6 0-40 0-1.2.3-2 .6-2.3.4-.4 1.2-.5 2.5-.4 4.9.4 7.3.5 12.2.6 2.3.1 4.1.8 5.6 2.2a7 7 0 012.3 5.4c0 11.9-.1 23.9-.4 36zm-7-23c0-3.3-.2-5.8-.5-7.3-.7-3.1-2.3-4.8-4.7-4.8-1.2 0-2.2.3-3 1-1 .8-1.4 1.8-1.4 2.9a4 4 0 001.3 2.9c.8.8 1.8 1.2 3 1.2.6 0 1.3 0 1.7-.3 1 1.2 1.6 2.9 1.6 5s-.6 4.2-1.8 6c-.5-.4-1-.5-1.7-.6-1.2 0-2.2.4-3 1.3a5 5 0 00-1.3 3.5c0 1.4.3 2.7 1.1 3.8.8 1.2 1.8 1.9 2.9 2 2.5.5 4.2-1.8 5.1-6.8.4-1.8.7-5.7.7-9.8z"/></g><g id="fun" fill="#FE2B4C"><path id="Vector_10" d="M28.6 390.4v8.4c0 1.5-.5 2.9-1.7 4a6.2 6.2 0 01-4.4 1.6c-2 0-3.6-.6-4.5-1.8 1.8-.8 2.8-2.2 2.8-4a4 4 0 00-1.4-3.2c-1-.9-2.2-1.3-3.6-1.3s-2.6.4-3.6 1.3c-1 .8-1.5 2-1.5 3.3 0 1.4.6 2.9 2 4.4 1.3 1.4 2.9 2.5 4.7 3.2 2.2.9 5.5 1.4 10 1.6v1.7l-4.5.3a16 16 0 00-5.7 1.5c-.8.5-1.4 1.2-1.6 2-.4 1.2-.3 2.5.2 3.7.7 1.5 2.4 3.9 4.8 7 2.6 3.5 4.4 6 5.4 7.8a17 17 0 012.6 8.2 3 3 0 01-.9 2.3c-.6.6-1.3 1-2.1 1-6.6.7-13.2 1.2-19.8 1.4-1.5 0-2.4-.2-2.8-.6-.4-.5-.6-1.4-.6-3v-53.4c0-1.3.2-2.2.8-2.7.5-.5 1.5-.7 3-.7h15.4c4.7 0 7 2 7 6z"/><path id="Vector_11" d="M58.6 433.7c0 1.7-.2 2.8-.4 3.4a3.5 3.5 0 01-2.6 2c-5.4 1.1-10.7 2-16.2 2.6-8.9 1.7-8.3-11-8.4-15.4v-37.9c0-2.7.8-4 2.7-4h10c-.3.7-.7 1.6-1.1 3l-1.7 4.6a68.1 68.1 0 00-1.5 27.7c1 6 2.6 9 6.1 8.8 1.6-.2 3-1 4-2.3a7 7 0 001.7-4.7c0-2-.7-3.5-1.9-4.6a5.3 5.3 0 00-3.9-1.6c-.8 0-1.4.2-2 .7a26.1 26.1 0 010-19.8c1-3.2 2.6-6.2 4.3-8.9.9-1.1 1.5-1.9 2-2.2.7-.5 1.6-.7 2.7-.7h3c1.1 0 1.7.8 1.8 2.5a507 507 0 011.4 46.8z"/><path id="Vector_12" d="M88.6 430.6c-.4 1-.7 1.5-1 1.8-.4.3-1 .5-2 .6-2.4 0-3.5.2-5.9.5 1.7-4.8 1.9-9.9 1.4-14.8-.5-4.7-1.7-9.4-4.3-13.5a6.2 6.2 0 00-2.2-2c-1-.6-2.2-1-3.3-1-2 0-3.3.5-4.3 1.4-1 .9-1.5 2-1.5 3.4 0 1.2.7 2.3 2 3.1a7 7 0 008.1 0c2.2 4.4 2.1 9.6 1.4 14.4-.4 2.8-1.1 5.7-2.1 8.3-.5 1.2-1.5 2-2.9 2.3l-7.8 2c-1.2.3-2 .4-2.2.2-.4-.1-.6-.7-.5-2a383 383 0 00-1.4-48.8c0-.8 0-1.4.2-1.7.2-.3.8-.5 1.7-.5h6.6l1.8 4.8a41 41 0 003.6 7c1.6 2.6 3.1 4.4 4.5 5.4a8 8 0 004.8 1.7 5 5 0 003.5-1.3c1-.9 1.3-1.9 1.2-3.1a5 5 0 00-2.2-3.3 6.4 6.4 0 00-4-1.4c-2 0-3.5.7-4.4 2.2-1-1.6-1.6-3.4-2-5.3-.5-2.5-.7-4.4-.3-5.6.3-.7 1-1.1 2.5-1.1H85c1.3 0 2.2.1 2.6.4.4.3.9 1 1.3 2.4a69 69 0 01-.2 43.5z"/></g><g id="community" fill="#FE22B8"><path id="Vector_13" d="M16 454.9c0 1.1-.4 2-1.2 2.8a4 4 0 01-2.8 1c-1.5 0-2.6-.5-3.3-1.6.7 0 1.4-.2 1.9-.6.5-.5.8-1 .8-1.8 0-.7-.3-1.3-.7-1.8-.6-.5-1.2-.8-1.9-.8-1.2 0-2.2.6-2.9 1.6-.6.9-.9 2-.9 3.1 0 1.9.7 3.4 2.2 4.6a6.7 6.7 0 004.5 1.7 7 7 0 004.2-1.2v7.4c0 2.6-1.4 4-4.2 4H6.4c-3 0-4.4-1.4-4.4-4v-19.4c0-2 1.3-3 4-3l6.2-.1c2.6 0 3.9.8 3.9 3l-.1 5.1z"/><path id="Vector_14" d="M32.3 469.8c0 2.3-1.5 3.5-4.4 3.5h-6c-3 0-4.6-1.2-4.6-3.5l.1-19.1c0-2.7 1.6-3.8 4.7-4h6c3.1-.2 4.6.6 4.5 3.5-.2 6.5-.3 13-.3 19.6zm-4.7-4.2c0-.6-.3-1.2-.8-1.7-.6-.5-1.2-.7-1.9-.7.1-1.1.6-2.6 1.5-4.4a10 10 0 001.3-4.1c0-.8-.2-1.5-.7-2-.5-.6-1.1-.8-2-.8-.7 0-1.4.3-2 .8-.4.5-.8 1.2-.8 2s.4 1.5 1 2 1.3.7 2.1.5c-.1 1.3-.8 2.5-1.7 4.3-1 1.7-1.4 3-1.4 4.1 0 .7.2 1.3.8 1.7a2.8 2.8 0 003.8 0c.5-.4.8-1 .8-1.7z"/><path id="Vector_15" d="M55 472.2c0 .7-.4 1.1-1.3 1.1h-5.4c-1 0-1.5-.4-1.8-1.2-.6-2.3-1-4.5-1-6.7 0-3.1.9-5.5 2.5-8.6.4.2 1 .3 1.4.3.7 0 1.3-.2 1.8-.7.7-.6 1-1.5 1-2.5s-.2-1.7-.7-2.3c-.6-.6-1.2-.9-2-.8-1.5.1-2.6 1.7-3.5 4.4-.6 2-1 3.5-1 4.5-.2.8-.4 1.3-.6 1.3-.3 0-.4-.5-.5-1.3 0-1.2-.3-2.8-.7-4.4-.7-2.6-1.8-4-3.3-3.8a3 3 0 00-2.9 3c0 1 .2 1.6.8 2.1.6.5 1.2.7 1.9.7.5 0 1-.1 1.4-.4a19 19 0 012.2 8.6c0 2.5-.3 4.7-1 6.6-.3.8-.8 1.3-1.7 1.3h-5.3c-1 0-1.5-.4-1.5-1.2 0-8 .1-15.9.3-23.8 0-1 .2-1.5.5-1.7.2-.2.8-.4 1.8-.4l4.7-.4c1.3 0 2.2.2 2.6 1.2l.6 1.4.5 1 .5-1 .8-1.6c.5-1.1 1.4-1.6 3-1.8l4.2-.5h1.8c.3.3.4.8.3 1.9-.1 8.5-.4 17.1-.4 25.7z"/><path id="Vector_16" d="M77.7 472.2c0 .7-.4 1.1-1.3 1.1H71c-1 0-1.5-.4-1.8-1.2-.6-2.3-1-4.5-1-6.7 0-3.1.8-5.4 2.4-9.4.5.3 1 .4 1.4.4.6 0 1.3-.4 1.7-1 .7-.9 1-2 1-3.4 0-1.2-.3-2.2-.8-3-.5-.7-1.2-1-1.9-.9-1.5.3-2.6 2.4-3.3 6-.6 2.5-1 4.4-1 5.5-.2.9-.3 1.3-.5 1.3-.3 0-.5-.4-.5-1.3-.1-1.4-.4-3.4-.8-5.4-.7-3.3-1.7-4.9-3.2-4.7-.8 0-1.5.5-2 1.3-.5.7-.8 1.6-.8 2.6 0 1.2.2 2 .7 2.6.5.6 1.2.8 1.8.8.5 0 1-.2 1.4-.5a24 24 0 012.2 9.1c0 2.5-.3 4.7-1 6.7-.2.8-.8 1.2-1.6 1.2H58c-1 0-1.5-.4-1.5-1.2 0-8.7.2-17.3.5-26 0-1 .2-1.6.5-1.9.2-.3.8-.5 1.7-.6l4.6-1c1.2-.2 2 0 2.5 1.1l.6 1.7.5 1.2s.3-.5.5-1.3c.2-.9.4-1.3.7-2 .4-1.4 1.3-2 2.7-2.4l4.1-1.2c.9-.3 1.5-.3 1.8 0 .3.1.5.8.5 2.1v30.4z"/><path id="Vector_17" d="M94.5 471l-.1 1.6c-.3.5-.8.7-1.6.7h-9c-3.2 0-4.7-2-4.7-6.4 0-8.5.3-17 .3-25.6 0-2.3.7-3.1 1.9-3.6l6.3-2.3c-.3.5-.5 1.3-.8 2.6l-1.1 5-1.2 7.5c-.5 4.3-1.2 8-1.2 9.7 0 1.7.2 3.1.6 4.4.6 2.2 1.8 3.4 3.6 3.3.8 0 1.5-.3 2-.8.7-.6 1-1.2 1-2s-.3-1.4-1-1.9a3 3 0 00-2-.5 3 3 0 00-1.3.3c-.7-1.3-1.2-2.2-.9-4.9a98.5 98.5 0 014.7-21.4c.5-1.3 1-2 1.2-2.3.4-.6 1-1 1.6-1.3l1.7-.7c.7-.3 1 0 1 1.7.2 12.4-1 24.6-1 36.9z"/><path id="Vector_18" d="M114.2 472c0 .6 0 .9-.2 1-.1.2-.6.3-1.1.3h-4.2c0-1.9-.4-5.5-1.2-9.8-.9-4.3-1.6-6.2-2.3-9a5 5 0 00-1-2c-.5-.7-1.1-1-1.8-.9-1 .2-1.8 1-2.5 2-.6 1.2-1 2.4-1.1 3.5-.2 1 .1 1.6.8 2 .6.3 1.3.4 2 .3.8 0 1.6-.5 2.4-1 1 1.7 1.4 4.8 1.4 8.8 0 1.9 0 3.7-.3 5.1-.2.7-.7 1-1.7 1h-5.3c-.8 0-1.2 0-1.4-.2-.3-.1-.4-.5-.4-1 0-13.1 1-26 1-39v-1.6c.2-.3.6-.6 1-.8l3.7-1.8.8 4.8c.3 2.7.9 6 1.6 9.2.7 3.4 1.4 5.8 2 7 .7 1.3 1.6 1.8 2.6 1.6.8-.2 1.5-.8 2.1-2.1a10 10 0 001-4.7c-.1-2-.5-3.6-1.1-4.8-.7-1.3-1.4-1.7-2.1-1.5-1.2.4-2 1.8-2.6 4.2a52.7 52.7 0 01-.7-14.3c.2-.9.6-1.4 1.4-1.8l3.9-1.9c.7-.3 1.1-.4 1.3-.2.2.2.5 1 .7 2.4 1.8 15.2 1.3 30 1.3 45.2z"/><path id="Vector_19" d="M126.3 471.5c0 1-.1 1.4-.3 1.6-.2.1-.7.2-1.6.2H118c-.9 0-1.5 0-1.7-.2-.2-.2-.3-.7-.3-1.5 0-6.6 0-13 .3-19.7 1.7-.3 3.5-1 5.1-2.5 1.9-1.6 2.7-4 2.4-7.5-.2-2.4-.7-4.2-1.4-5.5-.7-1.3-1.5-1.8-2.3-1.5-.9.2-1.5 1.1-1.9 2.7a18 18 0 000 7.7c-.5.3-1 0-1.4-.5-.5-.6-.8-1.7-1-3.3v-3.2l-.4-4.4c-.3-3.5-.6-5.2-1-7.9-.3-1.2-.3-2-.1-2.5.2-.5.5-.8 1.1-1.1 1.9-1 2.9-1.4 4.7-2.2.7-.3 1.1-.3 1.5 0 .3.3.7 1 1 2.5a242 242 0 013.6 48.8z"/><path id="Vector_20" d="M139 416.4a131 131 0 017.5 43.6c-.2 0-.5 0-.8-.2-.6-.2-1.2-.8-1.6-1.6a30.8 30.8 0 01-4.3-12.9c.4.4 1 .6 1.7.5.7-.1 1.3-.9 1.7-2.4a18.3 18.3 0 00-2-11.4c-1-1.6-1.8-2.3-2.6-2.1-.9.2-1.4 1.2-1.6 3-.2 1.7-.1 3.8.2 6 1 6.2 1.6 12.6 3.4 18.8a71 71 0 003.6 9.4c1.5 3.3 2.2 4.8 2.2 5.3 0 .7-.5.9-1.4.9h-15c-1 0-1.6-.3-1.6-.8s.8-2 2.3-5c1.8-3.6 3-7 3.6-9 1.9-6.7 1.6-12.5.8-19.2-.3-2-1-4-1.8-5.5-.8-1.6-1.6-2.3-2.5-2-.8.2-1.3 1.1-1.7 2.8-.3 1.7-.4 3.7-.1 6 .2 2 .7 3.6 1.3 4.9.7 1.2 1.5 1.8 2.5 1.6.5-.1 1-.4 1.3-.9 0 5.5-.3 8.6-3.3 13.3-.8 1.3-1.7 2-2.7 2 0-13.5-1-26.6-4-40-.7-2-.7-2.8 0-3 5-2.3 7.5-3.3 12.7-4.7.6-.1 1.4.5 2.3 2.6z"/><path id="Vector_21" d="M163.2 468.5c0 2.4-.4 3.6-1.2 4.2-.7.5-1.9.6-3.5.6h-5.8c-3 0-4.5-.8-4.5-4.2v-3.5c0-4.7 1.2-7.3 3.6-7.5.7 0 1.2.2 1.8.7l-.1.7c0 1.6.3 2.8.9 3.8.6.9 1.3 1.4 2.2 1.4.8 0 1.4-.5 2-1.6.5-1 .7-2.3.7-3.5 0-2.2-.6-3.6-1.8-4.5-1-.7-2.2-1-3.6-.9-2.2.2-4.1 1.3-5.7 3.7 0-14-2.8-27.8-7.5-41.2-1-2.6-1.2-3.5-.3-3.7a54 54 0 014.5-.8 68 68 0 012.4 8.3l2.5 11c.9 3.7 1.7 6.7 2.6 9 1.1 2.9 2.1 4 3.2 4 .8-.1 1.4-.8 1.8-2.2a21.5 21.5 0 00-2.5-12c-1-1.9-2-2.7-2.7-2.7l-.4.3c-1-2.3-2-5.1-3-8.1-2.2-6.2-2.9-7.7-1.6-7.9l4.5-.2c.6 0 1.6.7 2.8 3 7.2 18.1 8.7 35 8.7 53.8z"/></g><g id="exit" fill="#FE2B4C"><path id="Vector_22" d="M220.1 385.2c0 1.4-.1 2.5-.5 3.2-.4 1-1.2 1.8-2.4 2.2l-.2.2.2.2c1.1.3 2 .6 2.4 1.4.4.6.5 1.6.5 3l-.3 6.2c0 1.8-.4 2.9-1 3.3-.7.5-1.8.4-3.3.1-3.2-.7-4.8-.9-8-1-.6 0-1 0-1.2-.2-.3-.2-.5-.5-.5-1V380c0-.5.2-1 .5-1 .2-.2.6-.2 1.3-.2l7.5.1c2.2.1 3.6.8 4.4 2 .4.8.6 2.2.6 4.3zm-5.3 11.6c0-.7-.2-1.4-.6-1.9-.5-.5-1.1-.8-1.9-.8-.3 0-.7.1-1 .3-.6-.9-1-1.8-1-3.1s.3-2.3 1-3l1 .2c.7 0 1.3-.2 1.9-.7.5-.4.7-1 .7-1.6 0-.6-.3-1.1-.7-1.6-.5-.5-1.2-.7-1.9-.7-1.5 0-2.4.9-2.8 2.7a39.3 39.3 0 00-.1 9.1c.4 2.3 1.4 3.5 2.9 3.6a2 2 0 001.7-.6c.5-.5.8-1.2.8-1.9z"/><path id="Vector_23" d="M232.8 408.5c0 1.2-.1 1.7-.3 1.9-.3.2-.8 0-1.7-.3-3-1.2-4.4-1.8-7.4-2.8a5 5 0 01-2-1c-.3-.3-.4-.9-.4-2 .4-7.8.5-15.6.5-23.5 0-.8.1-1.2.3-1.4.3-.2.8-.2 1.6-.2l8.8.4c.4 0 .8.2 1.1.4.3.3.5.6.5 1 0 1.2-.9 2.5-2.5 4.1l-4.5 4.6c-1.7 2-2.5 4.3-2.7 7.6 0 1.2.1 2.2.6 3 .4.8 1 1.3 1.7 1.4.7.2 1.3 0 1.8-.6.5-.7.8-1.6 1-2.6 0-1.1-.1-2-.5-2.8-.4-.8-1-1.1-1.6-1.2v-1.4c0-1.5.2-2.3.8-3 .6-1 1.6-1.4 2.8-1.4 1 0 1.8.3 2.4.8.6.6 1 1.2 1 2-.2 5.7-.9 11.4-1.3 17z"/><path id="Vector_24" d="M246.2 415c-.1 1.4-.2 1.8-.5 1.8s-.6 0-1.2-.3l-3-1.4c1.4-4.9 1.8-9.9 2.4-14.8.8-7-.1-8.5-2-8.5-.7 0-1.3.2-2 .8-.5.6-.8 1.5-.9 2.6 0 1.2 0 2.3.5 3.3.4 1 1 1.6 1.7 1.7.3 0 .5 0 .8-.2a50.5 50.5 0 01-1 13.4c-.3.7-.8.8-1.5.6l-2-.8c-2.5-1.2-4-2.5-3.5-7.2l.9-10.3c.2-3.6 1-4.7 2.6-5.5l4.5-1.5c1.6-.5 2.5-1.2 2.5-2.2 0-.6-.2-1-.8-1.4-.5-.5-1.1-.7-1.8-.7a3 3 0 00-1.9.6c-.5.4-.8.9-.8 1.5 0 .3 0 .6.2.8-.5.6-1.2 1-2 1-.6 0-1.2-.3-1.6-.6-.4-.4-.6-.9-.6-1.4v-3.6c0-2 1.3-2.9 3.7-2.8h6c2.4 0 3.6 1 3.6 3 0 10.8-1.2 21.4-2.3 32.2z"/><path id="Vector_25" d="M263.4 386.2c0 1-.4 2-1.1 2.6-.7.8-1.6 1.1-2.7 1.1-1.4 0-2.5-.4-3.2-1.3.7 0 1.4-.2 1.8-.7.6-.4.8-1 .8-1.6 0-.6-.2-1.1-.8-1.5-.4-.5-1-.7-1.7-.6-1.1 0-2.1.5-2.7 1.5-.6.7-.9 1.7-.9 2.7 0 1.7.7 2.7 2 4.7 1 1.8 2.3 3.5 3.8 3.5 1.7.1 3.2-.9 4.3-2.4-.7 6.9-1.6 13.7-2.4 20.6-.9 7.2-2.1 7.4-4.7 6.5l-4.7-1.8c-2.6-1-4-2.4-3.4-8.4 1-9.6 2-19 2.1-28.6 0-1.8 1.3-2.7 3.9-2.9 2.3-.1 3.5-.2 5.8-.5 2.4-.2 3.8.5 3.7 2.5l.1 4.6z"/><path id="Vector_26" d="M278.4 405l-1.5 20.2c0 1.1 0 1.6-.2 1.8-.2.3-.5.3-1 .1L271 426c.9-7 1.4-13.9 2-20.8.4-4.3.4-7.2 0-9-.4-1.8-1.1-2.4-2-2.5-.8 0-1.4.4-2 1.5-.6 1-1 2.4-1.2 4.4-.2 2.2-.1 4.2.3 5.7s1 2.3 1.6 2.4h.4a79.1 79.1 0 01-1.2 14.8c-.6 2.3-1.4 2.4-2.5 2.1a102.4 102.4 0 01-4.8-1.7c-.2-.3-.3-.7-.2-2 1.5-13.7 3.2-27.4 3.5-41.3 0-.5.1-.8.3-1l1.4-.4 4.3-.7c1-.2 1.6.1 1.8 1 .2 1.4 0 3-.6 4.3h-.5c-.7.2-1.4.5-2 1-.5.7-.8 1.3-.8 2s.2 1.4.7 1.8c.5.5 1.1.7 2 .7a3 3 0 002.1-1.2c.7-.8 1-2 1.1-3.5.2-2.5 0-4.9-.4-6.7l5.1-1c.7-.3 1 0 1 1l-.6 6.9c-.3 3.8-1.7 6-4.2 7h-.2l.1.3c4.6 2.8 3 9.7 2.8 14z"/><path id="Vector_27" d="M287.2 427.4c0 1.6-.1 2.2-.4 2.4h-1.4l-5.4-1.5c-.8-.2-1.3-.4-1.4-.7-.2-.3-.3-.8-.2-2.4a1673 1673 0 012.3-36.4c1.4 0 2.8-.4 4.2-1a4 4 0 002.6-3.6c0-1-.1-2-.6-2.6-.4-.6-1-.9-1.7-.8-.8.1-1.4.5-1.9 1.2a4.6 4.6 0 00-.7 3.6c-.4 0-.8 0-1.2-.3-.3-.3-.5-.8-.4-1.6l.1-1.4.2-2 .4-3.7c0-.7.2-1.1.5-1.4.3-.2.7-.4 1.3-.5l4.7-1.1h1.3c.1.2.2.6.1 1.4-1.2 17.5-1.7 35-2.4 52.4z"/><path id="Vector_28" d="M305.4 371.8c-.3 11.8-.4 23.6-.4 35.4-.3 0-.5-.1-.7-.4-.5-.7-1-2-1.4-3.9-1-5-3.2-10.8-2.8-16 .2.2.7.3 1.3.3.6 0 1.2-.4 1.7-1.3.4-.8.7-1.8.8-3 0-1.2-.2-2.2-.7-3-.4-1-1-1.3-1.8-1.2-.7 0-1.3.6-1.9 1.5a7 7 0 00-.8 3c-.2 6 .7 12 1.3 18 .7 7 1.6 14 2.7 21 1.2 7.1 2 9.5 2 10.2 0 1-.5 1-1.3 1-5.2-.9-8-1.4-13.2-2.6-.9-.2-1.3-.5-1.3-1.4 0-.7.8-2.7 2.3-9.1 1.5-6.4 2.6-12.9 3.5-19.4.8-5.7 2-11.7 2.2-17.5 0-1-.2-2-.6-2.8-.4-.8-1-1.1-1.8-1-.7 0-1.3.5-1.8 1.3-.6.8-.9 1.8-1 2.8 0 1 .2 2 .6 2.6.4.8 1 1 1.8 1 .5 0 .9 0 1.1-.3-.2 5-2.2 10.3-3.4 15.2-.7 2.6-1.5 4-2.4 3.8.4-10.5.8-21 1.6-31.6 0-1 .4-1.5 1-1.7 5-1 7.5-1.6 12.5-2.3.6 0 1 .3 1 1.4z"/><path id="Vector_29" d="M320.2 427c0 4.6-.3 6.4-1.2 7.1-.6.6-1.7.7-3.2.6-2.1 0-3.2-.1-5.4-.4-2.7-.2-4.1-.8-4.1-7.4v-7.1c0-4.5-.3-14.4 3.2-15.4.3-.1 1 .6 1.5 1.7v1.6c0 3.2.2 6 .8 8 .5 2 1.2 3.1 2 3.2.7 0 1.3-1 1.8-3.2.4-2.2.6-4.7.6-7.5 0-4.4-.6-7.4-1.8-9.2-.9-1.4-1.9-2.1-3.1-2-2 0-3.6 1.6-5 6.4 0-10.5.1-20.9.3-31.3 0-1.4.5-1.9 1.4-2l4.3-.5a41.6 41.6 0 00-1.7 10.3c0 2 .2 3.6.6 4.9.5 1.6 1.3 2.4 2.2 2.4.8 0 1.4-.4 1.9-1.3a7.8 7.8 0 000-6.8c-.4-.9-1-1.3-1.7-1.3-.2 0-.3 0-.5.2-.3-1.3-.4-2.8-.4-4.4 0-3.2.7-4 1.8-4.1l4.4-.2c.6 0 .9.3.9 1.6 0 18.6.2 37.3.4 56z"/></g><g id="exit_2" fill="#FE2B4C"><path id="Vector_30" d="M232 431.2c.9 4.9 1.3 8.5 1.3 10.8-.1 3.3-1 5-2.7 5.6-.2 0-.2.2-.2.4l.3.4c2 1.1 3.3 2 4 3.4.7 1.1 1.2 2.7 1.5 5 .5 3.6.7 5.7 1 9.3.3 2.9 0 4.7-.9 5.7-1 1-2.5 1.5-4.7 1.5h-11.3c-1 0-1.5-.1-1.8-.3-.3-.2-.6-.7-.6-1.7-1.6-21.2-8.6-41.5-12.5-62.4-.2-1 0-1.7.5-1.9.3-.2 1-.2 1.8-.1a45 45 0 0112.6 3.2c4 1.5 6.7 3.4 8.4 6.9 1.8 4.5 2.5 9.5 3.3 14.2zm-3.1 27.4a7.6 7.6 0 00-1.6-3.7c-.9-1-1.8-1.6-2.9-1.7-.5-.1-1 0-1.4.2a13 13 0 01-2.5-6c-.6-3-1-6.4-.6-8.8.5.5 1.1.8 1.8 1 1 .2 1.8-.5 2.2-1.9.4-1.4.4-3.3 0-5.7a20 20 0 00-2.6-6.3c-1.2-1.9-2.4-3-3.6-3.3-2.4-.6-3 2.6-2 9.6.8 4.9 2 9.7 3 14.5 1.3 6.3 1.4 7.8 2 9.5 1.3 4.8 3 7.4 5.2 7.6 1 0 1.8-.5 2.3-1.4.7-1 .9-2.2.7-3.6z"/><path id="Vector_31" d="M257.1 470.4c0 1.1-.1 2-.4 2.2-.4.5-1.3.7-2.5.7h-11c-1.5 0-2.4-.1-2.9-.5s-.7-1.2-.8-2.8c-1.2-17.4-4.9-34.4-7.1-51.7-.2-1.7 0-2.3.4-2.5.5 0 1.4.2 3 1 5.5 2.5 11 5.2 16.7 7.6.8.4 1.5.9 2 1.5.5.7.8 1.4.8 2.1 0 2.4-1.4 5.5-3.9 9.4-2.2 3.8-4.2 7.6-6.2 11.5-2 4.7-3 7-2.6 11.1.2 1.5.6 2.7 1.4 3.6a4 4 0 002.8 1.6c1 0 1.9-.2 2.6-1a3 3 0 00.9-2.5 5 5 0 00-1.2-3 4.1 4.1 0 00-2.7-1.6l-.2-1.8c-.1-2 .2-3.4.8-5 .7-2 2.2-3 4.2-2.4 1.5.3 2.8 1.4 3.8 3 1.1 1.5 1.6 3 1.6 4.2l.5 15.3z"/><path id="Vector_32" d="M277.2 471.1c0 1-.2 1.7-.6 2l-1.8.2h-4.4c1-2.5 1.4-6 1.4-10.5 0-4.2-1.3-6.2-3.8-6.3-1 0-1.9.3-2.6.8-.8.6-1.1 1.3-1.1 2.2 0 1 .3 1.8 1 2.5.8.6 1.7 1 2.8 1 .3 0 .7 0 1-.2.6 1.3 1 3 1 5 0 1.7-.2 3-.6 4-.3.7-1 1.2-2.2 1.4l-3 .1c-3.8 0-5.7-1.6-5.8-5.5 0-3.2-.2-5-.3-8.2 0-3 1.1-4.8 3.5-6.3.5-.2 2.7-.9 6.6-2.6 2.3-1 3.4-2.8 3.5-5.2 0-1.5-.3-2.8-1-4-.6-1-1.4-1.7-2.4-1.8a3 3 0 00-2.8 1.1c-.8 1-1.2 2.2-1.2 3.7 0 1 0 1.7.2 2.3-.8 1.6-1.8 2.2-3 2-1-.2-1.7-.9-2.4-2-.7-1.2-1-2.5-1-4-.2-4.2-.2-6.5-.2-10.2 0-4.9 2.3-5 6-4 3.8 1.2 5.4 1.2 8.7 1.7 3.4.6 5.1 2.3 5 7-.3 11.3-.5 22.5-.5 33.8z"/><path id="Vector_33" d="M298 448c-.1 1.7-.6 3-1.6 4.2a4.8 4.8 0 01-3.8 1.6c-2 0-3.4-.8-4.4-2.6 1 0 1.9-.3 2.6-1a4 4 0 001.1-3c0-1.1-.3-2.2-.9-3.2-.6-1-1.4-1.6-2.3-1.7-1.7-.3-3 .5-4 2.5a14 14 0 00-1.2 5.8c-.1 3.5.8 5.4 2.7 7a8.8 8.8 0 006 2.3c2.3 0 4.1-.5 5.6-1.6v9.8c0 3.4-2 5.2-5.7 5.2h-7c-4 0-5.9-1.7-5.9-5.2 0-10.5.2-21 .5-31.5.1-3.8 1.9-4.6 5.3-3.9l8 1.9c3.4.7 5.1 2.3 5 5.5v7.8z"/><path id="Vector_34" d="M319.8 463v8.4c0 .7 0 1.2-.2 1.5-.3.3-.7.5-1.4.5h-5.8c.2-2 .4-5.3.4-10.2 0-1.7-.4-3-1.1-4-.8-.9-1.8-1.3-3-1.3-1 0-1.8.3-2.6 1a3 3 0 00-1 2.2 3 3 0 001 2.4c.8.6 1.7.8 2.5.8h.6c.4.8.5 2 .5 3.3a12 12 0 01-.4 3.4c-.5 1.6-1.5 2.3-3 2.3H302c-1 0-1.7-.1-2-.3-.2-.2-.3-.8-.3-1.7l.2-33.7c0-.7.2-1.2.4-1.3l1.6.1 5.4 1c1.3 0 2 .7 2.3 2 .4 1.9.3 3.7-.4 5.4h-.6a3 3 0 00-2.6.8c-.6.7-1 1.5-1 2.5 0 1.1.4 2 1 2.7.7.7 1.6 1 2.7 1 1 0 2-.4 2.8-1.4.8-.9 1.2-2.3 1.2-4 0-3-.5-5.9-1.3-8.5 2.7.3 4 .4 6.8.4 1 0 1.5.6 1.5 1.7v7.3c0 4-1.8 6.5-5.1 7.6-.2 0-.3 0-.3.2l.3.3c3.6 1 5.3 3.5 5.3 7.5z"/></g><g id="lol" fill="#04AADC"><path id="Vector_35" d="M179.4 471.2c0 .8-.1 1.3-.4 1.6-.3.4-1 .6-1.8.6h-8.3c-1.1 0-1.9-.2-2.2-.4-.3-.3-.5-.9-.5-1.8.3-7.5-1.3-14.9-1-22.5 0-.7.1-1.2.4-1.4.2-.3.7-.3 1.6-.3h9.6c.5 0 1 .2 1.3.5.3.3.6.6.6 1 0 1.4-1 3-2.8 4.8l-4.8 5.2c-1.6 2.3-2 5.1-2 7.4 0 .8.3 1.4.9 1.9.5.4 1.1.6 1.9.6a3 3 0 001.9-.7c.5-.4.8-1 .8-1.6a2.4 2.4 0 00-2.6-2.4l-.1-1.3c-.1-1.4 0-2.7.5-3.5.5-1 1.6-1.6 3-1.6 1 0 2 .3 2.6 1a3 3 0 011.2 2.2c.3 4.7.2 6.5.2 10.7z"/><path id="Vector_36" d="M197 469.8c.1 2.3-2 3.5-5.5 3.5h-6.2c-3.1 0-4.7-1.2-4.6-3.4 0-6.4-.3-12.7-.3-19 0-2.6 1.6-4 4.8-4h5.8c3.2 0 5 1.6 5.2 4.2l.9 18.7zm-6-4.2c0-.6-.2-1.2-.8-1.7-.6-.5-1.3-.7-2-.7.1-1.1.6-2.7 1.5-4.5.9-1.8 1.3-3 1.3-4 0-.6-.2-1.2-.8-1.8-.5-.5-1.2-.8-2-.8-.7 0-1.4.3-2 .8-.4.4-.8 1-.8 1.7 0 .8.4 1.4 1 2a3 3 0 002.2.5c0 1.2-.7 2.6-1.7 4.4a9.4 9.4 0 00-1.3 4.1c0 .7.3 1.3.8 1.7.5.5 1.2.7 2 .7.6 0 1.3-.2 2-.7.4-.4.7-1 .7-1.7z"/><path id="Vector_37" d="M215.8 471.1c0 .9 0 1.4-.3 1.7-.3.4-1 .6-2 .6h-10.7c-1.5 0-2.5-.2-3-.4-.5-.3-.7-.9-.8-1.8-.2-7.4-.9-14.9-1.3-22.2-.1-.9 0-1.4.2-1.7.2-.2.7-.3 1.6-.3h9.7c.5 0 1 .2 1.4.6.4.4.7.9.8 1.4.4 1.6-.1 3.2-1.7 4.8-2.8 3-4.6 4.5-4.7 4.7a9.2 9.2 0 00-2.3 7c0 .7.5 1.4 1.2 1.9.8.5 1.7.7 2.6.7a4 4 0 002.4-.7c.6-.4.9-1 .8-1.7-.1-.7-.5-1.2-1.2-1.7-.6-.5-1.4-.7-2.3-.7l-.2-1.2c-.2-1.3 0-2.4.5-3.2.6-1 1.7-1.4 3.2-1.4 1 0 2 .3 2.8.8.8.6 1.3 1.3 1.5 2.2.9 4.1 1.5 6.3 1.8 10.6z"/></g><g id="home" fill="#FE2B4C"><path id="Vector_38" d="M164.5 338.8c0 .7-.1 1.1-.3 1.4-.2.3-.8.5-1.6.4-3.2 0-4.8-.2-8-.3 1.6-4.4 2.4-5.6 2.4-6.7 0-.8-.4-1.5-1.1-2.2a5.7 5.7 0 00-4-1.4c-1.3 0-2.4.3-3.3.7-1 .4-1.4 1-1.4 1.5s.4 1 1.3 1.4c1 .4 2 .6 3.2.6h.8c.5.6.7 1.3.7 2.2 0 2-1 4-2.9 3.9l-7.7-.1c-1.2 0-2-.2-2.4-.4-.2-.3-.4-1-.4-1.9v-36.2c0-1 .1-1.6.4-1.9.2-.3.9-.4 1.9-.3 3.4 0 5 0 8.3.2-1.8 3.8-3 8.4-3 12.5 0 2.5.4 4.5 1.2 6 1 1.6 2.3 2.3 3.8 2.3 1.3 0 2.4-.4 3.4-1.4.9-1 1.4-2.2 1.4-3.7 0-1.7-.5-3.1-1.5-4.1-1-1-2.3-1.4-3.7-1.2a16 16 0 01-.7-5.1c0-3.9 1.2-5.3 3.1-5.3h8.4c1 0 1.8.2 2 .5.2.4.3 1 .3 2.2-.3 12-.6 24.2-.6 36.4z"/><path id="Vector_39" d="M192.1 338c0 2.8-2.5 4.6-7.5 4.1l-9.9-.8c-5.2-.4-7.7-2.6-7.7-5 0-9.7.2-19.5.5-29.3 0-5.5 2.7-7.4 7.7-7.5l9.5-.6c5-.4 7.6 1.2 7.6 7l-.2 32zm-8-5c0-.8-.4-1.4-1.3-2a6 6 0 00-3.1-.8c.2-1.3 1-3.2 2.5-6.7 1.4-3.2 2.1-6.3 2.1-8.4 0-1.5-.4-2.9-1.2-4-.9-1-1.9-1.5-3.2-1.5-1.2 0-2.3.6-3.2 1.7a6 6 0 00-1.4 4c0 1.7.5 3 1.5 4a4 4 0 003.6 1c-.3 2.6-1.3 5.4-3 7.9-1.6 2.2-2.4 3.5-2.4 4.5 0 .7.5 1.2 1.4 1.7a8 8 0 006.4.3c.9-.5 1.4-1 1.4-1.7z"/><path id="Vector_40" d="M230.3 345.1c0 1.3-.8 1.9-2.2 1.7l-9.1-.8c-1.6-.2-2.7-1-3-2.5-1.1-3.7-1.6-6.5-1.6-9.5 0-5.3 2.4-10.5 4.4-15.3.7.6 1.5.8 2.3.8 1.1 0 2.1-.6 3-1.8 1.2-1.3 1.8-3.2 1.9-5.7.1-2-.3-3.9-1.1-5.1-.8-1.4-1.9-1.8-3.1-1.6-2.5.4-4.6 4.1-6.2 10a84.3 84.3 0 00-2 9.7c-.3 1.7-.6 2.4-1 2.4s-.7-.7-.7-2.3c-.1-2.6-.4-6-1-9.5-1-5.5-2.8-8.2-5.6-7.8-1.3.2-2.6.9-3.6 2.2a6.7 6.7 0 00-1.6 4.2c0 2 .5 3.4 1.5 4.3 1 1 2 1.5 3.2 1.5.9 0 1.7-.3 2.5-.9 1.5 4.8 3.4 9.7 3.4 14.8 0 3.2-.4 6-1.6 9-.4 1.1-1.4 1.8-2.8 1.6a754 754 0 01-9-1c-1.7-.3-2.5-1.1-2.5-2.3V302c0-1.9.2-3 .6-3.5.4-.5 1.4-.9 3-1l9.2-1.6c2.4-.4 4 0 4.7 2l1 2.9.8 2c.2 0 .5-.9 1-2.4l1.3-3.5c1-2.4 2.7-3.5 5.1-4.2l7-2c1.4-.5 2.4-.6 2.8-.2.4.4.6 1.4.5 3.8-.9 17-1.5 34-1.5 50.8z"/><path id="Vector_41" d="M256.6 290.9V309a18 18 0 01-1.6 8.5c-1 2-2.4 3-4 3-1.9 0-3.2-.8-4-3 1.6-1.5 2.5-4.3 2.5-8.4 0-2.6-.4-4.8-1.3-6.5-.9-1.6-1.9-2.3-3-2-1.3.2-2.4 1.3-3.3 3.2-.9 1.8-1.3 4.1-1.4 6.8 0 3.4.4 6.2 1.4 8.4 1 2.3 2.3 3.6 3.8 4.4 2 1 5.2 1.6 9.8 1.7v1.6l-4.4.3c-2.3.3-4.2.7-5.4 1.2-3.6 1.6-5.5 3.9-5.5 6.7 0 1.2.5 2.2 1.4 3 1 .7 2 1.2 3.2 1.2 1.3 0 2.4-.3 3.3-1 .8-.8 1.3-1.7 1.3-2.8 0-1.8-.9-3-2.6-3.8 1-1 2.4-1.6 4-1.6 1.7 0 3 .5 4.1 1.5a5 5 0 011.7 4v7.5c0 3.5-2.2 5.3-6.5 5.2-4.6 0-9.3-.3-14-.6-1.9-.2-3-.7-3.2-1.6l-.2-1.5a1505 1505 0 011.6-54.2c.2-.8.7-1.3 1.5-1.7l1.5-.6a648 648 0 0113-4.2c4.2-1.4 6.3-.8 6.3 7z"/></g><g id="competitive" fill="#04AADC"><path id="Vector_42" d="M174.4 352.3a5.3 5.3 0 01-1.6 3c-.8.7-1.7 1.1-2.8 1-1.4 0-2.4-.5-3-1.6.8 0 1.4-.3 2-.8.6-.5 1-1.2 1.2-2 .1-.8 0-1.4-.2-2-.3-.7-.7-1-1.4-1-1.1-.1-2.3.5-3.3 1.7a8 8 0 00-1.5 3.7c-.4 2.1.3 3.5 1.8 4.8 1.4 1.2 3 2 4.5 2 1.7 0 2.9-.5 3.8-1.3.5 3.3 1.2 5.6 2.6 9.3 1.2 3.3.6 4.3-2 4.2l-4.8-.1c-2.6 0-4.7-1.1-6-4.4-3-8.5-3.5-14.1-.3-22.5 1.3-2.4 3.6-3.2 6-3.2 2.2 0 3.3.1 5.6.3 2.3 0 2.5 1.1 1.4 3.4-1.2 2-1.5 3.3-2 5.5z"/><path id="Vector_43" d="M191.9 370.6c.8 3 0 3.8-2.7 3.6l-5.3-.4c-2.8-.2-4.8-1.2-6-4a31.9 31.9 0 01-.7-22c1.3-3 3.8-4 6.6-3.7l5.2.6c2.8.4 3.3 1.7 2.3 4.4-2.7 7.2-1.2 14.2.6 21.5zm-6-5.8a5 5 0 00-1.2-2.3 3 3 0 00-2-1 8 8 0 011.2-4.6c.9-1.7 1.6-3.1 1.8-4.2.1-.7 0-1.4-.3-2-.3-.5-.9-.8-1.6-1-.8 0-1.5.2-2.2.7-.6.5-1 1.2-1.2 2-.2.9 0 1.5.5 2 .5.6 1.2.9 2 .8-.3 1.2-1 2.5-1.8 4.3a8.4 8.4 0 00-.4 5c.2.9.7 1.7 1.4 2.3.7.7 1.4 1 2 1 .7.1 1.2-.2 1.6-.7.4-.6.5-1.4.3-2.3z"/><path id="Vector_44" d="M213.6 375.3c.2.8-.2 1-1 1l-4.9-.5c-.8 0-1.4-.4-2-1.4-1.1-2.4-2-5.8-2.4-8.8-.6-4.4.2-7 1.9-9.4.4.3.8.4 1.3.4.7 0 1.3-.1 1.8-.4.7-.4 1-1 1.1-1.6 0-.6-.1-1.2-.6-1.6-.5-.5-1-.8-1.7-.8-1.5-.2-2.8.7-3.8 2.7-.7 1.5-1 2.8-1.1 3.8 0 .8-.2 1.3-.5 1.3s-.4-.5-.5-1.3a36 36 0 00-.6-4c-.4-2.1-1.2-3.3-2.7-3.4a3 3 0 00-2 .5c-.7.4-1 1-1.2 1.6-.1.8 0 1.5.6 2a3 3 0 001.8.7c.5 0 1 0 1.4-.3 1.2 2.6 2 5.2 2.7 9.7.5 3.5.8 6.7.8 8.7 0 .8-.4 1.1-1.1 1-2 0-3-.2-4.9-.3-.9-.1-1.5-.5-1.8-1.3-2.5-8.8-4.5-17.3-.7-26 .4-1 .9-1.5 1.2-1.7.4-.2 1-.2 1.8-.2l4.3.6c1.1.2 1.7.8 1.7 1.8l.1 1.4.2 1a13.4 13.4 0 011.8-2c.8-1 2-1.4 3.3-1.1l3.9.5c.9.1 1.3.3 1.5.6.2.3.1.8-.1 1.6-2.3 8-.7 17 .4 25.1z"/><path id="Vector_45" d="M228.5 352.4c-.3 2.4-.3 3.4-.2 5.9 0 .7-.2 1.4-.8 2.2-.8 1-1.8 1.5-3.1 1.5-1.2 0-2.2-.7-3-1.7a5 5 0 01-1.2-3.3c.5.3 1 .4 1.5.5.8 0 1.4-.2 1.9-.6.4-.4.6-.9.7-1.3 0-.6-.2-1-.6-1.4-.5-.4-1-.7-1.9-.7-.6 0-1.2 0-1.8.3a2 2 0 00-1 1.3 7 7 0 000 3.8c.5 1.6 1.3 3.5 2.7 5.3l2.4 3.2c1.2 1.3 1.9 2.2 2.3 2.8 1.5 2.2 2.3 4.2 2.4 5.6v.3c0 1-.5 1.3-1.7 1.2a393 393 0 01-10.2-.7c-.7 0-1.1-.2-1.4-.4-.2-.2-.4-.7-.5-1.5-1-8-2.4-16.9-.2-24.8.2-.7.4-1.1.6-1.3.3-.2.7-.3 1.4-.2 3.5.4 5.2.7 8.7 1 2.2.2 3.1 1.3 3 3z"/><path id="Vector_46" d="M242.9 353v3.3c0 .6-.4 1.1-1 1.5-.5.5-1.3.7-2.1.7-1 0-1.8-.2-2.3-.7 1-.4 1.4-1 1.4-1.7 0-.4-.3-.8-.7-1.2a3 3 0 00-1.8-.5c-.7 0-1.3 0-1.9.4-.5.3-.7.8-.7 1.3 0 .7.3 1.3.9 2 .6.5 1.3 1 2.2 1.2 1.1.4 3 .7 5.4.8v.8c-.8 0-1.6 0-2.4.2-1.3.1-2.3.3-3 .7-2 1-3.2 2.8-3.1 5.5 0 1 .3 2 .8 2.7.5.8 1.1 1.1 1.8 1.1a2 2 0 001.8-1c.4-.6.7-1.5.7-2.5 0-1.6-.5-2.7-1.5-3.3.6-.9 1.4-1.3 2.3-1.3.8 0 1.6.4 2.2 1.2.6.8 1 2 1 3.4v6.8c0 2.8-1.3 3.6-3.6 3.5-3 0-4.4 0-7.5-.2-1 0-1.6-.3-1.8-.8l-.2-1c-.2-8-1-16.4 0-24.4l.1-1c.2-.3.5-.5 1-.5h.9l7.5.4c2.4 0 3.6 1 3.6 2.6z"/><path id="Vector_47" d="M258.2 350.7v15.8h-.6c-.5-.2-1-.6-1.3-1.3a16 16 0 01-3-7.7l1.3.1c.6 0 1.1-.2 1.6-.6.5-.4.7-.9.7-1.3 0-.5-.2-1-.7-1.3-.4-.3-1-.4-1.8-.4s-1.3.3-1.8.7c-.4.3-.7.8-.7 1.2a45 45 0 004.3 16c1.2 2.5 1.8 3.6 1.8 4.1 0 .5-.4.8-1.2 1-4.7.5-7 .7-11.6.8-.7 0-1.2-.2-1.2-.6 0-.5.6-1.8 1.8-4.5a67 67 0 002.7-7.6c1-4 1.6-6.5 1.6-9 0-.5-.2-.8-.7-1.2-.5-.3-1-.5-1.8-.5a3 3 0 00-1.7.6c-.5.3-.8.8-.8 1.2 0 .5.2.9.6 1.3.5.3 1.1.5 1.9.5l1-.2c0 2-.9 4.6-2.7 8-.6 1-1.3 1.6-2.1 1.6v-16c0-.6.3-1 .9-1 5-.1 7.4-.2 12.4-.7.8-.1 1.1.2 1.1 1z"/><path id="Vector_48" d="M267.2 373.6c0 .8 0 1.3-.2 1.5-.2.1-.5.3-1.2.4l-4.7.8h-1.3c-.1-.2-.2-.7-.2-1.5v-17c1.3 0 2.6-.3 3.9-.8 1.5-.5 2.2-1.2 2.2-2 0-.6-.2-1.1-.7-1.4-.4-.3-1-.4-1.7-.3a3 3 0 00-1.8.6c-.4.4-.6.8-.6 1.3 0 .3 0 .5.2.6H260c-.4-.3-.6-.5-.6-1v-.7l.1-1.1v-2.4c0-.5.2-.8.4-1 .3-.2.7-.4 1.3-.4l4.5-.5c.6-.1 1 0 1.2.1.2.2.2.5.2 1l.1 23.8z"/><path id="Vector_49" d="M282.8 347.6v15.8h-.7c-.5-.2-1-.5-1.3-1-2-2.6-2.9-5-2.9-7.1h1.3c.5 0 1-.3 1.6-.8.4-.4.6-.9.6-1.4 0-.6-.2-1-.6-1.3-.5-.4-1.1-.5-1.9-.4-.7 0-1.3.4-1.7.8-.5.4-.7 1-.7 1.4a27.4 27.4 0 004.3 14.5c1.1 2 1.7 2.9 1.7 3.3 0 .5-.4.8-1.2 1l-11.5 2.3c-.8.2-1.2 0-1.2-.5 0-.4.6-1.8 1.7-4.3 1.4-3 2.3-5.5 2.8-7a32 32 0 001.5-9c0-.6-.2-1-.7-1.3-.4-.4-1-.5-1.7-.4-.7 0-1.3.3-1.8.8-.5.4-.7.9-.7 1.4 0 .5.2.9.6 1.2.4.4 1 .5 1.8.4.4 0 .8-.2 1-.3 0 2.2-.8 4.7-2.7 8-.6.9-1.2 1.5-2 1.6v-15.9c0-.7.2-1.1.8-1.2l12.4-1.7c.9 0 1.2.3 1.2 1.1z"/><path id="Vector_50" d="M291.8 368.8c0 .7-.1 1.1-.3 1.3-.1.1-.5.3-1.2.4l-4.6 1c-.7.1-1.2.2-1.3 0-.2 0-.3-.5-.3-1.2v-14.8c1.4-.2 2.7-.5 4-1 1.4-.6 2.2-1.5 2.2-2.4 0-.6-.3-1-.7-1.4-.5-.4-1-.5-1.8-.4-.7.1-1.3.4-1.7.8a2 2 0 00-.6 1.4l.1.8c-.4 0-.7 0-1-.2a1 1 0 01-.6-.9v-.9-1.2-2.6c0-.5.2-.8.5-1 .3-.2.6-.4 1.2-.5l4.5-.6 1.2.1c.2.2.3.5.3 1v22.3z"/><path id="Vector_51" d="M305.9 361.9c0 4.2-1.4 6.2-4.1 6.6l-4.7.7c-2.7.5-4-1-4-5.5v-17.4c0-.8.2-1.2.8-1.3l1.9-.2c.7-.1 1.3.1 1.8.8.9 1.2 1.7 2.5 2.3 4 .8 1.8 1.1 3.4 1.1 5s-.3 3-1 4.3h-1c-.7 0-1.3.3-1.8.8-.4.5-.7 1.2-.7 2 0 .6.3 1.2.7 1.7.5.4 1.1.5 1.8.4 1.4-.2 2.5-1.5 3-3.7.3-1.2.4-2.7.4-4.2 0-1.6-.1-3.4-.4-5.1-.2-1.3-.7-3-1.6-5.1l-.5-1.5 4.7-.5c.9 0 1.3.6 1.3 2v16.2z"/><path id="Vector_52" d="M320 346v4.2c0 .8-.2 1.4-.8 2a3 3 0 01-2.2.8c-1 0-1.8-.3-2.2-.9 1-.4 1.3-1 1.3-2a2 2 0 00-.7-1.6c-.4-.4-1-.6-1.7-.6s-1.2.3-1.7.8c-.5.4-.8 1-.8 1.6 0 .9.3 1.6.9 2.3.6.6 1.3 1 2 1.4 1.1.4 2.9.5 5.3.6v.8l-2.3.2a10 10 0 00-3 .7c-2 1-2.9 2.2-2.9 3.9 0 .7.3 1.2.8 1.6.5.5 1 .6 1.7.6s1.3-.3 1.7-.7c.5-.5.7-1 .7-1.6a2 2 0 00-1.3-2c.5-.7 1.2-1 2.1-1a3 3 0 012.2.8c.6.5 1 1.3 1 2.1v4.1c0 1.9-1.2 2.8-3.5 3-3 0-4.5.1-7.6.5-1 0-1.6 0-1.7-.5a3 3 0 01-.1-.9v-21-1c.2-.3.5-.5 1-.7h.8c3-.3 4.6-.3 7.6-.4 2.3 0 3.4 1 3.4 3z"/></g><g id="win" fill="#FE7A04"><path id="Vector_53" d="M286.3 334.4c-.5 3-.9 5.1-1.5 6.5-.8 2-2.2 3-4.2 3.4l-3.4.6c-2.9.5-4.6-1-4.5-6.2h-.4c-1.2 5.4-2.8 7.5-5.6 7.8l-3.4.3c-2 .1-3.5-.6-4-2.8-.3-1.3-.3-3.9 0-7.7.6-7.6.7-15 .6-22.6 0-.9.4-1.5 1.2-1.5h3.1c.8 0 1.5.3 2 1 2.5 2.9 3.9 4.6 4 7.2 0 .8-.4 2-1 3.6-.7 1.6-1.6 3.5-2.5 5l-1-.2c-.9 0-1.6.4-2.4 1.2-.7.8-1.1 2-1.2 3.5a5 5 0 00.7 3.2c.6 1 1.3 1.4 2.2 1.3 2-.1 3.6-2.4 4.7-6.4 1.4-5.2 2-8.7 2.6-11 .4-2.2.5-3.9.6-8.7h1.7c-.1 4.7.3 6.5.8 8.7.4 1.7 1.2 4.8 1.6 10.7.2 3.7 1.3 5.5 3.5 5.3.8-.1 1.6-.6 2.4-1.4.7-.8 1.2-1.7 1.3-2.8.2-1.3 0-2.2-.5-2.9a2.3 2.3 0 00-3.1-.7c-.8-1.2-1.3-3-2-4.7a13 13 0 01-.9-3.7c0-2.6 1-4.6 3.3-7.6.6-.9 1.3-1.4 2.2-1.4l2.8-.2c.7-.1 1.1.4 1.1 1.4 0 7.4.3 14.3-.8 21.8z"/><path id="Vector_54" d="M298.2 339.8c-.1.9-.2 1.4-.5 1.7-.2.2-.8.3-1.8.5l-6.6.9h-1.7c-.2-.3-.3-.8-.3-1.8.8-6.4 2.3-13 2-19.4a20 20 0 005.3-.8c2-.5 3-1.4 2.9-2.6 0-.7-.5-1.3-1.1-1.8-.6-.4-1.5-.6-2.5-.5-1 .1-1.7.4-2.3.8-.5.5-.8 1-.7 1.6 0 .4.1.6.3.9-.5 0-1 0-1.5-.3-.5-.2-.8-.6-.8-1v-1-1.4l-.2-3c0-.7.2-1.1.5-1.4.3-.2.8-.4 1.6-.5l6.3-.7c.9-.2 1.4 0 1.7.1.3.2.4.7.4 1.4.3 9.6 0 18.6-1 28.3z"/><path id="Vector_55" d="M320.3 339l-.2 1.1c-.2.3-.6.4-1.2.4h-4.4a60.8 60.8 0 00-4-18.7 3.5 3.5 0 00-3.1-1.9c-1.1 0-2 .4-2.6 1-.6.5-.8 1.2-.8 2 0 1 .4 1.6 1 2.2.7.5 1.5.7 2.3.7.8 0 1.6-.3 2.4-.8 1 2.2 1.4 5.3 1.2 9.2a41 41 0 01-.6 5.3c-.1.9-.8 1.3-1.8 1.3-2.5.1-3.7.3-6.2.5h-1.6c-.4-.2-.5-.6-.5-1.4.9-9.8 1.2-19.2.9-29.1 0-.6 0-1 .3-1.1.1-.3.5-.4 1.2-.5l4.6-.5.5 3.1a17.7 17.7 0 004 7.6c.9.7 1.8 1 2.8 1 .8 0 1.6-.3 2.2-.8.7-.6 1-1.3 1-2 0-.9-.3-1.6-1-2.2-.6-.6-1.4-.9-2.3-.8-1.3 0-2.3.6-3 1.5-.5-1-.7-2-.7-3.2 0-1.7.2-3 .7-3.8.4-.5 1-.8 2-.9l5-.2c.8 0 1.3 0 1.5.3.2.2.4.7.4 1.5V339z"/></g><g id="feel" fill="#029C54"><path id="Vector_56" d="M274.6 277.6l-.3 7.2c0 1.3-.4 2.5-1.2 3.5a4 4 0 01-2.5 1.8c-1.2.3-2 0-2.4-.7 1-.8 1.7-2 1.7-3.6 0-1-.1-1.8-.7-2.3-.5-.5-1.1-.6-2-.3-.7.2-1.5.8-2 1.6-.7.8-1 1.7-1 2.6 0 1 .3 2 1 2.9.7.8 1.5 1.4 2.5 1.7 1.2.3 3 .3 5.5-.2v1l-2.5.6c-1.4.4-2.4.9-3.2 1.4a2 2 0 00-.9 1c-.2.6-.1 1.2.2 1.7.3.6 1.3 1.5 2.5 2.7 1.5 1.4 2.4 2.5 3 3.3.9 1.4 1.4 2.8 1.4 4 0 .5-.2.8-.5 1.1-.3.3-.7.5-1.2.5l-10.7.5c-.8 0-1.3-.1-1.5-.3-.2-.2-.3-.7-.3-1.5V282c0-.8.1-1.3.4-1.7.4-.5 1-.9 2-1.3l9.3-4c2.5-1.1 3.6-.6 3.4 2.6z"/><path id="Vector_57" d="M289.3 271.9l.2 9.1c0 1.7-.3 3.2-.8 4.3-.7 1-1.4 1.6-2.4 1.7-1.1.2-2-.2-2.4-1.2 1-.9 1.5-2.3 1.5-4.3 0-1.3-.3-2.3-.7-3-.5-.8-1.2-1-1.9-.8-.7.3-1.4 1-1.9 2s-.8 2.1-.8 3.4c0 1.6.2 3 .8 4 .6 1 1.3 1.6 2.2 1.8 1.2.4 3.2.4 5.9.4v1c-.9 0-1.8.1-2.6.3-1.5.2-2.6.7-3.3 1.2a7.4 7.4 0 00-3.5 6.2c0 1 .2 2 .7 2.6.6.6 1.2.9 1.9.8.8 0 1.5-.5 2-1.2.6-.8.9-1.6.9-2.6 0-1.7-.4-2.8-1.5-3.3.7-1 1.5-1.5 2.5-1.6 1 0 1.8.3 2.4 1 .7.9 1 2 .9 3.6l-.3 6.8c0 3-1.4 3.9-4 4.1l-8.2.6c-1.1 0-1.8-.1-2-.6v-1a1270.2 1270.2 0 011.3-33.6c.2-.4.5-.8 1-1.1l1-.5 7.7-3.4c2.3-1 3.4-.8 3.4 3.3z"/><path id="Vector_58" d="M307.2 262.8l-.8 13.4c-.1 2.5-.6 4.6-1.3 6.2-.8 1.6-1.6 2.3-2.6 2.5-1 .2-1.8-.3-2.2-1.7 1.1-1.2 1.8-3.3 2-6.2.2-1.9 0-3.4-.4-4.5s-1-1.4-1.8-1c-.8.3-1.6 1.2-2.3 2.7-.7 1.4-1.1 3-1.2 4.8a14 14 0 00.5 5.7c.5 1.4 1.2 2.3 2 2.7 1.1.6 3 .6 5.8.3v1l-2.7.6a11 11 0 00-3.4 1.2 7.1 7.1 0 00-3.5 6.2c0 1.1.2 2 .7 2.7a2 2 0 002 .8c.8 0 1.5-.5 2-1.3.6-.8.9-1.7.9-2.7 0-1.7-.4-2.7-1.5-3.2.6-1 1.5-1.5 2.5-1.7 1-.1 1.8.1 2.4.9.7.7 1 1.8 1 3.4l-.2 6.9c0 3-1.3 4-4 4.3l-8.7.9c-1.2 0-1.8 0-2-.6V306l.9-37.4c0-1 0-1.5.2-1.8.3-.6.8-1 1.5-1.6l1.6-.8a92 92 0 009.8-5.6c2.5-1.6 3.1-1.7 2.8 4z"/><path id="Vector_59" d="M320.3 302.5c0 1.1-.2 1.8-.4 2-.3.4-1 .6-1.8.7-3.4 0-5.1.2-8.6.5-1.2.2-2 .1-2.4 0-.4-.3-.5-1-.5-2.2.2-15 1-30 2-45 0-1.7.3-2.3.5-2.7a5 5 0 011.3-1.3c2.9-2.1 4-3.1 7.7-5.7.5-.3.9-.5 1.2-.3.4.2.6.7.6 1.7-.1 5.4-1.5 11-2.6 16.5-1.3 5.9-2.4 12-4.7 17.6-1.8 5.1-2.7 6.5-2.8 10.2 0 1.2.3 2.2.8 3 .6.6 1.3 1 2 .9.9-.1 1.5-.5 2-1.3.6-.8.9-1.7.9-2.8 0-1-.2-2-.7-2.6-.5-.7-1-1-1.9-.9v-1.6c0-1.7.3-2.6.9-4.2.7-2 1.6-4 3-4.1 1-.2 1.8.7 2.5 2.2.7 1.5 1 2.8 1 3.7v15.7z"/></g><g id="game" fill="#029C54"><path id="Vector_60" d="M172.9 442.7c.1 2.1-.8 2.7-2.5 2.7h-4c-1.8 0-2.6-.5-2.7-2.8a98.1 98.1 0 00-5.6-26.2c-1.3-4.4-.1-4.9 1.9-4.7 1.5.2 2.2.3 3.7.7a6 6 0 012.3.8c.6.5 1 1.3 1.4 3 .9 3.3 1.8 5.8 3 9.7-1.7-2.4-3.1-3.9-4.3-4.1-1.4-.2-2 1-2 3.4-.1 2.2.4 5.2.6 6.3.1.9.5 2 1 3.2.5 1.4 1.2 2.2 2 2.3.6 0 1-.3 1.3-.8.3-.5.4-1.2.3-1.9 0-.8-.3-1.3-.7-1.7a2 2 0 00-1.4-.7c-.5 0-.8.1-1 .5v-.4c-.2-.8-.2-1.7.1-2.8.4-1 .8-1.6 1.7-1.6.8.1 1.7.8 2.5 2 .9 1 1.4 2 1.5 2.8.4 3 .7 6.3.9 10.3z"/><path id="Vector_61" d="M183 444.2c.1.6 0 1-.2 1-.2.2-.5.2-.9.2h-2.2c.5-1.2.5-4.2.2-8-.3-3.4-1-4.4-2.3-4.5-.4 0-.9 0-1.2.4a2 2 0 00-.5 1.6c0 .7.4 1.3.7 1.9.5.5.9.8 1.4.8l.6-.1a16.9 16.9 0 01.6 7c-.2.6-.5.8-1 .9h-1.6c-1.9 0-2.8-.7-3-3.7l-.5-6.5c-.3-2.3.3-3.2 1.1-4.2l2.7-1.8c1-.7 1.2-1.8.6-3.5-.3-1-.8-2-1.3-2.9-.6-.8-1.2-1.3-1.8-1.4-.5-.2-.8.1-1 .8-.1.7 0 1.6.3 2.7l.6 1.6c0 1.1-.3 1.6-.9 1.5-.5-.1-1-.4-1.4-1.2-.5-.7-1-1.7-1.3-2.7l-2.1-6.9c-1-3.3.1-3.5 2-3l4.5 1.3c1.9.4 2.6 1.1 3.5 4.4a97.2 97.2 0 014.5 24.3z"/><path id="Vector_62" d="M199.2 444.6c0 .6-.3.8-1 .8h-4c-.7 0-1.1-.3-1.3-1-.6-1.7-1-4.2-1.3-6.5-.3-3.3.3-4.6.5-8 .4.4.8.5 1.1.5.5 0 .9-.1 1.1-.6.3-.6.3-1.5 0-2.7-.3-1-.8-2-1.4-2.7-.6-.7-1.2-1-1.7-1.1-1.1 0-1.4 1.6-1 4.7l.6 4.7c0 .6-.1 1-.3 1a38.6 38.6 0 00-2.3-5.9c-1.4-3.1-2.8-4.9-3.8-5-.5 0-.8.3-1 1-.1.7 0 1.5.3 2.5.4 1.1.8 2 1.4 2.6.6.6 1 1 1.5 1 .3 0 .6-.1.8-.4 2 3.3 2.4 4.9 2.7 8.3.3 2.7.3 5-.1 6.7-.2.6-.6.9-1.2.9h-3.6c-.7 0-1-.3-1-.9-.6-9.3-2.2-17.2-4.8-26.2-.3-1-.3-1.5-.1-1.7h1.2l3.1.3c1 .1 1.6.4 2.1 1.4l.9 1.7.7 1.1V420c0-.7 0-1 .2-1.6 0-1 .8-1.2 2-1.2h3.3c.6 0 1.1 0 1.3.3.3.2.4.6.6 1.7 1.8 8.5 4 16.8 4.5 25.4z"/><path id="Vector_63" d="M206.3 420.6l1.3 7.4c.3 1.4.3 2.6 0 3.4-.2.9-.7 1.2-1.3 1.2-.7 0-1.4-.5-2-1.4.6-.6.7-1.7.4-3.5a8 8 0 00-1.1-2.9c-.5-.8-1-1.2-1.6-1.2-.6 0-1 .4-1.2 1.2-.2.7-.2 1.7 0 3 .4 1.5 1 2.7 1.6 3.7.6 1 1.3 1.7 2 2 .9.6 2.3.9 4 1l.3.7h-1.8c-1 .1-1.6.3-2 .5-1.5.6-2 1.7-1.8 3.3 0 .7.3 1.2.8 1.6.5.5 1 .7 1.4.7.6 0 1-.2 1.4-.5.3-.4.4-.9.3-1.5-.2-1-.6-1.6-1.4-2 .3-.6.8-.8 1.5-.8.6 0 1.2.3 1.8.8.5.5.9 1.2 1 2l.5 3.8c.1 1.6-.7 2.2-2.5 2.2h-6c-.9 0-1.4-.1-1.5-.5a2 2 0 010-.7c-.7-8.6-2.9-16.9-4.7-25.3v-1.2c0-.3.3-.4.6-.5h.8l6.2-.2c1.7 0 2.4.5 3 3.7z"/></g><g id="amaze" fill="#FE7A04"><path id="Vector_64" d="M110.4 420.8c-.3 1.2-.6 1.8-1 2.2a205.1 205.1 0 01-6.2 3.4c2.8-4.8 3.2-10.7 3.7-16 .6-6.7-.8-8.5-3.2-8.2-1 0-1.8.4-2.5 1.3-.8.9-1.2 2-1.2 3.5s.2 2.9.8 3.8c.6 1 1.4 1.3 2.4 1 .4 0 .8-.3 1.1-.6a25.8 25.8 0 01-1.6 14c-.6 1.2-1.5 2-2.7 2.7-.3.3-1.3.8-3 1.5-3.9 1.8-5 1.3-4-5.6.6-5 1.1-10 1.4-15.1.3-5.3 1.4-7 3.4-9 .3-.2 2.2-1.4 5.4-4 2-1.6 2.6-3.8 2-7-.4-1.8-1-3.4-2-4.7-1-1.4-2-2-3-2s-1.7.7-2 2.1c-.4 1.4-.4 3 0 5l.8 2.7c-.3 2-1 3-2.1 3-.9 0-1.7-.5-2.5-1.6-.8-1.2-1.3-2.6-1.7-4.4-.9-4-1.9-8.1-3.1-12.1-1.8-6-1-7.5 2.3-7.5h8.6c3.7 0 6.2 1.7 7.7 7.8a102 102 0 012.2 43.8z"/><path id="Vector_65" d="M139.7 409.1c0 .9-.6 1.5-1.8 1.8a63 63 0 00-7.2 2.3c-1.2.4-2 .3-2.1-.6-.4-2.3-.4-5.3-.2-8.2.4-4.4 1.9-8.9 2.9-13.1.6.4 1.2.6 1.8.5a3 3 0 002.2-1.5c.7-1 1-2.4.9-4.1a6.7 6.7 0 00-1.5-3.8c-.8-1-1.7-1.6-2.8-1.6-2 0-3.2 2.7-3.6 7.8l-.3 8.3c0 1.4-.3 1.9-.6 2-.3 0-.5-.4-.7-1.7-.3-2.2-1-5.2-2-8.4-1.6-5-3.7-7.9-5.7-7.8-1 0-1.8.7-2.3 2a9.2 9.2 0 00-.3 4.6c.4 2 1 3.5 1.8 4.5.9.9 1.8 1.3 2.6 1.2.6-.1 1.2-.5 1.7-1 1.7 4 3.6 8.4 3.1 12.8a33 33 0 01-2.4 9.9c-.6 1.2-1.4 2-2.6 2.5l-7 3.6c-1.3.6-1.8.6-1.5-.5 3.3-16.2 1-31-2.8-46.9-.6-2.1-.8-3.2-.6-3.7.3-.5 1-.7 2.4-.7l6.7.3c1.9 0 3.4.9 4.6 3l1.4 2.9 1.1 2c.2 0 .3-.7.4-2l.5-2.8c.2-2 1.5-2.5 3.7-2.4l6.4.7c1.3.2 2.3.5 2.7 1 .4.4.7 1.3.8 3 .9 11.5 1.3 22.6.3 34.1z"/><path id="Vector_66" d="M159.2 407.9c-.1.8-.3 1.4-.7 1.6h-1.8l-4-.2c1-2.4 1.7-4.8 2.2-8 .3-2.8-.8-4.7-3.3-4.7-1 0-1.8.3-2.6.8-.7.6-1 1.2-1.1 1.9 0 .7.2 1.2.9 1.6a4.8 4.8 0 003.5.5c.5.9.6 2 .4 3.4a8.9 8.9 0 01-.8 3c-.3.7-1 1.1-2 1.3l-2.7.2c-3.5.2-5.7-1-5.5-3.7l.6-5.6a7.9 7.9 0 013.3-5.9l6.1-2.8c2.2-.9 3.3-2.3 3.2-4.3 0-1.3-.4-2.4-1.2-3.3-.7-1-1.5-1.5-2.5-1.7-1 0-1.8.3-2.4 1.1-.7.9-1 2-1 3.2 0 .8.1 1.5.3 2-.7 1.3-1.5 1.9-2.6 1.9-.8 0-1.6-.4-2.2-1.3-.7-.8-1-1.9-1-3.2l-.5-8.5c-.3-4.3 2-5.2 5.2-4.6l8.1 1.3c3.4.5 5.1 2 5.3 6 .2 9.7 0 18.4-1.2 28z"/><path id="Vector_67" d="M182 388.1c0 3-1.3 5.5-4.1 7.2-2.2 1.3-3.6 2.1-6 3.3-1.4.8-2.4 1.4-3 1.9-.7.5-1 1-1.2 1.7 0 .8.1 1.4.8 2 .6.6 1.5 1 2.6 1.1 1 0 1.8 0 2.6-.6a3 3 0 001.4-2c.1-1-.3-2-1.3-2.6 1-1 2.2-1.5 3.8-1.5 1.1 0 2 .4 2.7 1 .9.8 1.2 1.8 1 3.2l-1 9c0 .6-.2 1-.5 1.3-.3.2-.9.2-1.7.1l-14-2.5-2-.4c-.9-.3-1.3-.7-1.2-1.2l1-7c.1-.9.5-1.7 1.2-2.7.7-1 2-2 3.9-3a49.7 49.7 0 008-5.4c.8-.8 1.1-1.9 1-3.1a4 4 0 00-1.3-3 4.5 4.5 0 00-2.7-1.2c-1 0-2 .3-2.5 1.1-.6.9-.9 1.8-.9 2.8 0 1.6.7 2.8 1.9 3.4a3.8 3.8 0 01-3.3 1.7c-1.3 0-2.4-.5-3.3-1.4-.9-1-1.4-2.2-1.4-3.6l-.4-10c0-1.2.2-1.9.7-2.2.4-.3 1.2-.3 2.5-.2 5.2.5 7.8.8 13 1.1 1.7.1 2.8.4 3 1 .2.2.3.7.3 1.2l.2 4.8.2 4.7z"/><path id="Vector_68" d="M202.4 381.6c0 2.6.2 4 .3 6.6a4 4 0 01-1 3 4 4 0 01-3.2 1.3c-1.5 0-2.5-.4-3.2-1.3 1.2-.7 1.9-1.8 1.8-3.3 0-1-.5-1.8-1.2-2.5-.7-.8-1.6-1.1-2.6-1.1s-1.8.3-2.5 1-1 1.6-1 2.7a6 6 0 001.5 3.8c.9 1 2 1.7 3.2 2.2 1.6.6 4.2.9 7.7 1v1.2l-3.5.2c-1.8.2-3.3.6-4.3 1-3 1.5-4.7 3.4-4.9 6 0 1 .3 1.9 1.1 2.6a4 4 0 002.7 1.1 4 4 0 002.9-1c.7-.6 1-1.5 1-2.4 0-1.7-.7-2.8-2-3.5.8-1 2-1.4 3.3-1.4a4.8 4.8 0 015 4.7c.1 2.7.3 4 .5 6.6.2 3-2 4.6-6.1 4.7a82 82 0 01-12.7-.7c-1.7-.2-2.6-.7-2.7-1.4v-1.3a211.8 211.8 0 001.1-34c.2-.4.6-.6 1.3-.7h1.3l11.1.3c3.3.1 5 1.5 5 4.6z"/></g><g id="family" fill="#029C54"><path id="Vector_69" d="M231.6 38.8c-.9 2.3-1.1 3.7-1.5 6.3a4.7 4.7 0 01-1.6 3c-.9.8-2 1.2-3 1.2-1.5 0-2.4-.5-3-1.4 1.4-.6 2.1-1.7 2.4-3.2.1-1 0-1.8-.4-2.6-.5-.7-1.2-1-2-1-1-.1-1.8.2-2.6.9s-1.4 1.6-1.5 2.7c-.2 1.2 0 2.4.8 3.5.7 1.1 1.7 2 2.8 2.4 1.4.6 3.6 1 6.8 1v1l-3 .2c-1.7.1-3 .4-3.9.8-.4.2-.8.5-.9 1-.1.5 0 1 .5 1.6.6.7 2 1.8 4 3.3l4.7 3.8a18 18 0 013.5 4.3c.3.5.4.9.1 1.1-.2.3-.5.3-1 .3-5-.4-7.5-.4-12.6 0-1 0-1.7 0-2.1-.2-.4-.3-1-.8-1.4-1.7-5-10.5-5-20-.6-30.8.5-.8 1-1.3 1.6-1.5.6-.3 1.3-.4 2.2-.4 3.6 0 5.5.2 9.2.4 2.8.2 3.4 1.2 2.5 4z"/><path id="Vector_70" d="M251.2 69.8c.3 1 .3 1.6 0 1.7h-1.5l-3.6-.8c-.1-1.8-.8-6-1.5-11.4-.6-5-1.9-6.6-4.4-6.6-1 0-1.8.2-2.4.8-.7.5-1 1.2-.8 2.2.2 1 .6 1.8 1.4 2.5.8.7 1.7 1.1 2.8 1.2.3 0 .7 0 1-.2.8 1.5 1.4 3.6 1.9 6 .4 1.9.7 3.2.7 4 0 .7-.4 1-1.3 1l-2.6-.3c-3.3-.5-6-1.8-7.3-5.6a42 42 0 01-2-8c-.6-3 .4-4.4 2.7-5.7.4-.2 2.5-1 6.2-2.1 2.3-.7 3.4-1.8 3.5-3.2a3 3 0 00-.8-2.3 3 3 0 00-2.2-1c-1-.1-1.8.1-2.6.7S237.2 44 237 45c0 .6 0 1 .2 1.3-.8 1-1.8 1.5-2.8 1.5-.9 0-1.6-.3-2-1-.5-.5-.7-1.3-.6-2.1.3-2.4.5-3.6 1.2-5.7 1-2.8 3.1-3.6 6-3.4l7.2.5c3 .2 4 1.5 3.7 4.3a97.9 97.9 0 001.3 29.5z"/><path id="Vector_71" d="M276.4 74.6c0 1-.5 1.4-1.4 1.3L269 75c-1-.2-1.6-.7-2-2-1-4-1.5-8.3-1.4-12.3 0-4.2 0-8.6 2.4-12.5.5.3 1 .4 1.6.4.7 0 1.3-.2 1.9-.7.7-.5 1-1.2 1-2.1 0-.8-.3-1.5-1-2a3 3 0 00-2-.8c-1.7 0-3 1.2-3.8 3.7-.6 1.8-.9 3.4-1 4.7 0 1-.2 1.6-.5 1.6-.2 0-.4-.6-.6-1.6a25 25 0 00-1.1-4.7c-.9-2.5-2.2-3.9-4-4-.9 0-1.7.3-2.4.8-.7.6-1 1.2-1 2-.1 1 .3 1.8 1 2.3a4 4 0 002.2.8c.6 0 1.2-.1 1.7-.4 2.6 3.7 2.7 8.4 3 12.4.3 4.7 0 9.2-.4 11.8-.2 1-.8 1.3-1.7 1.2l-6-1.2c-1-.2-1.7-.7-1.9-1.7a101.2 101.2 0 01-1.2-31.9c.2-1 .5-1.7.8-2 .4-.2 1.1-.2 2.2-.2l5.2.3c1.4 0 2.4.6 2.9 1.8l.7 1.6.6 1c.1 0 .3-.3.6-1l.8-1.5c.5-1.1 1.5-1.7 3.1-1.7 1.9 0 2.8 0 4.7-.2 1 0 1.7 0 2 .3.3.2.5.9.5 2-.1 11.7.2 23.5.4 35.3z"/><path id="Vector_72" d="M287.2 75c0 1.1-.1 1.6-.3 1.8-.2.2-.6.3-1.4.2l-5.6-.6c-.8 0-1.3-.2-1.5-.4-.2-.3-.3-.8-.3-2-.2-8-.5-16.2-.4-24.4 1.6 0 3.2-.3 4.7-.9 1.8-.7 2.7-1.8 2.7-3.4 0-1-.2-1.9-.8-2.4-.5-.6-1.2-.8-2.1-.7a3 3 0 00-2 1.1 3.3 3.3 0 00-.7 3.3c-.4 0-.8 0-1.3-.3-.4-.3-.7-.8-.7-1.5l.1-1.3.1-1.8v-3.6c0-.6.2-1 .5-1.3.3-.2.8-.4 1.5-.5l5.5-1c.7-.3 1.3-.3 1.5 0 .2 0 .4.5.4 1.2-.2 12.8 0 25.6 0 38.5z"/><path id="Vector_73" d="M303 75.2c0 1.6-.1 2.3-.4 2.7-.3.4-1 .5-2 .4l-8.9-.8c-1.2 0-2-.3-2.4-.6-.3-.4-.5-1.2-.5-2.9V36.5c0-1 0-1.6.3-1.9.2-.3.8-.5 1.7-.7l10.3-2.6c.5 0 1 0 1.3.3.4.3.6.8.6 1.4 0 1.8-1 4.8-2.9 8.3-3.3 6.1-5 8.4-5.3 8.7a20.6 20.6 0 00-2 16.3c.6 1.2 1.3 1.8 2.2 1.8.8 0 1.4-.4 2-1.5a9.8 9.8 0 00.2-8c-.5-1-1.2-1.5-2-1.5V55c0-2.3.3-3.4 1-4.5.7-1.3 1.8-2.3 3.3-2.3 1 0 2 .5 2.7 1.4.8.9 1.1 1.9 1.1 3-.2 7.5-.2 15-.2 22.6z"/><path id="Vector_74" d="M320.3 75c0 3-.5 4.3-1.5 4.8-.8.4-2 .4-3.8.2l-6.1-.8c-3-.4-4.4-1.3-4.4-5.4v-4.2c.1-5.9 1.3-9 3.7-8.9.7 0 1.3.4 1.8 1l-.1 1c0 1.8.3 3.4.9 4.7.5 1.2 1.3 1.8 2.2 1.9.8 0 1.5-.5 2-1.7.7-1.3 1-2.8 1-4.4 0-2.6-.7-4.5-2-5.6-1-1-2.2-1.4-3.6-1.4-2.3 0-4.2 1-5.8 3.8l.2-27.5c0-1.5.5-2.1 1.6-2.3 2-.5 3-.6 5.2-1a37.8 37.8 0 00-2 11c0 2 .3 3.7.8 5 .6 1.7 1.4 2.5 2.5 2.5.9 0 1.6-.5 2.2-1.4.6-.9 1-2 1-3.4s-.3-2.6-1-3.6c-.5-1-1.1-1.4-2-1.4l-.5.2c-.4-1.3-.5-2.8-.5-4.5 0-3.4.7-4.5 2.1-4.6l5-.4c.7 0 1.1.5 1.1 1.8V75z"/></g><g id="connect" fill="#FE7A04"><path id="Vector_75" d="M86.4 96.9c-.5 2-1.5 3.5-2.8 4.8a6.9 6.9 0 01-4.5 1.8c-2.1 0-3.6-.6-4-2.4 1 0 1.9-.4 2.9-1.3 1-.8 1.6-2 2-3.2.2-1.3.2-2.5-.2-3.4-.5-1-1.2-1.6-2-1.6-1.7 0-3.2 1-4.7 3a20.4 20.4 0 00-2.7 6.2c-.9 3.4-.2 5.5 1.6 7.6 1.7 1.9 3.9 2.4 6.3 2.2 2.6-.3 4.8-1 6.4-2.2a42 42 0 001.2 9c.8 3.3-.9 6.1-5.4 7.2-3.5.8-5.2 1.3-8.5 2.3-4.7 1.4-7.5-1-7.7-5.2-.2-12 3-23 6-34.4.7-3.8 2.1-4.8 5.4-4.7l8 .4c3.5.2 5.5 1.5 4.8 5L86.4 97z"/><path id="Vector_76" d="M112.3 115.1c.5 2.6-1.3 4.5-5.9 5-3.7.4-5.6.6-9.3 1.2-4.9.7-8-.9-8.7-3.8-2.6-9.9-.4-18.3 1.9-28 1-4.7 3-5.8 7.5-5.5l8.5.8c4.6.5 7 2 6.4 5.9a65 65 0 00-.4 24.4zm-8.5-3.9c0-.7-.6-1.4-1.6-1.8-1-.5-2-.7-3.1-.7 0-1.3.5-3.3 2.2-5.9 1.6-2.4 2.7-4.7 3-6.2.2-1.1 0-2.1-.6-3a3.4 3.4 0 00-2.7-1.3c-1.2 0-2.3.3-3.3 1-1 .9-1.7 2-2 3.2-.2 1.3 0 2.4 1 3.2.8.7 1.9 1 3.1.8-.5 1.8-1.8 3.8-3.2 6.3-1.3 2.3-1.8 3.9-1.7 5 .1.9.7 1.4 1.6 1.9 1 .4 2 .6 3.3.4 1.2 0 2.1-.4 3-1 .8-.5 1.1-1.1 1-1.9z"/><path id="Vector_77" d="M137 116.9v1.1c-.2.3-.7.4-1.4.4l-4.6.1a51.1 51.1 0 00-6-17.2 4 4 0 00-1.3-1.3 5.5 5.5 0 00-5.7.4c-.9.7-1.4 1.6-1.4 2.4 0 .9.5 1.5 1.4 2a5 5 0 003 .7c1 0 2-.4 3-1 1.3 2.2 2 4.8 2.4 8.1.1 1.5.2 3.2 0 4.9 0 .8-.6 1.2-1.8 1.3-2.6 0-3.9.1-6.6.3h-2c-.4-.2-.6-.7-.8-1.4-2.1-10.7-1-19.7.2-30.5 0-.6.1-1 .3-1.1.2-.2.7-.2 1.4-.2l5.3.5.4 3.2c.2 1.6.7 3.4 1.4 5.3s1.5 3.1 2.4 3.9a4.9 4.9 0 006 .1c.7-.6 1.2-1.3 1.2-2 0-1-.2-1.7-1-2.4-.6-.6-1.5-1-2.5-1-1.6 0-2.8.4-3.7 1.5-.5-1.2-.6-2.5-.5-3.8.2-1.8.5-3 1-3.7.4-.4 1.1-.6 2.2-.5l5.5.3c1 0 1.6.2 1.8.4.2.2.3.7.3 1.5-.1 9.2-.3 18.4 0 27.7z"/><path id="Vector_78" d="M157 116.7l-.1 1.1c-.2.3-.5.4-1.1.4h-4a46.5 46.5 0 00-3.9-17.4c-.2-.5-.6-1-1.1-1.3-.6-.3-1.2-.5-2-.5-1 0-1.9.3-2.5.9-.7.6-1 1.3-1 2 0 .9.4 1.5 1.2 2a4 4 0 002.3.8 4 4 0 002.4-.9 29.4 29.4 0 011 13.4c-.1.7-.7 1.1-1.6 1.1H141l-1.6-.1c-.3-.2-.5-.6-.5-1.3-.3-9.4-.1-18.7 0-28 0-.5.1-.8.3-1 .2-.2.6-.3 1.2-.2l4.5.2c0 .6.3 1.5.6 3 .2 1.4.8 2.9 1.4 4.4.7 1.6 1.4 2.7 2.1 3.3a4 4 0 002.7 1c.8 0 1.4-.2 2-.7.7-.6 1-1.3 1-2 0-.8-.3-1.6-.9-2.1a3 3 0 00-2.1-.8c-1.3 0-2.2.5-2.9 1.4-.4-1-.6-2-.6-3.3 0-1.6.3-2.7.7-3.5.3-.4.9-.7 1.8-.7l4.6-.1c.8 0 1.4 0 1.6.2.2.2.3.6.3 1.4 0 9 0 18.2-.2 27.3z"/><path id="Vector_79" d="M176 90.2l.2 6.1a4 4 0 01-1.1 2.9 4 4 0 01-3 1.1c-1.3 0-2.3-.3-3-1.1a2.8 2.8 0 001.8-3 3.1 3.1 0 00-3.4-3c-.9.1-1.6.5-2.3 1a3 3 0 00-1 2.4c0 1.1.5 2.2 1.2 3 .8 1 1.7 1.6 2.9 2 1.4.5 3.8.9 7.2 1v1l-3.2.1c-1.8.2-3.1.5-4 .8-2.7 1.1-4 2.7-4.1 4.7 0 .8.3 1.5 1 2 .6.5 1.3.8 2.2.8 1 0 1.8-.3 2.4-.8.6-.5 1-1.2 1-1.9 0-1.2-.5-2-1.7-2.5.7-.8 1.7-1.2 3-1.2 1.1 0 2 .4 2.8 1a3 3 0 011 2.6c0 2 0 3-.2 5 0 2.3-1.7 3.5-4.7 3.6l-9.8.3c-1.3 0-2-.2-2.2-.8l-.1-1V89.5l.2-1.3c.2-.4.6-.7 1.1-.8l1.3-.2 10-.7c3-.3 4.5.7 4.5 3.6z"/><path id="Vector_80" d="M195 95.8c.1 1.6-.3 3-1.2 4-.9 1-2 1.4-3.5 1.5-1.8 0-3.2-.7-4.1-2a3.3 3.3 0 003.2-3.5 4 4 0 00-1-2.6c-.6-.7-1.4-1-2.2-1-1.6.2-2.7 1-3.5 2.5-.7 1.2-1 2.6-1 4.3 0 2.5 1 4.3 2.6 5.6a8.2 8.2 0 005.4 1.9c2.2 0 4-.5 5.3-1.3l-.5 7.8c-.3 2.8-2.1 4.3-5.6 4.3-2.7 0-4 0-6.5.2-3.6 0-5.2-1.4-5-4.3.4-7.8.4-15.5.2-23.3 0-2.7 1.6-4 4.8-4.3l7.6-.8c3-.3 4.6.8 4.7 3.8l.3 7.2z"/><path id="Vector_81" d="M215 85c.3 8 .8 16.1.7 24.2-.3 0-.6 0-.9-.2-.6-.2-1.2-.5-1.7-1a12.8 12.8 0 01-3.8-9.4c.4.3 1 .4 1.7.4.8 0 1.5-.4 2-1.2.6-.7.8-1.6.8-2.6a5 5 0 00-1-3 2.8 2.8 0 00-2.4-1.1c-1 0-1.7.4-2.2 1.2-.6.8-.9 1.8-.8 2.8.2 4 .5 8.3 2 12.2a34 34 0 003.6 5.8 13 13 0 012.4 4c0 .5-.5.8-1.6.7l-16-.6c-1.2 0-1.6-.3-1.6-.8s1-1.8 2.7-3.7c2-2.3 3.3-4.1 4-5.4 1.6-3 2.3-6.5 2-12 0-1-.3-2-1-2.8a2.7 2.7 0 00-2.3-1.1 3 3 0 00-2.3 1.2c-.7.7-1 1.7-.9 2.7 0 1 .4 1.9 1 2.6a3 3 0 002.4 1c.6 0 1 0 1.5-.3.1 4.1-1.3 6.6-4 9a4 4 0 01-2.9 1.2c.7-7.6.1-15.3 0-23 0-1 .3-1.6 1.1-1.7 5.4-.4 10.8-.6 16.2-.7.9 0 1.3.5 1.3 1.6z"/></g><g id="exit_3" fill="#029C54"><path id="Vector_82" d="M32.4 150.3c0 2.1-.2 3-.8 3.4-.5.3-1.4.4-2.6.3l-6.4-.4c2.1-7.7 1.3-16.5.7-24.2-.3-3.7-.3-13.6-7.2-13.1-1.6 0-3 .7-4.2 2a5.7 5.7 0 00-1.5 4.7c.2 2 1 3.9 2.3 5.3a5.9 5.9 0 004.6 2c.7 0 1.3-.2 1.8-.5 1.4 4 2 8.5 2.3 12.6.2 4 .1 6.8-.3 8.5-.4 1.5-1.5 2.2-3.3 2.4h-5c-7.3.3-11.5-3-11.4-9.8L1.2 125c-.3-4.5.9-9 5-11.9.6-.4 4-2.1 10.2-4.9 3.8-1.6 5.6-3.7 5.5-6.5 0-1.8-.7-3.4-2-4.8a6.4 6.4 0 00-4.1-2.5c-1.6-.3-3 .2-4.2 1.5a7 7 0 00-1.7 5c0 1.2.2 2.2.4 3-1.1 2-2.6 3.1-4.3 3.1-1.4 0-2.5-.6-3.4-2a9.6 9.6 0 01-1.2-5.1V86.2c0-6.8 2.2-8.1 7.4-6.7l13.3 3.4c5.1 1 8 4.8 8 9.4l2.3 58z"/><path id="Vector_83" d="M65.8 95.7c-1 3.8-1.8 5.8-3.2 9.7a9.6 9.6 0 01-3.2 4.6 6.7 6.7 0 01-4.9 1.6c-2.1-.2-3.6-1-4.3-2.5a6 6 0 004-4.6c.4-1.4.2-2.7-.7-3.8a5.8 5.8 0 00-4-2c-1.8-.2-3.4.1-4.7 1-1.3.9-2 2.2-2.1 3.8-.1 1.7.5 3.5 1.8 5.3 1.3 1.9 2.8 3.3 4.5 4.3 2.2 1.2 5.6 2.2 10.1 2.4v1.9h-4.6c-2.4 0-4.4.3-5.7 1-.8.4-1.3 1-1.5 2-.4 1.3-.1 2.7.6 4.2.8 1.9 2.7 4.9 5.7 9.2 2.4 3.6 4.9 7.1 7.2 10.8 2.5 4.2 4.3 8 5.1 10.6.4 1.1.3 1.8-.3 2.2-.5.3-1.3.4-2.3.2-7.8-1.6-15.6-2.7-23.6-3.3-1.7-.1-2.9-.3-3.4-.8s-.7-1.4-.8-3.3c-1-20.4-1.8-40.7-2.5-61.2 0-1.5.2-2.4.9-2.8.6-.5 1.9-.5 3.8-.2 7 1 14.1 1.8 21.2 2.4 5.9.6 8.2 2.6 7 7.3z"/></g><g id="excite" fill="#FE22B8"><path id="Vector_84" d="M99 340.6c-.6 2-.8 3-1.2 5a4 4 0 01-3.6 3.4c-1 0-1.7-.3-2-1 1-.5 1.5-1.3 1.8-2.6a3 3 0 00-.1-2c-.3-.5-.8-.8-1.4-.8a3 3 0 00-2 .8c-.6.5-1 1.3-1.2 2.1-.3 1.1-.2 2.1.1 3 .4.7 1 1.2 1.8 1.5 1 .5 2.7.7 5.2.7v.8l-2.4.2c-1.3.1-2.2.4-2.8.8-1.8 1-2.4 2.8-1.8 5.3.2 1.1.7 2 1.3 2.7.6.7 1.2 1 1.8 1 .7 0 1.1-.4 1.4-1 .3-.7.3-1.6.1-2.5-.3-1.6-1-2.7-2-3.2a2 2 0 012-1.3c.9 0 1.6.3 2.4 1 .7.8 1.1 1.9 1.4 3.3l1.3 6.5c.6 2.6-.2 3.2-2.3 3.3h-6.5c-1 0-1.5 0-1.8-.5l-.4-1c-3.2-10.5-4-17.1-.2-27.7l.7-1.2a2 2 0 011.1-.7h.8c2.7 0 4 0 6.7.3 2.1.2 2.6 1.4 1.8 3.8z"/><path id="Vector_85" d="M112.1 350.6a241 241 0 00.3 16.5l-1 .2h-1.5c-1.3 0-2.3-.3-3.1-1.4a6 6 0 01-1.2-2.9v-2c.4-.1.8-.5 1-1.2.4-.6.5-1.4.4-2.2a5 5 0 00-.9-2.5c-.4-.7-1-1-1.8-1s-1.3.4-1.7 1c-.4.7-.5 1.4-.5 2.2a18 18 0 001.4 5.6c.9 2 2 3.5 3.5 4.4l-5 .1-.8-.1-.5-1c-.7-3.2-1.3-6.4-2-10.8-.2-1.8.1-3 1-4a4.8 4.8 0 014-1.1h.2l-.1-.2c-.6-.3-1.2-.4-1.8-.4-1.7 0-3 .6-3.6 1.7a40.9 40.9 0 013-14c.2-.1.5-.2 1-.1l2.2.3c1 .1 1.8.8 2.3 2 .2.7.3 1.5.1 2.3 0 .4-.1.9-.3 1.3-1.4.1-2.3 1-2.5 2.4a2 2 0 00.5 1.7c.4.5 1 .7 1.8.7.6 0 1.3-.3 1.8-.7.4-.5.7-1 .8-1.7a12 12 0 00-2.2-7.7l4.7.7c.5.1.8.2 1 .5v1a46 46 0 00-.5 7.5c0 1.2-.4 2.1-1.3 2.9-.8.7-1.9 1.2-3.1 1.2h-1c0 .2.2.3.7.4l1.3.3c.7 0 1.3-.3 2-.6.6-.4 1-.8 1.4-1.3z"/><path id="Vector_86" d="M125.3 346.5c0 .8-.2 1.4-.8 2-.5.5-1.3.8-2.3.8-1.2 0-2.1-.4-2.8-1.3.6 0 1.1-.1 1.6-.5.4-.3.6-.7.6-1.2a2 2 0 00-.8-1.4c-.4-.3-1-.6-1.5-.6-1-.1-1.9.2-2.4 1a4 4 0 00-.7 2.5c0 1.6.7 2.7 1.9 4 1.1 1.2 2.3 2 3.8 2s2.6-.5 3.5-1.4L125 363c0 3.8-1.3 4.5-3.6 4.4l-4.2-.1c-2.3-.1-3.5-.9-3.7-4.5-.1-7-.5-14 0-21 .2-1.8 1.4-2.6 3.5-2.2l4.8.8c2 .3 3 1.3 3.1 2.8l.4 3.2z"/><path id="Vector_87" d="M133.4 367.1c0 .8 0 1.2-.2 1.3l-1.1.1a147.6 147.6 0 00-5.6-.8c-.1-.2-.2-.6-.2-1.4.2-5.9.5-11.8.4-17.6 1.2 0 2.3-.2 3.4-.5 1.3-.3 1.9-.8 1.8-1.5 0-.4-.3-.8-.7-1-.5-.4-1-.6-1.6-.6-.7 0-1.2 0-1.5.3a1 1 0 00-.4 1l.2.7c-.3 0-.6 0-1-.3-.3-.2-.5-.5-.5-.8v-.7-1l-.3-2.1c0-.4.2-.7.4-.9l1-.1a110 110 0 005.1.8c.2.2.3.5.3 1 .6 8 .5 16 .5 24.1z"/><path id="Vector_88" d="M146.7 343.8c.4 4.8.5 9.6.6 14.4l-.6-.2c-.4-.3-.9-1-1.2-1.7a31.3 31.3 0 01-2.8-8h1.2c.5 0 1 0 1.4-.3.3-.3.5-.5.5-.8 0-.3-.3-.6-.7-.9-.4-.2-1-.3-1.7-.4-.6 0-1.1.1-1.5.3-.4.2-.6.5-.5.8.1 1.8.6 3.8 1.6 8.4.5 2.1 1.4 5.6 2.7 9.5l1.8 5.2c0 .5-.3.6-1 .5l-10.6-1.6c-.7-.1-1.1-.4-1.1-.8 0-.5.5-1.6 1.6-4.5a56.6 56.6 0 003.4-16.7c-.1-.4-.3-.7-.7-1a3 3 0 00-1.6-.4c-.6 0-1.2 0-1.5.3-.5.2-.6.5-.6.9s.3.7.7 1c.5.3 1 .4 1.7.4h1c.1 1.5-.7 4-2.3 7.6-.5 1.2-1.1 1.7-1.8 1.7 0-5-.2-9.7-.7-14.6 0-.6.2-1 .7-1 4.5.5 6.7.7 11.2 1 .5 0 .8.4.8 1z"/><path id="Vector_89" d="M159.7 345.7l-.1 1.7c0 .4-.4.7-.8 1-.6.3-1.2.4-2 .4-.9 0-1.5-.2-1.9-.5.8-.2 1.2-.5 1.2-1 0-.2-.2-.4-.6-.6l-1.6-.4c-.6 0-1.1 0-1.6.3-.4.2-.6.4-.6.7 0 .4.3.8.8 1.2.5.4 1.1.8 1.9 1 1 .3 2.5.5 4.7.6v.7l-2.1.2c-1.1.1-2 .4-2.6.8-1.7 1.2-2.4 3.4-2.3 6.8 0 1.5.4 2.7.9 3.7s1 1.5 1.6 1.6c.6 0 1.2-.4 1.5-1.3.4-.9.6-2 .5-3.4-.1-2.2-.6-3.6-1.5-4.5.5-1 1-1.5 1.9-1.5.7 0 1.4.4 2 1.5.6 1 .9 2.6 1 4.7l.6 9.3c.2 3.7-1 4-3 3.7l-7-1.2c-.9-.2-1.4-.4-1.5-1l-.1-1c-.3-8.3-.4-16.7-1-25l.1-.8c.1-.2.4-.4.8-.4h.8l7 .3c2 .2 3 1.3 3 2.4z"/></g><g id="great" fill="#029C54"><path id="Vector_90" d="M15.1 376.7c0 3.6-1.3 4.4-3.8 4.4H5.2c-2.7 0-4-.8-4-4.4.2-14.8.2-29.6 0-44.5 0-8.3 1.4-9 4.4-8.6 2.1.2 3.2.4 5.4.9 1.6.3 2.6.7 3.2 1.2.8.7 1.2 2 1.3 5.3v17.8c-1.3-4.2-2.8-6.9-4.6-7-1.9-.3-3.4 2.2-4.7 6.6A50.2 50.2 0 004.6 359c0 1.3.2 3.2.8 5 .7 2.2 1.6 3.6 2.9 3.6.8 0 1.4-.5 2-1.4.5-.9.8-2 .8-3.1 0-1.3-.2-2.1-.7-2.8-.5-.6-1.2-.8-2-.8s-1.4.2-1.8.7v-.5a8 8 0 011.2-4.2c1-1.8 2-3 3.2-3 1.2 0 2.3 1.2 3.2 3 .9 1.6 1.4 3 1.4 4.1 0 5.8-.3 11.5-.5 17.2z"/><path id="Vector_91" d="M32.5 381H31c-2.4 0-4.5-.7-6.1-4.6a32 32 0 01.3-23.4c.4.4.7.6 1 .6 1 0 1.6-.5 2.2-1.6.5-1.2.8-2.7.8-4.8a14 14 0 00-.8-4.9c-.6-1.4-1.3-2.2-2-2.3-1-.2-1.7.6-2.4 2.4-.5 1.4-.9 3.3-1.1 5.3l-.8 8-.6 5.4c0 2.6 0 6.7.5 11 .3 4.3 1 7.4 1.7 9h-6c-.7 0-1-.5-1-1.9a1963.5 1963.5 0 00.6-52.6c.2-.4.7-.4 1.5-.2l9.3 2.7c5.3 1.8 4.7 7 5 11.2v9.3c0 3-.3 5-.8 6.2a3 3 0 01-2.2 2c-.2.2-.3.3-.3.5 0 .1.1.3.4.3 1 .3 1.7.7 2.1 1.5.4.8.6 2.2.4 4.6L32 378c-.2 1.4 0 2.3.5 3z"/><path id="Vector_92" d="M48.6 338.8l-.1 10.5c0 2-.3 3.5-1 4.7-.6 1.2-1.4 1.6-2.4 1.6s-1.9-.6-2.4-2c1-.8 1.5-2.5 1.5-5 0-1.6-.3-3-.8-4.2-.5-1.2-1.1-1.8-1.8-2-.7 0-1.4.5-2 1.6a16.7 16.7 0 00.1 10.4c.7 1.6 1.4 2.5 2.3 3 1.2.7 3.2 1 6 1.1v1l-2.7.2c-1.4.1-2.5.4-3.3.9-2.2 1.3-3.4 3.6-3.6 7.1a7 7 0 00.5 3.7c.5 1 1.1 1.4 1.9 1.4.8 0 1.5-.4 2-1.3.7-1 1-2 1.1-3.3.1-2.2-.3-3.6-1.3-4.5.7-1.1 1.5-1.6 2.5-1.5 1 0 1.8.5 2.5 1.5s1 2.5.9 4.5l-.4 8.7c-.1 3.5-1.7 4.3-4.5 4.3h-8.3c-1.2 0-1.8-.2-2-.8V379a916.7 916.7 0 001.3-47.1c.1-.4.4-.6 1-.6l1 .2c3.3.8 4.8 1 8.3 1.5 2.5.2 3.8 1.2 3.7 5.7z"/><path id="Vector_93" d="M66.6 379c0 1.1 0 1.6-.4 1.8-.4.2-1 .3-1.8.3h-4.2c1.6-4.2 1.1-9.3 1-13.5-.3-6-1.7-8-3.7-8-.8 0-1.5.3-2.1 1a4 4 0 00-.9 2.7c0 1.3.3 2.4 1 3.3a3 3 0 002.3 1.4c.4 0 .7-.1 1-.3a26.7 26.7 0 01.5 12c-.3.8-1 1.2-2 1.3h-2.8c-3.6 0-5.3-1-5-6l.3-10.9c.1-3.9 1-5.3 2.6-6.7.4-.3 2-1 5-2.8 1.8-1 2.7-2.6 2.8-5 0-1.4-.2-2.8-.8-3.9-.5-1.1-1.2-1.7-2-1.8-.8 0-1.5.4-2.2 1.4a7 7 0 00-1 3.8l.2 2.1c-.6 1.5-1.3 2.2-2.2 2.2-.7 0-1.3-.5-1.7-1.4-.5-1-.7-2.1-.7-3.5l.1-9.6c.1-4.5 1.6-5 4.5-4.7l7.2.8c3 .3 4.2 1.4 3.7 6-1 13 .8 25.2 1.3 38z"/><path id="Vector_94" d="M84.7 338.1c-2.4 11-2.1 19.5.2 30.3-.3 0-.5 0-.8-.2a5 5 0 01-1.8-1.8c-2.2-3.5-5.5-7.7-5.1-12 .3.3.7.5 1.3.5.7 0 1.3-.4 1.9-1.3.5-.9.8-2 .9-3.2 0-1.3 0-2.5-.5-3.5-.3-1-1-1.5-1.8-1.6-.8 0-1.5.4-2.2 1.5a7 7 0 00-1 3.4 32 32 0 003 15.3c1 2.4 2.9 6 5 9.8 2 3.2 2.7 4.5 2.7 5 0 .6-.4.8-1.3.8H70.4c-1 0-1.6-.2-1.6-.8 0-.5.8-2 2-5.2 1.4-3.9 2-7.4 2.2-9.7.2-5 .3-10.1.6-15.1a8 8 0 00-.5-3.6c-.4-1-1-1.6-2-1.7-.7 0-1.5.4-2.2 1.3-.7 1-1 2.2-1 3.7-.1 1.3 0 2.5.6 3.4.4 1 1.2 1.4 2 1.4.6 0 1-.1 1.3-.4 0 4.8-.2 7.3-2 11.6-.5 1.4-1.3 2-2.3 2a117.5 117.5 0 010-30.9c.2-1.2.7-1.6 1.5-1.5 5.1.3 10.1.7 15.2.7.7 0 .8.5.5 1.8z"/></g><g id="exit_4" fill="#029C54"><path id="Vector_95" d="M13 60.3a9.7 9.7 0 01-.6 3.1c-.5 1-1.2 1.7-2.1 2-.1 0-.2 0-.2.2h.2c.9.3 1.6.8 2 1.5.4.5.6 1.4.8 2.7l.5 5.2c.2 1.5 0 2.5-.4 3-.5.5-1.4.6-2.8.3a158.8 158.8 0 00-8.9-1.7c-.3-.2-.4-.5-.4-1V56.2c0-.4.2-.7.4-.9l1.1-.1 6.5-.4c1.9-.1 3.1.3 3.6 1.3.2.7.4 2.1.2 4.2zM8.8 71c0-.6-.3-1.2-.8-1.7s-1-.7-1.6-.7c-.3 0-.6 0-.9.2-.6-.8-1-1.8-1-2.9 0-1 .2-1.9.8-2.5l.9.1c.6 0 1-.2 1.5-.6.4-.4.7-1 .7-1.5 0-.6-.2-1.1-.6-1.5a2 2 0 00-1.5-.5c-1.2 0-2.1.9-2.5 2.5-.1.7-.3 2-.3 3.7 0 2 .3 3.6.4 4.3.5 2 1.5 3 2.9 3.2.6.1 1 0 1.5-.5.4-.4.5-1 .5-1.6z"/><path id="Vector_96" d="M24.5 79.2l-.1 1.6c-.2.3-.7.3-1.4.2-2.3-.4-3.5-.7-5.9-1.3-.8-.1-1.4-.3-1.6-.6-.3-.3-.5-.8-.6-1.8a136.5 136.5 0 01-.2-22.6c.2-.2.6-.3 1.2-.4l7.3-.7c.4 0 .7 0 .9.2.3.2.4.5.3.9 0 1.1-.8 2.8-2.3 4.8-2.6 3.5-4 5-4 5-1.5 2-1.9 4.2-1.7 6.9 0 1 .3 1.7.8 2.3.4.6 1 1 1.5 1 .5.1 1 0 1.4-.6a3 3 0 00.5-2c0-.9-.3-1.6-.7-2.2-.3-.6-.8-.8-1.4-.9l-.1-1.1c-.1-1.4.1-2.2.5-2.9.6-.9 1.4-1.4 2.5-1.4.7 0 1.4.3 1.8.8.5.6.7 1.2.8 2l.5 12.8z"/><path id="Vector_97" d="M37 81.5c0 1-.2 1.4-.5 1.5h-1.2l-3-.4c.6-1.5.9-5.4.7-10.3 0-4.5-1-5.8-2.5-5.8-.6 0-1.1.2-1.5.7a3 3 0 00-.7 2c0 .8.3 1.6.7 2.3.4.6 1 1 1.6 1l.6-.1a21.6 21.6 0 01.4 9c-.2.7-.7.9-1.4.9l-1.6-.2c-2.2-.4-3.2-1.5-3.3-5l-.3-7.4c-.1-2.7.5-3.8 1.9-4.8l3.7-1.7c1.3-.6 2.2-1.5 2.3-2.9 0-.8-.1-1.4-.5-2-.5-.5-1-.7-1.5-.6-.6 0-1.1.4-1.6.9-.4.6-.7 1.2-.8 2v1c-.4.8-1 1.2-1.6 1.2-.5 0-1-.2-1.3-.6-.3-.5-.4-1-.3-1.6l.3-4.3c.2-2.2 1.1-3.2 3-3.5 2-.3 3-.4 5-.9 2.3-.5 3.7.3 3.6 3.1-.4 8.8-.2 17.6-.2 26.5z"/><path id="Vector_98" d="M54 60c0 1.6-.4 2.9-1.3 3.8-.8 1-2 1.3-3.3 1.3-1.7 0-3-.7-3.8-2a3 3 0 002.3-.8 3.9 3.9 0 00.1-5c-.6-.8-1.3-1.1-2-1-1.5.1-2.5 1-3.3 2.4a9 9 0 00-1.1 4.1c-.2 2.3.6 3.4 2.2 4.8a8.5 8.5 0 005 2.3 8 8 0 005-1.3 87 87 0 01-1.1 10.9c-.7 4.2-2.7 5.4-5.4 5l-5-.5c-2.8-.4-4-1.7-4-5.5 0-8.2 0-16.2.3-24.4 0-2.5 1.2-3.6 4-4.2l6.4-1.4c2.6-.6 4.3.4 4.7 3.7.3 3 .3 4.7.3 7.7z"/><path id="Vector_99" d="M70.3 74.1A46.5 46.5 0 0167 86.8c-.3.4-.7.5-1.2.4l-4-.6c2.1-3.8 3-8.3 3.7-12.4.4-2 .2-3.4-.2-4.3-.5-1-1.2-1.3-2.1-1.4a3.3 3.3 0 00-3.3 3c-.2 1.1 0 2 .5 2.8.5.7 1 1.1 1.7 1.2h.5c.1 1 0 2.4-.4 4s-.9 3-1.5 4.2c-.9 1.8-2 2.4-3 2.2l-3.1-.4c-.8 0-1.2-.2-1.3-.5 0-.2 0-.8.3-1.7a112.4 112.4 0 001.4-35.7c.2-.2.6-.4 1.2-.5l4.1-.7c1-.1 1.7.4 2.2 1.7.8 2.3 1 4.8.7 7h-.5c-.8 0-1.4.4-1.9 1.3s-.7 2-.7 3c0 1.2.3 2.1 1 2.9.5.7 1.2 1 2 1 1 0 1.7-.4 2.2-1.5.5-1.1.7-2.8.6-5-.2-4-1-8-2.6-10.8 2-.2 2.9-.3 4.6-.3.5 0 1 .5 1.3 1.8 1 3.6 1.2 6 1.4 10.3.4 5.4-.7 7.8-3 8.6l-.1.1.1.3c2.5.8 3.5 2.4 2.8 7.3z"/></g><g id="relaxed" fill="#04AADC"><path id="Vector_100" d="M21.4 324.2l-1.7-.4c-2.7-.6-5.4-2.1-7.7-7.9-2.5-6-3.6-12.9-3.6-19.2 0-4.8.6-7.7 2.8-12.2.4.5.8.8 1.2 1 1 .2 1.9-.2 2.6-1.4a17.7 17.7 0 00.8-11.6c-.6-2-1.4-3-2.3-3.4-1.1-.5-2.3.2-3.2 2.2-.8 1.6-1.4 3.8-1.8 6.1-.4 2.4-.8 6.2-1.4 9.5-.6 4-.7 4.8-.7 6.6.2 5.2.7 10.5 1.4 15.6.6 4.2 1 9 3 13-3-.6-4.7-.9-8.2-1.3-1-.2-1.6-.7-1.6-2.6v-65.7c0-1.9.2-2.6.4-2.9.3-.4 1-.1 2.2.5l13 7c6.3 2.7 5.3 9 5 14.3-.3 4.3-.5 6.8-1 11.1a20 20 0 01-1.5 7.1c-.6 1.2-1.6 1.6-2.8 1.6-.3 0-.4.2-.4.3 0 .2 0 .4.4.5 1 .6 2 1.4 2.5 2.5.5 1.2.8 3.2 1 6.6 0 6.3.2 12.5.5 18.8.2 2 .5 3.4 1.1 4.3z"/><path id="Vector_101" d="M40 274.8c-.6 4.2-1 8.5-1.5 12.7a11 11 0 01-1.8 5.5c-1 1.2-1.9 1.5-2.9 1-1.2-.4-2-1.3-2.4-3.2 1.2-.7 2-2.5 2.4-5.6.2-2 .2-3.8-.3-5.4-.4-1.7-1-2.7-1.8-3-.9-.4-1.7 0-2.5 1.1-.7 1.2-1.3 3-1.5 5.3-.3 2.8-.2 5.3.3 7.4.5 2 1.2 3.3 2 4.2 1.3 1.2 3.4 2.4 6.4 3.5v1.2l-3-.8c-1.5-.4-2.7-.4-3.5 0-2.4.8-3.5 3.6-3.5 8.4 0 2 .4 3.9 1 5.4.6 1.4 1.3 2.2 2 2.5.9.2 1.5-.2 2.1-1.3.6-1 .8-2.5.9-4.2 0-3-.6-5-1.7-6.5.7-1.3 1.5-1.6 2.6-1.2 1 .3 2 1.2 2.6 2.8a15 15 0 011 6.2l-.3 11.6c0 4.7-1.2 5.3-3.7 4.7l-8.5-2.2c-1.2-.3-1.9-.7-2.1-1.6l-.2-1.7a384.6 384.6 0 012.7-59.6c.3-.4.7-.4 1.3-.2l1.3.6c4 2 5.8 2.8 9.5 4.4 2.6 1.2 3.7 2.5 3 8z"/><path id="Vector_102" d="M51.6 327.8c0 1.6-.2 2.4-.5 2.7-.3.5-1 .6-2 .4-3.6-.7-5.3-1-8.6-1.8-1-.3-1.8-.6-2.1-1-.4-.5-.6-1.4-.6-3.3.4-17.9 1.7-35.1 4-52.8.2-1.6.4-2.1.7-2.3.3 0 .9 0 1.8.4l9.6 4c.5.1 1 .5 1.3 1 .3.6.4 1.3.3 2-.2 2.4-1.5 6-3.9 10.3-2 4-4 7.9-6.6 11.5-3.2 3.3-3.3 8.6-3.6 12.5-.1 2 .2 3.9.6 5.3.5 1.4 1.2 2.2 2 2.4.8.2 1.5-.2 2.2-1.2.6-1 1-2.4 1.2-4.1 0-1.7 0-3.2-.5-4.5-.4-1.3-1.1-2-2-2.2l.1-2.3c.1-2.5.4-3.4 1.3-4.7 1-1.7 2.1-2.7 3.7-2.3 1.1.2 2 1.2 2.6 2.6a9 9 0 011 3.8c-.5 7.8-1.4 15.7-2 23.6z"/><path id="Vector_103" d="M70.6 330.6c0 1.5-.2 2.1-.6 2.4a157.5 157.5 0 01-6.3-.2c1.8-5.6 2-11.7 2.6-17.4.7-7.7-.7-9.8-3-9.9-1 0-1.7.3-2.5 1-.7.8-1.1 1.8-1.2 3.3-.1 1.5.1 3 .6 4.1.6 1.1 1.4 1.8 2.4 1.8.4 0 .7 0 1-.3a44.2 44.2 0 01-.8 15.5c-.4 1-1.1 1.4-2.2 1.5l-2.8-.2c-3.5-.5-5-2-4.6-8.2l1.1-13.8c.4-4.9 1.3-6.2 3.5-7.7l5.9-2.7c2.1-1 3.3-2.6 3.5-5 0-1.6-.1-3-.6-4.3-.5-1.2-1.2-1.9-2.1-2.1-.9-.2-1.7.2-2.4 1.1-.7 1-1.2 2.4-1.3 4a9 9 0 000 2.4c-.8 1.6-1.7 2.2-2.6 2-.8 0-1.4-.6-1.9-1.8a9 9 0 01-.3-4l1-10.6c.5-5.1 1.8-5.6 4.6-4.6l7 2.6c2.8 1 4.3 2.6 4.1 7.3l-2 43.8z"/><path id="Vector_104" d="M94 310.8c-.5 7.3-1.3 14.5-2 21.7 0 1.1-.1 1.7-.4 1.9-.3.2-.8.2-1.9.2l-2.4-.2c-2-.1-3.6-.8-4.7-2.7-.7-1.3-1-3-1-4.8.1-1 .4-2 .7-3.1.7-.2 1.4-.6 2-1.5.6-1 1-2 1-3.3.2-1.6 0-3-.6-4.1a3.7 3.7 0 00-2.5-2.1c-1.1-.3-2 0-2.7 1-.7.8-1.2 2-1.3 3.3-.4 3-.4 6.2.3 9.3.6 3.3 2 6 4.1 7.8l-8.2-.6c-.8 0-1.3-.2-1.5-.5-.2-.2-.3-.8-.2-1.7.2-6.1.7-12.2 1-18.3.3-3 1-5 2.2-6.1 1.3-1.1 2.7-1.2 4.5-.7l1 .3h.3l-.2-.2c-.9-.6-1.7-1-2.6-1.2-2.3-.6-3.8-.3-4.8 1.3-.5-7.5.2-15 .3-22.6l.1-1.7c.2-.2.6-.2 1.3 0 1 .5 1.6.7 2.7 1 1.4.6 2.8 1.6 4 3.7a12.4 12.4 0 011.1 6.8c-1.8 0-2.6 1.5-2.5 4.4 0 1.4.4 2.6 1.1 3.7.7 1 1.6 1.7 2.7 2 1 .3 1.8.1 2.3-.6.5-.8.7-2 .6-3.3-.6-5.4-2.1-11.2-6.1-15.5 2.4 1 3.6 1.4 6.1 2.2.8.3 1.3.5 1.5.8.3.3.5.8.7 1.5 1.2 5.5 1.8 11.1 2.7 16.6.5 2.5.2 4-.7 4.5-1 .6-2.9.9-4.7.4L86 310c0 .2.2.5.9.9l2 1c.8.2 1.8.2 2.8 0 1-.2 1.7-.6 2.3-1z"/><path id="Vector_105" d="M110.3 298.3c1 3.5 1.4 5.7 2.3 9.5.5 1.8.4 3.1-.2 4-.6 1-1.5 1.1-2.7.8a6.5 6.5 0 01-3.8-2.8c1-.4 1.4-1.8.8-4-.3-1.4-1-2.7-1.9-4a6 6 0 00-2.8-2.2c-1-.3-1.7 0-2.2.8-.5.8-.6 2-.2 3.5a15 15 0 006.4 9.2c1.8 1.2 4.7 2.4 8.4 3.6l.2 1-3.6-.7c-2-.5-3.5-.6-4.6-.5-3.2.5-4.9 2.3-5.2 5.6-.2 1.4 0 2.7.7 3.7s1.5 1.6 2.4 1.7c1 .2 2 0 2.8-.7.8-.7 1.3-1.6 1.5-2.7.3-1.9-.3-3.3-1.6-4.4 1-.8 2.1-1 3.5-.6 1.3.3 2.4 1 3.1 2.1.8 1.1 1 2.5.9 4l-1 7.2c-.4 3-2.4 3.8-5.8 3.5l-11.1-.9c-1.5-.1-2.4-.4-2.5-1.1v-1.4c1.3-15 .6-27.3-2.4-42.2l-.4-1.7c0-.5.3-.6.8-.6l1.1.3c3.8 1.2 5.7 1.8 10.1 3 3.3 1 5.8 2.7 7 7z"/><path id="Vector_106" d="M136.4 334.2c0 1.7-.5 3-1.7 3.7-1.2.8-2.8 1-4.8.6a375.6 375.6 0 00-14.7-2c-.3-.3-.3-.8-.2-1.9.7-5.2 2.6-11.3 2.3-16.5-.4-7-4.1-15.3-6-22-.4-1.4-.5-2-.3-2.3.3-.3 1-.2 2.3 0a341 341 0 0013.1 2.9c2.7.6 5.2 1.6 7.2 3.2 2 1.7 2.8 3.7 2.8 6.1v28.2zm-6-14.3c-.6-3-1.1-6.2-1.7-8-1.2-4-3.1-6.4-5.6-6.8-1.2-.3-2 0-2.6.9-.6.8-.7 2-.4 3.3.3 1.4 1 2.6 1.9 3.8 1 1 2 1.7 3 1.9.6 0 1 0 1.5-.2 1.2 1.6 2 3.6 2.4 5.3.5 2-.7 3-1.7 4a4 4 0 00-1.4-.5c-1-.1-1.9 0-2.7.6-.8.5-1.2 1.3-1.4 2.3 0 1 .2 2 .8 2.8.7.9 1.5 1.3 2.5 1.5 2.3.3 4-1.2 4.7-4.3.4-1 1.5-3 .7-6.6z"/></g><g id="love" fill="#FE22B8"><path id="Vector_107" d="M161.2 82.3c-.3 1-.5 1.6-.9 2-.4.4-1.2.6-2.3.7-3.8.3-5.8.5-9.3.6-1.2 0-1.8-.1-2.1-.4-.3-.3-.2-1 .1-2.2 2.6-9.5 4.5-18.7 5-28.6.1-.9.2-1.4.4-1.6.2-.1.8-.2 1.6-.1l9.3.8c.4 0 .9.2 1.2.5.3.4.5.7.5 1.2 0 1.4-1 3.1-3 5.4-3.3 4-5.3 6.2-5.6 6.5a20.4 20.4 0 00-4.4 8.4c-.3 1-.3 2 .1 2.5.4.7 1 1 1.8 1a4 4 0 002.4-1c.7-.7 1.2-1.5 1.4-2.4.2-.9.2-1.6-.2-2.2-.4-.6-1-1-1.8-.9l.3-1.4c.3-1.5.9-2.6 1.6-3.6.8-1.1 2-1.8 3.4-1.9 1 0 1.9.3 2.6 1 .6.6 1 1.3.8 2.2-.7 4.5-1.9 9-3 13.5z"/><path id="Vector_108" d="M179.6 79.2c-.6 2.9-2 4-5.3 4.3l-6.7.6c-3.6.4-5.3-.7-4.6-3.6 1.8-7.6 3.2-14.9 3.4-22.6 0-3 1.6-4 4.8-3.9l6 .3c3 0 4.6 1.3 4.6 4a93 93 0 01-2.2 21zm-3.8-5c.2-.9 0-1.6-.4-2.1-.5-.6-1.1-.8-2-.8.5-1.4 1.2-3 2.2-5 .9-1.8 1.4-3.2 1.4-4 0-.8-.3-1.4-.8-2a3 3 0 00-2-.8 3 3 0 00-2 .8c-.6.5-1 1.2-1 2s.3 1.5 1 2c.7.4 1.4.6 2.2.4-.1 1.2-.8 2.6-2 4.7-1.4 2-2.3 3.8-2.6 5.2-.2.9-.1 1.6.4 2.2.4.5 1 .8 2 .7a4 4 0 002.2-1c.7-.6 1.2-1.4 1.4-2.3z"/><path id="Vector_109" d="M198 75.1c-.3 4.5-2.1 6.8-5.8 7.1l-6.3.5c-3.6.3-5.4-1.7-4.1-6.9a93.5 93.5 0 001.3-20c0-1 .4-1.4 1-1.4h1.9c.7 0 1.3.3 1.8 1 1 1.5 2 3.3 2.8 5.2 1 2.2 1.5 4.2 1.5 5.9 0 1.7-.3 3.4-1.1 4.8a3 3 0 00-1.2-.3c-.8 0-1.5.3-2.2.8-.7.6-1 1.2-1.3 2.1-.1.9 0 1.6.5 2 .5.6 1.3.8 2.1.8 1.9 0 3.4-1.4 4.3-3.9.5-1.3.7-3 .6-4.7a39 39 0 00-.8-5.9c-.4-1.5-1.2-3.6-2.3-6.3 0-.3-.4-.9-.7-1.7l4.2-.4c.8 0 1.5.8 1.9 2.5 1.2 6.3 2 12.4 1.8 18.8z"/><path id="Vector_110" d="M211 57c1 2.4 1.3 3.5 1.8 5.6.3 1 .1 1.8-.4 2.5-.5.6-1.3 1-2.3 1-1 0-2-.4-2.7-1.1 1-.5 1.3-1.3 1-2.5-.3-.8-.7-1.5-1.4-2-.7-.6-1.4-.8-2.1-.8-.8 0-1.3.3-1.7.8-.4.6-.5 1.2-.3 2 .3 1.1.7 2 1.5 2.8a7 7 0 002.8 1.8c1.3.4 3.4.8 6.1.8l.2 1-2.7.1c-1.3.1-2.5.4-3.2.7-2 1-3.1 2.2-3 4 0 .7.3 1.2 1 1.6.6.5 1.3.7 2 .6 1 0 1.7-.2 2.2-.7.6-.4.8-.8.7-1.4 0-1-.7-1.7-1.8-2.2.5-.6 1.3-.9 2.4-.9 1 0 1.8.3 2.6.9.7.5 1.2 1.3 1.3 2.1l.5 4c.1 1.8-1 3-3.8 3l-9.6.6c-1.4.1-2.2 0-2.4-.5l-.2-1a96.3 96.3 0 00-2.5-25.4c0-.5.1-.8.5-1h.8c2.7-.3 4.1-.5 7.2-.7 2.3 0 4.5 1.4 5.6 4.3z"/></g><g id="spade"><g id="spade_2" fill="#FE2B4C"><path d="M23.2 28.5v14.8c0 4.8-2 6.5-6.5 7.1l-8.2 1.1c-4.9.7-7.5-.4-7.5-6.4l.1-9.8c0-2.7.5-4.8 1.4-6.1.8-1.2 1.9-1.8 3-1.8 1.7 0 2.9.7 3.7 2.1-.8 1-1.2 2.4-1.2 4.1 0 1.9.5 3.4 1.2 4.6.8 1.2 1.7 1.7 2.8 1.6a4 4 0 003-2 8.1 8.1 0 001.3-4.5 8 8 0 00-.9-4.2 8.1 8.1 0 00-4.1-3.1c-2-.9-3.1-1.2-5.1-2a7.9 7.9 0 01-4-3.4c-.6-1-1-2.3-1-3.6L1.1 5c0-3.2 2-4.6 6.2-4.6h10.1a7 7 0 014 1c1.2.7 1.8 1.8 1.8 3.2v8c0 1.2-.4 2.1-1.1 3-.8.8-1.9 1.4-3.3 1.4-1.5 0-2.7-.5-3.5-1.4.6-.7 1-1.6 1-2.7 0-1-.4-1.8-1-2.6-.7-1-1.8-1.4-3-1.4s-2.1.3-3 1C8.6 10.7 8 11.7 8 13c0 1.4.5 2.5 1.4 3.3a9 9 0 003.2 1.7l6 1.9c2 .6 3.5 1.6 4.1 3.4.3 1 .5 2.6.5 5.2zM48.5 5.6l-.4 12.5a7 7 0 01-1.4 4 6 6 0 01-4.9 2.5c-1.9 0-3.4-.8-4.6-2.3a9.2 9.2 0 01-1.8-5.9c.8.4 1.6.6 2.3.6 1.1 0 2.1-.4 3-1.3.6-.8 1-1.8 1-2.9.1-1-.3-2-1-2.8a3.8 3.8 0 00-2.9-1.2 4.2 4.2 0 00-4.3 3.8c-.4 2.7-.4 5.1 0 7.3.7 3 2 5.7 4 8.3.9 1.3 2 2.8 3.4 4.3l3.2 3.6c2.1 2.9 3.1 5.4 3 7.5v.4c0 1.5-.9 2.2-2.8 2.5l-16.2 2.3c-1.1.2-1.9.2-2.2-.1-.3-.3-.5-1-.5-2.3V3.3c0-1.2.2-2 .5-2.3.3-.4 1-.6 2.1-.6h15c3.7 0 5.7 1.6 5.5 5.2zM70 41c-.1 1.2-.4 1.9-1 2.1-.4.3-1 .4-2.1.5l-5 .4a51 51 0 002.4-13.8c.5-5.4-1.2-7.8-4-7.8-1.2 0-2.1.4-3 1.2-.9.7-1.3 1.8-1.4 3 0 1.2.3 2.3 1 3.1.8.8 1.7 1.2 3 1.1.4 0 .8 0 1.2-.3.6 1.7.7 4 .6 6.7a17 17 0 01-1 5.1c-.4 1-1.3 1.7-2.5 2-.4.2-1.5.4-3.3.7-4.2.6-6.4-1-6-6.1l.5-11.2c.2-4.2 1.4-6.4 4-8l7.1-2.7c2.6-.9 4-2.2 4.1-4 0-1.1-.3-2-1-2.9a3.8 3.8 0 00-3-1.2c-1 0-2 .4-2.9 1.1a4 4 0 00-1.4 2.8c0 .7 0 1.2.3 1.6-.9 1.2-2 1.8-3.2 1.8-1 0-1.8-.4-2.5-1-.6-.7-1-1.6-.9-2.6l.4-6.9c0-3.6 2-5.1 5.8-5.1h9.3c3.8 0 6 1.7 6 5.6A362 362 0 0170 41zM96.6 38.7a7 7 0 01-3.3 4.6 8.4 8.4 0 01-5.3 1c-5-.6-7.7-.8-12.8-.9-1.5 0-2.4 0-2.7-.3-.3-.2-.3-.9-.2-2.2a260 260 0 001.4-37.5c-.1-1.3 0-2 .2-2.5.3-.3 1.1-.5 2.3-.5h11.2c2 0 4.1.7 6 2.2 2 1.4 3.3 3.4 3.8 5.6 1.6 10.5 1.4 20-.6 30.5zm-6.1-17c0-3.3-.3-6-.7-7.5-1-3.3-2.7-5-5.2-5a4 4 0 00-3 1 4 4 0 00.1 5.9c1 .8 2 1.2 3.2 1.2.7 0 1.4 0 1.9-.2 1 1.3 1.7 3 1.7 5s-.6 3.5-1.9 4.9c-.5-.3-1.1-.4-1.8-.4-1.3 0-2.4.3-3.3 1.1-.9.8-1.4 1.8-1.5 3a4.2 4.2 0 004 4.5c2.7.1 4.7-1.8 5.9-5.7.3-1.3.6-4 .6-7.9z"/><path d="M121 6.3c1.4 3.2 1.7 4.9 2.3 8a4 4 0 01-1 3.8c-1 1-2 1.4-3.6 1.4-1.7 0-3-.6-4-1.7 1.6-.7 2.2-2 1.9-3.8a5 5 0 00-1.9-3 5 5 0 00-3.3-1.3c-1.2 0-2.1.4-2.8 1.2-.7.8-1 1.9-.7 3.2.3 1.6.9 3 2 4.3a10 10 0 004 2.7c2 .7 5 1.2 9.2 1.4v1.3l-4 .2c-2.2.2-4 .6-5.2 1-3.6 1.5-5.5 3.8-6 7.3a5 5 0 00.6 3.7c.7 1 1.6 1.5 2.7 1.7 1.3.1 2.4-.2 3.4-1.1 1-.9 1.7-2 1.9-3.3.4-2.3-.3-3.9-1.8-4.8a5 5 0 014-1.6c1.5 0 2.6.6 3.5 1.8 1 1.2 1.3 2.8.9 5-.6 3.8-1.1 6-2.5 9.6-1.6 4.2-4.7 5.3-8.5 4.7a509 509 0 00-12.3-2c-1.7-.3-2.5-.8-2.4-1.6L98 43a70 70 0 00-.2-41.2c0-.6.2-1 .9-1l1.4-.1h12.2a9 9 0 018.8 5.7z"/></g></g><g id="know"><g id="know_2" fill="#04AADC"><path d="M88.1 71.7L88 79c0 .6 0 1-.2 1-.1.3-.5.4-1 .4l-4.5-.2.7-8.3c.1-1.5 0-2.6-.6-3.3a2.4 2.4 0 00-2.2-1.1c-.7 0-1.3.2-2 .7-.5.6-.8 1.1-.8 2-.1.8.1 1.4.7 2 .5.4 1 .7 1.8.7h.4a11.7 11.7 0 01-.3 5.6c-.4 1.1-1.2 1.7-2.3 1.6h-3.4c-.8 0-1.3-.1-1.4-.3-.2-.1-.3-.6-.3-1.2a203 203 0 00.3-32.6 62.8 62.8 0 015.3 0c1 0 1.6.6 2 1.9.6 2.1.6 4.3.3 6.4l-.5-.1c-.8 0-1.4.3-1.8 1.2-.5.8-.7 1.8-.7 3 0 1 .3 2 .8 2.7.6.7 1.2 1 2 1s1.5-.4 2-1.5c.6-1 .8-2.6.7-4.6-.1-3.6-.7-7-1.7-9.7l5 .6c.6.1 1 .7 1.1 1.7.4 3 .5 5 .7 8.4.2 4.6-1 7-3.4 8.1-.1 0-.2 0-.2.2 0 .1 0 .2.2.2 2.4.8 3.7 2.6 3.5 6.2zM104.6 80.6v1c-.2.1-.6.2-1 .1l-3.4-.3a68.2 68.2 0 00-3.7-17.9c-.2-.5-.6-1-1-1.3-.4-.5-1-.7-1.5-.7-.8 0-1.5.3-2 1-.3.6-.5 1.4-.5 2.3 0 .8.3 1.3.8 1.7.5.4 1 .7 1.7.7a3 3 0 002-.8 34.6 34.6 0 011 13.7c-.2.7-.6 1-1.4.9l-4.7-.4c-.7 0-1.1 0-1.3-.2-.2-.1-.3-.5-.3-1.2a306.7 306.7 0 00-.6-31.6c0-.2.4-.3.8-.2l3.4.6a92.8 92.8 0 002.3 9 13 13 0 002 4c.8.8 1.5 1.2 2.3 1.2.7 0 1.2-.2 1.7-.8.5-.6.7-1.3.6-2.2a5 5 0 00-1-2.4c-.5-.7-1.1-1-1.8-1.1-1-.1-1.7.4-2.2 1.5a16.8 16.8 0 01-.5-7.9c.2-.4.7-.5 1.3-.4l3.8.7c.7.1 1.1.3 1.3.5l.3 1.4c.9 9.7 1.3 19.3 1.6 29zM121.2 79.5c0 3.2-1.3 4.5-4.3 4a293 293 0 01-6-.7c-3.3-.5-4.8-1.7-4.9-4.8-.3-7.8-.5-15.6-1.4-23.4-.3-3.2 1.1-4.2 4.3-3.8l6.4.7c3.6.3 5.6 1.5 5.7 4.6.3 7.8.1 15.6.2 23.4zm-5-6.3c0-1-.3-1.8-.9-2.5-.6-.8-1.2-1.1-2-1.2.1-1.4.6-3 1.5-4.9a9.7 9.7 0 001-4.3c0-.9-.4-1.7-1-2.3-.6-.7-1.4-1-2.2-1-.9-.2-1.6 0-2 .5-.5.6-.7 1.2-.6 2.1 0 1 .5 1.7 1.2 2.3.7.6 1.5 1 2.3.9 0 1.3-.6 2.5-1.6 4.6-1 1.8-1.3 3.7-1.2 5.2 0 1 .3 1.8.9 2.6.6.7 1.2 1 2 1.1.7 0 1.3-.2 1.9-.8.5-.6.7-1.4.7-2.3zM145.3 77.6c-.4 2.1-.6 4-1 5-.6 1.9-1.7 3-3.3 3l-2.8-.2c-2.4 0-3.9-2.3-4.1-6.1h-.3c-.7 3.7-2 5.8-4.3 5.6l-3-.3c-1.6-.1-2.8-1.1-3.3-3-.4-1.1-.6-3-.6-5.7 0-7.6.2-15 0-22.6 0-1 .4-1.3 1.2-1.3l3.1.2a3 3 0 012.1 1c2.5 3 3.5 7.5 3.2 11.5a8.3 8.3 0 01-1.4 3.9c-.7 1-1.4 2.3-2.2 3.3-.3-.2-.6-.3-1-.3-.7-.2-1.3 0-2 .4-.5.5-.8 1.2-.8 2.2 0 .9.2 1.7.8 2.4.5.7 1.1 1 2 1.2 1.6.1 2.8-1.3 3.6-3.8 1-3.3 2-5.5 2.8-8.8 1-4 1.6-8.5 1.7-12.7h1.7c-.2 4.4-.5 8.8-.5 13.1 0 2.6.2 5.2.6 9.1.2 2.5 1.2 4 3 4 .7 0 1.3-.3 2-.8a3 3 0 001-1.8c.1-.9 0-1.5-.5-2-.4-.5-1-.7-1.7-.8l-1 .1c-.4-.8-.9-2.1-1.2-3.5-.3-1.4-.4-3-.2-4.3.5-3.9 2-8.6 4.5-11.9.6-.8 1.3-1 2.2-1h2.5c.6 0 1 .3 1 1.4-1 8-2.5 15.7-3.8 23.5z"/></g></g><g id="happy"><g id="happy_2" fill="#FE22B8"><path d="M237 31.5c0 .6-.2 1-.4 1.2-.2.3-.6.5-1.3.4l-6.4-.5c2-3.8 3-5.7 3.3-7 .2-1 0-2-.3-2.7-.5-1-1.4-1.5-2.8-1.5-1 0-1.9.3-2.7.7-.8.5-1.2 1-1.4 1.7-.1.7 0 1.2.7 1.7.6.5 1.3.8 2.3.8h.6a5 5 0 010 2.5c-.5 2.3-1.5 3.7-3 3.7l-5.8-.3c-1 0-1.6 0-1.8-.3-.1-.3 0-.9.1-1.7 2-9.3 4.2-18.5 5.3-28 0-.7.2-1.2.4-1.4.2-.2.6-.4 1.3-.4h5.8a39.6 39.6 0 00-3 8.8c-.2 1.5-.1 2.7.3 3.5.6 1 1.4 1.5 2.6 1.4 1 0 1.8-.3 2.6-1 .8-.5 1.2-1.3 1.4-2.2.2-1-.1-1.8-.8-2.5a3 3 0 00-2.6-.7c-.2-1-.3-2-.2-3.2.4-2.7 1.1-4.1 2.5-4.1h6c.8 0 1.2.1 1.5.4.1.3.2.9.1 1.7a355 355 0 01-4.3 29zM257.4 32.3c0 1-.3 1.7-.7 1.9-.3.2-1 .3-1.8.2-1.8 0-2.6 0-4.4-.2 1.2-2.6 2-6 2.7-10.2.5-3.9-.6-5.9-3-5.9-1 0-1.8.4-2.6 1-.8.7-1.3 1.4-1.4 2.2-.1.8 0 1.6.7 2.1.7.6 1.5.9 2.5.9.4 0 .8 0 1.1-.2.5 1.2.5 2.7.3 4.6a12 12 0 01-1 3.8c-.5.8-1.3 1.4-2.4 1.4h-3c-3.9-.4-5.5-2.6-5-5.7l1.1-6.3a8.2 8.2 0 014.2-6l6.2-2.2c2.2-.8 3.4-1.8 3.5-3.2 0-.9-.2-1.7-.8-2.3-.6-.6-1.3-1-2.3-.9-.9 0-1.7.4-2.4 1a3 3 0 00-1.2 2.2v1.2c-.7 1-1.6 1.4-2.6 1.5-.9 0-1.5-.3-2-.8s-.7-1.2-.6-2L243 5c.3-3 1.9-4.5 5-4.5h7.5c3.2 0 4.7 1.5 4.6 4.6-.8 9.2-1.6 18.2-2.8 27.3zM280.5 4.6l-.4 9.6c0 1.1-.5 2.3-1.2 3.3-1 1.2-2.4 1.9-4.1 2-1.6 0-2.8-.6-3.8-1.7a7.2 7.2 0 01-1.3-4.8c.6.3 1.2.5 1.8.5 1 0 1.8-.4 2.4-1.1.6-.7 1-1.4 1-2.2 0-.8-.2-1.6-.8-2.2a3 3 0 00-2.4-1c-.8 0-1.6.3-2.3.8-.7.5-1 1.3-1.2 2.2-.5 2-.5 4-.1 5.7.4 2.4 1.4 4.4 2.9 6 .7.9 1.5 1.7 2.7 2.6l2.4 2c1.7 1.7 2.4 3.2 2.3 4.7v.2c0 1.1-.8 1.8-2.5 2-4.6.7-9.5 1.2-14.2 1.2-1 0-1.7 0-2-.3-.2-.3-.3-1-.2-1.9 1.1-9.8 2-19.6 2.5-29.5 0-.9.1-1.6.3-1.9.3-.3.8-.5 1.7-.5h12c3 .1 4.6 1.5 4.5 4.3zM301 4.4l-.2 8.8c0 1.1-.3 2.2-1.2 3.2a5.8 5.8 0 01-4.3 2c-1.6 0-2.9-.3-3.7-1.4-.9-1-1.5-2.6-1.5-4.6.7.3 1.3.4 2 .4 1 0 1.7-.4 2.4-1.2a3 3 0 001-2c0-.8-.3-1.4-1-2-.5-.5-1.3-.8-2.3-.8a4 4 0 00-2.4.8c-.7.5-1 1.2-1.3 2-.3 2-.4 3.9 0 5.6a10 10 0 005.4 7.3l2.4 1.5c1.6 1.1 2.3 2.3 2.1 3.7v.2c-.2 1-1.1 1.7-2.8 2L282 32.4c-.9.1-1.5 0-1.7-.1-.3-.2-.4-.8-.4-1.6 1.3-9.4 2-18.5 2.3-28 0-.9.2-1.5.4-1.8.2-.3.8-.5 1.7-.5h12c3.3 0 4.8 1.4 4.8 4zM320.3 23.2c0 1-.7 2.1-2 2.8-1.1.5-3 1-5.2 1.3l-7.8 1c-3.7.6-5.3-.4-4.9-2.4l.4-1.8c.5-2.3 2.2-3.5 5-3.7.7 0 1.4 0 2 .2l-.2.3c-.2.6.1 1 .7 1.4.7.3 1.6.3 2.8.2 1 0 1.8-.4 2.5-.8.8-.4 1.2-.8 1.3-1.3 0-.8-.7-1.3-2.1-1.7a14.5 14.5 0 00-11.2 1.8c1.6-6 1-12.3 1-18.3 0-1.2.6-1.8 1.9-1.8h5.8a21.3 21.3 0 00-2.2 7.2c0 1.1.2 2 .8 2.9.7 1 1.6 1.4 3 1.4.9 0 1.7-.3 2.4-.9.7-.5 1-1.2 1-2 0-.7-.3-1.3-1-1.8a3.5 3.5 0 00-3-.7c-.3-.8-.4-1.6-.4-2.7 0-2.2.8-3.4 2.4-3.4h5.7c.8 0 1.2.5 1.2 1.6v21.2z"/></g></g><g id="play" fill="#FE7A04"><path id="Vector_111" d="M145.8 5.8a89 89 0 011.3 12.5c0 1.4-.4 2.6-1.2 3.9a5.8 5.8 0 01-4.2 3c-1.7 0-3-.8-4.1-2-1.1-1.3-1.7-3-2-5.6a4 4 0 002 .5 3 3 0 002.5-1.5c.6-.9.8-1.9.6-3-.1-1-.6-2-1.5-2.8a4 4 0 00-3-1.1 3 3 0 00-2.3 1.1c-.6.8-.8 1.8-.8 3a30 30 0 004.4 15.3l3 4.8 2.8 4.3c2 3.7 3 7 3 9.2v.4c0 1.6-.9 2.1-2.8 2l-16.7-.7c-1.2 0-2-.3-2.4-.6-.3-.3-.5-1-.4-2.3 1.8-15 3.6-27.5-.7-42.4-.4-1.3-.7-2.2-.6-2.6 0-.5.6-.7 1.6-.7h14.5c4 0 6.5 1.6 7 5.3z"/><path id="Vector_112" d="M166.3 46.7c0 1.8-.1 2.7-.4 3.2-.4.5-1.3.7-2.6.6L152 50c-1.5 0-2.6-.3-3-.7-.5-.3-.8-1.3-.8-3.2.4-14.3 1.6-28.8-.9-43-.2-1.3-.1-2 .1-2.3.4-.3 1.2-.5 2.4-.5h14c.6 0 1.1.3 1.6.7.5.4.7 1 .7 1.5 0 1.9-1.1 4.3-3.4 7.3l-6.4 8.3c-3.1 4-3.4 9.4-3.6 13.8 0 2 .3 3.8 1 5 .6 1.4 1.5 2 2.5 2s2-.6 2.7-1.9a9.4 9.4 0 001.2-4.6c0-1.7-.3-3.3-.9-4.5-.6-1.2-1.4-1.7-2.4-1.6V24c0-2.7.4-4 1.1-5.3 1-1.5 2.2-2.4 4.1-2.5 1.3-.1 2.4.4 3.3 1.2a4 4 0 011.3 3.2l-.3 26.1z"/><path id="Vector_113" d="M188.2 47.4c-.2 2-.5 3-1 3.3-.4.3-1 .5-2 .5h-4.8c2-6.3 2.3-13.1 2.7-19.6.5-7.8-1-10.1-4.2-10.3a4 4 0 00-3.2 1c-.9 1-1.3 2-1.3 3.7 0 1.6.4 3.1 1.2 4.3.8 1.2 1.8 1.9 3 1.9.5 0 1-.2 1.3-.4.6 2.5.8 5.9.6 9.8a31 31 0 01-1 7.2c-.4 1.4-1.3 2-2.4 2.3h-3.2c-4.1-.1-6-1.7-6-8.7l.1-15.3c0-5.3 1.2-7.3 3.7-8.6.5-.3 2.8-1 7.7-2.4 2.8-.7 4.5-2 4.6-3.8.1-1-.3-2-1.2-2.8-.9-.8-2-1.2-3.3-1.2-1.3 0-2.4.4-3.3 1.1-1 .7-1.4 1.6-1.5 2.6 0 .6 0 1.1.3 1.5-1 1.1-2 1.6-3.3 1.6a3.3 3.3 0 01-3.4-3.3V5.3c0-3.3 1.7-4.7 5.8-4.7h11.2c5 0 7.6 1.5 7.2 5.2l-4.3 41.6z"/><path id="Vector_114" d="M211.9 41.4c-.7 3.2-1.6 5.8-3 7.2a7.8 7.8 0 01-5.1 2l-8 .4c-3.9.1-5.6-2-5-6.9l.5-4.8c.7-6.2 2.8-9 6.3-9 1 0 1.8.3 2.5 1l-.3.7a6 6 0 00.6 4.2 3 3 0 003 1.5c1-.1 2-.8 3-2s1.6-2.4 1.8-3.7c.5-2.1-.2-3.5-1.8-4.6-1.3-.7-3-1.2-5-1.3-3.4-.1-6.5.8-9 3.5.9-9 2.5-18 3.2-27.1 0-1.5 1-2.1 2.9-2.1h8.7a26 26 0 00-2.6 4.6c-1 2-1.5 3.7-1.8 5.2-.3 1.7-.2 3.2.3 4.5a3.7 3.7 0 003.5 2.4c1.3 0 2.4-.3 3.5-1.1 1-.8 1.7-1.8 2-3 .3-1.2.1-2.2-.5-3-.7-1-1.6-1.4-2.8-1.4h-1a9.4 9.4 0 010-3.8c.4-3.1 1.5-4.4 3.7-4.4h7.2c1 0 1.4.6 1.3 2-1.6 13-5.5 26.1-8.1 39z"/></g><g id="friend" fill="#FE2B4C"><path id="Vector_115" d="M91 129.5v5c0 1-.5 2.1-1.5 3-1 1-2.4 1.6-4 1.8-1.8.2-3.2-.2-4.1-1 1.6-.8 2.4-2 2.4-3.1 0-.8-.5-1.3-1.5-1.7a8.9 8.9 0 00-6.7 1c-.9.5-1.3 1.1-1.2 1.9 0 .8.8 1.6 2.1 2.5 1.3 1 2.8 1.9 4.5 2.4 2 .6 5 .9 9.2.6l.1 1.6-4 .7c-2.2.3-3.9.8-5 1.4-.7.4-1.1.8-1.3 1.3-.2.7 0 1.2.6 1.8.7.7 2.3 1.6 4.7 2.9 2.6 1.3 4.4 2.5 5.5 3.3 1.8 1.4 2.7 2.8 3 4.1 0 .5-.2 1-.7 1.2-.5.3-1.1.3-1.9.3l-18-2a7 7 0 01-2.7-.5c-.3-.2-.6-.6-.7-1.3-1.1-8-2.6-16-4-24-.2-.6 0-1.2.6-1.6.5-.4 1.6-1 3-1.3 5.1-1.2 10.2-2.4 15.3-3.4 4.4-.9 6.4.6 6.3 3.1z"/><path id="Vector_116" d="M123 163.2l-2.5-.1c-4-.2-7.5-2.3-11-5.7a20.5 20.5 0 01-5.8-11c-.5-4.2.6-8.4 3-11a6.6 6.6 0 005.1-1.2c.8-.7 1.2-1.5 1.2-2.4 0-.8-.5-1.4-1.4-1.8-1-.5-2-.7-3.2-.5-1.5.1-2.8.6-3.9 1.5-.8.7-1.5 1.4-1.8 2.4a26.2 26.2 0 00-1.6 11.2c.3 2.9 1.3 6 2.7 9.2 1.4 3.3 3 6.1 4.4 8.4-4.1-.3-6.1-.5-10.2-1-1.3-.1-1.9-.8-2-2.1-1.6-10.7-3.1-21-2.6-31.7 0-1 .2-1.6.4-2 .4-.5 1.2-.9 2.5-1.1 4.9-.8 9.8-1.5 14.7-2 5.4-.5 7.8 2 8 5.8l.2 4c0 1.5-.2 2.8-1 3.8-.6 1-1.9 1.8-3.6 2.4-.3.2-.5.3-.5.5 0 .3.3.4.7.5 1.7.3 3 .9 3.7 1.9.7 1 1.2 2.7 1.5 5.2l1.6 13c.1 1.5.6 2.8 1.4 3.8z"/><path id="Vector_117" d="M137.8 160.5c.1 1.3 0 2-.3 2.3-.3.3-1 .5-2.2.5H127c-1.2 0-2 0-2.3-.4-.3-.3-.4-1-.5-2.3-.9-8.4-2.1-16.7-2.4-25.2 2.5-.2 4.9-.7 7.1-1.4 2.7-.9 4-2 3.8-3.2 0-1-.5-1.5-1.4-2-.8-.6-2-.8-3.2-.7-1.3 0-2.3.3-3 .9-.8.6-1.1 1.2-1 2 0 .4.1.7.3 1a4 4 0 01-2-.2c-.6-.3-1-.8-1-1.4v-1.2-1.7-3.9c0-.7.3-1.4.7-1.7.5-.3 1.2-.5 2.2-.6l7.9-.3c1 0 1.8.1 2.2.4.3.3.5 1 .5 1.8.4 12.5 1.9 24.9 3 37.3z"/><path id="Vector_118" d="M160.4 125.3l.5 5.2c.1 1-.3 1.7-1.3 2.4-1 .8-2.3 1.2-4 1.3-1.8.1-3.1-.3-4-1 1.6-.6 2.3-1.5 2.2-2.7 0-.7-.5-1.3-1.5-1.8-.9-.6-2-.8-3.2-.8-1.2 0-2.2.3-3 .8-.8.5-1.2 1.2-1.2 2 .1 1.1.7 2.1 1.8 3 1 1 2.3 1.7 3.9 2 2 .6 5.2.9 9.7.6l.1 1.4-4.3.6c-2.3.3-4 .8-5.2 1.5-3.5 1.8-5 4.4-4.4 8 .2 1.4.9 2.6 2 3.4 1.1.9 2.3 1.2 3.5 1a4 4 0 003.1-1.6c.7-1 1-2.1.7-3.3a5 5 0 00-3.3-4.1c.8-1.3 2-2 3.7-2 1.6-.2 3 .2 4.3 1.1a6 6 0 012.4 4c.6 3.3 1 5 1.4 8.2.5 3.7-1.3 5.7-5.6 6.5-5 .8-10 1.3-15 1.8-1.9.2-3-.1-3.2-1l-.3-1.6c-1.1-12.2-2.4-24.4-3-36.6-.1-.8 0-1.3.1-1.6.2-.6.7-.9 1.5-1l1.6-.1c5.4 0 8.1 0 13.5-.2 4.2 0 6.3 1.8 6.5 4.6z"/><path id="Vector_119" d="M188.7 150.6l-.3 1.5a3 3 0 01-1.5 1l-4.8 1.8c.3-3.2-.3-7-2-11.9a30.7 30.7 0 00-4.5-9.8c-.5-.4-1-.8-1.6-1-.9-.3-1.8-.4-2.7-.3-1.5 0-2.6.4-3.4 1-.8.6-1.1 1.3-1 2.2 0 .9.6 1.7 1.6 2.3 1 .5 2 .8 3 .6 1.2 0 2.3-.6 3.3-1.4 1.5 2.6 2.6 6.4 3.1 11.3.2 2.2.2 4.6-.1 6.9-.2 1-.9 1.8-2 2.1l-6.6 1.9c-1 .2-1.6.3-1.9.1-.3-.1-.5-.6-.6-1.7-1.6-11.6-3.5-23.1-4.3-34.9 0-.6 0-1.1.2-1.4.3-.3.8-.4 1.6-.5l6-.1c0 .8.3 2.2.9 3.8.5 1.6 1.4 3 2.5 4.3a9.6 9.6 0 003.4 2.7 8 8 0 006.9-.3c.8-.5 1.3-1 1.2-1.6 0-.7-.6-1.2-1.6-1.7s-2-.7-3.2-.6c-1.9 0-3.2.5-4 1.4a5.5 5.5 0 01-1.2-3c-.2-1.7 0-3.2.7-4.2.4-.6 1.3-1 2.6-1l6.7-.2c1.1 0 1.9.1 2.2.4.2.2.4.9.5 1.8.8 9.6 1.4 18.9.9 28.5z"/><path id="Vector_120" d="M215.2 138c-.1.8-1 1.9-2.6 3.1a26.6 26.6 0 01-5.8 3.5l-13.2 5.8c-1.4.5-2.2.8-2.5.7-.3-.2-.3-.8-.2-2 .6-9 0-17.6-.6-26.6 0-1 .2-1.8.5-2.2.3-.3 1.3-.6 2.8-.6h13.2c2.5.1 4.7 1 6.3 2.2 1.7 1.3 2.5 2.7 2.5 4 .1 7.3.7 7.6-.4 12.2zm-7.1-5.6a8 8 0 00-.8-3.5c-.8-1.5-2.6-2.5-5.2-2.5-1.3 0-2.4.2-3.2.7-.9.5-1.2 1-1.2 1.5 0 .6.6 1 1.5 1.5 1 .3 2 .5 3.2.5l1.9-.2c1.2.5 1.7 1.3 1.8 2.4 0 1.1-.8 2.4-2 3.5h-1.7c-1.3.2-2.3.6-3.2 1.2-1 .7-1.4 1.4-1.4 2.2 0 .8.3 1.3 1 1.6.9.3 1.8.3 3 0a8.5 8.5 0 005.5-4.4c.4-.7.9-2.5.8-4.5z"/></g></g></svg>