<svg id="Layer_1" data-name="Layer 1" xmlns="http://www.w3.org/2000/svg" viewBox="0 0 320.9 473.1">
  <g id="card_back" data-name="card back">
    <g id="black">
      <path id="Vector" d="M63.5,186c.1,4.9-.1,10.2-2,14.9s-5.9,7.1-10.7,8c-.5.1-.8.3-.8.6l.7.4c5,.8,8.5,2.2,10.4,5.2s2,8.7,2.1,13c-.1,8.8-.4,17.7-.5,26.5-.3,4.3-.1,11.5-4.6,13.6s-10.5-1-14.5-2.9c-11.7-5.1-23.2-10.4-34.9-15.7a24.6,24.6,0,0,1-5.5-3,4.2,4.2,0,0,1-1.8-3.5V159.9c0-1.8.7-2.8,2-3.1a23.8,23.8,0,0,1,5.6-.4c10.9.4,21.8,1.2,32.8,2.2,6.8.7,14.8,1.9,18.9,7.5S63.5,179.6,63.5,186Zm-23,46.1a10.9,10.9,0,0,0-3.1-8,11.6,11.6,0,0,0-7.9-3.5,12.5,12.5,0,0,0-4.4.4,16.4,16.4,0,0,1-4.4-10.5A16.9,16.9,0,0,1,25,199.7a10.2,10.2,0,0,0,4.6.9,10.7,10.7,0,0,0,7.8-2.9,10.2,10.2,0,0,0,3.4-7.9,12.1,12.1,0,0,0-3.2-8.2,10.8,10.8,0,0,0-7.9-3.9c-8.5-.3-10.8,7.8-12.4,13.8a91,91,0,0,0-1.4,18,87.9,87.9,0,0,0,.9,15.4c1.2,6.4,5.4,13.2,12.6,15.3a8.1,8.1,0,0,0,11.1-8.1Z" transform="translate(-0.4 -0.3)" style="fill: none;stroke: #fff;stroke-miterlimit: 10;stroke-width: 2px"/>
      <path id="Vector_2" data-name="Vector 2" d="M121.9,282.4c-.1,4.6-.6,6.8-1.5,7.6s-3.9.9-7.7,0c-11.4-2.8-22.4-6.3-33.5-10.2-4.5-1.7-7.5-3.2-8.9-4.6s-2.1-3.7-2-8.1c.6-33.6,1.1-67.1,1.2-100.7,0-2.5.6-3.6,1.5-4s3.2-.4,6.6,0c12.7,1.4,25.4,2.5,38.1,3.1a10.1,10.1,0,0,1,4.9,1.2c1.4.7,2.1,1.7,2,2.9-.3,6.3-6.2,12.1-10.5,17.1-6.4,6.7-12.7,13.4-19.8,19.5C83,215,81.6,225.2,81,237a24.8,24.8,0,0,0,2.9,13c2.1,3.6,4.7,5.7,7.8,6.4s5.7-.3,8-3.2,3.4-6.8,3.7-11.5a22.9,22.9,0,0,0-2.6-12c-1.8-3.2-4.2-4.7-7.3-4.9-.1-2.3-.1-4.3,0-6.1.1-6.5,1.4-8.7,3.6-11.1s8.3-5.1,12.6-4.9a18.6,18.6,0,0,1,10.1,3.1c2.8,1.9,4.2,3,4.2,5.9C123.7,235.3,122.6,258.8,121.9,282.4Z" transform="translate(-0.4 -0.3)" style="fill: none;stroke: #fff;stroke-miterlimit: 10;stroke-width: 2px"/>
      <path id="Vector_3" data-name="Vector 3" d="M184.3,287.9c-.2,4.2-.8,5.7-2,6.3a14.2,14.2,0,0,1-5.7,1.1c-5.3.3-8,.4-13.4.5,7.7-15.4,5.6-37.7,6-53.9.2-7.3,3.2-29.9-11-29.6a12.1,12.1,0,0,0-8.2,3c-2.4,2.3-3.6,5.4-3.7,9.8a23.1,23.1,0,0,0,3,12.8c2.1,3.7,4.8,5.6,8.1,5.6a6.6,6.6,0,0,0,3.5-1.1c2,10.1,2.1,20.5,1.7,30.6-.2,6.1-.2,12.9-2.3,18.7-1,2.8-3.4,3.7-6.9,3.9a68.9,68.9,0,0,1-9.2-.3c-15.5-1.3-17.4-11.8-17.4-24,.5-14.3,1-28.6,1.4-42.8.7-9.4.9-16.7,11-20.9,6.5-2,13.1-3.8,19.7-5.9s10.6-5,10.7-10.5a9,9,0,0,0-3.3-7.2,11.4,11.4,0,0,0-8.1-2.2,13.8,13.8,0,0,0-8,3.4,8.9,8.9,0,0,0-3.4,6.9,8.4,8.4,0,0,0,.8,3.9,10.5,10.5,0,0,1-8.5,4.3,9.9,9.9,0,0,1-6.9-2.3,7.5,7.5,0,0,1-2.8-6.1V175.5c-.2-8.2,8-9.9,15.6-10.3a215.5,215.5,0,0,0,26.4-3.9c8.8-2.3,16.4-2,15.8,8.1C187.1,208.9,185.7,248.4,184.3,287.9Z" transform="translate(-0.4 -0.3)" style="fill: none;stroke: #fff;stroke-miterlimit: 10;stroke-width: 2px"/>
      <path id="Vector_4" data-name="Vector 4" d="M248.7,181.5c.6,5.8,0,12.3-3.1,17.4s-6.5,5.9-11.1,6.1-11.1-2.3-13.9-7a9.7,9.7,0,0,0,7.5-4.3c2-2.8,2.8-6.5,2.5-10.9a18.8,18.8,0,0,0-3.5-10.5c-2.2-2.8-4.6-3.7-7.2-3-5.6,1.6-9.1,6.8-10.9,11.6a41.9,41.9,0,0,0-3,17c.5,7.7,3.4,12.9,8.9,18.6s10.1,9.5,18,9.3a28.9,28.9,0,0,0,18-6.9c-.9,14.6-1.7,29.2-2.5,43.8-.4,11.7-6,21.1-18.9,24.6-7.1,1.8-14.2,3.3-21.5,4.6-15.2,2.7-17-7.5-17-18.9,1.4-35.9,2.3-71.5,2.2-107.3-.3-8.8,6.8-13.9,14.8-17.3s14.9-6.6,22.4-9.6c10.1-4.5,15.5.9,15.9,10.2Z" transform="translate(-0.4 -0.3)" style="fill: none;stroke: #fff;stroke-miterlimit: 10;stroke-width: 2px"/>
      <path id="Vector_5" data-name="Vector 5" d="M320.2,224.4c0,5.6-.1,11.2-.1,16.8a5.7,5.7,0,0,1-.7,3.1,19.1,19.1,0,0,1-4.9,4c-6.6,4.2-13.4,8.3-20.2,12.1,2.2-9.6,2.5-19.7,3-29.5.3-5.1-.7-8.7-2.9-11.2s-5.3-3.6-9.1-3.5a12.5,12.5,0,0,0-8.4,3.3,11.8,11.8,0,0,0-3.8,8.3c-.3,3.9.7,7,3,8.8a8.6,8.6,0,0,0,7.8,1.4l1.9-.6a26.8,26.8,0,0,1,1.1,10.8,44.1,44.1,0,0,1-2.1,11.4,19.8,19.8,0,0,1-10.1,11l-14.2,6.2q-5,1.9-6,1.5c-.7-.4-1-1.7-.9-4.8,1.4-20.7,4.8-42.6,3.7-63.4-1.3-24.3-3.9-49-6.5-73.2-.4-2.6-.1-3.8.6-4.5s2.2-1.3,4.8-1.8a108.4,108.4,0,0,1,17-2.2c4.2-.1,7.2,1.2,8.6,5.5,2.6,8.4,2.2,17.3,1.2,25.9a6.2,6.2,0,0,0-2.1-.3q-5.1.1-7.8,5.7c-2.1,4-2.5,8.7-2.2,13.1s1.6,8.8,4.5,12.4,5.4,4.7,8.8,4.7,6.5-2,8.6-6.7c2.9-6.7,2.8-14.3,2.5-21.3-.7-12.3-1.1-27.2-7.7-38.6a165.9,165.9,0,0,1,26.5,5.4c4,1.2,6.1,2.6,6.1,5.9v34.8c-.3,12.1-.9,28.5-16,33.2-.5.1-.8.3-.8.6s.4.6.9.8C312.4,211.5,320.4,215.8,320.2,224.4Z" transform="translate(-0.4 -0.3)" style="fill: none;stroke: #fff;stroke-miterlimit: 10;stroke-width: 2px"/>
    </g>
    <g id="good">
      <path id="Vector_6" data-name="Vector 6" d="M241.7,124.1c.2,4.2-1.7,6-5.8,7.4s-6,2.3-10.2,4.1-7,1.8-7-3.8V79.5c-.4-4.1,1.3-9.5,7-8.6,3.4.3,5.2.5,8.6,1a12.5,12.5,0,0,1,5,1.6c1.3.9,1.9,2.6,1.9,5.5,0,4.9,0,9.8-.1,14.7-2-3.6-4.3-5.7-7.1-5.9s-5.5,1.6-7.5,5.4a25.4,25.4,0,0,0-2.8,10.4,23,23,0,0,0,1.6,7.1c1.2,3.2,2.8,4.8,4.9,4.5a4.5,4.5,0,0,0,3.1-2.2,6.5,6.5,0,0,0,1.1-4.1,4.1,4.1,0,0,0-1.4-3.5,4.4,4.4,0,0,0-3.2-1.2,3.5,3.5,0,0,0-2.8,1.2,1.5,1.5,0,0,0-.1-.7c-.2-1.8.5-3.4,2-5.2a6.4,6.4,0,0,1,5.1-2.7,7.2,7.2,0,0,1,4.9,2.7,8.2,8.2,0,0,1,2.2,5C241.5,111,241.6,117.6,241.7,124.1Z" transform="translate(-0.4 -0.3)" style="fill: #04aadc"/>
      <path id="Vector_7" data-name="Vector 7" d="M267.3,119.4c0,3.8-2.4,5.6-7,6.1a70.4,70.4,0,0,0-9,1.5c-4.7,1-7.2.5-7.3-4.2-.3-13.7-.4-27.3-.3-41,.1-6.3,2.5-7.6,7.5-6.6l9.3,1.9c4.9.9,7.3,3.1,7.2,8.3C267.6,96.6,267.5,108,267.3,119.4Zm-7.4-6.7a4.1,4.1,0,0,0-1.2-3.1,4.4,4.4,0,0,0-3-1.2c.2-2,.9-3.9,2.3-7.4a23.5,23.5,0,0,0,2-8.2,7.2,7.2,0,0,0-1.1-4.1,4.6,4.6,0,0,0-3.1-2,3.4,3.4,0,0,0-3.1,1.2,6.4,6.4,0,0,0-1.3,4.2,6.3,6.3,0,0,0,1.4,4.4,3.8,3.8,0,0,0,3.5,1.2,22.8,22.8,0,0,1-2.8,7.9,15.5,15.5,0,0,0-2.1,7.4,4.5,4.5,0,0,0,1.2,3.3,3.7,3.7,0,0,0,3.1,1,5.1,5.1,0,0,0,2.9-1.5A4.3,4.3,0,0,0,259.9,112.7Z" transform="translate(-0.4 -0.3)" style="fill: #04aadc"/>
      <path id="Vector_8" data-name="Vector 8" d="M294.2,120.9c.1,4.2-2,5.3-6.5,4.8a89.4,89.4,0,0,0-9.5-.6c-5.2-.2-8.4-2-8.4-5.8.1-11.2.1-22.4.3-33.6,0-5.1,2.6-6.7,7.5-6.1l9.2,1.1c4.9.5,7.3,2.6,7.2,7C293.9,98.7,294,109.8,294.2,120.9Zm-7.5-8.2a5.2,5.2,0,0,0-1.4-3.2,4.4,4.4,0,0,0-3-1.2,19.3,19.3,0,0,1,2-7.1,18.1,18.1,0,0,0,2.1-7,4.4,4.4,0,0,0-1.2-3.3,4.1,4.1,0,0,0-3-1.6,4.2,4.2,0,0,0-3.2,1.1,4.9,4.9,0,0,0-1.3,3.4,4,4,0,0,0,1.5,3.6,3.8,3.8,0,0,0,3.3,1c-.2,2.2-1.3,4.5-2.7,7.3a16,16,0,0,0-1.9,6.7,4.7,4.7,0,0,0,1.4,3,4.8,4.8,0,0,0,3.2,1.3,4.2,4.2,0,0,0,3-1A3.7,3.7,0,0,0,286.7,112.7Z" transform="translate(-0.4 -0.3)" style="fill: #04aadc"/>
      <path id="Vector_9" data-name="Vector 9" d="M319.2,125.8c0,3-.7,4.9-2,5.7s-3.1.6-5.2-.1a96,96,0,0,0-12.6-3.7,7.7,7.7,0,0,1-2.5-.9c-.3-.3-.5-1-.5-2.4q-.3-20,0-39.9a3.7,3.7,0,0,1,.6-2.4c.4-.4,1.2-.5,2.5-.4,4.9.4,7.3.5,12.2.6a8.3,8.3,0,0,1,5.6,2.2,7.3,7.3,0,0,1,2.3,5.4C319.7,101.8,319.5,113.8,319.2,125.8Zm-7-23a40.9,40.9,0,0,0-.5-7.3c-.7-3.1-2.3-4.8-4.7-4.8a4,4,0,0,0-3.1,1.1,3.7,3.7,0,0,0-1.3,2.8,4.3,4.3,0,0,0,4.3,4.1,4.3,4.3,0,0,0,1.7-.3,7.2,7.2,0,0,1,1.6,5,10.3,10.3,0,0,1-1.8,5.9,4.8,4.8,0,0,0-1.7-.5,3.8,3.8,0,0,0-3,1.3,4.8,4.8,0,0,0-1.3,3.5,6.3,6.3,0,0,0,1.1,3.8,4,4,0,0,0,2.9,2c2.5.5,4.2-1.8,5.1-6.8A55.6,55.6,0,0,0,312.2,102.8Z" transform="translate(-0.4 -0.3)" style="fill: #04aadc"/>
    </g>
    <g id="fun">
      <path id="Vector_10" data-name="Vector 10" d="M28.6,390.5v8.3a5.2,5.2,0,0,1-1.7,4,6.3,6.3,0,0,1-4.4,1.6q-3.2,0-4.5-1.8a4.3,4.3,0,0,0,2.8-4.1,4.1,4.1,0,0,0-1.4-3.1,5.2,5.2,0,0,0-3.6-1.3,5.2,5.2,0,0,0-3.6,1.3,4.1,4.1,0,0,0-1.5,3.3,6.5,6.5,0,0,0,2,4.4,12.7,12.7,0,0,0,4.7,3.2c2.2.9,5.5,1.4,10.1,1.6v1.7l-4.6.3a16.2,16.2,0,0,0-5.7,1.5,3.5,3.5,0,0,0-1.6,2,5.3,5.3,0,0,0,.2,3.7,51.5,51.5,0,0,0,4.8,7.1,85.4,85.4,0,0,1,5.4,7.7,16.2,16.2,0,0,1,2.6,8.2,2.9,2.9,0,0,1-.9,2.3,3.5,3.5,0,0,1-2.1,1c-6.6.7-13.2,1.2-19.8,1.4-1.5,0-2.4-.2-2.8-.6s-.6-1.4-.6-3.1V387.8c0-1.3.2-2.2.8-2.7s1.5-.7,3-.7H21.6C26.3,384.3,28.6,386.4,28.6,390.5Z" transform="translate(-0.4 -0.3)" style="fill: #fe2b4c"/>
      <path id="Vector_11" data-name="Vector 11" d="M58.6,433.7a11.4,11.4,0,0,1-.4,3.4,3.2,3.2,0,0,1-2.6,2c-5.4,1.1-10.7,2-16.2,2.6-8.9,1.7-8.3-11-8.4-15.4,0-12.6-.1-25.2-.1-37.9,0-2.7.9-4.1,2.8-4.1h10c-.3.8-.7,1.7-1.1,3.1s-1.5,4.2-1.7,4.6a38.3,38.3,0,0,0-1.5,6.3,67.4,67.4,0,0,0-.9,10.8,63.2,63.2,0,0,0,.9,10.6c1,6,2.6,9.1,6.1,8.8a6.6,6.6,0,0,0,4.1-2.3,7.4,7.4,0,0,0,1.6-4.7,6.3,6.3,0,0,0-1.9-4.6,5.3,5.3,0,0,0-3.9-1.6,3.3,3.3,0,0,0-2.1.7,26.3,26.3,0,0,1-1.9-9.8,29.7,29.7,0,0,1,1.9-10,49.2,49.2,0,0,1,4.4-8.9,11.6,11.6,0,0,1,2-2.2,4.5,4.5,0,0,1,2.7-.7h3c1.1,0,1.7.8,1.8,2.5C58.6,402.3,58.7,418.1,58.6,433.7Z" transform="translate(-0.4 -0.3)" style="fill: #fe2b4c"/>
      <path id="Vector_12" data-name="Vector 12" d="M88.6,430.6a14.3,14.3,0,0,1-.9,1.8,5.2,5.2,0,0,1-2,.6,39.4,39.4,0,0,0-6,.5,33.9,33.9,0,0,0,1.4-14.8,31.1,31.1,0,0,0-4.3-13.5,6,6,0,0,0-2.2-2,5.7,5.7,0,0,0-3.3-.9,6.1,6.1,0,0,0-4.3,1.3,4,4,0,0,0-1.5,3.4,3.7,3.7,0,0,0,2,3.1,6.7,6.7,0,0,0,3.9,1.2,7.6,7.6,0,0,0,4.2-1.3c2.2,4.5,2.1,9.7,1.4,14.5a38.9,38.9,0,0,1-2.1,8.3,4.1,4.1,0,0,1-2.9,2.3l-7.8,2c-1.2.3-1.9.4-2.2.2s-.6-.7-.5-1.9a380.4,380.4,0,0,0-1.4-48.9,2.7,2.7,0,0,1,.2-1.7c.2-.3.8-.5,1.7-.5h6.6q.5,1.5,1.8,4.8a36.5,36.5,0,0,0,3.6,7.1,19.5,19.5,0,0,0,4.5,5.3,8,8,0,0,0,4.8,1.7,4.8,4.8,0,0,0,3.5-1.3,3.5,3.5,0,0,0,1.2-3.1,5.2,5.2,0,0,0-2.2-3.3,6.1,6.1,0,0,0-4-1.4,4.6,4.6,0,0,0-4.4,2.2,18.7,18.7,0,0,1-2-5.3c-.5-2.5-.7-4.4-.3-5.6s1.1-1.1,2.5-1.1h7.3a5.1,5.1,0,0,1,2.6.4,5,5,0,0,1,1.3,2.4C93.3,402,93.5,415.6,88.6,430.6Z" transform="translate(-0.4 -0.3)" style="fill: #fe2b4c"/>
    </g>
    <g id="community">
      <path id="Vector_13" data-name="Vector 13" d="M16,454.9a3.8,3.8,0,0,1-1.2,2.8,3.9,3.9,0,0,1-2.8,1,3.6,3.6,0,0,1-3.3-1.6,3.1,3.1,0,0,0,1.9-.6,2.5,2.5,0,0,0,.8-1.8,2.9,2.9,0,0,0-.7-1.8,2.9,2.9,0,0,0-1.9-.8,3.5,3.5,0,0,0-2.9,1.6,5.4,5.4,0,0,0-.9,3.1,5.5,5.5,0,0,0,2.2,4.6,6.3,6.3,0,0,0,4.5,1.7,6.2,6.2,0,0,0,4.2-1.2v7.4q0,3.9-4.2,3.9H6.4c-3,0-4.4-1.3-4.4-3.9V449.9c0-2,1.3-3.1,4-3.1h6.2c2.6,0,3.9.8,3.9,3S16,452.9,16,454.9Z" transform="translate(-0.4 -0.3)" style="fill: #fe22b8"/>
      <path id="Vector_14" data-name="Vector 14" d="M32.3,469.8c0,2.3-1.5,3.5-4.4,3.5H22c-3.1,0-4.7-1.2-4.7-3.5,0-6.4.1-12.8.1-19.1.1-2.7,1.6-3.8,4.7-3.9l6-.2c3.1-.1,4.6.7,4.5,3.6C32.4,456.7,32.3,463.3,32.3,469.8Zm-4.7-4.2a2.5,2.5,0,0,0-.8-1.7,2.8,2.8,0,0,0-1.9-.7,13.4,13.4,0,0,1,1.5-4.4,9,9,0,0,0,1.3-4.1,2.7,2.7,0,0,0-.7-2,2.2,2.2,0,0,0-1.9-.8,2.8,2.8,0,0,0-2,.8,2.9,2.9,0,0,0-.9,2,2.6,2.6,0,0,0,1,2,2.3,2.3,0,0,0,2.1.5c-.1,1.3-.8,2.5-1.7,4.3a9.9,9.9,0,0,0-1.4,4.1,1.9,1.9,0,0,0,.8,1.7,2.7,2.7,0,0,0,1.9.8,3.4,3.4,0,0,0,1.9-.7A2.3,2.3,0,0,0,27.6,465.6Z" transform="translate(-0.4 -0.3)" style="fill: #fe22b8"/>
      <path id="Vector_15" data-name="Vector 15" d="M55,472.2c0,.7-.4,1.1-1.3,1.1H48.3a1.7,1.7,0,0,1-1.8-1.2,26.3,26.3,0,0,1-.9-6.7,17.5,17.5,0,0,1,2.4-8.6,3.2,3.2,0,0,0,1.4.3,2.4,2.4,0,0,0,1.8-.7,3.2,3.2,0,0,0,1-2.5,3,3,0,0,0-.7-2.3,2.2,2.2,0,0,0-1.9-.8c-1.6.1-2.7,1.7-3.6,4.4a46,46,0,0,0-1.1,4.5c-.1.8-.3,1.3-.5,1.3s-.4-.5-.5-1.3a28.2,28.2,0,0,0-.7-4.4c-.7-2.6-1.8-3.9-3.3-3.8a2.7,2.7,0,0,0-2,.9,2.9,2.9,0,0,0-.9,2.1,2.5,2.5,0,0,0,.8,2.1,2.8,2.8,0,0,0,1.9.7,2.5,2.5,0,0,0,1.4-.4,19.9,19.9,0,0,1,2.2,8.6,21.9,21.9,0,0,1-.9,6.6,1.9,1.9,0,0,1-1.8,1.3H35.3c-1.1,0-1.5-.4-1.5-1.2,0-8,.1-15.9.3-23.8.1-.9.2-1.5.5-1.7a2.9,2.9,0,0,1,1.8-.4l4.7-.4c1.3-.1,2.2.2,2.6,1.2a5.9,5.9,0,0,1,.6,1.4l.5,1c.1,0,.3-.4.5-1.1a10.9,10.9,0,0,0,.8-1.5,3.2,3.2,0,0,1,2.9-1.8l4.3-.5c1-.1,1.5-.1,1.8.1s.4.7.3,1.8C55.3,455,55,463.6,55,472.2Z" transform="translate(-0.4 -0.3)" style="fill: #fe22b8"/>
      <path id="Vector_16" data-name="Vector 16" d="M77.7,472.2c0,.7-.4,1.1-1.3,1.1H71a1.7,1.7,0,0,1-1.8-1.2,26.5,26.5,0,0,1-1-6.7c0-3.1.8-5.4,2.4-9.4a2.5,2.5,0,0,0,1.4.4,2.3,2.3,0,0,0,1.7-1.1,5.4,5.4,0,0,0,1-3.3,5.6,5.6,0,0,0-.8-3,2,2,0,0,0-1.9-.9c-1.5.3-2.6,2.4-3.3,5.9a45.2,45.2,0,0,0-1,5.6c-.2.9-.3,1.3-.5,1.3s-.5-.4-.5-1.3a47.2,47.2,0,0,0-.8-5.4c-.7-3.3-1.7-4.9-3.2-4.7a2.7,2.7,0,0,0-2,1.3,4.5,4.5,0,0,0-.8,2.6,3.4,3.4,0,0,0,.7,2.6,2.3,2.3,0,0,0,1.8.8,2.4,2.4,0,0,0,1.4-.5,24.2,24.2,0,0,1,2.2,9.1,20.1,20.1,0,0,1-.9,6.7,1.7,1.7,0,0,1-1.7,1.2H58q-1.5,0-1.5-1.2c0-8.7.2-17.3.5-26,.1-1.1.2-1.6.5-1.9s.8-.5,1.7-.6l4.6-.9c1.2-.3,2.1-.1,2.5,1a8.5,8.5,0,0,1,.6,1.7l.5,1.2c.1,0,.3-.5.5-1.3a9.3,9.3,0,0,1,.7-2,3.3,3.3,0,0,1,2.7-2.4l4.1-1.2a2.3,2.3,0,0,1,1.8-.1c.3.2.5.9.5,2.2C77.8,452,77.7,462.1,77.7,472.2Z" transform="translate(-0.4 -0.3)" style="fill: #fe22b8"/>
      <path id="Vector_17" data-name="Vector 17" d="M94.5,471a6.2,6.2,0,0,1-.1,1.6,1.7,1.7,0,0,1-1.6.7H83.9c-3.3,0-4.8-2.1-4.8-6.4,0-8.5.3-17.1.3-25.6,0-2.3.7-3.1,1.9-3.6l6.3-2.3a10.1,10.1,0,0,0-.8,2.6c-.6,2.6-1,4.5-1.1,5-.5,2.5-.9,5.1-1.2,7.5-.5,4.3-1.2,7.9-1.2,9.7a14.6,14.6,0,0,0,.6,4.4c.6,2.2,1.8,3.4,3.6,3.3a3.2,3.2,0,0,0,2.1-.8,2.7,2.7,0,0,0,.9-2,2.3,2.3,0,0,0-.9-1.9,3,3,0,0,0-2.1-.5,2.8,2.8,0,0,0-1.3.3,6.7,6.7,0,0,1-.9-4.9,91.2,91.2,0,0,1,1.8-10.8A66.2,66.2,0,0,1,90,436.7a7.3,7.3,0,0,1,1.2-2.3,3.4,3.4,0,0,1,1.6-1.3l1.7-.7c.7-.3,1,0,1.1,1.7C95.7,446.5,94.5,458.7,94.5,471Z" transform="translate(-0.4 -0.3)" style="fill: #fe22b8"/>
      <path id="Vector_18" data-name="Vector 18" d="M114.2,472a1.6,1.6,0,0,1-.2,1c-.1.2-.6.3-1.1.3h-4.2a62.5,62.5,0,0,0-1.2-9.8c-.9-4.3-1.6-6.2-2.3-9a5.9,5.9,0,0,0-1-2.1,1.9,1.9,0,0,0-1.8-.8,4.2,4.2,0,0,0-2.5,2.1,9,9,0,0,0-1.1,3.4c-.2,1.1.1,1.6.8,1.9a2.8,2.8,0,0,0,2,.4,5.2,5.2,0,0,0,2.4-1.1c1,1.8,1.4,4.9,1.4,8.9a37.8,37.8,0,0,1-.3,5.1c-.2.7-.7,1-1.7,1H98.1a3.3,3.3,0,0,1-1.4-.2c-.3-.1-.4-.5-.4-1.1,0-13,1-25.9.9-38.9a5.1,5.1,0,0,1,.2-1.6,1.8,1.8,0,0,1,.9-.8l3.7-1.8c.1.7.4,2.1.8,4.8s.9,5.9,1.6,9.2a30,30,0,0,0,2,6.9c.7,1.4,1.6,1.9,2.6,1.7a3.3,3.3,0,0,0,2.1-2.1,9.9,9.9,0,0,0,1-4.7,12.6,12.6,0,0,0-1.1-4.8c-.7-1.3-1.4-1.7-2.1-1.5s-2.1,1.8-2.6,4.2a55.9,55.9,0,0,1-.8-7.4,28.5,28.5,0,0,1,.1-6.9,2.4,2.4,0,0,1,1.4-1.8l3.9-1.9c.7-.3,1.1-.4,1.3-.2a5,5,0,0,1,.7,2.4C114.7,442,114.2,456.9,114.2,472Z" transform="translate(-0.4 -0.3)" style="fill: #fe22b8"/>
      <path id="Vector_19" data-name="Vector 19" d="M126.3,471.5c0,.9-.1,1.4-.3,1.6a4.2,4.2,0,0,1-1.6.2h-6.3a4.9,4.9,0,0,1-1.7-.2,2.4,2.4,0,0,1-.3-1.5c0-6.6,0-13.1.3-19.7a10.6,10.6,0,0,0,5.1-2.5q2.9-2.4,2.4-7.5a14.1,14.1,0,0,0-1.4-5.5c-.7-1.3-1.5-1.8-2.3-1.5s-1.5,1.1-1.9,2.7a17.2,17.2,0,0,0-.4,5.2,8.1,8.1,0,0,0,.3,2.5c-.4.3-.9.1-1.3-.5a5.9,5.9,0,0,1-.9-3.3c-.1-.7-.1-1.8-.2-3.2a25.9,25.9,0,0,0-.3-4.4c-.3-3.5-.6-5.2-1-7.9a4.3,4.3,0,0,1-.1-2.5,2,2,0,0,1,1.1-1.1l4.7-2.2c.7-.3,1.1-.3,1.5,0a5.8,5.8,0,0,1,1.1,2.5C126.1,439.1,126.3,455,126.3,471.5Z" transform="translate(-0.4 -0.3)" style="fill: #fe22b8"/>
      <path id="Vector_20" data-name="Vector 20" d="M139.1,416.4a133.1,133.1,0,0,1,7.4,43.6l-.8-.2a3.1,3.1,0,0,1-1.6-1.6c-2.8-4.4-3.4-7.9-4.3-12.9a2,2,0,0,0,1.7.5c.7-.1,1.3-.9,1.7-2.4a16.8,16.8,0,0,0,0-5.5,19.5,19.5,0,0,0-2-5.9c-.9-1.6-1.8-2.3-2.6-2.1s-1.4,1.2-1.6,3a23.9,23.9,0,0,0,.2,5.9c1,6.3,1.6,12.7,3.4,18.9a64.5,64.5,0,0,0,3.6,9.4c1.5,3.3,2.2,4.8,2.2,5.3s-.5.9-1.4.9H129.9c-1,0-1.5-.3-1.5-.8s.8-1.9,2.3-5a55.6,55.6,0,0,0,3.6-9.1c1.9-6.6,1.6-12.4.8-19.1a16.9,16.9,0,0,0-1.8-5.5c-.8-1.6-1.6-2.3-2.5-2s-1.3,1.2-1.7,2.8a19.1,19.1,0,0,0-.1,5.9,15.8,15.8,0,0,0,1.3,5c.7,1.2,1.5,1.8,2.5,1.6a2,2,0,0,0,1.3-.9c0,5.5-.3,8.6-3.3,13.3a4.1,4.1,0,0,1-2.7,2.1c0-13.6-1-26.7-4.1-40.1-.6-2-.6-2.8.1-3.1a74.3,74.3,0,0,1,12.7-4.6C137.4,413.7,138.2,414.3,139.1,416.4Z" transform="translate(-0.4 -0.3)" style="fill: #fe22b8"/>
      <path id="Vector_21" data-name="Vector 21" d="M163.2,468.5c0,2.4-.4,3.6-1.2,4.2a6.5,6.5,0,0,1-3.5.6h-5.8c-3,0-4.5-.8-4.5-4.2v-3.5c0-4.7,1.2-7.3,3.6-7.5a2.6,2.6,0,0,1,1.8.7,2.6,2.6,0,0,0-.1.7,7.1,7.1,0,0,0,.9,3.8,2.6,2.6,0,0,0,2.2,1.4c.8,0,1.4-.5,1.9-1.6a7.2,7.2,0,0,0,.8-3.5c0-2.2-.6-3.6-1.8-4.5a5.4,5.4,0,0,0-3.6-.9,7.5,7.5,0,0,0-5.7,3.7,124.4,124.4,0,0,0-7.5-41.2c-1.1-2.6-1.2-3.5-.3-3.7a35.4,35.4,0,0,1,4.5-.8,63,63,0,0,1,2.4,8.3c1,4,1.8,7.9,2.5,11.1a77.9,77.9,0,0,0,2.6,8.9c1.1,2.9,2.1,4,3.2,3.9s1.4-.7,1.8-2.1a14.9,14.9,0,0,0-.3-5.8,22.7,22.7,0,0,0-2.2-6.2c-1.1-1.9-1.9-2.7-2.7-2.7l-.4.3c-.9-2.3-1.9-5.1-3-8.1-2.2-6.2-2.9-7.7-1.6-7.9l4.5-.2c.6,0,1.6.7,2.8,3C161.7,432.8,163.2,449.6,163.2,468.5Z" transform="translate(-0.4 -0.3)" style="fill: #fe22b8"/>
    </g>
    <g id="exit">
      <path id="Vector_22" data-name="Vector 22" d="M220.1,385.2a6.9,6.9,0,0,1-.5,3.2,3.5,3.5,0,0,1-2.4,2.2c-.1.1-.2.1-.2.2l.2.2c1.1.3,2,.6,2.4,1.4a6,6,0,0,1,.5,3.1c-.1,2.3-.2,3.7-.3,6.1s-.4,2.9-1.1,3.3-1.7.4-3.2.1a36.5,36.5,0,0,0-8-1,2.9,2.9,0,0,1-1.2-.2,1.2,1.2,0,0,1-.5-1.1V380a1.3,1.3,0,0,1,.5-1.1h8.8c2.2.1,3.6.8,4.4,2A10.5,10.5,0,0,1,220.1,385.2Zm-5.3,11.6a3.1,3.1,0,0,0-.6-1.9,2.6,2.6,0,0,0-1.9-.8,1.9,1.9,0,0,0-1,.3,5.2,5.2,0,0,1-1-3.1,4,4,0,0,1,1-3l1,.2a2.8,2.8,0,0,0,1.9-.7,2,2,0,0,0,.7-1.6,2.6,2.6,0,0,0-.7-1.6,2.6,2.6,0,0,0-1.9-.7c-1.5-.1-2.4.9-2.8,2.7a22.2,22.2,0,0,0-.3,4.4,43.4,43.4,0,0,0,.2,4.8c.4,2.2,1.4,3.4,2.9,3.5a1.8,1.8,0,0,0,1.7-.6A2.7,2.7,0,0,0,214.8,396.8Z" transform="translate(-0.4 -0.3)" style="fill: #fe2b4c"/>
      <path id="Vector_23" data-name="Vector 23" d="M232.8,408.5c0,1.2-.1,1.7-.3,1.9s-.8.1-1.7-.3c-2.9-1.2-4.4-1.8-7.4-2.8a6.2,6.2,0,0,1-1.9-1c-.4-.3-.5-.9-.5-1.9.4-7.9.5-15.7.5-23.6,0-.8.1-1.2.3-1.4a3.2,3.2,0,0,1,1.6-.2l8.8.4a2.1,2.1,0,0,1,1.1.4,1.4,1.4,0,0,1,.5,1c0,1.2-.9,2.5-2.5,4.1l-4.5,4.6a12.2,12.2,0,0,0-2.7,7.6,5.6,5.6,0,0,0,.6,3,2.3,2.3,0,0,0,1.7,1.4,1.6,1.6,0,0,0,1.8-.6,5.4,5.4,0,0,0,.9-2.6,4.2,4.2,0,0,0-.4-2.8,1.9,1.9,0,0,0-1.6-1.2v-1.4a4.2,4.2,0,0,1,.8-3,3,3,0,0,1,2.8-1.4,3.6,3.6,0,0,1,2.4.8,2.8,2.8,0,0,1,1,2C233.9,397.2,233.2,402.9,232.8,408.5Z" transform="translate(-0.4 -0.3)" style="fill: #fe2b4c"/>
      <path id="Vector_24" data-name="Vector 24" d="M246.2,415.1c-.1,1.3-.2,1.7-.5,1.7s-.6-.1-1.2-.3l-2.9-1.4c1.3-4.9,1.7-9.9,2.3-14.8.8-7-.1-8.5-2-8.5a2.5,2.5,0,0,0-1.9.8,4.1,4.1,0,0,0-1,2.6,7.2,7.2,0,0,0,.5,3.3c.4,1,1,1.6,1.7,1.7a.8.8,0,0,0,.8-.2,49.1,49.1,0,0,1-.2,8.4,28,28,0,0,1-.8,5c-.3.7-.8.8-1.5.6l-2-.8c-2.5-1.2-3.9-2.5-3.5-7.2s.5-6.6.9-10.3,1-4.7,2.6-5.5l4.5-1.5c1.6-.5,2.5-1.2,2.5-2.2a1.5,1.5,0,0,0-.8-1.4,2.4,2.4,0,0,0-1.8-.7,3.3,3.3,0,0,0-1.9.6,1.8,1.8,0,0,0-.6,2.3,2.5,2.5,0,0,1-2,.9,2.8,2.8,0,0,1-1.6-.5,2,2,0,0,1-.6-1.4v-3.6c0-2,1.3-2.9,3.7-2.8s3.5.1,5.9,0,3.7,1,3.7,3C248.5,393.7,247.3,404.3,246.2,415.1Z" transform="translate(-0.4 -0.3)" style="fill: #fe2b4c"/>
      <path id="Vector_25" data-name="Vector 25" d="M263.4,386.2a3.5,3.5,0,0,1-1.1,2.6,3.3,3.3,0,0,1-2.7,1.1,3.8,3.8,0,0,1-3.2-1.3,2.3,2.3,0,0,0,1.8-.7,1.8,1.8,0,0,0,.8-1.6,1.7,1.7,0,0,0-.8-1.5,1.8,1.8,0,0,0-1.7-.6,3.1,3.1,0,0,0-2.7,1.5,4.2,4.2,0,0,0-.9,2.7c0,1.7.7,2.7,1.9,4.7s2.4,3.5,3.9,3.5a5.1,5.1,0,0,0,4.3-2.4c-.7,6.9-1.6,13.7-2.4,20.6s-2.1,7.4-4.7,6.5l-4.7-1.8c-2.6-1.1-4-2.4-3.4-8.4a250.1,250.1,0,0,0,2.1-28.6c0-1.8,1.3-2.7,3.9-2.9a56.7,56.7,0,0,0,5.8-.5c2.4-.2,3.8.5,3.7,2.5S263.4,384.4,263.4,386.2Z" transform="translate(-0.4 -0.3)" style="fill: #fe2b4c"/>
      <path id="Vector_26" data-name="Vector 26" d="M278.4,405c-.5,6.8-1.1,13.5-1.5,20.2a4.8,4.8,0,0,1-.2,1.8c-.2.3-.5.3-1.1.1l-4.5-1.2c.9-7,1.4-13.9,2-20.8.4-4.3.4-7.2,0-9s-1.1-2.4-2-2.5-1.4.4-2,1.5a10.6,10.6,0,0,0-1.2,4.4,17.1,17.1,0,0,0,.3,5.7c.4,1.5,1,2.3,1.6,2.4h.4c.1,2.2-.1,5-.3,8.1s-.6,5.1-.9,6.7-1.4,2.4-2.5,2.1l-3.4-1a2.9,2.9,0,0,1-1.4-.7c-.2-.3-.3-.7-.2-2,1.5-13.7,3.2-27.4,3.5-41.3a1.3,1.3,0,0,1,.3-1,4.9,4.9,0,0,1,1.4-.4l4.3-.7c1.1-.2,1.6.1,1.8,1a8.1,8.1,0,0,1-.6,4.3h-.5a3,3,0,0,0-1.9,1,2.6,2.6,0,0,0-.9,1.9,2.3,2.3,0,0,0,.7,1.8,2.5,2.5,0,0,0,1.9.7,2.8,2.8,0,0,0,2.2-1.2,5.8,5.8,0,0,0,1.1-3.5,20.3,20.3,0,0,0-.4-6.7l5.1-1.1c.7-.2,1,.2.9,1.1s-.3,4-.5,6.9-1.7,6.1-4.2,6.9c-.1.1-.2.1-.2.2s0,.2.1.2C280.2,393.8,278.5,400.7,278.4,405Z" transform="translate(-0.4 -0.3)" style="fill: #fe2b4c"/>
      <path id="Vector_27" data-name="Vector 27" d="M287.2,427.4c-.1,1.6-.1,2.2-.4,2.4s-.6.1-1.4-.1l-5.4-1.4c-.8-.2-1.3-.4-1.4-.7s-.3-.8-.2-2.4c.6-12.2,1.3-24.3,2.3-36.4a12.9,12.9,0,0,0,4.2-1,4,4,0,0,0,2.6-3.6,4,4,0,0,0-.6-2.6,1.7,1.7,0,0,0-1.7-.8,2.6,2.6,0,0,0-1.9,1.2,4.1,4.1,0,0,0-.8,2.4,2.4,2.4,0,0,0,.1,1.2,1.1,1.1,0,0,1-1.1-.3,1.6,1.6,0,0,1-.5-1.6c0-.3.1-.8.1-1.4a19.1,19.1,0,0,0,.2-2c.2-1.6.2-2.3.4-3.7a1.8,1.8,0,0,1,.5-1.4,3.2,3.2,0,0,1,1.3-.5l4.7-1.1a2.6,2.6,0,0,1,1.3,0,2.5,2.5,0,0,1,.1,1.4C288.4,392.5,287.9,410,287.2,427.4Z" transform="translate(-0.4 -0.3)" style="fill: #fe2b4c"/>
      <path id="Vector_28" data-name="Vector 28" d="M305.4,371.8c-.3,11.8-.4,23.6-.4,35.4a.8.8,0,0,1-.7-.4,11.1,11.1,0,0,1-1.4-3.9c-1-5-3.2-10.8-2.8-16.1.2.3.7.4,1.3.4s1.2-.4,1.7-1.3a8.2,8.2,0,0,0,.8-2.9,6.3,6.3,0,0,0-.7-3.2,1.7,1.7,0,0,0-1.8-1.1,2.9,2.9,0,0,0-1.9,1.5,9.5,9.5,0,0,0-.8,3c-.2,6,.7,12,1.3,17.9s1.6,14.1,2.7,21.1,2,9.5,2,10.2-.5,1.1-1.3.9c-5.2-.8-7.9-1.3-13.2-2.5-.9-.2-1.3-.5-1.3-1.4s.8-2.7,2.3-9.1,2.6-12.9,3.5-19.4,2-11.7,2.2-17.5a6.1,6.1,0,0,0-.6-2.8,1.8,1.8,0,0,0-1.8-1.1,2.7,2.7,0,0,0-1.8,1.4,4.7,4.7,0,0,0-.9,2.8,4.2,4.2,0,0,0,.5,2.6,1.8,1.8,0,0,0,1.8,1.1,1.6,1.6,0,0,0,1.1-.4c-.2,5-2.2,10.3-3.4,15.2-.7,2.6-1.5,3.9-2.4,3.8.4-10.5.8-21.1,1.6-31.6,0-1,.4-1.5,1-1.7,5-1.1,7.5-1.6,12.5-2.3C305.1,370.3,305.5,370.7,305.4,371.8Z" transform="translate(-0.4 -0.3)" style="fill: #fe2b4c"/>
      <path id="Vector_29" data-name="Vector 29" d="M320.2,426.9c0,4.7-.3,6.5-1.2,7.2s-1.7.7-3.2.6a50.9,50.9,0,0,1-5.4-.4c-2.7-.2-4.1-.8-4.1-7.4v-7.1c.1-4.5-.3-14.4,3.2-15.4.3-.1,1.1.6,1.5,1.7v1.6a29.9,29.9,0,0,0,.8,8c.5,2.1,1.2,3.1,2,3.2s1.3-1.1,1.8-3.2a42.2,42.2,0,0,0,.6-7.5c-.1-4.4-.6-7.4-1.8-9.2s-1.9-2.1-3.1-2.1-3.6,1.7-5,6.5c0-10.5.1-20.9.3-31.3.1-1.4.5-1.9,1.4-2l4.3-.5a17.1,17.1,0,0,0-1.1,4.4,45.4,45.4,0,0,0-.6,5.9,17.3,17.3,0,0,0,.6,4.9c.5,1.6,1.3,2.4,2.2,2.4a2.1,2.1,0,0,0,1.9-1.3,6.2,6.2,0,0,0,.8-3.3,7.7,7.7,0,0,0-.8-3.4c-.4-1-1-1.4-1.7-1.4a.6.6,0,0,0-.5.2,20,20,0,0,1-.4-4.4c0-3.2.7-4.1,1.8-4.1l4.4-.2c.6,0,.9.3.9,1.6C319.8,389.5,320,408.2,320.2,426.9Z" transform="translate(-0.4 -0.3)" style="fill: #fe2b4c"/>
    </g>
    <g id="exit_2" data-name="exit 2">
      <path id="Vector_30" data-name="Vector 30" d="M232,431.2a65.5,65.5,0,0,1,1.3,10.8c-.1,3.3-1.1,5-2.7,5.6s-.2.2-.2.4l.3.4a11.1,11.1,0,0,1,4.1,3.4,14.4,14.4,0,0,1,1.4,5c.5,3.6.7,5.7,1.1,9.3s-.1,4.7-1,5.7-2.5,1.5-4.7,1.5H220.3a3.6,3.6,0,0,1-1.8-.3c-.3-.2-.6-.7-.6-1.7-1.6-21.2-8.6-41.5-12.5-62.4-.2-1.1.1-1.7.5-1.9a3.1,3.1,0,0,1,1.8-.1c4.5.4,7.1,1.2,12.6,3.2,3.9,1.5,6.7,3.4,8.4,6.9S231.2,426.5,232,431.2Zm-3.1,27.4a8.2,8.2,0,0,0-1.6-3.7,4.4,4.4,0,0,0-2.9-1.7,2.2,2.2,0,0,0-1.4.2,12,12,0,0,1-2.5-6,27.2,27.2,0,0,1-.6-8.8,4,4,0,0,0,1.8,1c1,.2,1.8-.5,2.2-1.9a12.2,12.2,0,0,0-.1-5.7,20.3,20.3,0,0,0-2.5-6.3q-1.8-2.8-3.6-3.3c-2.4-.6-3.1,2.6-2,9.6.8,4.9,1.9,9.7,2.9,14.5,1.4,6.3,1.5,7.8,2,9.5,1.4,4.8,3.1,7.4,5.3,7.6a2.5,2.5,0,0,0,2.3-1.4A4.8,4.8,0,0,0,228.9,458.6Z" transform="translate(-0.4 -0.3)" style="fill: #fe2b4c"/>
      <path id="Vector_31" data-name="Vector 31" d="M257.1,470.4a3.7,3.7,0,0,1-.4,2.2,3.3,3.3,0,0,1-2.5.7h-11c-1.5,0-2.4-.1-2.9-.5s-.7-1.2-.8-2.8c-1.2-17.4-4.9-34.4-7.1-51.7-.2-1.7,0-2.3.4-2.5s1.4.2,3,.9c5.5,2.6,11.1,5.3,16.7,7.7a6.2,6.2,0,0,1,2,1.5,3.7,3.7,0,0,1,.8,2.1c0,2.4-1.4,5.5-3.9,9.4s-4.2,7.6-6.2,11.5-3,6.9-2.6,11.1a6.5,6.5,0,0,0,1.4,3.6,3.9,3.9,0,0,0,2.8,1.6,3.1,3.1,0,0,0,3.5-3.5,5.3,5.3,0,0,0-1.2-3,4.2,4.2,0,0,0-2.7-1.6c-.1-.6-.1-1.2-.2-1.8a11.5,11.5,0,0,1,.8-5c.7-2,2.2-3,4.2-2.4a6.1,6.1,0,0,1,3.8,3,7.7,7.7,0,0,1,1.6,4.2C256.8,460.2,257,465.3,257.1,470.4Z" transform="translate(-0.4 -0.3)" style="fill: #fe2b4c"/>
      <path id="Vector_32" data-name="Vector 32" d="M277.2,471.1c0,1.1-.2,1.7-.6,1.9a3.9,3.9,0,0,1-1.8.3h-4.4a32,32,0,0,0,1.4-10.5c0-4.2-1.3-6.2-3.8-6.3a4.5,4.5,0,0,0-2.6.8,2.5,2.5,0,0,0-1.1,2.2,3.1,3.1,0,0,0,1.1,2.5,4.1,4.1,0,0,0,2.7,1,1.8,1.8,0,0,0,1-.2,12.1,12.1,0,0,1,.9,5,10.2,10.2,0,0,1-.5,3.9,2.7,2.7,0,0,1-2.2,1.5h-3c-3.8,0-5.7-1.6-5.8-5.5s-.2-5-.3-8.2a6.5,6.5,0,0,1,3.5-6.3c.5-.2,2.7-.9,6.6-2.6a5.5,5.5,0,0,0,3.5-5.2,8,8,0,0,0-.9-3.9,3.3,3.3,0,0,0-2.5-1.9,3.2,3.2,0,0,0-2.8,1.1,5.7,5.7,0,0,0-1.2,3.7,7.5,7.5,0,0,0,.2,2.3c-.8,1.6-1.8,2.2-3,1.9a3.6,3.6,0,0,1-2.4-1.9,7.7,7.7,0,0,1-1.1-4c-.1-4.2-.1-6.5-.1-10.2s2.3-5,6.1-3.9a49.4,49.4,0,0,0,8.6,1.6c3.4.6,5.1,2.3,5,6.9C277.4,448.6,277.2,459.8,277.2,471.1Z" transform="translate(-0.4 -0.3)" style="fill: #fe2b4c"/>
      <path id="Vector_33" data-name="Vector 33" d="M297.9,447.9a6.1,6.1,0,0,1-1.5,4.3,4.8,4.8,0,0,1-3.8,1.6,4.7,4.7,0,0,1-4.4-2.6,3.2,3.2,0,0,0,2.6-1,4.4,4.4,0,0,0,1.1-3,5.4,5.4,0,0,0-.9-3.2,3.2,3.2,0,0,0-2.3-1.7c-1.7-.3-3,.5-3.9,2.5a12.7,12.7,0,0,0-1.3,5.8c-.1,3.5.8,5.4,2.7,7.1a8.8,8.8,0,0,0,5.9,2.2,9.2,9.2,0,0,0,5.7-1.6v9.8c0,3.4-1.9,5.2-5.7,5.2H285c-3.9,0-5.8-1.7-5.8-5.2,0-10.5.2-21,.5-31.5.1-3.8,1.9-4.6,5.3-3.9l8.1,1.9c3.3.7,5,2.3,4.9,5.5S298,444.8,297.9,447.9Z" transform="translate(-0.4 -0.3)" style="fill: #fe2b4c"/>
      <path id="Vector_34" data-name="Vector 34" d="M319.8,462.9v8.5a4.9,4.9,0,0,1-.2,1.5,1.8,1.8,0,0,1-1.4.5h-5.8c.2-1.9.4-5.3.4-10.2a6.2,6.2,0,0,0-1.1-3.9,3.5,3.5,0,0,0-3-1.4,4.1,4.1,0,0,0-2.6.9,3,3,0,0,0-1.1,2.3,2.9,2.9,0,0,0,1.2,2.4,3.7,3.7,0,0,0,2.4.8h.6a7.6,7.6,0,0,1,.5,3.3,12.2,12.2,0,0,1-.4,3.4,2.9,2.9,0,0,1-3,2.3h-4.4a3.6,3.6,0,0,1-1.9-.3c-.3-.2-.4-.8-.4-1.7,0-11.2.1-22.5.2-33.7,0-.7.2-1.2.4-1.3h1.6l5.4.9a2.5,2.5,0,0,1,2.3,2,9.3,9.3,0,0,1-.4,5.5h-.6a3.1,3.1,0,0,0-2.6.8,3.7,3.7,0,0,0-1,2.5,4.1,4.1,0,0,0,1,2.7,3.6,3.6,0,0,0,2.7,1,3.4,3.4,0,0,0,2.8-1.4,5.9,5.9,0,0,0,1.2-3.9,29.3,29.3,0,0,0-1.3-8.6,51.7,51.7,0,0,0,6.8.4c1,0,1.5.6,1.5,1.7v7.3c0,3.9-1.8,6.5-5.1,7.6-.2,0-.3.1-.3.2l.3.3C318.1,456.3,319.8,458.9,319.8,462.9Z" transform="translate(-0.4 -0.3)" style="fill: #fe2b4c"/>
    </g>
    <g id="lol">
      <path id="Vector_35" data-name="Vector 35" d="M179.4,471.2a2.2,2.2,0,0,1-.4,1.6,2.2,2.2,0,0,1-1.8.6h-8.3a4.7,4.7,0,0,1-2.2-.4,2.6,2.6,0,0,1-.5-1.8c.3-7.5-1.3-14.9-1-22.5,0-.7.1-1.2.4-1.4s.7-.3,1.6-.3h9.6a1.9,1.9,0,0,1,1.3.5,1.5,1.5,0,0,1,.6,1.1c0,1.3-.9,2.8-2.8,4.7l-4.8,5.2a12.1,12.1,0,0,0-1.9,7.4,2.2,2.2,0,0,0,.8,1.9,2.9,2.9,0,0,0,1.9.6,3.2,3.2,0,0,0,1.9-.7,2.1,2.1,0,0,0,.8-1.6,2.4,2.4,0,0,0-.7-1.7,2.7,2.7,0,0,0-1.9-.8,4.9,4.9,0,0,1-.1-1.2,6.2,6.2,0,0,1,.5-3.5,3.2,3.2,0,0,1,3-1.6,3.5,3.5,0,0,1,2.6,1,2.9,2.9,0,0,1,1.2,2.2C179.5,465.2,179.4,467,179.4,471.2Z" transform="translate(-0.4 -0.3)" style="fill: #04aadc"/>
      <path id="Vector_36" data-name="Vector 36" d="M197.1,469.8c0,2.3-2.2,3.5-5.6,3.5h-6.2c-3.1,0-4.7-1.2-4.6-3.4,0-6.4-.3-12.7-.3-19q0-3.9,4.8-3.9H191c3.2,0,5,1.5,5.2,4.1C196.4,457.3,196.8,463.6,197.1,469.8Zm-6-4.2a2.2,2.2,0,0,0-.9-1.7,3.1,3.1,0,0,0-2-.7,13.8,13.8,0,0,1,1.5-4.5,9.5,9.5,0,0,0,1.3-4,2.4,2.4,0,0,0-.8-1.8,2.7,2.7,0,0,0-1.9-.8,2.8,2.8,0,0,0-2,.8,2.2,2.2,0,0,0-.9,1.7,2.3,2.3,0,0,0,1.1,1.9,3.1,3.1,0,0,0,2.1.6,11.8,11.8,0,0,1-1.7,4.4,9.4,9.4,0,0,0-1.3,4.1,2.1,2.1,0,0,0,.8,1.7,2.6,2.6,0,0,0,1.9.7,3.1,3.1,0,0,0,2-.7A2,2,0,0,0,191.1,465.6Z" transform="translate(-0.4 -0.3)" style="fill: #04aadc"/>
      <path id="Vector_37" data-name="Vector 37" d="M215.8,471.1c.1.9,0,1.4-.3,1.7s-.9.6-2,.6H202.8a8.8,8.8,0,0,1-3-.4c-.5-.3-.7-.9-.8-1.8-.2-7.4-.9-14.9-1.3-22.2a2.6,2.6,0,0,1,.2-1.7c.2-.2.7-.3,1.6-.3h9.7a2.2,2.2,0,0,1,1.4.6,2.9,2.9,0,0,1,.8,1.4c.4,1.6-.1,3.2-1.7,4.8s-4.6,4.5-4.7,4.7a9.1,9.1,0,0,0-2.3,6.9,2.8,2.8,0,0,0,1.2,2,4.8,4.8,0,0,0,2.6.7,3.6,3.6,0,0,0,2.4-.7,1.7,1.7,0,0,0,.8-1.7,2.5,2.5,0,0,0-1.2-1.7,3.5,3.5,0,0,0-2.3-.7,5,5,0,0,1-.2-1.2,4.2,4.2,0,0,1,.5-3.2,3.6,3.6,0,0,1,3.2-1.4,5.1,5.1,0,0,1,2.8.8,3.7,3.7,0,0,1,1.5,2.2A61.8,61.8,0,0,1,215.8,471.1Z" transform="translate(-0.4 -0.3)" style="fill: #04aadc"/>
    </g>
    <g id="home">
      <path id="Vector_38" data-name="Vector 38" d="M164.5,338.8a2.4,2.4,0,0,1-.3,1.4,1.7,1.7,0,0,1-1.6.4l-8.1-.2c1.7-4.5,2.5-5.7,2.5-6.8a3.1,3.1,0,0,0-1.1-2.2,5.8,5.8,0,0,0-4-1.4,8.1,8.1,0,0,0-3.3.7c-.9.4-1.4,1-1.4,1.5s.4,1,1.3,1.4a7.9,7.9,0,0,0,3.2.6h.8a3.2,3.2,0,0,1,.7,2.2c0,2.1-1,3.9-2.9,3.9h-7.7a5.7,5.7,0,0,1-2.4-.4,3.8,3.8,0,0,1-.4-1.9V301.7c0-1,.1-1.6.4-1.9s.9-.4,1.9-.3l8.3.2a30.6,30.6,0,0,0-3,12.5,11,11,0,0,0,1.2,5.9,4.2,4.2,0,0,0,3.8,2.4,4.5,4.5,0,0,0,3.4-1.4,5.3,5.3,0,0,0,1.4-3.7,5.2,5.2,0,0,0-1.5-4.1,4,4,0,0,0-3.7-1.2,17,17,0,0,1-.7-5.1c.1-3.9,1.2-5.3,3.1-5.3h8.4c1.1,0,1.8.1,2,.4a5.1,5.1,0,0,1,.3,2.2C164.8,314.5,164.5,326.6,164.5,338.8Z" transform="translate(-0.4 -0.3)" style="fill: #fe2b4c"/>
      <path id="Vector_39" data-name="Vector 39" d="M192.1,337.9c0,2.9-2.5,4.7-7.5,4.2l-9.9-.8c-5.2-.4-7.7-2.6-7.7-5,0-9.7.2-19.5.5-29.3.1-5.5,2.7-7.4,7.7-7.5l9.5-.6c5.1-.4,7.6,1.2,7.6,6.9C192.2,316.5,192.2,327.2,192.1,337.9Zm-7.9-4.9a2.2,2.2,0,0,0-1.4-1.9,5.6,5.6,0,0,0-3.1-.9c.2-1.3,1-3.2,2.5-6.7a22.8,22.8,0,0,0,2.1-8.4,6.8,6.8,0,0,0-1.2-4,4.1,4.1,0,0,0-3.2-1.5,4.5,4.5,0,0,0-3.2,1.7,5.9,5.9,0,0,0-1.4,4,5,5,0,0,0,1.5,4,4.1,4.1,0,0,0,3.6,1.1,18,18,0,0,1-3,7.8c-1.6,2.2-2.4,3.5-2.4,4.5s.5,1.2,1.4,1.7a7.1,7.1,0,0,0,3.2.9,7.9,7.9,0,0,0,3.2-.6C183.7,334.2,184.2,333.7,184.2,333Z" transform="translate(-0.4 -0.3)" style="fill: #fe2b4c"/>
      <path id="Vector_40" data-name="Vector 40" d="M230.3,345.1c0,1.3-.8,1.9-2.2,1.7L219,346a3.2,3.2,0,0,1-3-2.5,32,32,0,0,1-1.6-9.5c-.1-5.3,2.4-10.5,4.4-15.3a3.4,3.4,0,0,0,2.3.8,4.1,4.1,0,0,0,3.1-1.8A9.2,9.2,0,0,0,226,312a8.6,8.6,0,0,0-1.1-5.1,2.8,2.8,0,0,0-3.1-1.6c-2.5.4-4.6,4.1-6.2,10.1q-1.7,6.6-2.1,9.6c-.2,1.7-.5,2.4-.9,2.4s-.7-.7-.7-2.3a73.3,73.3,0,0,0-1-9.5c-1-5.5-2.8-8.2-5.6-7.8a5.6,5.6,0,0,0-3.6,2.2,6,6,0,0,0-1.6,4.2,5.6,5.6,0,0,0,1.5,4.3,4.5,4.5,0,0,0,3.2,1.5,4,4,0,0,0,2.5-.9c1.5,4.8,3.4,9.7,3.4,14.8a20.7,20.7,0,0,1-1.6,8.9,2.4,2.4,0,0,1-2.8,1.7l-9-1.1c-1.7-.2-2.5-1-2.5-2.2V302c0-1.9.2-3,.6-3.5s1.4-.9,3-1.1c3.8-.5,5.7-.8,9.2-1.5s4,0,4.7,2,.6,1.6,1,2.9a10.8,10.8,0,0,0,.8,2,7.3,7.3,0,0,0,1-2.4c.5-1.5.8-2.2,1.3-3.5s2.7-3.5,5.1-4.2l7-2c1.4-.5,2.4-.6,2.8-.2s.6,1.4.5,3.8C230.9,311.4,230.3,328.2,230.3,345.1Z" transform="translate(-0.4 -0.3)" style="fill: #fe2b4c"/>
      <path id="Vector_41" data-name="Vector 41" d="M256.6,290.9v18.2a19,19,0,0,1-1.6,8.5c-1.1,2.1-2.4,2.9-4,3s-3.2-.8-4-3c1.6-1.5,2.5-4.3,2.5-8.4a13.9,13.9,0,0,0-1.3-6.5c-.9-1.6-1.9-2.3-3.1-2s-2.3,1.3-3.2,3.2a16.7,16.7,0,0,0-1.4,6.8,20.5,20.5,0,0,0,1.4,8.4,8.5,8.5,0,0,0,3.8,4.4c2,1,5.2,1.6,9.8,1.7v1.6l-4.4.3a23.1,23.1,0,0,0-5.4,1.2c-3.6,1.6-5.5,3.9-5.5,6.7a3.9,3.9,0,0,0,1.4,3,5.5,5.5,0,0,0,3.2,1.2,4.7,4.7,0,0,0,3.3-1.1,3.5,3.5,0,0,0,1.3-2.7,3.9,3.9,0,0,0-2.6-3.8,5.3,5.3,0,0,1,4.1-1.6,5.7,5.7,0,0,1,4,1.5,5.1,5.1,0,0,1,1.7,3.9V343c0,3.5-2.2,5.3-6.5,5.2l-14-.6c-1.9-.2-3-.7-3.2-1.6a5.4,5.4,0,0,1-.2-1.5c.1-17.2.6-34.4,1.3-51.5a7.1,7.1,0,0,1,.3-2.7,2.5,2.5,0,0,1,1.5-1.7l1.5-.6,13.1-4.2C254.5,282.4,256.6,283,256.6,290.9Z" transform="translate(-0.4 -0.3)" style="fill: #fe2b4c"/>
    </g>
    <g id="competitive">
      <path id="Vector_42" data-name="Vector 42" d="M174.4,352.3a4.9,4.9,0,0,1-1.6,3,4.1,4.1,0,0,1-2.8,1.1,3.1,3.1,0,0,1-2.9-1.7,2.9,2.9,0,0,0,1.9-.8,3.6,3.6,0,0,0,1-4.1,1.7,1.7,0,0,0-1.4-1,4.4,4.4,0,0,0-3.3,1.8,7.6,7.6,0,0,0-1.5,3.7,4.6,4.6,0,0,0,1.8,4.8,7.6,7.6,0,0,0,4.5,2,5.4,5.4,0,0,0,3.8-1.3,41,41,0,0,0,2.6,9.3c1.2,3.3.6,4.3-1.9,4.2h-4.9c-2.6-.1-4.7-1.1-6.1-4.4-3-8.5-3.4-14.1-.2-22.5,1.3-2.4,3.6-3.2,6-3.2l5.6.3c2.3.1,2.5,1.1,1.4,3.4A16.6,16.6,0,0,0,174.4,352.3Z" transform="translate(-0.4 -0.3)" style="fill: #04aadc"/>
      <path id="Vector_43" data-name="Vector 43" d="M191.9,370.6c.9,3,0,3.8-2.7,3.6l-5.3-.4c-2.8-.2-4.8-1.2-5.9-4-2.7-8.3-3.3-13.8-.8-22a6.1,6.1,0,0,1,6.6-3.7l5.2.6c2.8.4,3.3,1.7,2.3,4.4C188.6,356.3,190.1,363.3,191.9,370.6Zm-5.9-5.8a4.8,4.8,0,0,0-1.3-2.3,2.4,2.4,0,0,0-1.9-1,7.7,7.7,0,0,1,1.1-4.6,16.9,16.9,0,0,0,1.8-4.2,3,3,0,0,0-.3-1.9,2,2,0,0,0-1.6-1,3,3,0,0,0-2.2.6,3.2,3.2,0,0,0-1.2,2,2.2,2.2,0,0,0,.5,2.1,2.4,2.4,0,0,0,2,.7c-.3,1.2-1.1,2.5-1.8,4.3a8.8,8.8,0,0,0-.4,5,4.3,4.3,0,0,0,1.4,2.3,3.6,3.6,0,0,0,2.1,1.1,1.9,1.9,0,0,0,1.5-.8A2.9,2.9,0,0,0,186,364.8Z" transform="translate(-0.4 -0.3)" style="fill: #04aadc"/>
      <path id="Vector_44" data-name="Vector 44" d="M213.6,375.2c.2.9-.2,1.1-.9,1.1l-5-.5a2.1,2.1,0,0,1-1.9-1.4,30,30,0,0,1-2.5-8.8c-.6-4.4.2-7,1.9-9.4a2,2,0,0,0,1.3.4,2.7,2.7,0,0,0,1.8-.4,2,2,0,0,0,1.1-1.6,1.7,1.7,0,0,0-.6-1.6,2.3,2.3,0,0,0-1.7-.8c-1.5-.2-2.8.7-3.8,2.7a11.8,11.8,0,0,0-1.1,3.8c-.1.8-.2,1.3-.5,1.3s-.4-.5-.5-1.3a27.6,27.6,0,0,0-.6-4c-.4-2.1-1.2-3.3-2.7-3.4a2.8,2.8,0,0,0-2.1.5,2.3,2.3,0,0,0-1.1,1.6,2,2,0,0,0,.6,1.9,2.5,2.5,0,0,0,1.8.8,2.4,2.4,0,0,0,1.4-.3,33.7,33.7,0,0,1,2.7,9.7,69.4,69.4,0,0,1,.8,8.7,1,1,0,0,1-1.1,1.1l-4.9-.4a2,2,0,0,1-1.8-1.3c-2.5-8.8-4.5-17.3-.7-26a4.3,4.3,0,0,1,1.2-1.7,4.4,4.4,0,0,1,1.8-.2l4.3.6c1.1.2,1.7.8,1.7,1.8a7.1,7.1,0,0,1,.1,1.4,6.6,6.6,0,0,0,.2.9c.1,0,.4-.2.7-.8l1.2-1.2a3,3,0,0,1,3.2-1l3.9.5c.9.1,1.3.3,1.5.6s.1.8-.1,1.6C210.9,358.1,212.5,367.1,213.6,375.2Z" transform="translate(-0.4 -0.3)" style="fill: #04aadc"/>
      <path id="Vector_45" data-name="Vector 45" d="M228.5,352.4a28.9,28.9,0,0,0-.2,5.9,3.5,3.5,0,0,1-.8,2.2,4,4,0,0,1-3.1,1.5,3.9,3.9,0,0,1-2.9-1.7,4.7,4.7,0,0,1-1.3-3.3,4.4,4.4,0,0,0,1.5.5,2.9,2.9,0,0,0,1.9-.6,2.7,2.7,0,0,0,.7-1.4,1.8,1.8,0,0,0-.6-1.3,2.9,2.9,0,0,0-1.9-.7,2.9,2.9,0,0,0-1.8.3,2.2,2.2,0,0,0-1,1.3,7,7,0,0,0,.1,3.8,14.4,14.4,0,0,0,2.6,5.3,37.8,37.8,0,0,0,2.4,3.2,24,24,0,0,1,2.3,2.8,12.6,12.6,0,0,1,2.4,5.6v.3c.1,1-.5,1.3-1.7,1.2l-10.2-.7a2.3,2.3,0,0,1-1.4-.4,2.8,2.8,0,0,1-.5-1.5c-1-8-2.4-16.9-.2-24.8a3.1,3.1,0,0,1,.6-1.3,1.9,1.9,0,0,1,1.4-.2c3.5.4,5.2.7,8.7,1S228.6,350.7,228.5,352.4Z" transform="translate(-0.4 -0.3)" style="fill: #04aadc"/>
      <path id="Vector_46" data-name="Vector 46" d="M242.9,353v3.3a2,2,0,0,1-.9,1.5,3.4,3.4,0,0,1-2.2.7,3.2,3.2,0,0,1-2.3-.7c.9-.4,1.4-.9,1.4-1.7a1.9,1.9,0,0,0-.7-1.2,3.5,3.5,0,0,0-1.8-.5,3.1,3.1,0,0,0-1.9.4,1.4,1.4,0,0,0-.7,1.3,2.6,2.6,0,0,0,.9,1.9,4.5,4.5,0,0,0,2.2,1.3,19.2,19.2,0,0,0,5.4.8v.8l-2.4.2a8.4,8.4,0,0,0-3.1.7,5.5,5.5,0,0,0-3,5.5,4.6,4.6,0,0,0,.8,2.7,2,2,0,0,0,1.8,1.1,2.3,2.3,0,0,0,1.8-.9,5.3,5.3,0,0,0,.7-2.6,3.5,3.5,0,0,0-1.5-3.3,2.7,2.7,0,0,1,2.3-1.3,2.8,2.8,0,0,1,2.2,1.2,5.7,5.7,0,0,1,.9,3.4v6.8c0,2.8-1.2,3.6-3.5,3.5l-7.5-.2c-1,0-1.6-.3-1.8-.8a5.4,5.4,0,0,1-.2-1.1c-.2-8-1-16.3-.1-24.3a5.6,5.6,0,0,1,.2-1,1.1,1.1,0,0,1,1-.5h.9l7.5.4C241.7,350.3,242.9,351.4,242.9,353Z" transform="translate(-0.4 -0.3)" style="fill: #04aadc"/>
      <path id="Vector_47" data-name="Vector 47" d="M258.2,350.7v15.8h-.6a2.4,2.4,0,0,1-1.3-1.3c-2-3.2-2.9-5.7-2.9-7.7h1.2a2.5,2.5,0,0,0,1.6-.6,1.7,1.7,0,0,0,.7-1.3,1.6,1.6,0,0,0-.7-1.3,3.2,3.2,0,0,0-1.8-.4,3.3,3.3,0,0,0-1.8.7,1.4,1.4,0,0,0-.7,1.2,34.9,34.9,0,0,0,1.5,8.9,48.4,48.4,0,0,0,2.8,7.2c1.2,2.4,1.8,3.5,1.8,4s-.4.8-1.2.9a90.6,90.6,0,0,1-11.6.9c-.7,0-1.2-.2-1.2-.6s.6-1.8,1.8-4.5a74.4,74.4,0,0,0,2.7-7.6c1-3.9,1.6-6.5,1.6-9a1.4,1.4,0,0,0-.7-1.2,3.2,3.2,0,0,0-1.8-.5,2.9,2.9,0,0,0-1.7.6,1.5,1.5,0,0,0-.8,1.2,1.8,1.8,0,0,0,.6,1.3,3.6,3.6,0,0,0,1.9.5l1-.2c0,2-.9,4.6-2.7,7.9-.6,1.1-1.3,1.7-2.1,1.7V351.5c0-.7.3-1.1.9-1.1,4.9-.1,7.4-.2,12.4-.7C257.9,349.6,258.2,349.9,258.2,350.7Z" transform="translate(-0.4 -0.3)" style="fill: #04aadc"/>
      <path id="Vector_48" data-name="Vector 48" d="M267.2,373.6a4,4,0,0,1-.2,1.5,3.1,3.1,0,0,1-1.2.4l-4.7.8c-.7.1-1.1.1-1.3-.1a3,3,0,0,1-.2-1.4V357.9a13.8,13.8,0,0,0,3.9-.9c1.5-.5,2.2-1.2,2.2-2.1a1.5,1.5,0,0,0-.7-1.3,2.3,2.3,0,0,0-1.7-.3,3.2,3.2,0,0,0-1.8.6,1.8,1.8,0,0,0-.6,1.3.8.8,0,0,0,.2.6,2,2,0,0,1-1.1-.1c-.4-.2-.6-.4-.6-.8a2.5,2.5,0,0,1,.1-.8v-3.5a1.3,1.3,0,0,1,.4-1,2.2,2.2,0,0,1,1.3-.4l4.5-.5c.6-.1,1-.1,1.2.1s.2.5.2,1C267.2,357.8,267.2,365.7,267.2,373.6Z" transform="translate(-0.4 -0.3)" style="fill: #04aadc"/>
      <path id="Vector_49" data-name="Vector 49" d="M282.8,347.6v15.8h-.7a2.2,2.2,0,0,1-1.3-.9c-1.9-2.6-2.9-4.9-2.9-7.1h1.3a2.4,2.4,0,0,0,1.6-.8,2.1,2.1,0,0,0,.7-1.4,1.6,1.6,0,0,0-.7-1.3,2.4,2.4,0,0,0-1.9-.4,3,3,0,0,0-1.7.8,1.7,1.7,0,0,0-.7,1.4,27.8,27.8,0,0,0,1.5,8.6,32.7,32.7,0,0,0,2.8,5.9c1.1,1.9,1.7,2.9,1.7,3.3s-.4.8-1.2,1l-11.5,2.3c-.8.2-1.2,0-1.2-.5a24.3,24.3,0,0,1,1.7-4.3,65.8,65.8,0,0,0,2.8-7.1,31.8,31.8,0,0,0,1.5-8.9,1.4,1.4,0,0,0-.7-1.3,1.9,1.9,0,0,0-1.7-.4,3,3,0,0,0-1.8.8,1.7,1.7,0,0,0-.7,1.4,1.4,1.4,0,0,0,.6,1.2,2.1,2.1,0,0,0,1.8.4,3.5,3.5,0,0,0,1.1-.3c0,2.2-.9,4.7-2.8,7.9-.6,1-1.2,1.6-2.1,1.7V349.4a1,1,0,0,1,.9-1.2l12.4-1.7C282.5,346.5,282.8,346.8,282.8,347.6Z" transform="translate(-0.4 -0.3)" style="fill: #04aadc"/>
      <path id="Vector_50" data-name="Vector 50" d="M291.8,368.8a1.9,1.9,0,0,1-.3,1.3,2.5,2.5,0,0,1-1.2.4l-4.6,1c-.7.1-1.2.2-1.3.1a1.9,1.9,0,0,1-.3-1.3V355.5a12.5,12.5,0,0,0,3.9-1.1c1.5-.5,2.3-1.4,2.3-2.3a1.7,1.7,0,0,0-.7-1.4,2.2,2.2,0,0,0-1.8-.4,3,3,0,0,0-1.7.8,2,2,0,0,0-.6,1.4,1.9,1.9,0,0,0,.1.8,2.2,2.2,0,0,1-1.1-.2c-.3-.1-.5-.4-.5-.9v-.9a5.7,5.7,0,0,0,.1-1.2v-2.6a1.1,1.1,0,0,1,.4-1,2.7,2.7,0,0,1,1.2-.5l4.5-.6a1.9,1.9,0,0,1,1.2.1,1.4,1.4,0,0,1,.3,1.1C291.8,354,291.8,361.4,291.8,368.8Z" transform="translate(-0.4 -0.3)" style="fill: #04aadc"/>
      <path id="Vector_51" data-name="Vector 51" d="M305.9,361.9c0,4.2-1.4,6.2-4.1,6.6l-4.7.7c-2.7.5-4.1-1-4.1-5.5V346.3c0-.8.3-1.2.9-1.3l1.9-.2a1.7,1.7,0,0,1,1.8.8,17.4,17.4,0,0,1,2.3,4,11.9,11.9,0,0,1,1.1,5,10,10,0,0,1-.9,4.3H299a3.1,3.1,0,0,0-1.8.9,3.2,3.2,0,0,0-.7,1.9,2.9,2.9,0,0,0,.7,1.8,2.2,2.2,0,0,0,1.8.4c1.5-.2,2.5-1.5,3-3.7a18.2,18.2,0,0,0,.4-4.2,30,30,0,0,0-.4-5.1,28.7,28.7,0,0,0-1.5-5.1,15.1,15.1,0,0,1-.6-1.5l4.7-.5c.9,0,1.3.6,1.3,2Z" transform="translate(-0.4 -0.3)" style="fill: #04aadc"/>
      <path id="Vector_52" data-name="Vector 52" d="M320,346.1v4.1a2.6,2.6,0,0,1-.8,2,3.5,3.5,0,0,1-2.2.8,2.5,2.5,0,0,1-2.2-.9,2,2,0,0,0,1.3-2,2.1,2.1,0,0,0-.7-1.6,2.3,2.3,0,0,0-1.7-.5,2.2,2.2,0,0,0-1.7.7,1.9,1.9,0,0,0-.8,1.6,3.3,3.3,0,0,0,.9,2.3,6,6,0,0,0,2.1,1.4,19.6,19.6,0,0,0,5.3.6v.8l-2.4.2a8.8,8.8,0,0,0-2.9.7q-3,1.3-3,3.9a1.9,1.9,0,0,0,.8,1.6,2.1,2.1,0,0,0,1.7.6,2.9,2.9,0,0,0,1.7-.7,2.1,2.1,0,0,0,.7-1.6,2.1,2.1,0,0,0-1.3-2.1,2.6,2.6,0,0,1,2.1-.9,2.9,2.9,0,0,1,2.2.8,2.7,2.7,0,0,1,.9,2.1v4.1c0,1.9-1.1,2.8-3.4,2.9a66.6,66.6,0,0,0-7.6.6c-1,.1-1.6-.1-1.7-.5a2.2,2.2,0,0,1-.1-.9V345.3a3.1,3.1,0,0,1,.1-1.1c.1-.3.4-.5.8-.7h.9c3.1-.3,4.6-.3,7.6-.4S320,344,320,346.1Z" transform="translate(-0.4 -0.3)" style="fill: #04aadc"/>
    </g>
    <g id="win">
      <path id="Vector_53" data-name="Vector 53" d="M286.3,334.4a31.6,31.6,0,0,1-1.5,6.5,5.1,5.1,0,0,1-4.2,3.4l-3.4.6c-2.9.5-4.6-.9-4.5-6.2h-.4c-1.2,5.4-2.8,7.5-5.6,7.8l-3.4.3c-2.1.1-3.5-.6-4-2.8a31.1,31.1,0,0,1,0-7.7c.6-7.6.7-15,.6-22.6,0-.9.4-1.5,1.2-1.5h3.1a2.3,2.3,0,0,1,2,1c2.5,2.9,3.9,4.6,3.9,7.2a10.3,10.3,0,0,1-1,3.6,39.1,39.1,0,0,1-2.4,5.1,1.9,1.9,0,0,0-1-.3,3.3,3.3,0,0,0-2.4,1.2,5.8,5.8,0,0,0-1.2,3.5,4.8,4.8,0,0,0,.7,3.2A2.2,2.2,0,0,0,265,338c2-.1,3.6-2.4,4.7-6.4s2.1-8.7,2.6-11a50.5,50.5,0,0,0,.6-8.7h1.7a29.6,29.6,0,0,0,.8,8.7,57.7,57.7,0,0,1,1.6,10.7c.2,3.7,1.3,5.5,3.5,5.3a4.3,4.3,0,0,0,2.4-1.4,4.9,4.9,0,0,0,1.3-2.8,3.7,3.7,0,0,0-.5-2.9,2.4,2.4,0,0,0-2.1-1,4.5,4.5,0,0,0-1.1.3,30.9,30.9,0,0,1-1.8-4.7,12.9,12.9,0,0,1-1-3.7c0-2.6,1-4.6,3.3-7.6a2.6,2.6,0,0,1,2.2-1.4l2.8-.2c.7-.1,1.1.4,1.1,1.4C287.2,320,287.4,326.9,286.3,334.4Z" transform="translate(-0.4 -0.3)" style="fill: #fe7a04"/>
      <path id="Vector_54" data-name="Vector 54" d="M298.2,339.8a2.8,2.8,0,0,1-.5,1.7,5,5,0,0,1-1.8.5l-6.6.9c-.9.1-1.5.1-1.7-.1s-.3-.7-.3-1.7c.8-6.4,2.3-12.9,2-19.4a18.9,18.9,0,0,0,5.3-.8c2-.5,3-1.4,2.9-2.6a2.9,2.9,0,0,0-1.1-1.8,3.9,3.9,0,0,0-2.5-.5,4.8,4.8,0,0,0-2.3.8,1.8,1.8,0,0,0-.7,1.6,2.4,2.4,0,0,0,.3.9,4,4,0,0,1-1.5-.3,1.1,1.1,0,0,1-.8-1v-2.4c-.1-1.1-.1-1.7-.2-3a1.8,1.8,0,0,1,.5-1.4,3.7,3.7,0,0,1,1.6-.5l6.3-.7a2.2,2.2,0,0,1,1.7.1c.3.2.4.7.4,1.4A206.5,206.5,0,0,1,298.2,339.8Z" transform="translate(-0.4 -0.3)" style="fill: #fe7a04"/>
      <path id="Vector_55" data-name="Vector 55" d="M320.2,338.9a3.5,3.5,0,0,1-.1,1.2c-.2.3-.6.4-1.2.4h-4.4a65,65,0,0,0-1.2-9.9c-.8-4.1-1.7-7.1-2.8-8.9a3.3,3.3,0,0,0-3.1-1.9,4.7,4.7,0,0,0-2.6.9,2.9,2.9,0,0,0-.8,2.2,2.8,2.8,0,0,0,1.1,2.1,3.4,3.4,0,0,0,2.2.7,4.6,4.6,0,0,0,2.4-.8c1,2.2,1.4,5.3,1.2,9.2a40.8,40.8,0,0,1-.6,5.3c-.1.9-.8,1.3-1.8,1.3s-3.7.3-6.2.5c-.9.1-1.5.1-1.6-.1s-.5-.5-.5-1.3a235.2,235.2,0,0,0,.9-29.1c0-.6,0-.9.3-1.1s.5-.4,1.2-.5l4.6-.5a18.7,18.7,0,0,0,.5,3.1,18.7,18.7,0,0,0,4,7.6,4.4,4.4,0,0,0,2.8,1,3.5,3.5,0,0,0,2.2-.8,2.6,2.6,0,0,0,1-2,2.9,2.9,0,0,0-.9-2.2,3.1,3.1,0,0,0-2.4-.8,3.7,3.7,0,0,0-3,1.5,6.8,6.8,0,0,1-.7-3.2,7.8,7.8,0,0,1,.7-3.8,2.7,2.7,0,0,1,2-.9l4.9-.2c.9,0,1.4.1,1.6.3a2.4,2.4,0,0,1,.3,1.5Z" transform="translate(-0.4 -0.3)" style="fill: #fe7a04"/>
    </g>
    <g id="feel">
      <path id="Vector_56" data-name="Vector 56" d="M274.6,277.6c-.1,2.7-.2,4.3-.3,7.2a6.2,6.2,0,0,1-1.2,3.5,3.6,3.6,0,0,1-2.5,1.8c-1.2.3-2,0-2.4-.7a4.3,4.3,0,0,0,1.7-3.6,2.5,2.5,0,0,0-.7-2.3,1.6,1.6,0,0,0-1.9-.3,4.2,4.2,0,0,0-2.2,1.6,4.3,4.3,0,0,0-.9,2.6,4.1,4.1,0,0,0,1,2.9,5.3,5.3,0,0,0,2.5,1.7,13.1,13.1,0,0,0,5.5-.2v1l-2.5.6a12.2,12.2,0,0,0-3.2,1.4,1.4,1.4,0,0,0-.9,1.1,1.8,1.8,0,0,0,.2,1.6,17.1,17.1,0,0,0,2.5,2.7,24.5,24.5,0,0,1,3,3.3,7.7,7.7,0,0,1,1.4,3.9,1.5,1.5,0,0,1-.5,1.2,1.7,1.7,0,0,1-1.2.5l-10.7.5a1.4,1.4,0,0,1-1.8-1.8V282a2.2,2.2,0,0,1,.4-1.7,5.3,5.3,0,0,1,2-1.3l9.2-3.9C273.7,273.9,274.8,274.4,274.6,277.6Z" transform="translate(-0.4 -0.3)" style="fill: #029c54"/>
      <path id="Vector_57" data-name="Vector 57" d="M289.3,271.9c.1,3.3.2,5.4.2,9.1a9.2,9.2,0,0,1-.8,4.3,3.1,3.1,0,0,1-2.4,1.7,2,2,0,0,1-2.4-1.2,5.5,5.5,0,0,0,1.5-4.3,6.8,6.8,0,0,0-.7-3.1,1.7,1.7,0,0,0-1.9-.7,4.3,4.3,0,0,0-1.9,1.9,8.2,8.2,0,0,0-.8,3.5,7.2,7.2,0,0,0,.8,4,3.5,3.5,0,0,0,2.2,1.8,22.6,22.6,0,0,0,5.9.4v1a10.9,10.9,0,0,0-2.6.3,7.7,7.7,0,0,0-6.8,7.4,3.7,3.7,0,0,0,.7,2.6,2.2,2.2,0,0,0,1.9.8,2.8,2.8,0,0,0,2-1.2,4.1,4.1,0,0,0,.9-2.6c0-1.7-.4-2.8-1.5-3.3a3.7,3.7,0,0,1,2.5-1.6,2.5,2.5,0,0,1,2.4,1.1,4.6,4.6,0,0,1,.9,3.5c-.1,2.8-.2,4.3-.3,6.8s-1.4,3.9-3.9,4.1l-8.3.6c-1.1.1-1.8-.1-1.9-.6a3.1,3.1,0,0,1-.1-1.1c.2-10.6.6-21.3,1.1-31.9a13.2,13.2,0,0,1,.2-1.6,2.6,2.6,0,0,1,1-1.1l.9-.5,7.8-3.4C288.2,267.5,289.3,267.8,289.3,271.9Z" transform="translate(-0.4 -0.3)" style="fill: #029c54"/>
      <path id="Vector_58" data-name="Vector 58" d="M307.2,262.8c-.3,4.5-.6,8.9-.8,13.4a17.3,17.3,0,0,1-1.3,6.2c-.8,1.6-1.6,2.3-2.6,2.5s-1.8-.3-2.2-1.7,1.8-3.3,2-6.2a10.2,10.2,0,0,0-.4-4.5c-.4-1.1-1-1.4-1.8-1.1a5.6,5.6,0,0,0-2.3,2.8,12.1,12.1,0,0,0-1.2,4.8,14.2,14.2,0,0,0,.5,5.7,4.6,4.6,0,0,0,2,2.7c1.1.6,3.1.6,5.8.3,0,.5-.1.6-.1,1l-2.6.6a10.2,10.2,0,0,0-3.4,1.2,7.3,7.3,0,0,0-3.5,6.2,3.9,3.9,0,0,0,.7,2.7,2,2,0,0,0,1.9.8,2.7,2.7,0,0,0,2.1-1.3,4.4,4.4,0,0,0,.9-2.7c0-1.7-.4-2.7-1.5-3.2a3.6,3.6,0,0,1,2.5-1.7,2.4,2.4,0,0,1,2.4.9,4.2,4.2,0,0,1,1,3.4c0,2.8-.1,4.3-.2,6.9s-1.3,3.9-4.1,4.3l-8.6.9c-1.2.1-1.8-.1-2-.6s-.1-.6-.1-1.1c.4-12.5.8-25,1-37.4a5.7,5.7,0,0,1,.2-1.8,4.5,4.5,0,0,1,1.5-1.6l1.6-.8a76.9,76.9,0,0,0,9.8-5.6C306.9,257.2,307.5,257.1,307.2,262.8Z" transform="translate(-0.4 -0.3)" style="fill: #029c54"/>
      <path id="Vector_59" data-name="Vector 59" d="M320.2,302.5a4.5,4.5,0,0,1-.3,2.1,3.1,3.1,0,0,1-1.8.6,84.3,84.3,0,0,0-8.6.5,4.3,4.3,0,0,1-2.4-.1c-.4-.2-.5-.8-.5-2.1.2-15,1.1-30.1,2-45.1a6.5,6.5,0,0,1,.5-2.6,5.1,5.1,0,0,1,1.3-1.3l7.7-5.7c.5-.3.9-.5,1.2-.3s.6.7.6,1.7c-.1,5.4-1.5,11.1-2.6,16.5s-2.4,11.9-4.7,17.6-2.7,6.5-2.8,10.2a5,5,0,0,0,.8,2.9,2.6,2.6,0,0,0,2.1,1,2.5,2.5,0,0,0,1.9-1.3,4.5,4.5,0,0,0,.9-2.8,4.4,4.4,0,0,0-.7-2.6,1.9,1.9,0,0,0-1.9-.9v-1.6a10.2,10.2,0,0,1,.9-4.2c.7-2.1,1.6-3.9,3-4.1s1.8.7,2.5,2.2a9.3,9.3,0,0,1,1,3.7C320.2,292.1,320.2,297.3,320.2,302.5Z" transform="translate(-0.4 -0.3)" style="fill: #029c54"/>
    </g>
    <g id="game">
      <path id="Vector_60" data-name="Vector 60" d="M172.9,442.7c.1,2.1-.8,2.7-2.5,2.7h-4c-1.8,0-2.6-.5-2.7-2.8-.4-9.3-2.8-17.2-5.6-26.2-1.3-4.4-.1-4.9,1.9-4.7a24.1,24.1,0,0,1,3.7.7,5.9,5.9,0,0,1,2.3.8c.6.5,1,1.3,1.4,3,.9,3.3,1.8,5.8,2.9,9.7-1.6-2.4-3-3.9-4.2-4.1s-2,1-2.1,3.4a41.2,41.2,0,0,0,.7,6.3,17.7,17.7,0,0,0,.9,3.2c.6,1.4,1.3,2.2,2.2,2.3a1.4,1.4,0,0,0,1.2-.8,3,3,0,0,0,.3-1.9,2.2,2.2,0,0,0-.7-1.7,1.7,1.7,0,0,0-1.4-.7c-.5,0-.8.1-1,.5a.8.8,0,0,1-.1-.4,7,7,0,0,1,.2-2.8c.4-1,.8-1.6,1.7-1.6a4.2,4.2,0,0,1,2.5,1.9,5.8,5.8,0,0,1,1.5,2.9C172.4,435.3,172.7,438.7,172.9,442.7Z" transform="translate(-0.4 -0.3)" style="fill: #029c54"/>
      <path id="Vector_61" data-name="Vector 61" d="M183.1,444.2c0,.6-.1,1-.3,1.1h-3.1c.5-1.2.5-4.2.2-7.9s-1-4.5-2.3-4.6a1.4,1.4,0,0,0-1.2.4,2.1,2.1,0,0,0-.5,1.6,6.2,6.2,0,0,0,.7,1.9,2.1,2.1,0,0,0,1.4.8h.6a20.3,20.3,0,0,1,.7,4.2,7.5,7.5,0,0,1-.1,2.8,1.3,1.3,0,0,1-1.1.9h-1.5c-1.9,0-2.8-.7-3-3.7s-.3-4.1-.5-6.5a4.7,4.7,0,0,1,1.1-4.2c.2-.2,1.2-.7,2.7-1.8s1.2-1.8.6-3.5a12.8,12.8,0,0,0-1.3-2.9,3.2,3.2,0,0,0-1.8-1.4c-.5-.2-.8.1-1,.8a6.9,6.9,0,0,0,.3,2.7,9.1,9.1,0,0,0,.6,1.6q0,1.7-.9,1.5c-.5-.1-.9-.4-1.4-1.2a9.7,9.7,0,0,1-1.3-2.7l-2.1-6.9c-.9-3.3.1-3.5,2-3l4.5,1.3c1.9.4,2.6,1.1,3.5,4.4A96.4,96.4,0,0,1,183.1,444.2Z" transform="translate(-0.4 -0.3)" style="fill: #029c54"/>
      <path id="Vector_62" data-name="Vector 62" d="M199.2,444.6c0,.6-.3.8-1,.8h-4a1.2,1.2,0,0,1-1.3-.9,30.9,30.9,0,0,1-1.3-6.6c-.3-3.3.3-4.6.5-8a1.5,1.5,0,0,0,1.1.5.9.9,0,0,0,1.1-.6,3.6,3.6,0,0,0-.1-2.7,5.3,5.3,0,0,0-1.3-2.7,2.6,2.6,0,0,0-1.7-1.1c-1.1-.1-1.4,1.6-1,4.7s.5,3.8.6,4.7-.1.9-.3.9-.3-.3-.4-1a33.1,33.1,0,0,0-1.9-4.8c-1.4-3.1-2.8-4.9-3.8-5s-.8.3-1,1a5.9,5.9,0,0,0,.3,2.5,7.1,7.1,0,0,0,1.4,2.6,3,3,0,0,0,1.5,1,.9.9,0,0,0,.8-.4,16.6,16.6,0,0,1,2.7,8.3,20.7,20.7,0,0,1-.1,6.7,1.2,1.2,0,0,1-1.2.9h-3.6c-.7,0-1-.3-1-.9a117.4,117.4,0,0,0-4.8-26.2c-.3-1-.3-1.5-.1-1.7a2.2,2.2,0,0,1,1.2,0l3.1.3a2.4,2.4,0,0,1,2.1,1.4l.9,1.7c.4.7.6,1.1.7,1.1s.1-.4,0-1.1a7.8,7.8,0,0,1,.2-1.6c.1-1,.8-1.2,1.9-1.2h3.4c.6,0,1.1,0,1.3.3s.4.6.6,1.7C196.5,427.7,198.7,436,199.2,444.6Z" transform="translate(-0.4 -0.3)" style="fill: #029c54"/>
      <path id="Vector_63" data-name="Vector 63" d="M206.3,420.6c.4,2.6.7,4.4,1.3,7.4a6.4,6.4,0,0,1,0,3.4c-.2.9-.7,1.2-1.3,1.2a2.6,2.6,0,0,1-1.9-1.4c.5-.6.6-1.7.3-3.5a8.3,8.3,0,0,0-1.1-2.9,2.1,2.1,0,0,0-1.6-1.2q-.9,0-1.2,1.2a5.8,5.8,0,0,0,.1,2.9,9.5,9.5,0,0,0,1.5,3.8,5.1,5.1,0,0,0,2,2.1,10,10,0,0,0,4.1.9,1.9,1.9,0,0,0,.2.7h-1.8a5.6,5.6,0,0,0-2.1.4,2.7,2.7,0,0,0-1.7,3.3,2.3,2.3,0,0,0,.8,1.6,2.1,2.1,0,0,0,1.4.7,2,2,0,0,0,1.4-.5,1.9,1.9,0,0,0,.3-1.5,3.1,3.1,0,0,0-1.4-2.1,1.6,1.6,0,0,1,1.5-.7,3.6,3.6,0,0,1,1.8.8,3.5,3.5,0,0,1,1,2.1c.2,1.5.4,2.3.5,3.7s-.7,2.2-2.5,2.2h-6c-.9,0-1.4-.1-1.5-.5a3.5,3.5,0,0,1-.1-.7c-.6-8.6-2.8-16.9-4.6-25.3a7.5,7.5,0,0,1-.1-1.2c.1-.3.4-.4.7-.5h.8l6.2-.2C205,416.9,205.7,417.4,206.3,420.6Z" transform="translate(-0.4 -0.3)" style="fill: #029c54"/>
    </g>
    <g id="amaze">
      <path id="Vector_64" data-name="Vector 64" d="M110.4,420.8a3.7,3.7,0,0,1-1.1,2.2,6.2,6.2,0,0,1-1.9,1.2l-4.3,2.3c2.9-4.9,3.3-10.8,3.8-16.1s-.8-8.5-3.2-8.2a3.3,3.3,0,0,0-2.5,1.3A5,5,0,0,0,100,407a6.3,6.3,0,0,0,.8,3.8,2,2,0,0,0,2.4,1,2.4,2.4,0,0,0,1.1-.6,27.8,27.8,0,0,1,0,8.2,19.5,19.5,0,0,1-1.6,5.9,6.8,6.8,0,0,1-2.7,2.6,12.6,12.6,0,0,1-3,1.5c-3.9,1.8-5,1.3-3.9-5.6.5-5,1-10,1.3-15.1s1.4-6.9,3.4-8.9c.3-.3,2.2-1.5,5.4-4.2s2.6-3.7,2-6.8a10.5,10.5,0,0,0-2.1-4.8c-1-1.4-1.9-2-2.9-2s-1.7.7-2.1,2.1a11.7,11.7,0,0,0,.1,4.9,12,12,0,0,0,.8,2.8c-.3,2-1,2.9-2.1,3a3.1,3.1,0,0,1-2.5-1.6,12.6,12.6,0,0,1-1.7-4.4c-.9-4-1.9-8.1-3.1-12.1-1.8-6-1-7.5,2.3-7.5h8.6c3.7,0,6.2,1.7,7.7,7.8C111.5,392,113.4,405.6,110.4,420.8Z" transform="translate(-0.4 -0.3)" style="fill: #fe7a04"/>
      <path id="Vector_65" data-name="Vector 65" d="M139.7,409.1c-.1.9-.6,1.5-1.8,1.8a50,50,0,0,0-7.2,2.3c-1.2.4-1.9.3-2.1-.6a36.5,36.5,0,0,1-.2-8.2c.4-4.4,1.9-8.9,2.9-13.1a2.5,2.5,0,0,0,1.8.5,3.2,3.2,0,0,0,2.2-1.5,6.4,6.4,0,0,0,.9-4.1,6.2,6.2,0,0,0-1.5-3.8,3.3,3.3,0,0,0-2.8-1.6c-2.1,0-3.2,2.7-3.6,7.8s-.3,6.6-.3,8.3-.3,1.9-.6,1.9-.5-.3-.7-1.6a54.9,54.9,0,0,0-2-8.4c-1.6-5-3.7-7.9-5.7-7.8a2.7,2.7,0,0,0-2.3,2,9.9,9.9,0,0,0-.3,4.6,10.5,10.5,0,0,0,1.8,4.5,3.3,3.3,0,0,0,2.6,1.2,3.3,3.3,0,0,0,1.7-1c1.7,4.1,3.6,8.4,3.1,12.8a33.4,33.4,0,0,1-2.4,9.9,4.9,4.9,0,0,1-2.6,2.5l-7,3.6c-1.3.6-1.8.6-1.5-.5,3.3-16.2.9-30.9-2.8-46.9-.6-2.1-.8-3.2-.6-3.7s1-.7,2.4-.7l6.7.3a5.1,5.1,0,0,1,4.6,2.9c.5,1.1.9,1.8,1.4,3l1.1,2c.2,0,.3-.7.4-2l.5-2.8c.2-1.9,1.5-2.5,3.7-2.4l6.4.7a5.5,5.5,0,0,1,2.7.9,5.5,5.5,0,0,1,.8,3.1A204.4,204.4,0,0,1,139.7,409.1Z" transform="translate(-0.4 -0.3)" style="fill: #fe7a04"/>
      <path id="Vector_66" data-name="Vector 66" d="M159.2,407.9c-.1.8-.3,1.4-.7,1.6h-1.8a26.9,26.9,0,0,0-4-.3,39.1,39.1,0,0,0,2.2-7.9c.3-2.9-.8-4.8-3.3-4.8a4.7,4.7,0,0,0-2.6.8,2.6,2.6,0,0,0-1.1,1.9,1.5,1.5,0,0,0,.9,1.6,4.5,4.5,0,0,0,2.4.6h1.1a5.3,5.3,0,0,1,.4,3.4,8.8,8.8,0,0,1-.8,3,2.5,2.5,0,0,1-2.1,1.3l-2.6.2c-3.5.2-5.7-1-5.5-3.7s.4-3.3.6-5.6a7.7,7.7,0,0,1,3.3-5.9l6.1-2.8c2.2-.8,3.3-2.3,3.2-4.3a4.8,4.8,0,0,0-1.2-3.3,3.8,3.8,0,0,0-2.5-1.7,2.9,2.9,0,0,0-2.4,1.1,5.1,5.1,0,0,0-1,3.2,4.7,4.7,0,0,0,.3,1.9c-.7,1.4-1.5,2-2.6,2a2.6,2.6,0,0,1-2.2-1.3,4.7,4.7,0,0,1-1-3.2c-.2-3.4-.4-5.3-.5-8.5s2-5.2,5.2-4.6l8.1,1.3c3.4.5,5.1,2,5.3,5.9A187.6,187.6,0,0,1,159.2,407.9Z" transform="translate(-0.4 -0.3)" style="fill: #fe7a04"/>
      <path id="Vector_67" data-name="Vector 67" d="M182,388.1a7.7,7.7,0,0,1-4.1,7.2l-5.9,3.3a19.8,19.8,0,0,0-3.1,1.9,2.7,2.7,0,0,0-1.2,1.7,2,2,0,0,0,.8,2,4.2,4.2,0,0,0,2.6,1.1,4,4,0,0,0,2.6-.6,3.1,3.1,0,0,0,1.4-2,2.6,2.6,0,0,0-1.3-2.6,5.3,5.3,0,0,1,3.8-1.5,4.1,4.1,0,0,1,2.7,1,3.6,3.6,0,0,1,1.1,3.2c-.4,3.5-.6,5.3-1,9a2,2,0,0,1-.6,1.3,2.9,2.9,0,0,1-1.7.1L164,410.7l-2-.4c-.8-.3-1.2-.7-1.1-1.2.4-3.2.6-4.3,1-7.1a5.9,5.9,0,0,1,1.2-2.6,10.9,10.9,0,0,1,3.9-2.9,59.5,59.5,0,0,0,5.3-3.4l2.8-2.1a4.1,4.1,0,0,0,.9-3.1,3.9,3.9,0,0,0-1.3-3.1,4,4,0,0,0-2.7-1.1,2.6,2.6,0,0,0-2.5,1.1,4.9,4.9,0,0,0-.9,2.8,3.8,3.8,0,0,0,1.9,3.4,3.9,3.9,0,0,1-3.3,1.7,4.5,4.5,0,0,1-3.3-1.4,5.2,5.2,0,0,1-1.4-3.6c-.2-4.1-.3-6.5-.4-10,0-1.2.2-1.9.7-2.2s1.2-.3,2.5-.2c5.2.5,7.8.8,13,1.1,1.7.1,2.8.4,3.1,1a3.3,3.3,0,0,1,.2,1.2c0,.1,0,1.6.2,4.8S182,388.2,182,388.1Z" transform="translate(-0.4 -0.3)" style="fill: #fe7a04"/>
      <path id="Vector_68" data-name="Vector 68" d="M202.4,381.6c.1,2.6.2,3.9.3,6.6a3.9,3.9,0,0,1-1.1,3.1,4.1,4.1,0,0,1-3.1,1.2,3.7,3.7,0,0,1-3.2-1.3,3.4,3.4,0,0,0,1.8-3.3,3.9,3.9,0,0,0-1.2-2.5,3.3,3.3,0,0,0-2.6-1.1,3.3,3.3,0,0,0-2.5,1,3.2,3.2,0,0,0-.9,2.7,5.9,5.9,0,0,0,1.4,3.8,8,8,0,0,0,3.2,2.2,26.4,26.4,0,0,0,7.7,1v1.2l-3.5.2a13.3,13.3,0,0,0-4.3,1.1c-3,1.4-4.7,3.3-4.9,5.8a3.3,3.3,0,0,0,1.1,2.7,4.4,4.4,0,0,0,5.6.2,3.6,3.6,0,0,0,1.1-2.5,3.7,3.7,0,0,0-2.1-3.5,4.2,4.2,0,0,1,3.3-1.4,4.8,4.8,0,0,1,4.9,4.6c.2,2.8.4,4.2.6,6.7s-2.1,4.6-6.1,4.7a74.3,74.3,0,0,1-12.7-.7c-1.7-.2-2.6-.7-2.7-1.4a2.8,2.8,0,0,1,0-1.3,205.7,205.7,0,0,0,1-32.4,5,5,0,0,1,.1-1.5c.2-.5.6-.7,1.3-.8h1.3l11.1.3C200.6,377.1,202.2,378.5,202.4,381.6Z" transform="translate(-0.4 -0.3)" style="fill: #fe7a04"/>
    </g>
    <g id="family">
      <path id="Vector_69" data-name="Vector 69" d="M231.6,38.8a25.2,25.2,0,0,0-1.5,6.3,4.9,4.9,0,0,1-1.6,3,4.5,4.5,0,0,1-3.1,1.2,2.9,2.9,0,0,1-2.8-1.4,4.1,4.1,0,0,0,2.3-3.2,4.5,4.5,0,0,0-.4-2.6,2.7,2.7,0,0,0-2.1-1.1,3.6,3.6,0,0,0-2.5,1,4.1,4.1,0,0,0-1.5,2.7,4.5,4.5,0,0,0,.8,3.5,5.9,5.9,0,0,0,2.8,2.4,17.9,17.9,0,0,0,6.8,1v1l-3.1.2a12,12,0,0,0-3.8.8,1.6,1.6,0,0,0-.9.9,1.8,1.8,0,0,0,.5,1.7,28.1,28.1,0,0,0,3.9,3.3,46.9,46.9,0,0,1,4.8,3.8,19.4,19.4,0,0,1,3.5,4.3c.3.5.4.9.1,1.1s-.5.3-1,.3a66.3,66.3,0,0,0-12.6,0,5.6,5.6,0,0,1-2.1-.2,4.2,4.2,0,0,1-1.4-1.7c-5-10.5-5-20-.6-30.8a3.2,3.2,0,0,1,1.6-1.5,4.8,4.8,0,0,1,2.2-.4l9.2.4C231.9,35,232.5,36,231.6,38.8Z" transform="translate(-0.4 -0.3)" style="fill: #029c54"/>
      <path id="Vector_70" data-name="Vector 70" d="M251.2,69.8c.3,1.1.3,1.6,0,1.7a2.7,2.7,0,0,1-1.5-.1l-3.6-.7c-.1-1.8-.8-6-1.5-11.4s-1.9-6.6-4.4-6.6a3.3,3.3,0,0,0-2.4.8,2,2,0,0,0-.8,2.2,4.2,4.2,0,0,0,1.4,2.5,4.7,4.7,0,0,0,2.8,1.2l1-.2a24.1,24.1,0,0,1,1.9,5.9,28.5,28.5,0,0,1,.7,4.1c0,.7-.4,1-1.3,1l-2.6-.3c-3.3-.5-6-1.8-7.3-5.6a40.7,40.7,0,0,1-2-8c-.6-3,.4-4.4,2.7-5.7a58.7,58.7,0,0,1,6.2-2.1c2.3-.7,3.4-1.8,3.5-3.2a3.1,3.1,0,0,0-.8-2.3,2.8,2.8,0,0,0-2.2-1.1,4.2,4.2,0,0,0-2.6.8,3.5,3.5,0,0,0-1.4,2.2,2.4,2.4,0,0,0,.2,1.3,3.6,3.6,0,0,1-2.8,1.5,2.3,2.3,0,0,1-2-.9,2.9,2.9,0,0,1-.6-2.2,31.9,31.9,0,0,1,1.2-5.7c1-2.8,3.1-3.6,6-3.4l7.2.5c3,.2,4.1,1.5,3.7,4.3C248.5,50.2,249.6,60,251.2,69.8Z" transform="translate(-0.4 -0.3)" style="fill: #029c54"/>
      <path id="Vector_71" data-name="Vector 71" d="M276.4,74.6c0,1.1-.5,1.4-1.4,1.3l-5.9-.8a2.4,2.4,0,0,1-2-2,51.6,51.6,0,0,1-1.4-12.3c0-4.2,0-8.6,2.4-12.5a2.9,2.9,0,0,0,1.6.4,2.8,2.8,0,0,0,1.9-.7,2.4,2.4,0,0,0,1-2.1,2.5,2.5,0,0,0-.9-2,3.2,3.2,0,0,0-2.1-.8c-1.7,0-2.9,1.2-3.8,3.7a15.4,15.4,0,0,0-.9,4.7c-.1,1-.3,1.6-.6,1.6s-.4-.6-.6-1.6a24.7,24.7,0,0,0-1.1-4.7c-.9-2.5-2.2-3.9-4-3.9a3.4,3.4,0,0,0-2.4.7,2.6,2.6,0,0,0-1.1,2.1,2.7,2.7,0,0,0,1.1,2.2,3.5,3.5,0,0,0,2.2.8,3.3,3.3,0,0,0,1.7-.4c2.6,3.7,2.7,8.4,3,12.4a59.4,59.4,0,0,1-.4,11.8c-.2,1.1-.8,1.3-1.7,1.2l-5.9-1.2a2.1,2.1,0,0,1-2-1.7c-1.7-10.5-2.8-21.3-1.2-31.9a3.4,3.4,0,0,1,.8-1.9,4.1,4.1,0,0,1,2.2-.3l5.2.3a3,3,0,0,1,2.9,1.8l.7,1.6c.4.7.5,1.1.6,1.1s.3-.4.6-1a8,8,0,0,1,.8-1.6,3.1,3.1,0,0,1,3.1-1.7,37,37,0,0,0,4.7-.2c1,0,1.7,0,2,.3s.5.9.5,1.9C275.9,51,276.2,62.8,276.4,74.6Z" transform="translate(-0.4 -0.3)" style="fill: #029c54"/>
      <path id="Vector_72" data-name="Vector 72" d="M287.2,75c0,1.1-.1,1.6-.3,1.8s-.6.3-1.4.2l-5.6-.6a2.2,2.2,0,0,1-1.5-.4,3.6,3.6,0,0,1-.3-1.9c-.2-8.2-.5-16.3-.4-24.5a12.7,12.7,0,0,0,4.7-.9c1.8-.7,2.7-1.8,2.7-3.4a3.1,3.1,0,0,0-.8-2.4,2.2,2.2,0,0,0-2.1-.7,3.1,3.1,0,0,0-2.1,1.1,3.7,3.7,0,0,0-.8,2.2,3.1,3.1,0,0,0,.2,1.1,2.2,2.2,0,0,1-1.3-.3,1.8,1.8,0,0,1-.7-1.5c0-.2.1-.7.1-1.3a12.1,12.1,0,0,0,.1-1.8V38.1a2.2,2.2,0,0,1,.5-1.3,3.7,3.7,0,0,1,1.5-.5l5.5-1.1c.7-.2,1.3-.2,1.5,0a1.8,1.8,0,0,1,.4,1.3C286.9,49.3,287.1,62.1,287.2,75Z" transform="translate(-0.4 -0.3)" style="fill: #029c54"/>
      <path id="Vector_73" data-name="Vector 73" d="M303.1,75.2a4.5,4.5,0,0,1-.5,2.7c-.3.4-1,.5-2,.4l-8.9-.8a4.1,4.1,0,0,1-2.4-.6c-.3-.4-.5-1.2-.5-2.9-.1-12.5-.1-25-.1-37.5,0-1,.1-1.6.4-1.9s.8-.5,1.7-.7l10.3-2.6a1.4,1.4,0,0,1,1.3.3A1.7,1.7,0,0,1,303,33c0,1.8-1,4.8-2.9,8.3a71.7,71.7,0,0,1-5.3,8.7c-1.9,3.1-2.8,6.4-2.8,11.7a11.9,11.9,0,0,0,.8,4.6c.6,1.2,1.3,1.8,2.2,1.8s1.4-.4,2-1.5a7.9,7.9,0,0,0,.9-4,9.9,9.9,0,0,0-.7-4,2.3,2.3,0,0,0-2-1.5V55a8.4,8.4,0,0,1,.9-4.5,4.1,4.1,0,0,1,3.4-2.3,3.3,3.3,0,0,1,2.7,1.4,4.2,4.2,0,0,1,1.1,2.9C303.1,60.1,303.1,67.6,303.1,75.2Z" transform="translate(-0.4 -0.3)" style="fill: #029c54"/>
      <path id="Vector_74" data-name="Vector 74" d="M320.2,75c0,3-.4,4.3-1.4,4.8a7.4,7.4,0,0,1-3.8.2l-6.1-.8c-3-.4-4.4-1.3-4.4-5.4,0-1.6,0-2.5.1-4.2,0-5.9,1.2-9,3.6-8.9a2.7,2.7,0,0,1,1.8,1,3.1,3.1,0,0,1-.1.9,11.4,11.4,0,0,0,.9,4.8,2.8,2.8,0,0,0,2.2,1.9c.8.1,1.5-.5,2.1-1.7a10.5,10.5,0,0,0,.8-4.4c0-2.6-.6-4.5-1.9-5.6a5.2,5.2,0,0,0-3.6-1.4c-2.3-.1-4.2,1-5.8,3.8.1-9.2.1-18.4.2-27.5,0-1.5.5-2.1,1.6-2.3a47.1,47.1,0,0,1,5.2-.9,18.8,18.8,0,0,0-1.4,4.8,36.7,36.7,0,0,0-.6,6.1,14.1,14.1,0,0,0,.8,5c.6,1.7,1.4,2.5,2.5,2.5a2.6,2.6,0,0,0,2.2-1.4,5.9,5.9,0,0,0,.9-3.4,6.8,6.8,0,0,0-.8-3.6c-.6-1-1.2-1.4-2-1.4a1.1,1.1,0,0,0-.6.2,15.5,15.5,0,0,1-.5-4.5c0-3.4.7-4.5,2.1-4.6l5-.4c.7,0,1.1.5,1.1,1.8C320.2,45.2,320.2,60.1,320.2,75Z" transform="translate(-0.4 -0.3)" style="fill: #029c54"/>
    </g>
    <g id="connect">
      <path id="Vector_75" data-name="Vector 75" d="M86.4,96.9a10.5,10.5,0,0,1-2.8,4.8,6.8,6.8,0,0,1-4.5,1.8c-2.1.1-3.6-.6-4.1-2.4a4.4,4.4,0,0,0,3-1.3,6.1,6.1,0,0,0,1.9-3.2,5.5,5.5,0,0,0-.1-3.4,2.3,2.3,0,0,0-2.1-1.6c-1.6,0-3.1,1-4.6,3.1a22.6,22.6,0,0,0-2.7,6.1c-.9,3.4-.2,5.5,1.6,7.6a7.1,7.1,0,0,0,6.3,2.2,13.1,13.1,0,0,0,6.4-2.2,40.8,40.8,0,0,0,1.2,9c.8,3.3-.9,6.1-5.4,7.2s-5.2,1.3-8.5,2.3-7.5-.9-7.7-5.2c-.2-11.9,3-22.9,5.9-34.4.8-3.8,2.2-4.7,5.5-4.7l8.1.4c3.4.2,5.4,1.5,4.7,5S87.3,93.2,86.4,96.9Z" transform="translate(-0.4 -0.3)" style="fill: #fe7a04"/>
      <path id="Vector_76" data-name="Vector 76" d="M112.3,115.1c.5,2.6-1.3,4.5-5.9,5s-5.6.6-9.3,1.2-8-.9-8.7-3.8c-2.6-9.9-.4-18.3,1.9-28.1.9-4.6,3-5.7,7.5-5.4l8.5.8c4.6.5,7,2,6.4,5.9C111.4,99.2,110.5,106.6,112.3,115.1Zm-8.5-3.9a2.4,2.4,0,0,0-1.6-1.8,6.2,6.2,0,0,0-3.1-.7,11.3,11.3,0,0,1,2.2-5.9,20,20,0,0,0,3-6.2,3.9,3.9,0,0,0-.6-3,3.5,3.5,0,0,0-2.7-1.3,4.6,4.6,0,0,0-3.3,1.1,4.8,4.8,0,0,0-1.9,3.1,3.1,3.1,0,0,0,.8,3.2,4.4,4.4,0,0,0,3.2.8c-.5,1.8-1.8,3.8-3.2,6.3s-1.8,3.9-1.7,5.1.7,1.3,1.6,1.8a6.1,6.1,0,0,0,3.3.4,5.3,5.3,0,0,0,2.9-.9A2,2,0,0,0,103.8,111.2Z" transform="translate(-0.4 -0.3)" style="fill: #fe7a04"/>
      <path id="Vector_77" data-name="Vector 77" d="M137,116.9a2.8,2.8,0,0,1-.1,1.1c-.1.3-.6.4-1.3.4H131a45,45,0,0,0-2.3-8.9,51.3,51.3,0,0,0-3.7-8.2,3.5,3.5,0,0,0-1.3-1.4,4.8,4.8,0,0,0-2.4-.6,5,5,0,0,0-3.3,1.1,2.9,2.9,0,0,0-1.4,2.3c-.1.9.5,1.5,1.4,2.1a5.6,5.6,0,0,0,2.9.6,6,6,0,0,0,3.1-1,20.4,20.4,0,0,1,2.4,8.1,38.1,38.1,0,0,1,.1,4.8c-.1.9-.7,1.3-1.8,1.4l-6.7.3a5.5,5.5,0,0,1-1.9,0c-.5-.2-.7-.7-.9-1.4-2.1-10.7-1.1-19.7.2-30.5,0-.6.1-1,.3-1.1s.7-.2,1.4-.2l5.3.5c.1.6.2,1.6.4,3.2a24.6,24.6,0,0,0,1.4,5.3,9.3,9.3,0,0,0,2.4,3.9,5.4,5.4,0,0,0,3.2,1.1,5.2,5.2,0,0,0,2.7-1,2.7,2.7,0,0,0,1.3-2.1,2.6,2.6,0,0,0-.9-2.3,4,4,0,0,0-2.6-1,4.4,4.4,0,0,0-3.7,1.5,8.2,8.2,0,0,1-.5-3.8,7,7,0,0,1,1.1-3.7c.3-.4,1-.6,2.1-.5l5.5.3a3.8,3.8,0,0,1,1.8.4,2.4,2.4,0,0,1,.3,1.5C136.8,98.4,136.6,107.6,137,116.9Z" transform="translate(-0.4 -0.3)" style="fill: #fe7a04"/>
      <path id="Vector_78" data-name="Vector 78" d="M157,116.7a2.5,2.5,0,0,1-.1,1.1c-.2.3-.5.4-1.1.4h-4a46.3,46.3,0,0,0-1.2-9.2c-.9-3.8-1.7-6.6-2.7-8.3a2.8,2.8,0,0,0-1.1-1.3,4.1,4.1,0,0,0-1.9-.5,3.6,3.6,0,0,0-2.6.9,2.6,2.6,0,0,0-1,2.1,2.2,2.2,0,0,0,1.2,1.9,3.8,3.8,0,0,0,2.3.8,4,4,0,0,0,2.4-.9,21.8,21.8,0,0,1,1.4,8.5,26.3,26.3,0,0,1-.4,4.9c-.1.7-.7,1.1-1.6,1.1h-7.2a1.4,1.4,0,0,1-.5-1.3c-.3-9.4-.1-18.7.1-28,0-.5,0-.8.2-1a1.4,1.4,0,0,1,1.2-.2l4.5.2c.1.6.3,1.5.6,3a20.3,20.3,0,0,0,1.4,4.4,9.4,9.4,0,0,0,2.1,3.3,4,4,0,0,0,2.7,1.1,3.4,3.4,0,0,0,2.1-.8,3,3,0,0,0,1-2,2.8,2.8,0,0,0-1-2.1,2.5,2.5,0,0,0-2.1-.8,3.4,3.4,0,0,0-2.9,1.4,8.8,8.8,0,0,1-.6-3.3,7.7,7.7,0,0,1,.7-3.5,2.2,2.2,0,0,1,1.8-.7h4.6a2.3,2.3,0,0,1,1.6.2c.2.2.3.6.3,1.4C157.2,98.4,157.2,107.6,157,116.7Z" transform="translate(-0.4 -0.3)" style="fill: #fe7a04"/>
      <path id="Vector_79" data-name="Vector 79" d="M176,90.2c.1,2.4.1,3.7.2,6.1a4.2,4.2,0,0,1-1.1,2.9,4,4,0,0,1-3,1.1,3.4,3.4,0,0,1-2.9-1.1,2.8,2.8,0,0,0,1.7-2.9,3,3,0,0,0-1-2.2,2.7,2.7,0,0,0-2.3-.8,3.5,3.5,0,0,0-2.4,1,3.1,3.1,0,0,0-1,2.3,5.2,5.2,0,0,0,1.2,3.1,6.4,6.4,0,0,0,2.9,1.9,22.8,22.8,0,0,0,7.2.9v1.1h-3.2a19.7,19.7,0,0,0-4,.8c-2.7,1.1-4.1,2.7-4.1,4.7a2.3,2.3,0,0,0,1,2,3.3,3.3,0,0,0,2.2.8,3.6,3.6,0,0,0,2.4-.8,2.6,2.6,0,0,0,1-1.9,2.3,2.3,0,0,0-1.7-2.5,3.7,3.7,0,0,1,2.9-1.2,4.4,4.4,0,0,1,2.9,1,3.3,3.3,0,0,1,1.1,2.6c-.1,2-.2,3-.3,5s-1.7,3.5-4.7,3.6l-9.8.3c-1.3,0-2.1-.2-2.2-.8a3.1,3.1,0,0,1-.1-1.1c.1-8.9.1-17.7.1-26.6a4.2,4.2,0,0,1,.1-1.3,1.5,1.5,0,0,1,1.1-.8l1.3-.2,10.1-.7C174.5,86.3,176,87.3,176,90.2Z" transform="translate(-0.4 -0.3)" style="fill: #fe7a04"/>
      <path id="Vector_80" data-name="Vector 80" d="M195,95.8a5.1,5.1,0,0,1-1.2,3.9,4.5,4.5,0,0,1-3.5,1.6,4.6,4.6,0,0,1-4.1-2.1,3.2,3.2,0,0,0,2.3-.9,2.9,2.9,0,0,0,.9-2.5,3.7,3.7,0,0,0-1-2.6,2.5,2.5,0,0,0-2.2-.9,4,4,0,0,0-3.5,2.4,8.3,8.3,0,0,0-1,4.3,6.8,6.8,0,0,0,2.6,5.6,8.3,8.3,0,0,0,5.4,1.9,10.1,10.1,0,0,0,5.3-1.3l-.5,7.8c-.3,2.8-2.1,4.3-5.6,4.3h-6.5c-3.6.1-5.2-1.3-5.1-4.2.5-7.8.5-15.5.3-23.3,0-2.7,1.6-4,4.8-4.3l7.6-.8c3.1-.3,4.6.8,4.7,3.8S194.9,92.9,195,95.8Z" transform="translate(-0.4 -0.3)" style="fill: #fe7a04"/>
      <path id="Vector_81" data-name="Vector 81" d="M215,85c.3,8.1.8,16.1.7,24.2l-.9-.2a3.6,3.6,0,0,1-1.7-1.1,13.1,13.1,0,0,1-3.8-9.3,2.9,2.9,0,0,0,1.7.4,2.3,2.3,0,0,0,2-1.2,3.8,3.8,0,0,0,.8-2.6,5.6,5.6,0,0,0-1-2.9,3,3,0,0,0-2.4-1.2,2.5,2.5,0,0,0-2.2,1.2,4,4,0,0,0-.8,2.8c.2,4,.5,8.3,2.1,12.2a27.3,27.3,0,0,0,3.5,5.8c1.6,2.1,2.4,3.5,2.4,4s-.5.8-1.6.7c-5.4-.3-10.7-.5-16.1-.6-1.1,0-1.5-.3-1.5-.8s1-1.8,2.7-3.7a32.5,32.5,0,0,0,4-5.4c1.6-3,2.3-6.5,2.1-12.1a5.2,5.2,0,0,0-1-2.7,2.7,2.7,0,0,0-2.4-1.1,2.7,2.7,0,0,0-2.3,1.2,3.7,3.7,0,0,0-.9,2.7,4.6,4.6,0,0,0,1,2.6,3,3,0,0,0,2.4,1.1,2.4,2.4,0,0,0,1.5-.4,10.9,10.9,0,0,1-4,9.1,4.2,4.2,0,0,1-2.9,1.1c.7-7.6.1-15.3-.1-23,0-1.1.4-1.6,1.2-1.7,5.4-.4,10.8-.6,16.2-.7C214.6,83.4,215,83.9,215,85Z" transform="translate(-0.4 -0.3)" style="fill: #fe7a04"/>
    </g>
    <g id="exit_3" data-name="exit 3">
      <path id="Vector_82" data-name="Vector 82" d="M32.4,150.3c0,2.1-.2,3.1-.8,3.4a4.7,4.7,0,0,1-2.6.3l-6.4-.4c2.1-7.7,1.3-16.5.7-24.2-.3-3.7-.3-13.6-7.2-13.1a6,6,0,0,0-4.2,2,6.1,6.1,0,0,0-1.5,4.7,8.3,8.3,0,0,0,2.3,5.3,5.7,5.7,0,0,0,4.6,2,3.5,3.5,0,0,0,1.8-.5,45.2,45.2,0,0,1,2.3,12.6,34.1,34.1,0,0,1-.3,8.5c-.4,1.5-1.5,2.2-3.3,2.4h-5c-7.3.2-11.5-3.1-11.4-9.9s-.1-12.3-.2-18.5c-.3-4.5.9-9,4.9-11.9.7-.4,4-2.1,10.3-4.9,3.8-1.6,5.6-3.7,5.5-6.5A7.8,7.8,0,0,0,20,96.9a6.3,6.3,0,0,0-4.2-2.5,4.3,4.3,0,0,0-4.2,1.5,7,7,0,0,0-1.7,4.9,10.8,10.8,0,0,0,.4,3C9.2,105.9,7.7,107,6,107a3.8,3.8,0,0,1-3.4-2,9.9,9.9,0,0,1-1.2-5.1V86.2c0-6.8,2.2-8.1,7.4-6.7l13.3,3.4c5.1,1.1,8.1,4.8,8,9.4Q31.3,121.4,32.4,150.3Z" transform="translate(-0.4 -0.3)" style="fill: #029c54"/>
      <path id="Vector_83" data-name="Vector 83" d="M65.8,95.7a99.8,99.8,0,0,1-3.2,9.7,9.2,9.2,0,0,1-3.2,4.6,6.9,6.9,0,0,1-4.9,1.6c-2.1-.2-3.6-1-4.3-2.5a6.2,6.2,0,0,0,4.1-4.6,4.3,4.3,0,0,0-.8-3.8,5.5,5.5,0,0,0-4-2,6.7,6.7,0,0,0-4.7,1,4.8,4.8,0,0,0-2.1,3.8,8.3,8.3,0,0,0,1.8,5.3,14.1,14.1,0,0,0,4.5,4.3,23.7,23.7,0,0,0,10.1,2.4v1.9H54.5a14.4,14.4,0,0,0-5.7.9,3.2,3.2,0,0,0-1.5,2.1,5.8,5.8,0,0,0,.6,4.2,61.4,61.4,0,0,0,5.7,9.2c2.4,3.6,4.9,7.1,7.2,10.8a54.1,54.1,0,0,1,5.1,10.6c.4,1.1.3,1.8-.3,2.2a3.3,3.3,0,0,1-2.3.2,186.1,186.1,0,0,0-23.6-3.3c-1.7-.1-2.9-.3-3.4-.8s-.7-1.4-.8-3.3c-.9-20.4-1.8-40.7-2.5-61.2-.1-1.5.2-2.4.9-2.8s1.9-.5,3.8-.2c7.1,1,14.1,1.8,21.2,2.4S67.1,91,65.8,95.7Z" transform="translate(-0.4 -0.3)" style="fill: #029c54"/>
    </g>
    <g id="excite">
      <path id="Vector_84" data-name="Vector 84" d="M99,340.6a47,47,0,0,0-1.2,5.1,4.1,4.1,0,0,1-1.3,2.3,4.3,4.3,0,0,1-2.3,1c-1,0-1.7-.3-2-1a3.4,3.4,0,0,0,1.8-2.6,3,3,0,0,0-.1-1.9,1.5,1.5,0,0,0-1.4-.9,2.9,2.9,0,0,0-2,.8,4,4,0,0,0-1.2,2.1,4.7,4.7,0,0,0,.1,2.9,3.1,3.1,0,0,0,1.8,1.6,12.8,12.8,0,0,0,5.2.7v.8l-2.4.2a5.8,5.8,0,0,0-2.8.8c-1.8,1-2.4,2.8-1.8,5.3a5.7,5.7,0,0,0,1.3,2.7,2.4,2.4,0,0,0,1.8,1c.7,0,1.1-.4,1.4-1.1A3.8,3.8,0,0,0,94,358c-.3-1.6-.9-2.7-2-3.2a2,2,0,0,1,2-1.3,3.2,3.2,0,0,1,2.4,1.1,6.3,6.3,0,0,1,1.4,3.2c.5,2.7.8,4.2,1.3,6.5s-.2,3.2-2.3,3.3H90.3a2.2,2.2,0,0,1-1.8-.6l-.4-.9c-3.2-10.6-4.1-17.2-.2-27.8l.7-1.2a1.9,1.9,0,0,1,1.1-.7h.8l6.7.4C99.3,337,99.8,338.2,99,340.6Z" transform="translate(-0.4 -0.3)" style="fill: #fe22b8"/>
      <path id="Vector_85" data-name="Vector 85" d="M112.1,350.6c0,5.1.2,10.2.4,15.2a2.3,2.3,0,0,1-.1,1.3,2,2,0,0,1-1.1.2h-1.4a3.4,3.4,0,0,1-3.1-1.4,6.4,6.4,0,0,1-1.2-2.9,6.7,6.7,0,0,1,0-2,1.9,1.9,0,0,0,1.1-1.2,4,4,0,0,0,.3-2.2,4.7,4.7,0,0,0-.9-2.5,2,2,0,0,0-1.8-1,2.2,2.2,0,0,0-1.7,1,4.2,4.2,0,0,0-.5,2.2,18.4,18.4,0,0,0,1.4,5.6,9.8,9.8,0,0,0,3.5,4.4h-5.8a3,3,0,0,1-.5-1c-.7-3.2-1.3-6.4-1.9-10.8q-.5-2.7.9-3.9a4.9,4.9,0,0,1,3.2-1.3h1a.1.1,0,0,0-.1-.1,3.9,3.9,0,0,0-1.8-.4c-1.7.1-3,.6-3.6,1.7a42.4,42.4,0,0,1,2.3-12.6,4.6,4.6,0,0,1,.7-1.3,1,1,0,0,1,1-.2l2.2.3c1.1.1,1.8.8,2.3,2.1a4,4,0,0,1,.1,2.2,3.1,3.1,0,0,1-.3,1.3,2.7,2.7,0,0,0-2.5,2.4,2.1,2.1,0,0,0,.5,1.7,2.1,2.1,0,0,0,1.8.7,3.1,3.1,0,0,0,1.8-.7,3.8,3.8,0,0,0,.8-1.7,11.8,11.8,0,0,0-2.2-7.7l4.7.7c.5.1.8.2.9.5a2.2,2.2,0,0,1,.1.9,49.3,49.3,0,0,0-.5,7.6,3.6,3.6,0,0,1-1.3,2.9,4.8,4.8,0,0,1-3.1,1.2h-.9q-.1.2.6.3l1.3.3a5.1,5.1,0,0,0,2-.6A8.9,8.9,0,0,0,112.1,350.6Z" transform="translate(-0.4 -0.3)" style="fill: #fe22b8"/>
      <path id="Vector_86" data-name="Vector 86" d="M125.3,346.5a2.2,2.2,0,0,1-.8,1.9,2.9,2.9,0,0,1-2.3.9,3.3,3.3,0,0,1-2.8-1.3,2.4,2.4,0,0,0,1.6-.5,1.4,1.4,0,0,0,.6-1.2,2.5,2.5,0,0,0-.8-1.4,2.8,2.8,0,0,0-1.5-.6,2.3,2.3,0,0,0-2.4,1,4.1,4.1,0,0,0-.7,2.5,5.6,5.6,0,0,0,1.9,4,5.3,5.3,0,0,0,3.8,2.1,4.7,4.7,0,0,0,3.5-1.5c-.1,3.4-.2,6.5-.4,10.7s-1.3,4.5-3.6,4.4h-4.2c-2.3-.1-3.5-.9-3.7-4.5-.1-7-.5-14.1,0-21,.2-1.8,1.4-2.6,3.5-2.2l4.8.8c2,.3,3,1.3,3.1,2.8S125.1,345.2,125.3,346.5Z" transform="translate(-0.4 -0.3)" style="fill: #fe22b8"/>
      <path id="Vector_87" data-name="Vector 87" d="M133.4,367.1a2.4,2.4,0,0,1-.2,1.3h-1.1l-4.4-.5a1.7,1.7,0,0,1-1.2-.3,3.3,3.3,0,0,1-.2-1.4c.2-5.9.5-11.8.4-17.6a12.7,12.7,0,0,0,3.4-.5q2-.4,1.8-1.5a1.5,1.5,0,0,0-.7-1.1,3,3,0,0,0-1.6-.5c-.7,0-1.2,0-1.5.3a1.1,1.1,0,0,0-.4,1.1,1.4,1.4,0,0,0,.2.6l-1-.3a1,1,0,0,1-.5-.8v-.7a3.1,3.1,0,0,0-.1-1,16.5,16.5,0,0,0-.2-2.1,1.3,1.3,0,0,1,.4-.9h1l4,.5a1.6,1.6,0,0,1,1.1.3,1.2,1.2,0,0,1,.3.9C133.5,351,133.4,359,133.4,367.1Z" transform="translate(-0.4 -0.3)" style="fill: #fe22b8"/>
      <path id="Vector_88" data-name="Vector 88" d="M146.7,343.8c.4,4.8.5,9.6.6,14.4l-.6-.2a3.9,3.9,0,0,1-1.2-1.7c-1.8-4.3-2.7-6.6-2.8-8.1l1.2.2a3.3,3.3,0,0,0,1.4-.4c.3-.3.5-.5.5-.8s-.3-.6-.7-.9a6.1,6.1,0,0,0-1.7-.4,3.3,3.3,0,0,0-1.5.3c-.4.2-.6.5-.5.8.1,1.8.6,3.8,1.6,8.4.5,2.1,1.4,5.6,2.7,9.5s1.7,4.7,1.8,5.2-.3.6-1,.5L135.9,369c-.7-.1-1.1-.4-1.1-.8s.5-1.6,1.6-4.5a49.9,49.9,0,0,0,2.3-8.4c.9-4.4,1.3-6.5,1.1-8.3a1.7,1.7,0,0,0-.7-1,2.9,2.9,0,0,0-1.6-.4,2.2,2.2,0,0,0-1.5.3.8.8,0,0,0-.6.9,1.7,1.7,0,0,0,.7,1,3.1,3.1,0,0,0,1.7.4h.9c.2,1.6-.6,4.1-2.2,7.7-.5,1.2-1.1,1.7-1.8,1.7-.1-5-.2-9.7-.7-14.6-.1-.6.2-1,.7-.9,4.5.4,6.7.6,11.2.8A1,1,0,0,1,146.7,343.8Z" transform="translate(-0.4 -0.3)" style="fill: #fe22b8"/>
      <path id="Vector_89" data-name="Vector 89" d="M159.7,345.7a10.9,10.9,0,0,0-.1,1.7c0,.4-.4.7-.8,1a4.2,4.2,0,0,1-2,.4,3.1,3.1,0,0,1-1.9-.5q1.2-.3,1.2-.9c0-.3-.2-.5-.6-.7l-1.6-.4a4.1,4.1,0,0,0-1.6.3c-.4.2-.6.4-.6.7a1.7,1.7,0,0,0,.8,1.2,4.9,4.9,0,0,0,1.9,1,19.9,19.9,0,0,0,4.7.6v.7l-2.1.2a5.7,5.7,0,0,0-2.6.8c-1.7,1.2-2.4,3.4-2.3,6.8a9.6,9.6,0,0,0,.9,3.7c.5,1,1,1.5,1.6,1.6s1.2-.4,1.5-1.3a7,7,0,0,0,.5-3.4q-.2-3.3-1.5-4.5c.5-1.1,1.1-1.5,1.9-1.5s1.4.4,2,1.5a11,11,0,0,1,1,4.7c.2,3.8.4,6,.6,9.3s-.9,4-3.1,3.7l-6.8-1.2c-1-.2-1.5-.4-1.6-1a2.8,2.8,0,0,1-.1-1.1c-.3-8.2-.4-16.6-.9-24.8v-.8a.8.8,0,0,1,.8-.5h.8l7,.3C158.6,343.5,159.7,344.6,159.7,345.7Z" transform="translate(-0.4 -0.3)" style="fill: #fe22b8"/>
    </g>
    <g id="great">
      <path id="Vector_90" data-name="Vector 90" d="M15.1,376.7c-.1,3.6-1.3,4.4-3.8,4.4H5.2c-2.7,0-4-.8-4-4.4.2-14.8.2-29.6,0-44.5,0-8.3,1.4-8.9,4.4-8.6a35.8,35.8,0,0,1,5.4.9,7.1,7.1,0,0,1,3.2,1.2c.8.7,1.2,2.1,1.3,5.3v17.8c-1.3-4.2-2.8-6.9-4.6-7s-3.4,2.2-4.7,6.6a51.2,51.2,0,0,0-1.6,10.5,16.6,16.6,0,0,0,.8,5c.7,2.2,1.6,3.6,2.9,3.6s1.4-.5,2-1.4a6.5,6.5,0,0,0,.8-3.1,4.5,4.5,0,0,0-.7-2.8,2.4,2.4,0,0,0-2-.8,2.1,2.1,0,0,0-1.8.7.9.9,0,0,0-.1-.5,9.4,9.4,0,0,1,1.3-4.2c.9-1.8,2-3,3.2-2.9s2.3,1.1,3.2,2.8a9.4,9.4,0,0,1,1.4,4.2C15.5,365.3,15.3,371,15.1,376.7Z" transform="translate(-0.4 -0.3)" style="fill: #029c54"/>
      <path id="Vector_91" data-name="Vector 91" d="M32.5,381.1H31c-2.4,0-4.5-.8-6.1-4.7a31.5,31.5,0,0,1-2-13.2c.2-4.4.9-6.3,2.3-10.2a1.5,1.5,0,0,0,1.1.6c.8,0,1.5-.5,2.1-1.6a12.2,12.2,0,0,0,.8-4.8,15.3,15.3,0,0,0-.8-4.9c-.6-1.4-1.3-2.2-2-2.3s-1.7.6-2.4,2.4a23.4,23.4,0,0,0-1.1,5.3c-.3,1.9-.5,5.1-.8,8s-.5,4.1-.6,5.4.1,6.7.5,11,.9,7.4,1.7,8.9h-6c-.7,0-1.1-.4-1.1-1.8.4-16.7.6-33.4.5-50.1a8.3,8.3,0,0,1,.2-2.5c.2-.4.7-.4,1.5-.2l9.3,2.7c5.3,1.8,4.7,7,5,11.2s0,5.7-.1,9.3-.2,5-.7,6.2a3.1,3.1,0,0,1-2.2,2.1c-.2.1-.3.2-.3.4s.1.3.4.3a3.1,3.1,0,0,1,2.1,1.5c.4.8.6,2.2.4,4.6-.2,4.4-.5,8.9-.7,13.4A3.9,3.9,0,0,0,32.5,381.1Z" transform="translate(-0.4 -0.3)" style="fill: #029c54"/>
      <path id="Vector_92" data-name="Vector 92" d="M48.6,338.8c-.1,3.8-.1,6.3-.1,10.5a9.1,9.1,0,0,1-1,4.7,2.5,2.5,0,0,1-4.8-.3c.9-.9,1.5-2.6,1.5-5.1a10.8,10.8,0,0,0-.8-4.2c-.5-1.2-1.1-1.8-1.8-1.9s-1.4.4-2,1.5a11.9,11.9,0,0,0-.8,4.6,18.8,18.8,0,0,0,.9,5.9,5.9,5.9,0,0,0,2.3,2.9c1.2.7,3.2,1,6,1.1,0,.4.1.6.1,1l-2.8.2a7.2,7.2,0,0,0-3.3.9c-2.2,1.3-3.4,3.6-3.6,7.1a7.1,7.1,0,0,0,.5,3.7,2.2,2.2,0,0,0,1.9,1.4,2.5,2.5,0,0,0,2.1-1.3,7.1,7.1,0,0,0,1-3.3c.1-2.2-.3-3.6-1.3-4.5a2.6,2.6,0,0,1,2.5-1.5,3,3,0,0,1,2.5,1.5,8.2,8.2,0,0,1,.9,4.5c-.2,3.6-.2,5.6-.4,8.7s-1.7,4.3-4.5,4.3H35.3c-1.2,0-1.8-.2-2-.8a5.4,5.4,0,0,1,0-1.3c.8-15.1,1.1-30.1,1.2-45.3a6.7,6.7,0,0,1,.1-1.8.8.8,0,0,1,.9-.6l1,.2a77.6,77.6,0,0,0,8.4,1.5C47.4,333.3,48.7,334.3,48.6,338.8Z" transform="translate(-0.4 -0.3)" style="fill: #029c54"/>
      <path id="Vector_93" data-name="Vector 93" d="M66.6,379c.1,1.1-.1,1.6-.4,1.8a4.2,4.2,0,0,1-1.8.3H60.2c1.6-4.2,1.1-9.3.9-13.5-.2-6-1.6-8-3.6-8a2.6,2.6,0,0,0-2.1,1,3.7,3.7,0,0,0-.9,2.7,5.2,5.2,0,0,0,1,3.3,3,3,0,0,0,2.3,1.4,1.7,1.7,0,0,0,1-.3,25,25,0,0,1,1,7.2,12,12,0,0,1-.5,4.8,2.2,2.2,0,0,1-2.1,1.3H54.5c-3.6,0-5.3-1.1-5-6s.2-6.9.3-11,.9-5.3,2.6-6.7l5-2.8a5.4,5.4,0,0,0,2.8-5,8.3,8.3,0,0,0-.8-3.9,2.7,2.7,0,0,0-2-1.8c-.8-.1-1.5.4-2.2,1.4a7.4,7.4,0,0,0-.9,3.8,12.2,12.2,0,0,0,.1,2.1c-.6,1.5-1.3,2.2-2.2,2.2a2.1,2.1,0,0,1-1.7-1.4,7.5,7.5,0,0,1-.7-3.5c0-3.9,0-6.2.1-9.6s1.6-5.1,4.5-4.7l7.2.8c3.1.3,4.2,1.4,3.7,6C64.3,353.9,66.1,366.2,66.6,379Z" transform="translate(-0.4 -0.3)" style="fill: #029c54"/>
      <path id="Vector_94" data-name="Vector 94" d="M84.7,338.1c-2.4,10.9-2.1,19.5.2,30.3l-.8-.2a5.1,5.1,0,0,1-1.8-1.8c-2.2-3.5-5.5-7.7-5.1-12a1.7,1.7,0,0,0,1.3.5,2.3,2.3,0,0,0,1.9-1.3,8,8,0,0,0,.9-3.2,7.8,7.8,0,0,0-.5-3.5,2,2,0,0,0-1.8-1.6,2.6,2.6,0,0,0-2.2,1.5,7.6,7.6,0,0,0-1.1,3.4c-.2,6.2.8,9.4,3.2,15.3a92,92,0,0,0,5,9.7c1.8,3.3,2.6,4.6,2.6,5.1s-.4.8-1.3.8H70.4c-1.1,0-1.6-.2-1.6-.8s.8-1.9,2-5.2a39.8,39.8,0,0,0,2.2-9.7c.2-5.1.3-10.1.6-15.1a7,7,0,0,0-.5-3.6,2.3,2.3,0,0,0-1.9-1.7,2.7,2.7,0,0,0-2.3,1.3,7,7,0,0,0-1.1,3.7,7.1,7.1,0,0,0,.7,3.4,2.1,2.1,0,0,0,2,1.4,1.7,1.7,0,0,0,1.3-.4c0,4.8-.2,7.3-2,11.6-.5,1.4-1.3,2.1-2.3,2-1.2-10.6-1.5-20.2,0-30.9.2-1.2.7-1.6,1.5-1.5,5.1.3,10.1.7,15.2.7C84.9,336.3,85,336.8,84.7,338.1Z" transform="translate(-0.4 -0.3)" style="fill: #029c54"/>
    </g>
    <g id="exit_4" data-name="exit 4">
      <path id="Vector_95" data-name="Vector 95" d="M12.9,60.3a10.4,10.4,0,0,1-.5,3.1,3.7,3.7,0,0,1-2.1,2l-.2.2h.2a3.4,3.4,0,0,1,2.1,1.4,8.4,8.4,0,0,1,.7,2.7l.5,5.2a4.1,4.1,0,0,1-.4,3c-.5.5-1.4.6-2.8.3L2.9,77a3.4,3.4,0,0,1-1.4-.4,1.1,1.1,0,0,1-.4-1V56.2a1.3,1.3,0,0,1,.4-.9H2.6l6.5-.4c1.9-.1,3.1.3,3.6,1.3A12,12,0,0,1,12.9,60.3ZM8.9,71a3,3,0,0,0-.8-1.7,2.1,2.1,0,0,0-1.6-.7,1.5,1.5,0,0,0-.9.2,4.8,4.8,0,0,1-1-2.9,3.3,3.3,0,0,1,.8-2.5h.9a2.2,2.2,0,0,0,1.5-.6,2.1,2.1,0,0,0,.7-1.5,2,2,0,0,0-.6-1.5,1.7,1.7,0,0,0-1.5-.5c-1.2,0-2.1.9-2.5,2.5a24.5,24.5,0,0,0-.3,3.7A25.6,25.6,0,0,0,4,69.9c.5,2,1.5,3.1,2.9,3.2a1.7,1.7,0,0,0,1.5-.5A2.2,2.2,0,0,0,8.9,71Z" transform="translate(-0.4 -0.3)" style="fill: #029c54"/>
      <path id="Vector_96" data-name="Vector 96" d="M24.5,79.2a3.2,3.2,0,0,1-.1,1.6c-.2.3-.7.3-1.4.2-2.3-.4-3.5-.7-5.9-1.3a2.4,2.4,0,0,1-1.6-.6,2.8,2.8,0,0,1-.6-1.8,139.1,139.1,0,0,1-.6-21.4c.1-.7.2-1.1.4-1.2a2.4,2.4,0,0,1,1.2-.4l7.3-.7a.9.9,0,0,1,.9.2.8.8,0,0,1,.3.9c0,1.1-.8,2.8-2.3,4.8-2.6,3.5-4,4.9-4.1,5.1a9.8,9.8,0,0,0-1.6,6.8,4.2,4.2,0,0,0,.8,2.3,2,2,0,0,0,1.5,1,1.4,1.4,0,0,0,1.4-.6,3.1,3.1,0,0,0,.5-2,4.8,4.8,0,0,0-.7-2.2,1.7,1.7,0,0,0-1.4-.9,4.5,4.5,0,0,1-.1-1.1,4.7,4.7,0,0,1,.5-2.9,2.9,2.9,0,0,1,2.5-1.4,2.3,2.3,0,0,1,1.8.8,3.6,3.6,0,0,1,.8,1.9C24.2,70.5,24.4,74.8,24.5,79.2Z" transform="translate(-0.4 -0.3)" style="fill: #029c54"/>
      <path id="Vector_97" data-name="Vector 97" d="M37,81.5c0,1-.2,1.4-.5,1.5H35.3l-3-.5c.6-1.5.9-5.4.7-10.3s-1.1-5.8-2.5-5.8a1.8,1.8,0,0,0-1.5.7,2.5,2.5,0,0,0-.7,1.9,4.8,4.8,0,0,0,.7,2.4,2,2,0,0,0,1.6,1h.6a25.4,25.4,0,0,1,.7,5.4,14.3,14.3,0,0,1-.3,3.6c-.2.7-.7.9-1.4.9l-1.6-.2c-2.2-.4-3.2-1.5-3.3-5s-.2-4.6-.3-7.4.5-3.8,1.9-4.8l3.7-1.7a3.4,3.4,0,0,0,2.3-2.9,2.8,2.8,0,0,0-.5-2,1.6,1.6,0,0,0-1.5-.6,2.9,2.9,0,0,0-1.6.9,4.6,4.6,0,0,0-.8,1.9,3.7,3.7,0,0,0,.1,1.1c-.5.8-1,1.2-1.7,1.2a1.8,1.8,0,0,1-1.3-.6,2.2,2.2,0,0,1-.3-1.6c.1-1.7.2-2.7.3-4.3s1.1-3.2,3.1-3.5,2.8-.4,5-.9,3.6.3,3.5,3.1C36.8,63.8,37,72.6,37,81.5Z" transform="translate(-0.4 -0.3)" style="fill: #029c54"/>
      <path id="Vector_98" data-name="Vector 98" d="M54,59.9a5.3,5.3,0,0,1-1.3,3.9,4,4,0,0,1-3.3,1.3,4.4,4.4,0,0,1-3.8-2,3.2,3.2,0,0,0,2.3-.8,3.7,3.7,0,0,0,.9-2.5,4.7,4.7,0,0,0-.8-2.6,2.3,2.3,0,0,0-2.1-.9,3.9,3.9,0,0,0-3.2,2.4,8.1,8.1,0,0,0-1.1,4.1c-.2,2.3.6,3.4,2.2,4.8a8.5,8.5,0,0,0,5.1,2.3,9.1,9.1,0,0,0,4.9-1.3,105.4,105.4,0,0,1-1.1,10.9c-.7,4.2-2.7,5.4-5.4,5.1l-5-.6c-2.8-.4-4-1.7-3.9-5.5-.2-8.2-.1-16.2.2-24.4.1-2.5,1.2-3.6,3.9-4.2L49,48.5c2.6-.6,4.3.4,4.7,3.7A66.1,66.1,0,0,1,54,59.9Z" transform="translate(-0.4 -0.3)" style="fill: #029c54"/>
      <path id="Vector_99" data-name="Vector 99" d="M70.3,74.1a43.9,43.9,0,0,1-2.6,11,5.3,5.3,0,0,1-.8,1.7,1.1,1.1,0,0,1-1.2.4l-4-.6c2.1-3.8,2.9-8.3,3.7-12.4a7.2,7.2,0,0,0-.2-4.3,2.4,2.4,0,0,0-2.1-1.4,3.5,3.5,0,0,0-2.2.8,2.8,2.8,0,0,0-1.1,2.2,3.7,3.7,0,0,0,.5,2.8A2.7,2.7,0,0,0,62,75.5h.5a13.4,13.4,0,0,1-.4,4.2,21.9,21.9,0,0,1-1.5,4.1c-.9,1.8-2,2.4-3,2.2l-3.1-.4c-.8-.1-1.2-.2-1.3-.5a3.3,3.3,0,0,1,.3-1.7A112.7,112.7,0,0,0,54.8,49c-.1-.8-.1-1.2.1-1.4a2.3,2.3,0,0,1,1.2-.5l4.1-.7c1-.1,1.7.4,2.2,1.7a15.4,15.4,0,0,1,.7,7h-.5a2.4,2.4,0,0,0-1.9,1.4,6,6,0,0,0-.7,3,5.3,5.3,0,0,0,.9,2.9,3.1,3.1,0,0,0,2.2,1.1,2.4,2.4,0,0,0,2.1-1.6,11.8,11.8,0,0,0,.6-5.1A26.3,26.3,0,0,0,63.2,46a38,38,0,0,1,4.6-.3c.5,0,1,.5,1.3,1.8a41.3,41.3,0,0,1,1.4,10.3c.4,5.4-.7,7.8-3,8.6h-.1a.4.4,0,0,0,.1.3C70,67.6,71,69.2,70.3,74.1Z" transform="translate(-0.4 -0.3)" style="fill: #029c54"/>
    </g>
    <g id="relaxed">
      <path id="Vector_100" data-name="Vector 100" d="M21.4,324.2l-1.7-.4c-2.7-.6-5.4-2.1-7.7-7.9a51.5,51.5,0,0,1-3.6-19.2,24,24,0,0,1,2.8-12.2,2.4,2.4,0,0,0,1.2.9c1,.3,1.9-.1,2.6-1.3a13.6,13.6,0,0,0,1.4-5.5,20.1,20.1,0,0,0-.6-6.1c-.6-1.9-1.4-3.1-2.3-3.4s-2.3.2-3.2,2.2a23.2,23.2,0,0,0-1.8,6.1c-.4,2.4-.8,6.2-1.4,9.5a37.7,37.7,0,0,0-.7,6.6c.2,5.2.7,10.5,1.4,15.6s1.1,9,3,13c-3.1-.6-4.7-.9-8.2-1.3-1-.2-1.6-.7-1.6-2.6V252.5c0-1.9.2-2.6.4-2.9s1-.1,2.2.5c4.3,2.4,8.6,4.7,13,6.9,6.3,2.8,5.3,9.1,5,14.4s-.5,6.8-1,11.1-.8,5.9-1.5,7.1a2.8,2.8,0,0,1-2.8,1.6c-.3.1-.4.2-.4.3s.1.4.4.5a6,6,0,0,1,2.5,2.5c.5,1.2.8,3.2.9,6.6.2,6.3.3,12.5.6,18.8A9.8,9.8,0,0,0,21.4,324.2Z" transform="translate(-0.4 -0.3)" style="fill: #04aadc"/>
      <path id="Vector_101" data-name="Vector 101" d="M40,274.8c-.6,4.2-1.1,8.5-1.5,12.7a11.4,11.4,0,0,1-1.8,5.5c-.9,1.2-1.9,1.5-2.9,1.1a4,4,0,0,1-2.4-3.3c1.2-.7,2-2.5,2.4-5.6a13.6,13.6,0,0,0-.3-5.4c-.4-1.7-1-2.7-1.8-3.1s-1.7,0-2.5,1.2a12.9,12.9,0,0,0-1.5,5.3,22.1,22.1,0,0,0,.3,7.4,8.7,8.7,0,0,0,2.1,4.2,17.7,17.7,0,0,0,6.3,3.5,4.9,4.9,0,0,0-.1,1.2l-2.9-.8a6,6,0,0,0-3.5-.1c-2.4.9-3.5,3.7-3.5,8.5a14.4,14.4,0,0,0,1,5.4,4.5,4.5,0,0,0,2,2.5c.9.2,1.5-.2,2.1-1.3a9.7,9.7,0,0,0,.9-4.2,10.7,10.7,0,0,0-1.7-6.5c.7-1.3,1.5-1.6,2.6-1.2a4.3,4.3,0,0,1,2.6,2.8,14.2,14.2,0,0,1,1,6.2c-.1,4.8-.2,7.5-.3,11.6s-1.2,5.3-3.7,4.7l-8.5-2.2c-1.2-.3-1.9-.7-2.1-1.6a5.9,5.9,0,0,1-.2-1.7A382.3,382.3,0,0,1,24.4,264a15.7,15.7,0,0,1,.4-2c.3-.4.7-.4,1.3-.2l1.3.6c4,1.9,5.8,2.8,9.5,4.4S40.6,269.3,40,274.8Z" transform="translate(-0.4 -0.3)" style="fill: #04aadc"/>
      <path id="Vector_102" data-name="Vector 102" d="M51.6,327.8c-.1,1.6-.2,2.4-.5,2.7s-1.1.6-2,.4c-3.6-.7-5.3-1-8.6-1.8-1.1-.3-1.8-.6-2.1-1.1s-.6-1.3-.6-3.2a489.8,489.8,0,0,1,4-52.8c.2-1.6.4-2.1.7-2.3a3,3,0,0,1,1.8.4l9.6,3.9a3.3,3.3,0,0,1,1.3,1.1,3.4,3.4,0,0,1,.3,2c-.2,2.4-1.5,5.9-3.9,10.3A100.6,100.6,0,0,1,45,298.9c-3.2,3.3-3.3,8.6-3.6,12.5a16.8,16.8,0,0,0,.6,5.3c.5,1.4,1.2,2.2,2,2.4s1.5-.2,2.2-1.2a9,9,0,0,0,1.2-4.1,12.7,12.7,0,0,0-.5-4.5,2.9,2.9,0,0,0-1.9-2.2v-2.3c.1-2.5.4-3.4,1.2-4.7s2.2-2.7,3.8-2.3a3.9,3.9,0,0,1,2.6,2.6,9.5,9.5,0,0,1,.9,3.8C53.1,312,52.2,319.9,51.6,327.8Z" transform="translate(-0.4 -0.3)" style="fill: #04aadc"/>
      <path id="Vector_103" data-name="Vector 103" d="M70.6,330.6c0,1.5-.2,2.2-.6,2.4a3.6,3.6,0,0,1-1.9.1l-4.4-.3c1.8-5.6,2.1-11.7,2.6-17.4.7-7.7-.7-9.8-3-9.9a3.4,3.4,0,0,0-2.5,1.1,4.7,4.7,0,0,0-1.2,3.2,8.9,8.9,0,0,0,.6,4.1,2.9,2.9,0,0,0,2.4,1.8,1.7,1.7,0,0,0,1-.3,46.8,46.8,0,0,1,.2,9.4,31.3,31.3,0,0,1-1,6.1,2.3,2.3,0,0,1-2.2,1.5l-2.8-.2c-3.5-.5-5.1-1.9-4.6-8.2.4-4.6.8-9.2,1.1-13.8s1.3-6.2,3.5-7.7l5.9-2.7a5.8,5.8,0,0,0,3.5-5.1,9.8,9.8,0,0,0-.6-4.2,3.1,3.1,0,0,0-2.1-2.1,2.3,2.3,0,0,0-2.4,1.1,7.9,7.9,0,0,0-1.3,3.9,10.4,10.4,0,0,0,0,2.5c-.8,1.6-1.7,2.2-2.6,2.1s-1.4-.7-1.9-1.9A8.9,8.9,0,0,1,56,292c.4-4.3.6-6.7,1-10.5s1.8-5.6,4.6-4.6l7,2.6c2.8,1,4.3,2.6,4.1,7.3Q71.8,308.7,70.6,330.6Z" transform="translate(-0.4 -0.3)" style="fill: #04aadc"/>
      <path id="Vector_104" data-name="Vector 104" d="M94,310.8c-.5,7.3-1.3,14.5-1.9,21.7-.1,1.1-.2,1.7-.5,1.9s-.8.2-1.9.2l-2.4-.2a5.3,5.3,0,0,1-4.7-2.7,9,9,0,0,1-.9-4.8,11.3,11.3,0,0,1,.6-3.1,3.4,3.4,0,0,0,2-1.5,6.8,6.8,0,0,0,1.1-3.3,7.7,7.7,0,0,0-.7-4.1,3.6,3.6,0,0,0-2.5-2.1,2.4,2.4,0,0,0-2.7.9,6.4,6.4,0,0,0-1.3,3.4,26.6,26.6,0,0,0,.3,9.3,13.1,13.1,0,0,0,4.1,7.8l-8.2-.6c-.8,0-1.3-.2-1.5-.5a2.4,2.4,0,0,1-.2-1.7c.2-6.1.7-12.2,1.1-18.3.2-3,.9-5,2.1-6.1a4.5,4.5,0,0,1,4.5-.7l1.1.3h.2c.1-.1,0-.1-.2-.3a7.6,7.6,0,0,0-2.6-1.2c-2.3-.6-3.8-.3-4.8,1.3-.5-7.5.2-15.1.3-22.6a5.8,5.8,0,0,1,.1-1.7c.2-.2.6-.2,1.3.1l2.7,1a7,7,0,0,1,3.9,3.6,13.6,13.6,0,0,1,1.3,4.3,22.6,22.6,0,0,1-.1,2.5c-1.8,0-2.6,1.5-2.5,4.4a7.6,7.6,0,0,0,1.1,3.7,4.4,4.4,0,0,0,2.7,2,1.9,1.9,0,0,0,2.3-.6,5.4,5.4,0,0,0,.6-3.3c-.6-5.4-2.1-11.2-6.1-15.5,2.4.9,3.6,1.4,6.1,2.2.8.3,1.3.5,1.5.8a3.5,3.5,0,0,1,.7,1.5c1.2,5.5,1.8,11.1,2.7,16.6.5,2.5.2,3.9-.7,4.5a6.5,6.5,0,0,1-4.7.4L86,310c0,.2.2.5.9.9a6.2,6.2,0,0,0,1.9.9,5.7,5.7,0,0,0,2.9.1A5.5,5.5,0,0,0,94,310.8Z" transform="translate(-0.4 -0.3)" style="fill: #04aadc"/>
      <path id="Vector_105" data-name="Vector 105" d="M110.3,298.3c1,3.5,1.4,5.7,2.3,9.5.5,1.8.4,3.1-.2,4a2.2,2.2,0,0,1-2.7.8,6,6,0,0,1-3.8-2.8c1.1-.4,1.4-1.8.8-4a8.9,8.9,0,0,0-1.9-3.9,6.3,6.3,0,0,0-2.8-2.3,1.6,1.6,0,0,0-2.2.8,4.5,4.5,0,0,0-.2,3.5,12.5,12.5,0,0,0,2.4,5.4,12.8,12.8,0,0,0,3.9,3.8,39.9,39.9,0,0,0,8.5,3.6,2.3,2.3,0,0,1,.2,1.1L111,317a13.8,13.8,0,0,0-4.6-.5c-3.2.5-4.9,2.3-5.2,5.6a5.6,5.6,0,0,0,.7,3.7,3.5,3.5,0,0,0,2.4,1.7,3.4,3.4,0,0,0,2.8-.7,4.6,4.6,0,0,0,1.5-2.7,4.4,4.4,0,0,0-1.6-4.4,3.5,3.5,0,0,1,3.5-.6,4.9,4.9,0,0,1,3.1,2.1,5.5,5.5,0,0,1,.9,4c-.4,3-.6,4.5-1,7.2s-2.4,3.8-5.8,3.5L96.6,335c-1.5-.1-2.4-.4-2.5-1.1a5.3,5.3,0,0,1-.1-1.4,136.2,136.2,0,0,0-2.3-42.2c-.2-1-.4-1.5-.4-1.7s.3-.6.8-.6l1.1.3c3.8,1.2,5.7,1.8,10.1,3S109.1,294,110.3,298.3Z" transform="translate(-0.4 -0.3)" style="fill: #04aadc"/>
      <path id="Vector_106" data-name="Vector 106" d="M136.4,334.2c0,1.7-.5,3-1.7,3.7s-2.8.9-4.8.6L117.7,337a7.8,7.8,0,0,1-2.5-.6c-.3-.2-.3-.7-.2-1.8.7-5.2,2.6-11.3,2.3-16.5-.4-6.9-4.1-15.3-5.9-22-.5-1.4-.6-2.1-.4-2.3s1-.2,2.3.1c4.8,1.1,7.3,1.7,13.1,2.8a17.5,17.5,0,0,1,7.2,3.2,7.8,7.8,0,0,1,2.8,6.1Zm-6-14.3c-.6-3-1.1-6.2-1.7-8-1.2-4-3.1-6.4-5.6-6.8a2.1,2.1,0,0,0-2.6.9,4,4,0,0,0-.4,3.3A7.7,7.7,0,0,0,122,313a5,5,0,0,0,3,2,2.4,2.4,0,0,0,1.5-.2,14.8,14.8,0,0,1,2.4,5.3c.5,1.9-.7,3-1.7,4l-1.4-.5a3.6,3.6,0,0,0-2.7.6,3.3,3.3,0,0,0-1.4,2.3,4,4,0,0,0,.8,2.8,3.9,3.9,0,0,0,2.5,1.5c2.3.3,3.9-1.2,4.7-4.3A9.6,9.6,0,0,0,130.4,319.9Z" transform="translate(-0.4 -0.3)" style="fill: #04aadc"/>
    </g>
    <g id="love">
      <path id="Vector_107" data-name="Vector 107" d="M161.2,82.3c-.3,1-.5,1.6-.9,1.9a3.3,3.3,0,0,1-2.3.8c-3.8.3-5.8.5-9.3.6-1.2,0-1.8-.1-2.1-.4s-.2-1,.1-2.2a138.3,138.3,0,0,0,5.1-28.6c0-.9.1-1.4.3-1.6a3.4,3.4,0,0,1,1.6-.1l9.3.8a1.7,1.7,0,0,1,1.7,1.7c0,1.4-1,3.1-2.9,5.4-3.4,4.1-5.4,6.2-5.7,6.5a19.5,19.5,0,0,0-4.4,8.4,3,3,0,0,0,.1,2.5,1.7,1.7,0,0,0,1.8.9,3.6,3.6,0,0,0,2.4-1,4.3,4.3,0,0,0,1.4-2.3,2.7,2.7,0,0,0-.2-2.2,2,2,0,0,0-1.8-.9,7,7,0,0,0,.3-1.4,9.2,9.2,0,0,1,1.6-3.6,4.6,4.6,0,0,1,3.4-1.9,3.9,3.9,0,0,1,2.6.9,2.9,2.9,0,0,1,.8,2.3C163.4,73.3,162.2,77.8,161.2,82.3Z" transform="translate(-0.4 -0.3)" style="fill: #fe22b8"/>
      <path id="Vector_108" data-name="Vector 108" d="M179.6,79.2c-.6,2.9-2,4.1-5.3,4.3l-6.7.6c-3.6.4-5.3-.7-4.6-3.6a109.3,109.3,0,0,0,3.4-22.6c.1-3,1.6-4.1,4.8-3.9l5.9.3c3.1.1,4.7,1.3,4.7,3.9A92.5,92.5,0,0,1,179.6,79.2Zm-3.8-5a2.4,2.4,0,0,0-.4-2.1,2.2,2.2,0,0,0-1.9-.8,27.1,27.1,0,0,1,2.1-5,10.8,10.8,0,0,0,1.4-4.1,2.9,2.9,0,0,0-.8-1.9,3.3,3.3,0,0,0-2-.8,3.2,3.2,0,0,0-2.1.8,3.4,3.4,0,0,0-.9,2,2.3,2.3,0,0,0,1,2,2.9,2.9,0,0,0,2.2.4c-.1,1.2-.8,2.6-2.1,4.7a17.2,17.2,0,0,0-2.5,5.2,2.4,2.4,0,0,0,.4,2.2,2.1,2.1,0,0,0,1.9.7,3.7,3.7,0,0,0,2.3-1A4.3,4.3,0,0,0,175.8,74.2Z" transform="translate(-0.4 -0.3)" style="fill: #fe22b8"/>
      <path id="Vector_109" data-name="Vector 109" d="M197.9,75.1c-.2,4.5-2,6.8-5.7,7.1l-6.3.5c-3.6.3-5.4-1.7-4.1-6.9a96.1,96.1,0,0,0,1.3-20c0-.9.4-1.4,1-1.4H186a2,2,0,0,1,1.8,1.1,22.5,22.5,0,0,1,2.8,5.1,16.5,16.5,0,0,1,1.5,5.9,8.7,8.7,0,0,1-1.1,4.8l-1.2-.3a3.7,3.7,0,0,0-2.2.8,3.6,3.6,0,0,0-1.3,2.1,2.4,2.4,0,0,0,.5,2.1,3,3,0,0,0,2.1.7c1.9-.1,3.4-1.4,4.3-3.9a11.4,11.4,0,0,0,.6-4.7,41.7,41.7,0,0,0-.8-5.9,59.6,59.6,0,0,0-2.3-6.3l-.7-1.7,4.2-.4c.8,0,1.5.8,1.9,2.5A85,85,0,0,1,197.9,75.1Z" transform="translate(-0.4 -0.3)" style="fill: #fe22b8"/>
      <path id="Vector_110" data-name="Vector 110" d="M211.1,57a57,57,0,0,1,1.7,5.6,2.7,2.7,0,0,1-.4,2.5,2.9,2.9,0,0,1-2.3.9,3.6,3.6,0,0,1-2.7-1,1.9,1.9,0,0,0,.9-2.5,3.4,3.4,0,0,0-1.3-2,3.1,3.1,0,0,0-2.1-.8,2,2,0,0,0-1.7.8,2.5,2.5,0,0,0-.3,2.1,6.1,6.1,0,0,0,1.5,2.7,7.5,7.5,0,0,0,2.8,1.8,21.3,21.3,0,0,0,6.1.8c.1.4.1.6.2,1h-2.7a10.9,10.9,0,0,0-3.2.7c-2,.9-3.1,2.2-3.1,3.9a2,2,0,0,0,1.1,1.7,2.6,2.6,0,0,0,2.1.6,2.8,2.8,0,0,0,2.1-.7,1.3,1.3,0,0,0,.7-1.4,2.7,2.7,0,0,0-1.8-2.2,3,3,0,0,1,2.4-.9,4.3,4.3,0,0,1,2.6.9,3.2,3.2,0,0,1,1.3,2.1l.5,3.9c.1,1.9-1,3-3.8,3.2l-9.6.5c-1.4.1-2.2-.1-2.4-.5a2.2,2.2,0,0,1-.2-1,97.1,97.1,0,0,0-2.2-24,7,7,0,0,1-.3-1.4c0-.5.1-.8.5-.9l.8-.2,7.2-.6C207.8,52.6,210,54.1,211.1,57Z" transform="translate(-0.4 -0.3)" style="fill: #fe22b8"/>
    </g>
    <g id="spade">
      <g id="spade_2" data-name="spade 2">
        <path d="M23.2,28.5V43.3c0,4.8-2,6.5-6.5,7.1L8.5,51.5c-4.9.7-7.5-.4-7.5-6.4,0-3.7.1-5.9.1-9.8a11,11,0,0,1,1.4-6.1,3.7,3.7,0,0,1,3.1-1.8,3.9,3.9,0,0,1,3.6,2.1A6.5,6.5,0,0,0,8,33.6a8.9,8.9,0,0,0,1.2,4.6A2.9,2.9,0,0,0,12,39.8a4,4,0,0,0,3.1-2,8.4,8.4,0,0,0,1.2-4.5,8.2,8.2,0,0,0-.9-4.2A8.1,8.1,0,0,0,11.3,26L6.2,24a7.9,7.9,0,0,1-4-3.4,7.5,7.5,0,0,1-1-3.6c0-4.7-.1-7.3-.1-12.1C1.1,1.8,3.1.4,7.3.4H17.4a6.8,6.8,0,0,1,4,1,3.5,3.5,0,0,1,1.8,3.2v8.1a4.1,4.1,0,0,1-1.1,2.8A4.3,4.3,0,0,1,18.8,17a4.5,4.5,0,0,1-3.5-1.4,4.1,4.1,0,0,0,1-2.7,4.2,4.2,0,0,0-1-2.6,3.7,3.7,0,0,0-3-1.4,4.1,4.1,0,0,0-2.9,1A4,4,0,0,0,8,13a4.2,4.2,0,0,0,1.4,3.3A8.5,8.5,0,0,0,12.6,18l6,1.9c2.1.6,3.5,1.6,4.1,3.4A19.2,19.2,0,0,1,23.2,28.5Z" transform="translate(-0.4 -0.3)" style="fill: #fe2b4c"/>
        <path d="M48.5,5.6c-.1,4.2-.3,8.3-.4,12.5a7.2,7.2,0,0,1-1.4,4,5.7,5.7,0,0,1-4.9,2.5,5.6,5.6,0,0,1-4.6-2.3,9.6,9.6,0,0,1-1.8-5.9,5.3,5.3,0,0,0,2.3.6,3.7,3.7,0,0,0,2.9-1.3,5,5,0,0,0,1.2-2.9,4.8,4.8,0,0,0-1-2.8,4.1,4.1,0,0,0-3-1.2,4.2,4.2,0,0,0-2.8,1,4.3,4.3,0,0,0-1.5,2.8,22.3,22.3,0,0,0,0,7.3,24.3,24.3,0,0,0,3.9,8.3c1,1.3,2.1,2.8,3.5,4.3s2.6,2.9,3.2,3.6c2.1,2.9,3.1,5.4,3.1,7.5V44c-.1,1.5-1,2.2-2.9,2.5L28.1,48.8c-1.1.2-1.9.2-2.2-.1a3.5,3.5,0,0,1-.5-2.3c-.1-14.4,0-28.7.1-43.1A4.1,4.1,0,0,1,25.9,1Q26.4.4,28,.4H42.9C46.7.4,48.7,2,48.5,5.6Z" transform="translate(-0.4 -0.3)" style="fill: #fe2b4c"/>
        <path d="M70,41q-.1,1.8-.9,2.1a5.5,5.5,0,0,1-2.2.5l-5.1.4c1.7-4.4,2.2-9.2,2.5-13.8s-1.2-7.8-4.1-7.8a4.2,4.2,0,0,0-2.9,1.2,4,4,0,0,0-1.4,2.9,4.7,4.7,0,0,0,1,3.2,3.4,3.4,0,0,0,2.9,1.1,2.8,2.8,0,0,0,1.3-.3,19.1,19.1,0,0,1,.6,6.7,16.8,16.8,0,0,1-1,5.1,3.8,3.8,0,0,1-2.5,2.1l-3.3.6c-4.2.6-6.4-.9-6.1-6.1s.4-7,.6-11.2,1.4-6.4,3.9-7.9c.5-.3,2.8-1.2,7.2-2.8,2.6-.9,4.1-2.2,4.1-4a3.6,3.6,0,0,0-1.1-2.9,3.6,3.6,0,0,0-2.8-1.2,4.6,4.6,0,0,0-3,1.1,4.4,4.4,0,0,0-1.4,2.8,3.5,3.5,0,0,0,.3,1.6,4,4,0,0,1-3.2,1.8,3.7,3.7,0,0,1-2.5-1,3.9,3.9,0,0,1-.9-2.6c.1-2.7.3-4.2.4-6.9S52.4.6,56.2.6h9.3c3.8,0,5.9,1.7,6,5.6C71.5,17.7,71.1,29.4,70,41Z" transform="translate(-0.4 -0.3)" style="fill: #fe2b4c"/>
        <path d="M96.6,38.7a7.1,7.1,0,0,1-3.3,4.6,7.9,7.9,0,0,1-5.3,1,110.1,110.1,0,0,0-12.8-.9,6.7,6.7,0,0,1-2.7-.3c-.3-.2-.3-.9-.2-2.2A261.3,261.3,0,0,0,73.7,3.4c-.1-1.3-.1-2.1.2-2.5A3.7,3.7,0,0,1,76.2.4H87.4a9.5,9.5,0,0,1,6,2.2,9.3,9.3,0,0,1,3.8,5.6A86.8,86.8,0,0,1,96.6,38.7ZM90.5,21.6a32.8,32.8,0,0,0-.7-7.4c-.9-3.3-2.7-5-5.2-5.1a4.1,4.1,0,0,0-3,1.2,3.8,3.8,0,0,0-1.2,2.8,3.8,3.8,0,0,0,1.3,3,4.7,4.7,0,0,0,3.2,1.2,3.9,3.9,0,0,0,1.9-.2A7.5,7.5,0,0,1,88.5,22a6.9,6.9,0,0,1-1.9,5,3.4,3.4,0,0,0-1.8-.4,4.3,4.3,0,0,0-3.3,1.1,4.4,4.4,0,0,0-1.5,3,4.3,4.3,0,0,0,1,3.1,4.3,4.3,0,0,0,3,1.4c2.7.1,4.7-1.8,5.9-5.7A39.8,39.8,0,0,0,90.5,21.6Z" transform="translate(-0.4 -0.3)" style="fill: #fe2b4c"/>
        <path d="M121,6.3a30.8,30.8,0,0,1,2.3,8.1,4.1,4.1,0,0,1-1,3.7,4.9,4.9,0,0,1-3.6,1.4,5,5,0,0,1-4-1.7c1.6-.7,2.2-1.9,1.9-3.8a4.9,4.9,0,0,0-1.9-3,5.3,5.3,0,0,0-3.3-1.3,3.5,3.5,0,0,0-2.8,1.2,3.8,3.8,0,0,0-.7,3.2,9,9,0,0,0,2,4.3,9.8,9.8,0,0,0,4,2.7,34.1,34.1,0,0,0,9.2,1.4v1.3l-4,.2a19.5,19.5,0,0,0-5.2,1.1c-3.6,1.4-5.5,3.7-6.1,7.2a5.1,5.1,0,0,0,.7,3.7,4,4,0,0,0,2.7,1.7,4.3,4.3,0,0,0,3.4-1.1,5.6,5.6,0,0,0,1.9-3.3c.4-2.3-.3-3.9-1.8-4.8a4.9,4.9,0,0,1,4-1.6,4.1,4.1,0,0,1,3.5,1.8,5.6,5.6,0,0,1,.9,4.9,40.7,40.7,0,0,1-2.5,9.7c-1.6,4.2-4.7,5.3-8.5,4.7s-7.3-1.3-12.3-2c-1.7-.3-2.5-.8-2.4-1.6a5,5,0,0,1,.5-1.5c3.7-13.3,4.1-25.9.4-39.2l-.6-2c-.1-.6.2-1,.9-1.1h13.6A8.9,8.9,0,0,1,121,6.3Z" transform="translate(-0.4 -0.3)" style="fill: #fe2b4c"/>
      </g>
    </g>
    <g id="know">
      <g id="know_2" data-name="know 2">
        <path d="M88.1,71.7c-.1,3-.2,4.7-.2,7.3a2.3,2.3,0,0,1-.2,1.1c-.1.2-.5.3-1,.3l-4.5-.2c.2-1.3.4-4.1.7-8.3a5.1,5.1,0,0,0-.6-3.3,2.5,2.5,0,0,0-2.2-1.1,2.8,2.8,0,0,0-1.9.7,2.5,2.5,0,0,0-.9,1.9,2,2,0,0,0,.7,2,2.5,2.5,0,0,0,1.8.8h.4a8,8,0,0,1,.2,2.8,8.2,8.2,0,0,1-.5,2.8,2.1,2.1,0,0,1-2.3,1.7H74.2c-.8,0-1.3-.1-1.4-.3s-.3-.6-.3-1.2c.7-10.6,1.2-20.7.3-31.2a2.9,2.9,0,0,1,0-1.4c.2-.2.6-.3,1.3-.2l4,.2c1,.1,1.6.6,2,1.9a15.4,15.4,0,0,1,.3,6.4h-.5a1.7,1.7,0,0,0-1.8,1.2,5.4,5.4,0,0,0-.7,2.9,4.7,4.7,0,0,0,.8,2.8,2.6,2.6,0,0,0,2,1.1c.8,0,1.5-.5,2-1.6a8.7,8.7,0,0,0,.7-4.6,30.6,30.6,0,0,0-1.7-9.7l4.9.6c.7.1,1.1.7,1.2,1.7.4,3,.5,5,.7,8.4s-1,7.1-3.4,8.1l-.2.2a.2.2,0,0,0,.2.2C87,66.3,88.3,68.1,88.1,71.7Z" transform="translate(-0.4 -0.3)" style="fill: #04aadc"/>
        <path d="M104.6,80.6a2.5,2.5,0,0,1-.1,1,1.2,1.2,0,0,1-.9.1l-3.4-.3a76.2,76.2,0,0,0-1.3-9.6,37.6,37.6,0,0,0-2.4-8.3,4.3,4.3,0,0,0-.9-1.3,2.3,2.3,0,0,0-1.6-.7,2.1,2.1,0,0,0-1.9,1,4.1,4.1,0,0,0-.6,2.3,2,2,0,0,0,.8,1.7,2.8,2.8,0,0,0,1.7.7,2.9,2.9,0,0,0,1.9-.8,24.3,24.3,0,0,1,1.3,8.8,37,37,0,0,1-.2,4.9,1.1,1.1,0,0,1-1.4.9l-4.7-.4a3.1,3.1,0,0,1-1.3-.2q-.3-.2-.3-1.2c.2-10.2.1-20.3-.7-30.5a2.5,2.5,0,0,1,.1-1.1c.1-.2.4-.3.8-.2l3.4.6a30.6,30.6,0,0,1,.7,3.4,47.1,47.1,0,0,0,1.6,5.5A11.6,11.6,0,0,0,97.3,61a2.9,2.9,0,0,0,2.2,1.2,2,2,0,0,0,1.7-.8,2.8,2.8,0,0,0,.6-2.2,4.3,4.3,0,0,0-1-2.4A2.2,2.2,0,0,0,99,55.7a2.1,2.1,0,0,0-2.2,1.5,28.3,28.3,0,0,1-.8-4,10,10,0,0,1,.3-3.9c.2-.4.7-.5,1.3-.4l3.8.7a2.3,2.3,0,0,1,1.3.5,5,5,0,0,1,.3,1.4C103.9,61.2,104.3,70.8,104.6,80.6Z" transform="translate(-0.4 -0.3)" style="fill: #04aadc"/>
        <path d="M121.2,79.5c.1,3.2-1.3,4.5-4.3,4.1l-6.1-.8c-3.2-.5-4.7-1.7-4.8-4.8-.3-7.8-.5-15.6-1.4-23.4-.3-3.2,1.1-4.2,4.3-3.8l6.4.7c3.6.3,5.6,1.5,5.7,4.6C121.3,63.9,121.1,71.7,121.2,79.5Zm-5-6.3a3.7,3.7,0,0,0-.9-2.5,2.7,2.7,0,0,0-2-1.2,14.1,14.1,0,0,1,1.5-4.9,8.5,8.5,0,0,0,1-4.3,3.3,3.3,0,0,0-1-2.3,3.3,3.3,0,0,0-2.2-1.1,2.1,2.1,0,0,0-2,.6,2.5,2.5,0,0,0-.6,2.1,3.3,3.3,0,0,0,1.2,2.3,3.5,3.5,0,0,0,2.3.9,13.2,13.2,0,0,1-1.6,4.6,10.6,10.6,0,0,0-1.2,5.2,4.1,4.1,0,0,0,.9,2.6,2.6,2.6,0,0,0,2,1.1,2.2,2.2,0,0,0,1.9-.8A3.5,3.5,0,0,0,116.2,73.2Z" transform="translate(-0.4 -0.3)" style="fill: #04aadc"/>
        <path d="M145.3,77.6a51.2,51.2,0,0,1-1,5.1c-.6,1.8-1.7,2.9-3.3,2.8h-2.8c-2.4,0-3.9-2.3-4.1-6.1h-.3c-.7,3.8-2.1,5.9-4.3,5.7l-2.9-.3a3.6,3.6,0,0,1-3.4-3,18.7,18.7,0,0,1-.6-5.7c0-7.6.2-15,0-22.6,0-.9.4-1.3,1.2-1.3l3.1.2a3,3,0,0,1,2.1,1c2.5,2.9,3.5,7.5,3.2,11.5a8.8,8.8,0,0,1-1.4,3.9c-.7,1-1.4,2.3-2.2,3.3a1.6,1.6,0,0,0-.9-.3,2.3,2.3,0,0,0-2,.4,2.7,2.7,0,0,0-.9,2.2,3.5,3.5,0,0,0,.8,2.4,2.6,2.6,0,0,0,1.9,1.2c1.7.1,2.9-1.3,3.7-3.8s2-5.5,2.8-8.8a54.7,54.7,0,0,0,1.7-12.7h1.7c-.2,4.4-.5,8.8-.5,13.1a87.4,87.4,0,0,0,.6,9.1c.2,2.5,1.2,3.9,3,4a2.9,2.9,0,0,0,1.9-.8,2.7,2.7,0,0,0,1-1.8,2.2,2.2,0,0,0-.4-2,2.5,2.5,0,0,0-1.7-.8h-.9a11.7,11.7,0,0,1-1.3-3.5,12.6,12.6,0,0,1-.2-4.3,26.3,26.3,0,0,1,4.5-11.9,2.5,2.5,0,0,1,2.2-1.1h2.5c.6,0,1,.4.9,1.5C148.1,62.1,146.6,69.8,145.3,77.6Z" transform="translate(-0.4 -0.3)" style="fill: #04aadc"/>
      </g>
    </g>
    <g id="happy">
      <g id="happy_2" data-name="happy 2">
        <path d="M237,31.5a2.4,2.4,0,0,1-.4,1.2,1.2,1.2,0,0,1-1.3.4l-6.4-.5c2.1-3.8,3-5.7,3.3-7a4.6,4.6,0,0,0-.3-2.7,2.8,2.8,0,0,0-2.8-1.5,6,6,0,0,0-2.7.7,3.1,3.1,0,0,0-1.4,1.7,1.7,1.7,0,0,0,.7,1.7,3.4,3.4,0,0,0,2.3.8h.6a5.2,5.2,0,0,1,0,2.5c-.5,2.3-1.5,3.7-3,3.7l-5.8-.3a3.1,3.1,0,0,1-1.8-.3,3.4,3.4,0,0,1,.1-1.7c2.1-9.3,4.2-18.5,5.3-27.9a2.2,2.2,0,0,1,.4-1.5,1.8,1.8,0,0,1,1.3-.4h5.8c-1.6,3.8-2.7,6.6-3,8.8a6.3,6.3,0,0,0,.3,3.5,2.6,2.6,0,0,0,2.6,1.4,4.1,4.1,0,0,0,2.6-.9,3.7,3.7,0,0,0,1.4-2.3,2.6,2.6,0,0,0-.8-2.5,3.2,3.2,0,0,0-2.6-.7,10.8,10.8,0,0,1-.2-3.2c.4-2.7,1.1-4.1,2.5-4.1h6c.8,0,1.2.1,1.5.4a4.1,4.1,0,0,1,.1,1.7C240.4,12.2,238.8,21.8,237,31.5Z" transform="translate(-0.4 -0.3)" style="fill: #fe22b8"/>
        <path d="M257.4,32.3c-.1,1-.3,1.7-.7,1.9a3.1,3.1,0,0,1-1.8.2,32.4,32.4,0,0,1-4.4-.2A36.3,36.3,0,0,0,253.2,24c.5-3.9-.6-5.9-3-5.9a4.2,4.2,0,0,0-2.6,1,3.6,3.6,0,0,0-1.4,2.2,2.3,2.3,0,0,0,.7,2.1,3.7,3.7,0,0,0,2.5.9l1.1-.2a9.6,9.6,0,0,1,.3,4.6,13.4,13.4,0,0,1-1.1,3.8,2.5,2.5,0,0,1-2.3,1.4,17.2,17.2,0,0,1-3-.1c-3.9-.3-5.5-2.5-5-5.6s.7-3.7,1.1-6.3a8,8,0,0,1,4.2-5.9l6.2-2.3c2.2-.8,3.4-1.8,3.5-3.2a3.1,3.1,0,0,0-.8-2.3,2.9,2.9,0,0,0-2.2-.9,3.7,3.7,0,0,0-2.5,1,2.5,2.5,0,0,0-1.2,2.2,1.6,1.6,0,0,0,.1,1.2,3.8,3.8,0,0,1-2.7,1.5,2.6,2.6,0,0,1-2-.8,2.3,2.3,0,0,1-.6-2c.3-2.1.4-3.3.6-5.5S245,.4,248,.4h7.6c3.2,0,4.7,1.5,4.6,4.6C259.4,14.2,258.6,23.2,257.4,32.3Z" transform="translate(-0.4 -0.3)" style="fill: #fe22b8"/>
        <path d="M280.5,4.6c-.2,3.8-.3,5.7-.4,9.6a7,7,0,0,1-1.2,3.3,5.2,5.2,0,0,1-4.1,1.9,4.5,4.5,0,0,1-3.8-1.6,7.2,7.2,0,0,1-1.3-4.8,4.1,4.1,0,0,0,1.8.5,3.2,3.2,0,0,0,2.4-1.1,4,4,0,0,0,1-2.2,3,3,0,0,0-.8-2.2,3.2,3.2,0,0,0-2.4-.9,3.9,3.9,0,0,0-2.3.7,3.4,3.4,0,0,0-1.2,2.2,12.3,12.3,0,0,0-.1,5.7,12,12,0,0,0,2.9,6.1,16.9,16.9,0,0,0,2.7,2.5l2.4,2c1.7,1.7,2.4,3.2,2.3,4.7v.2c0,1.1-.8,1.8-2.5,2a96,96,0,0,1-14.2,1.2,3.6,3.6,0,0,1-1.9-.3c-.3-.3-.4-.9-.3-1.9,1.1-9.8,1.9-19.6,2.5-29.5a4.1,4.1,0,0,1,.3-1.9A2.3,2.3,0,0,1,264,.3h12C279,.4,280.6,1.8,280.5,4.6Z" transform="translate(-0.4 -0.3)" style="fill: #fe22b8"/>
        <path d="M301,4.4c-.1,3.6-.2,5.2-.2,8.8a4.6,4.6,0,0,1-1.2,3.2,5.8,5.8,0,0,1-4.3,2,4,4,0,0,1-3.7-1.4,6.8,6.8,0,0,1-1.5-4.6,4.8,4.8,0,0,0,2,.4,3.1,3.1,0,0,0,2.4-1.2,2.8,2.8,0,0,0,.9-2,2.6,2.6,0,0,0-.8-2,3.6,3.6,0,0,0-2.4-.8,4.1,4.1,0,0,0-2.4.8,3.8,3.8,0,0,0-1.3,2.1,14.5,14.5,0,0,0,0,5.5,9.7,9.7,0,0,0,2.8,5.4,11.7,11.7,0,0,0,2.6,1.9l2.4,1.5c1.6,1.1,2.3,2.3,2.1,3.7v.2c-.2,1-1.1,1.7-2.8,2l-13.7,2.5c-.9.1-1.5.1-1.7-.1s-.4-.8-.4-1.6c1.3-9.4,1.9-18.5,2.3-27.9a3.5,3.5,0,0,1,.4-1.9c.2-.3.8-.5,1.7-.5h12C299.5.4,301,1.8,301,4.4Z" transform="translate(-0.4 -0.3)" style="fill: #fe22b8"/>
        <path d="M320.2,23.2a3.1,3.1,0,0,1-2,2.8,18.5,18.5,0,0,1-5.1,1.3l-7.8,1.1c-3.7.5-5.3-.5-4.9-2.5s.2-1.1.4-1.8c.5-2.3,2.2-3.5,4.9-3.7a6.8,6.8,0,0,1,2.1.2l-.2.3a1.1,1.1,0,0,0,.7,1.4,6,6,0,0,0,2.8.2,6.7,6.7,0,0,0,2.5-.8c.8-.4,1.2-.8,1.3-1.3s-.7-1.3-2.1-1.7a13,13,0,0,0-4.2-.4,14.1,14.1,0,0,0-7,2.2c1.6-5.9.9-12.3,1-18.3,0-1.2.6-1.8,1.9-1.8h5.8A15,15,0,0,0,308.8,4a10.8,10.8,0,0,0-.7,3.6,4.7,4.7,0,0,0,.8,2.9,3.4,3.4,0,0,0,2.9,1.4,4.2,4.2,0,0,0,2.5-.9,2.3,2.3,0,0,0,1-1.9,2.3,2.3,0,0,0-.9-1.9,3.5,3.5,0,0,0-2.4-.8h-.6a5.7,5.7,0,0,1-.5-2.7c0-2.2.8-3.4,2.4-3.4H319c.8,0,1.2.5,1.2,1.6Z" transform="translate(-0.4 -0.3)" style="fill: #fe22b8"/>
      </g>
    </g>
    <g id="play">
      <path id="Vector_111" data-name="Vector 111" d="M145.8,5.8a88.3,88.3,0,0,1,1.3,12.5,7.1,7.1,0,0,1-1.2,3.9,5.8,5.8,0,0,1-4.2,2.9,4.6,4.6,0,0,1-4.1-1.9c-1.1-1.3-1.7-2.9-2.1-5.6a3.7,3.7,0,0,0,2.2.5,2.9,2.9,0,0,0,2.4-1.5,3.9,3.9,0,0,0,.6-3,4.3,4.3,0,0,0-1.5-2.8,4,4,0,0,0-3-1.1,3,3,0,0,0-2.3,1.1,4.9,4.9,0,0,0-.8,3.1,44.4,44.4,0,0,0,1,7.3,30.4,30.4,0,0,0,3.4,7.9q1.2,2.1,3,4.8a40.5,40.5,0,0,1,2.8,4.3c2,3.7,3,6.9,3,9.2v.4c0,1.6-.9,2.1-2.8,2.1l-16.7-.8a5.1,5.1,0,0,1-2.4-.6c-.3-.3-.5-1-.4-2.3,1.8-15.1,3.6-27.5-.7-42.4a7.8,7.8,0,0,1-.6-2.6c.1-.5.6-.7,1.6-.7h14.5C142.8.4,145.3,2.1,145.8,5.8Z" transform="translate(-0.4 -0.3)" style="fill: #fe7a04"/>
      <path id="Vector_112" data-name="Vector 112" d="M166.3,46.7a7,7,0,0,1-.4,3.2c-.4.5-1.3.7-2.6.6L152,50.1a6.4,6.4,0,0,1-3.1-.7c-.4-.3-.7-1.3-.7-3.2.4-14.3,1.6-28.8-.9-43a3.7,3.7,0,0,1,.1-2.3,4.3,4.3,0,0,1,2.4-.5h13.9a2.6,2.6,0,0,1,1.7.7,1.8,1.8,0,0,1,.7,1.5c0,1.9-1.1,4.3-3.4,7.3l-6.4,8.3c-3.1,4-3.4,9.4-3.6,13.8a11.1,11.1,0,0,0,.9,5.1,2.8,2.8,0,0,0,5.3,0,9.2,9.2,0,0,0,1.2-4.6,10.3,10.3,0,0,0-.9-4.5,2.4,2.4,0,0,0-2.4-1.6V24a10,10,0,0,1,1.1-5.3,4.8,4.8,0,0,1,4.1-2.5,4.4,4.4,0,0,1,3.3,1.2,4.1,4.1,0,0,1,1.3,3.2Z" transform="translate(-0.4 -0.3)" style="fill: #fe7a04"/>
      <path id="Vector_113" data-name="Vector 113" d="M188.2,47.4q-.3,2.9-.9,3.3a4.1,4.1,0,0,1-2.1.5h-4.8c2-6.3,2.3-13.1,2.7-19.6s-1.1-10.1-4.2-10.3a3.7,3.7,0,0,0-3.2,1.1,4.5,4.5,0,0,0-1.3,3.6,7.7,7.7,0,0,0,1.2,4.3,3.6,3.6,0,0,0,3,1.9,2.8,2.8,0,0,0,1.3-.4,36.1,36.1,0,0,1,.6,9.8,31.4,31.4,0,0,1-1,7.2,3,3,0,0,1-2.4,2.3,15.3,15.3,0,0,1-3.2,0c-4.1-.1-6-1.7-6-8.7.1-5.1.1-10.2.1-15.3s1.2-7.3,3.7-8.6a68.9,68.9,0,0,1,7.7-2.4c2.8-.7,4.5-2,4.6-3.8a3.2,3.2,0,0,0-1.2-2.8,4.8,4.8,0,0,0-3.3-1.2,5.2,5.2,0,0,0-3.3,1.1,3.4,3.4,0,0,0-1.5,2.6,3.3,3.3,0,0,0,.3,1.5,4.2,4.2,0,0,1-3.3,1.6,3.2,3.2,0,0,1-3.4-3.3c0-2.6.1-4,.1-6.5S170,.6,174.1.6h11.2c4.9,0,7.6,1.5,7.2,5.2C191.1,19.6,189.6,33.5,188.2,47.4Z" transform="translate(-0.4 -0.3)" style="fill: #fe7a04"/>
      <path id="Vector_114" data-name="Vector 114" d="M211.9,41.4c-.7,3.2-1.6,5.8-3.1,7.2a7.4,7.4,0,0,1-5,1.9l-8,.5c-3.9.1-5.6-1.9-5-6.9l.5-4.8c.7-6.2,2.8-9,6.3-9a3.7,3.7,0,0,1,2.5.9,2.7,2.7,0,0,0-.3.8,5.7,5.7,0,0,0,.6,4.2,3,3,0,0,0,3,1.5,4.6,4.6,0,0,0,3-2,7.5,7.5,0,0,0,1.8-3.7,3.9,3.9,0,0,0-1.8-4.6,11.9,11.9,0,0,0-5.1-1.3,11.4,11.4,0,0,0-9,3.5c1-9,2.6-18.1,3.3-27.1.1-1.5,1-2.1,2.9-2.1h8.7A25.9,25.9,0,0,0,204.6,5a23.1,23.1,0,0,0-1.8,5.2,8.3,8.3,0,0,0,.3,4.5,3.7,3.7,0,0,0,3.5,2.4,5.1,5.1,0,0,0,3.5-1.1,5,5,0,0,0,2-3.1,3.5,3.5,0,0,0-.5-3,3.3,3.3,0,0,0-2.8-1.3h-.9a8.3,8.3,0,0,1-.2-3.9c.5-3.1,1.6-4.4,3.8-4.4h7.2c.9,0,1.4.6,1.3,1.9C218.4,15.4,214.5,28.5,211.9,41.4Z" transform="translate(-0.4 -0.3)" style="fill: #fe7a04"/>
    </g>
    <g id="friend">
      <path id="Vector_115" data-name="Vector 115" d="M91,129.5v5.1a4,4,0,0,1-1.5,2.9,7,7,0,0,1-4,1.8,5.2,5.2,0,0,1-4.1-1c1.6-.8,2.4-1.9,2.4-3.1a2,2,0,0,0-1.5-1.7,7,7,0,0,0-3.3-.2,8,8,0,0,0-3.4,1.2c-.9.5-1.3,1.1-1.2,1.9a4.5,4.5,0,0,0,2.1,2.5,13.9,13.9,0,0,0,4.5,2.4,26.8,26.8,0,0,0,9.2.6c0,.7.1,1.1.1,1.6l-4,.7a15.2,15.2,0,0,0-5,1.4,2.7,2.7,0,0,0-1.3,1.3,1.7,1.7,0,0,0,.6,1.8,25.2,25.2,0,0,0,4.7,2.9,38.7,38.7,0,0,1,5.5,3.3,6.8,6.8,0,0,1,2.9,4.1,1.1,1.1,0,0,1-.6,1.2,3.6,3.6,0,0,1-1.9.3c-6-.7-12-1.4-18.1-1.9a5.7,5.7,0,0,1-2.6-.6,1.8,1.8,0,0,1-.7-1.3c-1.1-8-2.6-16-4.1-24a1.5,1.5,0,0,1,.7-1.6,9.4,9.4,0,0,1,3.1-1.3c5-1.2,10.1-2.4,15.2-3.4S91.1,127,91,129.5Z" transform="translate(-0.4 -0.3)" style="fill: #fe2b4c"/>
      <path id="Vector_116" data-name="Vector 116" d="M123,163.2h-2.5c-4-.2-7.5-2.3-11-5.7s-5.3-7.2-5.8-11,.6-8.4,2.9-10.9h1.8a5.5,5.5,0,0,0,3.3-1.3,3,3,0,0,0,1.3-2.4,2.1,2.1,0,0,0-1.4-1.8,4.9,4.9,0,0,0-3.2-.5,7,7,0,0,0-3.9,1.5,5.3,5.3,0,0,0-1.8,2.4,19.2,19.2,0,0,0-1.2,4.5,23.1,23.1,0,0,0-.4,6.6,32.3,32.3,0,0,0,2.7,9.3,54.1,54.1,0,0,0,4.4,8.4c-4.1-.3-6.1-.5-10.2-1a2.1,2.1,0,0,1-2.1-2.1c-1.5-10.7-3-20.9-2.5-31.7a4.6,4.6,0,0,1,.4-2,3.9,3.9,0,0,1,2.5-1.1c4.9-.8,9.8-1.5,14.7-2s7.8,2,8,5.8c0,1.7.1,2.4.2,4.1a5.2,5.2,0,0,1-1,3.7,6.7,6.7,0,0,1-3.6,2.4c-.3.2-.5.3-.5.5s.2.4.7.5a5.7,5.7,0,0,1,3.7,1.9,11.9,11.9,0,0,1,1.5,5.2c.5,4.3,1.1,8.7,1.6,13A6.7,6.7,0,0,0,123,163.2Z" transform="translate(-0.4 -0.3)" style="fill: #fe2b4c"/>
      <path id="Vector_117" data-name="Vector 117" d="M137.8,160.5c.1,1.3,0,2-.3,2.3a3.3,3.3,0,0,1-2.2.5h-8.4c-1.2-.1-1.9-.2-2.2-.5s-.5-1-.6-2.3c-.9-8.4-2.1-16.7-2.4-25.2a31.9,31.9,0,0,0,7.1-1.4c2.7-.9,4-1.9,3.8-3.2a2.7,2.7,0,0,0-1.4-2.1,5.3,5.3,0,0,0-3.2-.6,4.5,4.5,0,0,0-3,.9,2,2,0,0,0-1,2,1.7,1.7,0,0,0,.3,1,4.1,4.1,0,0,1-1.9-.2,1.9,1.9,0,0,1-1.2-1.4,5.7,5.7,0,0,1,.1-1.2v-1.7c0-1.4-.1-2.2,0-3.9a2.2,2.2,0,0,1,.7-1.7,5.3,5.3,0,0,1,2.2-.6l7.9-.3a3.2,3.2,0,0,1,2.2.4,2.6,2.6,0,0,1,.5,1.8C135.2,135.7,136.7,148.1,137.8,160.5Z" transform="translate(-0.4 -0.3)" style="fill: #fe2b4c"/>
      <path id="Vector_118" data-name="Vector 118" d="M160.4,125.3c.2,2.3.3,3.2.5,5.2a2.5,2.5,0,0,1-1.3,2.4,7,7,0,0,1-3.9,1.3,5.9,5.9,0,0,1-4.1-1c1.6-.6,2.3-1.5,2.2-2.7s-.5-1.3-1.5-1.8a5.5,5.5,0,0,0-3.2-.8,5.6,5.6,0,0,0-3,.8,2.3,2.3,0,0,0-1.2,2,4.8,4.8,0,0,0,1.8,3.1,9.6,9.6,0,0,0,3.9,2,32.9,32.9,0,0,0,9.7.5c0,.6.1.8.1,1.4l-4.3.6a13.5,13.5,0,0,0-5.2,1.5c-3.5,1.8-5,4.4-4.4,7.9a5,5,0,0,0,2,3.5,4.7,4.7,0,0,0,3.5,1.1,4.5,4.5,0,0,0,3.1-1.7,4.3,4.3,0,0,0,.7-3.3,5.1,5.1,0,0,0-3.3-4.1,4.6,4.6,0,0,1,3.7-2.1,6.6,6.6,0,0,1,4.3,1.2,6.2,6.2,0,0,1,2.4,4.1c.6,3.2,1,4.9,1.4,8.1s-1.3,5.7-5.6,6.5-10,1.3-15.1,1.8c-1.8.2-2.8-.1-3.1-1a11.6,11.6,0,0,1-.3-1.6c-1.1-12.2-2.4-24.4-3.1-36.6a3.2,3.2,0,0,1,.2-1.6c.2-.6.7-.9,1.5-1.1h1.6l13.5-.2C158.1,120.6,160.2,122.5,160.4,125.3Z" transform="translate(-0.4 -0.3)" style="fill: #fe2b4c"/>
      <path id="Vector_119" data-name="Vector 119" d="M188.7,150.6a6.1,6.1,0,0,1-.3,1.5,3.6,3.6,0,0,1-1.5,1l-4.8,1.8c.3-3.2-.3-7.1-1.9-11.9s-3.1-8.2-4.6-9.8a5.4,5.4,0,0,0-1.6-1,7.9,7.9,0,0,0-6.1.7,2.5,2.5,0,0,0-1.1,2.2,3.2,3.2,0,0,0,1.7,2.3,4.6,4.6,0,0,0,3.1.6,6.1,6.1,0,0,0,3.2-1.4c1.5,2.6,2.6,6.4,3.1,11.3a31.9,31.9,0,0,1-.1,6.9,2.7,2.7,0,0,1-2,2.1l-6.6,1.9c-1,.2-1.6.3-1.9.1s-.5-.6-.6-1.7c-1.6-11.6-3.5-23.1-4.3-34.9a2,2,0,0,1,.2-1.4,2.7,2.7,0,0,1,1.6-.5h6a16.4,16.4,0,0,0,.9,3.8,13.4,13.4,0,0,0,2.5,4.3,11.1,11.1,0,0,0,3.4,2.7,8.4,8.4,0,0,0,3.9.6,7.5,7.5,0,0,0,3-.9c.8-.5,1.3-1,1.2-1.6s-.6-1.2-1.6-1.7a5.6,5.6,0,0,0-3.2-.6c-1.9.1-3.2.5-4,1.4a5.1,5.1,0,0,1-1.2-3,6.8,6.8,0,0,1,.7-4.2,3,3,0,0,1,2.6-1l6.7-.2a3.7,3.7,0,0,1,2.2.4,3.9,3.9,0,0,1,.5,1.8A208.8,208.8,0,0,1,188.7,150.6Z" transform="translate(-0.4 -0.3)" style="fill: #fe2b4c"/>
      <path id="Vector_120" data-name="Vector 120" d="M215.2,138.1c-.1.7-1,1.8-2.6,3a28.7,28.7,0,0,1-5.8,3.5l-13.2,5.8a7.1,7.1,0,0,1-2.5.7c-.3-.2-.3-.8-.2-2a181.8,181.8,0,0,0-.6-26.6,4,4,0,0,1,.5-2.2,4.7,4.7,0,0,1,2.8-.6h13.2a9.9,9.9,0,0,1,6.3,2.1c1.7,1.3,2.5,2.7,2.5,4C215.7,133.2,216.3,133.5,215.2,138.1Zm-7.1-5.7a8.1,8.1,0,0,0-.8-3.5c-.8-1.5-2.6-2.5-5.2-2.5a6.1,6.1,0,0,0-3.2.7c-.9.5-1.2,1-1.2,1.5s.6,1.1,1.5,1.5a10.7,10.7,0,0,0,3.2.5l1.9-.2a2.6,2.6,0,0,1,1.8,2.4,5.3,5.3,0,0,1-2,3.5,4.8,4.8,0,0,0-1.7,0,7.6,7.6,0,0,0-3.2,1.2,2.7,2.7,0,0,0-1.4,2.2,1.4,1.4,0,0,0,1.1,1.6,4.2,4.2,0,0,0,2.9-.1,8.2,8.2,0,0,0,5.5-4.3A9.4,9.4,0,0,0,208.1,132.4Z" transform="translate(-0.4 -0.3)" style="fill: #fe2b4c"/>
    </g>
  </g>
</svg>
