<svg width="301" height="472" fill="none" xmlns="http://www.w3.org/2000/svg"><g id="play" fill="#FE7A04"><path d="M21.2 42.1c0-3.4-1.8-5-5.2-5H2.8c-1 0-1.6.2-1.9.6-.2.4-.3 1-.3 2.2v34.7c0 1.2.1 1.8.4 2.1.3.3 1 .5 2 .5h15.5c1.7 0 2.7-.7 2.7-2v-.4c0-1.8-1.1-4-3.2-6.2l-3.1-2.8a22.3 22.3 0 01-3.3-3.2c-1.8-2-3-4.3-3.6-7.3a19 19 0 01-.1-6.8c0-1.1.5-2 1.2-2.5.7-.6 1.6-1 2.5-1 1.1 0 2 .5 2.7 1.2.6.7 1 1.6 1 2.5a4 4 0 01-1 2.6c-.6.9-1.5 1.3-2.5 1.3-.7 0-1.4-.2-2.1-.6 0 2.5.6 4.4 1.7 5.8a5 5 0 004.2 2 5 5 0 004.3-2.2 7 7 0 001.3-4V42.1zM41 73.8V57.6a4.8 4.8 0 00-4.8-4.9c-1.9 0-3.2.8-4.1 2.4-.8 1.3-1.1 3-1.1 5v1.7c1 0 1.9.4 2.5 1.1.6.8 1 1.6 1 2.7 0 1-.5 1.8-1.2 2.6-.7.7-1.6 1-2.6 1s-2-.4-2.6-1.1a4 4 0 01-1.1-3c0-3.6 1.2-7.1 3.5-10.7l6.5-7.9c2.3-2.7 3.5-5.1 3.5-7.1 0-.6-.3-1.2-.7-1.6-.5-.5-1-.8-1.6-.8H25.6c-1.1 0-1.9.2-2.2.5-.3.3-.4 1-.4 2.2v34.1c0 1.5.2 2.4.7 2.8.4.4 1.5.6 3 .6H38c1.2 0 2-.3 2.5-.8.3-.4.5-1.3.5-2.6zM61.7 74.6V42.5c0-3.6-1.8-5.5-5.3-5.5h-8.6c-3.4 0-5.1 1.7-5.1 5.1v6.3c0 1 .3 1.8 1 2.4a3 3 0 002.2 1c1.1 0 2-.6 2.8-1.7a3 3 0 01-.2-1.5c0-1 .3-1.8 1-2.5.8-.7 1.7-1 2.7-1 1 0 2 .4 2.6 1 .7.8 1.1 1.7 1.1 2.7 0 1.7-1.2 3-3.5 3.8-3.8 1.4-6 2.3-6.4 2.6-2.4 1.5-3.5 4-3.5 7.2V71c0 4.1 2 6.2 6 6.2h3c1.1-.3 2-.9 2.3-1.9.3-1 .5-2.6.5-4.5a15 15 0 00-.9-5.6l-1.1.2a3.7 3.7 0 01-3.9-3.8c0-1 .4-1.9 1.1-2.6a4 4 0 012.7-1c2.6 0 4 2.3 4 7 0 5.3-.6 9.3-1.5 12.2h4.5c.9 0 1.5-.1 2-.4.3-.2.5-1 .5-2.2zM83 72.2V39c0-1.3-.4-2-1.3-2h-6.3c-1.7 0-2.6 1.4-2.6 4.4 0 1.4.2 2.6.6 3.6h.7c1 0 1.9.3 2.6 1a3.7 3.7 0 01-2.8 6.4c-1.4 0-2.5-.7-3.2-2-.6-1.1-1-2.4-1-4 0-1.3.3-2.9.8-4.8a25 25 0 011.6-4.7h-6.3c-1.4 0-2 .8-2 2.3v24.4c1.9-1.8 4.2-2.7 7-2.7 1.8 0 3.3.3 4.5 1 1.6.8 2.4 2 2.4 3.5 0 1-.3 1.8-1 2.6-.7.7-1.5 1-2.4 1-1.2 0-2.2-.3-2.9-1a3.6 3.6 0 01-1.1-2.8v-.6a4 4 0 00-2.1-.6c-3 0-4.4 2-4.4 5.6v3c0 3 1.8 4.5 5.5 4.5h7.5c2 0 3.5-.3 4.5-.9 1.1-.7 1.7-2 1.7-4.1z"/></g><g id="love" fill="#FE22B8"><path d="M185.2 76.6V60.3a4.8 4.8 0 00-4.8-4.8c-1.9 0-3.2.8-4.1 2.4-.8 1.3-1.1 3-1.1 5v1.7c1 0 1.9.4 2.5 1 .6.8 1 1.7 1 2.7 0 1-.5 2-1.2 2.6-.7.8-1.6 1-2.6 1s-2-.3-2.6-1a4 4 0 01-1.1-3c0-3.6 1.2-7.2 3.5-10.7l6.5-7.9c2.3-2.7 3.5-5.1 3.5-7.1 0-.6-.3-1.2-.7-1.7-.5-.4-1-.7-1.6-.7h-12.6c-1.1 0-1.9.1-2.2.4-.3.3-.4 1.1-.4 2.3v34.1c0 1.5.2 2.4.7 2.8.4.4 1.5.6 3 .6h11.3c1.2 0 2-.3 2.5-.9.3-.4.5-1.2.5-2.5zM207.4 74.6v-29c0-3.8-2.1-5.8-6.3-5.8h-7.9c-4.2 0-6.3 2-6.3 6v28.8c0 3.6 2.1 5.4 6.4 5.4h8c4 0 6-1.8 6-5.4zm-6.5-6.3c0 1-.4 2-1.2 2.6-.7.8-1.6 1-2.5 1-1 0-2-.3-2.7-1-.7-.7-1-1.6-1-2.7 0-1.5.6-3.6 1.8-6.2 1.4-2.7 2.2-5 2.4-6.8-1 .2-2 0-3-.8-.8-.7-1.2-1.6-1.2-2.8 0-1.1.3-2 1-2.7.7-.8 1.7-1.1 2.7-1.1 1 0 2 .4 2.6 1.1.8.8 1.1 1.7 1.1 2.7 0 1.4-.6 3.4-1.7 6a25.5 25.5 0 00-2 7c1 0 1.9.3 2.6 1 .7.7 1.1 1.7 1.1 2.7zM228.7 70.2v-27c0-2.3-.6-3.4-2-3.4h-7l.8 2.5c1.2 3.9 2 7 2.3 9.1.4 3 .7 6 .7 8.8a31 31 0 01-.6 6.7c-.9 3.4-2.4 5-4.5 5-1.1 0-2-.2-2.7-1-.7-.7-1.1-1.5-1.1-2.6s.4-2 1-2.7c.8-.7 1.7-1 2.7-1 .5 0 1 0 1.6.3 1-2 1.4-4.3 1.4-7s-.5-5.6-1.7-8.8c-1-2.9-2-5.4-3.5-7.6-.7-1.1-1.6-1.7-2.7-1.7h-2.8c-.8 0-1.3.7-1.3 2v28.7c0 6.3 2 9.5 6.3 9.5h7c4 0 6.1-3.2 6.1-9.8zM250 44.9c0-3.4-1.7-5-5.1-5H232c-.7.1-1 .5-1.3 1l-.1 1.8v34.7l.1 1.4c.2.8 1 1.2 2.7 1.2h11.3c3.5 0 5.2-1.6 5.2-4.8v-6.9c0-1.4-.4-2.6-1.3-3.5-1-1-2-1.4-3.3-1.4a4 4 0 00-3.3 1.5c1.4.7 2 1.9 2 3.5 0 1-.3 1.8-1 2.5-.7.8-1.6 1-2.6 1s-1.9-.3-2.6-1a3.6 3.6 0 01-1.2-2.8c0-2.6 1.5-4.7 4.5-6.2 1-.5 2.5-.9 4.4-1l3.6-.3v-1.4c-3.7-.1-6.4-.5-8-1.2a7.1 7.1 0 01-3.2-2.5 6.2 6.2 0 01-1.3-3.8c0-1.2.4-2 1.1-2.8.7-.7 1.6-1 2.7-1a3.5 3.5 0 013.7 3.7c0 1.5-.7 2.7-2 3.3.6 1 1.7 1.5 3.3 1.5 1.2 0 2.3-.4 3.2-1.3.9-1 1.3-2 1.3-3.3v-7z"/></g><g id="family" fill="#029C54"><path d="M181.7 86.9c0-2.6-1.3-3.9-3.9-3.9h-8.7c-.9 0-1.4.2-1.7.5-.4.3-.5.9-.5 1.7v26.6c0 .8.1 1.3.3 1.6.3.2.8.3 1.6.3H180c.5 0 .9-.1 1.2-.4.3-.3.5-.7.5-1.2 0-1.2-.5-2.5-1.4-3.8-.6-.7-1.6-1.7-3.1-3a16 16 0 01-2.7-2.9c-.3-.5-.4-1-.2-1.6.2-.4.5-.7 1-1 .7-.3 1.8-.6 3.2-.7l2.6-.2v-1c-2.6-.1-4.5-.5-5.8-1-1-.5-1.9-1.2-2.6-2-.8-1-1.1-2-1.1-2.8 0-.9.2-1.6.8-2.1.5-.6 1.2-.8 2-.8s1.5.2 2 .8c.6.5.9 1.2.9 2 0 1.2-.6 2-1.6 2.6.5.8 1.4 1.1 2.5 1.1 1 0 1.8-.3 2.5-1s1-1.5 1-2.5v-5.3zM197.6 111.8V87.2c0-2.8-1.3-4.2-4-4.2H187c-2.6 0-4 1.3-4 3.9v4.8c0 .7.3 1.3.8 1.8.4.5 1 .8 1.7.8.9 0 1.6-.4 2.2-1.3-.2-.3-.2-.7-.2-1.1 0-.8.3-1.4.8-2 .6-.5 1.3-.8 2-.8.8 0 1.5.4 2 1 .6.5.9 1.1.9 1.9 0 1.3-1 2.3-2.7 2.9a67 67 0 00-5 2c-1.7 1.1-2.6 3-2.6 5.5v6.6c0 3.2 1.5 4.7 4.6 4.7h2.3c.9-.2 1.5-.6 1.7-1.4.3-.8.5-2 .5-3.5 0-1.7-.3-3.2-.7-4.3l-.9.2a2.8 2.8 0 01-3-2.9c0-.8.3-1.4.9-2a3 3 0 012-.8c2 0 3 1.8 3 5.4 0 4-.3 7.1-1 9.3h3.4c.7 0 1.1 0 1.4-.3.4-.1.5-.7.5-1.6zM221.3 112.4V85.6c0-1-.1-1.8-.4-2-.3-.4-1-.6-2-.6h-4.4c-1.6 0-2.6.7-3 1.9l-.7 1.6c-.2.7-.4 1-.5 1l-.6-1-.7-1.6a2.9 2.9 0 00-2.8-1.9h-4.8c-1 0-1.6.2-1.9.5-.2.3-.3 1-.3 2.1v26.7c0 1 .5 1.4 1.5 1.4h5.7c.8 0 1.4-.4 1.8-1.4.6-2.2 1-4.8 1-7.7-.2-3.8-1-7.2-2.5-10.1l-1.4.3a3 3 0 01-2-.7c-.6-.5-.9-1.2-.9-2.1 0-.8.3-1.5.8-2 .6-.6 1.3-.8 2.1-.8 1.6 0 2.7 1.2 3.5 3.7.5 1.6.8 3.2 1 4.8 0 1.1.2 1.6.5 1.6.2 0 .4-.5.5-1.6 0-1.3.4-2.9 1-4.8.7-2.5 1.8-3.8 3.4-3.8a2.9 2.9 0 013 2.9c0 .9-.4 1.6-1 2.1s-1.2.7-2 .7c-.4 0-.9 0-1.4-.3a21 21 0 00-2.4 10c0 2.6.3 5.2 1 7.7.3 1 .9 1.5 2 1.5h5.6c.9 0 1.3-.4 1.3-1.3zM231.8 111.9V84.6c0-.8-.1-1.2-.4-1.4L230 83h-5.4c-.7 0-1.1.1-1.3.3-.2.1-.3.5-.3 1.2v7.1l-.2 1c0 .3.1.6.4.8.2.2.5.3.8.3.5 0 .8-.3 1-.8-.2-.2-.2-.6-.2-1 0-.8.2-1.4.7-2 .5-.5 1.2-.8 2-.8s1.5.3 2 .9c.5.5.8 1.2.8 2 0 1.4-.8 2.4-2.6 3-1.4.5-3 .7-4.7.7v16.1c0 1 0 1.4.3 1.6.2.2.7.3 1.4.3h5.4c.8 0 1.3 0 1.4-.3.2-.1.3-.7.3-1.5zM247.1 111.1V98.7a3.7 3.7 0 00-3.6-3.7c-1.5 0-2.5.6-3.2 1.8-.6 1-.8 2.3-.8 3.8v1.3c.8 0 1.4.4 1.9.9.4.6.7 1.2.7 2s-.3 1.5-.8 2c-.6.6-1.2.8-2 .8s-1.5-.3-2-.9c-.6-.5-.9-1.3-.9-2.2 0-2.8 1-5.5 2.7-8.2l5-6c1.7-2.1 2.6-4 2.6-5.5 0-.4-.2-.9-.5-1.2-.3-.4-.8-.6-1.2-.6h-9.6c-.9 0-1.5.1-1.7.3-.2.3-.4.9-.4 1.8v26c0 1.2.2 1.9.6 2.2.3.3 1.1.4 2.3.4h8.6c1 0 1.6-.2 2-.6.2-.3.3-1 .3-2zM263.2 109.9V84.6c0-1-.3-1.6-1-1.6h-4.8c-1.4 0-2 1.2-2 3.4 0 1.1.1 2 .4 2.8h.6c.7 0 1.4.2 2 .8a2.8 2.8 0 01-2.2 4.8c-1 0-1.9-.5-2.4-1.5a6 6 0 01-.7-3 19 19 0 011.8-7.3h-5c-1 0-1.4.6-1.4 1.7v18.7a7.6 7.6 0 015.4-2c1.3 0 2.4.2 3.4.7 1.2.6 1.8 1.5 1.8 2.7a3 3 0 01-.7 2 3 3 0 01-4 0c-.7-.6-1-1.3-1-2.2l.1-.4c-.5-.3-1-.5-1.6-.5-2.3 0-3.4 1.5-3.4 4.3v2.2c0 2.4 1.4 3.5 4.2 3.5h5.7c1.6 0 2.7-.2 3.5-.6.8-.6 1.3-1.6 1.3-3.2z"/></g><g id="great" fill="#029C54"><path d="M184.4 147.4v-13c0-1.4-.6-2.6-1.7-3.6a5.6 5.6 0 00-3.8-1.6c-1.5 0-2.8.6-4 1.6a4.6 4.6 0 00-1.5 3.8v.5c.5-.5 1.3-.9 2.2-.9 1 0 1.9.4 2.5 1 .6.7 1 1.4 1 2.4a3.2 3.2 0 01-3.4 3.4c-1.6 0-2.8-1-3.7-2.7-.7-1.3-1-3-1-4.7 0-2.3.7-4.4 2-6.2a7 7 0 015.8-2.8c2.2 0 4 1 5.5 2.8v-8c0-1.6-.5-2.8-1.4-3.3-.7-.4-2-.6-3.9-.6h-6.5c-3.6 0-5.4 1.9-5.4 5.4v26.6c0 2.8 1.6 4.2 4.9 4.2h7.6c3.1 0 4.8-1.4 4.8-4.3zM206.2 151.7a5 5 0 01-1-3.1v-9.7c0-1.8-.2-3-.7-3.9a4.4 4.4 0 00-2.6-1.8c-.3 0-.5-.2-.5-.4l.3-.4c1.3-.2 2.2-.8 2.8-1.7.5-.8.8-2 .8-3.7v-4.7c0-4.5-2-6.8-6-6.8h-11.1c-1 0-1.5.2-1.8.7-.2.3-.2 1-.2 2v31.5c0 1.3.4 2 1.3 2h7.6a35.7 35.7 0 01-3.6-15.7 42 42 0 011.5-9.5c.3-.9.8-1.7 1.5-2.4.8-.9 1.7-1.4 2.8-1.4 1 0 1.7.4 2.4 1 .6.6 1 1.4 1 2.3a3.4 3.4 0 01-3.4 3.4 3 3 0 01-1.3-.2 13.6 13.6 0 00-2.7 8.6c0 3.5 1 6.7 3.2 9.5 2.2 3 4.8 4.4 7.8 4.4h2zM224.5 120c0-3-1.6-4.5-4.7-4.5h-11.5c-.6.2-1 .5-1.2 1l-.1 1.6v31.3l.1 1.3c.2.7 1 1 2.4 1h10.2c3.2 0 4.8-1.4 4.8-4.3v-6.2c0-1.3-.4-2.4-1.3-3.2a4 4 0 00-3-1.2c-1.2 0-2.2.4-2.9 1.3 1.2.6 1.9 1.7 1.9 3.2a3 3 0 01-1 2.3c-.6.6-1.4.9-2.4.9-.8 0-1.6-.3-2.3-1-.7-.6-1-1.4-1-2.5 0-2.3 1.3-4.2 4-5.6.9-.4 2.2-.7 4-1 1 0 2 0 3.2-.2V133c-3.4 0-5.8-.5-7.2-1.1a6.4 6.4 0 01-2.9-2.2c-.8-1-1.1-2.2-1.1-3.5 0-1 .3-1.9 1-2.5.6-.6 1.4-1 2.4-1 .9 0 1.7.4 2.3 1 .7.6 1 1.4 1 2.4 0 1.4-.7 2.4-1.9 3 .6 1 1.7 1.4 3 1.4a4 4 0 003-1.2c.8-.9 1.2-1.8 1.2-3V120zM243.2 149.4v-29c0-3.2-1.6-4.9-4.8-4.9h-7.7c-3.1 0-4.7 1.5-4.7 4.6v5.7c0 .8.3 1.5.9 2 .5.7 1.2 1 2 1 1 0 1.9-.5 2.6-1.5-.2-.3-.3-.8-.3-1.3a3 3 0 011-2.3c.7-.6 1.5-1 2.4-1 1 0 1.7.4 2.4 1 .6.7 1 1.5 1 2.4 0 1.5-1.1 2.7-3.2 3.4a79 79 0 00-5.8 2.3c-2.1 1.4-3.1 3.6-3.1 6.6v7.8c0 3.7 1.8 5.5 5.3 5.5h2.8c1-.2 1.7-.8 2-1.6.3-1 .5-2.4.5-4.1 0-2.1-.2-3.8-.8-5.1l-1 .1a3.3 3.3 0 01-3.5-3.3 3 3 0 011-2.4c.7-.6 1.5-1 2.4-1 2.4 0 3.6 2.2 3.6 6.5 0 4.7-.5 8.3-1.3 11h4c.8 0 1.4-.2 1.8-.4.3-.2.5-.9.5-2zM264.4 117.2c0-1.1-.5-1.7-1.3-1.7h-16.9c-.8 0-1.2.6-1.2 1.7V141c1 0 2-.5 2.8-1.5 2.4-3.1 3.7-6.6 3.7-10.4-.3.3-.8.4-1.4.4-1.1 0-2-.4-2.5-1-.6-.7-.9-1.5-.9-2.4 0-1 .3-1.8 1-2.4.7-.6 1.5-1 2.4-1 1 0 1.8.4 2.4 1.1.6.7 1 1.5 1 2.3 0 4.8-.8 9-2.2 12.8-.6 1.7-1.8 4-3.6 7a16.5 16.5 0 00-2.4 4.8c0 .7.5 1 1.5 1h15.8c1 0 1.5-.3 1.5-1 0-.5-.8-2.1-2.4-4.7a41 41 0 01-3.7-7c-1.4-3.8-2.1-8.1-2.1-12.9a3.3 3.3 0 013.4-3.4c1 0 1.8.4 2.4 1 .6.7 1 1.5 1 2.4 0 1-.4 1.7-1 2.3-.7.7-1.4 1-2.2 1-.8 0-1.3 0-1.7-.3 0 3.7 1.3 7.2 3.9 10.4.5.7 1 1.1 1.8 1.3l.9.2v-23.8z"/></g><g id="friend" fill="#FE2B4C"><path d="M181.7 157.9c0-2.6-1.3-3.9-3.9-3.9h-8.7c-.9 0-1.4.2-1.7.5-.4.3-.5.9-.5 1.7v26.6c0 .8.1 1.3.3 1.6.3.2.8.3 1.6.3H180c.5 0 .9-.1 1.2-.4.3-.3.5-.7.5-1.2 0-1.2-.5-2.5-1.4-3.8-.6-.7-1.6-1.7-3.1-3a16 16 0 01-2.7-2.9c-.3-.5-.4-1-.2-1.6.2-.4.5-.7 1-1 .7-.3 1.8-.6 3.2-.7l2.6-.2v-1c-2.6-.1-4.5-.5-5.8-1-1-.5-1.9-1.2-2.6-2-.8-1-1.1-2-1.1-2.8 0-.9.2-1.6.8-2.1.5-.6 1.2-.8 2-.8s1.5.2 2 .8c.6.5.9 1.2.9 2 0 1.2-.6 2-1.6 2.6.5.8 1.4 1.1 2.5 1.1 1 0 1.8-.3 2.5-1s1-1.5 1-2.5v-5.3zM200 184.7c-.5-.7-.7-1.6-.7-2.6v-8.2c0-1.5-.2-2.6-.7-3.3a3.7 3.7 0 00-2.2-1.6c-.3 0-.4-.2-.4-.3l.3-.3c1-.3 1.8-.7 2.3-1.5.5-.7.7-1.7.7-3.1v-4c0-3.9-1.7-5.8-5.2-5.8h-9.3c-.8 0-1.3.2-1.5.6-.2.3-.2.8-.2 1.7V183c0 1.1.4 1.7 1.1 1.7h6.5a30.3 30.3 0 01-3-13.3c0-1 0-2.4.4-4.4l.8-3.6c.3-.8.7-1.5 1.2-2.1.7-.8 1.5-1.2 2.4-1.2.8 0 1.5.3 2 .9.6.5.9 1.2.9 2s-.3 1.5-.8 2c-.6.6-1.3.8-2.1.8-.4 0-.8 0-1.1-.2a11.5 11.5 0 00-2.2 7.3c0 3 .9 5.7 2.6 8 2 2.6 4.1 3.8 6.7 3.8h1.6zM209.6 182.9v-27.3c0-.8 0-1.2-.3-1.4-.3-.1-.7-.2-1.5-.2h-5.4c-.7 0-1.1.1-1.3.3-.2.1-.3.5-.3 1.2v7.1l-.1 1c0 .3 0 .6.3.8.3.2.5.3.8.3.5 0 .9-.3 1-.8l-.2-1c0-.8.2-1.4.8-2 .4-.5 1-.8 2-.8.8 0 1.4.3 2 .9.5.5.8 1.2.8 2 0 1.4-1 2.4-2.6 3-1.5.5-3 .7-4.8.7v16.1c0 1 .1 1.4.3 1.6.2.2.7.3 1.5.3h5.4c.7 0 1.2 0 1.4-.3.1-.1.2-.7.2-1.5zM226 157.9c0-2.6-1.3-3.9-4-3.9h-9.7c-.5.2-.8.5-1 .8l-.1 1.4v27.6c.3.6 1 1 2.1 1h8.7c2.6 0 4-1.3 4-3.7v-5.3c0-1.1-.4-2-1-2.7-.8-.7-1.6-1-2.6-1s-1.9.3-2.5 1c1 .6 1.6 1.5 1.6 2.8 0 .7-.3 1.4-.8 2-.6.5-1.2.7-2 .7s-1.4-.3-2-.8c-.6-.6-.9-1.3-.9-2.1 0-2 1.1-3.7 3.4-4.8.8-.4 2-.6 3.4-.8l2.7-.2v-1c-2.8-.1-4.8-.4-6-1-1-.4-1.9-1-2.5-1.9-.7-.8-1-1.8-1-3 0-.8.3-1.5.8-2 .6-.6 1.3-.8 2.1-.8s1.4.2 2 .8c.5.5.8 1.2.8 2 0 1.2-.5 2-1.5 2.6.5.8 1.3 1.1 2.5 1.1 1 0 1.8-.3 2.5-1 .6-.7 1-1.5 1-2.5v-5.3zM243.2 183.2v-27.4c0-.8-.2-1.3-.3-1.5-.2-.2-.6-.3-1.3-.3h-4.2c-.8 0-1.3.3-1.6.7-.4.8-.6 2-.6 3.6a9 9 0 00.6 3.3c.5-1 1.4-1.4 2.5-1.4.7 0 1.4.3 2 .8.5.6.8 1.3.8 2 0 .9-.4 1.5-.9 2-.6.6-1.2.8-2 .8s-1.6-.3-2.3-1a19.4 19.4 0 01-3.2-7.7 36 36 0 01-.4-3h-3.7c-.6 0-.9 0-1 .2-.2.2-.2.6-.2 1v28c0 .6 0 1 .4 1.2.1.2.5.2 1.2.2h4.8c.8 0 1.2-.3 1.4-1.1a33.9 33.9 0 00-.9-13.5c-.7.6-1.4.9-2 .9-.8 0-1.4-.3-2-.8-.6-.5-.9-1.2-.9-2s.3-1.5.8-2c.5-.6 1.2-1 2.2-1 .5 0 1 .3 1.6.6l1 1.3c.8 1.8 1.6 4.6 2.3 8.4a51 51 0 011.2 9.2h3.5c.5 0 .9-.1 1-.3.1-.2.2-.5.2-1.2zM260 180.2v-20.8c0-1.6-.4-2.8-1.4-3.9-1-1-2.3-1.5-3.8-1.5h-8c-1 0-1.5.1-1.7.4-.3.3-.4.9-.4 1.8v26.5c0 1 .1 1.6.3 1.7.2.2.9.3 1.9.3h8.7c1.4 0 2.5-.4 3.3-1.2.7-.8 1.2-2 1.2-3.3zm-4.8-11.4c0 3 0 5-.3 6-.4 2.5-1.5 3.8-3.2 3.8-.8 0-1.4-.3-2-.8-.5-.6-.8-1.3-.8-2 0-.8.3-1.5.8-2a2.7 2.7 0 013.1-.7c.7-1 1.1-2.2 1.1-3.9 0-1.5-.3-2.7-1-3.6-.3.2-.7.2-1.2.2-.8 0-1.4-.2-2-.8-.5-.6-.8-1.3-.8-2 0-.8.3-1.4.8-2 .6-.5 1.2-.8 2-.8 1.6 0 2.7 1 3.1 3.3.3 1.1.4 2.9.4 5.3z"/></g><g id="lol" fill="#04AADC"><path d="M180.7 215.1v-12.4a3.7 3.7 0 00-3.6-3.7c-1.5 0-2.5.6-3.2 1.8-.6 1-.9 2.3-.9 3.8v1.3c.9 0 1.5.4 2 .9.4.6.7 1.2.7 2s-.3 1.5-.9 2c-.5.6-1.2.8-2 .8s-1.4-.3-2-.9c-.5-.5-.8-1.3-.8-2.2 0-2.8.9-5.5 2.7-8.2l5-6c1.7-2.1 2.6-4 2.6-5.5 0-.4-.2-.9-.5-1.2-.4-.4-.8-.6-1.3-.6H169c-.8 0-1.4.1-1.6.3-.3.3-.4.9-.4 1.8v26c0 1.2.2 1.9.6 2.2.3.3 1.1.4 2.3.4h8.6c1 0 1.6-.2 2-.6.2-.3.3-1 .3-2zM197.7 213.6v-22c0-3-1.6-4.6-4.8-4.6h-6c-3.3 0-4.9 1.5-4.9 4.6v22c0 2.8 1.6 4.1 4.9 4.1h6.1c3.1 0 4.7-1.3 4.7-4zm-5-4.8c0 .8-.3 1.5-.9 2-.6.6-1.2.8-2 .8-.7 0-1.4-.3-2-.8-.5-.6-.8-1.2-.8-2 0-1.3.5-2.9 1.5-4.8 1-2 1.6-3.8 1.8-5.2-.8.2-1.6 0-2.3-.6-.7-.6-1-1.3-1-2.2 0-.8.3-1.5.9-2 .5-.6 1.2-.9 2-.9s1.5.3 2 .9c.6.6.8 1.3.8 2 0 1.1-.4 2.6-1.3 4.7-.9 2.2-1.4 4-1.5 5.2.8 0 1.4.3 2 .9.5.5.8 1.2.8 2zM213 215.1v-12.4a3.7 3.7 0 00-3.6-3.7c-1.4 0-2.5.6-3.2 1.8-.5 1-.8 2.3-.8 3.8v1.3c.8 0 1.4.4 1.9.9.5.6.7 1.2.7 2s-.3 1.5-.8 2c-.6.6-1.2.8-2 .8s-1.5-.3-2-.9c-.6-.5-.9-1.3-.9-2.2 0-2.8 1-5.5 2.7-8.2l5-6c1.7-2.1 2.6-4 2.6-5.5 0-.4-.2-.9-.5-1.2-.3-.4-.8-.6-1.2-.6h-9.6c-.9 0-1.5.1-1.7.3-.2.3-.3.9-.3 1.8v26c0 1.2.1 1.9.5 2.2.4.3 1.1.4 2.3.4h8.6c1 0 1.6-.2 2-.6.2-.3.3-1 .3-2z"/></g><g id="win" fill="#FE7A04"><path d="M190 243.5v-22c0-1-.3-1.5-1-1.5h-2.5c-.7 0-1.4.5-2 1.2-2 3-3 6.4-3 9.9 0 1.1.4 2.5 1 4.2.5 1.6 1 2.9 1.8 3.8l.9-.2c.7 0 1.3.3 1.8.8.6.6.9 1.3.9 2.1s-.3 1.5-.8 2c-.6.6-1.2.8-2 .8-1.8 0-3-1.3-3.6-3.9a87 87 0 01-2.4-20.7h-1.3a92.4 92.4 0 01-2.5 20.7c-.6 2.6-1.7 3.9-3.5 3.9a2.8 2.8 0 01-2.8-2.8 2.7 2.7 0 012.8-2.9c.3 0 .5 0 .9.2a18.4 18.4 0 002.6-8c0-3.6-1-6.9-3.1-10-.5-.7-1-1-1.7-1h-2.6c-.7 0-1 .5-1 1.5v21.9c0 2.3.1 4 .5 4.8.5 1.6 1.7 2.4 3.4 2.4h3c2.4 0 4-1.7 4.5-5.2h.3c.4 3.5 1.9 5.2 4.5 5.2h2.9c1.7 0 2.8-.8 3.5-2.4.3-1 .5-2.6.5-4.8zM200.4 248.9v-27.3c0-.8-.1-1.2-.4-1.4-.2-.1-.7-.2-1.5-.2h-5.3c-.7 0-1.2.1-1.4.3-.2.1-.2.5-.2 1.2v5.5l-.1 1.6v1c0 .3 0 .6.3.8.2.2.5.3.7.3.5 0 .9-.3 1-.8l-.1-1c0-.8.2-1.4.7-2 .5-.5 1.1-.8 2-.8.8 0 1.5.3 2 .9.5.5.8 1.2.8 2 0 1.4-.9 2.4-2.6 3-1.5.5-3 .7-4.7.7v16.1c0 1 0 1.4.2 1.6.2.2.7.3 1.5.3h5.4c.8 0 1.3 0 1.4-.3.2-.1.3-.7.3-1.5zM217.7 249.2v-27.4c0-.8-.1-1.3-.3-1.5-.1-.2-.6-.3-1.3-.3H212c-.8 0-1.4.3-1.6.7-.4.8-.6 2-.6 3.6a9 9 0 00.5 3.3c.6-1 1.4-1.4 2.5-1.4.8 0 1.4.3 2 .8.5.6.8 1.3.8 2 0 .9-.3 1.5-.8 2-.6.6-1.3.8-2 .8-.8 0-1.6-.3-2.3-1a19.4 19.4 0 01-3.2-7.7 36 36 0 01-.4-3H203c-.5 0-.8 0-1 .2l-.2 1v28c0 .6.1 1 .4 1.2.2.2.6.2 1.3.2h4.7c.8 0 1.3-.3 1.5-1.1a33.9 33.9 0 00-1-13.5c-.6.6-1.3.9-2 .9s-1.3-.3-1.9-.8c-.6-.5-1-1.2-1-2s.3-1.5.8-2c.5-.6 1.3-1 2.2-1 .6 0 1.1.3 1.7.6l1 1.3c.7 1.8 1.5 4.6 2.3 8.4a51 51 0 011.1 9.2h3.6c.5 0 .8-.1 1-.3l.1-1.2z"/></g><g id="connect" fill="#FE7A04"><path d="M180 262.3v-5c0-2.2-1.2-3.3-3.6-3.3h-5.8c-2.5 0-3.8 1.1-3.8 3.2v20.2c0 2.8 1.4 4.2 4.2 4.2h5c2.6 0 4-1.4 4-4.2v-7.6a6 6 0 01-4 1.2c-1.6 0-3-.6-4.2-1.8-1.4-1.2-2-2.9-2-4.8a6 6 0 01.8-3.3 3 3 0 012.7-1.6c.6 0 1.2.3 1.7.8a2.5 2.5 0 010 3.6c-.5.5-1.1.7-1.8.7.7 1.1 1.7 1.6 3 1.6 1.1 0 2-.3 2.8-1.1a4 4 0 001-2.8zM195.4 277.9v-19.8c0-2.7-1.5-4-4.3-4h-5.5c-2.8 0-4.3 1.3-4.3 4v19.8c0 2.4 1.5 3.7 4.4 3.7h5.5c2.8 0 4.2-1.3 4.2-3.7zm-4.5-4.3c0 .7-.3 1.3-.8 1.8s-1.1.7-1.7.7c-.8 0-1.4-.3-1.8-.8-.5-.4-.8-1-.8-1.8 0-1 .4-2.5 1.3-4.2 1-1.9 1.5-3.4 1.6-4.7-.7.1-1.4 0-2-.6-.6-.5-.9-1-.9-2 0-.7.3-1.3.8-1.8.4-.5 1-.7 1.8-.7.7 0 1.3.3 1.8.8s.7 1.1.7 1.8c0 1-.4 2.4-1.1 4.2-.8 2-1.3 3.5-1.4 4.7.7 0 1.3.2 1.8.7.4.5.7 1.2.7 1.9zM211 280.2v-24.6c0-.7-.1-1.2-.3-1.3-.1-.2-.5-.3-1.2-.3h-3.7c-.7 0-1.2.2-1.4.7-.4.7-.6 1.7-.6 3.1 0 1 .2 2 .5 3 .5-.9 1.3-1.3 2.3-1.3a2.6 2.6 0 012.5 2.6c0 .7-.3 1.3-.8 1.8s-1 .7-1.7.7a3 3 0 01-2.1-1 17.4 17.4 0 01-2.9-7l-.4-2.6H198c-.5 0-.8.1-1 .3l-.1 1v25c0 .6 0 1 .3 1.1l1.2.2h4.2c.8 0 1.2-.3 1.3-1a30.4 30.4 0 00-.8-12.1 3 3 0 01-1.8.7c-.7 0-1.2-.2-1.7-.6-.6-.5-.9-1.1-.9-1.8 0-.8.2-1.4.7-2 .5-.4 1.1-.7 2-.7.5 0 1 .2 1.4.5.4.3.7.7 1 1.2a45.7 45.7 0 013.1 15.8h3.1c.5 0 .8-.1 1-.3v-1zM226.5 280.2v-24.6c0-.7 0-1.2-.2-1.3-.1-.2-.6-.3-1.2-.3h-3.7c-.7 0-1.2.2-1.4.7-.4.7-.6 1.7-.6 3.1 0 1 .1 2 .5 3 .5-.9 1.3-1.3 2.3-1.3a2.6 2.6 0 012.5 2.6c0 .7-.3 1.3-.8 1.8s-1.1.7-1.7.7a3 3 0 01-2.1-1 17.4 17.4 0 01-2.9-7l-.4-2.6h-3.3c-.5 0-.8.1-1 .3l-.1 1v25c0 .6 0 1 .3 1.1.2.1.5.2 1.2.2h4.2c.7 0 1.2-.3 1.3-1a30.4 30.4 0 00-.8-12.1 3 3 0 01-1.9.7c-.6 0-1.1-.2-1.6-.6-.6-.5-.9-1.1-.9-1.8 0-.8.2-1.4.7-2 .4-.4 1.1-.7 2-.7.4 0 1 .2 1.4.5.4.3.6.7.9 1.2a45.7 45.7 0 013.2 15.8h3.1c.5 0 .8-.1 1-.3v-1zM241.3 257.5c0-2.3-1.2-3.5-3.6-3.5H229c-.4.2-.7.4-.8.8l-.1 1.2v24.8c.2.5.8.8 1.9.8h7.8c2.3 0 3.6-1.1 3.6-3.3v-4.7c0-1-.4-1.8-1-2.5a3 3 0 00-2.2-.9c-1 0-1.7.3-2.3 1 1 .5 1.4 1.3 1.4 2.4 0 .7-.2 1.3-.7 1.8-.5.5-1 .7-1.8.7-.7 0-1.3-.3-1.8-.8-.5-.4-.8-1-.8-1.8 0-1.9 1-3.3 3-4.3.8-.4 1.8-.6 3.1-.8l2.5-.1v-1c-2.6 0-4.4-.3-5.5-.8-1-.4-1.6-1-2.2-1.7-.6-.8-.9-1.7-.9-2.7 0-.7.3-1.4.8-1.8.4-.5 1-.8 1.8-.8.7 0 1.3.3 1.8.8.5.4.7 1 .7 1.7 0 1.2-.5 2-1.4 2.4.5.7 1.3 1 2.3 1a3 3 0 002.2-1c.6-.5 1-1.3 1-2.2v-4.7zM255.6 262.3v-5c0-2.2-1.2-3.3-3.6-3.3h-5.8c-2.5 0-3.7 1.1-3.7 3.2v20.2c0 2.8 1.3 4.2 4.1 4.2h5c2.6 0 4-1.4 4-4.2v-7.6a6 6 0 01-4 1.2c-1.6 0-3-.6-4.2-1.8-1.3-1.2-2-2.9-2-4.8a6 6 0 01.8-3.3 3 3 0 012.8-1.6c.6 0 1.1.3 1.6.8a2.5 2.5 0 010 3.6c-.5.5-1 .7-1.8.7.7 1.1 1.7 1.6 3.1 1.6 1 0 2-.3 2.7-1.1a4 4 0 001-2.8zM271.7 255.3c0-.9-.4-1.3-1-1.3h-12.9c-.6 0-.9.4-.9 1.3v18c.8 0 1.5-.3 2.1-1 2-2.4 3-5 3-8-.4.3-.8.3-1.2.3-.8 0-1.4-.2-1.9-.7-.5-.5-.7-1.1-.7-1.8s.3-1.4.8-1.8c.5-.5 1.1-.8 1.8-.8.8 0 1.4.3 1.8.8.5.6.7 1.1.7 1.8a28 28 0 01-1.5 9.7c-.5 1.3-1.4 3.1-2.8 5.4-1.2 2-1.9 3.1-1.9 3.6s.4.8 1.2.8h12c.8 0 1.2-.3 1.2-.8 0-.4-.6-1.6-1.8-3.6-1.5-2.2-2.4-4-2.9-5.4-1-2.8-1.6-6-1.6-9.7a2.5 2.5 0 012.6-2.6c.8 0 1.4.3 1.8.8.5.5.7 1.1.7 1.8s-.2 1.3-.7 1.8c-.5.5-1 .7-1.6.7-.6 0-1 0-1.3-.2 0 2.8 1 5.4 3 7.9.3.5.7.8 1.3 1h.7v-18z"/></g><g id="home" fill="#FE2B4C"><path d="M182.3 343.9v-27.4c0-.7 0-1.2-.2-1.4-.2-.3-.6-.4-1.3-.4h-5.2c-1.2 0-1.8 1.2-1.8 3.4 0 1 .2 2 .5 2.8h.5c.7 0 1.4.2 2 .8.5.6.8 1.3.8 2 0 .8-.3 1.5-.8 2a3 3 0 01-2.1.9c-1.1 0-2-.6-2.5-1.6a6 6 0 01-.7-3c0-1.9.6-4.3 1.7-7.3h-5c-.6 0-1 .2-1 .3-.2.2-.3.6-.3 1.2v27.5c0 .8.1 1.3.3 1.5.2.1.7.2 1.5.2h4.8c1.1 0 1.8-1.1 1.8-3.4 0-1-.2-2-.5-2.7h-.5c-.7 0-1.4-.3-2-.9-.5-.5-.8-1.2-.8-2s.3-1.4.9-2c.5-.5 1.2-.8 2-.8 1.1 0 2 .6 2.5 1.6.5.9.7 1.9.7 3 0 1.6-.5 4-1.5 7.2h5c.6 0 .9 0 1-.4.1-.1.2-.5.2-1.1zM199.5 341.3v-22c0-3-1.6-4.6-4.8-4.6h-6c-3.3 0-4.9 1.6-4.9 4.6v22c0 2.8 1.6 4.1 4.9 4.1h6.1c3.1 0 4.7-1.3 4.7-4zm-5-4.8c0 .8-.3 1.5-.9 2-.6.6-1.2.8-2 .8-.7 0-1.4-.3-2-.8-.5-.6-.8-1.2-.8-2 0-1.3.5-2.9 1.5-4.8 1-2 1.6-3.8 1.8-5.2-.9.2-1.6 0-2.3-.6-.7-.6-1-1.3-1-2.2 0-.8.3-1.5.8-2 .6-.6 1.3-.9 2.1-.9s1.5.3 2 .9c.5.6.8 1.3.8 2 0 1.1-.4 2.7-1.3 4.7-.9 2.2-1.4 4-1.5 5.2.8 0 1.4.3 2 .9.5.5.8 1.2.8 2zM223.2 344.1v-26.8c0-1-.2-1.7-.5-2-.3-.4-1-.6-1.8-.6h-4.6c-1.5 0-2.5.7-3 1.9l-.6 1.6-.5 1s-.3-.3-.6-1l-.7-1.6a2.9 2.9 0 00-2.8-1.9h-4.8c-1 0-1.7.2-1.9.5-.2.3-.4 1-.4 2.1V344c0 1 .6 1.4 1.6 1.4h5.6c.9 0 1.5-.4 1.8-1.4.7-2.2 1-4.8 1-7.7 0-3.8-.9-7.2-2.4-10.1-.5.2-1 .4-1.5.4a3 3 0 01-2-.8c-.5-.5-.8-1.2-.8-2.1 0-.8.3-1.5.8-2 .5-.6 1.3-.8 2-.8 1.6 0 2.8 1.2 3.6 3.7.4 1.6.8 3.2 1 4.8 0 1.1.2 1.6.5 1.6.2 0 .4-.5.5-1.6 0-1.3.3-2.9 1-4.8.6-2.5 1.8-3.7 3.4-3.7a2.9 2.9 0 012.9 2.8c0 .9-.3 1.6-1 2.1-.5.5-1.1.8-1.8.8-.6 0-1-.2-1.5-.4a21 21 0 00-2.4 10c0 2.6.3 5.2 1 7.7.2 1 .9 1.5 1.9 1.5h5.6c1 0 1.4-.4 1.4-1.3zM239.6 318.6c0-2.6-1.3-3.9-4-3.9H226c-.5.2-.9.5-1 .9l-.1 1.3v27.6c.2.7 1 1 2.1 1h8.7c2.6 0 4-1.3 4-3.7v-5.3c0-1.1-.4-2-1-2.7-.8-.7-1.6-1-2.6-1s-1.9.3-2.5 1c1 .6 1.6 1.5 1.6 2.8 0 .8-.3 1.4-.8 2-.6.5-1.2.7-2 .7s-1.4-.3-2-.8c-.6-.6-.9-1.3-.9-2.1 0-2 1.1-3.6 3.4-4.8.8-.4 2-.6 3.4-.8l2.7-.2v-1c-2.8-.1-4.8-.4-6-1-1-.4-1.9-1-2.5-1.9-.7-.8-1-1.8-1-3 0-.8.3-1.5.8-2 .6-.6 1.3-.8 2.1-.8s1.4.2 2 .8c.5.5.8 1.2.8 2 0 1.2-.5 2-1.5 2.6.5.8 1.3 1.1 2.5 1.1 1 0 1.8-.3 2.5-1 .6-.7 1-1.5 1-2.5v-5.3z"/></g><g id="know" fill="#04AADC"><path d="M182.8 369.9c0-3.6-1.4-5.8-4-6.7-.2 0-.3-.1-.3-.3l.2-.1c2.7-1 4-3.2 4-6.6v-6.5c0-1-.4-1.4-1.1-1.4h-5.4c.7 2.3 1 4.7 1 7.2 0 1.5-.3 2.6-1 3.4-.5.8-1.3 1.2-2.1 1.2-.9 0-1.6-.3-2.1-.8-.6-.6-.9-1.2-.9-2s.3-1.5.8-2c.6-.6 1.2-.9 2-.9h.5c.5-1.4.6-2.9.3-4.6-.3-1-.8-1.5-1.8-1.5h-4.3c-.7 0-1.2 0-1.4.2-.2.2-.3.5-.3 1.1v27.6c0 .8.1 1.3.3 1.5.2.2.7.3 1.5.3h3.5c1.1 0 1.9-.7 2.3-2 .3-1 .4-2 .4-3 0-1.2-.2-2.2-.5-3l-.4.1a3 3 0 01-2-.7c-.6-.5-.9-1.3-.9-2.2 0-.8.3-1.4.9-2 .5-.5 1.2-.8 2-.8 1 0 1.7.4 2.3 1.3.6.8 1 1.9 1 3.4-.1 4.3-.2 7.2-.4 8.9h4.6c.5 0 1-.1 1-.5l.2-1.2v-7.4zM200 377.5V350c0-.7-.1-1.2-.3-1.4-.2-.2-.6-.3-1.3-.3h-4.2c-.8 0-1.3.2-1.6.7-.4.8-.6 2-.6 3.5a9 9 0 00.6 3.3c.5-1 1.4-1.4 2.5-1.4a3 3 0 012.8 3c0 .7-.3 1.3-.9 1.9-.6.5-1.2.8-2 .8s-1.5-.3-2.2-1a19.4 19.4 0 01-3.2-7.7 36 36 0 01-.5-3.1h-3.7c-.6 0-.9.1-1 .3-.2.2-.2.5-.2 1v27.9c0 .7 0 1.1.4 1.3.1.1.6.2 1.3.2h4.7c.8 0 1.3-.4 1.4-1.2a33.9 33.9 0 00-.9-13.4c-.7.5-1.3.8-2 .8-.8 0-1.4-.2-2-.7-.5-.5-.9-1.2-.9-2s.3-1.5.8-2.1c.5-.6 1.2-.9 2.2-.9.5 0 1 .2 1.6.6.4.3.7.7 1 1.3a51 51 0 013.5 17.6h3.5c.5 0 .9-.1 1-.4.1-.1.2-.5.2-1.1zM217.2 374.9v-22.1c0-3-1.6-4.5-4.8-4.5h-6c-3.3 0-4.9 1.5-4.9 4.5v22c0 2.8 1.6 4.2 4.9 4.2h6.1c3.1 0 4.7-1.4 4.7-4.1zm-5-4.9c0 .9-.3 1.5-.9 2-.6.6-1.2.9-2 .9-.7 0-1.4-.3-2-.9-.5-.5-.8-1.2-.8-2 0-1.2.5-2.8 1.5-4.8s1.6-3.7 1.8-5.1c-.8.1-1.6-.1-2.3-.7-.7-.5-1-1.2-1-2.1 0-.9.3-1.6.9-2.1.5-.6 1.2-.8 2-.8s1.5.3 2 .8c.6.6.8 1.3.8 2 0 1.2-.4 2.7-1.3 4.7-.9 2.2-1.4 4-1.5 5.3.8 0 1.4.3 2 .8.5.6.8 1.3.8 2zM241.8 371.7v-21.9c0-1-.3-1.5-1-1.5h-2.4c-.8 0-1.5.4-2 1.2-2 3-3 6.3-3 9.8 0 1.2.3 2.6.8 4.2.6 1.7 1.2 3 2 3.9.2-.2.5-.2.8-.2.7 0 1.3.2 1.9.8.5.5.8 1.2.8 2 0 .9-.3 1.5-.8 2-.5.6-1.2.9-1.9.9-1.9 0-3-1.3-3.6-4a87 87 0 01-2.4-20.7h-1.4a92.4 92.4 0 01-2.4 20.8c-.6 2.6-1.8 3.9-3.5 3.9a2.8 2.8 0 01-2.9-2.9 2.7 2.7 0 012.8-2.8l.9.1a18.4 18.4 0 002.7-8c0-3.5-1-6.8-3.2-10-.4-.6-1-1-1.7-1h-2.6c-.7 0-1 .5-1 1.5v22c0 2.2.1 3.9.5 4.8.5 1.6 1.7 2.4 3.5 2.4h3c2.4 0 3.9-1.8 4.4-5.3h.4c.3 3.5 1.8 5.3 4.4 5.3h3c1.6 0 2.8-.8 3.4-2.4.3-1 .5-2.6.5-4.9z"/></g><g id="amaze" fill="#FE7A04"><path d="M181.4 410.4v-24.6c0-2.8-1.3-4.2-4-4.2h-6.6c-2.6 0-4 1.3-4 3.9v4.8c0 .7.3 1.4.8 1.8.5.5 1 .8 1.7.8.9 0 1.6-.4 2.2-1.3-.2-.3-.2-.6-.2-1.1 0-.8.3-1.4.8-2 .6-.5 1.3-.7 2-.7.9 0 1.5.3 2 .8.6.6.9 1.2.9 2 0 1.3-1 2.3-2.7 2.9a67 67 0 00-5 2c-1.7 1.1-2.6 3-2.6 5.5v6.6c0 3.2 1.5 4.7 4.6 4.7h2.3c.9-.2 1.5-.6 1.7-1.4.3-.8.5-2 .5-3.5 0-1.7-.3-3.1-.7-4.3l-.9.2a2.8 2.8 0 01-3-2.9c0-.8.3-1.4 1-2a3 3 0 012-.8c2 0 3 1.8 3 5.4 0 4-.4 7.1-1.1 9.3h3.4c.7 0 1.2 0 1.5-.3.3-.1.4-.7.4-1.6zM205.1 411v-26.8c0-1-.1-1.8-.4-2-.3-.4-1-.6-1.9-.6h-4.5c-1.6 0-2.6.7-3 1.9l-.7 1.6c-.2.7-.4 1-.5 1l-.5-1-.7-1.6a2.9 2.9 0 00-2.8-1.9h-4.9c-1 0-1.6.2-1.9.5-.2.3-.3 1-.3 2.1v26.7c0 1 .5 1.4 1.6 1.4h5.6c.8 0 1.5-.4 1.8-1.4.6-2.2 1-4.8 1-7.7-.1-3.8-1-7.2-2.5-10.1-.4.2-1 .3-1.4.3a3 3 0 01-2-.7c-.6-.5-.9-1.2-.9-2.1 0-.8.3-1.5.9-2 .5-.6 1.2-.8 2-.8 1.6 0 2.7 1.2 3.5 3.7.5 1.6.8 3.2 1 4.8 0 1.1.2 1.6.5 1.6.2 0 .4-.5.5-1.6 0-1.3.4-2.9 1-4.8.7-2.5 1.9-3.7 3.5-3.7a2.9 2.9 0 012.8 2.8c0 .9-.3 1.6-1 2.1-.5.5-1.1.7-1.8.7-.5 0-1 0-1.4-.3a21 21 0 00-2.5 10c0 2.6.4 5.2 1 7.7.3 1 1 1.5 2 1.5h5.6c.9 0 1.3-.4 1.3-1.3zM221.2 410.4v-24.6c0-2.8-1.3-4.2-4-4.2h-6.6c-2.6 0-4 1.3-4 3.9v4.8c0 .7.3 1.4.8 1.8.5.5 1 .8 1.7.8.9 0 1.6-.4 2.2-1.3-.2-.3-.2-.6-.2-1.1 0-.8.3-1.4.8-2 .6-.5 1.3-.7 2-.7.9 0 1.5.3 2 .8.6.6.9 1.2.9 2 0 1.3-1 2.3-2.7 2.9a67 67 0 00-5 2c-1.7 1.1-2.6 3-2.6 5.5v6.6c0 3.2 1.5 4.7 4.6 4.7h2.3c.9-.2 1.5-.6 1.7-1.4.3-.8.5-2 .5-3.5 0-1.7-.3-3.1-.7-4.3l-.9.2a2.8 2.8 0 01-3-2.9c0-.8.3-1.4 1-2a3 3 0 012-.8c2 0 3 1.8 3 5.4 0 4-.4 7.1-1.1 9.3h3.4c.7 0 1.1 0 1.5-.3.3-.1.4-.7.4-1.6zM237.8 390.8v-7.4l-.1-1c-.3-.5-1.1-.8-2.4-.8h-10c-1 0-1.7.2-2 .5-.4.4-.6 1-.6 2v6.7c0 1 .3 1.7 1 2.4s1.5 1 2.5 1c1.1 0 2-.3 2.6-1.2-.9-.5-1.3-1.3-1.3-2.4 0-.7.2-1.3.8-2 .4-.5 1-.8 2-.8.7 0 1.4.2 2 .7.6.5 1 1.2 1 2.1 0 1-.4 1.7-1 2.3-.1.2-.9.7-2.2 1.6l-4 3a7 7 0 00-3.4 6v7.8c0 .6.3 1 1 1h12.7c.5 0 .9 0 1.1-.3.2-.2.3-.6.3-1.2V403c0-1-.4-2-1-2.6-.7-.6-1.4-.9-2.3-.9-1.2 0-2.2.5-2.8 1.5.9.5 1.3 1.3 1.3 2.3a2.8 2.8 0 01-2.7 2.9c-1 0-1.6-.3-2.2-.8-.5-.6-.8-1.2-.8-2 0-.7.3-1.3.7-2l2.2-1.8 4.2-3c2.2-1.6 3.4-3.5 3.4-5.8zM254.1 385.5c0-2.6-1.3-3.9-4-3.9h-9.7c-.5.2-.8.5-1 .8l-.1 1.4v26.6l.1 1c.2.7.8 1 2 1h8.7c2.6 0 4-1.3 4-3.7v-5.3c0-1.1-.3-2-1-2.7-.7-.7-1.6-1-2.5-1-1.1 0-2 .3-2.6 1 1 .6 1.6 1.5 1.6 2.8 0 .8-.3 1.4-.8 2-.5.5-1.2.7-2 .7s-1.4-.3-2-.8c-.6-.6-.9-1.3-.9-2.1 0-2 1.2-3.7 3.4-4.8.8-.4 2-.6 3.4-.8l2.7-.2v-1c-2.8-.1-4.8-.4-6-1-1-.4-1.9-1-2.5-1.9-.7-.8-1-1.8-1-3 0-.8.3-1.5.8-2 .6-.6 1.3-.8 2.1-.8s1.5.2 2 .8c.5.5.8 1.2.8 2 0 1.2-.5 2-1.5 2.6.5.8 1.3 1.1 2.5 1.1 1 0 1.8-.3 2.5-1s1-1.5 1-2.5v-5.3z"/></g><g id="community" fill="#FE22B8"><path d="M176.8 420.4v-3.9c0-1.7-1-2.5-2.7-2.5h-4.5c-2 0-3 .8-3 2.5V432c0 2 1.1 3.1 3.3 3.1h3.8c2 0 3.1-1 3.1-3.1v-6c-.8.7-1.8 1-3 1-1.3 0-2.4-.5-3.3-1.4a5 5 0 01-1.6-3.7c0-1 .2-1.8.7-2.5.5-.8 1.2-1.3 2-1.3.6 0 1 .2 1.4.6a2 2 0 010 2.8c-.4.4-.9.6-1.4.6.5.8 1.3 1.2 2.4 1.2.8 0 1.5-.3 2-.9a3 3 0 00.8-2.1zM188.7 432.4v-15.3c0-2-1.1-3.1-3.3-3.1h-4.2c-2.2 0-3.3 1-3.3 3.1v15.3c0 1.9 1 2.8 3.3 2.8h4.3c2.1 0 3.2-1 3.2-2.8zm-3.4-3.3c0 .5-.3 1-.7 1.4a2 2 0 01-1.3.5c-.6 0-1-.2-1.4-.6-.4-.3-.6-.8-.6-1.4 0-.8.3-2 1-3.3a11 11 0 001.3-3.6c-.6.1-1.1 0-1.6-.4s-.7-.9-.7-1.5.2-1 .6-1.4a2 2 0 011.4-.6c.6 0 1 .2 1.4.6.4.4.6.9.6 1.4a9 9 0 01-1 3.2c-.6 1.5-.9 2.8-1 3.7.5 0 1 .2 1.4.5.3.4.6 1 .6 1.5zM205.1 434.3v-18.5c0-.8 0-1.2-.3-1.5-.2-.2-.7-.3-1.3-.3h-3.1c-1.1 0-1.8.4-2 1.3l-.6 1c-.1.6-.2.8-.3.8l-.4-.7-.5-1.1a2 2 0 00-2-1.3h-3.3c-.7 0-1.1.1-1.3.3-.1.2-.2.7-.2 1.5v18.5c0 .6.3 1 1 1h4c.5 0 1-.4 1.2-1 .4-1.6.7-3.4.7-5.4 0-2.6-.6-5-1.7-7a2 2 0 01-2.3-.2c-.5-.4-.7-.9-.7-1.5s.2-1 .6-1.4a2 2 0 011.4-.6c1.1 0 2 .9 2.4 2.6.4 1.1.6 2.2.7 3.4 0 .7.2 1 .4 1 .1 0 .3-.3.3-1 0-1 .3-2 .7-3.4.5-1.7 1.3-2.6 2.4-2.6a2 2 0 012 2c0 .6-.2 1.1-.7 1.5a2 2 0 01-1.3.5 2 2 0 01-1-.3 14.6 14.6 0 00-1.6 7c0 1.7.2 3.5.7 5.3.1.7.6 1 1.3 1h3.9c.6 0 1-.3 1-.9zM221.5 434.3v-18.5c0-.8 0-1.2-.3-1.5-.2-.2-.6-.3-1.3-.3h-3.1c-1 0-1.8.4-2 1.3l-.5 1-.4.8-.4-.7-.5-1.1a2 2 0 00-2-1.3h-3.3c-.7 0-1 .1-1.3.3-.1.2-.2.7-.2 1.5v18.5c0 .6.4 1 1 1h4c.6 0 1-.4 1.2-1 .5-1.6.7-3.4.7-5.4 0-2.6-.6-5-1.7-7a2 2 0 01-2.3-.2c-.5-.4-.7-.9-.7-1.5s.2-1 .6-1.4a2 2 0 011.4-.6c1.1 0 2 .9 2.5 2.6l.7 3.4c0 .7.1 1 .3 1 .2 0 .3-.3.4-1 0-1 .2-2 .6-3.4.5-1.7 1.3-2.6 2.4-2.6a2 2 0 012 2c0 .6-.2 1.1-.6 1.5a2 2 0 01-1.3.5 2 2 0 01-1-.3 14.6 14.6 0 00-1.7 7c0 1.7.2 3.5.7 5.3.1.7.6 1 1.3 1h3.9c.6 0 1-.3 1-.9zM232.8 433.3v-18.2c0-.7-.2-1.1-.6-1.1H231c-.5 0-.8.1-1 .3a5 5 0 00-.8 1c-.7 1.1-1.3 2.4-1.8 3.8-.5 1.7-.7 3.1-.7 4.4 0 1.5.2 2.7.7 3.7l.8-.1a2 2 0 012 2c0 .5-.2 1-.5 1.3-.4.4-.9.6-1.4.6-1.2 0-2-.9-2.4-2.6-.3-1-.4-2.2-.4-3.6a29 29 0 012.1-10.8h-4c-.7 0-1 .6-1 1.8V430c0 3.4 1 5.1 3.3 5.1h5.9c.4 0 .8-.2 1-.6v-1.3zM244.9 434.2v-19l-.2-1-1-.2H241c-.6 0-1 .1-1.1.5-.3.5-.5 1.3-.5 2.4 0 .8.2 1.6.4 2.3.4-.6 1-1 1.8-1 .5 0 1 .2 1.3.6.4.4.6 1 .6 1.5s-.2 1-.6 1.3c-.4.4-.8.6-1.3.6-.6 0-1.2-.3-1.6-.8-.5-.4-1-1.1-1.4-2.3l-.9-3-.3-2.1h-2.5c-.4 0-.6 0-.7.2-.2.1-.2.4-.2.7v19.3c0 .5.1.8.3.9l.9.1h3.2c.6 0 1-.2 1-.7a23.5 23.5 0 00-.6-9.4c-.5.4-1 .6-1.4.6-.5 0-1-.2-1.3-.5-.4-.4-.7-.8-.7-1.4 0-.6.2-1 .6-1.4a2 2 0 011.5-.6c.4 0 .7.1 1.1.4l.7.8c.6 1.3 1 3.2 1.6 5.9.5 2.6.8 4.7.8 6.3h2.5c.3 0 .6 0 .7-.2v-.8zM252.1 434v-19c0-.4 0-.8-.2-.9l-1-.1H247l-1 .1-.1.9v4.9l-.1.7c0 .2 0 .4.2.5l.6.3c.3 0 .6-.2.7-.6l-.2-.7c0-.5.2-1 .6-1.3.3-.4.7-.6 1.3-.6.6 0 1 .2 1.4.6.4.4.6.9.6 1.5 0 .9-.6 1.5-1.8 2-1 .3-2.1.5-3.3.5v11.1c0 .6 0 1 .2 1.1.1.2.5.2 1 .2h3.7c.6 0 .9 0 1-.2.1 0 .2-.4.2-1zM264.5 415c0-.7-.3-1-.7-1h-10c-.4 0-.7.3-.7 1v14a2 2 0 001.7-1 9.6 9.6 0 002.2-6l-.9.2c-.6 0-1.1-.2-1.4-.6a2 2 0 01-.6-1.4c0-.5.2-1 .6-1.4a2 2 0 011.4-.6c.6 0 1 .2 1.4.6.4.5.6 1 .6 1.4 0 2.8-.4 5.3-1.2 7.5-.4 1-1.1 2.4-2.2 4.2a9.7 9.7 0 00-1.4 2.7c0 .4.3.6 1 .6h9.2c.5 0 .9-.2.9-.6 0-.3-.5-1.2-1.4-2.7a24 24 0 01-2.2-4.2c-.9-2.2-1.3-4.7-1.3-7.5a2 2 0 012-2c.6 0 1 .2 1.4.6.4.4.6.9.6 1.4 0 .5-.2 1-.6 1.4-.4.4-.8.6-1.3.6-.4 0-.7 0-1-.2 0 2.1.8 4.2 2.3 6 .3.5.7.7 1 .8l.6.1v-14zM275.7 432.6V415c0-.7-.2-1.1-.7-1.1h-3.3c-1 0-1.4.8-1.4 2.3 0 .8.1 1.4.3 2l.4-.1c.5 0 1 .2 1.4.6a2 2 0 01-1.5 3.4c-.8 0-1.3-.4-1.7-1.1-.3-.6-.5-1.3-.5-2a13.2 13.2 0 011.2-5h-3.3c-.7-.1-1 .3-1 1v13c1-1 2.2-1.5 3.7-1.5.9 0 1.7.2 2.4.6.8.4 1.2 1 1.2 1.8 0 .5-.2 1-.5 1.4-.4.4-.8.6-1.3.6a2 2 0 01-1.5-.6 2 2 0 01-.6-1.5v-.3c-.3-.2-.7-.3-1.1-.3-1.6 0-2.4 1-2.4 3v1.5c0 1.7 1 2.4 3 2.4h4c1 0 1.8-.1 2.3-.4.6-.4 1-1.1 1-2.2z"/></g><g id="relaxed" fill="#04AADC"><path d="M182.5 312.7c-.5-.6-.7-1.5-.7-2.4v-7.6a6 6 0 00-.6-3c-.4-.7-1-1.2-2-1.5-.3 0-.4-.1-.4-.3 0 0 0-.2.2-.3 1-.2 1.7-.6 2.2-1.3.4-.6.6-1.6.6-3v-3.6c0-3.5-1.6-5.3-4.8-5.3h-8.6c-.7 0-1.2.2-1.4.5l-.1 1.5v24.7c0 1 .3 1.6 1 1.6h6c-.8-1.6-1.5-3.6-2-6a28 28 0 01-.9-6.3 32.9 32.9 0 011.2-7.4c.2-.7.6-1.3 1.1-2a3 3 0 012.3-1c.7 0 1.3.3 1.8.8s.8 1.1.8 1.8c0 .8-.3 1.4-.8 2-.5.4-1.1.7-1.9.7-.4 0-.7 0-1-.2-1.4 1.7-2 4-2 6.7 0 2.8.8 5.2 2.4 7.4 1.8 2.4 3.8 3.5 6.1 3.5h1.5zM196.8 288c0-2.4-1.2-3.6-3.6-3.6h-9c-.5.1-.8.4-1 .7V312c.2.6.8.8 2 .8h8c2.4 0 3.6-1.1 3.6-3.3v-4.9c0-1-.3-1.9-1-2.5-.6-.7-1.4-1-2.3-1-1 0-1.7.4-2.3 1 1 .6 1.5 1.4 1.5 2.5 0 .8-.3 1.3-.8 1.8-.5.6-1 .8-1.8.8-.7 0-1.3-.3-1.9-.8-.5-.5-.8-1.1-.8-2 0-1.8 1-3.3 3.2-4.3.7-.4 1.7-.6 3-.8 1 0 1.7 0 2.6-.2v-1c-2.6 0-4.5-.3-5.6-.8a5 5 0 01-2.3-1.7c-.6-.8-.9-1.8-.9-2.8 0-.8.3-1.4.8-1.9s1.1-.8 1.9-.8c.7 0 1.3.3 1.8.8s.8 1.1.8 1.8c0 1.2-.5 2-1.5 2.4.5.8 1.3 1 2.4 1 .9 0 1.6-.2 2.3-.8.6-.7 1-1.5 1-2.4V288zM210.8 310.3V299a3.4 3.4 0 00-3.4-3.5c-1.3 0-2.3.6-2.9 1.7-.5 1-.8 2.1-.8 3.5v1.2c.8 0 1.4.3 1.8.8.4.6.7 1.2.7 2 0 .6-.3 1.2-.8 1.7-.5.6-1.1.8-1.8.8-.8 0-1.4-.3-2-.8-.4-.5-.7-1.2-.7-2.1 0-2.5.9-5 2.5-7.5l4.6-5.6c1.6-2 2.4-3.7 2.4-5 0-.5-.2-.9-.4-1.2-.4-.3-.8-.5-1.2-.5H200c-.8 0-1.4 0-1.6.3-.2.2-.3.7-.3 1.6v24c0 1 .1 1.7.5 2 .3.3 1 .4 2.1.4h8c.8 0 1.4-.2 1.8-.6.2-.2.3-.9.3-1.8zM225.4 311v-22.8c0-2.5-1.2-3.8-3.7-3.8h-6c-2.5 0-3.7 1.2-3.7 3.6v4.4c0 .7.2 1.2.7 1.7.4.4 1 .7 1.6.7.8 0 1.4-.4 2-1.2-.2-.2-.2-.6-.2-1 0-.7.2-1.3.8-1.8.5-.5 1.1-.8 1.8-.8.8 0 1.4.3 1.9.8s.7 1.1.7 1.9c0 1.2-.8 2-2.4 2.6-2.8 1-4.3 1.7-4.6 1.9-1.7 1-2.4 2.8-2.4 5v6.2c0 2.9 1.4 4.3 4.2 4.3h2.1a2 2 0 001.6-1.3c.3-.7.4-1.8.4-3.2 0-1.6-.2-3-.6-4a2 2 0 01-.8.2 2.6 2.6 0 01-2.8-2.7c0-.7.3-1.3.8-1.8.6-.5 1.2-.8 2-.8 1.8 0 2.7 1.7 2.7 5 0 3.7-.4 6.6-1 8.6h3.2c.6 0 1 0 1.3-.2.3-.2.4-.7.4-1.6zM241 298.5c-.3.6-.8 1-1.5 1.4-.7.3-1.4.4-2 .4-.4 0-.8 0-1.4-.2-.5-.2-.7-.3-.6-.4h1a4.6 4.6 0 004.6-4.8v-9.1a2 2 0 00-.3-1c-.1-.3-.6-.4-1.2-.4h-5.8c2.6 2.2 4 5 4 8.2 0 .7-.3 1.4-.8 1.9s-1.1.8-1.8.8c-.8 0-1.5-.3-2-.8s-.7-1-.7-1.8c0-1.5.7-2.4 2.3-2.7l.2-1.3c0-1-.3-1.8-.7-2.4-1-1.3-2-2-3.4-2h-2.6c-.7 0-1 .2-1.2.4-.2.3-.2.7-.2 1.4v13c.8-1.3 2-2 3.7-2 .6 0 1.2.2 1.9.5v.3H231.7c-1.3 0-2.5.4-3.4 1.3-.9 1-1.3 2.1-1.3 3.5v8.6c0 .6 0 1 .2 1.1.1.2.5.3 1 .3h6a11 11 0 01-3.2-4.3 8.7 8.7 0 01-.7-4.2c0-.6.3-1.1.8-1.6s1-.8 1.9-.8c.7 0 1.4.3 1.9.8.4.5.7 1.2.7 2 0 .6-.2 1.1-.6 1.5-.4.5-.9.8-1.4.9a4 4 0 00-.3 1.5c0 1 .3 1.8 1 2.6.8 1 2 1.6 3.5 1.6h1.7c.8 0 1.2 0 1.4-.2.1-.2.3-.7.3-1.4v-12.6zM256.2 288c0-2.4-1.3-3.6-3.7-3.6h-9c-.5.1-.8.4-1 .7V312c.2.6.8.8 2 .8h8c2.4 0 3.7-1.1 3.7-3.3v-4.9c0-1-.4-1.9-1-2.5-.7-.7-1.4-1-2.3-1-1 0-1.8.4-2.4 1 1 .6 1.5 1.4 1.5 2.5 0 .8-.2 1.3-.7 1.8-.5.6-1.1.8-2 .8-.6 0-1.2-.3-1.7-.8-.6-.5-.8-1.1-.8-2 0-1.8 1-3.3 3.1-4.3.7-.4 1.8-.6 3.1-.8.9 0 1.7 0 2.6-.2v-1c-2.7 0-4.5-.3-5.7-.8a5 5 0 01-2.2-1.7c-.6-.8-1-1.8-1-2.8 0-.8.3-1.4.8-1.9s1.2-.8 2-.8c.7 0 1.3.3 1.8.8s.7 1.1.7 1.8c0 1.2-.5 2-1.4 2.4.5.8 1.2 1 2.3 1 1 0 1.7-.2 2.3-.8.6-.7 1-1.5 1-2.4V288zM271.6 308.5v-19.2a5 5 0 00-1.4-3.5c-1-1-2-1.4-3.5-1.4h-7.4c-.8 0-1.3.1-1.6.3-.2.3-.3.8-.3 1.7v24.5c0 .9.1 1.4.3 1.6.2.1.8.2 1.7.2h8a4 4 0 003-1.1c.8-.8 1.2-1.8 1.2-3zm-4.5-10.4c0 2.8-.1 4.6-.2 5.4-.5 2.4-1.5 3.6-3 3.6-.8 0-1.4-.3-1.9-.8s-.7-1.1-.7-1.9c0-.7.2-1.3.7-1.8a2.5 2.5 0 013-.6c.6-.9 1-2 1-3.6 0-1.4-.4-2.5-1-3.3l-1.1.2c-.8 0-1.4-.3-1.9-.8s-.7-1.1-.7-1.9c0-.7.2-1.3.7-1.8.5-.5 1.1-.8 1.9-.8 1.4 0 2.4 1 2.8 3.2.3 1 .4 2.6.4 4.9z"/></g><g id="good" fill="#04AADC"><path d="M20.8 121.5V107c0-1.6-.7-3-1.9-4a6.2 6.2 0 00-4.2-1.8c-1.6 0-3.1.6-4.3 1.8a5 5 0 00-1.8 4.1v.6c.6-.6 1.4-1 2.5-1 1 0 2 .4 2.7 1.1.7.7 1 1.6 1 2.7a3.6 3.6 0 01-3.6 3.7c-1.8 0-3.2-1-4.1-3-.8-1.5-1.2-3.2-1.2-5.1 0-2.6.8-5 2.4-7a7.8 7.8 0 0112.4 0v-8.7c0-2-.6-3.2-1.6-3.8-.7-.4-2.2-.6-4.3-.6H7.6c-4 0-6 2-6 6v29.4c0 3.2 1.8 4.7 5.4 4.7h8.5c3.5 0 5.3-1.6 5.3-4.7zM43.3 120.9v-29c0-3.8-2.1-5.8-6.3-5.8h-8c-4.1 0-6.2 2-6.2 5.9v28.9c0 3.5 2 5.3 6.3 5.3h8c4.1 0 6.2-1.8 6.2-5.3zm-6.5-6.4c0 1.1-.4 2-1.2 2.7-.8.7-1.6 1-2.5 1-1.1 0-2-.3-2.7-1-.7-.8-1-1.6-1-2.7 0-1.6.5-3.7 1.8-6.2 1.4-2.7 2.2-5 2.4-6.8-1.1.2-2-.1-3-.8-.9-.7-1.3-1.7-1.3-2.9a3.7 3.7 0 013.8-3.8c1 0 1.9.4 2.6 1.2.7.7 1 1.6 1 2.7 0 1.4-.5 3.4-1.6 6a25.5 25.5 0 00-2 6.9c1 0 1.8.4 2.6 1 .7.8 1 1.7 1 2.7zM65.8 120.9v-29c0-3.8-2.1-5.8-6.3-5.8h-8c-4.1 0-6.2 2-6.2 5.9v28.9c0 3.5 2.1 5.3 6.3 5.3h8c4.1 0 6.2-1.8 6.2-5.3zm-6.5-6.4c0 1.1-.4 2-1.2 2.7-.8.7-1.6 1-2.5 1-1.1 0-2-.3-2.7-1-.7-.8-1-1.6-1-2.7 0-1.6.6-3.7 1.8-6.2 1.4-2.7 2.2-5 2.4-6.8-1.1.2-2-.1-3-.8-.9-.7-1.3-1.7-1.3-2.9a3.7 3.7 0 013.8-3.8c1 0 1.9.4 2.6 1.2.7.7 1 1.6 1 2.7 0 1.4-.5 3.4-1.6 6a25.5 25.5 0 00-2 6.9c1 0 1.8.4 2.6 1 .7.8 1 1.7 1 2.7zM87.9 120.3V93a7 7 0 00-2-5c-1.3-1.4-3-2-4.9-2H70.5c-1.2 0-2 .1-2.2.5-.3.4-.5 1.1-.5 2.3v34.7c0 1.3.1 2 .4 2.3.3.2 1.1.3 2.4.3h11.5c1.7 0 3.2-.5 4.2-1.6 1-1 1.6-2.5 1.6-4.3zm-6.4-14.8c0 4-.1 6.5-.3 7.7-.6 3.3-2 5-4.2 5-1 0-2-.3-2.6-1-.8-.8-1.1-1.7-1.1-2.7 0-1 .3-1.9 1-2.6a3.6 3.6 0 014.1-.8c1-1.3 1.5-3 1.5-5.1 0-2-.5-3.6-1.4-4.8-.4.2-1 .3-1.5.3-1 0-2-.3-2.6-1-.8-.8-1.1-1.7-1.1-2.7 0-1 .3-1.9 1-2.6.8-.7 1.6-1.1 2.7-1.1 2 0 3.4 1.5 4 4.4.3 1.4.5 3.7.5 7z"/></g><g id="fun" fill="#FE2B4C"><path d="M21 136.1c0-3.3-1.8-5-5.2-5H4.4c-1.1 0-1.8.2-2.3.6-.4.4-.6 1.2-.5 2.2v34.8c0 1 0 1.8.4 2 .3.4 1 .5 2 .5h14.7c.6 0 1.1-.1 1.6-.5.4-.4.7-1 .7-1.6 0-1.6-.7-3.2-2-5-.7-.8-2-2.2-4-4a21 21 0 01-3.5-3.7c-.4-.6-.5-1.3-.2-2 .2-.6.5-1 1.1-1.3 1-.5 2.5-.9 4.3-1l3.4-.3v-1.3c-3.4-.1-5.9-.6-7.5-1.3a8.8 8.8 0 01-3.5-2.7 5.5 5.5 0 01-1.4-3.6c0-1.1.3-2 1-2.7.7-.8 1.7-1.1 2.7-1.1 1 0 2 .3 2.6 1 .7.8 1.1 1.6 1.1 2.7 0 1.6-.7 2.7-2 3.4.6 1 1.7 1.5 3.3 1.5 1.2 0 2.3-.4 3.2-1.4.9-.9 1.4-2 1.4-3.3v-6.9zM42 167.7V133c0-1.3-.4-2-1.2-2h-2.2c-1 0-1.6.2-2 .6-.4.3-.9.9-1.5 1.8a36.9 36.9 0 00-3.3 7.3c-1 3-1.4 5.8-1.4 8.3 0 2.8.5 5 1.4 7 .5-.2 1-.3 1.6-.3a3.7 3.7 0 013.7 3.7c0 1-.4 2-1 2.6-.8.8-1.7 1.1-2.7 1.1-2.2 0-3.8-1.6-4.5-5-.5-1.8-.7-4-.7-6.7a54.7 54.7 0 014-20.4h-7.5c-1.4 0-2 1.1-2 3.3v27c0 6.6 2 9.8 6.2 9.8h11c1 0 1.6-.3 2-1.2l.1-2.3zM64.7 169.3v-36c0-1-.1-1.6-.3-1.9-.2-.2-.9-.3-1.8-.3h-5.4c-1 0-1.8.3-2 .9a10 10 0 00-.9 4.6c0 1.6.2 3 .7 4.3a3.6 3.6 0 013.3-1.8c1 0 1.9.4 2.6 1.1.7.8 1 1.7 1 2.7 0 1-.3 1.9-1 2.6-.8.7-1.6 1-2.6 1s-2.1-.4-3-1.3A25.4 25.4 0 0151 135a47 47 0 01-.6-4h-4.9c-.7 0-1 .1-1.3.4-.2.2-.2.7-.2 1.4v36.4c0 .9.1 1.5.5 1.7.2.2.7.2 1.7.2h6.1c1.1 0 1.7-.4 2-1.5a44.3 44.3 0 00-1.3-17.6c-.9.8-1.7 1.1-2.7 1.1-.9 0-1.7-.3-2.4-1a3.2 3.2 0 01-1.2-2.6c0-1 .3-2 1-2.7.6-.7 1.6-1.1 2.8-1.1.7 0 1.4.2 2.1.7.5.4 1 1 1.3 1.7 1 2.3 2.1 6 3.1 11s1.5 9 1.5 12h4.6c.7 0 1.2-.1 1.4-.4l.1-1.5z"/></g><g id="competitive" fill="#04AADC"><path d="M12.8 181v-4.4c0-1.9-1-2.9-3.2-2.9H4.5c-2.2 0-3.3 1-3.3 2.9v17.9c0 2.4 1.2 3.6 3.6 3.6h4.4c2.4 0 3.6-1.2 3.6-3.6v-6.8c-.9.7-2 1-3.5 1-1.4 0-2.7-.5-3.7-1.5a5.7 5.7 0 01-1.8-4.3c0-1.1.2-2 .7-2.9.6-.9 1.4-1.4 2.4-1.4.6 0 1 .3 1.5.7a2.3 2.3 0 010 3.2c-.5.4-1 .6-1.6.6a3 3 0 002.8 1.5 3 3 0 002.3-1c.6-.8 1-1.6 1-2.5zM26.4 194.9v-17.6c0-2.4-1.2-3.6-3.8-3.6h-4.8c-2.5 0-3.8 1.2-3.8 3.6V195c0 2.1 1.3 3.2 3.9 3.2h4.9c2.4 0 3.6-1 3.6-3.2zm-3.9-3.9c0 .7-.2 1.2-.7 1.6-.5.5-1 .7-1.6.7-.6 0-1.1-.3-1.6-.7-.4-.4-.6-1-.6-1.6a9 9 0 011.1-3.8c.9-1.6 1.3-3 1.5-4.1a2 2 0 01-1.8-.5 2 2 0 01-.8-1.7c0-.7.2-1.2.6-1.7.5-.4 1-.6 1.7-.6.6 0 1.1.2 1.6.7.4.4.6 1 .6 1.6 0 .9-.3 2-1 3.7-.7 1.7-1.1 3.1-1.2 4.1.6 0 1.1.3 1.5.7.5.5.7 1 .7 1.6zM45.3 197.1v-21.3c0-.9-.1-1.4-.4-1.7-.2-.2-.7-.4-1.4-.4h-3.6c-1.3 0-2 .5-2.4 1.5l-.6 1.3c-.1.6-.3.8-.4.8l-.4-.8-.6-1.3c-.4-1-1.1-1.5-2.2-1.5h-3.8c-.8 0-1.3.2-1.5.4-.2.3-.3.8-.3 1.7V197c0 .8.4 1.1 1.2 1.1h4.5c.7 0 1.2-.3 1.4-1.1.6-1.8.8-3.8.8-6.2 0-3-.7-5.6-2-8-.3.2-.7.3-1 .3-.6 0-1.1-.2-1.6-.6-.5-.4-.7-1-.7-1.7 0-.6.2-1.1.6-1.5.5-.5 1-.7 1.7-.7 1.2 0 2.1 1 2.8 3 .3 1.2.6 2.5.7 3.8.1.9.2 1.3.4 1.3s.4-.4.4-1.3c0-1 .3-2.3.8-3.8.6-2 1.5-3 2.8-3a2.3 2.3 0 012.3 2.2c0 .8-.3 1.3-.8 1.8-.4.3-1 .5-1.5.5-.4 0-.8 0-1.1-.3-1.3 2.5-2 5.1-2 8 0 2 .3 4.1.8 6.2.2.8.7 1.1 1.5 1.1h4.5c.7 0 1.1-.3 1.1-1zM59 176.8c0-2-1-3-3-3h-8c-.7 0-1 0-1.2.3-.2.3-.2.7-.2 1.4v21c0 .8 0 1.2.2 1.4.2.1.6.2 1.3.2h9.3c1.1 0 1.7-.4 1.7-1.2v-.2c0-1.1-.7-2.4-2-3.8l-1.8-1.7c-.9-.7-1.5-1.3-2-2a9 9 0 01-2.2-4.4c-.3-1.2-.3-2.6-.1-4.1 0-.7.3-1.2.8-1.5.4-.4.9-.6 1.5-.6s1.2.3 1.6.7c.4.4.6 1 .6 1.5 0 .6-.2 1.2-.5 1.6a2 2 0 01-1.6.8c-.5 0-.9-.1-1.3-.4 0 1.5.4 2.7 1 3.6a3 3 0 002.6 1.2 3 3 0 002.6-1.4c.5-.7.8-1.5.8-2.4v-7zM72 176.8c0-2-1-3-3.2-3h-7.7c-.4 0-.7.3-.8.6l-.1 1V197.6c.2.4.7.6 1.7.6h6.9c2 0 3.2-1 3.2-2.8V191a3 3 0 00-.9-2.2c-.5-.6-1.2-.8-2-.8s-1.5.3-2 .9c.9.4 1.3 1.1 1.3 2.1a2 2 0 01-.7 1.5c-.4.5-1 .7-1.6.7-.6 0-1-.3-1.5-.7-.5-.4-.7-1-.7-1.7 0-1.6.9-2.8 2.7-3.7.6-.4 1.5-.6 2.7-.7l2.1-.1v-.9a14 14 0 01-4.8-.7c-.8-.3-1.5-.8-2-1.5s-.7-1.5-.7-2.4c0-.7.2-1.2.6-1.6.5-.5 1-.7 1.7-.7.6 0 1.1.2 1.5.7.5.4.7 1 .7 1.5 0 1-.4 1.7-1.2 2.1.4.6 1 1 2 1 .8 0 1.4-.3 2-.9.5-.6.8-1.2.8-2v-4.2zM86 174.9c0-.8-.2-1.2-.8-1.2H73.8c-.5 0-.8.4-.8 1.2v16c.7 0 1.4-.3 1.9-1a11 11 0 002.5-7c-.2.2-.6.2-1 .2a2 2 0 01-1.6-.7c-.4-.4-.6-1-.6-1.5 0-.7.2-1.2.6-1.6.5-.5 1-.7 1.7-.7.6 0 1.1.3 1.6.7.4.5.6 1 .6 1.6 0 3.2-.5 6-1.4 8.6-.4 1.2-1.2 2.7-2.5 4.8a11 11 0 00-1.6 3.2c0 .4.3.6 1 .6H85c.6 0 1-.2 1-.6 0-.4-.5-1.5-1.6-3.2-1.3-2-2.1-3.6-2.5-4.8a25 25 0 01-1.4-8.6 2.2 2.2 0 012.2-2.3c.7 0 1.2.3 1.7.7.4.4.6 1 .6 1.6 0 .6-.2 1.1-.7 1.5a2 2 0 01-1.4.7c-.5 0-1 0-1.2-.2 0 2.5 1 4.8 2.7 7 .3.5.7.8 1.2.9h.6v-16zM94.3 196.7V175c0-.6 0-1-.3-1.1-.1-.1-.5-.2-1.1-.2h-4.3c-.6 0-1 .1-1 .2-.2.1-.3.5-.3 1V180.5l-.1.8c0 .3 0 .5.3.7l.6.2c.4 0 .7-.2.8-.6l-.2-.8c0-.6.2-1.1.6-1.5a2 2 0 011.6-.7c.7 0 1.2.2 1.6.7.4.4.6 1 .6 1.6 0 1-.6 1.9-2 2.3-1.2.5-2.4.6-3.8.6v12.8c0 .7 0 1.1.2 1.3.2.2.6.2 1.2.2H93c.6 0 1 0 1.1-.2.1-.1.2-.5.2-1.2zM102.9 186.4V184c0-.4-.3-.6-.7-.6H96c-.5 0-.6.2-.6.6v2.5c0 .4.1.6.6.6h6.2c.4 0 .7-.2.7-.6zM14.2 201.9c0-.8-.3-1.2-.9-1.2H2c-.6 0-.9.4-.9 1.2v16c.8 0 1.4-.3 2-1a11 11 0 002.5-7c-.3.2-.6.2-1 .2a2 2 0 01-1.7-.7c-.4-.4-.6-1-.6-1.5 0-.7.2-1.2.7-1.6.4-.5 1-.7 1.6-.7.6 0 1.2.3 1.6.7.4.5.6 1 .6 1.6 0 3.2-.4 6-1.4 8.6-.4 1.2-1.2 2.7-2.5 4.8a11 11 0 00-1.6 3.2c0 .4.4.6 1 .6H13c.7 0 1-.2 1-.6 0-.4-.5-1.5-1.6-3.2-1.2-2-2-3.6-2.5-4.8a25 25 0 01-1.4-8.6 2.2 2.2 0 012.3-2.3c.6 0 1.2.3 1.6.7.4.4.6 1 .6 1.6 0 .6-.2 1.1-.6 1.5a2 2 0 01-1.5.7c-.5 0-.9 0-1.1-.2 0 2.5.8 4.8 2.6 7 .3.5.7.8 1.2.9h.6v-16zM22.4 223.7V202c0-.6 0-1-.2-1.1l-1.2-.2h-4.3l-1 .2c-.2.1-.3.5-.3 1v6.4c0 .3 0 .5.2.7l.6.2c.4 0 .7-.2.8-.6l-.1-.8c0-.6.2-1.1.6-1.5a2 2 0 011.5-.7c.7 0 1.2.2 1.7.7.4.4.6 1 .6 1.6 0 1-.7 1.9-2 2.3-1.3.5-2.5.6-3.9.6v12.8c0 .7.1 1.1.3 1.3.1.2.5.2 1.1.2h4.3c.6 0 1 0 1.1-.2.2-.1.2-.5.2-1.2zM35.4 219.2v-16.4c0-1.4-.4-2-1.2-2h-4.3l.5 1.5a43 43 0 011.4 5.5c.2 1.8.4 3.6.4 5.3 0 1.6-.1 3-.4 4.1-.5 2-1.4 3-2.7 3-.7 0-1.2-.1-1.6-.6-.5-.4-.7-1-.7-1.6 0-.6.2-1.2.7-1.6.4-.4 1-.7 1.6-.7l1 .3c.5-1.2.8-2.6.8-4.3a21.7 21.7 0 00-3.2-10c-.4-.6-1-1-1.6-1h-1.7c-.5 0-.8.5-.8 1.3v17.4c0 3.8 1.3 5.7 3.8 5.7h4.2c2.5 0 3.8-2 3.8-5.9zM48.4 203.8c0-2-1.1-3-3.2-3h-7.8c-.4 0-.6.3-.7.6l-.1 1V224.6c.2.4.7.6 1.7.6h6.9c2 0 3.2-1 3.2-2.8V218a3 3 0 00-.9-2.2c-.5-.6-1.2-.8-2-.8s-1.5.3-2 .9c.9.4 1.3 1.1 1.3 2.1a2 2 0 01-.7 1.5c-.4.5-1 .7-1.6.7-.6 0-1-.3-1.6-.7-.4-.4-.6-1-.6-1.7 0-1.6.9-2.8 2.7-3.7.6-.4 1.5-.6 2.7-.7l2.1-.1v-.9a14 14 0 01-4.8-.7c-.8-.3-1.5-.8-2-1.5s-.7-1.5-.7-2.4c0-.7.2-1.2.6-1.6.4-.5 1-.7 1.7-.7.6 0 1.1.2 1.5.7.5.4.7 1 .7 1.5 0 1-.4 1.7-1.3 2.1.5.6 1.1 1 2 1 .8 0 1.5-.3 2-.9.6-.6.9-1.2.9-2v-4.2z"/></g><g id="feel" fill="#029C54"><path d="M22.6 232.3c0-3.6-2-5.5-5.6-5.5H4.7c-1.2 0-2 .3-2.4.7-.5.4-.7 1.3-.6 2.4v37.5c0 1.1 0 2 .4 2.2.3.4 1 .5 2.3.5H20c.7 0 1.3-.1 1.7-.6.5-.4.8-1 .8-1.7 0-1.7-.8-3.4-2.1-5.3l-4.4-4.4c-2-1.7-3.2-3-3.8-4-.4-.6-.5-1.4-.2-2.2.2-.5.6-1 1.3-1.3 1-.5 2.6-1 4.6-1.1l3.6-.3v-1.5c-3.6 0-6.3-.6-8-1.3a9.5 9.5 0 01-3.8-3 6 6 0 01-1.6-3.8 4 4 0 011.2-3 4 4 0 012.9-1.1c1 0 2 .4 2.8 1.1.8.8 1.1 1.7 1.1 2.8 0 1.8-.7 3-2.2 3.7.8 1.1 2 1.6 3.6 1.6 1.4 0 2.5-.4 3.5-1.4a5 5 0 001.5-3.6v-7.4zM45.4 232.3c0-3.6-1.9-5.5-5.6-5.5H27.5l-1.5.1c-.7.2-1.1.6-1.3 1.1-.2.3-.2 1-.2 2v37.4c0 .7 0 1.2.2 1.5.2.8 1.1 1.2 2.8 1.2h12.2c3.8 0 5.7-1.7 5.7-5v-7.5c0-1.6-.5-2.9-1.5-3.9s-2.1-1.4-3.5-1.4c-1.6 0-2.7.5-3.6 1.6a4 4 0 012.3 3.7c0 1.1-.4 2-1.2 2.8-.8.8-1.7 1.1-2.9 1.1-1 0-2-.4-2.8-1.2a3.9 3.9 0 01-1.2-3c0-2.8 1.6-5 4.8-6.6 1.1-.6 2.7-1 4.8-1.2l3.9-.3v-1.5a25 25 0 01-8.7-1.3 7.7 7.7 0 01-3.4-2.6 6.7 6.7 0 01-1.4-4.2 4 4 0 011.2-3 4 4 0 012.9-1.1c1.1 0 2 .4 2.8 1.1.8.8 1.2 1.7 1.2 2.8 0 1.8-.8 3-2.2 3.7.7 1.1 1.9 1.6 3.5 1.6 1.4 0 2.6-.4 3.6-1.4a5 5 0 001.4-3.6v-7.4zM68.2 232.3c0-3.6-1.9-5.5-5.5-5.5H50.3l-1.4.1c-.8.2-1.2.6-1.4 1.1l-.2 2v37.4c0 .7 0 1.2.2 1.5.2.8 1.1 1.2 2.8 1.2h12.3c3.7 0 5.6-1.7 5.6-5v-7.5c0-1.6-.5-2.9-1.5-3.9s-2.1-1.4-3.5-1.4c-1.5 0-2.7.5-3.6 1.6a4 4 0 012.3 3.7c0 1.1-.4 2-1.2 2.8-.7.8-1.7 1.1-2.8 1.1-1 0-2-.4-2.8-1.2a3.9 3.9 0 01-1.2-3c0-2.8 1.6-5 4.7-6.6 1.1-.6 2.7-1 4.8-1.2l3.9-.3v-1.5a25 25 0 01-8.7-1.3 7.7 7.7 0 01-3.4-2.6 6.7 6.7 0 01-1.3-4.2 4 4 0 011.1-3 4 4 0 013-1.1 3.8 3.8 0 014 4c-.1 1.7-.9 3-2.3 3.6.7 1.1 2 1.6 3.6 1.6 1.3 0 2.5-.4 3.5-1.4a5 5 0 001.4-3.6v-7.4zM89.6 266.5V249a5.2 5.2 0 00-5.2-5.3c-2 0-3.5 1-4.4 2.6-.8 1.4-1.2 3.2-1.2 5.4v1.8c1.1 0 2 .5 2.7 1.2.6.9 1 1.8 1 2.9 0 1-.4 2-1.2 2.8-.8.8-1.7 1.1-2.8 1.1-1.2 0-2-.4-2.9-1.2a4.4 4.4 0 01-1.1-3.2c0-3.9 1.3-7.7 3.8-11.5l7-8.5c2.4-3 3.7-5.6 3.7-7.7 0-.7-.3-1.3-.7-1.8-.5-.5-1.1-.8-1.8-.8H73c-1.2 0-2 .2-2.4.5-.3.3-.5 1.1-.5 2.4v36.8c0 1.6.3 2.6.8 3 .5.5 1.6.6 3.3.6h12.1c1.3 0 2.3-.2 2.8-.8.3-.5.5-1.4.5-2.8z"/></g><g id="happy" fill="#FE22B8"><path d="M20.4 351.2v-33.7c0-.9 0-1.5-.3-1.8-.1-.3-.7-.4-1.5-.4h-6.4c-1.5 0-2.2 1.4-2.2 4.1 0 1.2.2 2.4.6 3.5l.7-.1c.8 0 1.6.3 2.3 1 .7.8 1 1.6 1 2.5 0 1-.3 1.8-1 2.5s-1.6 1-2.5 1c-1.4 0-2.4-.6-3.1-2-.6-1-.8-2.2-.8-3.6 0-2.3.7-5.3 2-9h-6c-.8 0-1.2.2-1.4.4-.2.2-.3.7-.3 1.5v33.8c0 1 .1 1.6.4 1.8.2.3.8.3 1.8.3h5.9c1.4 0 2.2-1.3 2.2-4.2a10 10 0 00-.5-3.3 3 3 0 01-.7 0c-1 0-1.7-.3-2.4-1s-1-1.6-1-2.5a3.4 3.4 0 013.6-3.5c1.3 0 2.3.7 3 2 .6 1 .9 2.3.9 3.8 0 1.9-.6 4.8-1.9 8.7H19c.7 0 1-.1 1.2-.4l.2-1.4zM40.2 350.6v-30.2c0-3.4-1.7-5.1-5-5.1h-8c-3.3 0-5 1.6-5 4.7v6c0 .8.4 1.6 1 2.2.5.6 1.2.9 2.1.9 1 0 2-.5 2.7-1.5-.2-.4-.3-.9-.3-1.4a3 3 0 011-2.4c.7-.7 1.6-1 2.6-1s1.7.4 2.4 1c.7.7 1 1.6 1 2.5 0 1.6-1 2.8-3.2 3.6a82.5 82.5 0 00-6.1 2.4c-2.2 1.4-3.3 3.8-3.3 6.8v8.1c0 4 1.9 5.8 5.6 5.8h2.9c1-.2 1.8-.8 2.1-1.7.3-1 .5-2.4.5-4.3 0-2.1-.3-3.9-.8-5.3-.4.2-.7.2-1 .2a3.5 3.5 0 01-3.7-3.5c0-1 .3-1.8 1-2.4.7-.7 1.6-1.1 2.6-1.1 2.4 0 3.7 2.3 3.7 6.7 0 5-.5 8.7-1.4 11.4h4.2c.9 0 1.4 0 1.8-.3.4-.2.6-.9.6-2zM61.5 320c0-3.1-1.6-4.7-4.8-4.7H44.2c-1 0-1.5.2-1.7.5-.3.4-.4 1.1-.4 2.2v32.6c0 1.1.2 1.7.4 2 .3.3 1 .4 2 .4H59c1.6 0 2.5-.6 2.5-1.9v-.3c0-1.7-1-3.7-3-5.9l-2.9-2.6a21 21 0 01-3.1-3 14 14 0 01-3.4-6.8 18 18 0 01-.1-6.5c0-1 .5-1.8 1.2-2.3a3.4 3.4 0 014.8.2c.7.7 1 1.5 1 2.4 0 .9-.3 1.7-.9 2.4a3 3 0 01-2.4 1.2c-.7 0-1.3-.2-2-.6a9 9 0 001.6 5.5c1 1.3 2.3 2 4 2 1.7 0 3-.7 4-2.2a6.6 6.6 0 001.2-3.7V320zM82.6 320c0-3.1-1.6-4.7-4.8-4.7H65.3c-1 0-1.5.2-1.8.5-.2.4-.3 1.1-.3 2.2v32.6c0 1.1.2 1.7.4 2 .3.3 1 .4 2 .4H80c1.6 0 2.5-.6 2.5-1.9v-.3c0-1.7-1-3.7-3-5.9l-2.9-2.6a21 21 0 01-3.1-3 14 14 0 01-3.4-6.8 18 18 0 01-.1-6.5c0-1 .5-1.8 1.2-2.3.6-.6 1.4-.9 2.3-.9 1 0 1.9.4 2.5 1 .6.8 1 1.6 1 2.5 0 .9-.3 1.7-.9 2.4a3 3 0 01-2.4 1.2c-.7 0-1.3-.2-2-.6a9 9 0 001.6 5.5c1 1.3 2.3 2 4 2 1.6 0 3-.7 4-2.2a6.6 6.6 0 001.2-3.7V320zM102.4 348.3v-31.1c0-1.3-.4-2-1.2-2h-5.9c-1.7 0-2.5 1.5-2.5 4.2 0 1.4.2 2.5.6 3.5l.6-.1c1 0 1.8.3 2.4 1a3.5 3.5 0 01-2.5 6c-1.4 0-2.4-.6-3-2-.6-1-1-2.2-1-3.6a23.5 23.5 0 012.2-9h-6c-1.2 0-1.8.8-1.8 2.2v23c1.8-1.8 4-2.6 6.7-2.6 1.6 0 3 .3 4.2.9 1.5.8 2.3 1.9 2.3 3.3 0 1-.4 1.7-1 2.5a3 3 0 01-2.3 1c-1.1 0-2-.3-2.7-1-.7-.7-1-1.5-1-2.6v-.6c-.6-.4-1.3-.5-2-.5-2.8 0-4.2 1.7-4.2 5.2v2.8c0 2.9 1.7 4.2 5.2 4.2h7c2 0 3.4-.2 4.3-.8 1-.6 1.6-2 1.6-3.9z"/></g><g id="spade" fill="#FE2B4C"><path d="M20.2 380.3c0-1.7-.1-3-.4-3.7-.5-1.5-1.7-2.6-3.4-3.2l-5.1-1.7c-1.4-.5-2.3-1-2.8-1.5-.8-.7-1.1-1.6-1.1-2.8 0-1.2.4-2 1.1-2.7.7-.6 1.5-.9 2.5-.9s2 .4 2.6 1.2c.5.7.8 1.4.8 2.3 0 .9-.3 1.6-.8 2.2.7.9 1.7 1.3 3 1.3 1.1 0 2-.4 2.7-1.3.6-.7 1-1.5 1-2.4v-7c0-1.2-.6-2.2-1.6-3-.9-.5-2-.9-3.4-.9H6.8c-3.6 0-5.4 1.5-5.4 4.2V371c0 1.1.3 2.2.9 3.2a5.9 5.9 0 003.4 3l4.4 1.4c1.6.6 2.8 1.3 3.5 2 .5.7.7 1.5.7 2.5s-.3 1.8-1 2.5-1.6 1-2.7 1c-.9 0-1.6-.3-2.3-1-.7-.7-1-1.5-1-2.5s.3-1.8 1-2.3c-.7-1-1.7-1.3-3-1.3-1.1 0-2 .3-2.7 1-.8.7-1.2 1.8-1.2 3.2v5.3c0 3.4 2 5.1 6.1 5.1h7c3.8 0 5.7-1.5 5.7-4.7v-9zM41.4 361c0-3.1-1.6-4.7-4.8-4.7H24.2c-1 0-1.6.2-1.8.5-.3.4-.3 1.1-.3 2.2v32.6c0 1.1.1 1.7.4 2 .3.3.9.4 2 .4h14.4c1.7 0 2.5-.6 2.5-1.9v-.3c0-1.7-1-3.7-3-5.9l-2.9-2.6a21 21 0 01-3-3 14 14 0 01-3.4-6.8 18 18 0 01-.2-6.5c.1-1 .5-1.8 1.2-2.3.7-.6 1.5-.9 2.4-.9 1 0 1.8.4 2.5 1 .6.8 1 1.6 1 2.5 0 .9-.4 1.7-1 2.4a3 3 0 01-2.4 1.2c-.7 0-1.3-.2-2-.6a9 9 0 001.6 5.5c1 1.3 2.3 2 4 2 1.7 0 3-.7 4-2.2a6.6 6.6 0 001.2-3.7V361zM61 391.6v-30.2c0-3.4-1.7-5.1-5-5.1h-8c-3.3 0-4.9 1.6-4.9 4.7v6c0 .8.3 1.6.9 2.2.5.6 1.3.9 2.1.9 1 0 2-.5 2.7-1.5-.2-.4-.3-.9-.3-1.4a3 3 0 011-2.4c.8-.7 1.6-1 2.6-1s1.8.4 2.4 1c.7.7 1 1.6 1 2.5 0 1.6-1 2.8-3.2 3.6a82.5 82.5 0 00-6.1 2.4c-2.2 1.4-3.3 3.8-3.3 6.8v8.1c0 4 1.9 5.8 5.6 5.8h2.9c1-.2 1.8-.8 2.1-1.7.4-1 .5-2.4.5-4.3 0-2.1-.2-3.9-.8-5.3-.4.2-.7.2-1 .2a3.5 3.5 0 01-3.7-3.5c0-1 .3-1.8 1-2.4.8-.7 1.6-1.1 2.6-1.1 2.4 0 3.7 2.3 3.7 6.7 0 5-.5 8.7-1.4 11.4h4.3c.8 0 1.3 0 1.7-.3.4-.2.6-.9.6-2zM81.8 388.4v-25.6c0-1.8-.6-3.4-1.8-4.7a6.3 6.3 0 00-4.6-1.9h-10c-1 0-1.8.2-2 .6-.3.3-.5 1-.5 2.1v32.7c0 1.2.1 2 .4 2.1.3.3 1 .3 2.3.3h10.7c1.7 0 3-.4 4-1.4 1-1 1.5-2.4 1.5-4.2zm-6-13.9c0 3.8-.1 6.2-.3 7.3-.6 3.1-2 4.7-4 4.7-1 0-1.8-.3-2.4-1-.7-.7-1-1.5-1-2.5s.3-1.8 1-2.4a3.4 3.4 0 013.8-.8 8 8 0 001.4-4.8 7 7 0 00-1.3-4.5c-.4.2-.9.3-1.5.3-1 0-1.8-.3-2.4-1-.7-.7-1-1.6-1-2.5 0-1 .3-1.8 1-2.4.6-.7 1.5-1 2.4-1 2 0 3.3 1.3 3.9 4 .2 1.4.4 3.5.4 6.6zM102 361c0-3.1-1.7-4.7-5-4.7H85c-.6.2-1 .5-1.2 1l-.1 1.7v32.6l.1 1.4c.2.7 1 1 2.5 1H97c3.3 0 5-1.4 5-4.4V383c0-1.4-.5-2.5-1.4-3.4a4.2 4.2 0 00-3-1.3c-1.4 0-2.4.5-3.2 1.4 1.3.7 2 1.8 2 3.3 0 1-.3 1.8-1 2.4-.7.7-1.5 1-2.5 1-.9 0-1.7-.3-2.4-1-.8-.7-1-1.5-1-2.6 0-2.5 1.3-4.5 4-5.8 1-.5 2.4-.9 4.3-1 1-.2 2.2-.2 3.3-.3v-1.3c-3.5 0-6-.5-7.5-1.1a6.7 6.7 0 01-3-2.3c-.8-1.1-1.2-2.4-1.2-3.7 0-1 .3-2 1-2.6.7-.7 1.6-1 2.6-1s1.7.3 2.4 1 1 1.5 1 2.5c0 1.5-.7 2.6-2 3.2.7 1 1.8 1.4 3.2 1.4 1.2 0 2.2-.4 3-1.3.9-.8 1.3-1.9 1.3-3.1V361z"/></g><g id="game" fill="#029C54"><path d="M19.6 430.6V417a5 5 0 00-1.8-3.8 5.8 5.8 0 00-4-1.6c-1.5 0-2.9.5-4 1.7A4.8 4.8 0 008 417v.6c.6-.6 1.3-.9 2.4-.9 1 0 1.9.3 2.5 1 .7.7 1 1.5 1 2.6a3.4 3.4 0 01-3.5 3.4c-1.6 0-3-.9-3.8-2.7-.8-1.5-1.1-3-1.1-5 0-2.4.7-4.5 2.2-6.4 1.5-2 3.6-3 6-3 2.2 0 4 1 5.7 3v-8.3c0-1.8-.5-3-1.5-3.6-.7-.3-2-.5-4-.5H7.2c-3.8 0-5.7 1.9-5.7 5.6v27.7c0 3 1.7 4.4 5.2 4.4h8c3.2 0 4.9-1.4 4.9-4.4zM39.3 432.6v-30.2c0-3.4-1.6-5.1-5-5.1h-8c-3.3 0-4.9 1.6-4.9 4.7v6c0 .8.3 1.6 1 2.2.5.6 1.2.9 2 .9 1.1 0 2-.5 2.7-1.5-.2-.4-.2-.9-.2-1.4a3 3 0 011-2.4c.7-.7 1.6-1 2.5-1 1 0 1.8.4 2.5 1 .6.7 1 1.6 1 2.5 0 1.6-1.1 2.8-3.3 3.6a82.5 82.5 0 00-6 2.4c-2.3 1.4-3.3 3.8-3.3 6.8v8.1c0 4 1.8 5.8 5.6 5.8h2.8c1.1-.2 1.8-.8 2.2-1.7.3-1 .5-2.4.5-4.3 0-2.1-.3-3.9-.9-5.3-.3.2-.6.2-1 .2a3.5 3.5 0 01-3.7-3.5c0-1 .4-1.8 1-2.4.8-.7 1.7-1.1 2.6-1.1 2.5 0 3.7 2.3 3.7 6.7 0 5-.5 8.7-1.3 11.4H37c.8 0 1.4 0 1.8-.3.4-.2.5-.9.5-2zM68.5 433.5v-33c0-1.4-.2-2.2-.5-2.6-.4-.4-1.2-.6-2.3-.6H60c-2 0-3.1.7-3.7 2.2l-.8 2c-.3 1-.5 1.3-.6 1.3l-.7-1.3-.9-2a3.5 3.5 0 00-3.4-2.2h-6c-1.2 0-2 .2-2.3.5-.3.4-.4 1.3-.4 2.6v33c0 1 .6 1.6 1.9 1.6H50c1 0 1.8-.5 2.2-1.7.8-2.8 1.2-6 1.2-9.5 0-4.7-1-8.8-3-12.5-.5.4-1.1.5-1.7.5-.9 0-1.7-.3-2.4-.9-.8-.6-1.1-1.5-1.1-2.6 0-1 .3-1.8 1-2.5.6-.7 1.5-1 2.5-1 2 0 3.4 1.5 4.3 4.6.6 2 1 4 1.2 6 .1 1.3.3 2 .7 2 .2 0 .5-.7.6-2 0-1.7.4-3.6 1.1-6 1-3 2.4-4.6 4.3-4.6a3.5 3.5 0 013.6 3.5c0 1.1-.4 2-1.2 2.6-.7.6-1.4 1-2.3 1-.6 0-1.2-.2-1.8-.6-2 3.8-3 8-3 12.4 0 3.2.4 6.4 1.3 9.5.3 1.3 1 1.8 2.3 1.8h7c1 0 1.6-.5 1.6-1.5zM88.7 402c0-3.1-1.6-4.7-4.8-4.7H71.8c-.6.2-1 .5-1.2 1l-.1 1.7v32.6l.1 1.4c.2.7 1 1 2.5 1h10.7c3.2 0 5-1.4 5-4.4V424c0-1.4-.5-2.5-1.4-3.4a4.2 4.2 0 00-3-1.3c-1.4 0-2.4.5-3.2 1.4 1.3.7 2 1.8 2 3.3 0 1-.3 1.8-1 2.4-.7.7-1.5 1-2.5 1s-1.7-.3-2.5-1c-.7-.7-1-1.5-1-2.6 0-2.5 1.4-4.5 4.2-5.8 1-.5 2.3-.9 4.1-1 1.1-.2 2.2-.2 3.4-.3v-1.3c-3.5 0-6-.5-7.5-1.1a6.7 6.7 0 01-3-2.3c-.8-1.1-1.2-2.4-1.2-3.7 0-1 .3-2 1-2.6.7-.7 1.5-1 2.5-1s1.8.3 2.5 1 1 1.5 1 2.5c0 1.5-.7 2.6-2 3.2.7 1 1.8 1.4 3.2 1.4 1.2 0 2.2-.4 3-1.3.9-.8 1.3-1.9 1.3-3.1V402z"/></g><g id="excite" fill="#FE22B8"><path d="M17.8 441.5c0-2.9-1.5-4.3-4.4-4.3H2.6c-.5.2-.9.5-1 1l-.2 1.4V469c0 .6 0 1 .2 1.2.1.6.9 1 2.2 1h9.5c3 0 4.5-1.4 4.5-4v-5.9a4 4 0 00-1.2-3 3.7 3.7 0 00-2.8-1.1c-1.2 0-2 .4-2.7 1.2 1.1.6 1.7 1.6 1.7 3 0 .8-.3 1.5-.9 2.1a3 3 0 01-2.2.9c-.8 0-1.6-.3-2.2-1a3 3 0 01-1-2.2c0-2.3 1.3-4 3.8-5.3.8-.4 2-.7 3.7-.9l3-.2v-1.2c-3.1 0-5.3-.4-6.7-1a6 6 0 01-2.7-2c-.7-1-1-2.1-1-3.3 0-1 .2-1.7.8-2.3.6-.6 1.4-1 2.3-1a3 3 0 012.2 1c.6.6 1 1.3 1 2.2a3 3 0 01-1.8 2.8c.6.9 1.5 1.3 2.8 1.3 1 0 2-.4 2.7-1.1.8-.8 1.2-1.7 1.2-2.8v-5.8zM36.2 454.1c-.4.7-1 1.2-1.9 1.6-.8.4-1.6.6-2.3.6l-1.7-.3c-.6-.2-.8-.3-.8-.5h1.2c1.5 0 2.8-.5 3.9-1.6 1-1 1.6-2.4 1.6-4.1v-11c0-.5-.1-1-.3-1.2-.2-.3-.7-.4-1.5-.4h-6.8c3 2.7 4.7 6 4.7 9.8 0 .9-.3 1.6-1 2.3-.5.6-1.3 1-2.1 1-1 0-1.8-.4-2.4-1a3 3 0 01-.8-2.2c0-1.7.9-2.8 2.7-3.1.2-.6.2-1.2.2-1.7a5 5 0 00-.8-2.9c-1-1.4-2.4-2.2-4-2.2h-3.2c-.7 0-1.2.2-1.4.4l-.2 1.7v15.4c1-1.5 2.4-2.2 4.4-2.2.7 0 1.5.2 2.2.5l.2.3h-1.2c-1.6 0-3 .5-4 1.6a5.6 5.6 0 00-1.6 4.2v10.2c0 .7 0 1.2.2 1.4.2.3.6.3 1.3.3H28a13 13 0 01-4-5.1c-.6-1.7-.9-3.4-.7-5 0-.7.4-1.4 1-2 .5-.6 1.2-.9 2.2-.9a3 3 0 012.2 1c.5.6.8 1.4.8 2.2 0 .8-.2 1.5-.7 2-.5.5-1 .9-1.6 1L27 466a5 5 0 005.3 5h2c1 0 1.5 0 1.7-.3.2-.2.3-.7.3-1.6v-15zM54 447.4v-6.2c0-2.7-1.4-4-4.3-4h-7.2c-3 0-4.6 1.3-4.6 4V466c0 3.4 1.7 5 5 5h6.2c3.3 0 5-1.6 5-5v-9.4a7.4 7.4 0 01-5 1.5c-1.9 0-3.6-.8-5.1-2.2a8 8 0 01-2.5-6c0-1.6.3-2.8 1-4 .8-1.3 2-2 3.4-2 .7 0 1.4.4 2 1a3.1 3.1 0 010 4.5 3 3 0 01-2.2.8c.9 1.4 2.1 2 3.8 2 1.3 0 2.4-.5 3.3-1.4.9-1 1.3-2 1.3-3.4zM65.5 469v-30c0-.9-.1-1.4-.4-1.6-.2-.2-.7-.2-1.6-.2h-6c-.7 0-1.2 0-1.4.3-.2.1-.3.6-.3 1.3v7.8l-.2 1.1c0 .4.2.7.4.9.3.3.6.3.9.3.5 0 1-.2 1.1-.8-.2-.3-.2-.7-.2-1.1 0-.9.2-1.5.8-2.1.5-.6 1.2-1 2.2-1a3 3 0 012.2 1c.6.6.9 1.3.9 2.3 0 1.4-1 2.5-2.8 3.2a15 15 0 01-5.3.8V469c0 1 0 1.5.3 1.7.2.3.8.3 1.6.3h6c.8 0 1.3 0 1.5-.3.2-.2.3-.7.3-1.7zM85.3 438.8c0-1-.4-1.6-1.2-1.6H68.3c-.8 0-1.2.5-1.2 1.6V461c1 0 2-.4 2.7-1.4 2.3-3 3.5-6.1 3.5-9.7-.4.2-.8.3-1.4.3-1 0-1.8-.3-2.3-1a3 3 0 01-.8-2.1 3 3 0 011-2.2 3 3 0 012.2-1 3 3 0 012.2 1c.5.7.9 1.4.9 2.2 0 4.5-.7 8.5-2 12-.6 1.6-1.7 3.8-3.4 6.6a15.4 15.4 0 00-2.3 4.4c0 .6.5 1 1.5 1h14.7c1 0 1.5-.4 1.5-1 0-.5-.8-2-2.3-4.4-1.7-2.8-2.9-5-3.5-6.6-1.3-3.5-2-7.5-2-12a3 3 0 013.2-3.1c1 0 1.7.3 2.3.9.5.6.9 1.4.9 2.2a3 3 0 01-1 2.2c-.6.6-1.2 1-2 1-.7 0-1.2-.2-1.6-.4 0 3.5 1.2 6.7 3.7 9.8.4.6 1 1 1.7 1.2h.8v-22.1zM103.3 441.5c0-2.9-1.5-4.3-4.4-4.3H88.1c-.5.2-.9.5-1 1l-.2 1.4V469l.1 1.2c.2.6 1 1 2.3 1h9.5c3 0 4.5-1.4 4.5-4v-5.9a4 4 0 00-1.2-3 3.7 3.7 0 00-2.8-1.1c-1.2 0-2 .4-2.7 1.2 1.1.6 1.7 1.6 1.7 3 0 .8-.3 1.5-.9 2.1a3 3 0 01-2.2.9c-.8 0-1.6-.3-2.2-1a3 3 0 01-1-2.2c0-2.3 1.3-4 3.8-5.3.8-.4 2-.7 3.7-.9l3-.2v-1.2c-3.1 0-5.3-.4-6.7-1a6 6 0 01-2.7-2c-.7-1-1-2.1-1-3.3 0-1 .2-1.7.8-2.3.6-.6 1.4-1 2.3-1a3 3 0 012.2 1c.6.6 1 1.3 1 2.2a3 3 0 01-1.8 2.8c.6.9 1.5 1.3 2.8 1.3 1 0 2-.4 2.7-1.1.8-.8 1.2-1.7 1.2-2.8v-5.8z"/></g><g id="black"><mask id="path-22-inside-1" fill="#fff"><path d="M21.2 283.2a18 18 0 00-1-6.8c-1-1.9-3-2.8-6-2.8H4c-.8 0-1.4 0-1.7.2-.5.3-.7.8-.7 1.6v34.8c0 .9.2 1.4.6 1.6.3.2 1 .3 1.8.3H15c2.2 0 3.7-.5 4.7-1.4.9-1 1.4-2.6 1.4-4.9v-7a9 9 0 00-.7-4.1c-.7-1.1-1.8-2-3.3-2.4l-.3-.3s0-.2.3-.3a5.3 5.3 0 003.4-3.4c.3-1.2.6-2.9.6-5zM14 301c0 1-.4 1.8-1 2.5-.8.7-1.6 1-2.5 1-2.2 0-3.5-1.6-4.1-4.8a56 56 0 01.1-14c.6-3 1.9-4.3 4-4.3 1 0 1.8.4 2.5 1 .6.7 1 1.6 1 2.5 0 1-.4 1.9-1 2.5-.8.8-1.6 1.1-2.5 1.1-.6 0-1.1 0-1.5-.3a7.2 7.2 0 00-1.3 4.6c0 2 .4 3.7 1.3 4.9.4-.2 1-.3 1.5-.3 1 0 1.8.4 2.5 1 .6.8 1 1.6 1 2.6zM40.4 308.9v-15.6a4.6 4.6 0 00-4.6-4.7c-1.8 0-3.1.8-4 2.3-.7 1.3-1 2.9-1 4.8v1.6c1 0 1.8.4 2.4 1.1a4 4 0 01.9 2.6c0 1-.4 1.8-1 2.5-.8.6-1.6 1-2.6 1s-1.8-.4-2.5-1.1c-.7-.7-1-1.7-1-2.9 0-3.4 1-6.8 3.3-10.2l6.3-7.6c2.2-2.7 3.3-5 3.3-6.9 0-.6-.3-1.1-.7-1.5-.4-.5-1-.7-1.5-.7h-12c-1.2 0-1.9 0-2.2.4-.3.3-.4 1-.4 2.1V309c0 1.4.2 2.3.7 2.7.4.4 1.4.5 2.9.5h10.8c1.2 0 2-.2 2.4-.8.3-.3.5-1.2.5-2.4zM60.3 309.7v-31c0-3.4-1.7-5.1-5.1-5.1H47c-3.4 0-5 1.6-5 4.8v6.1c0 .9.3 1.7 1 2.3.5.6 1.2.9 2.1.9 1 0 2-.5 2.7-1.6a3 3 0 01-.2-1.4c0-1 .3-1.7 1-2.4s1.6-1 2.6-1 1.8.4 2.5 1c.7.7 1 1.6 1 2.5 0 1.7-1.1 2.9-3.3 3.7a84.2 84.2 0 00-6.2 2.5c-2.3 1.4-3.4 3.8-3.4 7v8.2c0 4 2 6 5.8 6 1.6 0 2.6 0 2.9-.2 1-.2 1.8-.7 2.2-1.6.3-1 .5-2.5.5-4.4 0-2.2-.3-4-.9-5.4l-1 .2a3.5 3.5 0 01-3.8-3.6c0-1 .4-1.8 1-2.5.8-.7 1.7-1 2.7-1 2.5 0 3.8 2.2 3.8 6.8 0 5-.5 8.8-1.4 11.6h4.3c.8 0 1.4 0 1.8-.3.4-.2.6-1 .6-2.1zM80.7 285.1v-7c0-3-1.7-4.5-5-4.5h-8.2c-3.5 0-5.2 1.5-5.2 4.5v28.3c0 3.8 1.9 5.7 5.7 5.7h7c3.7 0 5.6-1.9 5.6-5.7v-10.8a8.5 8.5 0 01-5.5 1.7c-2.2 0-4.2-.8-6-2.5a9 9 0 01-2.7-6.8c0-1.7.3-3.2 1.1-4.5a4.3 4.3 0 013.8-2.2c1 0 1.7.4 2.4 1a3.6 3.6 0 010 5.1c-.8.7-1.6 1-2.6 1 1 1.5 2.4 2.3 4.4 2.3 1.5 0 2.7-.6 3.7-1.6 1-1.1 1.5-2.4 1.5-4zM102.4 300.7c0-4.4-1.7-7.2-5-8.4-.2 0-.2-.2-.2-.3 0-.1 0-.2.2-.3 3.3-1.2 5-4 5-8.2v-8.2c0-1.1-.5-1.7-1.4-1.7h-6.8c.9 3 1.3 6 1.3 9 0 1.9-.4 3.3-1.2 4.3-.8 1-1.7 1.5-2.8 1.5-1 0-2-.3-2.6-1-.7-.7-1-1.5-1-2.6 0-1 .2-1.8 1-2.5.6-.6 1.4-1 2.5-1h.6c.6-1.8.7-3.7.3-5.8-.3-1.3-1-2-2.3-2h-5.4c-.9 0-1.4.2-1.7.4-.2.2-.3.6-.3 1.4v34.6c0 1 0 1.6.3 1.9.2.2.9.3 2 .3h4.3c1.4 0 2.4-.8 3-2.5.2-1.2.4-2.5.4-3.8 0-1.5-.2-2.6-.6-3.6h-.6c-.9 0-1.7-.3-2.4-.9-.8-.6-1.2-1.5-1.2-2.7 0-1 .4-1.8 1-2.5.8-.7 1.6-1 2.7-1s2.1.5 2.9 1.5c.7 1 1 2.5 1 4.4 0 5.4-.1 9-.3 11.1h5.7c.7 0 1.2-.1 1.4-.5l.2-1.6v-9.3z"/></mask><path d="M21.2 283.2a18 18 0 00-1-6.8c-1-1.9-3-2.8-6-2.8H4c-.8 0-1.4 0-1.7.2-.5.3-.7.8-.7 1.6v34.8c0 .9.2 1.4.6 1.6.3.2 1 .3 1.8.3H15c2.2 0 3.7-.5 4.7-1.4.9-1 1.4-2.6 1.4-4.9v-7a9 9 0 00-.7-4.1c-.7-1.1-1.8-2-3.3-2.4l-.3-.3s0-.2.3-.3a5.3 5.3 0 003.4-3.4c.3-1.2.6-2.9.6-5zM14 301c0 1-.4 1.8-1 2.5-.8.7-1.6 1-2.5 1-2.2 0-3.5-1.6-4.1-4.8a56 56 0 01.1-14c.6-3 1.9-4.3 4-4.3 1 0 1.8.4 2.5 1 .6.7 1 1.6 1 2.5 0 1-.4 1.9-1 2.5-.8.8-1.6 1.1-2.5 1.1-.6 0-1.1 0-1.5-.3a7.2 7.2 0 00-1.3 4.6c0 2 .4 3.7 1.3 4.9.4-.2 1-.3 1.5-.3 1 0 1.8.4 2.5 1 .6.8 1 1.6 1 2.6zM40.4 308.9v-15.6a4.6 4.6 0 00-4.6-4.7c-1.8 0-3.1.8-4 2.3-.7 1.3-1 2.9-1 4.8v1.6c1 0 1.8.4 2.4 1.1a4 4 0 01.9 2.6c0 1-.4 1.8-1 2.5-.8.6-1.6 1-2.6 1s-1.8-.4-2.5-1.1c-.7-.7-1-1.7-1-2.9 0-3.4 1-6.8 3.3-10.2l6.3-7.6c2.2-2.7 3.3-5 3.3-6.9 0-.6-.3-1.1-.7-1.5-.4-.5-1-.7-1.5-.7h-12c-1.2 0-1.9 0-2.2.4-.3.3-.4 1-.4 2.1V309c0 1.4.2 2.3.7 2.7.4.4 1.4.5 2.9.5h10.8c1.2 0 2-.2 2.4-.8.3-.3.5-1.2.5-2.4zM60.3 309.7v-31c0-3.4-1.7-5.1-5.1-5.1H47c-3.4 0-5 1.6-5 4.8v6.1c0 .9.3 1.7 1 2.3.5.6 1.2.9 2.1.9 1 0 2-.5 2.7-1.6a3 3 0 01-.2-1.4c0-1 .3-1.7 1-2.4s1.6-1 2.6-1 1.8.4 2.5 1c.7.7 1 1.6 1 2.5 0 1.7-1.1 2.9-3.3 3.7a84.2 84.2 0 00-6.2 2.5c-2.3 1.4-3.4 3.8-3.4 7v8.2c0 4 2 6 5.8 6 1.6 0 2.6 0 2.9-.2 1-.2 1.8-.7 2.2-1.6.3-1 .5-2.5.5-4.4 0-2.2-.3-4-.9-5.4l-1 .2a3.5 3.5 0 01-3.8-3.6c0-1 .4-1.8 1-2.5.8-.7 1.7-1 2.7-1 2.5 0 3.8 2.2 3.8 6.8 0 5-.5 8.8-1.4 11.6h4.3c.8 0 1.4 0 1.8-.3.4-.2.6-1 .6-2.1zM80.7 285.1v-7c0-3-1.7-4.5-5-4.5h-8.2c-3.5 0-5.2 1.5-5.2 4.5v28.3c0 3.8 1.9 5.7 5.7 5.7h7c3.7 0 5.6-1.9 5.6-5.7v-10.8a8.5 8.5 0 01-5.5 1.7c-2.2 0-4.2-.8-6-2.5a9 9 0 01-2.7-6.8c0-1.7.3-3.2 1.1-4.5a4.3 4.3 0 013.8-2.2c1 0 1.7.4 2.4 1a3.6 3.6 0 010 5.1c-.8.7-1.6 1-2.6 1 1 1.5 2.4 2.3 4.4 2.3 1.5 0 2.7-.6 3.7-1.6 1-1.1 1.5-2.4 1.5-4zM102.4 300.7c0-4.4-1.7-7.2-5-8.4-.2 0-.2-.2-.2-.3 0-.1 0-.2.2-.3 3.3-1.2 5-4 5-8.2v-8.2c0-1.1-.5-1.7-1.4-1.7h-6.8c.9 3 1.3 6 1.3 9 0 1.9-.4 3.3-1.2 4.3-.8 1-1.7 1.5-2.8 1.5-1 0-2-.3-2.6-1-.7-.7-1-1.5-1-2.6 0-1 .2-1.8 1-2.5.6-.6 1.4-1 2.5-1h.6c.6-1.8.7-3.7.3-5.8-.3-1.3-1-2-2.3-2h-5.4c-.9 0-1.4.2-1.7.4-.2.2-.3.6-.3 1.4v34.6c0 1 0 1.6.3 1.9.2.2.9.3 2 .3h4.3c1.4 0 2.4-.8 3-2.5.2-1.2.4-2.5.4-3.8 0-1.5-.2-2.6-.6-3.6h-.6c-.9 0-1.7-.3-2.4-.9-.8-.6-1.2-1.5-1.2-2.7 0-1 .4-1.8 1-2.5.8-.7 1.6-1 2.7-1s2.1.5 2.9 1.5c.7 1 1 2.5 1 4.4 0 5.4-.1 9-.3 11.1h5.7c.7 0 1.2-.1 1.4-.5l.2-1.6v-9.3z" fill="#000"/><path d="M21.2 283.2a18 18 0 00-1-6.8c-1-1.9-3-2.8-6-2.8H4c-.8 0-1.4 0-1.7.2-.5.3-.7.8-.7 1.6v34.8c0 .9.2 1.4.6 1.6.3.2 1 .3 1.8.3H15c2.2 0 3.7-.5 4.7-1.4.9-1 1.4-2.6 1.4-4.9v-7a9 9 0 00-.7-4.1c-.7-1.1-1.8-2-3.3-2.4l-.3-.3s0-.2.3-.3a5.3 5.3 0 003.4-3.4c.3-1.2.6-2.9.6-5zM14 301c0 1-.4 1.8-1 2.5-.8.7-1.6 1-2.5 1-2.2 0-3.5-1.6-4.1-4.8a56 56 0 01.1-14c.6-3 1.9-4.3 4-4.3 1 0 1.8.4 2.5 1 .6.7 1 1.6 1 2.5 0 1-.4 1.9-1 2.5-.8.8-1.6 1.1-2.5 1.1-.6 0-1.1 0-1.5-.3a7.2 7.2 0 00-1.3 4.6c0 2 .4 3.7 1.3 4.9.4-.2 1-.3 1.5-.3 1 0 1.8.4 2.5 1 .6.8 1 1.6 1 2.6zM40.4 308.9v-15.6a4.6 4.6 0 00-4.6-4.7c-1.8 0-3.1.8-4 2.3-.7 1.3-1 2.9-1 4.8v1.6c1 0 1.8.4 2.4 1.1a4 4 0 01.9 2.6c0 1-.4 1.8-1 2.5-.8.6-1.6 1-2.6 1s-1.8-.4-2.5-1.1c-.7-.7-1-1.7-1-2.9 0-3.4 1-6.8 3.3-10.2l6.3-7.6c2.2-2.7 3.3-5 3.3-6.9 0-.6-.3-1.1-.7-1.5-.4-.5-1-.7-1.5-.7h-12c-1.2 0-1.9 0-2.2.4-.3.3-.4 1-.4 2.1V309c0 1.4.2 2.3.7 2.7.4.4 1.4.5 2.9.5h10.8c1.2 0 2-.2 2.4-.8.3-.3.5-1.2.5-2.4zM60.3 309.7v-31c0-3.4-1.7-5.1-5.1-5.1H47c-3.4 0-5 1.6-5 4.8v6.1c0 .9.3 1.7 1 2.3.5.6 1.2.9 2.1.9 1 0 2-.5 2.7-1.6a3 3 0 01-.2-1.4c0-1 .3-1.7 1-2.4s1.6-1 2.6-1 1.8.4 2.5 1c.7.7 1 1.6 1 2.5 0 1.7-1.1 2.9-3.3 3.7a84.2 84.2 0 00-6.2 2.5c-2.3 1.4-3.4 3.8-3.4 7v8.2c0 4 2 6 5.8 6 1.6 0 2.6 0 2.9-.2 1-.2 1.8-.7 2.2-1.6.3-1 .5-2.5.5-4.4 0-2.2-.3-4-.9-5.4l-1 .2a3.5 3.5 0 01-3.8-3.6c0-1 .4-1.8 1-2.5.8-.7 1.7-1 2.7-1 2.5 0 3.8 2.2 3.8 6.8 0 5-.5 8.8-1.4 11.6h4.3c.8 0 1.4 0 1.8-.3.4-.2.6-1 .6-2.1zM80.7 285.1v-7c0-3-1.7-4.5-5-4.5h-8.2c-3.5 0-5.2 1.5-5.2 4.5v28.3c0 3.8 1.9 5.7 5.7 5.7h7c3.7 0 5.6-1.9 5.6-5.7v-10.8a8.5 8.5 0 01-5.5 1.7c-2.2 0-4.2-.8-6-2.5a9 9 0 01-2.7-6.8c0-1.7.3-3.2 1.1-4.5a4.3 4.3 0 013.8-2.2c1 0 1.7.4 2.4 1a3.6 3.6 0 010 5.1c-.8.7-1.6 1-2.6 1 1 1.5 2.4 2.3 4.4 2.3 1.5 0 2.7-.6 3.7-1.6 1-1.1 1.5-2.4 1.5-4zM102.4 300.7c0-4.4-1.7-7.2-5-8.4-.2 0-.2-.2-.2-.3 0-.1 0-.2.2-.3 3.3-1.2 5-4 5-8.2v-8.2c0-1.1-.5-1.7-1.4-1.7h-6.8c.9 3 1.3 6 1.3 9 0 1.9-.4 3.3-1.2 4.3-.8 1-1.7 1.5-2.8 1.5-1 0-2-.3-2.6-1-.7-.7-1-1.5-1-2.6 0-1 .2-1.8 1-2.5.6-.6 1.4-1 2.5-1h.6c.6-1.8.7-3.7.3-5.8-.3-1.3-1-2-2.3-2h-5.4c-.9 0-1.4.2-1.7.4-.2.2-.3.6-.3 1.4v34.6c0 1 0 1.6.3 1.9.2.2.9.3 2 .3h4.3c1.4 0 2.4-.8 3-2.5.2-1.2.4-2.5.4-3.8 0-1.5-.2-2.6-.6-3.6h-.6c-.9 0-1.7-.3-2.4-.9-.8-.6-1.2-1.5-1.2-2.7 0-1 .4-1.8 1-2.5.8-.7 1.6-1 2.7-1s2.1.5 2.9 1.5c.7 1 1 2.5 1 4.4 0 5.4-.1 9-.3 11.1h5.7c.7 0 1.2-.1 1.4-.5l.2-1.6v-9.3z" stroke="#fff" stroke-width="2" mask="url(#path-22-inside-1)"/></g><g id="axis" fill="#fff" fill-opacity=".6"><path d="M120.9 49.6c-.4 1.4-.9 4.5-.9 6.6 0 .2.2.4.5.5l.7.2c.7 0 2-.9 3.4-.9s2.1 1 2.1 2.6c0 2.2-1.2 3-2.6 3-1.3 0-2.1-.5-2.7-.9-.3-.3-.6-.6-.8-.6l-.3.3c-.3.4-.5 1-.5 1.2 0 .2.1.3.4.5a7 7 0 004 1.1c2.6 0 4.2-1.6 4.2-4.7 0-2.3-1.3-3.9-3.5-3.9-1.9 0-2.6 1-3.1 1-.2 0-.2-.2-.2-.4 0-1.1.2-4 .8-4.5 0-.1.2-.2.7-.2a18.6 18.6 0 014.2.6l.3-.5.2-1s-.1-.3-.5-.3a70.3 70.3 0 00-6 0c-.2 0-.3 0-.4.3zM131.8 63h.6c.4-.1.5-.2.5-.5l-.2-6.6.2-6.5c0-.3-.2-.4-.4-.4-.6 0-1.6.4-2.2.9l-.2.3.3.4c.7.2.8.6.8 2l-.2 10c0 .3.1.3.4.4h.4zM282.3 63l1.8-.1h3.4c2.2 0 2.7-1.4 2.7-2.8 0-.6-.1-1-.3-1.3 0-.2-.2-.2-.3-.2-.2 0-.3.1-.4.3 0 .9-.1 1.6-.6 2-.5.4-1.5.5-4.9.5-.3 0-.5-.2-.5-.4 0-1.5 1-2.4 3.3-4 2.4-1.5 3.5-2.5 3.5-4.6 0-2-1.4-3.4-3.7-3.4-2 0-3.4.9-4.4 2l-.2.4.5.9.4.2.3-.2c1-1.2 2.2-1.8 3.3-1.8 1.3 0 2.1.9 2.1 2 0 1.2-.8 2-2.6 3.2-2.4 1.5-4 2.8-4 5.6 0 1.1.1 1.7.6 1.7zM295.3 63.2c2.8 0 4.2-1.8 4.2-4 0-2.3-2-3.4-3.4-4l-.2-.2s0-.2.2-.3c.6-.8 3.4-4 3.4-5 0-.3 0-.4-.3-.4a42.8 42.8 0 00-7.4 0c-.2 0-.4.1-.4.4 0 .3 0 .8.2 1.3 0 .1 0 .2.2.2h.1a23 23 0 015.1-.6c.2 0 .3 0 .3.2v.1l-3.6 4.4-.1.2c0 .1 0 .2.2.3 2.8.9 4 1.8 4 3.4 0 1.5-.9 2.5-2.5 2.5s-2.4-.7-3.2-1.7l-.2-.2-.3.2-.6.8v.5c.6.8 2 2 4.3 2zM281.2 104.7h5.2c2.2 0 2.8-1.4 2.8-2.8 0-.6-.2-1-.4-1.4l-.3-.2c-.2 0-.3.2-.3.4-.1.8-.2 1.6-.7 2-.5.4-1.5.4-4.9.4-.3 0-.5-.1-.5-.3 0-1.5 1-2.5 3.3-4 2.4-1.5 3.5-2.5 3.5-4.6 0-2.1-1.4-3.5-3.7-3.5-2 0-3.4 1-4.4 2l-.1.4.4 1 .4.1c.1 0 .2 0 .3-.2 1-1.2 2.2-1.7 3.3-1.7 1.3 0 2.1.8 2.1 1.9 0 1.3-.8 2-2.6 3.2-2.4 1.6-4 2.9-4 5.6 0 1.2.1 1.7.6 1.7zM295 103.5c-2 0-2.8-2-2.8-5.5 0-3.8 1-5.9 3-5.9 1.8 0 2.8 2 2.8 5.8 0 3.6-.8 5.6-3 5.6zm0 1.5c2.8 0 4.6-2 4.6-6.9 0-4.5-1.3-7.4-4.4-7.4-3.1 0-4.7 3-4.7 7.4 0 5 1.6 6.9 4.4 6.9zM290 138.8h.6c.3-.2.4-.3.4-.6l-.2-6.5c0-2.8.3-5.9.3-6.5 0-.3-.2-.4-.4-.4-.6 0-1.7.4-2.3.8l-.2.4.4.3c.7.3.7.6.7 2l-.2 10c0 .3.2.4.4.4h.5zM297 139c.8 0 1.2-.5 1.2-1.2 0-.3 0-.3-.2-.3-1.3 0-1.8-.3-1.8-1.3 0-1.8 1.6-5 3.8-8.6.2-.4.4-.7.4-1.3v-.8c0-.4-.2-.5-.6-.5a82.4 82.4 0 00-6.7 0c-.3 0-.4.2-.4.5v1.1c0 .3.1.3.3.3l.9-.2c1-.2 2.5-.4 4.6-.4.1 0 .2.1.2.3 0 1.2-4.2 6-4.2 9.7 0 1.8.8 2.7 2.5 2.7zM290 173.8h.6c.3-.2.4-.3.4-.6l-.2-6.5c0-2.8.3-5.9.3-6.5 0-.3-.2-.4-.4-.4-.6 0-1.7.4-2.3.8l-.2.4.4.3c.7.3.7.6.7 2l-.2 10c0 .3.2.4.4.4h.5zM297 174c.8 0 1.2-.5 1.2-1.2 0-.3 0-.3-.2-.3-1.3 0-1.8-.3-1.8-1.3 0-1.8 1.6-5 3.8-8.6.2-.4.4-.7.4-1.3v-.8c0-.4-.2-.5-.6-.5a82.4 82.4 0 00-6.7 0c-.3 0-.4.2-.4.5v1.1c0 .3.1.3.3.3l.9-.2c1-.2 2.5-.4 4.6-.4.1 0 .2.1.2.3 0 1.2-4.2 6-4.2 9.7 0 1.8.8 2.7 2.5 2.7zM287.7 206.8h.6c.4-.2.4-.3.4-.6l-.1-6.5.2-6.5c0-.3-.2-.4-.4-.4-.6 0-1.6.4-2.2.8-.2.1-.2.3-.2.4l.3.3c.7.3.8.6.8 2l-.2 10c0 .3.1.4.4.4h.4zM298.3 204c0-.3 0-.4.3-.4l1.2.1c.3 0 .4-.1.4-.4v-.5-.5c0-.2-.2-.3-.5-.3h-1.1c-.2 0-.3 0-.3-.5l.2-6.1c0-.3-.1-.4-.3-.4-.2 0-.7.6-1 1-.2.5-.3.7-.4 1.5l-.1 4c0 .2 0 .4-.2.6-.2.1-.3.2-3.5.2-.1 0-.2 0-.2-.2a21.3 21.3 0 012.6-9.1c0-.2-.1-.3-.4-.3h-1c-.3 0-.4.2-.6.5-.9 2-2.3 6.5-2.3 9.8 0 .4.2.8.7.8l4.4-.1c.3 0 .5 0 .5.4v2.3c0 .3 0 .4.3.4h1c.3 0 .4-.2.4-.4l-.1-2.4zM287.7 239.8h.6c.4-.2.5-.3.5-.6l-.2-6.5.2-6.5c0-.3-.1-.4-.3-.4-.7 0-1.7.4-2.3.8l-.2.4.3.3c.7.3.8.6.8 2l-.2 10c0 .3.1.4.4.4h.4zM292 239.7h5.2c2.2 0 2.7-1.4 2.7-2.8 0-.6-.2-1-.4-1.4l-.3-.2c-.1 0-.3.2-.3.4 0 .8-.2 1.6-.7 2-.5.4-1.5.4-4.8.4-.4 0-.5-.1-.5-.3 0-1.5.9-2.5 3.2-4 2.5-1.6 3.5-2.5 3.5-4.6 0-2.1-1.4-3.5-3.7-3.5-1.9 0-3.4 1-4.4 2l-.1.4.5 1 .3.1c.1 0 .2 0 .3-.2 1-1.2 2.2-1.7 3.4-1.7 1.3 0 2 .8 2 1.9 0 1.3-.7 2-2.6 3.2-2.3 1.6-4 2.9-4 5.6 0 1.2.2 1.7.6 1.7zM287.7 272.3h.6c.4-.2.5-.3.5-.6l-.2-6.5.2-6.5c0-.3-.1-.4-.3-.4-.7 0-1.7.4-2.3.8l-.2.4.3.3c.7.3.8.6.8 2l-.2 10c0 .3.1.4.4.4h.4zM292 272.2h5.2c2.2 0 2.7-1.4 2.7-2.8 0-.6-.2-1-.4-1.4l-.3-.2c-.1 0-.3.2-.3.4 0 .8-.2 1.6-.7 2-.5.4-1.5.4-4.8.4-.4 0-.5-.1-.5-.3 0-1.5.9-2.5 3.2-4 2.5-1.6 3.5-2.5 3.5-4.6 0-2.1-1.4-3.5-3.7-3.5-1.9 0-3.4 1-4.4 2l-.1.4.5 1 .3.1c.1 0 .2 0 .3-.2 1-1.2 2.2-1.7 3.4-1.7 1.3 0 2 .8 2 1.9 0 1.3-.7 2-2.6 3.2-2.3 1.6-4 2.9-4 5.6 0 1.2.2 1.7.6 1.7zM297 335.8c.8 0 1.2-.4 1.2-1.2 0-.2 0-.3-.2-.3-1.3 0-1.8-.3-1.8-1.3 0-1.8 1.6-5 3.8-8.5.2-.4.4-.7.4-1.4v-.7c0-.4-.2-.5-.6-.5a82.4 82.4 0 00-6.7 0c-.3 0-.4.1-.4.4v1.2c0 .2.1.3.3.3l.9-.2c1-.2 2.5-.4 4.6-.4.1 0 .2 0 .2.3 0 1.1-4.2 6-4.2 9.6 0 1.9.8 2.7 2.5 2.7zM297 367.6c.8 0 1.2-.5 1.2-1.3 0-.2 0-.2-.2-.2-1.3 0-1.8-.4-1.8-1.4 0-1.8 1.6-5 3.8-8.5.2-.4.4-.7.4-1.4v-.7c0-.4-.2-.5-.6-.5a82.4 82.4 0 00-6.7 0c-.3 0-.4.1-.4.4v1.2c0 .2.1.3.3.3l.9-.2c1-.2 2.5-.4 4.6-.4.1 0 .2 0 .2.3 0 1.1-4.2 6-4.2 9.7 0 1.8.8 2.7 2.5 2.7zM292.8 395.6c0-1.6 1.4-3 3.2-3 1.4 0 2.3 1.1 2.3 2.9 0 2-1 3.1-2.7 3.1-1.7 0-2.8-1.4-2.8-3zm-1.8-2.2c0 4 1.5 6.7 4.7 6.7 2.5 0 4.1-1.6 4.1-4.6 0-2.7-1.3-4.1-3.5-4.1a5 5 0 00-3.3 1.5h-.2c-.2 0-.3 0-.3-.2 0-2.7 1.3-5.5 4-5.5 1.4 0 1.8.6 2.1.6l.3-.1.2-1c0-.2 0-.3-.3-.4-.4-.2-1.1-.4-2-.4-3.6 0-5.8 2.2-5.8 7.5zM292.8 426c0-1.6 1.4-2.9 3.2-2.9 1.4 0 2.3 1 2.3 2.8 0 2-1 3.1-2.7 3.1-1.7 0-2.8-1.4-2.8-3zm-1.8-2.2c0 4.1 1.5 6.7 4.7 6.7 2.5 0 4.1-1.6 4.1-4.6 0-2.7-1.3-4.1-3.5-4.1a5 5 0 00-3.3 1.5l-.2.1c-.2 0-.3-.1-.3-.3 0-2.7 1.3-5.5 4-5.5 1.4 0 1.8.6 2.1.6l.3-.1.2-1c0-.2 0-.3-.3-.4-.4-.2-1.1-.4-2-.4-3.6 0-5.8 2.2-5.8 7.5zM286.7 304.8h.6c.3-.2.4-.3.4-.6l-.2-6.5c0-2.8.3-5.9.3-6.5 0-.3-.2-.4-.4-.4-.6 0-1.7.4-2.3.8l-.2.4c0 .1.1.2.4.3.6.3.7.6.7 2l-.2 10c0 .3.2.4.4.4h.5zM295 303.5c-2 0-2.8-2-2.8-5.5 0-3.8 1-5.9 3-5.9 1.8 0 2.8 2 2.8 5.8 0 3.6-.8 5.6-3 5.6zm0 1.5c2.8 0 4.6-2 4.6-6.9 0-4.5-1.3-7.4-4.4-7.4-3.1 0-4.7 3-4.7 7.4 0 5 1.6 6.9 4.4 6.9zM122.5 108.5c0-.3 0-.4.3-.4l1.2.1c.3 0 .4-.1.4-.4v-.5-.5c0-.2-.2-.3-.5-.3h-1.1c-.2 0-.3 0-.3-.5l.2-6.1c0-.3-.1-.4-.3-.4-.2 0-.7.6-1 1-.2.5-.3.7-.4 1.5l-.1 4c0 .2 0 .5-.2.6-.2.1-.2.2-3.5.2-.1 0-.2 0-.2-.2a21.3 21.3 0 012.6-9.1c0-.2-.1-.3-.4-.3h-1c-.3 0-.4.2-.6.5-.9 2-2.3 6.5-2.3 9.8 0 .4.2.8.7.8l4.4-.1c.3 0 .5 0 .5.4v2.3c0 .3 0 .4.3.4h1.1c.2 0 .3-.2.3-.4l-.1-2.4zM132.7 108.5c0-.3.1-.4.3-.4l1.2.1c.3 0 .4-.1.4-.4v-.5-.5c0-.2-.2-.3-.4-.3H133c-.2 0-.3 0-.3-.5l.2-6.1c0-.3-.1-.4-.2-.4-.3 0-.8.6-1 1-.3.5-.4.7-.5 1.5l-.1 4c0 .2 0 .5-.2.6-.1.1-.2.2-3.5.2-.1 0-.2 0-.2-.2a21.3 21.3 0 012.6-9.1c0-.2-.1-.3-.3-.3h-1.1c-.3 0-.4.2-.6.5-.9 2-2.3 6.5-2.3 9.8 0 .4.2.8.8.8l4.3-.1c.3 0 .5 0 .5.4v2.3c0 .3 0 .4.3.4h1.1c.2 0 .3-.2.3-.4l-.1-2.4zM123 153.5c0-.3.2-.4.3-.4l1.3.1c.2 0 .3-.1.3-.4v-.5-.5c0-.2-.2-.3-.4-.3h-1.1c-.2 0-.4 0-.4-.5l.2-6.1c0-.3 0-.4-.2-.4-.3 0-.7.6-1 1-.2.5-.3.7-.4 1.5l-.2 4-.1.6c-.2.1-.3.2-3.5.2-.2 0-.2 0-.2-.2a21.3 21.3 0 012.6-9.1c0-.2-.2-.3-.4-.3h-1c-.3 0-.4.2-.6.5-1 2-2.3 6.5-2.3 9.8 0 .4.2.8.7.8l4.4-.1c.3 0 .5 0 .5.4l-.1 2.3c0 .3 0 .4.4.4h1c.2 0 .3-.2.3-.4v-2.4zM129.8 156.5c2.7 0 4.1-1.8 4.1-4 0-2.4-2-3.5-3.4-4l-.2-.2.2-.3c.6-.9 3.4-4.1 3.4-5.1 0-.2 0-.3-.3-.4a42.8 42.8 0 00-7.4 0c-.2 0-.4.2-.4.4 0 .4 0 .9.2 1.3 0 .2 0 .2.2.2h.2a23 23 0 015-.6c.2 0 .3 0 .3.2v.2l-3.6 4.4v.2l.1.2c2.8 1 4 1.9 4 3.5 0 1.5-.9 2.5-2.5 2.5s-2.4-.8-3.2-1.8h-.2-.2l-.6.8-.1.3v.3c.6.7 2 1.9 4.4 1.9zM126.7 203.4c0-.3.1-.4.3-.4l1.3.1c.2 0 .3-.1.3-.4v-.5-.4c0-.3-.2-.4-.4-.4l-1.2.1c-.2 0-.3-.1-.3-.6l.2-6.1c0-.3 0-.4-.2-.4-.3 0-.8.6-1 1-.3.5-.3.7-.4 1.5l-.2 4-.1.6c-.2.2-.3.2-3.5.2-.2 0-.2 0-.2-.2a21.3 21.3 0 012.5-9.1c0-.1 0-.3-.3-.3h-1.1c-.2 0-.4.2-.5.5-1 2-2.4 6.5-2.4 9.8 0 .4.3.8.8.8l4.3-.1c.4 0 .5.1.5.5v2.2c0 .3 0 .4.4.4h1c.2 0 .3-.2.3-.4v-2.4zM131.8 206.2h.6c.4-.1.5-.3.5-.6l-.2-6.5.2-6.5c0-.3-.2-.4-.4-.4-.6 0-1.6.4-2.2.8l-.2.4.3.3c.7.3.8.7.8 2l-.2 10c0 .3.1.4.4.5h.4zM126.7 252.8c0-.3.1-.4.3-.4l1.3.1c.2 0 .3 0 .3-.3v-.5-.5c0-.3-.2-.3-.4-.3H127c-.2 0-.3 0-.3-.5l.2-6.2c0-.3 0-.3-.2-.3-.3 0-.8.6-1 1-.3.4-.3.6-.4 1.5l-.2 4-.1.5c-.2.2-.3.2-3.5.2-.2 0-.2 0-.2-.2a21.3 21.3 0 012.5-9c0-.2 0-.3-.3-.3h-1.1c-.2 0-.4.1-.5.4-1 2-2.4 6.6-2.4 9.8 0 .5.3.8.8.8h4.3c.4 0 .5 0 .5.4v2.2c0 .4 0 .4.4.5h1c.2 0 .3-.2.3-.4v-2.5zM131.8 255.6h.6c.4-.1.5-.2.5-.5l-.2-6.5.2-6.6c0-.3-.2-.4-.4-.4-.6 0-1.6.5-2.2.9l-.2.3c0 .2.1.3.3.4.7.3.8.6.8 2l-.2 10c0 .3.1.4.4.4h.4zM119.6 299.4c2.8 0 4.2-1.8 4.2-4 0-2.4-2-3.4-3.4-4l-.2-.2.2-.3c.6-.9 3.4-4.1 3.4-5.1 0-.2 0-.3-.3-.3a42.8 42.8 0 00-7.4 0c-.2 0-.4.1-.4.3 0 .4 0 .9.2 1.3 0 .2 0 .2.2.2h.1a23 23 0 015.2-.6l.2.2v.2l-3.6 4.4-.1.2s0 .2.2.2c2.8 1 4 1.9 4 3.5 0 1.5-.9 2.5-2.5 2.5s-2.4-.8-3.2-1.8h-.2-.2l-.7.8v.6c.6.8 2 1.9 4.3 1.9zM127.3 294.9c0-1.6 1.3-2.9 3.1-2.9 1.4 0 2.3 1 2.3 2.8 0 2-1 3.1-2.6 3.1-1.8 0-2.8-1.4-2.8-3zm-1.8-2.2c0 4 1.4 6.7 4.6 6.7 2.5 0 4.2-1.6 4.2-4.6 0-2.7-1.4-4.1-3.6-4.1a5 5 0 00-3.3 1.5h-.2c-.2 0-.2 0-.2-.2 0-2.7 1.2-5.5 4-5.5 1.3 0 1.7.6 2 .6l.3-.1.2-1c0-.2 0-.3-.3-.4-.4-.2-1-.4-2-.4-3.5 0-5.7 2.2-5.7 7.5zM120.1 341.4c2.8 0 4.2-1.8 4.2-4 0-2.4-2-3.4-3.5-4l-.1-.2.1-.3c.7-.9 3.5-4.1 3.5-5.1 0-.2 0-.3-.3-.3a42.8 42.8 0 00-7.4 0c-.2 0-.4.1-.4.3l.1 1.3c0 .2.1.2.3.2h.1a23 23 0 015.1-.6c.2 0 .2.1.2.2v.2c-.4.7-3 3.7-3.5 4.4l-.1.2s0 .2.2.2c2.8 1 4 1.9 4 3.5 0 1.5-1 2.5-2.5 2.5-1.7 0-2.5-.8-3.2-1.8h-.2-.3l-.6.8v.6c.5.8 1.9 1.9 4.3 1.9zM129.8 341.4c2.7 0 4.1-1.8 4.1-4 0-2.4-2-3.4-3.4-4l-.2-.2.2-.3c.6-.9 3.4-4.1 3.4-5.1 0-.2 0-.3-.3-.3a42.8 42.8 0 00-7.4 0c-.2 0-.4.1-.4.3 0 .4 0 .9.2 1.3 0 .2 0 .2.2.2h.2a23 23 0 015-.6c.2 0 .3.1.3.2v.2l-3.6 4.4v.2l.1.2c2.8 1 4 1.9 4 3.5 0 1.5-.9 2.5-2.5 2.5s-2.4-.8-3.2-1.8h-.2-.2l-.6.8-.1.3v.3c.6.8 2 1.9 4.4 1.9zM123.8 382.4c2.8 0 4.2-1.8 4.2-4 0-2.4-2-3.4-3.5-4l-.1-.2.1-.3c.6-.9 3.5-4.1 3.5-5.1 0-.2-.1-.3-.3-.3a42.8 42.8 0 00-7.4 0c-.3 0-.4.1-.4.3l.1 1.3c0 .2.1.2.2.2h.2a23 23 0 015-.6c.2 0 .3.1.3.2v.2c-.4.7-3 3.7-3.6 4.4v.2s0 .2.2.2c2.8 1 4 1.9 4 3.5 0 1.5-1 2.5-2.5 2.5-1.7 0-2.5-.8-3.2-1.8h-.5l-.6.8-.1.3v.3c.6.8 2 1.9 4.4 1.9zM131.8 382.2h.6c.4-.1.5-.3.5-.6l-.2-6.5.2-6.5c0-.3-.2-.4-.4-.4-.6 0-1.6.4-2.2.8l-.2.4.3.3c.7.3.8.7.8 2l-.2 10c0 .3.1.4.4.5h.4zM118.6 423.1h5.2c2.2 0 2.7-1.4 2.7-2.8 0-.6-.1-1-.3-1.3l-.3-.3c-.2 0-.3.2-.4.4 0 .8-.2 1.6-.6 2-.6.4-1.5.4-5 .4-.3 0-.4-.1-.4-.3 0-1.5.9-2.5 3.3-4s3.4-2.5 3.4-4.6c0-2.1-1.4-3.5-3.6-3.5-2 0-3.5 1-4.4 2l-.2.4c0 .3.3.6.5 1l.4.1.3-.1c1-1.3 2.2-1.8 3.3-1.8 1.3 0 2.1.8 2.1 1.9 0 1.3-.8 2-2.6 3.3-2.4 1.5-4 2.8-4 5.5 0 1.2.1 1.7.6 1.7zM131.4 423.4c.8 0 1.3-.4 1.3-1.2 0-.2-.1-.3-.3-.3-1.3 0-1.7-.3-1.7-1.3 0-1.8 1.5-5 3.7-8.6.2-.4.4-.7.4-1.3v-.8c0-.4-.2-.4-.6-.5a82.4 82.4 0 00-6.6 0c-.4 0-.5.2-.5.5v1.1c0 .3.2.3.3.3l.9-.2c1-.2 2.5-.4 4.6-.4.2 0 .2.1.2.3 0 1.2-4.1 6-4.1 9.7 0 1.8.7 2.7 2.4 2.7zM116.4 463.1H121.6c2.2 0 2.8-1.4 2.8-2.8 0-.6-.2-1-.4-1.3 0-.2-.2-.3-.3-.3-.1 0-.3.2-.3.4 0 .8-.2 1.6-.7 2-.5.4-1.5.4-4.9.4-.3 0-.5-.1-.5-.3 0-1.5 1-2.5 3.3-4 2.4-1.5 3.5-2.5 3.5-4.6 0-2.1-1.4-3.5-3.7-3.5-1.9 0-3.4 1-4.4 2l-.1.4c0 .3.2.6.5 1l.3.1.3-.1c1-1.3 2.2-1.8 3.4-1.8 1.3 0 2 .8 2 1.9 0 1.3-.8 2-2.6 3.3-2.4 1.5-4 2.8-4 5.5 0 1.2.2 1.7.6 1.7zM126.9 449.8c-.4 1.3-.9 4.5-.9 6.5 0 .3.1.4.5.6l.7.2c.7 0 1.9-.9 3.4-.9 1.4 0 2.1 1 2.1 2.6 0 2.2-1.2 3-2.6 3-1.3 0-2.1-.5-2.7-1-.3-.2-.6-.5-.8-.5-.2 0-.2.1-.4.3l-.4 1.1c0 .3.1.4.4.6a7 7 0 004 1.1c2.6 0 4.1-1.6 4.1-4.7 0-2.3-1.2-4-3.4-4-1.9 0-2.6 1-3.1 1-.2 0-.3-.1-.3-.3 0-1.2.3-4 .8-4.5.1-.2.3-.2.8-.2a18.6 18.6 0 014.1.5c.2 0 .3 0 .4-.4l.1-1c0-.1 0-.3-.4-.3a70.3 70.3 0 00-6 0c-.2 0-.4 0-.4.3zM114.4 11.7c0 .2 0 .2.3.2h.6c.2 0 .3 0 .3-.2s-.2-.8-.2-2.1c0-.3 0-.3 1.1-.3 1 0 1 0 1 .2v2.2c0 .2.1.2.4.2h.7l.2-.1-.2-2.2c0-.2 0-.3.3-.3h1c.3 0 .4-.1.4-.3l.1-.5c0-.2 0-.2-.3-.2h-1.3c-.1 0-.2 0-.2-.3l.2-2.1c0-.3.1-.4.4-.4h1.1c.3 0 .4 0 .5-.3v-.5c0-.2 0-.2-.3-.2h-1c-.2 0-.3 0-.3-.2l.6-2-.3-.1h-.3-.3c-.2 0-.2 0-.3.3l-.5 1.7c0 .3-.2.3-1.2.3-.9 0-1 0-1-.2l.6-2-.2-.1H115.7c-.2 0-.3 0-.4.3l-.5 1.7c0 .2-.2.3-.3.3H113c-.1 0-.3.1-.3.3v.5c0 .2 0 .2.2.2h1.2c.2 0 .3 0 .3.2l-.2 2.3c0 .2-.1.3-.3.3h-1.3c-.2 0-.3 0-.3.3l-.1.4c0 .2 0 .3.2.3h1.5c.3 0 .3 0 .3.3v2.2zm2.3-6.3c.9 0 1.2 0 1.2.6 0 1-.3 2-.5 2.2-.1.2-.2.2-1 .2-.9 0-1.1 0-1.1-.7 0-.6 0-1.8.3-2 .2-.2.4-.3 1.1-.3zM127.1 11c-1.3 0-1.8-1.1-1.8-3.1 0-2.2.7-3.4 1.9-3.4 1 0 1.7 1.2 1.7 3.4 0 2-.5 3-1.8 3zm0 1.1c1.8 0 3-1.2 3-4.2 0-2.8-.8-4.5-3-4.5-2 0-3 1.8-3 4.5 0 3 1 4.2 3 4.2zM134.8.5l-.8-.1c-1.3 0-1.8 1-2 2.7 0 .3 0 .5-.2.5h-.6l-.2.2a3 3 0 000 .8l.1.1h.6c.2 0 .3 0 .3.3a60.7 60.7 0 000 6.8c0 .2.2.2.4.2H133.3l.1-.4-.3-5.2V5.1c0-.3 0-.5.3-.5h1.2l.1-.6v-.3c0-.1-.1-.2-.3-.2h-1c-.1 0-.2 0-.2-.2 0-1 .3-1.7.9-1.7l.5.1c.1 0 .2 0 .2-.2l.2-.6-.2-.4zM84.4 25.7c0-.4-.6-1.8-.6-5.4a33.6 33.6 0 01.3-3.3h.1a44.6 44.6 0 003.3 6.5s.2 0 .3-.2c1.1-2 1.9-4.2 2.7-6.3h.2c.2.9.3 2 .3 2.9 0 3-.6 5.5-.6 5.8 0 .2 0 .3.2.3h1c.1 0 .3-.2.3-.4.2-1.7.4-3.2.4-4.7 0-2-.3-3.7-.6-5.3 0-.2-.2-.3-.3-.3h-1c-.2 0-.3.2-.4.4a92.4 92.4 0 00-2.6 5.7l-.1-.1a51.3 51.3 0 00-3-6 3.6 3.6 0 00-1 0c-.1 0-.2 0-.3.3a40.4 40.4 0 000 10.1c0 .2.1.2.3.3h.9c.1 0 .2-.1.2-.3zM99.3 24c0-.6-.2-.9-.4-.9v.1c-.5 1.2-1.1 1.8-2.2 1.8s-1.6-.8-1.6-1.6c0-.2 0-.4.3-.6 1.2-1 3.9-.9 3.9-3.4 0-1.4-1-2-2.2-2-2 0-3.5 1.4-3.5 4.5 0 2.6.9 4.2 3 4.2 1.5 0 2.7-.9 2.7-2.2zM98 19.4c0 1.2-2 1.8-2.9 2.4h-.1c-.2 0-.2-.1-.2-.3 0-1.7.7-3.1 2.2-3.1.6 0 1 .4 1 1zM104.2 17.4c-1 0-1.7.7-2 .7l-.1-.3c0-.2-.1-.3-.3-.3h-.6c-.2 0-.4.1-.4.5a46 46 0 000 7.6c0 .3.2.4.4.4h.6c.2 0 .3-.2.3-.4l-.2-4c0-1.7.2-2.2.6-2.6a2 2 0 011.4-.5c1 0 1.2.8 1.2 2.1 0 2.8-.3 4.8-.3 5 0 .2 0 .3.3.4h.7c.1 0 .3-.1.3-.3 0-.6.3-2.7.3-4.6 0-2.8-.8-3.7-2.2-3.7zM110 15.5s-.5 0-.9.4c-.3.2-.3.2-.4.9 0 .5 0 .7-.3.7h-.5c-.2 0-.3.1-.4.4v.5l.1.2h.6c.3 0 .3.1.3.4a30 30 0 00.3 6.9l.4.2c.3 0 .5 0 .8-.2l.1-.3v-.1a29 29 0 01-.4-6.5c0-.3 0-.5.3-.5l1.1.1.2-.1V18v-.3c0-.1 0-.2-.2-.2h-1l-.3-.1c0-.6.5-1.5.5-1.8l-.2-.1zM113.6 25.7c0-.3-.2-1.6-.2-3.5 0-2.7.2-4.2.2-4.5 0-.1 0-.2-.2-.2h-.7c-.1 0-.2 0-.3.3a35.5 35.5 0 00-.1 7.9c0 .2.1.3.3.3a3.4 3.4 0 00.8 0c.1 0 .2-.1.2-.3zm-.5-9.2c.5 0 .8-.3.8-.8 0-.4-.3-.8-.8-.8s-.8.4-.8.8c0 .5.3.8.8.8zM118 25c-1.2 0-1.7-1.1-1.7-3.1 0-2.2.6-3.4 1.8-3.4 1.1 0 1.8 1.2 1.8 3.4 0 2-.5 3-1.8 3zm0 1.1c1.9 0 3.1-1.2 3.1-4.2 0-2.8-.9-4.5-3-4.5-2 0-3 1.8-3 4.5 0 3 1 4.2 2.9 4.2zM126 17.4c-1 0-1.8.7-2 .7-.1 0-.2-.1-.2-.3 0-.2 0-.3-.2-.3h-.4-.3c-.2 0-.3.1-.3.5a46 46 0 000 7.6c0 .3.2.4.3.4h.7c.2 0 .3-.2.3-.4l-.2-4c0-1.7.2-2.2.6-2.6a2 2 0 011.4-.5c1 0 1.2.8 1.2 2.1 0 2.8-.3 4.8-.3 5 0 .2 0 .3.2.4h.8l.3-.3c0-.6.3-2.7.3-4.6 0-2.8-.8-3.7-2.2-3.7zM130 23.2l-.2-.2c-.1 0-.2 0-.3.2l-.2.9c0 1 .9 2 2.6 2 1.7 0 2.6-.8 2.6-2.3 0-1.4-.7-2-2.2-2.7-1.2-.6-1.5-.9-1.5-1.6 0-.5.4-1 1.2-1 .7 0 1 .3 1.4.7h.4l.5-1c0-.1 0-.2-.3-.3-.4-.3-1-.5-1.8-.5-1.7 0-2.6 1-2.6 2.3 0 1.2.7 1.8 2.2 2.5 1.2.6 1.5 1 1.5 1.7 0 .6-.4 1-1.4 1-1.2 0-1.8-.7-2-1.7zM280 11.7c0 .2 0 .2.3.2h.6c.2 0 .2 0 .2-.2l-.1-2.1c0-.3 0-.3 1-.3s1 0 1 .2l.1 2.2c0 .2.1.2.3.2h.7l.3-.1-.2-2.2c0-.2 0-.3.2-.3h1c.3 0 .5-.1.5-.3l.1-.5c0-.2 0-.2-.3-.2h-1.3c-.2 0-.2 0-.2-.3l.2-2.1c0-.3.1-.4.4-.4h1c.4 0 .5 0 .5-.3l.1-.5c0-.2 0-.2-.3-.2h-1c-.2 0-.3 0-.3-.2l.6-2-.3-.1h-.6c-.2 0-.3 0-.4.3l-.4 1.7c-.1.3-.2.3-1.2.3-.9 0-1 0-1-.2l.5-2-.2-.1h-.5c-.2 0-.3 0-.4.3l-.5 1.7c0 .2-.2.3-.4.3h-1.3c-.2 0-.3.1-.3.3l-.1.5c0 .2 0 .2.2.2h1.3c.2 0 .3 0 .3.2l-.2 2.3c0 .2-.1.3-.3.3h-1.3c-.2 0-.3 0-.4.3V9c0 .2 0 .3.2.3h1.5c.3 0 .3 0 .3.3v2.2zm2.3-6.3c.9 0 1.1 0 1.1.6 0 1-.2 2-.4 2.2-.1.2-.3.2-1 .2-.9 0-1.1 0-1.1-.7 0-.6 0-1.8.3-2 .2-.2.3-.3 1.1-.3zM292.7 11c-1.3 0-1.8-1.1-1.8-3.1 0-2.2.6-3.4 1.8-3.4 1.1 0 1.8 1.2 1.8 3.4 0 2-.5 3-1.8 3zm0 1.1c1.8 0 3-1.2 3-4.2 0-2.8-.8-4.5-3-4.5-2 0-3 1.8-3 4.5 0 3 1 4.2 3 4.2zM300.4.5l-.8-.1c-1.3 0-1.9 1-2 2.7 0 .3 0 .5-.2.5h-.6l-.2.2a3 3 0 000 .8l.1.1h.5c.3 0 .4 0 .4.3a60.7 60.7 0 000 6.8c0 .2.1.2.3.2h1c0-.1.1-.3 0-.4l-.3-5.2V5.1c0-.3.1-.5.4-.5h1.2V4v-.3c0-.1 0-.2-.2-.2h-1c-.2 0-.2 0-.2-.2 0-1 .3-1.7.9-1.7l.5.1c.1 0 .2 0 .2-.2l.1-.6-.1-.4zM250 25.7c0-.4-.6-1.8-.6-5.4a33.6 33.6 0 01.3-3.3h.1a44.6 44.6 0 003.2 6.5c.2 0 .3 0 .4-.2 1-2 1.9-4.2 2.7-6.3h.2c.2.9.2 2 .2 2.9 0 3-.5 5.5-.5 5.8 0 .2 0 .3.2.3h1c.1 0 .3-.2.3-.4l.3-4.7c0-2-.2-3.7-.5-5.3 0-.2-.2-.3-.4-.3h-.9c-.2 0-.3.2-.4.4a92.4 92.4 0 00-2.6 5.7l-.1-.1a51.3 51.3 0 00-3-6 3.6 3.6 0 00-1 0c-.1 0-.3 0-.3.3a40.4 40.4 0 000 10.1c0 .2 0 .2.2.3h1c.1 0 .2-.1.2-.3zM264.8 24c0-.6-.1-.9-.3-.9v.1c-.5 1.2-1.1 1.8-2.2 1.8s-1.7-.8-1.7-1.6l.3-.6c1.2-1 4-.9 4-3.4 0-1.4-1-2-2.2-2-2 0-3.5 1.4-3.5 4.5 0 2.6.8 4.2 3 4.2 1.4 0 2.6-.9 2.6-2.2zm-1.1-4.5c0 1.2-2 1.8-2.9 2.4h-.2s-.2-.1-.2-.3c0-1.7.8-3.1 2.3-3.1.6 0 1 .4 1 1zM269.8 17.4c-1 0-1.8.7-2 .7-.1 0-.2-.1-.2-.3 0-.2 0-.3-.2-.3h-.6c-.2 0-.4.1-.4.5a46 46 0 000 7.6c0 .3.2.4.4.4h.6c.2 0 .3-.2.3-.4l-.2-4c0-1.7.2-2.2.6-2.6a2 2 0 011.4-.5c1 0 1.2.8 1.2 2.1 0 2.8-.3 4.8-.3 5 0 .2 0 .3.2.4h.8l.3-.3c0-.6.3-2.7.3-4.6 0-2.8-.8-3.7-2.2-3.7zM275.7 15.5c-.2 0-.6 0-1 .4-.3.2-.3.2-.4.9 0 .5 0 .7-.3.7h-.6c-.1 0-.3.1-.3.4v.5l.1.2h.6c.2 0 .3.1.3.4a30 30 0 00.3 6.9l.4.2c.2 0 .5 0 .8-.2l.1-.3v-.1a29 29 0 01-.4-6.5c0-.3 0-.5.3-.5l1 .1.3-.1V18v-.3c0-.1 0-.2-.2-.2h-1.1l-.2-.1c0-.6.4-1.5.4-1.8l-.1-.1zM279.2 25.7c0-.3-.2-1.6-.2-3.5 0-2.7.2-4.2.2-4.5 0-.1-.1-.2-.3-.2h-.3-.3c-.2 0-.3 0-.3.3a35.5 35.5 0 00-.1 7.9c0 .2.1.3.3.3a3.4 3.4 0 00.8 0c.1 0 .2-.1.2-.3zm-.5-9.2c.5 0 .7-.3.7-.8 0-.4-.2-.8-.7-.8-.6 0-.8.4-.8.8 0 .5.2.8.8.8zM283.6 25c-1.2 0-1.7-1.1-1.7-3.1 0-2.2.6-3.4 1.8-3.4 1 0 1.8 1.2 1.8 3.4 0 2-.5 3-1.9 3zm0 1.1c1.9 0 3.1-1.2 3.1-4.2 0-2.8-.9-4.5-3-4.5-2 0-3 1.8-3 4.5 0 3 1 4.2 2.9 4.2zM291.6 17.4c-1 0-1.8.7-2 .7-.2 0-.2-.1-.2-.3 0-.2 0-.3-.3-.3h-.3-.3c-.2 0-.3.1-.4.5a46 46 0 000 7.6c.1.3.2.4.4.4H289.1c.3 0 .3-.2.3-.4l-.2-4c0-1.7.3-2.2.7-2.6a2 2 0 011.4-.5c1 0 1.2.8 1.2 2.1 0 2.8-.3 4.8-.3 5 0 .2 0 .3.2.4h.7c.2 0 .3-.1.3-.3.1-.6.4-2.7.4-4.6 0-2.8-.8-3.7-2.2-3.7zM295.5 23.2c0-.1 0-.2-.2-.2l-.2.2-.2.9c0 1 .9 2 2.6 2 1.6 0 2.6-.8 2.6-2.3 0-1.4-.8-2-2.2-2.7-1.2-.6-1.6-.9-1.6-1.6 0-.5.5-1 1.3-1 .7 0 1 .3 1.4.7h.4l.5-1c0-.1 0-.2-.3-.3-.4-.3-1.1-.5-1.8-.5-1.7 0-2.6 1-2.6 2.3 0 1.2.7 1.8 2.2 2.5 1.2.6 1.5 1 1.5 1.7 0 .6-.4 1-1.4 1-1.3 0-1.8-.7-2-1.7zM8.3 28.1l.4.2s.2 0 .3-.2c1.6-1.3 2.8-3.8 2.8-7.3l-.2-3c0-.4-.2-.5-.4-.5h-.6c-.2 0-.3 0-.3.2 0 .3.2 1.8.2 3.8 0 2.5-1 4.4-1.7 5.3h-.2-.1c-1-2-1.5-3.1-1.5-5.4l.1-3.6c0-.2 0-.3-.3-.3a3.3 3.3 0 00-.8 0c-.2 0-.3 0-.3.2l.1 3.7c0 2.3-.4 3.4-1.5 5.3l-.2.2-.2-.2c-.7-.9-1.6-2.7-1.6-5.2 0-2 .2-3.6.2-3.7 0-.2 0-.3-.3-.4h-.6c-.2 0-.4.2-.4.3L1 20.8c0 3.4 1.2 6 2.7 7.3l.4.2c.1 0 .2 0 .3-.2a9 9 0 001.8-3l.2-.2.1.2a7.3 7.3 0 001.8 3zM15.9 27c-1.3 0-1.8-1.1-1.8-3.1 0-2.2.7-3.4 1.8-3.4s1.8 1.2 1.8 3.4c0 2-.5 3-1.8 3zm0 1.1c1.8 0 3-1.2 3-4.2 0-2.8-.8-4.5-3-4.5-2 0-3 1.8-3 4.5 0 3 1 4.2 3 4.2zM21.9 27.6c0-.3-.5-2.2-.5-4.7 0-1.9.4-2.2.7-2.2h1c.2 0 .3 0 .3-.2v-.7c0-.3 0-.4-.2-.4-.4 0-.8.1-1.3.5l-.1.1c-.1 0-.2 0-.2-.2s0-.3-.2-.3h-.7l-.2.4c-.1.4-.3 1.4-.3 3.9 0 1.6.1 3 .3 3.8 0 .2.2.3.4.4h.8l.2-.4zM27.2 26.8c-1.3 0-2-.7-2-2.8 0-2.4.7-3.5 1.7-3.5.9 0 1.9.8 1.9 2.7 0 3.4-.2 3.6-1.6 3.6zm0 1.2c1 0 1.8-.1 2.1-.3.2 0 .4-.2.4-.4.2-1 .2-2.6.2-4.2a58.3 58.3 0 00-.6-6.6h-.7c-.2 0-.2.1-.2.3 0 .4.3 1.7.3 3.1 0 .2 0 .2-.2.2h-.1c-.4-.3-1-.7-1.8-.7-1.5 0-2.6 1.5-2.6 4.8 0 2.3.9 3.8 3.1 3.8zM174 28.1c0 .1.1.2.3.2 0 0 .2 0 .3-.2 1.6-1.3 2.7-3.8 2.7-7.3 0-1.2 0-2-.2-3 0-.4-.1-.5-.3-.5h-.4-.2c-.3 0-.3 0-.3.2 0 .3.2 1.8.2 3.8 0 2.5-1 4.4-1.7 5.3h-.2-.2c-1-2-1.4-3.1-1.4-5.4v-3.6c0-.2 0-.3-.2-.3a3.3 3.3 0 00-.8 0c-.3 0-.3 0-.3.2v3.7c0 2.3-.3 3.4-1.4 5.3l-.2.2-.2-.2c-.8-.9-1.6-2.7-1.6-5.2 0-2 .2-3.6.2-3.7 0-.2-.1-.3-.3-.4h-.7l-.3.3-.2 3.3c0 3.4 1.1 6 2.7 7.3l.4.2c.1 0 .2 0 .3-.2a9 9 0 001.8-3c0-.1 0-.2.2-.2v.2a7.3 7.3 0 002 3zM181.5 27c-1.3 0-1.8-1.1-1.8-3.1 0-2.2.6-3.4 1.8-3.4 1.1 0 1.8 1.2 1.8 3.4 0 2-.5 3-1.8 3zm-.1 1.1c1.9 0 3.1-1.2 3.1-4.2 0-2.8-.8-4.5-3-4.5-2 0-3 1.8-3 4.5 0 3 1 4.2 2.9 4.2zM187.5 27.6c0-.3-.5-2.2-.5-4.7 0-1.9.3-2.2.7-2.2h1c.2 0 .3 0 .3-.2v-.7c0-.3 0-.4-.3-.4s-.7.1-1.2.5l-.2.1-.1-.2c0-.2 0-.3-.2-.3h-.7l-.2.4c-.2.4-.3 1.4-.3 3.9 0 1.6.1 3 .3 3.8 0 .2.2.3.3.4a3.4 3.4 0 00.8 0c.2 0 .3-.2.3-.4zM192.8 26.8c-1.3 0-2-.7-2-2.8 0-2.4.6-3.5 1.7-3.5.8 0 1.9.8 1.9 2.7 0 3.4-.2 3.6-1.6 3.6zm0 1.2c1 0 1.7-.1 2.1-.3.2 0 .3-.2.4-.4l.2-4.2a58.3 58.3 0 00-.6-6.6h-.7c-.2 0-.2.1-.2.3 0 .4.3 1.7.3 3.1 0 .2-.1.2-.2.2h-.1c-.5-.3-1-.7-1.8-.7-1.6 0-2.6 1.5-2.6 4.8 0 2.3.9 3.8 3.1 3.8z"/></g></svg>