<svg viewBox="0 0 56 61" fill="none" xmlns="http://www.w3.org/2000/svg">
<path fill-rule="evenodd" clip-rule="evenodd" d="M42.7554 20.2885C41.0563 20.2885 39.4373 20.6593 37.9608 21.3285C39.3471 19.1393 40.1608 16.4871 40.1608 13.6269C40.1608 6.12171 34.5709 0.0374756 27.6759 0.0374756C20.7809 0.0374756 15.1913 6.12171 15.1913 13.6269C15.1913 16.3501 15.93 18.8839 17.197 21.01C15.9372 20.5447 14.5883 20.2885 13.1841 20.2885C6.28884 20.2885 0.699463 26.3727 0.699463 33.8778C0.699463 41.383 6.28884 47.4672 13.1841 47.4672C14.7413 47.4672 16.2308 47.1542 17.6056 46.5871C17.6053 46.5903 23.4158 44.8824 27.2354 37.3152V41.8715C27.2354 41.8715 25.277 56.2336 11.4706 57.8058H9.26719V60.0439H46.868V57.8058H44.6649C30.8584 56.2336 28.8999 41.8715 28.8999 41.8715V37.6219C29.6113 39.3271 33.5446 47.6648 42.3844 47.4578C42.5079 47.4609 42.6309 47.4672 42.7554 47.4672C49.6506 47.4672 55.24 41.383 55.24 33.8778C55.24 26.3727 49.6506 20.2885 42.7554 20.2885Z" fill="#1A1919"/>
</svg>
