<svg viewBox="0 0 299 327" fill="none" xmlns="http://www.w3.org/2000/svg">
<rect x="115.704" y="57.9099" width="9.09091" height="9.09091" transform="rotate(180 115.704 57.9099)" fill="#FBF7F0" stroke="#FE7A04"/>
<rect x="113.34" y="55.5457" width="4.36239" height="4.36239" transform="rotate(180 113.34 55.5457)" fill="#FBF7F0" stroke="#FE7A04"/>
<rect x="103.341" y="57.9099" width="9.09091" height="9.09091" transform="rotate(180 103.341 57.9099)" fill="#FBF7F0" stroke="#FE7A04"/>
<rect x="100.977" y="55.5457" width="4.36239" height="4.36239" transform="rotate(180 100.977 55.5457)" fill="#FBF7F0" stroke="#FE7A04"/>
<rect x="90.7266" y="57.9099" width="9.09091" height="9.09091" transform="rotate(180 90.7266 57.9099)" fill="#FBF7F0" stroke="#FE7A04"/>
<rect x="88.3623" y="55.5457" width="4.36239" height="4.36239" transform="rotate(180 88.3623 55.5457)" fill="#FBF7F0" stroke="#FE7A04"/>
<rect x="78.1133" y="57.9099" width="9.09091" height="9.09091" transform="rotate(180 78.1133 57.9099)" fill="#FBF7F0" stroke="#FE7A04"/>
<rect x="75.749" y="55.5457" width="4.36239" height="4.36239" transform="rotate(180 75.749 55.5457)" fill="#FBF7F0" stroke="#FE7A04"/>
<rect x="65.5" y="57.9099" width="9.09091" height="9.09091" transform="rotate(180 65.5 57.9099)" fill="#FBF7F0" stroke="#FE7A04"/>
<rect x="63.1357" y="55.5457" width="4.36239" height="4.36239" transform="rotate(180 63.1357 55.5457)" fill="#FBF7F0" stroke="#FE7A04"/>
<rect x="52.8857" y="57.9099" width="9.09091" height="9.09091" transform="rotate(180 52.8857 57.9099)" fill="#FBF7F0" stroke="#FE7A04"/>
<rect x="50.5215" y="55.5457" width="4.36239" height="4.36239" transform="rotate(180 50.5215 55.5457)" fill="#FBF7F0" stroke="#FE7A04"/>
<rect x="191.636" y="57.9099" width="9.09091" height="9.09091" transform="rotate(180 191.636 57.9099)" fill="#FBF7F0" stroke="#FE7A04"/>
<rect x="189.272" y="55.5457" width="4.36239" height="4.36239" transform="rotate(180 189.272 55.5457)" fill="#FBF7F0" stroke="#FE7A04"/>
<rect x="179.273" y="57.9099" width="9.09091" height="9.09091" transform="rotate(180 179.273 57.9099)" fill="#FBF7F0" stroke="#FE7A04"/>
<rect x="176.909" y="55.5457" width="4.36239" height="4.36239" transform="rotate(180 176.909 55.5457)" fill="#FBF7F0" stroke="#FE7A04"/>
<rect x="166.659" y="57.9099" width="9.09091" height="9.09091" transform="rotate(180 166.659 57.9099)" fill="#FBF7F0" stroke="#FE7A04"/>
<rect x="164.294" y="55.5457" width="4.36239" height="4.36239" transform="rotate(180 164.294 55.5457)" fill="#FBF7F0" stroke="#FE7A04"/>
<rect x="154.045" y="57.9099" width="9.09091" height="9.09091" transform="rotate(180 154.045 57.9099)" fill="#FBF7F0" stroke="#FE7A04"/>
<rect x="151.681" y="55.5457" width="4.36239" height="4.36239" transform="rotate(180 151.681 55.5457)" fill="#FBF7F0" stroke="#FE7A04"/>
<rect x="141.432" y="57.9099" width="9.09091" height="9.09091" transform="rotate(180 141.432 57.9099)" fill="#FBF7F0" stroke="#FE7A04"/>
<rect x="139.068" y="55.5457" width="4.36239" height="4.36239" transform="rotate(180 139.068 55.5457)" fill="#FBF7F0" stroke="#FE7A04"/>
<rect x="128.818" y="57.9099" width="9.09091" height="9.09091" transform="rotate(180 128.818 57.9099)" fill="#FBF7F0" stroke="#FE7A04"/>
<rect x="126.454" y="55.5457" width="4.36239" height="4.36239" transform="rotate(180 126.454 55.5457)" fill="#FBF7F0" stroke="#FE7A04"/>
<rect x="255.205" y="57.9099" width="9.09091" height="9.09091" transform="rotate(180 255.205 57.9099)" fill="#FBF7F0" stroke="#FE7A04"/>
<rect x="252.84" y="55.5457" width="4.36239" height="4.36239" transform="rotate(180 252.84 55.5457)" fill="#FBF7F0" stroke="#FE7A04"/>
<rect x="242.59" y="57.9099" width="9.09091" height="9.09091" transform="rotate(180 242.59 57.9099)" fill="#FBF7F0" stroke="#FE7A04"/>
<rect x="240.226" y="55.5457" width="4.36239" height="4.36239" transform="rotate(180 240.226 55.5457)" fill="#FBF7F0" stroke="#FE7A04"/>
<rect x="229.977" y="57.9099" width="9.09091" height="9.09091" transform="rotate(180 229.977 57.9099)" fill="#FBF7F0" stroke="#FE7A04"/>
<rect x="227.613" y="55.5457" width="4.36239" height="4.36239" transform="rotate(180 227.613 55.5457)" fill="#FBF7F0" stroke="#FE7A04"/>
<rect x="217.364" y="57.9099" width="9.09091" height="9.09091" transform="rotate(180 217.364 57.9099)" fill="#FBF7F0" stroke="#FE7A04"/>
<rect x="215" y="55.5457" width="4.36239" height="4.36239" transform="rotate(180 215 55.5457)" fill="#FBF7F0" stroke="#FE7A04"/>
<rect x="204.75" y="57.9099" width="9.09091" height="9.09091" transform="rotate(180 204.75 57.9099)" fill="#FBF7F0" stroke="#FE7A04"/>
<rect x="202.385" y="55.5457" width="4.36239" height="4.36239" transform="rotate(180 202.385 55.5457)" fill="#FBF7F0" stroke="#FE7A04"/>
<rect x="183.295" y="269.091" width="9.09091" height="9.09091" fill="#FBF7F0" stroke="#FE7A04"/>
<rect x="185.66" y="271.456" width="4.36239" height="4.36239" fill="#FBF7F0" stroke="#FE7A04"/>
<rect x="195.659" y="269.091" width="9.09091" height="9.09091" fill="#FBF7F0" stroke="#FE7A04"/>
<rect x="198.023" y="271.456" width="4.36239" height="4.36239" fill="#FBF7F0" stroke="#FE7A04"/>
<rect x="208.273" y="269.091" width="9.09091" height="9.09091" fill="#FBF7F0" stroke="#FE7A04"/>
<rect x="210.637" y="271.456" width="4.36239" height="4.36239" fill="#FBF7F0" stroke="#FE7A04"/>
<rect x="220.886" y="269.091" width="9.09091" height="9.09091" fill="#FBF7F0" stroke="#FE7A04"/>
<rect x="223.25" y="271.456" width="4.36239" height="4.36239" fill="#FBF7F0" stroke="#FE7A04"/>
<rect x="233.5" y="269.091" width="9.09091" height="9.09091" fill="#FBF7F0" stroke="#FE7A04"/>
<rect x="235.864" y="271.456" width="4.36239" height="4.36239" fill="#FBF7F0" stroke="#FE7A04"/>
<rect x="246.114" y="269.091" width="9.09091" height="9.09091" fill="#FBF7F0" stroke="#FE7A04"/>
<rect x="248.478" y="271.456" width="4.36239" height="4.36239" fill="#FBF7F0" stroke="#FE7A04"/>
<rect x="107.363" y="269.091" width="9.09091" height="9.09091" fill="#FBF7F0" stroke="#FE7A04"/>
<rect x="109.728" y="271.456" width="4.36239" height="4.36239" fill="#FBF7F0" stroke="#FE7A04"/>
<rect x="119.727" y="269.091" width="9.09091" height="9.09091" fill="#FBF7F0" stroke="#FE7A04"/>
<rect x="122.091" y="271.456" width="4.36239" height="4.36239" fill="#FBF7F0" stroke="#FE7A04"/>
<rect x="132.341" y="269.091" width="9.09091" height="9.09091" fill="#FBF7F0" stroke="#FE7A04"/>
<rect x="134.705" y="271.456" width="4.36239" height="4.36239" fill="#FBF7F0" stroke="#FE7A04"/>
<rect x="144.954" y="269.091" width="9.09091" height="9.09091" fill="#FBF7F0" stroke="#FE7A04"/>
<rect x="147.318" y="271.456" width="4.36239" height="4.36239" fill="#FBF7F0" stroke="#FE7A04"/>
<rect x="157.567" y="269.091" width="9.09091" height="9.09091" fill="#FBF7F0" stroke="#FE7A04"/>
<rect x="159.932" y="271.456" width="4.36239" height="4.36239" fill="#FBF7F0" stroke="#FE7A04"/>
<rect x="170.182" y="269.091" width="9.09091" height="9.09091" fill="#FBF7F0" stroke="#FE7A04"/>
<rect x="172.546" y="271.456" width="4.36239" height="4.36239" fill="#FBF7F0" stroke="#FE7A04"/>
<rect x="43.7949" y="269.091" width="9.09091" height="9.09091" fill="#FBF7F0" stroke="#FE7A04"/>
<rect x="46.1592" y="271.456" width="4.36239" height="4.36239" fill="#FBF7F0" stroke="#FE7A04"/>
<rect x="56.4092" y="269.091" width="9.09091" height="9.09091" fill="#FBF7F0" stroke="#FE7A04"/>
<rect x="58.7734" y="271.456" width="4.36239" height="4.36239" fill="#FBF7F0" stroke="#FE7A04"/>
<rect x="69.0225" y="269.091" width="9.09091" height="9.09091" fill="#FBF7F0" stroke="#FE7A04"/>
<rect x="71.3867" y="271.456" width="4.36239" height="4.36239" fill="#FBF7F0" stroke="#FE7A04"/>
<rect x="81.6357" y="269.091" width="9.09091" height="9.09091" fill="#FBF7F0" stroke="#FE7A04"/>
<rect x="84" y="271.456" width="4.36239" height="4.36239" fill="#FBF7F0" stroke="#FE7A04"/>
<rect x="94.25" y="269.091" width="9.09091" height="9.09091" fill="#FBF7F0" stroke="#FE7A04"/>
<rect x="96.6143" y="271.456" width="4.36239" height="4.36239" fill="#FBF7F0" stroke="#FE7A04"/>
<text style="font-family:'Ohno Blazeface';" fill="#85267A" xml:space="preserve" style="white-space: pre" font-family="Ohno Blazeface" font-size="31" font-weight="200" letter-spacing="0em"><tspan x="4.42963" y="25.7405">HOW DOES SPADES</tspan></text>
<text style="font-family:'Ohno Blazeface';" fill="#85267A" xml:space="preserve" style="white-space: pre" font-family="Ohno Blazeface" font-size="31" font-weight="200" letter-spacing="0em"><tspan x="19.218" y="325.173">MAKE YOU FEEL?</tspan></text>
<text style="font-family:'Lyon Text Web';" fill="black" xml:space="preserve" style="white-space: pre" font-family="Lyon Text" font-size="16" letter-spacing="0em"><tspan x="19.2178" y="92.2513">Far from derogatory, the game of </tspan><tspan x="19.2178" y="111.251">Spades has been a welcome mainstay </tspan><tspan x="19.2178" y="130.251">in the African-American community </tspan><tspan x="19.2178" y="149.251">because it inherently feels like us, </tspan><tspan x="19.2178" y="168.251">and when we play it, we feel </tspan><tspan x="19.2178" y="187.251">connected to each other, our </tspan><tspan x="19.2178" y="206.251">community, and our history. 10% of </tspan><tspan x="19.2178" y="225.251">survey respondents said that Spades </tspan><tspan x="19.2178" y="244.251">makes them feel Black.&#10;</tspan></text>
</svg>
