<svg viewBox="0 0 38 38" fill="none" xmlns="http://www.w3.org/2000/svg">
<path d="M5.07919 26.186L5.07919 19.1337C5.07919 11.3762 11.4262 5.02917 19.1837 5.02917C26.9412 5.02917 33.2883 11.3762 33.2883 19.1337C33.2883 26.8912 26.9412 33.2383 19.1837 33.2383L1.55305 33.2383" stroke="#FE7A04" stroke-width="2" stroke-miterlimit="10" stroke-linecap="square"/>
<path d="M1.55305 36.7644L19.1837 36.7644C28.9159 36.7644 36.8144 28.8659 36.8144 19.1337C36.8144 9.4016 28.9159 1.50305 19.1837 1.50305C9.4516 1.50305 1.55305 9.4016 1.55305 19.1337L1.55305 26.186" stroke="#FE7A04" stroke-width="2" stroke-miterlimit="10" stroke-linecap="square"/>
<path d="M1.55303 29.7124L19.1837 29.7124C25.0371 29.7124 29.7621 24.9873 29.7621 19.134C29.7621 13.2806 25.0371 8.55554 19.1837 8.55554C13.3303 8.55554 8.6053 13.2806 8.6053 19.134L8.6053 26.1862" stroke="#FE7A04" stroke-width="2" stroke-miterlimit="10" stroke-linecap="square"/>
<path d="M1.55303 26.1861L19.1837 26.1861C23.0625 26.1861 26.236 23.0126 26.236 19.1338C26.236 15.2551 23.0625 12.0815 19.1837 12.0815C15.305 12.0815 12.1314 15.2551 12.1314 19.1338L12.1314 26.1861" stroke="#FE7A04" stroke-width="2" stroke-miterlimit="10" stroke-linecap="square"/>
</svg>
