<svg viewBox="0 0 22 29" fill="none" xmlns="http://www.w3.org/2000/svg">
<path d="M18.7259 8.61491C18.7259 8.61491 11.8424 1.78387 11.1486 0.152832C10.3822 1.78387 3.14799 8.78195 3.14799 8.78195C3.14799 8.78195 -0.130091 11.8287 0.348629 15.7653C0.348629 18.7474 2.76431 21.1685 5.74671 21.1685C7.69167 21.1685 9.37935 20.1346 10.3217 18.5903C10.3214 18.5935 10.3205 18.597 10.3201 18.5999C9.87951 21.5455 8.36975 26.3237 5.88335 28.9532L16.4094 28.9503C13.9675 25.2191 12.4376 21.2549 11.9762 18.5999C11.9758 18.5973 11.9752 18.5948 11.9749 18.5928C12.9201 20.1362 14.6107 21.1692 16.555 21.1692C19.5406 21.1692 21.9573 18.748 21.9573 15.7656C22.1397 11.78 18.7259 8.61491 18.7259 8.61491Z" fill="black"/>
</svg>
