<svg viewBox="0 0 213 39" fill="none" xmlns="http://www.w3.org/2000/svg">
<text fill="#282611" xml:space="preserve" style="white-space: pre; font-family: 'Lyon Text Web';" font-family="Lyon Text" font-size="11" letter-spacing="0em"><tspan x="71.5479" y="18.9939">e.g., if there&#x2019;s fried chicken, </tspan><tspan x="71.5479" y="31.9939">trash talking, teaching rules</tspan></text>
<path d="M46.6304 5.18899C46.4508 4.97922 46.1352 4.95476 45.9254 5.13436L42.5071 8.06099C42.2973 8.24059 42.2729 8.55622 42.4525 8.76599C42.632 8.97575 42.9477 9.00021 43.1574 8.82062L46.1959 6.21916L48.7974 9.25766C48.977 9.46742 49.2926 9.49188 49.5024 9.31228C49.7122 9.13269 49.7366 8.81706 49.557 8.60729L46.6304 5.18899ZM62.6923 23.8243C57.7692 24.0867 53.5695 22.466 50.712 19.3405C47.8525 16.2129 46.2865 11.5222 46.7491 5.5528L45.7521 5.47554C45.273 11.6584 46.8896 16.6417 49.974 20.0153C53.0603 23.3911 57.5656 25.099 62.7455 24.8229L62.6923 23.8243Z" fill="#032CA8"/>
</svg>
