<svg viewBox="0 0 213 35" fill="none" xmlns="http://www.w3.org/2000/svg">
<path d="M74.3969 14.8099C76.0139 14.8099 76.5529 13.3799 76.6409 13.2809L76.4099 13.1159C76.4099 13.1159 75.8049 13.8969 74.8809 13.8969C73.7479 13.8969 72.9559 13.0829 72.9559 11.6749H76.6079C76.5969 10.1679 75.8929 9.26591 74.5949 9.26591C73.0879 9.26591 71.9329 10.5199 71.9329 12.2249C71.9329 13.2369 72.5599 14.8099 74.3969 14.8099ZM74.3419 9.79391C75.0569 9.79391 75.3759 10.4649 75.3869 11.2019H72.9999C73.1429 10.3879 73.6709 9.79391 74.3419 9.79391ZM78.4999 14.6999C78.9399 14.6999 79.3139 14.3259 79.3139 13.8969C79.3139 13.4569 78.9399 13.0939 78.4999 13.0939C78.0709 13.0939 77.7079 13.4569 77.7079 13.8969C77.7079 14.3259 78.0709 14.6999 78.4999 14.6999ZM85.5582 10.1019V9.38691L83.9852 9.55191C83.5342 9.39791 83.1602 9.27691 82.6432 9.27691C81.4332 9.27691 80.4652 10.0909 80.4652 11.2899C80.4652 12.0489 80.8282 12.5879 81.3452 12.8959C80.9272 13.2699 80.6742 13.5999 80.4762 14.1279L81.2682 14.8869V14.9199L81.0152 15.0519C80.4542 15.3489 80.1792 15.7669 80.1792 16.2069C80.1792 16.9989 81.0922 17.4719 82.2252 17.4719C84.2382 17.4719 85.5032 16.3389 85.5032 15.3929C85.5032 14.6779 85.0082 14.1609 83.8752 14.1059L81.8402 13.9959C81.5542 13.9849 81.3892 13.7979 81.3892 13.6219C81.3892 13.4569 81.5212 13.2589 81.7412 13.0939C82.0052 13.1819 82.2912 13.2259 82.5882 13.2259C83.7542 13.2259 84.8322 12.4339 84.8322 11.2679C84.8322 10.6849 84.5462 10.2889 84.2822 10.0579L84.2932 10.0249L85.5582 10.1019ZM82.7422 12.7309C82.0492 12.7309 81.5872 12.0929 81.5872 11.0039C81.5872 10.2119 81.9392 9.72791 82.5662 9.72791C83.2042 9.72791 83.7212 10.2669 83.7212 11.4219C83.7212 12.2139 83.3032 12.7309 82.7422 12.7309ZM83.8532 15.1069C84.4032 15.1509 84.6452 15.3819 84.6452 15.7449C84.6452 16.2399 84.1062 16.8559 82.7972 16.8559C81.6972 16.8559 81.2682 16.3059 81.2682 15.8659C81.2682 15.5029 81.5212 15.1509 81.6642 14.9749L83.8532 15.1069ZM87.3192 14.6999C87.7592 14.6999 88.1332 14.3259 88.1332 13.8969C88.1332 13.4569 87.7592 13.0939 87.3192 13.0939C86.8902 13.0939 86.5272 13.4569 86.5272 13.8969C86.5272 14.3259 86.8902 14.6999 87.3192 14.6999ZM89.2076 16.5809C89.2186 16.6139 89.4276 16.8889 89.4276 16.8889C90.4616 16.3499 91.1546 15.3049 91.1546 14.2709C91.1546 13.3029 90.6376 12.8959 90.1096 12.8959C89.5046 12.8959 89.3286 13.4569 89.4166 13.9299C89.9556 14.0839 90.2306 14.4469 90.2306 14.9969C90.2306 15.4919 89.9336 16.1079 89.2076 16.5809ZM94.1996 14.6339H96.8176V14.2269L96.0146 14.0069V9.26591L94.2766 9.61791V10.0469L94.9366 10.2559V13.9959L94.1996 14.2269V14.6339ZM95.4206 7.86891C95.8166 7.86891 96.1576 7.53891 96.1576 7.14291C96.1576 6.74691 95.8166 6.41691 95.4206 6.41691C95.0136 6.41691 94.6726 6.74691 94.6726 7.14291C94.6726 7.53891 95.0026 7.86891 95.4206 7.86891ZM97.4015 14.6339H100.174V14.2269L99.1835 14.0069V10.0139H100.658V9.41991H99.1835V8.56191C99.1835 7.35191 99.7005 6.92291 100.295 6.92291C100.581 6.92291 100.779 7.03291 100.79 7.04391L101.065 8.00091C101.065 8.00091 101.197 8.05591 101.362 8.05591C101.769 8.05591 101.978 7.76991 101.978 7.45091C101.978 6.94491 101.428 6.41691 100.526 6.41691C99.2605 6.41691 98.0945 7.71491 98.0945 9.25491V9.29891L97.3135 9.51891V9.99191H98.0945V14.0069L97.4015 14.2269V14.6339ZM105.122 14.7659C105.991 14.7659 106.673 14.2599 106.673 14.2599L106.596 13.9409C106.596 13.9409 106.167 14.0069 105.826 14.0069C105.408 14.0069 105.067 13.9409 105.067 13.0829V10.0359H106.497V9.41991H105.045V7.95691H104.649L104.033 9.30991L103.23 9.51891V9.99191H104L103.967 13.5229C103.956 14.2379 104.22 14.7659 105.122 14.7659ZM110.489 14.6339H112.931V14.2379L112.205 14.0179V11.1139C112.205 9.72791 111.699 9.26591 110.654 9.26591C109.752 9.26591 109.081 9.98091 108.861 10.2449V6.42791L107.024 6.72491V7.06591L107.772 7.32991V13.9959L107.068 14.2269V14.6339H109.565V14.2269L108.861 14.0179V10.6079C108.993 10.4759 109.51 10.0689 110.093 10.0689C110.83 10.0689 111.072 10.4979 111.116 11.2679V14.0179L110.489 14.2269V14.6339ZM116.034 14.8099C117.651 14.8099 118.19 13.3799 118.278 13.2809L118.047 13.1159C118.047 13.1159 117.442 13.8969 116.518 13.8969C115.385 13.8969 114.593 13.0829 114.593 11.6749H118.245C118.234 10.1679 117.53 9.26591 116.232 9.26591C114.725 9.26591 113.57 10.5199 113.57 12.2249C113.57 13.2369 114.197 14.8099 116.034 14.8099ZM115.979 9.79391C116.694 9.79391 117.013 10.4649 117.024 11.2019H114.637C114.78 10.3879 115.308 9.79391 115.979 9.79391ZM119.133 14.6339H121.894V14.2159L120.915 14.0399V11.0369C121.19 10.6849 121.443 10.4869 121.652 10.3219L122.576 10.6629C122.73 10.4759 122.972 10.2119 122.972 9.85991C122.983 9.49691 122.763 9.25491 122.378 9.25491C121.971 9.25491 121.696 9.51891 121.289 10.0579L120.882 10.5969H120.86L120.75 9.26591H120.695L119.089 9.80491V10.1679L119.826 10.3109V13.9959L119.133 14.2269V14.6339ZM125.82 14.8099C127.437 14.8099 127.976 13.3799 128.064 13.2809L127.833 13.1159C127.833 13.1159 127.228 13.8969 126.304 13.8969C125.171 13.8969 124.379 13.0829 124.379 11.6749H128.031C128.02 10.1679 127.316 9.26591 126.018 9.26591C124.511 9.26591 123.356 10.5199 123.356 12.2249C123.356 13.2369 123.983 14.8099 125.82 14.8099ZM125.765 9.79391C126.48 9.79391 126.799 10.4649 126.81 11.2019H124.423C124.566 10.3879 125.094 9.79391 125.765 9.79391ZM129.165 9.06791C129.187 9.10091 129.396 9.37591 129.396 9.37591C130.276 8.88091 130.859 8.04491 130.859 7.07691C130.859 6.27391 130.408 5.85591 129.946 5.85591C129.44 5.85591 129.165 6.22991 129.231 6.82391C129.792 6.96691 130.034 7.29691 130.034 7.69291C130.034 8.14391 129.737 8.66091 129.165 9.06791ZM133.163 14.8429C134.296 14.8429 135.308 14.1059 135.308 13.1709C135.308 12.5439 134.989 12.0709 133.999 11.6419L133.493 11.4219C132.833 11.1359 132.624 10.8719 132.624 10.4539C132.624 10.0469 132.932 9.71691 133.438 9.71691C133.823 9.71691 134.054 9.88191 134.197 9.98091L134.648 10.9709H135.011L134.956 9.60691C134.494 9.37591 134.021 9.25491 133.559 9.25491C132.503 9.25491 131.59 9.94791 131.59 10.8279C131.59 11.5319 131.953 11.9279 132.734 12.2799L133.218 12.4999C134.01 12.8629 134.252 13.1709 134.252 13.5779C134.252 14.0619 133.878 14.3809 133.328 14.3809C132.833 14.3809 132.602 14.1939 132.415 14.0619L131.843 12.8189H131.447L131.623 14.4139C132.063 14.6449 132.558 14.8429 133.163 14.8429ZM138.168 14.6339H140.94V14.2269L139.95 14.0069V10.0139H141.424V9.41991H139.95V8.56191C139.95 7.35191 140.467 6.92291 141.061 6.92291C141.347 6.92291 141.545 7.03291 141.556 7.04391L141.831 8.00091C141.831 8.00091 141.963 8.05591 142.128 8.05591C142.535 8.05591 142.744 7.76991 142.744 7.45091C142.744 6.94491 142.194 6.41691 141.292 6.41691C140.027 6.41691 138.861 7.71491 138.861 9.25491V9.29891L138.08 9.51891V9.99191H138.861V14.0069L138.168 14.2269V14.6339ZM142.057 14.6339H144.818V14.2159L143.839 14.0399V11.0369C144.114 10.6849 144.367 10.4869 144.576 10.3219L145.5 10.6629C145.654 10.4759 145.896 10.2119 145.896 9.85991C145.907 9.49691 145.687 9.25491 145.302 9.25491C144.895 9.25491 144.62 9.51891 144.213 10.0579L143.806 10.5969H143.784L143.674 9.26591H143.619L142.013 9.80491V10.1679L142.75 10.3109V13.9959L142.057 14.2269V14.6339ZM146.256 14.6339H148.874V14.2269L148.071 14.0069V9.26591L146.333 9.61791V10.0469L146.993 10.2559V13.9959L146.256 14.2269V14.6339ZM147.477 7.86891C147.873 7.86891 148.214 7.53891 148.214 7.14291C148.214 6.74691 147.873 6.41691 147.477 6.41691C147.07 6.41691 146.729 6.74691 146.729 7.14291C146.729 7.53891 147.059 7.86891 147.477 7.86891ZM151.966 14.8099C153.583 14.8099 154.122 13.3799 154.21 13.2809L153.979 13.1159C153.979 13.1159 153.374 13.8969 152.45 13.8969C151.317 13.8969 150.525 13.0829 150.525 11.6749H154.177C154.166 10.1679 153.462 9.26591 152.164 9.26591C150.657 9.26591 149.502 10.5199 149.502 12.2249C149.502 13.2369 150.129 14.8099 151.966 14.8099ZM151.911 9.79391C152.626 9.79391 152.945 10.4649 152.956 11.2019H150.569C150.712 10.3879 151.24 9.79391 151.911 9.79391ZM157.805 7.09891L158.839 7.29691V9.38691C158.619 9.33191 158.322 9.27691 157.926 9.27691C156.353 9.27691 155.11 10.4759 155.11 12.2909C155.11 13.5779 155.847 14.8099 157.343 14.8099C158.069 14.8099 158.531 14.4359 158.938 14.0179L159.224 14.7769L160.797 14.5569V14.1609L159.928 13.9519V6.42791L157.805 6.71391V7.09891ZM157.981 13.9959C156.661 13.9959 156.199 12.8629 156.199 11.7189C156.199 10.4649 156.87 9.78291 157.673 9.78291C158.377 9.78291 158.762 10.3769 158.839 10.4979V13.7319C158.619 13.8749 158.333 13.9959 157.981 13.9959ZM166.026 14.8099C167.489 14.8099 168.006 13.5999 168.105 13.4569L167.874 13.2809C167.874 13.2809 167.368 13.9409 166.598 13.9409C165.509 13.9409 164.717 12.9839 164.717 11.7189C164.717 10.6409 165.344 9.77191 166.246 9.77191C166.631 9.77191 166.84 9.91491 166.862 9.93691L167.027 11.0149C167.027 11.0149 167.214 11.0479 167.434 11.0479C167.841 11.0479 168.061 10.7619 168.061 10.4099C168.061 9.78291 167.379 9.26591 166.433 9.26591C165.058 9.26591 163.617 10.3989 163.617 12.2139C163.617 13.8749 164.717 14.8099 166.026 14.8099ZM171.999 14.6339H174.441V14.2379L173.715 14.0179V11.1139C173.715 9.72791 173.209 9.26591 172.164 9.26591C171.262 9.26591 170.591 9.98091 170.371 10.2449V6.42791L168.534 6.72491V7.06591L169.282 7.32991V13.9959L168.578 14.2269V14.6339H171.075V14.2269L170.371 14.0179V10.6079C170.503 10.4759 171.02 10.0689 171.603 10.0689C172.34 10.0689 172.582 10.4979 172.626 11.2679V14.0179L171.999 14.2269V14.6339ZM175.002 14.6339H177.62V14.2269L176.817 14.0069V9.26591L175.079 9.61791V10.0469L175.739 10.2559V13.9959L175.002 14.2269V14.6339ZM176.223 7.86891C176.619 7.86891 176.96 7.53891 176.96 7.14291C176.96 6.74691 176.619 6.41691 176.223 6.41691C175.816 6.41691 175.475 6.74691 175.475 7.14291C175.475 7.53891 175.805 7.86891 176.223 7.86891ZM180.646 14.8099C182.109 14.8099 182.626 13.5999 182.725 13.4569L182.494 13.2809C182.494 13.2809 181.988 13.9409 181.218 13.9409C180.129 13.9409 179.337 12.9839 179.337 11.7189C179.337 10.6409 179.964 9.77191 180.866 9.77191C181.251 9.77191 181.46 9.91491 181.482 9.93691L181.647 11.0149C181.647 11.0149 181.834 11.0479 182.054 11.0479C182.461 11.0479 182.681 10.7619 182.681 10.4099C182.681 9.78291 181.999 9.26591 181.053 9.26591C179.678 9.26591 178.237 10.3989 178.237 12.2139C178.237 13.8749 179.337 14.8099 180.646 14.8099ZM183.935 13.9959L183.231 14.2269V14.6339H185.739V14.2269L185.024 14.0179V6.42791L183.198 6.79091V7.13191L183.935 7.39591V13.9959ZM188.115 14.8209C188.588 14.8099 188.764 14.5459 188.764 14.5459L186.19 11.4329L187.884 9.95891L188.643 9.77191V9.41991H186.278V9.80491L187.004 10.0249L185.53 11.4109L185.09 11.5429V11.5759L186.916 14.0399C187.356 14.6339 187.697 14.8319 188.115 14.8209ZM191.616 14.8099C193.233 14.8099 193.772 13.3799 193.86 13.2809L193.629 13.1159C193.629 13.1159 193.024 13.8969 192.1 13.8969C190.967 13.8969 190.175 13.0829 190.175 11.6749H193.827C193.816 10.1679 193.112 9.26591 191.814 9.26591C190.307 9.26591 189.152 10.5199 189.152 12.2249C189.152 13.2369 189.779 14.8099 191.616 14.8099ZM191.561 9.79391C192.276 9.79391 192.595 10.4649 192.606 11.2019H190.219C190.362 10.3879 190.89 9.79391 191.561 9.79391ZM194.715 14.6339H197.212V14.2269L196.497 14.0179V10.6189C196.607 10.4979 197.135 10.0689 197.74 10.0689C198.466 10.0689 198.719 10.4979 198.752 11.2679V14.0179L198.136 14.2269V14.6339H200.567V14.2379L199.841 14.0179V11.1139C199.841 9.72791 199.346 9.26591 198.29 9.26591C197.41 9.26591 196.706 10.0029 196.486 10.2559H196.464L196.222 9.26591H196.167L194.671 9.80491V10.1459L195.408 10.3109V14.0069L194.715 14.2269V14.6339ZM201.367 16.5809C201.378 16.6139 201.587 16.8889 201.587 16.8889C202.621 16.3499 203.314 15.3049 203.314 14.2709C203.314 13.3029 202.797 12.8959 202.269 12.8959C201.664 12.8959 201.488 13.4569 201.576 13.9299C202.115 14.0839 202.39 14.4469 202.39 14.9969C202.39 15.4919 202.093 16.1079 201.367 16.5809ZM71.5919 30.3839C72.1419 30.3069 72.8349 29.9659 73.2199 29.2399C73.4839 28.7229 73.6159 28.0519 73.6159 27.2599V22.2659L71.8669 22.6179V23.0469L72.5379 23.3109V27.2929C72.5379 28.9539 72.2079 29.7679 71.5039 30.0209L71.5919 30.3839ZM73.0109 20.8689C73.4179 20.8689 73.7479 20.5389 73.7479 20.1429C73.7479 19.7469 73.4179 19.4169 73.0109 19.4169C72.6149 19.4169 72.2739 19.7469 72.2739 20.1429C72.2739 20.5389 72.6039 20.8689 73.0109 20.8689ZM79.1649 27.7989L80.7269 27.5569V27.1499L79.8579 26.9409V22.3319L77.8889 22.5189V22.9479L78.7579 23.1349V26.5449C78.6369 26.6549 78.2189 27.0069 77.6579 27.0069C76.9319 27.0069 76.5689 26.5999 76.5469 25.7199V22.3099L74.6989 22.4969V22.9259L75.4579 23.1349V25.8959C75.4579 27.1609 76.0299 27.8209 76.9759 27.8209C77.9769 27.8209 78.6479 27.0949 78.8129 26.8969L79.1649 27.7989ZM81.1701 27.6339H83.6671V27.2269L82.9521 27.0179V23.6189C83.0621 23.4979 83.5901 23.0689 84.1951 23.0689C84.9211 23.0689 85.1741 23.4979 85.2071 24.2679V27.0179L84.5911 27.2269V27.6339H87.0221V27.2379L86.2961 27.0179V24.1139C86.2961 22.7279 85.8011 22.2659 84.7451 22.2659C83.8651 22.2659 83.1611 23.0029 82.9411 23.2559H82.9191L82.6771 22.2659H82.6221L81.1261 22.8049V23.1459L81.8631 23.3109V27.0069L81.1701 27.2269V27.6339ZM88.2864 26.9959L87.5824 27.2269V27.6339H90.0904V27.2269L89.3754 27.0179V19.4279L87.5494 19.7909V20.1319L88.2864 20.3959V26.9959ZM92.4664 27.8209C92.9394 27.8099 93.1154 27.5459 93.1154 27.5459L90.5414 24.4329L92.2354 22.9589L92.9944 22.7719V22.4199H90.6294V22.8049L91.3554 23.0249L89.8814 24.4109L89.4414 24.5429V24.5759L91.2674 27.0399C91.7074 27.6339 92.0484 27.8319 92.4664 27.8209ZM97.3988 27.7659C98.2678 27.7659 98.9498 27.2599 98.9498 27.2599L98.8728 26.9409C98.8728 26.9409 98.4438 27.0069 98.1028 27.0069C97.6848 27.0069 97.3438 26.9409 97.3438 26.0829V23.0359H98.7738V22.4199H97.3218V20.9569H96.9258L96.3098 22.3099L95.5068 22.5189V22.9919H96.2768L96.2438 26.5229C96.2328 27.2379 96.4968 27.7659 97.3988 27.7659ZM100.95 27.7989C101.665 27.7989 101.951 27.4469 102.523 26.8859H102.556C102.578 27.3699 102.809 27.7659 103.403 27.7659C103.854 27.7659 104.525 27.4689 104.525 27.4689V27.1389H104.008C103.689 27.1389 103.623 27.0619 103.623 26.8199V23.9379C103.623 22.8049 103.139 22.2769 101.951 22.2769C100.763 22.2769 99.7403 23.0799 99.7403 23.6189C99.7403 23.9379 99.9383 24.1139 100.301 24.1139C100.499 24.1139 100.774 24.0699 100.796 24.0589L100.84 22.9589C100.928 22.9039 101.203 22.7719 101.5 22.7719C102.105 22.7719 102.479 23.1899 102.523 24.0589V24.5979L101.357 24.8949C100.235 25.1809 99.5863 25.5879 99.5863 26.4679C99.5863 27.3589 100.312 27.7989 100.95 27.7989ZM101.599 26.9959C101.137 26.9959 100.719 26.7099 100.719 26.1599C100.719 25.7089 101.027 25.4999 101.577 25.3129L102.523 24.9939V26.4679C102.391 26.6549 102.083 26.9959 101.599 26.9959ZM105.028 27.6339H107.569V27.2269L106.821 27.0179V19.4279L105.006 19.8019V20.1869L105.732 20.3959V27.0069L105.028 27.2269V27.6339ZM108.922 26.9959L108.218 27.2269V27.6339H110.726V27.2269L110.011 27.0179V19.4279L108.185 19.7909V20.1319L108.922 20.3959V26.9959ZM113.102 27.8209C113.575 27.8099 113.751 27.5459 113.751 27.5459L111.177 24.4329L112.871 22.9589L113.63 22.7719V22.4199H111.265V22.8049L111.991 23.0249L110.517 24.4109L110.077 24.5429V24.5759L111.903 27.0399C112.343 27.6339 112.684 27.8319 113.102 27.8209ZM114.169 27.6339H116.787V27.2269L115.984 27.0069V22.2659L114.246 22.6179V23.0469L114.906 23.2559V26.9959L114.169 27.2269V27.6339ZM115.39 20.8689C115.786 20.8689 116.127 20.5389 116.127 20.1429C116.127 19.7469 115.786 19.4169 115.39 19.4169C114.983 19.4169 114.642 19.7469 114.642 20.1429C114.642 20.5389 114.972 20.8689 115.39 20.8689ZM117.371 27.6339H119.868V27.2269L119.153 27.0179V23.6189C119.263 23.4979 119.791 23.0689 120.396 23.0689C121.122 23.0689 121.375 23.4979 121.408 24.2679V27.0179L120.792 27.2269V27.6339H123.223V27.2379L122.497 27.0179V24.1139C122.497 22.7279 122.002 22.2659 120.946 22.2659C120.066 22.2659 119.362 23.0029 119.142 23.2559H119.12L118.878 22.2659H118.823L117.327 22.8049V23.1459L118.064 23.3109V27.0069L117.371 27.2269V27.6339ZM129.086 23.1019V22.3869L127.513 22.5519C127.062 22.3979 126.688 22.2769 126.171 22.2769C124.961 22.2769 123.993 23.0909 123.993 24.2899C123.993 25.0489 124.356 25.5879 124.873 25.8959C124.455 26.2699 124.202 26.5999 124.004 27.1279L124.796 27.8869V27.9199L124.543 28.0519C123.982 28.3489 123.707 28.7669 123.707 29.2069C123.707 29.9989 124.62 30.4719 125.753 30.4719C127.766 30.4719 129.031 29.3389 129.031 28.3929C129.031 27.6779 128.536 27.1609 127.403 27.1059L125.368 26.9959C125.082 26.9849 124.917 26.7979 124.917 26.6219C124.917 26.4569 125.049 26.2589 125.269 26.0939C125.533 26.1819 125.819 26.2259 126.116 26.2259C127.282 26.2259 128.36 25.4339 128.36 24.2679C128.36 23.6849 128.074 23.2889 127.81 23.0579L127.821 23.0249L129.086 23.1019ZM126.27 25.7309C125.577 25.7309 125.115 25.0929 125.115 24.0039C125.115 23.2119 125.467 22.7279 126.094 22.7279C126.732 22.7279 127.249 23.2669 127.249 24.4219C127.249 25.2139 126.831 25.7309 126.27 25.7309ZM127.381 28.1069C127.931 28.1509 128.173 28.3819 128.173 28.7449C128.173 29.2399 127.634 29.8559 126.325 29.8559C125.225 29.8559 124.796 29.3059 124.796 28.8659C124.796 28.5029 125.049 28.1509 125.192 27.9749L127.381 28.1069ZM129.888 29.5809C129.899 29.6139 130.108 29.8889 130.108 29.8889C131.142 29.3499 131.835 28.3049 131.835 27.2709C131.835 26.3029 131.318 25.8959 130.79 25.8959C130.185 25.8959 130.009 26.4569 130.097 26.9299C130.636 27.0839 130.911 27.4469 130.911 27.9969C130.911 28.4919 130.614 29.1079 129.888 29.5809ZM136.629 27.7659C137.498 27.7659 138.18 27.2599 138.18 27.2599L138.103 26.9409C138.103 26.9409 137.674 27.0069 137.333 27.0069C136.915 27.0069 136.574 26.9409 136.574 26.0829V23.0359H138.004V22.4199H136.552V20.9569H136.156L135.54 22.3099L134.737 22.5189V22.9919H135.507L135.474 26.5229C135.463 27.2379 135.727 27.7659 136.629 27.7659ZM141.095 27.8099C142.712 27.8099 143.251 26.3799 143.339 26.2809L143.108 26.1159C143.108 26.1159 142.503 26.8969 141.579 26.8969C140.446 26.8969 139.654 26.0829 139.654 24.6749H143.306C143.295 23.1679 142.591 22.2659 141.293 22.2659C139.786 22.2659 138.631 23.5199 138.631 25.2249C138.631 26.2369 139.258 27.8099 141.095 27.8099ZM141.04 22.7939C141.755 22.7939 142.074 23.4649 142.085 24.2019H139.698C139.841 23.3879 140.369 22.7939 141.04 22.7939ZM145.681 27.7989C146.396 27.7989 146.682 27.4469 147.254 26.8859H147.287C147.309 27.3699 147.54 27.7659 148.134 27.7659C148.585 27.7659 149.256 27.4689 149.256 27.4689V27.1389H148.739C148.42 27.1389 148.354 27.0619 148.354 26.8199V23.9379C148.354 22.8049 147.87 22.2769 146.682 22.2769C145.494 22.2769 144.471 23.0799 144.471 23.6189C144.471 23.9379 144.669 24.1139 145.032 24.1139C145.23 24.1139 145.505 24.0699 145.527 24.0589L145.571 22.9589C145.659 22.9039 145.934 22.7719 146.231 22.7719C146.836 22.7719 147.21 23.1899 147.254 24.0589V24.5979L146.088 24.8949C144.966 25.1809 144.317 25.5879 144.317 26.4679C144.317 27.3589 145.043 27.7989 145.681 27.7989ZM146.33 26.9959C145.868 26.9959 145.45 26.7099 145.45 26.1599C145.45 25.7089 145.758 25.4999 146.308 25.3129L147.254 24.9939V26.4679C147.122 26.6549 146.814 26.9959 146.33 26.9959ZM152.233 27.8099C153.696 27.8099 154.213 26.5999 154.312 26.4569L154.081 26.2809C154.081 26.2809 153.575 26.9409 152.805 26.9409C151.716 26.9409 150.924 25.9839 150.924 24.7189C150.924 23.6409 151.551 22.7719 152.453 22.7719C152.838 22.7719 153.047 22.9149 153.069 22.9369L153.234 24.0149C153.234 24.0149 153.421 24.0479 153.641 24.0479C154.048 24.0479 154.268 23.7619 154.268 23.4099C154.268 22.7829 153.586 22.2659 152.64 22.2659C151.265 22.2659 149.824 23.3989 149.824 25.2139C149.824 26.8749 150.924 27.8099 152.233 27.8099ZM158.206 27.6339H160.648V27.2379L159.922 27.0179V24.1139C159.922 22.7279 159.416 22.2659 158.371 22.2659C157.469 22.2659 156.798 22.9809 156.578 23.2449V19.4279L154.741 19.7249V20.0659L155.489 20.3299V26.9959L154.785 27.2269V27.6339H157.282V27.2269L156.578 27.0179V23.6079C156.71 23.4759 157.227 23.0689 157.81 23.0689C158.547 23.0689 158.789 23.4979 158.833 24.2679V27.0179L158.206 27.2269V27.6339ZM161.209 27.6339H163.827V27.2269L163.024 27.0069V22.2659L161.286 22.6179V23.0469L161.946 23.2559V26.9959L161.209 27.2269V27.6339ZM162.43 20.8689C162.826 20.8689 163.167 20.5389 163.167 20.1429C163.167 19.7469 162.826 19.4169 162.43 19.4169C162.023 19.4169 161.682 19.7469 161.682 20.1429C161.682 20.5389 162.012 20.8689 162.43 20.8689ZM164.411 27.6339H166.908V27.2269L166.193 27.0179V23.6189C166.303 23.4979 166.831 23.0689 167.436 23.0689C168.162 23.0689 168.415 23.4979 168.448 24.2679V27.0179L167.832 27.2269V27.6339H170.263V27.2379L169.537 27.0179V24.1139C169.537 22.7279 169.042 22.2659 167.986 22.2659C167.106 22.2659 166.402 23.0029 166.182 23.2559H166.16L165.918 22.2659H165.863L164.367 22.8049V23.1459L165.104 23.3109V27.0069L164.411 27.2269V27.6339ZM176.126 23.1019V22.3869L174.553 22.5519C174.102 22.3979 173.728 22.2769 173.211 22.2769C172.001 22.2769 171.033 23.0909 171.033 24.2899C171.033 25.0489 171.396 25.5879 171.913 25.8959C171.495 26.2699 171.242 26.5999 171.044 27.1279L171.836 27.8869V27.9199L171.583 28.0519C171.022 28.3489 170.747 28.7669 170.747 29.2069C170.747 29.9989 171.66 30.4719 172.793 30.4719C174.806 30.4719 176.071 29.3389 176.071 28.3929C176.071 27.6779 175.576 27.1609 174.443 27.1059L172.408 26.9959C172.122 26.9849 171.957 26.7979 171.957 26.6219C171.957 26.4569 172.089 26.2589 172.309 26.0939C172.573 26.1819 172.859 26.2259 173.156 26.2259C174.322 26.2259 175.4 25.4339 175.4 24.2679C175.4 23.6849 175.114 23.2889 174.85 23.0579L174.861 23.0249L176.126 23.1019ZM173.31 25.7309C172.617 25.7309 172.155 25.0929 172.155 24.0039C172.155 23.2119 172.507 22.7279 173.134 22.7279C173.772 22.7279 174.289 23.2669 174.289 24.4219C174.289 25.2139 173.871 25.7309 173.31 25.7309ZM174.421 28.1069C174.971 28.1509 175.213 28.3819 175.213 28.7449C175.213 29.2399 174.674 29.8559 173.365 29.8559C172.265 29.8559 171.836 29.3059 171.836 28.8659C171.836 28.5029 172.089 28.1509 172.232 27.9749L174.421 28.1069ZM178.784 27.6339H181.545V27.2159L180.566 27.0399V24.0369C180.841 23.6849 181.094 23.4869 181.303 23.3219L182.227 23.6629C182.381 23.4759 182.623 23.2119 182.623 22.8599C182.634 22.4969 182.414 22.2549 182.029 22.2549C181.622 22.2549 181.347 22.5189 180.94 23.0579L180.533 23.5969H180.511L180.401 22.2659H180.346L178.74 22.8049V23.1679L179.477 23.3109V26.9959L178.784 27.2269V27.6339ZM187.349 27.7989L188.911 27.5569V27.1499L188.042 26.9409V22.3319L186.073 22.5189V22.9479L186.942 23.1349V26.5449C186.821 26.6549 186.403 27.0069 185.842 27.0069C185.116 27.0069 184.753 26.5999 184.731 25.7199V22.3099L182.883 22.4969V22.9259L183.642 23.1349V25.8959C183.642 27.1609 184.214 27.8209 185.16 27.8209C186.161 27.8209 186.832 27.0949 186.997 26.8969L187.349 27.7989ZM189.429 27.6339H191.97V27.2269L191.222 27.0179V19.4279L189.407 19.8019V20.1869L190.133 20.3959V27.0069L189.429 27.2269V27.6339ZM195.107 27.8099C196.724 27.8099 197.263 26.3799 197.351 26.2809L197.12 26.1159C197.12 26.1159 196.515 26.8969 195.591 26.8969C194.458 26.8969 193.666 26.0829 193.666 24.6749H197.318C197.307 23.1679 196.603 22.2659 195.305 22.2659C193.798 22.2659 192.643 23.5199 192.643 25.2249C192.643 26.2369 193.27 27.8099 195.107 27.8099ZM195.052 22.7939C195.767 22.7939 196.086 23.4649 196.097 24.2019H193.71C193.853 23.3879 194.381 22.7939 195.052 22.7939ZM200.001 27.8429C201.134 27.8429 202.146 27.1059 202.146 26.1709C202.146 25.5439 201.827 25.0709 200.837 24.6419L200.331 24.4219C199.671 24.1359 199.462 23.8719 199.462 23.4539C199.462 23.0469 199.77 22.7169 200.276 22.7169C200.661 22.7169 200.892 22.8819 201.035 22.9809L201.486 23.9709H201.849L201.794 22.6069C201.332 22.3759 200.859 22.2549 200.397 22.2549C199.341 22.2549 198.428 22.9479 198.428 23.8279C198.428 24.5319 198.791 24.9279 199.572 25.2799L200.056 25.4999C200.848 25.8629 201.09 26.1709 201.09 26.5779C201.09 27.0619 200.716 27.3809 200.166 27.3809C199.671 27.3809 199.44 27.1939 199.253 27.0619L198.681 25.8189H198.285L198.461 27.4139C198.901 27.6449 199.396 27.8429 200.001 27.8429Z" fill="#282611"/>
<path d="M46.6304 1.18899C46.4508 0.979223 46.1352 0.954764 45.9254 1.13436L42.5071 4.06099C42.2973 4.24059 42.2729 4.55622 42.4525 4.76599C42.632 4.97575 42.9477 5.00021 43.1574 4.82062L46.1959 2.21916L48.7974 5.25766C48.977 5.46742 49.2926 5.49188 49.5024 5.31229C49.7122 5.13269 49.7366 4.81706 49.557 4.60729L46.6304 1.18899ZM62.6923 19.8243C57.7692 20.0867 53.5695 18.466 50.712 15.3405C47.8525 12.2129 46.2865 7.52216 46.7491 1.5528L45.7521 1.47554C45.273 7.65842 46.8896 12.6417 49.974 16.0153C53.0603 19.3911 57.5656 21.099 62.7455 20.8229L62.6923 19.8243Z" fill="#032CA8"/>
</svg>
