<svg width="144" height="72" viewBox="0 0 144 72" fill="none" xmlns="http://www.w3.org/2000/svg">
<path d="M22.9298 28.0449C22.9298 24.5309 21.5718 21.2129 19.0098 21.2129C16.4338 21.2129 15.0898 24.5309 15.0898 28.0589C15.0898 30.4669 16.0138 32.3429 19.0378 32.3429C21.9918 32.3429 22.9298 30.4669 22.9298 28.0449ZM19.0098 30.3829C17.7778 30.3829 17.0778 29.6269 17.0778 27.6809C17.0778 25.2729 17.8058 23.0749 19.0098 23.0749C20.1298 23.0749 20.9278 25.1889 20.9278 27.7089C20.9278 29.6269 20.2418 30.3829 19.0098 30.3829ZM26.7251 21.4649C26.5151 21.4649 25.7031 21.6049 25.1571 21.9409C24.9331 22.0809 24.8631 22.1649 24.8211 22.6549C24.7651 23.2849 24.7371 23.5369 24.4431 23.5369C24.3451 23.5369 24.1771 23.5229 24.0091 23.5229C23.8411 23.5229 23.7291 23.6069 23.6731 23.8589C23.6311 24.0969 23.5891 24.5029 23.5891 24.8389V25.0909C23.6171 25.2589 23.6731 25.3149 23.7991 25.3149C23.9111 25.3149 24.1351 25.3009 24.2611 25.3009C24.4571 25.3009 24.5271 25.3989 24.5131 25.6509C24.4711 26.1409 24.4291 27.0369 24.4291 28.0169C24.4291 29.5149 24.5551 31.2089 24.8491 32.1469C24.8911 32.3009 25.0171 32.3429 25.2131 32.3429C25.6751 32.3429 26.3331 32.2029 26.7391 31.9509C26.8371 31.8949 26.8931 31.8249 26.8931 31.7269C26.8931 31.6709 26.8651 31.5869 26.8371 31.5029C26.5571 30.1449 26.3051 28.3249 26.3051 26.8409C26.3051 26.3649 26.3191 25.9449 26.3471 25.6229C26.3751 25.3849 26.4311 25.2169 26.6551 25.2169C26.9631 25.2169 27.2991 25.2869 27.5371 25.2869C27.6351 25.2869 27.7191 25.2449 27.7471 25.1189C27.8031 24.8809 27.8311 24.6149 27.8311 24.3629C27.8311 24.1389 27.8171 23.9149 27.7891 23.7609C27.7471 23.5929 27.6771 23.5089 27.5511 23.5089C27.2851 23.5089 26.8651 23.5649 26.6971 23.5649C26.5011 23.5649 26.4451 23.5089 26.4451 23.3689C26.4451 22.7809 26.8791 21.8989 26.8931 21.6889C26.9211 21.5769 26.8651 21.4649 26.7251 21.4649ZM30.2285 20.6809C29.9765 20.6809 29.7245 20.6809 29.4865 20.7089C29.2905 20.7509 29.1645 20.8489 29.1085 21.1569C28.7025 23.1029 28.5485 25.7489 28.5485 28.0589C28.5485 29.5149 28.6045 30.8169 28.6885 31.7129C28.7165 32.0489 28.8565 32.1049 29.0245 32.1189C29.2345 32.1469 29.4725 32.1469 29.7105 32.1469C29.9345 32.1469 30.1445 32.1469 30.3265 32.1189C30.5085 32.1049 30.6485 32.0349 30.6485 31.7689C30.6485 31.3629 30.4805 29.3749 30.4805 27.4989C30.4805 25.7209 31.1665 25.0909 31.9925 25.0909C32.7345 25.0909 33.0005 25.5249 33.0005 27.3449C33.0005 29.1369 32.6365 31.4749 32.6365 31.8249C32.6365 32.0349 32.7625 32.1189 32.9725 32.1329C33.1685 32.1469 33.4205 32.1469 33.6725 32.1469C33.8965 32.1469 34.0925 32.1469 34.2045 32.1329C34.4145 32.1189 34.5685 31.9929 34.6105 31.7129C34.7225 30.9849 34.9325 28.7589 34.9325 26.7709C34.9325 24.1809 34.1345 23.3549 32.7905 23.3549C31.7125 23.3549 31.1385 23.9149 30.8025 23.9149C30.6345 23.9149 30.5645 23.8029 30.5645 23.5789C30.5645 22.7109 31.0965 21.3249 31.0965 20.9749C31.0965 20.8209 30.9985 20.7229 30.8725 20.7089C30.6485 20.6809 30.4525 20.6809 30.2285 20.6809ZM41.8477 29.9069C41.8477 29.3189 41.6937 29.0109 41.5257 29.0109C41.4697 29.0109 41.4137 29.0389 41.3717 29.1089C40.8677 30.0609 40.1257 30.5509 39.0897 30.5509C38.2077 30.5509 37.8017 30.0329 37.8017 29.4029C37.8017 29.1649 37.9277 28.9969 38.2357 28.8429C39.4537 28.0729 41.8337 27.9749 41.8337 25.5529C41.8337 24.0689 40.7837 23.3689 39.4957 23.3689C37.4657 23.3689 35.8277 24.7969 35.8277 28.0309C35.8277 30.5089 36.6677 32.3009 39.0057 32.3009C40.5317 32.3009 41.8477 31.3769 41.8477 29.9069ZM40.1537 25.6929C40.1537 26.6309 38.7117 27.1069 37.9557 27.5829C37.8717 27.6249 37.8157 27.6529 37.7317 27.6529C37.6057 27.6529 37.5497 27.5129 37.5497 27.3589C37.5497 26.0009 38.2077 24.8809 39.3277 24.8809C39.8597 24.8809 40.1537 25.2029 40.1537 25.6929ZM45.297 31.7829C45.297 31.5029 44.737 29.4309 44.737 27.2609C44.737 25.7769 45.045 25.4689 45.381 25.4689C45.689 25.4689 46.025 25.5529 46.235 25.5529C46.347 25.5529 46.445 25.5109 46.501 25.2589C46.557 25.0629 46.585 24.7269 46.585 24.3349C46.585 23.6209 46.459 23.4249 46.221 23.4249C45.899 23.4249 45.563 23.6069 45.157 23.9289C45.087 23.9989 45.003 24.0409 44.947 24.0409C44.863 24.0409 44.793 23.9849 44.793 23.8029C44.793 23.6349 44.751 23.5369 44.597 23.5089C44.485 23.4949 44.331 23.4809 44.163 23.4809C43.869 23.4809 43.561 23.5089 43.435 23.5509C43.323 23.5789 43.225 23.6909 43.169 23.9009C43.057 24.3629 42.931 25.4129 42.931 27.8349C42.931 29.5429 43.043 31.0269 43.211 31.7409C43.253 31.9789 43.379 32.0909 43.575 32.1189C43.813 32.1329 44.079 32.1329 44.317 32.1329C44.569 32.1329 44.821 32.1329 44.989 32.1049C45.213 32.0769 45.297 31.9649 45.297 31.7829ZM46.5321 30.6489C46.5321 30.7329 46.5881 30.8309 46.6861 30.9569C46.9381 31.2649 47.0221 31.6429 47.0221 32.0069C47.0221 32.4409 46.8821 32.6929 46.8821 32.8889C46.8821 33.0289 46.9801 33.1129 47.0921 33.1129C47.6661 33.1129 48.7721 32.3289 48.7721 30.9569C48.7721 30.1309 48.2401 29.5989 47.7781 29.5989C47.6661 29.5989 47.5541 29.6549 47.4141 29.7389C47.1481 29.9209 46.8681 30.1449 46.6721 30.3549C46.5601 30.4809 46.5321 30.5509 46.5321 30.6489ZM2.67539 47.1609C2.95539 47.1609 3.23539 47.1469 3.40339 47.1329C3.59939 47.1189 3.71139 47.0489 3.71139 46.8669C3.71139 46.6149 3.13739 43.4369 3.26339 39.8949C3.27739 39.7269 3.34739 39.6149 3.44539 39.6149C3.51539 39.6149 3.58539 39.6709 3.65539 39.7829C4.69139 41.6029 5.86739 44.0529 6.93139 46.7549C7.02939 47.0349 7.11339 47.0909 7.37939 47.1329C7.51939 47.1469 7.72939 47.1609 7.93939 47.1609C8.21939 47.1609 8.54139 47.1469 8.72339 47.1329C9.00339 47.1049 9.12939 47.0069 9.17139 46.7269C9.31139 45.5789 9.38139 43.9269 9.38139 42.2329C9.38139 40.1889 9.26939 38.0749 9.05939 36.7449C9.01739 36.5209 8.89139 36.4369 8.69539 36.4229C8.49939 36.4089 8.24739 36.3949 7.98139 36.3949C7.70139 36.3949 7.43539 36.4089 7.23939 36.4229C7.08539 36.4369 7.00139 36.5349 7.00139 36.6889C7.00139 37.2069 7.65939 39.8389 7.65939 43.7169C7.65939 43.8429 7.60339 43.9269 7.51939 43.9269C7.44939 43.9269 7.39339 43.8989 7.36539 43.8149C6.03539 40.3989 4.50939 37.7389 3.72539 36.6749C3.61339 36.5209 3.50139 36.4369 3.36139 36.4369C3.20739 36.4229 2.98339 36.4089 2.74539 36.4089C2.54939 36.4089 2.31139 36.4089 2.11539 36.4369C1.91939 36.4509 1.79339 36.5909 1.72339 36.7729C1.48539 37.4729 1.28939 39.6709 1.28939 42.1069C1.28939 43.7029 1.37339 45.4109 1.58339 46.8389C1.61139 47.0349 1.73739 47.1189 1.94739 47.1329C2.14339 47.1469 2.40939 47.1609 2.67539 47.1609ZM13.7557 45.5369C12.7617 45.5369 12.3697 44.6269 12.3697 42.8209C12.3697 40.9449 12.8597 39.9369 13.7837 39.9369C14.6517 39.9369 15.1837 40.9309 15.1837 42.8209C15.1837 44.6129 14.7917 45.5369 13.7557 45.5369ZM13.6717 47.3009C15.6317 47.3009 17.0177 46.0269 17.0177 42.9609C17.0177 40.1329 16.0797 38.3549 13.8537 38.3549C11.6557 38.3549 10.5217 40.2029 10.5217 42.9609C10.5217 46.0269 11.7537 47.3009 13.6717 47.3009ZM25.4648 44.8229C25.4088 44.8229 25.3388 44.8509 25.1708 44.9349C24.6108 45.1869 23.8968 45.4109 23.2668 45.4109C22.7488 45.4109 22.5948 45.2429 22.5948 44.4169C22.5948 41.1129 23.5328 36.9969 23.5328 36.6749C23.5328 36.5629 23.4768 36.4509 23.2668 36.4369C23.0708 36.4229 22.7068 36.4089 22.3708 36.4089C22.0208 36.4089 21.7128 36.4229 21.5308 36.4369C21.3768 36.4509 21.2788 36.5489 21.2508 36.7309C20.8028 39.2089 20.6208 42.2749 20.6208 44.8509C20.6208 45.5229 20.6488 46.1529 20.6768 46.7269C20.6908 47.0629 20.8588 47.1189 21.1668 47.1329C21.8108 47.1609 22.7488 47.1749 23.7148 47.1749C24.3448 47.1749 24.9888 47.1609 25.5208 47.1329C25.8148 47.1189 25.9688 46.9509 25.9688 46.7129C25.9688 46.3489 25.8008 45.2849 25.6608 44.9769C25.6188 44.8789 25.5488 44.8229 25.4648 44.8229ZM28.9558 46.8949C28.9558 46.4889 28.6618 44.8929 28.6618 42.5689C28.6618 40.4409 28.7878 39.0549 28.7878 38.7749C28.7878 38.5929 28.6898 38.5229 28.5078 38.5089C28.3118 38.4949 28.1298 38.4809 27.9478 38.4809C27.7518 38.4809 27.5698 38.4949 27.3598 38.5089C27.1778 38.5229 27.0658 38.5649 27.0238 38.8309C26.8138 40.1889 26.7158 41.9109 26.7158 43.5629C26.7158 44.7389 26.7718 45.8729 26.8558 46.8109C26.8978 47.0629 27.0378 47.1189 27.1918 47.1329C27.4158 47.1469 27.6678 47.1609 27.9338 47.1609C28.1998 47.1609 28.4798 47.1469 28.7038 47.1329C28.8438 47.1189 28.9558 47.0629 28.9558 46.8949ZM27.9758 37.7109C28.7878 37.7109 29.1238 37.3329 29.1238 36.7589C29.1238 36.1709 28.7878 35.7789 27.9758 35.7789C27.2058 35.7789 26.8278 36.1709 26.8278 36.7589C26.8278 37.3329 27.2058 37.7109 27.9758 37.7109ZM32.2588 46.7829C32.2588 46.5589 32.0768 44.9909 32.0768 42.7509C32.0768 41.0009 32.5388 40.1469 33.4768 40.1469C34.2328 40.1469 34.3448 40.9029 34.3448 42.6109C34.3448 44.2629 34.1488 46.5449 34.1488 46.7549C34.1488 46.9509 34.1908 47.0769 34.4568 47.0909C34.6388 47.1189 34.8208 47.1189 35.0308 47.1189C35.2548 47.1189 35.4648 47.1049 35.6468 47.0909C35.8428 47.0629 35.9408 46.9369 35.9828 46.6429C36.1228 45.7889 36.1788 44.7389 36.1928 43.6189C36.1928 42.8769 36.1648 42.1909 36.1648 41.5469C36.1648 40.5529 36.7808 40.0769 37.3968 40.0769C38.1808 40.0769 38.4048 40.7769 38.4048 42.4989C38.4048 44.9349 38.1388 46.3349 38.1388 46.7409C38.1388 46.9649 38.2228 47.1049 38.5168 47.1329C38.7128 47.1469 38.9228 47.1469 39.1188 47.1469C39.3008 47.1469 39.4828 47.1469 39.6228 47.1329C39.8048 47.1189 40.0008 47.0349 40.0848 46.7549C40.1968 46.2929 40.3648 44.9349 40.3648 42.6809C40.3648 39.8809 39.7628 38.3689 38.0968 38.3689C37.0328 38.3689 36.3888 39.1249 35.9968 39.1249C35.6188 39.1249 35.3388 38.3689 34.4148 38.3689C33.3788 38.3689 32.7768 39.2509 32.4128 39.2509C32.3148 39.2509 32.2588 39.2089 32.2588 39.1109C32.2588 38.9849 32.3148 38.8449 32.3148 38.7469C32.3148 38.6069 32.2448 38.5369 32.0628 38.5089C31.9368 38.4949 31.7408 38.4809 31.5308 38.4809C31.3068 38.4809 31.1108 38.4949 30.9288 38.5229C30.6488 38.5649 30.4668 38.6629 30.4248 39.0549C30.3128 40.3709 30.2708 41.5469 30.2708 42.6109C30.2708 44.1789 30.3548 45.4949 30.4528 46.6429C30.4808 47.0349 30.5928 47.1189 30.8028 47.1329C31.0408 47.1469 31.2648 47.1469 31.4608 47.1469C31.6568 47.1469 31.8668 47.1469 31.9928 47.1189C32.1608 47.1049 32.2588 47.0069 32.2588 46.7829ZM43.9128 46.8949C43.9128 46.4889 43.6188 44.8929 43.6188 42.5689C43.6188 40.4409 43.7448 39.0549 43.7448 38.7749C43.7448 38.5929 43.6468 38.5229 43.4648 38.5089C43.2688 38.4949 43.0868 38.4809 42.9048 38.4809C42.7088 38.4809 42.5268 38.4949 42.3168 38.5089C42.1348 38.5229 42.0228 38.5649 41.9808 38.8309C41.7708 40.1889 41.6728 41.9109 41.6728 43.5629C41.6728 44.7389 41.7288 45.8729 41.8128 46.8109C41.8548 47.0629 41.9948 47.1189 42.1488 47.1329C42.3728 47.1469 42.6248 47.1609 42.8908 47.1609C43.1568 47.1609 43.4368 47.1469 43.6608 47.1329C43.8008 47.1189 43.9128 47.0629 43.9128 46.8949ZM42.9328 37.7109C43.7448 37.7109 44.0808 37.3329 44.0808 36.7589C44.0808 36.1709 43.7448 35.7789 42.9328 35.7789C42.1628 35.7789 41.7848 36.1709 41.7848 36.7589C41.7848 37.3329 42.1628 37.7109 42.9328 37.7109ZM47.9438 36.4649C47.7338 36.4649 46.9218 36.6049 46.3758 36.9409C46.1518 37.0809 46.0818 37.1649 46.0398 37.6549C45.9838 38.2849 45.9558 38.5369 45.6618 38.5369C45.5638 38.5369 45.3958 38.5229 45.2278 38.5229C45.0598 38.5229 44.9478 38.6069 44.8918 38.8589C44.8498 39.0969 44.8078 39.5029 44.8078 39.8389V40.0909C44.8358 40.2589 44.8918 40.3149 45.0178 40.3149C45.1298 40.3149 45.3538 40.3009 45.4798 40.3009C45.6758 40.3009 45.7458 40.3989 45.7318 40.6509C45.6898 41.1409 45.6478 42.0369 45.6478 43.0169C45.6478 44.5149 45.7738 46.2089 46.0678 47.1469C46.1098 47.3009 46.2358 47.3429 46.4318 47.3429C46.8938 47.3429 47.5518 47.2029 47.9578 46.9509C48.0558 46.8949 48.1118 46.8249 48.1118 46.7269C48.1118 46.6709 48.0838 46.5869 48.0558 46.5029C47.7758 45.1449 47.5238 43.3249 47.5238 41.8409C47.5238 41.3649 47.5378 40.9449 47.5658 40.6229C47.5938 40.3849 47.6498 40.2169 47.8738 40.2169C48.1818 40.2169 48.5178 40.2869 48.7558 40.2869C48.8538 40.2869 48.9378 40.2449 48.9658 40.1189C49.0218 39.8809 49.0498 39.6149 49.0498 39.3629C49.0498 39.1389 49.0358 38.9149 49.0078 38.7609C48.9658 38.5929 48.8958 38.5089 48.7698 38.5089C48.5038 38.5089 48.0838 38.5649 47.9158 38.5649C47.7198 38.5649 47.6638 38.5089 47.6638 38.3689C47.6638 37.7809 48.0978 36.8989 48.1118 36.6889C48.1398 36.5769 48.0838 36.4649 47.9438 36.4649Z" fill="#029C54"/>
<path d="M47.3271 11.8249C47.3271 11.5689 47.4391 11.4729 47.6151 11.4729C48.0311 11.4729 48.2231 11.5369 48.5591 11.5369C48.7991 11.5369 48.8631 11.4089 48.8791 11.2169C48.8951 10.9769 48.9111 10.7369 48.9111 10.5129C48.9111 10.1769 48.8951 9.88893 48.8791 9.66493C48.8471 9.42493 48.7031 9.34493 48.4791 9.34493C48.2391 9.34493 47.8711 9.39293 47.6311 9.37693C47.4391 9.37693 47.3271 9.29693 47.3271 8.92893C47.3271 6.70493 47.4871 4.35293 47.4871 4.20893C47.4871 3.98493 47.4071 3.90493 47.2791 3.90493C46.9271 3.90493 46.2551 4.52893 45.9671 4.88093C45.7431 5.18493 45.6631 5.34493 45.5831 5.92093C45.4871 6.59293 45.4711 7.56893 45.3751 9.04093C45.3751 9.24893 45.3271 9.42493 45.2311 9.52093C45.0711 9.68093 44.9431 9.71293 42.8951 9.71293C42.7351 9.71293 42.6711 9.66493 42.6711 9.53693C42.6711 8.32093 43.5351 4.89693 45.2951 2.22493C45.3591 2.14493 45.3911 2.06493 45.3911 1.98493C45.3911 1.85693 45.2791 1.74493 45.0711 1.71293C44.8791 1.68093 44.5591 1.66493 44.1911 1.66493C43.8871 1.66493 43.5671 1.68093 43.2791 1.71293C43.0391 1.74493 42.8471 1.85693 42.6871 2.16093C41.8231 3.90493 40.5271 8.04893 40.5271 10.9769C40.5271 11.3609 40.7031 11.6649 41.1671 11.6649C41.9991 11.6649 43.8711 11.5849 44.7191 11.5849C44.9911 11.5849 45.1511 11.6809 45.1511 11.9849C45.1511 12.5929 45.0871 13.2329 45.0871 13.6969C45.0871 14.0329 45.1831 14.0809 45.4871 14.1289C45.6951 14.1449 46.1111 14.1609 46.5111 14.1609C46.7191 14.1609 46.9111 14.1449 47.0711 14.1449C47.2951 14.1289 47.4071 13.9689 47.4071 13.7769C47.4071 12.9289 47.3271 12.3369 47.3271 11.8249Z" fill="#85267A"/>
<path d="M44.5349 67.4249C47.0789 67.4249 48.4549 65.8089 48.4549 63.8569C48.4549 61.8729 46.9669 60.9129 45.8309 60.4009C45.7349 60.3529 45.7029 60.2889 45.7029 60.2249C45.7029 60.1449 45.7509 60.0329 45.8309 59.9529C46.5029 59.0889 48.4549 56.4489 48.4549 55.3449C48.4549 55.1849 48.3909 55.0729 48.1509 55.0409C47.2229 54.9609 46.0229 54.9289 44.8389 54.9289C43.5109 54.9289 42.1669 54.9609 41.2229 55.0409C41.0469 55.0409 40.8709 55.1369 40.8709 55.3289C40.8709 55.8249 40.9829 56.6249 41.1909 57.2489C41.2229 57.3609 41.2869 57.4089 41.3989 57.4089C41.4629 57.4089 41.5109 57.3929 41.5909 57.3449C42.6149 57.0089 44.4229 56.8329 45.3669 56.8329C45.5109 56.8329 45.5909 56.8969 45.5909 57.0089C45.5909 57.0729 45.5589 57.1369 45.5109 57.2009C45.0789 57.8409 43.3349 59.8089 42.8389 60.4009C42.7909 60.4649 42.7589 60.5129 42.7589 60.5929C42.7589 60.6889 42.8229 60.7849 42.9669 60.8329C44.9349 61.5209 46.1829 62.4329 46.1829 63.6489C46.1829 64.6409 45.5909 65.2809 44.5509 65.2809C43.3349 65.2809 42.4709 64.4809 41.8949 63.7449C41.8469 63.6969 41.7829 63.6649 41.7189 63.6649C41.6549 63.6649 41.5749 63.6969 41.4949 63.7929C41.2869 64.0329 40.8389 64.6889 40.6309 65.1529C40.5829 65.2489 40.5509 65.3289 40.5509 65.4249C40.5509 65.5049 40.5669 65.5849 40.6149 65.6649C41.0949 66.3369 42.3429 67.4249 44.5349 67.4249Z" fill="#4F247D"/>
<path d="M117.252 10.3209C117.252 8.92893 118.42 7.74493 120.068 7.74493C121.3 7.74493 122.084 8.64093 122.084 10.2409C122.084 11.9369 121.204 13.0249 119.732 13.0249C118.148 13.0249 117.252 11.7289 117.252 10.3209ZM115.652 8.36893C115.652 12.0009 116.916 14.3209 119.78 14.3209C122.036 14.3209 123.476 12.9289 123.476 10.2409C123.476 7.85693 122.276 6.57693 120.308 6.57693C119.38 6.57693 118.34 7.02493 117.348 7.93693C117.284 7.98493 117.236 8.00093 117.188 8.00093C117.06 8.00093 116.98 7.87293 116.98 7.74493C116.98 5.34493 118.068 2.88093 120.548 2.88093C121.764 2.88093 122.1 3.42493 122.372 3.42493C122.468 3.42493 122.564 3.37693 122.596 3.28093C122.74 2.94493 122.82 2.60893 122.82 2.40093C122.82 2.24093 122.772 2.11293 122.564 2.01693C122.212 1.85693 121.572 1.68093 120.772 1.68093C117.604 1.68093 115.652 3.68093 115.652 8.36893ZM127.836 14.3209C128.604 14.3209 128.972 13.9209 128.972 13.2489C128.972 13.0409 128.908 12.9929 128.732 12.9929C127.564 12.9929 127.196 12.7209 127.196 11.8249C127.196 10.2089 128.588 7.39293 130.524 4.22493C130.732 3.85693 130.876 3.58493 130.876 3.02493C130.876 2.84893 130.876 2.59293 130.844 2.33693C130.812 2.00093 130.732 1.92093 130.38 1.90493C129.596 1.87293 128.556 1.84093 127.42 1.84093C126.46 1.84093 125.436 1.85693 124.428 1.92093C124.14 1.93693 124.044 2.04893 124.012 2.30493C123.996 2.43293 123.996 2.54493 123.996 2.70493C123.996 2.78493 123.996 3.08893 124.028 3.32893C124.06 3.53693 124.172 3.58493 124.284 3.58493C124.412 3.58493 124.764 3.47293 125.084 3.40893C125.948 3.23293 127.34 3.07293 129.164 3.07293C129.324 3.07293 129.404 3.13693 129.404 3.31293C129.404 4.35293 125.676 8.70493 125.676 11.9209C125.676 13.5369 126.38 14.3209 127.836 14.3209ZM134.182 7.72893C133.238 7.72893 132.87 6.84893 132.87 5.26493C132.87 3.76093 133.366 2.89693 134.198 2.89693C134.998 2.89693 135.462 3.76093 135.462 5.26493C135.462 6.84893 135.11 7.72893 134.182 7.72893ZM134.118 8.92893C135.734 8.92893 136.774 7.87293 136.774 5.44093C136.774 3.12093 136.038 1.69693 134.214 1.69693C132.47 1.69693 131.606 3.20093 131.606 5.44093C131.606 7.87293 132.486 8.92893 134.118 8.92893ZM139.782 13.0409C138.838 13.0409 138.47 12.1609 138.47 10.5769C138.47 9.07293 138.982 8.20893 139.83 8.20893C140.614 8.20893 141.062 9.07293 141.062 10.5769C141.062 12.1609 140.71 13.0409 139.782 13.0409ZM139.718 14.2409C141.334 14.2409 142.374 13.1849 142.374 10.7529C142.374 8.43293 141.638 7.00893 139.814 7.00893C138.07 7.00893 137.206 8.51293 137.206 10.7529C137.206 13.1849 138.086 14.2409 139.718 14.2409ZM133.974 13.6809C135.014 12.1449 136.646 9.32893 136.646 9.00893C136.646 8.86493 136.534 8.78493 136.406 8.78493C136.326 8.78493 136.262 8.81693 136.198 8.86493C135.286 9.92093 133.302 12.1769 132.374 13.2329C132.31 13.3129 132.278 13.3769 132.278 13.4569C132.278 13.5689 132.374 13.6809 132.566 13.7769C132.71 13.8569 133.222 14.0489 133.398 14.0489C133.702 14.0489 133.83 13.8889 133.974 13.6809ZM140.15 2.19293C138.038 5.61693 137.398 6.68893 137.398 7.00893C137.398 7.13693 137.494 7.21693 137.606 7.21693C137.686 7.21693 137.766 7.18493 137.814 7.13693C138.838 6.11293 140.79 3.72893 141.75 2.64093C141.814 2.56093 141.846 2.49693 141.846 2.41693C141.846 2.30493 141.75 2.19293 141.558 2.09693C141.414 2.01693 140.902 1.82493 140.726 1.82493C140.422 1.82493 140.278 1.98493 140.15 2.19293Z" fill="black"/>
<path d="M94.1777 39.1649C94.3857 39.1649 94.5297 39.1649 94.7057 39.1329C95.0417 39.0689 95.0897 38.9569 95.0897 38.6849C95.0577 37.2769 94.9297 35.0529 94.9297 32.8929C94.9297 30.3809 95.1537 27.6769 95.1537 27.1009C95.1537 26.8289 94.9937 26.7169 94.8177 26.7169C94.2737 26.7169 93.3137 27.1169 92.8017 27.5009C92.6897 27.5969 92.6417 27.6929 92.6417 27.7889C92.6417 27.9169 92.7377 28.0289 92.9297 28.1249C93.5377 28.3649 93.6017 28.6689 93.6017 29.9009C93.6017 33.0049 93.4257 36.2209 93.4257 38.7809C93.4257 39.0369 93.5537 39.1169 93.7617 39.1489C93.8737 39.1649 94.0177 39.1649 94.1777 39.1649ZM105.538 36.0289C105.538 33.9489 104.146 33.1169 103.506 32.8289C103.41 32.7969 103.362 32.7169 103.362 32.6369C103.362 32.5569 103.41 32.4769 103.506 32.4129C104.05 31.9329 104.978 31.3889 104.978 29.6769C104.978 27.7409 103.538 26.7489 101.602 26.7489C99.5862 26.7489 97.9542 27.8049 97.9542 29.8529C97.9542 31.2769 98.8662 32.0769 99.3302 32.4769C99.4102 32.5249 99.4422 32.6209 99.4422 32.7009C99.4422 32.7809 99.4102 32.8769 99.3302 32.9249C98.7382 33.4049 97.5062 34.2209 97.5062 36.0609C97.5062 37.9489 98.9142 39.2929 101.522 39.2929C104.258 39.2929 105.538 37.9329 105.538 36.0289ZM98.9302 35.8849C98.9302 34.6849 99.9862 33.2929 101.506 33.2929C102.738 33.2929 104.066 34.3009 104.066 35.9649C104.066 37.1969 103.122 38.0289 101.538 38.0289C99.8262 38.0289 98.9302 37.1969 98.9302 35.8849ZM103.586 29.9169C103.586 31.0689 102.546 32.2049 101.458 32.2049C100.386 32.2049 99.3302 31.1489 99.3302 29.9649C99.3302 28.8769 100.146 27.9969 101.602 27.9969C102.802 27.9969 103.586 28.8289 103.586 29.9169ZM109.443 32.7809C108.499 32.7809 108.131 31.9009 108.131 30.3169C108.131 28.8129 108.627 27.9489 109.459 27.9489C110.259 27.9489 110.723 28.8129 110.723 30.3169C110.723 31.9009 110.371 32.7809 109.443 32.7809ZM109.379 33.9809C110.995 33.9809 112.035 32.9249 112.035 30.4929C112.035 28.1729 111.299 26.7489 109.475 26.7489C107.731 26.7489 106.867 28.2529 106.867 30.4929C106.867 32.9249 107.747 33.9809 109.379 33.9809ZM115.043 38.0929C114.099 38.0929 113.731 37.2129 113.731 35.6289C113.731 34.1249 114.243 33.2609 115.091 33.2609C115.875 33.2609 116.323 34.1249 116.323 35.6289C116.323 37.2129 115.971 38.0929 115.043 38.0929ZM114.979 39.2929C116.595 39.2929 117.635 38.2369 117.635 35.8049C117.635 33.4849 116.899 32.0609 115.075 32.0609C113.331 32.0609 112.467 33.5649 112.467 35.8049C112.467 38.2369 113.347 39.2929 114.979 39.2929ZM109.235 38.7329C110.275 37.1969 111.907 34.3809 111.907 34.0609C111.907 33.9169 111.795 33.8369 111.667 33.8369C111.587 33.8369 111.523 33.8689 111.459 33.9169C110.547 34.9729 108.563 37.2289 107.635 38.2849C107.571 38.3649 107.539 38.4289 107.539 38.5089C107.539 38.6209 107.635 38.7329 107.827 38.8289C107.971 38.9089 108.483 39.1009 108.659 39.1009C108.963 39.1009 109.091 38.9409 109.235 38.7329ZM115.411 27.2449C113.299 30.6689 112.659 31.7409 112.659 32.0609C112.659 32.1889 112.755 32.2689 112.867 32.2689C112.947 32.2689 113.027 32.2369 113.075 32.1889C114.099 31.1649 116.051 28.7809 117.011 27.6929C117.075 27.6129 117.107 27.5489 117.107 27.4689C117.107 27.3569 117.011 27.2449 116.819 27.1489C116.675 27.0689 116.163 26.8769 115.987 26.8769C115.683 26.8769 115.539 27.0369 115.411 27.2449Z" fill="black"/>
<path d="M80.9746 66.2169C81.1826 66.2169 81.3266 66.2169 81.5026 66.1849C81.8386 66.1209 81.8866 66.0089 81.8866 65.7369C81.8546 64.3289 81.7266 62.1049 81.7266 59.9449C81.7266 57.4329 81.9506 54.7289 81.9506 54.1529C81.9506 53.8809 81.7906 53.7689 81.6146 53.7689C81.0706 53.7689 80.1106 54.1689 79.5986 54.5529C79.4866 54.6489 79.4386 54.7449 79.4386 54.8409C79.4386 54.9689 79.5346 55.0809 79.7266 55.1769C80.3346 55.4169 80.3986 55.7209 80.3986 56.9529C80.3986 60.0569 80.2226 63.2729 80.2226 65.8329C80.2226 66.0889 80.3506 66.1689 80.5586 66.2009C80.6706 66.2169 80.8146 66.2169 80.9746 66.2169ZM85.0748 54.3449C84.7548 55.5129 84.3228 58.3129 84.3228 60.1529C84.3228 60.3609 84.4348 60.4889 84.7708 60.6489C84.9628 60.7289 85.1868 60.8089 85.3468 60.8089C86.0028 60.8089 87.0588 60.0249 88.3708 60.0249C89.6188 60.0249 90.2748 60.9369 90.2748 62.2969C90.2748 64.2809 89.1548 64.9849 87.9548 64.9849C86.7868 64.9849 86.0508 64.5369 85.5548 64.1689C85.2508 63.8969 85.0108 63.6569 84.8508 63.6569C84.6908 63.6569 84.6268 63.7529 84.5308 63.9129C84.3068 64.2969 84.1468 64.7129 84.1468 64.9529C84.1468 65.1449 84.2428 65.2569 84.4988 65.4169C85.0748 65.8009 86.2748 66.4249 87.9708 66.4249C90.3548 66.4249 91.7148 65.0169 91.7148 62.2169C91.7148 60.2009 90.6428 58.7609 88.6268 58.7609C86.9948 58.7609 86.3228 59.6089 85.8908 59.6089C85.7308 59.6089 85.6828 59.4809 85.6828 59.2889C85.6828 58.2809 85.9228 55.6889 86.3868 55.2889C86.4828 55.1769 86.6428 55.0969 87.0428 55.0969C88.3068 55.0969 89.8908 55.4009 90.5148 55.5609C90.5948 55.5929 90.6748 55.6089 90.7388 55.6089C90.8988 55.6089 90.9948 55.4969 91.0748 55.1929C91.1388 54.9369 91.1868 54.5369 91.1868 54.3609C91.1868 54.2329 91.0908 54.0409 90.7868 54.0249C89.8588 53.9769 88.7548 53.9609 87.7148 53.9609C86.8988 53.9609 86.1308 53.9769 85.4908 53.9929C85.2668 53.9929 85.1388 54.1209 85.0748 54.3449ZM95.4427 59.8329C94.4987 59.8329 94.1307 58.9529 94.1307 57.3689C94.1307 55.8649 94.6267 55.0009 95.4587 55.0009C96.2587 55.0009 96.7227 55.8649 96.7227 57.3689C96.7227 58.9529 96.3707 59.8329 95.4427 59.8329ZM95.3787 61.0329C96.9947 61.0329 98.0347 59.9769 98.0347 57.5449C98.0347 55.2249 97.2987 53.8009 95.4747 53.8009C93.7307 53.8009 92.8667 55.3049 92.8667 57.5449C92.8667 59.9769 93.7467 61.0329 95.3787 61.0329ZM101.043 65.1449C100.099 65.1449 99.7307 64.2649 99.7307 62.6809C99.7307 61.1769 100.243 60.3129 101.091 60.3129C101.875 60.3129 102.323 61.1769 102.323 62.6809C102.323 64.2649 101.971 65.1449 101.043 65.1449ZM100.979 66.3449C102.595 66.3449 103.635 65.2889 103.635 62.8569C103.635 60.5369 102.899 59.1129 101.075 59.1129C99.3307 59.1129 98.4667 60.6169 98.4667 62.8569C98.4667 65.2889 99.3467 66.3449 100.979 66.3449ZM95.2347 65.7849C96.2747 64.2489 97.9067 61.4329 97.9067 61.1129C97.9067 60.9689 97.7947 60.8889 97.6667 60.8889C97.5867 60.8889 97.5227 60.9209 97.4587 60.9689C96.5467 62.0249 94.5627 64.2809 93.6347 65.3369C93.5707 65.4169 93.5387 65.4809 93.5387 65.5609C93.5387 65.6729 93.6347 65.7849 93.8267 65.8809C93.9707 65.9609 94.4827 66.1529 94.6587 66.1529C94.9627 66.1529 95.0907 65.9929 95.2347 65.7849ZM101.411 54.2969C99.2987 57.7209 98.6587 58.7929 98.6587 59.1129C98.6587 59.2409 98.7547 59.3209 98.8667 59.3209C98.9467 59.3209 99.0267 59.2889 99.0747 59.2409C100.099 58.2169 102.051 55.8329 103.011 54.7449C103.075 54.6649 103.107 54.6009 103.107 54.5209C103.107 54.4089 103.011 54.2969 102.819 54.2009C102.675 54.1209 102.163 53.9289 101.987 53.9289C101.683 53.9289 101.539 54.0889 101.411 54.2969Z" fill="black"/>
<line x1="53.625" y1="1.67664" x2="53.625" y2="70.1849" stroke="#A2A2A2"/>
<path d="M60.0038 10.0466C55.5644 -0.681885 69.9924 -0.681885 65.553 10.0466C61.1137 20.7752 75.5417 20.7752 71.1023 10.0466C66.6629 -0.681885 81.0909 -0.681885 76.6515 10.0466C72.2121 20.7752 86.6401 20.7752 82.2007 10.0466C77.7614 -0.681885 92.1894 -0.681885 87.75 10.0466C83.3106 20.7752 97.7386 20.7752 93.2992 10.0466C88.8598 -0.681885 103.288 -0.681885 98.8484 10.0466C94.4091 20.7752 108.837 20.7752 104.398 10.0466" stroke="#85267A" stroke-width="3.5"/>
<path d="M59.5726 60.4411C58.0613 71.953 71.9976 68.2188 64.9328 59.0048C57.8679 49.7909 71.8043 46.0566 70.2929 57.5686" stroke="#4F247D" stroke-width="3.5"/>
<path d="M83.4462 33.8335C88.0731 23.1209 73.0357 23.1209 77.6626 33.8335C82.2895 44.546 67.2521 44.546 71.879 33.8335C76.5059 23.1209 61.4685 23.1209 66.0954 33.8335C70.7223 44.546 55.6848 44.546 60.3117 33.8335" stroke="#029C54" stroke-width="3.5"/>
</svg>
