<svg width="110" height="52" viewBox="0 0 110 52" fill="none" xmlns="http://www.w3.org/2000/svg">
<rect x="0.151367" y="0.32959" width="48.0601" height="51.1483" fill="#FE2B4C"/>
<rect x="49.3096" y="0.32959" width="44.5147" height="51.1483" fill="#029C54"/>
<rect x="94.9219" y="0.32959" width="5.5151" height="51.1483" fill="#04AADC"/>
<rect x="101.8" y="0.32959" width="2.36361" height="51.1483" fill="#FFAA5B"/>
<path d="M14.7896 31.0778C15.8046 31.0778 16.9066 31.0778 17.7186 30.9618C18.4146 30.8458 18.5306 30.6428 18.5306 30.1208C18.4726 27.1918 18.0956 22.4938 18.0956 17.9408C18.0956 14.2578 18.5016 10.2558 18.5016 9.41481C18.5016 8.71881 17.8636 8.42881 17.1966 8.42881C14.6736 8.42881 12.1506 9.73381 11.1936 10.6908C10.9906 10.8938 10.9036 11.0968 10.9036 11.2998C10.9036 11.5318 11.0486 11.7638 11.3386 11.9378C12.4986 12.6628 13.0206 13.3008 13.0206 15.6498C13.0206 20.3188 12.7016 26.5248 12.7016 30.3238C12.7016 30.7878 12.9336 30.9038 13.3106 30.9908C13.7166 31.0778 14.2386 31.0778 14.7896 31.0778ZM29.4684 25.9448C27.5254 25.9448 26.7714 23.9438 26.7714 19.5938C26.7714 15.0988 27.7574 13.0108 29.5554 13.0108C31.2954 13.0108 32.2234 15.0698 32.2234 19.5358C32.2234 23.8568 31.5564 25.9448 29.4684 25.9448ZM29.2944 31.3388C33.9924 31.3388 37.5594 28.0328 37.5594 20.0578C37.5594 12.8658 35.2394 8.37081 29.7584 8.37081C24.2484 8.37081 21.4644 13.0688 21.4644 20.0578C21.4644 28.0038 24.6544 31.3388 29.2944 31.3388Z" fill="black" fill-opacity="0.74"/>
<g style="mix-blend-mode:color-burn">
<path d="M66.9691 20.0148C66.6271 21.4018 66.1901 24.6698 66.1901 26.9498C66.1901 27.2348 66.3611 27.4058 66.8171 27.6148C67.1401 27.7668 67.5201 27.8618 67.7861 27.8618C68.5651 27.8618 69.8001 27.3868 70.8451 27.3868C72.0801 27.3868 72.5741 28.0328 72.5741 29.0018C72.5741 30.3128 71.7761 30.8448 70.6361 30.8448C69.3441 30.8448 68.2421 30.3318 67.6531 29.9138C67.4251 29.7238 67.2351 29.5718 67.0831 29.5718C66.9311 29.5718 66.8171 29.6668 66.7221 29.8188C66.3611 30.4648 65.9051 31.7568 65.9051 32.2508C65.9051 32.5738 66.0381 32.7638 66.3991 33.0108C67.2161 33.5998 68.5841 34.1888 70.6931 34.1888C73.9611 34.1888 75.7471 32.6118 75.7471 29.1538C75.7471 26.7598 74.7211 24.7648 72.0421 24.7648C70.5981 24.7648 69.9331 25.2968 69.5341 25.2968C69.2871 25.2968 69.2301 25.1068 69.2301 24.7648C69.2301 24.1188 69.3821 22.7318 69.7051 22.4278C69.8571 22.2758 70.1041 22.1808 70.5601 22.1808C71.8901 22.1808 73.4671 22.5798 74.2081 22.8078C74.3601 22.8458 74.4741 22.8838 74.5501 22.8838C74.7401 22.8838 74.8541 22.7508 74.9491 22.3898C75.1201 21.6488 75.2151 20.4138 75.2151 19.9008C75.2151 19.6538 75.1011 19.4638 74.7591 19.4448C73.5621 19.3878 72.1371 19.3688 70.7881 19.3688C69.6101 19.3688 68.4701 19.3878 67.5581 19.4448C67.2351 19.4448 67.0451 19.6538 66.9691 20.0148Z" fill="black" fill-opacity="0.81"/>
</g>
<path d="M18.1564 43.0798C18.1564 42.8878 18.2284 42.8158 18.3484 42.8158C18.7204 42.8158 18.8884 42.8878 19.1764 42.8878C19.3564 42.8878 19.4044 42.8038 19.4164 42.6478C19.4284 42.5278 19.4404 42.4198 19.4404 42.3118C19.4404 42.2038 19.4284 42.0958 19.4164 41.9878C19.3924 41.8078 19.2844 41.7718 19.1284 41.7718C18.9364 41.7718 18.5884 41.8198 18.3604 41.8198C18.2284 41.8198 18.1564 41.7478 18.1564 41.4478C18.1564 39.5878 18.2884 37.4158 18.2884 37.3318C18.2884 37.1518 18.2164 37.0918 18.1324 37.0918C17.9404 37.0918 17.6404 37.5118 17.4844 37.7758C17.3044 38.0758 17.2444 38.2078 17.1844 38.7598C17.1364 39.3718 17.1124 40.2118 17.0764 41.4358C17.0764 41.5798 17.0524 41.7238 16.9804 41.7958C16.8604 41.9158 16.8004 41.9398 14.6524 41.9398C14.5564 41.9398 14.5084 41.9038 14.5084 41.8078C14.5084 40.8238 14.9644 37.9558 16.1644 35.9038C16.2004 35.8438 16.2244 35.7958 16.2244 35.7478C16.2244 35.6518 16.1524 35.5798 15.9964 35.5678C15.8884 35.5558 15.7564 35.5438 15.6004 35.5438C15.5044 35.5438 15.4084 35.5558 15.3004 35.5678C15.1084 35.5918 15.0244 35.6638 14.9164 35.8798C14.3044 37.1638 13.3684 40.2358 13.3684 42.4078C13.3684 42.7078 13.5124 42.9358 13.8604 42.9358C14.5444 42.9358 16.0684 42.8758 16.7644 42.8758C16.9804 42.8758 17.1004 42.9478 17.1004 43.1878C17.1004 43.7158 17.0524 44.2798 17.0524 44.6758C17.0524 44.9038 17.1124 44.9278 17.3164 44.9638C17.4124 44.9758 17.5564 44.9878 17.7124 44.9878C17.8204 44.9878 17.9164 44.9758 18.0004 44.9758C18.1444 44.9638 18.2164 44.8438 18.2164 44.6998C18.2044 44.0038 18.1564 43.4998 18.1564 43.0798ZM24.8478 38.5558C24.8478 39.7558 23.9238 40.5478 22.7118 40.5478C21.7398 40.5478 21.2598 39.7798 21.2598 38.6278C21.2598 37.4038 21.8598 36.5638 22.9758 36.5638C24.0798 36.5638 24.8478 37.4158 24.8478 38.5558ZM26.0718 40.1758C26.0718 37.2958 25.0998 35.5558 23.0598 35.5558C21.3678 35.5558 20.1798 36.7078 20.1798 38.8198C20.1798 40.5958 21.2118 41.4358 22.4358 41.4358C23.3478 41.4358 24.0798 41.1118 24.7518 40.4398C24.7998 40.3798 24.8478 40.3678 24.8838 40.3678C24.9678 40.3678 25.0518 40.4398 25.0518 40.5958C25.0518 42.4798 24.2238 43.9918 22.5918 43.9918C21.9678 43.9918 21.5118 43.7398 21.1398 43.4998C21.0918 43.4638 21.0558 43.4518 21.0078 43.4518C20.9358 43.4518 20.8638 43.4998 20.8278 43.5958C20.7198 43.9198 20.6358 44.2558 20.6358 44.4718C20.6358 44.5558 20.6838 44.6278 20.8038 44.6878C21.0918 44.8198 21.6198 45.0238 22.5198 45.0238C24.6318 45.0238 26.0718 43.4398 26.0718 40.1758ZM29.0242 40.1398C28.3162 40.1398 28.0402 39.4798 28.0402 38.2918C28.0402 37.1638 28.4122 36.5158 29.0362 36.5158C29.6362 36.5158 29.9842 37.1638 29.9842 38.2918C29.9842 39.4798 29.7202 40.1398 29.0242 40.1398ZM28.9762 41.0398C30.1882 41.0398 30.9682 40.2478 30.9682 38.4238C30.9682 36.6838 30.4162 35.6158 29.0482 35.6158C27.7402 35.6158 27.0922 36.7438 27.0922 38.4238C27.0922 40.2478 27.7522 41.0398 28.9762 41.0398ZM33.2242 44.1238C32.5162 44.1238 32.2402 43.4638 32.2402 42.2758C32.2402 41.1478 32.6242 40.4998 33.2602 40.4998C33.8482 40.4998 34.1842 41.1478 34.1842 42.2758C34.1842 43.4638 33.9202 44.1238 33.2242 44.1238ZM33.1762 45.0238C34.3882 45.0238 35.1682 44.2318 35.1682 42.4078C35.1682 40.6678 34.6162 39.5998 33.2482 39.5998C31.9402 39.5998 31.2922 40.7278 31.2922 42.4078C31.2922 44.2318 31.9522 45.0238 33.1762 45.0238ZM28.8682 44.6038C29.6482 43.4518 30.8722 41.3398 30.8722 41.0998C30.8722 40.9918 30.7882 40.9318 30.6922 40.9318C30.6322 40.9318 30.5842 40.9558 30.5362 40.9918C29.8522 41.7838 28.3642 43.4758 27.6682 44.2678C27.6202 44.3278 27.5962 44.3758 27.5962 44.4358C27.5962 44.5198 27.6682 44.6038 27.8122 44.6758C27.9202 44.7358 28.3042 44.8798 28.4362 44.8798C28.6642 44.8798 28.7602 44.7598 28.8682 44.6038ZM33.5002 35.9878C31.9162 38.5558 31.4362 39.3598 31.4362 39.5998C31.4362 39.6958 31.5082 39.7558 31.5922 39.7558C31.6522 39.7558 31.7122 39.7318 31.7482 39.6958C32.5162 38.9278 33.9802 37.1398 34.7002 36.3238C34.7482 36.2638 34.7722 36.2158 34.7722 36.1558C34.7722 36.0718 34.7002 35.9878 34.5562 35.9158C34.4482 35.8558 34.0642 35.7118 33.9322 35.7118C33.7042 35.7118 33.5962 35.8318 33.5002 35.9878Z" fill="black" fill-opacity="0.74"/>
<path d="M92.1964 36.9878C92.6864 36.9878 93.2184 36.9878 93.6104 36.9318C93.9464 36.8758 94.0024 36.7778 94.0024 36.5258C93.9744 35.1118 93.7924 32.8438 93.7924 30.6458C93.7924 28.8678 93.9884 26.9358 93.9884 26.5298C93.9884 26.1938 93.6804 26.0538 93.3584 26.0538C92.1404 26.0538 90.9224 26.6838 90.4604 27.1458C90.3624 27.2438 90.3204 27.3418 90.3204 27.4398C90.3204 27.5518 90.3904 27.6638 90.5304 27.7478C91.0904 28.0978 91.3424 28.4058 91.3424 29.5398C91.3424 31.7938 91.1884 34.7898 91.1884 36.6238C91.1884 36.8478 91.3004 36.9038 91.4824 36.9458C91.6784 36.9878 91.9304 36.9878 92.1964 36.9878ZM95.954 26.6698C95.702 27.6918 95.38 30.0998 95.38 31.7798C95.38 31.9898 95.506 32.1158 95.842 32.2698C96.08 32.3818 96.36 32.4518 96.556 32.4518C97.13 32.4518 98.04 32.1018 98.81 32.1018C99.72 32.1018 100.084 32.5778 100.084 33.2918C100.084 34.2578 99.496 34.6498 98.656 34.6498C97.704 34.6498 96.892 34.2718 96.458 33.9638C96.29 33.8238 96.15 33.7118 96.038 33.7118C95.926 33.7118 95.842 33.7818 95.772 33.8938C95.506 34.3698 95.17 35.3218 95.17 35.6858C95.17 35.9238 95.268 36.0638 95.534 36.2458C96.136 36.6798 97.144 37.1138 98.698 37.1138C101.106 37.1138 102.422 35.9518 102.422 33.4038C102.422 31.6398 101.666 30.1698 99.692 30.1698C98.628 30.1698 98.138 30.5618 97.844 30.5618C97.662 30.5618 97.62 30.4218 97.62 30.1698C97.62 29.6938 97.732 28.6718 97.97 28.4478C98.082 28.3358 98.264 28.2658 98.6 28.2658C99.58 28.2658 100.742 28.5598 101.288 28.7278C101.4 28.7558 101.484 28.7838 101.54 28.7838C101.68 28.7838 101.764 28.6858 101.834 28.4198C101.96 27.8738 102.03 26.9638 102.03 26.5858C102.03 26.4038 101.946 26.2638 101.694 26.2498C100.812 26.2078 99.762 26.1938 98.768 26.1938C97.9 26.1938 97.06 26.2078 96.388 26.2498C96.15 26.2498 96.01 26.4038 95.954 26.6698Z" fill="#074051"/>
<path d="M96.6911 48.9038C96.9431 48.9038 97.4831 48.8438 97.9751 48.8438C98.9351 48.8438 100.027 48.9278 100.663 48.9278C101.923 48.9278 102.343 48.0158 102.343 47.1038C102.343 46.5878 102.187 46.1318 101.923 45.8318C101.863 45.7598 101.779 45.7238 101.707 45.7238C101.623 45.7238 101.539 45.7718 101.491 45.8678C101.383 46.2038 101.227 46.4798 100.987 46.6478C100.615 46.8758 100.111 46.9478 99.0191 46.9478C98.7671 46.9478 98.6471 46.8758 98.6471 46.7198C98.6471 46.1918 99.0431 45.8198 99.8951 45.2918C101.575 44.3078 102.247 43.5878 102.247 42.1358C102.247 40.4438 101.107 39.5798 99.4751 39.5798C98.0111 39.5798 96.7871 40.2278 96.2591 40.9358C96.1871 41.0318 96.1511 41.1278 96.1511 41.2358C96.1511 41.4518 96.4391 42.2558 96.7871 42.6638C96.8591 42.7478 96.9431 42.7958 97.0391 42.7958C97.0991 42.7958 97.1591 42.7718 97.2191 42.7118C97.9151 42.0998 98.7311 41.6558 99.3791 41.6558C99.8471 41.6558 100.123 41.9318 100.123 42.2918C100.123 42.7838 99.8111 43.0358 98.9231 43.6118C97.3031 44.6318 96.1991 45.7238 96.1991 47.6678C96.1991 48.5078 96.2951 48.9038 96.6911 48.9038ZM106.169 46.8518C105.365 46.8518 105.053 46.0238 105.053 44.2238C105.053 42.3638 105.461 41.4998 106.205 41.4998C106.925 41.4998 107.309 42.3518 107.309 44.1998C107.309 45.9878 107.033 46.8518 106.169 46.8518ZM106.097 49.0838C108.041 49.0838 109.517 47.7158 109.517 44.4158C109.517 41.4398 108.557 39.5798 106.289 39.5798C104.009 39.5798 102.857 41.5238 102.857 44.4158C102.857 47.7038 104.177 49.0838 106.097 49.0838Z" fill="#5A320D"/>
</svg>
