<svg width="371" height="520" viewBox="0 0 371 520" fill="none" xmlns="http://www.w3.org/2000/svg">
<path d="M-56.1504 83.3551C-83.3904 -2.10494 -89.8404 -134.565 -6.48036 -134.565C76.8796 -134.565 76.5196 -38.4249 52.7096 83.3551H-56.1504Z" fill="#FBF6F0"/>
<path d="M-51.9604 83.355C-76.8304 3.47501 -80.5804 -120.355 -4.4204 -120.355C71.7396 -120.355 69.2696 -30.485 47.5096 83.355H-51.9604Z" fill="#85267A" fill-opacity="0.14"/>
<path d="M-46.6202 83.3551C-68.8502 9.08508 -74.1502 -106.045 -6.02017 -106.045C62.1098 -106.045 61.7898 -22.4849 42.3298 83.3551H-46.6202Z" fill="#FBF6F0"/>
<path d="M-39.5 83.3551C-57.97 14.6751 -60.75 -91.7649 -4.20999 -91.7649C52.33 -91.7649 50.5 -14.5149 34.35 83.3551H-39.5Z" fill="#85267A" fill-opacity="0.14"/>
<path d="M-28.5704 83.3551C-41.2304 20.0651 -45.5704 -78.0449 -6.81037 -78.0449C31.9496 -78.0449 33.1896 -6.83493 22.0696 83.3551H-28.5704Z" fill="#FBF6F0"/>
<path d="M-15.1504 83.355H7.42956C12.1796 24.025 10.9896 -62.645 -6.22045 -62.645C-25.8004 -62.615 -19.8704 53.695 -15.1504 83.355Z" fill="#85267A" fill-opacity="0.14"/>
<path d="M84.7898 83.3551C57.5698 -2.10494 51.1198 -134.565 134.47 -134.565C217.82 -134.565 217.47 -38.4249 193.66 83.3551H84.7898Z" fill="#FBF6F0"/>
<path d="M88.9898 83.355C64.1298 3.47501 60.3698 -120.355 136.53 -120.355C212.69 -120.355 210.23 -30.485 188.47 83.355H88.9898Z" fill="#85267A" fill-opacity="0.14"/>
<path d="M94.3396 83.3551C72.0996 9.08508 66.8296 -106.045 134.93 -106.045C203.03 -106.045 202.74 -22.4849 183.29 83.3551H94.3396Z" fill="#FBF6F0"/>
<path d="M101.45 83.3551C82.9897 14.6751 80.1997 -91.7649 136.74 -91.7649C193.28 -91.7649 191.46 -14.5049 175.3 83.3651L101.45 83.3551Z" fill="#85267A" fill-opacity="0.14"/>
<path d="M112.39 83.3551C99.7296 20.0651 95.3896 -78.0449 134.15 -78.0449C172.91 -78.0449 174.1 -6.83493 163.02 83.3551H112.39Z" fill="#FBF6F0"/>
<path d="M125.85 83.355H148.4C153.14 24.025 151.96 -62.645 134.75 -62.645C115.16 -62.615 121.09 53.695 125.85 83.355Z" fill="#85267A" fill-opacity="0.14"/>
<path d="M225.74 83.3551C198.52 -2.10494 192.07 -134.565 275.43 -134.565C358.79 -134.565 358.43 -38.4249 334.62 83.3551H225.74Z" fill="#FBF6F0"/>
<path d="M229.95 83.355C205.08 3.47501 201.33 -120.355 277.49 -120.355C353.65 -120.355 351.18 -30.485 329.42 83.355H229.95Z" fill="#85267A" fill-opacity="0.14"/>
<path d="M235.3 83.3551C213.06 9.08508 207.79 -106.045 275.89 -106.045C343.99 -106.045 343.7 -22.4849 324.24 83.3551H235.3Z" fill="#FBF6F0"/>
<path d="M242.41 83.3551C223.94 14.6751 221.16 -91.7649 277.7 -91.7649C334.24 -91.7649 332.41 -14.5049 316.26 83.3651L242.41 83.3551Z" fill="#85267A" fill-opacity="0.14"/>
<path d="M253.34 83.3551C240.68 20.0651 236.34 -78.0449 275.1 -78.0449C313.86 -78.0449 315.1 -6.83493 303.98 83.3551H253.34Z" fill="#FBF6F0"/>
<path d="M266.79 83.355H289.34C294.09 24.025 292.9 -62.645 275.69 -62.645C256.11 -62.615 262.05 53.695 266.79 83.355Z" fill="#85267A" fill-opacity="0.14"/>
<path d="M366.7 83.3551C339.48 -2.10494 333.03 -134.565 416.39 -134.565C499.75 -134.565 499.39 -38.4249 475.57 83.3551H366.7Z" fill="#FBF6F0"/>
<path d="M370.91 83.355C346.04 3.47501 342.28 -120.355 418.44 -120.355C494.6 -120.355 492.14 -30.485 470.38 83.355H370.91Z" fill="#85267A" fill-opacity="0.14"/>
<path d="M376.25 83.3551C354.02 9.08508 348.74 -106.045 416.84 -106.045C484.94 -106.045 484.66 -22.4849 465.2 83.3551H376.25Z" fill="#FBF6F0"/>
<path d="M383.36 83.3551C364.9 14.6751 362.11 -91.7649 418.66 -91.7649C475.21 -91.7649 473.37 -14.5049 457.22 83.3651L383.36 83.3551Z" fill="#85267A" fill-opacity="0.14"/>
<path d="M-124.15 175.535C-151.36 90.065 -157.81 -42.395 -74.4503 -42.395C8.90971 -42.395 8.5497 53.745 -15.2603 175.535H-124.15Z" fill="#FBF6F0"/>
<path d="M-119.93 175.535C-144.8 95.6451 -148.55 -28.1849 -72.3901 -28.1849C3.76987 -28.1849 1.29987 61.6851 -20.4601 175.535H-119.93Z" fill="#85267A" fill-opacity="0.14"/>
<path d="M16.8497 175.535C-10.4003 90.065 -16.8503 -42.395 66.4997 -42.395C149.85 -42.395 149.5 53.745 125.69 175.535H16.8497Z" fill="#FBF6F0"/>
<path d="M21.0196 175.535C-3.8404 95.6451 -7.6004 -28.1849 68.5596 -28.1849C144.72 -28.1849 142.26 61.6851 120.5 175.535H21.0196Z" fill="#85267A" fill-opacity="0.14"/>
<path d="M26.3697 175.535C4.12974 101.235 -1.15026 -13.8749 66.9597 -13.8749C135.07 -13.8749 134.77 69.6851 115.32 175.535H26.3697Z" fill="#FBF6F0"/>
<path d="M33.48 175.535C15.02 106.845 12.23 0.395142 68.77 0.395142C125.31 0.395142 123.49 77.6551 107.33 175.535H33.48Z" fill="#85267A" fill-opacity="0.14"/>
<path d="M44.4199 175.535C31.7599 112.235 27.4199 14.1351 66.1799 14.1351C104.94 14.1351 106.13 85.3351 95.0499 175.535H44.4199Z" fill="#FBF6F0"/>
<path d="M57.8499 175.535H80.3999C85.1399 116.195 83.9598 29.5352 66.7498 29.5352C47.1898 29.5552 53.1199 145.865 57.8499 175.535Z" fill="#85267A" fill-opacity="0.14"/>
<path d="M157.77 175.535C130.55 90.065 124.1 -42.395 207.46 -42.395C290.82 -42.395 290.46 53.745 266.65 175.535H157.77Z" fill="#FBF6F0"/>
<path d="M161.98 175.535C137.11 95.6451 133.36 -28.1849 209.52 -28.1849C285.68 -28.1849 283.21 61.6851 261.45 175.535H161.98Z" fill="#85267A" fill-opacity="0.14"/>
<path d="M167.33 175.535C145.09 101.235 139.85 -13.8749 207.92 -13.8749C275.99 -13.8749 275.73 69.6851 256.27 175.535H167.33Z" fill="#FBF6F0"/>
<path d="M174.44 175.535C155.97 106.845 153.19 0.395142 209.73 0.395142C266.27 0.395142 264.44 77.6551 248.29 175.535H174.44Z" fill="#85267A" fill-opacity="0.14"/>
<path d="M185.37 175.535C172.71 112.235 168.37 14.1351 207.13 14.1351C245.89 14.1351 247.13 85.3351 236.01 175.535H185.37Z" fill="#FBF6F0"/>
<path d="M198.85 175.535H221.4C226.15 116.195 224.96 29.5352 207.75 29.5352C188.14 29.5552 194.08 145.865 198.85 175.535Z" fill="#85267A" fill-opacity="0.14"/>
<path d="M298.73 175.535C271.51 90.065 265.06 -42.395 348.42 -42.395C431.78 -42.395 431.42 53.745 407.6 175.535H298.73Z" fill="#FBF6F0"/>
<path d="M302.94 175.535C278.07 95.6451 274.31 -28.1849 350.47 -28.1849C426.63 -28.1849 424.17 61.6851 402.41 175.535H302.94Z" fill="#85267A" fill-opacity="0.14"/>
<path d="M308.28 175.535C286.05 101.235 280.77 -13.8749 348.85 -13.8749C416.93 -13.8749 416.67 69.6851 397.21 175.535H308.28Z" fill="#FBF6F0"/>
<path d="M315.39 175.535C296.93 106.845 294.14 0.395142 350.69 0.395142C407.24 0.395142 405.4 77.6551 389.25 175.535H315.39Z" fill="#85267A" fill-opacity="0.14"/>
<path d="M326.33 175.535C313.67 112.235 309.33 14.1351 348.09 14.1351C386.85 14.1351 388.04 85.3351 376.96 175.535H326.33Z" fill="#FBF6F0"/>
<path d="M339.78 175.535H362.33C367.07 116.195 365.89 29.5352 348.68 29.5352C329.1 29.5552 335.03 145.865 339.78 175.535Z" fill="#85267A" fill-opacity="0.14"/>
<path d="M-51.1502 267.705C-78.3702 182.235 -84.8202 49.7751 -1.47019 49.7751C81.8798 49.7751 81.5298 145.925 57.7198 267.705H-51.1502Z" fill="#FBF6F0"/>
<path d="M-46.9501 267.705C-71.8101 187.815 -75.5701 63.9851 0.589874 63.9851C76.7499 63.9851 74.2899 153.865 52.5299 267.705H-46.9501Z" fill="#85267A" fill-opacity="0.14"/>
<path d="M-41.6003 267.705C-63.8403 193.425 -69.1503 78.2952 -1.01027 78.2952C67.1297 78.2952 66.8497 161.855 47.3497 267.705H-41.6003Z" fill="#FBF6F0"/>
<path d="M-34.4901 267.705C-52.9501 199.025 -55.7401 92.5651 0.849907 92.5651C57.4399 92.5651 55.5699 169.835 39.4099 267.705H-34.4901Z" fill="#85267A" fill-opacity="0.14"/>
<path d="M-23.5503 267.705C-36.2103 204.405 -40.5503 106.305 -1.79034 106.305C36.9697 106.305 38.2097 177.505 27.0797 267.705H-23.5503Z" fill="#FBF6F0"/>
<path d="M-10.1001 267.705H12.4499C17.1899 208.365 16.0099 121.705 -1.20006 121.705C-20.7801 121.735 -14.8501 238.035 -10.1001 267.705Z" fill="#85267A" fill-opacity="0.14"/>
<path d="M89.8496 267.705C62.5796 182.235 56.1296 49.7751 139.49 49.7751C222.85 49.7751 222.49 145.925 198.68 267.705H89.8496Z" fill="#FBF6F0"/>
<path d="M94.0098 267.705C69.1398 187.815 65.3898 63.9851 141.55 63.9851C217.71 63.9851 215.24 153.865 193.48 267.705H94.0098Z" fill="#85267A" fill-opacity="0.14"/>
<path d="M99.3596 267.705C77.1196 193.425 71.8496 78.2952 139.95 78.2952C208.05 78.2952 207.76 161.855 188.3 267.705H99.3596Z" fill="#FBF6F0"/>
<path d="M106.47 267.705C87.9997 199.025 85.2197 92.5651 141.76 92.5651C198.3 92.5651 196.47 169.835 180.32 267.705H106.47Z" fill="#85267A" fill-opacity="0.14"/>
<path d="M117.4 267.705C104.74 204.405 100.4 106.305 139.16 106.305C177.92 106.305 179.16 177.505 168.04 267.705H117.4Z" fill="#FBF6F0"/>
<path d="M130.85 267.705H153.4C158.15 208.365 156.96 121.705 139.75 121.705C120.17 121.735 126.11 238.035 130.85 267.705Z" fill="#85267A" fill-opacity="0.14"/>
<path d="M230.76 267.705C203.54 182.235 197.09 49.7751 280.45 49.7751C363.81 49.7751 363.45 145.925 339.63 267.705H230.76Z" fill="#FBF6F0"/>
<path d="M234.97 267.705C210.1 187.815 206.34 63.9851 282.5 63.9851C358.66 63.9851 356.2 153.865 334.44 267.705H234.97Z" fill="#85267A" fill-opacity="0.14"/>
<path d="M240.31 267.705C218.08 193.425 212.85 78.2952 280.9 78.2952C348.95 78.2952 348.72 161.855 329.26 267.705H240.31Z" fill="#FBF6F0"/>
<path d="M247.42 267.705C228.96 199.025 226.17 92.5651 282.72 92.5651C339.27 92.5651 337.43 169.835 321.28 267.705H247.42Z" fill="#85267A" fill-opacity="0.14"/>
<path d="M258.36 267.705C245.7 204.405 241.36 106.305 280.12 106.305C318.88 106.305 320.12 177.505 308.99 267.705H258.36Z" fill="#FBF6F0"/>
<path d="M271.85 267.705H294.4C299.14 208.365 297.96 121.705 280.75 121.705C261.13 121.735 267.06 238.035 271.85 267.705Z" fill="#85267A" fill-opacity="0.14"/>
<path d="M371.71 267.705C344.49 182.235 338.04 49.7751 421.4 49.7751C504.76 49.7751 504.4 145.925 480.59 267.705H371.71Z" fill="#FBF6F0"/>
<path d="M375.92 267.705C351.05 187.815 347.3 63.9851 423.46 63.9851C499.62 63.9851 497.16 153.865 475.4 267.705H375.92Z" fill="#85267A" fill-opacity="0.14"/>
<path d="M381.27 267.705C359.03 193.425 353.76 78.2952 421.85 78.2952C489.94 78.2952 489.66 161.855 470.2 267.705H381.27Z" fill="#FBF6F0"/>
<path d="M388.38 267.705C369.91 199.025 367.13 92.5651 423.67 92.5651C480.21 92.5651 478.39 169.835 462.23 267.705H388.38Z" fill="#85267A" fill-opacity="0.14"/>
<path d="M-119.15 359.875C-146.34 274.415 -152.79 141.945 -69.4401 141.945C13.9099 141.945 13.5599 238.095 -10.2501 359.875H-119.15Z" fill="#FBF6F0"/>
<path d="M-114.92 359.875C-139.78 279.985 -143.54 156.155 -67.3803 156.155C8.77966 156.155 6.31966 246.035 -15.4403 359.875H-114.92Z" fill="#85267A" fill-opacity="0.14"/>
<path d="M21.8497 359.875C-5.37032 274.415 -11.8203 141.945 71.5397 141.945C154.9 141.945 154.54 238.095 130.73 359.875H21.8497Z" fill="#FBF6F0"/>
<path d="M26.0396 359.875C1.1696 279.985 -2.58041 156.155 73.5796 156.155C149.74 156.155 147.27 246.035 125.51 359.875H26.0396Z" fill="#85267A" fill-opacity="0.14"/>
<path d="M31.3896 359.875C9.14957 285.595 3.84958 170.475 71.9796 170.475C140.11 170.475 139.79 254.035 120.33 359.875H31.3896Z" fill="#FBF6F0"/>
<path d="M38.5 359.875C20.03 291.235 17.25 184.735 73.79 184.735C130.33 184.735 128.5 262.005 112.35 359.875H38.5Z" fill="#85267A" fill-opacity="0.14"/>
<path d="M49.4296 359.875C36.7696 296.585 32.4296 198.475 71.1896 198.475C109.95 198.475 111.19 269.685 100.07 359.875H49.4296Z" fill="#FBF6F0"/>
<path d="M62.8496 359.875H85.3996C90.1496 300.535 88.9596 213.875 71.7496 213.875C52.1996 213.905 58.1396 330.235 62.8496 359.875Z" fill="#85267A" fill-opacity="0.14"/>
<path d="M162.79 359.875C135.57 274.415 129.12 141.945 212.48 141.945C295.84 141.945 295.48 238.095 271.66 359.875H162.79Z" fill="#FBF6F0"/>
<path d="M167 359.875C142.13 279.985 138.37 156.155 214.53 156.155C290.69 156.155 288.23 246.035 266.47 359.875H167Z" fill="#85267A" fill-opacity="0.14"/>
<path d="M172.34 359.875C150.11 285.595 144.83 170.475 212.93 170.475C281.03 170.475 280.75 254.035 261.29 359.875H172.34Z" fill="#FBF6F0"/>
<path d="M179.45 359.875C160.99 291.235 158.2 184.735 214.75 184.735C271.3 184.735 269.46 262.005 253.31 359.875H179.45Z" fill="#85267A" fill-opacity="0.14"/>
<path d="M190.39 359.875C177.73 296.585 173.39 198.475 212.15 198.475C250.91 198.475 252.1 269.685 241.02 359.875H190.39Z" fill="#FBF6F0"/>
<path d="M203.85 359.875H226.4C231.14 300.535 229.96 213.875 212.75 213.875C193.16 213.905 199.09 330.235 203.85 359.875Z" fill="#85267A" fill-opacity="0.14"/>
<path d="M303.74 359.875C276.52 274.415 270.07 141.945 353.43 141.945C436.79 141.945 436.43 238.095 412.62 359.875H303.74Z" fill="#FBF6F0"/>
<path d="M307.95 359.875C283.08 279.985 279.33 156.155 355.49 156.155C431.65 156.155 429.19 246.035 407.43 359.875H307.95Z" fill="#85267A" fill-opacity="0.14"/>
<path d="M313.3 359.875C291.06 285.595 285.79 170.475 353.89 170.475C421.99 170.475 421.7 254.035 402.24 359.875H313.3Z" fill="#FBF6F0"/>
<path d="M320.41 359.875C301.94 291.235 299.16 184.735 355.7 184.735C412.24 184.735 410.42 262.005 394.26 359.875H320.41Z" fill="#85267A" fill-opacity="0.14"/>
<path d="M331.35 359.875C318.69 296.585 314.35 198.475 353.1 198.475C391.85 198.475 393.1 269.685 381.98 359.875H331.35Z" fill="#FBF6F0"/>
<path d="M344.79 359.875H367.34C372.09 300.535 370.9 213.875 353.7 213.875C334.11 213.905 340.05 330.235 344.79 359.875Z" fill="#85267A" fill-opacity="0.14"/>
<path d="M-46.1503 452.045C-73.3603 366.585 -79.8103 234.115 3.5497 234.115C86.9097 234.115 86.5497 330.265 62.7397 452.045H-46.1503Z" fill="#FBF6F0"/>
<path d="M-41.9301 452.045C-66.8001 372.155 -70.5501 248.325 5.60987 248.325C81.7699 248.325 79.2999 338.235 57.5399 452.045H-41.9301Z" fill="#85267A" fill-opacity="0.14"/>
<path d="M-36.5804 452.045C-58.8204 377.775 -64.0904 262.645 4.00964 262.645C72.1096 262.645 71.8496 346.235 52.3596 452.045H-36.5804Z" fill="#FBF6F0"/>
<path d="M-29.4704 452.045C-47.9404 383.365 -50.7204 276.905 5.84957 276.905C62.4196 276.905 60.5596 354.175 44.4096 452.045H-29.4704Z" fill="#85267A" fill-opacity="0.14"/>
<path d="M-18.5401 452.045C-31.2001 388.755 -35.5401 290.645 3.21991 290.645C41.9799 290.645 43.2199 361.855 32.0999 452.045H-18.5401Z" fill="#FBF6F0"/>
<path d="M-5.09035 452.045H17.4596C22.2096 392.705 21.0196 306.045 3.80965 306.045C-15.7704 306.075 -9.83035 422.375 -5.09035 452.045Z" fill="#85267A" fill-opacity="0.14"/>
<path d="M94.8497 452.045C67.6297 366.585 61.1797 234.115 144.54 234.115C227.9 234.115 227.54 330.265 203.72 452.045H94.8497Z" fill="#FBF6F0"/>
<path d="M99.0297 452.045C74.1597 372.155 70.3997 248.325 146.56 248.325C222.72 248.325 220.26 338.205 198.5 452.045H99.0297Z" fill="#85267A" fill-opacity="0.14"/>
<path d="M104.37 452.045C82.1399 377.775 76.8599 262.645 144.96 262.645C213.06 262.645 212.78 346.205 193.32 452.045H104.37Z" fill="#FBF6F0"/>
<path d="M111.48 452.045C93.0199 383.365 90.2299 276.905 146.78 276.905C203.33 276.905 201.49 354.175 185.34 452.045H111.48Z" fill="#85267A" fill-opacity="0.14"/>
<path d="M122.42 452.045C109.76 388.755 105.42 290.645 144.18 290.645C182.94 290.645 184.13 361.855 173.05 452.045H122.42Z" fill="#FBF6F0"/>
<path d="M135.85 452.045H158.4C163.14 392.705 161.96 306.045 144.75 306.045C125.19 306.075 131.12 422.375 135.85 452.045Z" fill="#85267A" fill-opacity="0.14"/>
<path d="M235.77 452.045C208.55 366.585 202.1 234.115 285.46 234.115C368.82 234.115 368.46 330.265 344.65 452.045H235.77Z" fill="#FBF6F0"/>
<path d="M239.98 452.045C215.11 372.155 211.36 248.325 287.52 248.325C363.68 248.325 361.22 338.205 339.46 452.045H239.98Z" fill="#85267A" fill-opacity="0.14"/>
<path d="M245.33 452.045C223.09 377.775 217.82 262.645 285.92 262.645C354.02 262.645 353.73 346.205 334.27 452.045H245.33Z" fill="#FBF6F0"/>
<path d="M252.44 452.045C233.97 383.365 231.19 276.905 287.73 276.905C344.27 276.905 342.45 354.175 326.29 452.045H252.44Z" fill="#85267A" fill-opacity="0.14"/>
<path d="M263.38 452.045C250.72 388.755 246.38 290.645 285.13 290.645C323.88 290.645 325.13 361.855 314.01 452.045H263.38Z" fill="#FBF6F0"/>
<path d="M276.85 452.045H299.39C304.14 392.705 302.95 306.045 285.75 306.045C266.14 306.075 272.08 422.375 276.85 452.045Z" fill="#85267A" fill-opacity="0.14"/>
<path d="M376.73 452.045C349.51 366.585 343.06 234.115 426.42 234.115C509.78 234.115 509.42 330.265 485.6 452.045H376.73Z" fill="#FBF6F0"/>
<path d="M380.94 452.045C356.07 372.155 352.32 248.325 428.48 248.325C504.64 248.325 502.17 338.235 480.41 452.045H380.94Z" fill="#85267A" fill-opacity="0.14"/>
<path d="M386.28 452.045C364.05 377.775 358.78 262.645 426.88 262.645C494.98 262.645 494.69 346.205 475.23 452.045H386.28Z" fill="#FBF6F0"/>
<path d="M-114.15 544.235C-141.37 458.775 -147.82 326.315 -64.4603 326.315C18.8997 326.315 18.5797 422.435 -5.23032 544.235H-114.15Z" fill="#FBF6F0"/>
<path d="M-109.9 544.235C-134.77 464.345 -138.52 340.525 -62.3603 340.525C13.7997 340.525 11.3297 430.375 -10.4303 544.235H-109.9Z" fill="#85267A" fill-opacity="0.14"/>
<path d="M-104.55 544.235C-126.79 469.965 -132.06 354.835 -63.9601 354.835C4.13991 354.835 3.84991 438.375 -15.6101 544.235H-104.55Z" fill="#FBF6F0"/>
<path d="M26.8497 544.235C-0.370319 458.775 -6.82032 326.315 76.5397 326.315C159.9 326.315 159.54 422.455 135.72 544.235H26.8497Z" fill="#FBF6F0"/>
<path d="M31.06 544.235C6.18997 464.345 2.42998 340.525 78.59 340.525C154.75 340.525 152.29 430.395 130.53 544.235H31.06Z" fill="#85267A" fill-opacity="0.14"/>
<path d="M36.3998 544.235C14.1698 469.945 8.84979 354.815 76.9898 354.815C145.13 354.815 144.85 438.375 125.35 544.235H36.3998Z" fill="#FBF6F0"/>
<path d="M43.5099 544.235C25.0499 475.535 22.2599 369.075 78.8499 369.075C135.44 369.075 133.52 446.345 117.37 544.235H43.5099Z" fill="#85267A" fill-opacity="0.14"/>
<path d="M54.4497 544.235C41.7897 480.945 37.4497 382.835 76.2097 382.835C114.97 382.835 116.16 454.045 105.08 544.235H54.4497Z" fill="#FBF6F0"/>
<path d="M67.8999 544.235H90.45C95.19 484.895 94.0099 398.235 76.7999 398.235C57.2199 398.235 63.1499 514.545 67.8999 544.235Z" fill="#85267A" fill-opacity="0.14"/>
<path d="M167.85 544.235C140.63 458.775 134.18 326.315 217.54 326.315C300.9 326.315 300.54 422.455 276.73 544.235H167.85Z" fill="#FBF6F0"/>
<path d="M172.01 544.235C147.14 464.345 143.39 340.525 219.55 340.525C295.71 340.525 293.25 430.375 271.49 544.235H172.01Z" fill="#85267A" fill-opacity="0.14"/>
<path d="M177.36 544.235C155.12 469.965 149.85 354.835 217.95 354.835C286.05 354.835 285.76 438.395 266.3 544.235H177.36Z" fill="#FBF6F0"/>
<path d="M184.47 544.235C166 475.555 163.22 369.095 219.76 369.095C276.3 369.095 274.48 446.345 258.32 544.235H184.47Z" fill="#85267A" fill-opacity="0.14"/>
<path d="M195.41 544.235C182.75 480.945 178.41 382.835 217.16 382.835C255.91 382.835 257.16 454.045 246.04 544.235H195.41Z" fill="#FBF6F0"/>
<path d="M208.85 544.235H231.39C236.14 484.895 234.95 398.235 217.75 398.235C198.17 398.235 204.11 514.545 208.85 544.235Z" fill="#85267A" fill-opacity="0.14"/>
<path d="M308.76 544.235C281.54 458.775 275.09 326.315 358.45 326.315C441.81 326.315 441.45 422.455 417.63 544.235H308.76Z" fill="#FBF6F0"/>
<path d="M312.97 544.235C288.1 464.345 284.35 340.525 360.51 340.525C436.67 340.525 434.2 430.375 412.44 544.235H312.97Z" fill="#85267A" fill-opacity="0.14"/>
<path d="M318.31 544.235C296.08 469.965 290.81 354.835 358.91 354.835C427.01 354.835 426.72 438.395 407.26 544.235H318.31Z" fill="#FBF6F0"/>
<path d="M325.42 544.235C306.96 475.555 304.17 369.095 360.72 369.095C417.27 369.095 415.43 446.345 399.28 544.235H325.42Z" fill="#85267A" fill-opacity="0.14"/>
<path d="M336.36 544.235C323.7 480.945 319.36 382.835 358.12 382.835C396.88 382.835 398.12 454.045 387 544.235H336.36Z" fill="#FBF6F0"/>
<path d="M349.85 544.235H372.4C377.15 484.895 375.96 398.235 358.75 398.235C339.13 398.235 345.06 514.545 349.85 544.235Z" fill="#85267A" fill-opacity="0.14"/>
<path d="M-41.1502 636.385C-68.3403 550.925 -74.7903 418.465 8.56975 418.465C91.9297 418.465 91.5697 514.605 67.7497 636.385H-41.1502Z" fill="#FBF6F0"/>
<path d="M-36.9102 636.385C-61.7802 556.505 -65.5402 432.675 10.6198 432.675C86.7798 432.675 84.3198 522.545 62.5598 636.385H-36.9102Z" fill="#85267A" fill-opacity="0.14"/>
<path d="M-31.5702 636.385C-53.8002 562.115 -59.0802 446.985 9.02982 446.985C77.1398 446.985 76.8398 530.545 57.3798 636.385H-31.5702Z" fill="#FBF6F0"/>
<path d="M-24.4601 636.385C-42.9201 567.705 -45.7101 461.235 10.8499 461.235C67.4099 461.235 65.5599 538.495 49.4099 636.365L-24.4601 636.385Z" fill="#85267A" fill-opacity="0.14"/>
<path d="M-13.5201 636.385C-26.1801 573.095 -30.5201 474.985 8.23993 474.985C46.9999 474.985 48.2399 546.195 37.1099 636.385H-13.5201Z" fill="#FBF6F0"/>
<path d="M-0.0702705 636.385H22.4797C27.2197 577.055 26.0397 490.385 8.82973 490.385C-10.7503 490.415 -4.82027 606.725 -0.0702705 636.385Z" fill="#85267A" fill-opacity="0.14"/>
<path d="M99.8497 636.385C72.6297 550.925 66.1797 418.465 149.54 418.465C232.9 418.465 232.54 514.605 208.73 636.385H99.8497Z" fill="#FBF6F0"/>
<path d="M104.04 636.385C79.1696 556.505 75.4196 432.675 151.58 432.675C227.74 432.675 225.28 522.545 203.52 636.385H104.04Z" fill="#85267A" fill-opacity="0.14"/>
<path d="M109.39 636.385C87.1498 562.115 81.8799 446.985 149.98 446.985C218.08 446.985 217.79 530.545 198.33 636.385H109.39Z" fill="#FBF6F0"/>
<path d="M116.5 636.385C98.03 567.705 95.25 461.235 151.79 461.235C208.33 461.235 206.51 538.495 190.35 636.365L116.5 636.385Z" fill="#85267A" fill-opacity="0.14"/>
<path d="M127.44 636.385C114.78 573.095 110.44 474.985 149.19 474.985C187.94 474.985 189.19 546.195 178.07 636.385H127.44Z" fill="#FBF6F0"/>
<path d="M140.85 636.385H163.39C168.14 577.055 166.95 490.385 149.75 490.385C130.2 490.415 136.14 606.725 140.85 636.385Z" fill="#85267A" fill-opacity="0.14"/>
<path d="M240.79 636.385C213.57 550.925 207.12 418.465 290.48 418.465C373.84 418.465 373.48 514.605 349.66 636.385H240.79Z" fill="#FBF6F0"/>
<path d="M245 636.385C220.13 556.505 216.38 432.675 292.54 432.675C368.7 432.675 366.23 522.545 344.47 636.385H245Z" fill="#85267A" fill-opacity="0.14"/>
<path d="M250.34 636.385C228.11 562.115 222.84 446.985 290.94 446.985C359.04 446.985 358.75 530.545 339.29 636.385H250.34Z" fill="#FBF6F0"/>
<path d="M257.45 636.385C238.99 567.705 236.2 461.235 292.75 461.235C349.3 461.235 347.46 538.495 331.31 636.365L257.45 636.385Z" fill="#85267A" fill-opacity="0.14"/>
<path d="M268.39 636.385C255.73 573.095 251.39 474.985 290.15 474.985C328.91 474.985 330.1 546.195 319.03 636.385H268.39Z" fill="#FBF6F0"/>
<path d="M281.85 636.385H304.4C309.15 577.055 307.96 490.385 290.75 490.385C271.16 490.415 277.09 606.725 281.85 636.385Z" fill="#85267A" fill-opacity="0.14"/>
<path d="M381.74 636.385C354.53 550.925 348.07 418.465 431.43 418.465C514.79 418.465 514.43 514.605 490.62 636.385H381.74Z" fill="#FBF6F0"/>
<path d="M385.95 636.385C361.08 556.505 357.33 432.675 433.49 432.675C509.65 432.675 507.19 522.545 485.43 636.385H385.95Z" fill="#85267A" fill-opacity="0.14"/>
<path d="M391.3 636.385C369.06 562.115 363.79 446.985 431.89 446.985C499.99 446.985 499.7 530.545 480.25 636.385H391.3Z" fill="#FBF6F0"/>
<path d="M-109.09 728.565C-136.31 643.095 -142.76 510.635 -59.4003 510.635C23.9597 510.635 23.5997 606.775 -0.220261 728.565H-109.09Z" fill="#FBF6F0"/>
<path d="M31.8497 728.565C4.63971 643.095 -1.8103 510.635 81.5497 510.635C164.91 510.635 164.55 606.775 140.74 728.565H31.8497Z" fill="#FBF6F0"/>
<path d="M172.85 728.565C145.6 643.095 139.15 510.635 222.51 510.635C305.87 510.635 305.51 606.775 281.69 728.565H172.85Z" fill="#FBF6F0"/>
<path d="M313.77 728.565C286.56 643.095 280.1 510.635 363.46 510.635C446.82 510.635 446.46 606.775 422.65 728.565H313.77Z" fill="#FBF6F0"/>
</svg>
