<svg width="513" height="575" viewBox="0 0 513 575" fill="none" xmlns="http://www.w3.org/2000/svg">
<path d="M480.079 26.186L480.079 19.1337C480.079 11.3762 486.426 5.02917 494.184 5.02917C501.941 5.02917 508.288 11.3762 508.288 19.1337C508.288 26.8912 501.941 33.2383 494.184 33.2383L476.553 33.2383" stroke="#FE7A04" stroke-width="2" stroke-miterlimit="10" stroke-linecap="square"/>
<path d="M476.553 36.7644L494.184 36.7644C503.916 36.7644 511.814 28.8659 511.814 19.1337C511.814 9.4016 503.916 1.50305 494.184 1.50305C484.452 1.50305 476.553 9.4016 476.553 19.1337L476.553 26.186" stroke="#FE7A04" stroke-width="2" stroke-miterlimit="10" stroke-linecap="square"/>
<path d="M476.553 29.7124L494.184 29.7124C500.037 29.7124 504.762 24.9873 504.762 19.134C504.762 13.2806 500.037 8.55554 494.184 8.55554C488.33 8.55554 483.605 13.2806 483.605 19.134L483.605 26.1862" stroke="#FE7A04" stroke-width="2" stroke-miterlimit="10" stroke-linecap="square"/>
<path d="M476.553 26.1861L494.184 26.1861C498.062 26.1861 501.236 23.0126 501.236 19.1338C501.236 15.2551 498.062 12.0815 494.184 12.0815C490.305 12.0815 487.131 15.2551 487.131 19.1338L487.131 26.1861" stroke="#FE7A04" stroke-width="2" stroke-miterlimit="10" stroke-linecap="square"/>
<path d="M1.75421 26.1863L475.167 26.1862" stroke="#FE7A04" stroke-width="2" stroke-miterlimit="10" stroke-linecap="square"/>
<path d="M1.75427 29.7125L475.167 29.7125" stroke="#FE7A04" stroke-width="2" stroke-miterlimit="10" stroke-linecap="square"/>
<path d="M1.75421 33.2385L475.167 33.2385" stroke="#FE7A04" stroke-width="2" stroke-miterlimit="10" stroke-linecap="square"/>
<path d="M1.75421 36.7646L475.167 36.7646" stroke="#FE7A04" stroke-width="2" stroke-miterlimit="10" stroke-linecap="square"/>
<path d="M487.222 38.3735L487.222 573.762" stroke="#FE7A04" stroke-width="2" stroke-miterlimit="10" stroke-linecap="square"/>
<path d="M483.665 38.3735L483.665 573.762" stroke="#FE7A04" stroke-width="2" stroke-miterlimit="10" stroke-linecap="square"/>
<path d="M480.109 38.3735L480.109 573.762" stroke="#FE7A04" stroke-width="2" stroke-miterlimit="10" stroke-linecap="square"/>
<path d="M476.553 38.3735L476.553 573.762" stroke="#FE7A04" stroke-width="2" stroke-miterlimit="10" stroke-linecap="square"/>
</svg>
