<svg width="513" height="838" viewBox="0 0 513 838" fill="none" xmlns="http://www.w3.org/2000/svg">
<path d="M480.022 24.5462L480.022 17.9624C480.022 10.7203 486.369 4.79492 494.125 4.79492C501.882 4.79492 508.228 10.7203 508.228 17.9624C508.228 25.2045 501.882 31.1299 494.125 31.1299L476.497 31.1299" stroke="#FE7A04" stroke-width="2" stroke-miterlimit="10" stroke-linecap="square"/>
<path d="M476.497 34.4218L494.126 34.4218C503.857 34.4218 511.754 27.048 511.754 17.9624C511.754 8.87685 503.857 1.50305 494.126 1.50305C484.395 1.50305 476.497 8.87685 476.497 17.9624L476.497 24.5462" stroke="#FE7A04" stroke-width="2" stroke-miterlimit="10" stroke-linecap="square"/>
<path d="M476.496 27.8383L494.125 27.8383C499.977 27.8383 504.702 23.4272 504.702 17.9627C504.702 12.4981 499.977 8.08704 494.125 8.08704C488.272 8.08704 483.548 12.4981 483.548 17.9627L483.548 24.5464" stroke="#FE7A04" stroke-width="2" stroke-miterlimit="10" stroke-linecap="square"/>
<path d="M476.497 24.5463L494.126 24.5463C498.004 24.5463 501.177 21.5836 501.177 17.9625C501.177 14.3415 498.004 11.3788 494.126 11.3788C490.247 11.3788 487.074 14.3415 487.074 17.9625L487.074 24.5463" stroke="#FE7A04" stroke-width="2" stroke-miterlimit="10" stroke-linecap="square"/>
<path d="M1.75421 24.5464L475.111 24.5463" stroke="#FE7A04" stroke-width="2" stroke-miterlimit="10" stroke-linecap="square"/>
<path d="M1.75427 27.8384L475.111 27.8383" stroke="#FE7A04" stroke-width="2" stroke-miterlimit="10" stroke-linecap="square"/>
<path d="M1.75421 31.1301L475.111 31.1301" stroke="#FE7A04" stroke-width="2" stroke-miterlimit="10" stroke-linecap="square"/>
<path d="M1.75421 34.422L475.111 34.422" stroke="#FE7A04" stroke-width="2" stroke-miterlimit="10" stroke-linecap="square"/>
<path d="M487.164 35.924L487.164 836.503" stroke="#FE7A04" stroke-width="2" stroke-miterlimit="10" stroke-linecap="square"/>
<path d="M483.608 35.924L483.608 836.503" stroke="#FE7A04" stroke-width="2" stroke-miterlimit="10" stroke-linecap="square"/>
<path d="M480.052 35.924L480.052 836.503" stroke="#FE7A04" stroke-width="2" stroke-miterlimit="10" stroke-linecap="square"/>
<path d="M476.497 35.924L476.497 836.503" stroke="#FE7A04" stroke-width="2" stroke-miterlimit="10" stroke-linecap="square"/>
</svg>
