<svg viewBox="0 0 73 71" fill="none" xmlns="http://www.w3.org/2000/svg">
<g clip-path="url(#clip0)">
<path d="M11.861 63.7871C11.6391 63.7876 11.4247 63.7057 11.2592 63.5572C11.163 63.471 11.0865 63.3652 11.0349 63.2468C10.9833 63.1285 10.9577 63.0005 10.96 62.8715C10.9623 62.7426 10.9924 62.6158 11.0482 62.4997C11.104 62.3837 11.1842 62.2811 11.2834 62.199L14.7248 59.2115C14.8132 59.1325 14.9165 59.072 15.0287 59.0334C15.1408 58.9947 15.2596 58.9788 15.3781 58.9865C15.4966 58.9942 15.6125 59.0254 15.719 59.0783C15.8255 59.1312 15.9205 59.2047 15.9985 59.2945C16.0764 59.3843 16.1358 59.4887 16.1732 59.6016C16.2106 59.7145 16.2252 59.8336 16.2162 59.952C16.2072 60.0704 16.1748 60.1858 16.1208 60.2914C16.0668 60.397 15.9923 60.4908 15.9017 60.5672L12.4602 63.5547C12.2964 63.7038 12.0828 63.7866 11.861 63.7871Z" fill="white"/>
<path d="M18.9055 66.5622C18.737 66.523 18.5834 66.4358 18.4631 66.3113C18.3699 66.2152 18.2994 66.0995 18.2566 65.9728C18.2139 65.846 18.1999 65.7114 18.2158 65.5787L18.6777 61.1847C18.6896 61.067 18.7248 60.9528 18.7809 60.8488C18.8371 60.7447 18.9133 60.6528 19.005 60.5784C19.0968 60.5039 19.2024 60.4482 19.3158 60.4146C19.4291 60.3811 19.5481 60.3701 19.6659 60.3826C19.7836 60.395 19.8978 60.4305 20.002 60.487C20.1062 60.5435 20.1983 60.62 20.273 60.7121C20.3478 60.8041 20.4038 60.9099 20.4377 61.0235C20.4716 61.137 20.4829 61.2561 20.4709 61.3739L19.9998 65.7573C19.9873 65.9297 19.9252 66.0946 19.8209 66.2322C19.7167 66.3698 19.5748 66.4742 19.4124 66.5327C19.25 66.5913 19.0739 66.6015 18.9055 66.5622Z" fill="white"/>
<path d="M10.0974 56.2267C9.86571 56.222 9.64458 56.1278 9.48036 55.9637C9.34754 55.8358 9.25715 55.6702 9.22153 55.4894C9.1859 55.3087 9.20676 55.1215 9.28126 54.9534C9.35573 54.7852 9.48022 54.6443 9.63783 54.5497C9.79544 54.4551 9.9785 54.4115 10.1621 54.4247L14.5774 54.5849C14.8163 54.5943 15.042 54.6982 15.2048 54.8737C15.3676 55.0494 15.4543 55.2823 15.4458 55.5212C15.4372 55.7602 15.334 55.9856 15.159 56.148C14.9841 56.3103 14.7516 56.3963 14.5127 56.3869L10.0974 56.2267Z" fill="white"/>
<path d="M22.0418 58.0229C20.7443 59.1492 18.7486 58.8995 17.6061 57.5833C16.4634 56.267 16.5057 54.2666 17.8032 53.1404L21.0652 50.3087C20.6131 50.1145 20.195 49.8607 19.8529 49.4666C19.0695 48.5641 18.8823 47.3492 19.2372 46.3051C18.7186 46.1698 18.2208 45.9232 17.8445 45.4898C17.1049 44.6379 17.0477 43.4873 17.4656 42.4943C17.0282 42.3603 16.6072 42.1452 16.2846 41.7737C15.2417 40.5723 15.5983 38.7475 16.8142 37.6923L23.9926 31.4607C27.7262 28.2196 33.237 28.8033 36.4732 32.5313L37.7512 34.0035C40.0827 36.6893 39.974 40.3242 39.1984 43.8165C38.4228 47.3088 36.9688 50.8226 36.2565 53.5208C36.0355 54.3578 35.4166 54.941 34.75 55.2186C34.0832 55.4964 33.3208 55.5416 32.6523 55.1266C32.0949 54.7806 31.6841 54.2606 31.4809 53.6919C31.2778 53.1232 31.2442 52.5301 31.2664 51.9094C31.2878 51.3112 31.4104 50.5015 31.5003 49.812L22.0418 58.0229Z" fill="#FF0000"/>
<path d="M22.0417 58.0229C20.7443 59.1492 18.7486 58.8995 17.606 57.5833C16.4634 56.267 16.5057 54.2666 17.8032 53.1404L21.0652 50.3087C20.6131 50.1145 20.195 49.8607 19.8529 49.4666C19.0695 48.5641 18.8823 47.3492 19.2372 46.3051C18.7186 46.1698 18.2208 45.9232 17.8445 45.4898C17.1049 44.6379 17.0477 43.4872 17.4656 42.4943C17.0282 42.3603 16.6072 42.1452 16.2846 41.7736C15.2417 40.5723 15.5983 38.7475 16.8141 37.6923L23.9925 31.4607C27.7262 28.2196 33.237 28.8033 36.4732 32.5313L37.7512 34.0035C40.0827 36.6892 39.974 40.3242 39.1984 43.8165C38.4228 47.3088 36.9688 50.8226 36.2564 53.5208C36.0355 54.3577 35.4166 54.941 34.75 55.2186C34.0832 55.4964 33.3208 55.5415 32.6523 55.1266C32.0949 54.7806 31.684 54.2606 31.4809 53.6919C31.2778 53.1232 31.2442 52.5301 31.2663 51.9094C31.2878 51.3112 31.4104 50.5015 31.5003 49.812L22.0417 58.0229Z" fill="#9B621F"/>
<path d="M11.2592 63.5572C11.4247 63.7057 11.6391 63.7876 11.861 63.7871C12.0829 63.7866 12.2964 63.7038 12.4603 63.5547L15.9017 60.5672C15.9923 60.4908 16.0668 60.397 16.1208 60.2914C16.1748 60.1858 16.2072 60.0704 16.2162 59.952C16.2252 59.8336 16.2106 59.7145 16.1732 59.6016C16.1359 59.4887 16.0764 59.3843 15.9985 59.2946C15.9205 59.2047 15.8255 59.1312 15.719 59.0783C15.6125 59.0255 15.4966 58.9942 15.3781 58.9865C15.2596 58.9788 15.1408 58.9947 15.0287 59.0334C14.9165 59.072 14.8132 59.1325 14.7248 59.2115L11.2834 62.199C11.1843 62.2811 11.104 62.3837 11.0482 62.4997C10.9924 62.6158 10.9623 62.7426 10.96 62.8715C10.9577 63.0005 10.9833 63.1285 11.0349 63.2468C11.0865 63.3652 11.1631 63.471 11.2592 63.5572ZM18.4631 66.3113C18.5834 66.4358 18.737 66.523 18.9055 66.5622C19.0739 66.6015 19.25 66.5913 19.4124 66.5327C19.5748 66.4742 19.7167 66.3698 19.8209 66.2322C19.9252 66.0946 19.9873 65.9297 19.9998 65.7573L20.4709 61.3739C20.4829 61.2561 20.4716 61.137 20.4377 61.0235C20.4038 60.9099 20.3478 60.8041 20.2731 60.7121C20.1983 60.62 20.1062 60.5435 20.002 60.487C19.8978 60.4305 19.7836 60.395 19.6659 60.3826C19.5481 60.3701 19.4292 60.3811 19.3158 60.4146C19.2024 60.4482 19.0968 60.5039 19.005 60.5784C18.9133 60.6528 18.8372 60.7447 18.7809 60.8488C18.7248 60.9528 18.6896 61.067 18.6777 61.1847L18.2158 65.5787C18.1999 65.7114 18.2139 65.846 18.2566 65.9728C18.2994 66.0995 18.3699 66.2152 18.4631 66.3113ZM9.48037 55.9637C9.64459 56.1278 9.86572 56.222 10.0974 56.2267L14.5127 56.3869C14.7516 56.3963 14.9841 56.3103 15.159 56.148C15.334 55.9856 15.4372 55.7602 15.4458 55.5212C15.4543 55.2823 15.3677 55.0494 15.2048 54.8737C15.042 54.6982 14.8163 54.5943 14.5774 54.5849L10.1621 54.4247C9.97851 54.4115 9.79545 54.4551 9.63784 54.5497C9.48023 54.6443 9.35574 54.7852 9.28127 54.9534C9.20677 55.1215 9.18591 55.3087 9.22154 55.4894C9.25716 55.6702 9.34755 55.8358 9.48037 55.9637ZM17.6061 57.5833C18.7486 58.8995 20.7443 59.1492 22.0418 58.0229L31.5003 49.812C31.4105 50.5015 31.2878 51.3112 31.2664 51.9094C31.2442 52.5301 31.2778 53.1232 31.4809 53.6919C31.6841 54.2606 32.0949 54.7806 32.6523 55.1266C33.3208 55.5416 34.0833 55.4964 34.75 55.2186C35.4166 54.941 36.0355 54.3578 36.2565 53.5208C36.9688 50.8226 38.4228 47.3088 39.1984 43.8165C39.974 40.3242 40.0827 36.6892 37.7512 34.0035L36.4732 32.5313C33.237 28.8033 27.7262 28.2196 23.9926 31.4607L16.8142 37.6923C15.5983 38.7475 15.2417 40.5723 16.2846 41.7736C16.6072 42.1452 17.0282 42.3603 17.4656 42.4943C17.0477 43.4872 17.1049 44.6379 17.8445 45.4898C18.2208 45.9232 18.7186 46.1698 19.2372 46.3051C18.8823 47.3492 19.0695 48.5641 19.8529 49.4666C20.195 49.8607 20.6131 50.1145 21.0652 50.3087L17.8032 53.1404C16.5057 54.2666 16.4634 56.267 17.6061 57.5833ZM18.9573 56.4103C18.4049 55.774 18.4586 54.9486 18.9801 54.496L27.3619 47.2198C27.4526 47.1434 27.5271 47.0496 27.5811 46.944C27.635 46.8384 27.6675 46.723 27.6765 46.6046C27.6855 46.4862 27.6709 46.3671 27.6335 46.2542C27.5961 46.1413 27.5367 46.037 27.4587 45.9471C27.3807 45.8573 27.2857 45.7838 27.1793 45.7309C27.0728 45.6781 26.9569 45.6468 26.8384 45.6392C26.7199 45.6314 26.6011 45.6473 26.4889 45.686C26.3768 45.7246 26.2735 45.7852 26.1851 45.8641L23.0498 48.5858C23.0287 48.5968 23.008 48.6085 22.9878 48.6211C22.4755 48.9697 21.7187 48.8864 21.2041 48.2937C20.6521 47.6578 20.7024 46.8357 21.227 46.3794L24.4587 43.5555C24.5493 43.4791 24.6237 43.3853 24.6777 43.2797C24.7318 43.1741 24.7642 43.0587 24.7732 42.9403C24.7822 42.8219 24.7676 42.7027 24.7302 42.5899C24.6928 42.477 24.6334 42.3726 24.5554 42.2828C24.4775 42.193 24.3824 42.1195 24.276 42.0666C24.1694 42.0138 24.0536 41.9825 23.9351 41.9748C23.8166 41.9671 23.6978 41.983 23.5856 42.0217C23.4735 42.0602 23.3702 42.1208 23.2818 42.1998L20.7785 44.3914C20.775 44.3945 20.7714 44.3975 20.7679 44.4006C20.7259 44.4144 20.6849 44.4314 20.6453 44.4513C20.1033 44.7696 19.5209 44.6913 19.1957 44.3168C18.8236 43.8881 18.8796 43.1611 19.459 42.6581L21.9081 40.5321C21.9987 40.4556 22.0732 40.3619 22.1272 40.2563C22.1812 40.1507 22.2137 40.0353 22.2226 39.9169C22.2317 39.7985 22.2171 39.6794 22.1797 39.5665C22.1423 39.4537 22.0829 39.3493 22.0049 39.2594C21.9269 39.1696 21.8319 39.0961 21.7254 39.0432C21.6189 38.9904 21.5031 38.9592 21.3846 38.9514C21.2661 38.9437 21.1472 38.9597 21.0351 38.9982C20.923 39.0369 20.8197 39.0975 20.7312 39.1765L19.1161 40.5786C19.0807 40.5937 19.0464 40.6111 19.0133 40.6307C18.4503 40.9855 17.8979 40.9025 17.6358 40.6006C17.3408 40.2607 17.3878 39.5714 17.991 39.0479L25.1694 32.8164C28.1762 30.2062 32.476 30.6563 35.122 33.7043L36.4 35.1765C38.1834 37.2309 38.1755 40.1514 37.4491 43.422C36.7227 46.6927 35.2879 50.1561 34.5219 53.0579C34.4554 53.3093 34.2832 53.4775 34.0597 53.5705C33.8362 53.6636 33.6134 53.6202 33.5908 53.6061C33.3489 53.456 33.2564 53.3189 33.1706 53.0794C33.085 52.8398 33.0407 52.4695 33.0586 51.9695C33.0944 50.9695 33.3631 49.5222 33.52 47.7243C33.5352 47.5471 33.4973 47.3692 33.411 47.2133C33.3249 47.0573 33.1944 46.9304 33.0361 46.8487C32.8778 46.767 32.6989 46.7342 32.5223 46.7545C32.3457 46.7748 32.1792 46.8472 32.0442 46.9626L20.8649 56.6673C20.3434 57.1199 19.5096 57.0465 18.9573 56.4103Z" fill="black"/>
</g>
<path d="M9.56145 23.6097C9.63829 23.6087 9.69411 23.5762 9.72362 23.5383C9.77527 23.4721 9.77432 23.3953 9.75652 23.3205C9.69061 22.9952 9.4996 22.5571 9.32927 22.4243C9.2441 22.3579 9.1315 22.3462 9.00831 22.3871C8.37873 22.5505 7.62771 23.0453 7.07429 23.755C5.94531 25.2029 6.30772 26.6115 7.37706 27.4454C8.64512 28.4341 9.80548 27.9998 11.2337 27.1049C12.2228 26.461 13.0187 26.2599 13.6811 26.7764C14.4287 27.3593 14.2729 28.2422 13.6309 29.0655C12.9078 29.9928 11.7877 30.1998 10.6685 29.7228C10.5875 29.69 10.5201 29.6984 10.4685 29.7646C10.4316 29.8119 10.4304 29.8719 10.4651 29.9446C10.5785 30.1699 10.7308 30.3648 10.9863 30.5641C11.9327 31.302 13.3379 31.1195 14.4153 29.7379C15.714 28.0724 15.3652 26.7048 14.2864 25.8636C13.1035 24.9412 11.8947 25.3986 10.5054 26.2631C9.34471 26.971 8.67936 27.1218 7.96963 26.5683C7.31667 26.0592 7.19241 25.2623 7.85652 24.4106C8.24022 23.9185 8.8974 23.5636 9.56145 23.6097Z" fill="black"/>
<path d="M18.9839 25.3179C19.6016 24.8614 20.2457 24.4006 20.8006 23.9594C20.9498 23.8379 20.9818 23.697 20.891 23.5701C20.7933 23.4335 20.4749 23.071 20.3117 22.9665C20.2028 22.8968 20.1331 22.9024 20.0647 22.9513C20.0062 22.9932 19.9713 23.0476 19.8947 23.1467C19.4863 23.6897 18.6708 24.4059 17.685 25.111C17.0409 25.5718 16.8358 25.512 15.8304 24.1065C15.1113 23.1013 15.3132 22.5585 16.3185 21.8394C16.8943 21.4274 17.5052 21.2708 17.6516 21.1661C17.7297 21.1102 17.7645 21.0558 17.7295 20.9037C17.6764 20.7057 17.5646 20.4463 17.4738 20.3194C17.3202 20.1047 16.867 20.2961 16.4083 20.6243C15.647 21.1689 15.2652 21.7076 14.9138 21.9589C14.7089 22.1055 14.5847 22.0763 14.4032 21.8226C13.8376 21.032 13.2147 19.9137 13.2465 19.4631C13.2658 19.2427 13.3899 19.0654 13.8193 18.7582C14.7563 18.088 15.3768 17.8211 15.7813 17.6646C15.8733 17.6283 15.9626 17.6087 16.0114 17.5738C16.0894 17.5179 16.1103 17.444 16.0907 17.3547C16.0362 17.1134 15.8615 16.6629 15.7707 16.5361C15.7218 16.4677 15.6311 16.4441 15.4875 16.5321C14.9911 16.8282 14.2033 17.3769 13.4518 17.9145C12.8565 18.3404 12.2876 18.7621 12.0158 19.0008C11.8861 19.1083 11.8541 19.2492 11.9408 19.4528C12.7498 21.3676 14.029 23.4033 15.2718 25.1406C15.6697 25.6969 16.0565 26.217 16.4181 26.6812C16.5954 26.9085 16.7405 26.8638 16.9622 26.7199C17.5129 26.3554 18.2422 25.8486 18.9839 25.3179Z" fill="black"/>
<path d="M24.239 22.7476C24.9605 22.4841 25.7086 22.2241 26.3655 21.9577C26.5429 21.8833 26.6134 21.7572 26.5622 21.6098C26.5071 21.4511 26.3042 21.0135 26.1771 20.8671C26.0923 20.7695 26.0238 20.7552 25.9445 20.7828C25.8765 20.8064 25.8277 20.8488 25.7261 20.9222C25.181 21.3276 24.1963 21.7842 23.0515 22.1821C22.3034 22.4421 22.1236 22.3267 21.5563 20.6945C21.1505 19.527 21.4976 19.0634 22.6651 18.6576C23.3338 18.4252 23.9641 18.4475 24.1341 18.3884C24.2248 18.3569 24.2736 18.3145 24.283 18.1588C24.288 17.9538 24.254 17.6734 24.2028 17.5261C24.1161 17.2767 23.6273 17.3323 23.0945 17.5174C22.2104 17.8247 21.6919 18.2336 21.2839 18.3754C21.0458 18.4581 20.935 18.395 20.8325 18.1003C20.5134 17.1822 20.2319 15.9334 20.3897 15.5102C20.4705 15.3042 20.6396 15.1692 21.1383 14.9959C22.2265 14.6177 22.8972 14.537 23.3294 14.5012C23.4279 14.4923 23.5191 14.4988 23.5758 14.4791C23.6664 14.4475 23.7073 14.3825 23.7138 14.2913C23.7296 14.0445 23.6893 13.563 23.6381 13.4156C23.6105 13.3363 23.5302 13.288 23.3676 13.3318C22.8078 13.4756 21.897 13.7794 21.0242 14.0827C20.3328 14.323 19.668 14.5668 19.3397 14.719C19.185 14.7855 19.1145 14.9116 19.1401 15.1314C19.3751 17.1967 20.027 19.511 20.7282 21.5286C20.9528 22.1747 21.1768 22.7828 21.3925 23.3303C21.4984 23.5984 21.6502 23.5965 21.9035 23.5212C22.5348 23.3272 23.3775 23.047 24.239 22.7476Z" fill="black"/>
<path d="M32.0599 21.7928C32.2753 21.8082 32.3848 21.7919 32.4831 21.7628C32.6062 21.7235 32.6481 21.6423 32.6703 21.4995C32.6857 21.2841 32.537 19.3245 32.6781 17.3495C32.7713 16.0448 32.9432 14.818 33.1595 13.8108C33.2142 13.5501 33.3023 13.4962 33.5178 13.5116C34.3796 13.5732 34.8652 14.1853 35.1764 14.2076C35.2721 14.2144 35.3363 14.1588 35.4047 14.0434C35.5149 13.8468 35.5765 13.6587 35.5868 13.5151C35.5979 13.3595 35.5714 13.2252 35.3636 13.1021C34.8447 12.7883 33.9931 12.5831 32.7004 12.4908C31.5633 12.4095 30.6186 12.4984 30.251 12.5924C30.0671 12.6395 29.9645 12.7284 29.903 12.9165C29.8585 13.0336 29.7756 13.3525 29.7628 13.532C29.7516 13.6876 29.8192 13.7526 29.9149 13.7595C30.1543 13.7766 30.9452 13.3158 31.9386 13.3867C32.1062 13.3987 32.1498 13.462 32.1396 13.6056C32.0823 14.4076 31.6718 15.6054 31.4401 18.8491C31.3785 19.7109 31.3648 20.5761 31.3922 21.3721C31.3879 21.6004 31.4913 21.6679 31.6204 21.7132C31.7726 21.7722 31.9043 21.7816 32.0599 21.7928Z" fill="black"/>
<path d="M35.985 22.3235C36.0966 22.3677 36.1858 22.403 36.313 22.4405C36.4334 22.4624 36.4957 22.4354 36.5531 22.2904C36.6592 22.0227 36.8777 20.6894 37.2844 19.663C37.5761 18.9267 38.2238 18.6929 39.8861 19.3515C41.0129 19.7979 41.416 20.4094 41.1552 21.0676C40.8546 21.8263 39.9947 23.2797 39.8665 23.6033C39.809 23.7483 39.8583 23.8194 39.9722 23.8904C40.0861 23.9613 40.1865 24.0011 40.2757 24.0364C40.365 24.0718 40.4698 24.1004 40.5858 24.1335C40.762 24.1775 40.8554 24.1371 41.0084 23.9137C41.2768 23.5296 41.9432 22.206 42.5444 20.6887C43.5478 18.1563 43.9636 16.4881 44.0153 15.9665C44.0503 15.748 44.0099 15.6546 43.8737 15.5748C43.7598 15.5039 43.6594 15.4641 43.559 15.4243C43.4697 15.3889 43.3649 15.3603 43.2668 15.3473C43.1532 15.3409 43.0976 15.3835 43.0534 15.495C42.8942 15.8966 42.6697 17.4082 41.9668 19.182C41.8917 19.3717 41.8161 19.4321 41.6934 19.3835C41.4926 19.3039 41.1257 18.8617 40.1551 18.4771C39.1734 18.0881 38.5383 18.0946 38.2148 17.9664C38.092 17.9178 38.0249 17.8267 38.0824 17.6816C38.6526 16.2425 39.8147 14.5474 39.9252 14.2685C39.9739 14.1458 39.9625 14.0767 39.8977 14.0123C39.8396 13.9635 39.6989 13.8949 39.5651 13.8418C39.4424 13.7932 39.2929 13.7469 39.1681 13.7361C39.0544 13.7298 38.981 13.7523 38.8456 13.9311C38.5217 14.3577 37.6306 15.8247 36.6316 18.346C36.0305 19.8632 35.6095 21.284 35.5419 21.7478C35.487 21.9841 35.5362 22.0553 35.6457 22.1374C35.7596 22.2083 35.8734 22.2792 35.985 22.3235Z" fill="black"/>
<path d="M43.9318 26.6966C44.534 27.1734 45.1472 27.6746 45.7181 28.0948C45.8744 28.2071 46.0187 28.2011 46.1175 28.0803C46.2238 27.9502 46.4904 27.5482 46.5486 27.3633C46.5874 27.24 46.5637 27.1742 46.4987 27.121C46.4429 27.0754 46.3813 27.056 46.2656 27.008C45.6348 26.7558 44.7302 26.1559 43.7919 25.3888C43.1787 24.8876 43.1828 24.674 44.2764 23.3361C45.0587 22.3791 45.6354 22.4321 46.5923 23.2143C47.1405 23.6624 47.4515 24.2111 47.5908 24.325C47.6651 24.3857 47.7268 24.4051 47.8644 24.3316C48.0416 24.2285 48.2628 24.0528 48.3615 23.932C48.5286 23.7276 48.2253 23.3402 47.7886 22.9833C47.0639 22.3909 46.4441 22.1632 46.1096 21.8898C45.9145 21.7303 45.9103 21.6028 46.1077 21.3612C46.7229 20.6087 47.6394 19.715 48.0827 19.6278C48.3005 19.5889 48.504 19.6623 48.9128 19.9964C49.8047 20.7255 50.2246 21.2547 50.4814 21.6041C50.5405 21.6835 50.5828 21.7645 50.6292 21.8025C50.7036 21.8633 50.7804 21.8641 50.8614 21.8218C51.0801 21.706 51.4692 21.4196 51.5679 21.2989C51.6211 21.2338 51.6202 21.1401 51.4977 21.0245C51.0821 20.6228 50.3464 20.0059 49.631 19.4211C49.0643 18.9578 48.5085 18.519 48.207 18.3191C48.0694 18.222 47.925 18.228 47.7511 18.3649C46.1146 19.6464 44.4841 21.4135 43.1323 23.0672C42.6994 23.5968 42.2985 24.1061 41.945 24.5766C41.772 24.8071 41.8531 24.9354 42.0499 25.1118C42.5457 25.5481 43.2257 26.1194 43.9318 26.6966Z" fill="black"/>
<path d="M48.737 32.7015C49.9268 35.1118 51.981 35.3423 53.9502 34.3703C57.2213 32.7556 57.9782 30.6289 56.6502 27.9388C56.5121 27.659 56.3527 27.363 56.2143 27.1369C56.1451 27.0239 56.022 26.9642 55.8446 27.0116C54.9472 27.2539 53.4689 27.7293 51.2307 28.8342C48.9926 29.939 48.244 30.4557 48.0063 30.7604C47.9252 30.8673 47.9247 30.9746 48.0042 31.1629C48.0838 31.3511 48.3227 31.8622 48.737 32.7015ZM49.4974 31.9648C49.4071 31.7818 49.3277 31.5668 49.3986 31.3578C49.5458 30.8971 50.6005 30.3497 51.9348 29.691C53.6672 28.8359 55.0762 28.2474 55.5584 28.4108C55.7031 28.4599 55.8311 28.6108 55.8895 28.7292C56.7128 30.397 56.1139 32.0844 53.5744 33.338C51.7344 34.2463 50.4004 33.794 49.4974 31.9648Z" fill="black"/>
<path d="M50.619 37.2681C50.6399 37.4227 50.6711 37.5638 50.7078 37.6557C50.7714 37.7682 50.8476 37.7942 50.9887 37.763C51.2725 37.7125 51.6819 37.427 52.1457 37.3643C53.1208 37.2323 53.7676 38.3436 53.9462 39.6636C54.0927 40.7457 53.8343 41.2529 53.0376 41.3608C52.3122 41.4589 51.7751 41.3378 51.4541 41.3813C51.3232 41.399 51.2567 41.4443 51.2371 41.568C51.2349 41.641 51.2375 41.7496 51.2552 41.8804C51.2729 42.0112 51.2993 42.1167 51.3256 42.2221C51.3719 42.3853 51.4205 42.4756 51.5783 42.4785C52.3031 42.4652 52.9484 42.4021 53.5668 42.3184C56.4683 41.9259 58.5474 41.0028 60.109 38.6723C60.1794 38.5659 60.2038 38.4779 60.1909 38.3827C60.178 38.2876 60.1327 38.2211 60.0334 38.1134C57.8742 36.1169 55.2656 35.9007 52.7446 36.2418C52.0906 36.3303 51.4548 36.4648 50.8207 36.6111C50.6099 36.6638 50.5752 36.7654 50.5858 36.9335C50.5884 37.0421 50.6029 37.1492 50.619 37.2681ZM54.067 37.3344C54.0558 37.2511 54.1072 37.1836 54.2142 37.1691C55.4509 37.0018 57.7021 37.3511 58.7928 38.3418C58.8905 38.4376 58.9445 38.4787 58.9526 38.5382C58.9606 38.5976 58.9076 38.6532 58.8475 38.7461C58.1823 39.6475 56.6539 40.7019 55.2507 40.8918C55.0842 40.9143 54.9859 40.9034 54.9617 40.725C54.9328 40.511 54.944 40.1462 54.8555 39.4921C54.6946 38.303 54.1024 37.596 54.067 37.3344Z" fill="black"/>
<path d="M50.794 45.8334C50.757 46.0462 50.7622 46.1567 50.7812 46.2575C50.8079 46.3839 50.8845 46.4338 51.0243 46.4703C51.2372 46.5073 53.2018 46.5565 55.1525 46.8957C56.4412 47.1197 57.6445 47.4142 58.6248 47.7308C58.8787 47.8115 58.9234 47.9045 58.8864 48.1173C58.7384 48.9685 58.0805 49.3901 58.027 49.6975C58.0106 49.792 58.0594 49.8614 58.1674 49.9411C58.3519 50.0706 58.5329 50.1508 58.6747 50.1755C58.8284 50.2022 58.9647 50.1893 59.1081 49.995C59.4725 49.5103 59.7623 48.6837 59.9843 47.4069C60.1796 46.2837 60.1862 45.3348 60.1297 44.9596C60.1014 44.772 60.0233 44.661 59.8423 44.5808C59.7303 44.5248 59.4213 44.4101 59.244 44.3793C59.0903 44.3526 59.0189 44.4132 59.0024 44.5078C58.9613 44.7443 59.3402 45.5775 59.1696 46.5588C59.1408 46.7243 59.0735 46.7613 58.9316 46.7366C58.1395 46.5989 56.9891 46.07 53.7851 45.513C52.9339 45.365 52.0744 45.2643 51.2798 45.2114C51.0531 45.1842 50.9755 45.2803 50.9174 45.4042C50.8434 45.5496 50.8208 45.6797 50.794 45.8334Z" fill="black"/>
<path d="M49.8949 49.6283C49.8232 49.7669 49.7677 49.9003 49.745 49.9966C49.7325 50.1252 49.7799 50.1903 49.9133 50.2458C50.1746 50.3674 50.6737 50.3689 51.0894 50.5838C51.9635 51.0359 51.8548 52.3171 51.2429 53.5003C50.7412 54.4702 50.2385 54.7371 49.5243 54.3677C48.8741 54.0315 48.504 53.6239 48.2162 53.4751C48.0989 53.4144 48.0184 53.4133 47.9313 53.5034C47.8876 53.5618 47.8273 53.6522 47.7667 53.7695C47.7061 53.8867 47.6671 53.9882 47.6282 54.0896C47.5723 54.2499 47.5602 54.3517 47.6877 54.4447C48.2887 54.85 48.8532 55.169 49.4075 55.4557C52.0083 56.8007 54.2403 57.2391 56.8572 56.2282C56.9759 56.1815 57.0464 56.1234 57.0905 56.0382C57.1346 55.9529 57.1357 55.8724 57.1163 55.7272C56.4953 52.8527 54.4841 51.1776 52.2244 50.009C51.6381 49.7058 51.0405 49.4507 50.4374 49.2063C50.2345 49.1284 50.1477 49.1917 50.0599 49.3354C49.9996 49.4258 49.95 49.5217 49.8949 49.6283ZM52.6795 51.6629C52.7181 51.5882 52.7989 51.5625 52.8948 51.6121C54.0034 52.1854 55.6456 53.7643 55.9695 55.2017C55.9945 55.3362 56.0151 55.4009 55.9875 55.4542C55.96 55.5075 55.8846 55.5226 55.7821 55.5641C54.7199 55.9199 52.8631 55.9053 51.6054 55.2549C51.4561 55.1777 51.3819 55.1123 51.4646 54.9524C51.5638 54.7605 51.7825 54.4683 52.0857 53.8821C52.6369 52.8162 52.5582 51.8973 52.6795 51.6629Z" fill="black"/>
<defs>
<clipPath id="clip0">
<rect width="30.9014" height="38.2589" fill="white" transform="translate(13.6233 70.0288) rotate(-115.961)"/>
</clipPath>
</defs>
</svg>
