<svg viewBox="0 0 370 521" fill="none" xmlns="http://www.w3.org/2000/svg">
<path d="M657.675 410.693C526.153 289.269 410.203 327.377 307.035 346.17C236.77 353.195 203.047 338.504 186.625 289.493C187.49 289.135 188.221 288.852 188.803 288.643C215.262 329.764 245.48 342.561 308.631 318.577C414.036 278.814 548.764 218.885 721.66 370.974C699.495 382.816 678.121 396.083 657.675 410.693V410.693ZM507.002 614.911C452.114 520.588 397.615 486.999 301.77 436.899C208.103 388.201 162.94 367.275 176.483 294.281C177.512 293.714 178.586 293.147 179.69 292.61C175.215 358.52 216.873 377.626 303.485 409.276C401.567 438.42 474.77 450.188 537.921 539.963C524.511 563.549 514.123 588.73 507.002 614.911ZM372.229 736.589C385.16 558.084 283.066 491.175 204.061 422.223C154.752 371.645 145.161 336.147 173.321 292.744L175.32 293.908C159.674 340.234 168.533 371.854 226.642 406.264C323.442 463.881 454.247 531.789 443.18 761.855C420.102 751.905 396.402 743.465 372.229 736.589V736.589ZM118.672 746.134C158.197 644.398 150.471 580.86 129.888 474.679C109.544 371.094 97.746 322.724 163.238 287.778C164.327 288.21 165.446 288.717 166.549 289.269C112.214 326.841 123.296 371.302 152.47 458.75C190.801 553.61 227.194 618.118 196.424 723.478C169.644 727.737 143.507 735.349 118.627 746.134H118.672ZM-60.5332 716.632C87.1264 615.418 75.7462 493.89 80.3848 389.126C89.1698 319.025 111.006 289.463 162.418 284.362C162.567 285.272 162.672 286.063 162.746 286.659C116.778 303.319 97.567 329.913 106.904 396.837C122.252 508.447 150.725 653.064 -36.0426 787.777C-42.6649 763.559 -50.8455 739.795 -60.5332 716.632V716.632ZM-226.091 524.227C-121.909 491.712 -77.0443 446.042 -6.83882 363.74C61.4724 283.199 91.9291 243.883 160.091 273.28C160.419 274.414 160.718 275.592 161.001 276.785C97.746 257.739 69.9144 294.132 19.725 371.452C-30.5688 460.644 -58.3109 529.403 -159.898 570.986C-179.926 552.704 -202.175 537.014 -226.121 524.287L-226.091 524.227ZM-314.761 365.829C-143.581 418.151 -55.6411 333.507 29.1514 271.863C89.4084 235.038 126.174 233.651 162.239 270.7C161.613 271.386 161.076 271.968 160.643 272.4C118.97 246.836 86.1719 248.432 39.6964 297.428C-38.0263 378.984 -133.319 491.324 -355.167 429.412C-340.33 409.118 -326.833 387.879 -314.761 365.829V365.829ZM-267.615 116.448C-177.229 177.6 -113.556 184.222 -5.4517 187.787C100.073 191.008 149.845 190.278 169.339 261.9C168.667 262.855 167.937 263.839 167.191 264.794C142.641 203.463 96.8213 204.402 5.07837 213.366C-95.9417 229.654 -166.997 250.833 -262.842 197.332C-261.031 170.277 -262.635 143.102 -267.615 116.448V116.448ZM-199.005 -51.6606C-133.185 114.792 -12.1784 130.766 88.9312 158.643C155.274 182.79 179.287 210.667 172.799 261.96L170.487 261.781C164.521 213.262 142.79 188.607 75.4926 182.82C-36.7138 172.916 -184.03 168.472 -273.879 -43.5915C-248.768 -44.6596 -223.753 -47.355 -198.99 -51.6606H-199.005ZM25.3629 -170.28C33.8795 -61.4746 68.408 -7.57139 133.035 79.16C196.305 163.669 227.925 202.135 184.075 262.034C182.911 262.034 181.688 262.139 180.465 262.154C213.114 204.715 183.821 169.486 119.612 103.337C43.9024 34.5638 -16.9513 -7.82498 -34.8942 -116.079C-12.6123 -131.55 7.63703 -149.76 25.3779 -170.28H25.3629ZM199.572 -221.439C110.469 -66.2028 173.425 38.3672 214.695 134.764C237.187 201.703 230.371 237.857 186.222 264.764C185.686 264.018 185.238 263.362 184.91 262.84C219.11 227.894 224.853 195.558 187.431 139.343C125.22 45.3773 36.7879 -72.4522 146.608 -274.97C163.093 -256.001 180.789 -238.12 199.586 -221.439H199.572ZM432.247 -120.017C352.481 -45.4857 331.869 15.1741 304.335 119.729C277.712 221.883 267.361 270.566 193.188 273.653C192.397 272.773 191.696 271.848 190.846 270.894C256.1 260.617 265.422 215.708 277.056 124.308C283.648 22.1992 278.831 -51.7947 352.302 -133.336C378.276 -125.554 405.125 -121.069 432.218 -119.987L432.247 -120.017ZM580.877 -15.7001C403.939 11.4156 361.445 125.829 311.808 218.214C273.491 277.531 240.976 294.728 192.487 276.994C192.74 276.114 192.979 275.354 193.173 274.772C241.826 279.724 270.732 264.063 291.3 199.749C325.828 92.5836 362.922 -50.0645 589.632 -90.4696C585.084 -65.7534 582.15 -40.7677 580.847 -15.6704L580.877 -15.7001ZM646.593 229.43C538.622 213.53 478.395 235.202 379.448 278.903C282.977 321.769 238.455 344.038 189.802 287.972C189.996 286.808 190.235 285.615 190.488 284.422C239.216 329.033 280.083 308.286 358.865 260.424C442.807 201.912 497.576 152.02 607.202 158.613C617.303 183.784 630.527 207.586 646.563 229.46L646.593 229.43ZM565.768 497.887C489.104 404.936 403.879 407.203 304.365 391.527C222.407 370.646 182.956 352.882 181.703 291.596L184.82 290.209C195.172 344.127 231.057 360.042 305.976 363.919C407.712 358.61 511.641 334.537 618.97 441.478C599.499 458.563 581.685 477.45 565.768 497.887V497.887ZM246.778 719.168C271.656 601.234 216.754 536.01 166.952 448.443C132.125 371.377 121.461 329.421 168.593 290.239C169.667 290.776 170.696 291.313 171.576 291.82C135.854 333.582 145.847 371.556 189.474 432.484C257.114 508.715 340.743 574.954 324.143 725.537C298.614 720.971 272.71 718.839 246.778 719.168V719.168ZM-125.101 607.647C-17.4136 553.61 -0.663931 469.996 36.7432 376.463C75.2988 301.186 101.445 266.703 161.478 279.127C161.717 280.29 161.941 281.424 162.135 282.468C107.262 280.559 83.7407 312.075 63.307 384.174C45.8414 484.553 46.1994 591.226 -81.9215 672.036C-94.2471 649.257 -108.705 627.697 -125.101 607.647V607.647ZM-269.777 247.402C-160.375 297.89 -84.5764 258.872 11.8797 229.803C94.763 213.008 138.032 211.904 165.759 266.613C164.998 267.538 164.267 268.418 163.537 269.223C130.828 225.119 91.5264 226.387 22.4097 255.367C-66.9766 304.304 -150.158 371.094 -293.254 321.337C-283.122 297.487 -275.271 272.732 -269.807 247.402H-269.777ZM-78.3717 -90.3503C-49.6452 26.6588 28.1372 61.59 111.05 118.879C175.871 173.215 203.673 206.386 178.168 262.064C176.975 262.064 175.812 262.064 174.753 261.96C188.833 208.892 163.328 178.957 97.5819 142.997C3.61668 103.636 -100.476 80.234 -150.785 -62.6678C-125.828 -69.5903 -101.582 -78.8591 -78.3717 -90.3503V-90.3503ZM305.051 -151.279C231.475 -55.8218 252.654 26.7483 259.53 127.246C257.457 211.8 248.866 254.219 189.429 269.074C188.698 268.12 187.938 267.195 187.371 266.33C237.65 244.255 245.152 205.655 232.28 131.825C204.464 33.818 157.854 -62.0712 238.246 -190.58C259.22 -175.394 281.589 -162.235 305.051 -151.279V-151.279ZM591.735 110.527C471.25 112.495 419.883 180.628 345.635 248.581C278.234 299.68 239.738 319.413 191.025 282.185C191.309 281.021 191.592 279.903 191.875 278.874C240.484 304.408 275.4 286.212 325.037 230.116C384.325 147.262 430.293 50.9852 580.802 33.7285C582.013 59.6156 585.673 85.33 591.735 110.527V110.527Z" fill="#925C1E" fill-opacity="0.09"/>
</svg>
