<svg width="370" height="521" viewBox="0 0 370 521" fill="none" xmlns="http://www.w3.org/2000/svg">
<path d="M539.246 372.179C440.555 281.065 353.549 309.661 276.134 323.762C223.409 329.034 198.104 318.01 185.782 281.233C186.431 280.964 186.979 280.752 187.416 280.595C207.27 311.451 229.945 321.054 277.332 303.057C356.425 273.22 457.522 228.25 587.259 342.375C570.627 351.26 554.588 361.216 539.246 372.179V372.179ZM426.185 525.419C384.998 454.641 344.103 429.437 272.184 391.843C201.898 355.301 168.009 339.599 178.171 284.826C178.944 284.4 179.749 283.975 180.578 283.572C177.22 333.029 208.479 347.366 273.471 371.115C347.069 392.984 401.999 401.815 449.385 469.179C439.323 486.878 431.528 505.773 426.185 525.419ZM325.054 616.722C334.758 482.777 258.149 432.57 198.865 380.83C161.865 342.878 154.668 316.241 175.799 283.673L177.298 284.546C165.558 319.308 172.206 343.035 215.81 368.855C288.446 412.089 386.599 463.046 378.294 635.681C360.977 628.215 343.193 621.882 325.054 616.722V616.722ZM134.791 623.885C164.45 547.545 158.653 499.867 143.208 420.192C127.942 342.464 119.089 306.169 168.233 279.946C169.05 280.271 169.889 280.651 170.718 281.065C129.945 309.258 138.261 342.621 160.152 408.239C188.916 479.42 216.224 527.825 193.135 606.885C173.04 610.08 153.427 615.792 134.758 623.885H134.791ZM0.320402 601.748C111.121 525.799 102.581 434.607 106.062 355.995C112.654 303.393 129.039 281.211 167.617 277.383C167.729 278.066 167.808 278.659 167.864 279.107C133.37 291.608 118.955 311.563 125.961 361.781C137.478 445.531 158.843 554.048 18.6976 655.133C13.7283 636.961 7.58983 619.128 0.320402 601.748V601.748ZM-123.91 457.372C-45.7344 432.973 -12.0691 398.704 40.6114 336.946C91.8704 276.51 114.724 247.008 165.871 269.067C166.118 269.918 166.342 270.802 166.554 271.698C119.089 257.405 98.2051 284.714 60.5442 342.733C22.805 409.66 1.98801 461.255 -74.2402 492.458C-89.2689 478.74 -105.964 466.967 -123.932 457.416L-123.91 457.372ZM-190.446 338.513C-61.9963 377.775 3.99135 314.26 67.6175 268.004C112.833 240.371 140.421 239.33 167.483 267.131C167.013 267.646 166.61 268.082 166.286 268.407C135.015 249.224 110.404 250.422 75.5302 287.187C17.209 348.385 -54.2962 432.682 -220.765 386.225C-209.632 370.997 -199.505 355.059 -190.446 338.513V338.513ZM-155.068 151.384C-87.2453 197.271 -39.4669 202.24 41.6522 204.915C120.835 207.333 158.183 206.784 172.81 260.528C172.307 261.244 171.758 261.983 171.199 262.699C152.777 216.678 118.395 217.383 49.5537 224.109C-26.2492 236.331 -79.5676 252.224 -151.487 212.078C-150.128 191.777 -151.332 171.385 -155.068 151.384V151.384ZM-103.585 25.2399C-54.1955 150.142 36.6047 162.128 112.475 183.046C162.256 201.166 180.275 222.084 175.407 260.573L173.672 260.438C169.195 224.031 152.889 205.531 102.391 201.188C18.1939 193.757 -92.3488 190.422 -159.769 31.2948C-140.926 30.4933 -122.155 28.4707 -103.574 25.2399H-103.585ZM64.7748 -63.7694C71.1653 17.8757 97.0747 58.3233 145.569 123.404C193.045 186.818 216.772 215.682 183.868 260.629C182.995 260.629 182.077 260.707 181.16 260.718C205.659 217.618 183.678 191.183 135.497 141.546C78.6863 89.9405 33.0232 58.133 19.5593 -23.098C36.2791 -34.7071 51.4737 -48.3713 64.7859 -63.7694H64.7748ZM195.497 -102.158C128.636 14.3278 175.877 92.7945 206.845 165.128C223.723 215.357 218.608 242.487 185.48 262.677C185.077 262.117 184.741 261.625 184.495 261.233C210.158 235.01 214.467 210.746 186.386 168.564C139.705 98.0547 73.3477 9.63837 155.754 -142.326C168.124 -128.092 181.403 -114.674 195.508 -102.158H195.497ZM370.091 -26.0527C310.236 29.8734 294.769 75.391 274.109 153.846C254.131 230.5 246.364 267.031 190.706 269.347C190.113 268.687 189.587 267.993 188.949 267.277C237.914 259.565 244.909 225.867 253.639 157.282C258.585 80.6625 254.97 25.1393 310.102 -36.047C329.592 -30.2081 349.739 -26.8428 370.068 -26.0303L370.091 -26.0527ZM481.618 52.2238C348.848 72.5707 316.963 158.424 279.716 227.747C250.964 272.257 226.565 285.161 190.18 271.854C190.371 271.194 190.55 270.623 190.695 270.187C227.203 273.902 248.893 262.151 264.327 213.891C290.236 133.477 318.071 26.4375 488.188 -3.8814C484.776 14.665 482.574 33.4137 481.596 52.246L481.618 52.2238ZM530.93 236.163C449.912 224.233 404.718 240.494 330.471 273.287C258.082 305.452 224.674 322.162 188.166 280.091C188.311 279.218 188.49 278.323 188.681 277.428C225.245 310.903 255.911 295.335 315.026 259.42C378.015 215.514 419.111 178.077 501.372 183.024C508.952 201.912 518.874 219.772 530.908 236.186L530.93 236.163ZM470.281 437.607C412.754 367.859 348.804 369.56 274.131 357.797C212.631 342.128 183.029 328.799 182.089 282.811L184.428 281.77C192.195 322.229 219.123 334.171 275.34 337.081C351.68 333.096 429.665 315.033 510.202 395.279C495.592 408.099 482.225 422.272 470.281 437.607V437.607ZM230.919 603.65C249.587 515.156 208.39 466.213 171.02 400.505C144.887 342.677 136.884 311.194 172.251 281.793C173.057 282.196 173.829 282.598 174.489 282.979C147.685 314.316 155.183 342.811 187.92 388.53C238.675 445.732 301.428 495.435 288.972 608.429C269.815 605.004 250.377 603.403 230.919 603.65V603.65ZM-48.1295 519.968C32.6763 479.42 45.2448 416.678 73.3142 346.493C102.245 290.007 121.865 264.132 166.912 273.455C167.091 274.328 167.259 275.178 167.405 275.962C126.23 274.529 108.58 298.178 93.247 352.279C80.1413 427.601 80.4099 507.646 -15.7288 568.284C-24.9776 551.191 -35.8264 535.013 -48.1295 519.968V519.968ZM-156.691 249.649C-74.5984 287.534 -17.721 258.256 54.6572 236.443C116.851 223.841 149.319 223.013 170.124 264.065C169.554 264.758 169.005 265.419 168.457 266.023C143.913 232.929 114.422 233.88 62.5587 255.626C-4.51451 292.347 -66.9319 342.464 -174.307 305.128C-166.705 287.232 -160.814 268.656 -156.714 249.649H-156.691ZM-13.0651 -3.79192C8.49052 84.0088 66.8565 110.22 129.072 153.209C177.713 193.981 198.574 218.872 179.436 260.651C178.541 260.651 177.668 260.651 176.873 260.573C187.438 220.752 168.3 198.29 118.966 171.306C48.4569 141.77 -29.6516 124.21 -67.402 16.9804C-48.675 11.7859 -30.4816 4.83078 -13.0651 -3.79192V-3.79192ZM274.646 -49.5109C219.436 22.1174 235.329 84.076 240.488 159.487C238.932 222.934 232.486 254.764 187.886 265.911C187.338 265.195 186.767 264.501 186.342 263.852C224.07 247.288 229.699 218.323 220.04 162.923C199.167 89.3809 164.193 17.428 224.517 -79.0016C240.255 -67.6066 257.04 -57.7321 274.646 -49.5109V-49.5109ZM489.766 146.941C399.358 148.418 360.813 199.543 305.099 250.534C254.523 288.877 225.636 303.684 189.084 275.749C189.296 274.876 189.509 274.037 189.721 273.264C226.196 292.425 252.396 278.771 289.643 236.678C334.131 174.507 368.624 102.263 481.562 89.3137C482.471 108.739 485.218 128.034 489.766 146.941V146.941Z" fill="#925C1E" fill-opacity="0.09"/>
</svg>
