<svg viewBox="0 0 312 193" fill="none" xmlns="http://www.w3.org/2000/svg">
<path d="M221.386 110.95C216.653 110.95 212.816 107.113 212.816 102.38C212.816 97.6465 216.653 93.8093 221.386 93.8093C226.119 93.8093 229.957 97.6465 229.957 102.38C229.957 107.113 226.119 110.95 221.386 110.95Z" stroke="#029C54" stroke-width="1.5"/>
<path d="M221.386 105.871C219.458 105.871 217.894 104.308 217.894 102.38C217.894 100.451 219.458 98.888 221.386 98.888C223.314 98.888 224.878 100.451 224.878 102.38C224.878 104.308 223.314 105.871 221.386 105.871Z" stroke="#029C54" stroke-width="1.5"/>
<path d="M216.904 129.63C212.317 128.461 209.546 123.796 210.714 119.209C211.883 114.622 216.548 111.851 221.135 113.019C225.722 114.188 228.493 118.854 227.325 123.44C226.156 128.027 221.49 130.798 216.904 129.63Z" stroke="#029C54" stroke-width="1.5"/>
<path d="M218.157 124.708C216.289 124.232 215.16 122.331 215.636 120.463C216.112 118.594 218.013 117.465 219.881 117.941C221.75 118.417 222.879 120.318 222.403 122.187C221.927 124.055 220.026 125.184 218.157 124.708Z" stroke="#029C54" stroke-width="1.5"/>
<path d="M207.895 146.611C203.742 144.34 202.216 139.132 204.487 134.979C206.758 130.826 211.966 129.301 216.119 131.572C220.272 133.843 221.797 139.05 219.526 143.203C217.255 147.356 212.048 148.882 207.895 146.611Z" stroke="#04AADC" stroke-width="1.5"/>
<path d="M210.331 142.155C208.639 141.23 208.018 139.108 208.943 137.416C209.868 135.724 211.99 135.102 213.682 136.028C215.374 136.953 215.995 139.074 215.07 140.766C214.145 142.458 212.023 143.08 210.331 142.155Z" stroke="#04AADC" stroke-width="1.5"/>
<path d="M194.84 160.921C191.385 157.685 191.208 152.261 194.444 148.807C197.68 145.352 203.103 145.175 206.558 148.41C210.012 151.646 210.19 157.07 206.954 160.524C203.718 163.979 198.295 164.157 194.84 160.921Z" stroke="#04AADC" stroke-width="1.5"/>
<path d="M198.312 157.214C196.905 155.896 196.832 153.686 198.151 152.279C199.469 150.871 201.679 150.799 203.086 152.117C204.493 153.435 204.566 155.645 203.247 157.052C201.929 158.46 199.72 158.532 198.312 157.214Z" stroke="#04AADC" stroke-width="1.5"/>
<path d="M178.69 171.51C176.149 167.517 177.326 162.22 181.32 159.679C185.313 157.138 190.611 158.315 193.152 162.309C195.693 166.302 194.515 171.6 190.522 174.14C186.528 176.681 181.231 175.504 178.69 171.51Z" stroke="#04AADC" stroke-width="1.5"/>
<path d="M182.975 168.784C181.94 167.157 182.419 164.999 184.046 163.964C185.673 162.928 187.832 163.408 188.867 165.035C189.902 166.662 189.422 168.82 187.795 169.855C186.168 170.891 184.01 170.411 182.975 168.784Z" stroke="#04AADC" stroke-width="1.5"/>
<path d="M160.46 177.75C158.982 173.253 161.429 168.41 165.925 166.932C170.422 165.453 175.265 167.901 176.744 172.397C178.222 176.894 175.775 181.737 171.278 183.215C166.781 184.694 161.938 182.247 160.46 177.75Z" stroke="#FE2B4C" stroke-width="1.5"/>
<path d="M165.285 176.164C164.682 174.332 165.679 172.359 167.511 171.756C169.343 171.154 171.317 172.151 171.919 173.983C172.521 175.815 171.524 177.788 169.692 178.391C167.86 178.993 165.887 177.996 165.285 176.164Z" stroke="#FE2B4C" stroke-width="1.5"/>
<path d="M141.215 179.212C140.905 174.489 144.482 170.408 149.205 170.098C153.929 169.788 158.009 173.365 158.319 178.088C158.629 182.811 155.052 186.892 150.329 187.202C145.606 187.512 141.525 183.935 141.215 179.212Z" stroke="#FE2B4C" stroke-width="1.5"/>
<path d="M146.283 178.879C146.157 176.955 147.614 175.292 149.538 175.166C151.463 175.039 153.125 176.497 153.251 178.421C153.378 180.345 151.92 182.008 149.996 182.134C148.072 182.261 146.409 180.803 146.283 178.879Z" stroke="#FE2B4C" stroke-width="1.5"/>
<path d="M121.934 175.796C122.821 171.147 127.309 168.097 131.958 168.983C136.608 169.87 139.658 174.358 138.771 179.008C137.884 183.657 133.396 186.708 128.747 185.821C124.097 184.934 121.047 180.446 121.934 175.796Z" stroke="#FE2B4C" stroke-width="1.5"/>
<path d="M126.923 176.748C127.284 174.854 129.113 173.611 131.007 173.972C132.901 174.334 134.144 176.162 133.783 178.056C133.421 179.951 131.593 181.193 129.698 180.832C127.804 180.471 126.561 178.642 126.923 176.748Z" stroke="#FE2B4C" stroke-width="1.5"/>
<path d="M104.423 167.764C106.444 163.484 111.552 161.652 115.832 163.673C120.112 165.694 121.944 170.802 119.923 175.083C117.902 179.363 112.794 181.194 108.514 179.174C104.233 177.153 102.402 172.044 104.423 167.764Z" stroke="#FE2B4C" stroke-width="1.5"/>
<path d="M109.016 169.933C109.839 168.189 111.92 167.443 113.664 168.266C115.408 169.089 116.154 171.171 115.33 172.914C114.507 174.658 112.426 175.404 110.682 174.581C108.938 173.758 108.192 171.676 109.016 169.933Z" stroke="#FE2B4C" stroke-width="1.5"/>
<path d="M89.4538 155.598C92.4832 151.961 97.8874 151.469 101.524 154.498C105.161 157.527 105.654 162.932 102.624 166.569C99.595 170.205 94.1908 170.698 90.5539 167.669C86.9169 164.639 86.4244 159.235 89.4538 155.598Z" stroke="#FE2B4C" stroke-width="1.5"/>
<path d="M93.3563 158.849C94.5905 157.367 96.7922 157.166 98.2739 158.4C99.7556 159.635 99.9563 161.836 98.7221 163.318C97.4879 164.8 95.2862 165 93.8045 163.766C92.3227 162.532 92.1221 160.33 93.3563 158.849Z" stroke="#FE2B4C" stroke-width="1.5"/>
<path d="M77.946 140.108C81.7839 137.337 87.141 138.203 89.9114 142.041C92.6818 145.878 91.8164 151.236 87.9785 154.006C84.1405 156.776 78.7834 155.911 76.0131 152.073C73.2427 148.235 74.1081 142.878 77.946 140.108Z" stroke="#FE2B4C" stroke-width="1.5"/>
<path d="M80.9186 144.226C82.4822 143.097 84.6647 143.45 85.7934 145.013C86.9221 146.577 86.5695 148.759 85.0059 149.888C83.4423 151.017 81.2598 150.664 80.1311 149.101C79.0025 147.537 79.355 145.354 80.9186 144.226Z" stroke="#FE2B4C" stroke-width="1.5"/>
<path d="M70.6666 122.289C75.0728 120.56 80.0465 122.731 81.7757 127.137C83.5048 131.543 81.3346 136.517 76.9284 138.246C72.5221 139.975 67.5485 137.805 65.8193 133.399C64.0902 128.992 66.2604 124.019 70.6666 122.289Z" stroke="#FE2B4C" stroke-width="1.5"/>
<path d="M72.522 127.017C74.3171 126.313 76.3434 127.197 77.0479 128.992C77.7524 130.787 76.8682 132.814 75.0731 133.518C73.2779 134.223 71.2516 133.338 70.5472 131.543C69.8427 129.748 70.7269 127.722 72.522 127.017Z" stroke="#FE2B4C" stroke-width="1.5"/>
<path d="M68.0757 103.344C72.7731 102.762 77.0531 106.098 77.6354 110.795C78.2176 115.493 74.8816 119.773 70.1841 120.355C65.4867 120.937 61.2067 117.601 60.6245 112.904C60.0423 108.206 63.3783 103.926 68.0757 103.344Z" stroke="#FE2B4C" stroke-width="1.5"/>
<path d="M68.7004 108.384C70.6142 108.147 72.3579 109.506 72.5951 111.42C72.8323 113.334 71.4732 115.077 69.5594 115.315C67.6457 115.552 65.902 114.193 65.6648 112.279C65.4276 110.365 66.7867 108.621 68.7004 108.384Z" stroke="#FE2B4C" stroke-width="1.5"/>
<path d="M70.3255 83.8169C75.0183 84.4352 78.3213 88.7407 77.703 93.4335C77.0847 98.1263 72.7792 101.429 68.0864 100.811C63.3936 100.193 60.0906 95.8873 60.7089 91.1945C61.3272 86.5016 65.6327 83.1986 70.3255 83.8169Z" stroke="#FE2B4C" stroke-width="1.5"/>
<path d="M69.662 88.8523C71.5739 89.1042 72.9196 90.8583 72.6677 92.7702C72.4158 94.6821 70.6617 96.0277 68.7498 95.7759C66.8379 95.524 65.4923 93.7699 65.7442 91.858C65.9961 89.9461 67.7501 88.6004 69.662 88.8523Z" stroke="#FE2B4C" stroke-width="1.5"/>
<path d="M77.3401 65.741C81.7266 67.5195 83.8408 72.5173 82.0623 76.9038C80.2838 81.2903 75.2861 83.4045 70.8995 81.626C66.513 79.8475 64.3988 74.8498 66.1773 70.4633C67.9558 66.0767 72.9536 63.9625 77.3401 65.741Z" stroke="#FE2B4C" stroke-width="1.5"/>
<path d="M75.4317 70.4478C77.2188 71.1724 78.0802 73.2085 77.3556 74.9956C76.631 76.7827 74.5949 77.644 72.8078 76.9195C71.0207 76.1949 70.1594 74.1588 70.8839 72.3717C71.6085 70.5846 73.6446 69.7232 75.4317 70.4478Z" stroke="#FE2B4C" stroke-width="1.5"/>
<path d="M88.5301 50.1575C92.3374 52.9698 93.1441 58.3361 90.3318 62.1434C87.5195 65.9507 82.1533 66.7574 78.3459 63.9451C74.5386 61.1328 73.7319 55.7666 76.5442 51.9592C79.3565 48.1519 84.7228 47.3452 88.5301 50.1575Z" stroke="#FE2B4C" stroke-width="1.5"/>
<path d="M85.5125 54.2428C87.0636 55.3886 87.3923 57.5748 86.2465 59.1259C85.1008 60.6771 82.9145 61.0057 81.3634 59.86C79.8123 58.7142 79.4836 56.528 80.6294 54.9768C81.7751 53.4257 83.9614 53.0971 85.5125 54.2428Z" stroke="#FE2B4C" stroke-width="1.5"/>
<path d="M102.989 37.9686C105.992 41.6275 105.46 47.0279 101.802 50.0307C98.1426 53.0336 92.7422 52.5017 89.7394 48.8428C86.7365 45.1839 87.2684 39.7835 90.9273 36.7806C94.5862 33.7778 99.9866 34.3096 102.989 37.9686Z" stroke="#FE2B4C" stroke-width="1.5"/>
<path d="M99.0634 41.1906C100.287 42.6813 100.07 44.8815 98.5795 46.1048C97.0888 47.3282 94.8886 47.1115 93.6652 45.6209C92.4419 44.1302 92.6585 41.93 94.1492 40.7067C95.6399 39.4833 97.84 39.7 99.0634 41.1906Z" stroke="#FE2B4C" stroke-width="1.5"/>
<path d="M120.597 29.4302C122.586 33.7254 120.717 38.8197 116.422 40.8088C112.126 42.7979 107.032 40.9284 105.043 36.6333C103.054 32.3381 104.923 27.2437 109.218 25.2547C113.514 23.2656 118.608 25.1351 120.597 29.4302Z" stroke="#FE2B4C" stroke-width="1.5"/>
<path d="M115.988 31.5645C116.799 33.3144 116.037 35.3899 114.287 36.2002C112.537 37.0106 110.462 36.2489 109.651 34.4991C108.841 32.7492 109.603 30.6737 111.353 29.8634C113.102 29.053 115.178 29.8146 115.988 31.5645Z" stroke="#FE2B4C" stroke-width="1.5"/>
<path d="M139.466 25.6866C140.318 30.3428 137.233 34.8075 132.577 35.6587C127.921 36.51 123.456 33.4255 122.605 28.7693C121.754 24.1131 124.838 19.6484 129.494 18.7972C134.15 17.9459 138.615 21.0304 139.466 25.6866Z" stroke="#FE2B4C" stroke-width="1.5"/>
<path d="M134.47 26.6C134.817 28.497 133.56 30.3159 131.663 30.6627C129.766 31.0095 127.948 29.7529 127.601 27.8559C127.254 25.9589 128.511 24.14 130.408 23.7932C132.304 23.4464 134.123 24.703 134.47 26.6Z" stroke="#FE2B4C" stroke-width="1.5"/>
<path d="M159.166 26.7946C158.82 31.5153 154.712 35.0612 149.991 34.7145C145.27 34.3679 141.725 30.2601 142.071 25.5394C142.418 20.8188 146.526 17.2729 151.246 17.6195C155.967 17.9662 159.513 22.074 159.166 26.7946Z" stroke="#FE2B4C" stroke-width="1.5"/>
<path d="M154.101 26.4227C153.96 28.3459 152.286 29.7906 150.363 29.6493C148.44 29.5081 146.995 27.8346 147.136 25.9113C147.277 23.9881 148.951 22.5435 150.874 22.6847C152.797 22.8259 154.242 24.4995 154.101 26.4227Z" stroke="#FE2B4C" stroke-width="1.5"/>
<path d="M177.462 32.6681C175.95 37.1535 171.089 39.5639 166.603 38.052C162.118 36.54 159.707 31.6782 161.219 27.1928C162.731 22.7074 167.593 20.297 172.079 21.809C176.564 23.3209 178.974 28.1827 177.462 32.6681Z" stroke="#85267A" stroke-width="1.5"/>
<path d="M172.65 31.0458C172.034 32.8731 170.053 33.8552 168.225 33.2392C166.398 32.6232 165.416 30.6424 166.032 28.8151C166.648 26.9877 168.629 26.0057 170.456 26.6217C172.283 27.2376 173.266 29.2184 172.65 31.0458Z" stroke="#85267A" stroke-width="1.5"/>
<path d="M193.792 42.9747C191.207 46.9401 185.897 48.0592 181.932 45.4745C177.967 42.8898 176.847 37.5799 179.432 33.6145C182.017 29.6492 187.327 28.53 191.292 31.1148C195.257 33.6995 196.377 39.0094 193.792 42.9747Z" stroke="#85267A" stroke-width="1.5"/>
<path d="M189.537 40.2013C188.484 41.8168 186.321 42.2727 184.705 41.2197C183.09 40.1667 182.634 38.0034 183.687 36.3879C184.74 34.7724 186.903 34.3164 188.519 35.3694C190.134 36.4225 190.59 38.5858 189.537 40.2013Z" stroke="#85267A" stroke-width="1.5"/>
<path d="M206.84 56.7416C203.362 59.9521 197.939 59.7353 194.729 56.2572C191.518 52.7792 191.735 47.357 195.213 44.1464C198.691 40.9358 204.113 41.1527 207.324 44.6307C210.535 48.1088 210.318 53.531 206.84 56.7416Z" stroke="#85267A" stroke-width="1.5"/>
<path d="M203.395 53.0096C201.978 54.3176 199.769 54.2292 198.461 52.8123C197.153 51.3953 197.241 49.1862 198.658 47.8782C200.075 46.5702 202.284 46.6585 203.592 48.0755C204.9 49.4925 204.812 51.7016 203.395 53.0096Z" stroke="#85267A" stroke-width="1.5"/>
<path d="M216.363 73.7712C212.194 76.0114 206.998 74.4473 204.757 70.2776C202.517 66.108 204.081 60.9117 208.251 58.6715C212.421 56.4313 217.617 57.9954 219.857 62.1651C222.097 66.3348 220.533 71.531 216.363 73.7712Z" stroke="#85267A" stroke-width="1.5"/>
<path d="M213.96 69.2971C212.261 70.2098 210.144 69.5726 209.231 67.8738C208.319 66.1751 208.956 64.0581 210.655 63.1454C212.353 62.2327 214.47 62.87 215.383 64.5687C216.296 66.2675 215.658 68.3844 213.96 69.2971Z" stroke="#85267A" stroke-width="1.5"/>
<path d="M221.204 92.2811C216.609 93.4147 211.964 90.6082 210.83 86.0126C209.697 81.417 212.503 76.7726 217.099 75.6389C221.694 74.5053 226.339 77.3118 227.473 81.9074C228.606 86.503 225.8 91.1475 221.204 92.2811Z" stroke="#029C54" stroke-width="1.5"/>
<path d="M219.988 87.35C218.115 87.8118 216.223 86.6684 215.761 84.7962C215.3 82.9239 216.443 81.0317 218.315 80.5698C220.187 80.108 222.08 81.2514 222.542 83.1236C223.003 84.9959 221.86 86.8881 219.988 87.35Z" stroke="#029C54" stroke-width="1.5"/>
<path d="M176.07 17.7351C176.322 17.8378 176.611 17.9377 176.712 17.9605C177.008 18.0447 177.189 18.0081 177.272 17.8034C177.368 17.5673 177.569 15.5925 178.005 14.5222C178.288 13.8297 178.79 13.8143 179.609 14.1483C180.71 14.598 181.5 15.0486 181.846 15.1899C181.972 15.2413 182.092 15.2169 182.206 15.1167C182.521 14.7495 182.895 14.0576 183.075 13.6169C183.165 13.3965 183.002 13.2565 182.735 13.1473C181.523 12.6527 180.425 12.5534 179.669 12.2451C179.165 12.0395 179.072 11.8179 179.323 11.2041C179.907 9.77176 180.647 8.27424 181.106 8.09435C181.394 7.97324 181.735 8.03876 182.427 8.3214C183.419 8.7261 183.984 9.14045 184.286 9.39195C184.374 9.44623 184.471 9.52267 184.55 9.55479C184.628 9.58691 184.742 9.57823 184.828 9.50307C185.184 9.17092 185.618 8.46681 185.785 8.05758C185.849 7.90018 185.86 7.73926 185.599 7.61431C185.004 7.31657 184.151 6.93178 183.238 6.55921C182.278 6.16736 181.312 5.79125 180.53 5.54587C180.351 5.49095 180.139 5.51472 180.008 5.70007C178.784 7.44044 177.65 9.76862 176.789 11.8777C175.864 14.1442 175.254 16.1351 175.151 16.8826C175.123 17.2202 175.286 17.3602 175.453 17.4466C175.541 17.5009 175.802 17.6259 176.07 17.7351Z" fill="#85267A"/>
<path d="M188.113 9.19881C186.487 11.3577 185.126 13.5609 184.051 15.5885C183.239 17.1204 182.596 18.55 182.111 19.7551C181.982 20.0714 182.153 20.22 182.355 20.3466C182.566 20.4581 182.783 20.5925 183.008 20.712C183.249 20.8394 183.497 20.9518 183.662 21.0394C183.85 21.12 183.995 21.1007 184.083 20.9354C184.186 20.7402 184.697 19.087 185.04 18.4412C185.502 17.5701 186.053 17.4387 186.954 17.9166C188.23 18.5936 188.893 20.465 187.952 22.9292C187.87 23.1554 187.928 23.3013 188.19 23.4597C188.362 23.5703 188.602 23.6977 188.843 23.8251C189.113 23.9685 189.353 24.0959 189.497 24.1526C189.73 24.257 189.929 24.2085 190.048 23.9832C190.63 22.8869 190.845 20.2303 189.628 18.3532C189.569 18.2834 189.57 18.2074 189.602 18.1473C189.634 18.0872 189.704 18.028 189.803 18.0228C191.594 17.8755 193.101 17.174 193.913 15.642C195.156 13.299 193.827 11.6322 191.469 10.3818C190.898 10.0792 189.191 9.27024 188.656 9.08252C188.429 9.00105 188.254 9.00447 188.113 9.19881ZM186.537 15.2906C187.509 13.4583 188.818 11.4971 189.37 11.3278C189.646 11.2432 190.181 11.4309 190.752 11.7335C192.059 12.4264 192.666 13.422 191.997 14.6836C191.025 16.5159 188.185 16.9727 186.563 16.1125C186.308 15.9771 186.259 15.8162 186.537 15.2906Z" fill="#85267A"/>
<path d="M192.935 26.4259C193.097 26.4893 193.196 26.4924 193.306 26.3209C193.49 26.0349 194.396 23.7473 196.181 20.9738C198.213 17.8142 199.901 16.3532 200.15 15.9672C200.251 15.8099 200.236 15.7394 200.125 15.6281C199.906 15.4666 199.672 15.2959 199.429 15.1396C199.2 14.9924 198.977 14.8687 198.781 14.7634C198.568 14.6867 198.408 14.6846 198.199 14.9144C197.661 15.4371 196.049 17.2506 193.961 20.4959C192.775 22.3402 191.61 24.401 191.409 25.0597C191.332 25.2732 191.381 25.3855 191.52 25.5153C191.716 25.6819 191.973 25.8474 192.202 25.9946C192.46 26.1602 192.688 26.3074 192.935 26.4259Z" fill="#85267A"/>
<path d="M198.362 30.4192C199.265 31.1131 200.205 31.8144 201.059 32.4057C201.298 32.5684 201.513 32.5403 201.647 32.365C201.875 32.0685 202.399 31.1633 202.499 30.8108C202.551 30.6584 202.515 30.5662 202.421 30.4937C202.34 30.4316 202.265 30.4171 202.099 30.3539C201.252 30.0891 200.002 29.4284 198.694 28.4237C197.859 27.7815 197.842 27.4685 199.105 25.8239C200.007 24.6511 200.758 24.6497 201.998 25.6026C202.74 26.1723 203.187 26.9018 203.389 27.0572C203.497 27.14 203.585 27.1649 203.777 27.0549C204.099 26.8308 204.648 26.3952 204.803 26.193C205.021 25.9099 204.605 25.4188 203.998 24.9527C203.028 24.207 202.164 23.9079 201.692 23.5453C201.423 23.3382 201.398 23.1475 201.657 22.8105C202.361 21.8938 203.421 20.8215 203.963 20.702C204.27 20.6376 204.574 20.7432 205.114 21.1575C206.273 22.0483 206.86 22.7352 207.201 23.2118C207.305 23.3558 207.382 23.4791 207.463 23.5412C207.557 23.6138 207.679 23.622 207.792 23.5587C208.22 23.3087 208.958 22.7392 209.093 22.564C209.165 22.4696 209.16 22.337 208.981 22.1785C208.376 21.6274 207.278 20.7407 206.199 19.9121C205.31 19.2284 204.413 18.5821 203.95 18.2911C203.751 18.1596 203.537 18.1877 203.307 18.3754C201.047 20.2838 198.759 22.8991 196.915 25.2985C196.345 26.0399 195.82 26.7513 195.35 27.419C195.115 27.7529 195.235 27.9311 195.521 28.1725C196.269 28.7898 197.297 29.6009 198.362 30.4192Z" fill="#85267A"/>
<path d="M203.371 34.5269C203.554 34.7047 203.761 34.8822 203.895 34.9885C204.077 35.1422 204.234 35.1761 204.388 35.0177C204.613 34.7861 206.911 31.4239 210.411 28.093C210.553 27.9708 210.697 27.9207 210.794 28.0155C210.843 28.0629 210.856 28.1709 210.811 28.3398C210.126 30.9702 208.984 34.3884 207.591 37.9423C207.439 38.269 207.453 38.377 207.649 38.6388C207.746 38.7576 207.893 38.8999 208.051 39.0539C208.246 39.2436 208.466 39.4569 208.599 39.5632C208.879 39.7877 209.059 39.7972 209.333 39.589C210.463 38.6956 211.969 37.268 213.439 35.7567C215.146 34.0017 216.791 32.1394 217.698 30.8163C217.851 30.5857 217.812 30.4059 217.654 30.2278C217.531 30.0853 217.348 29.8834 217.165 29.7057C216.97 29.516 216.764 29.3386 216.618 29.2204C216.484 29.1141 216.316 29.1164 216.185 29.2505C215.747 29.7015 213.949 32.672 210.382 36.3405C210.275 36.4501 210.143 36.464 210.07 36.3929C210.021 36.3455 209.996 36.2737 210.043 36.1769C211.871 31.9557 212.862 27.9866 213.114 26.2399C213.146 26.011 213.108 25.8552 212.998 25.7245C212.888 25.5938 212.729 25.4157 212.571 25.2616C212.413 25.1076 212.242 24.9416 212.084 24.8357C211.89 24.6941 211.673 24.6971 211.458 24.7963C210.659 25.2042 208.627 26.9518 206.565 29.0724C205.214 30.4618 203.841 32.0198 202.815 33.4407C202.674 33.635 202.712 33.8148 202.883 34.0048C203.005 34.1474 203.176 34.3373 203.371 34.5269Z" fill="#85267A"/>
<path d="M212.504 44.2011C215.061 47.3805 217.779 47.071 220.283 45.0575C224.535 41.6377 224.639 38.4568 221.975 35.1449C221.666 34.7607 221.312 34.3474 221.009 34.0243C220.889 33.9024 220.7 33.8578 220.459 33.9646C219.292 34.5755 217.381 35.6981 214.625 37.914C211.87 40.13 210.993 41.0747 210.758 41.5691C210.679 41.7419 210.711 41.8905 210.879 42.1263C211.058 42.3755 211.758 43.2737 212.504 44.2011ZM213.759 42.8863C213.61 42.7009 213.455 42.4543 213.497 42.1808C213.541 41.5567 214.688 40.5688 216.331 39.2478C218.291 37.6711 219.85 36.5707 220.495 36.6407C220.686 36.6615 220.888 36.8043 220.995 36.9368C222.38 38.659 222.072 40.9351 219.197 43.2469C217.051 44.9727 215.272 44.7675 213.759 42.8863Z" fill="#85267A"/>
<path d="M228.33 49.3331C228.3 49.4377 228.321 49.5268 228.37 49.5962C228.429 49.6796 228.533 49.7099 228.642 49.7165C229.205 49.7774 230.069 49.6466 230.361 49.441C230.486 49.3528 230.558 49.2189 230.553 49.0351C230.593 48.0294 230.216 46.7563 229.423 45.6307C227.866 43.4212 225.73 43.2831 224.091 44.4386C222.215 45.7606 222.323 47.5972 222.957 49.8542C223.402 51.3708 223.352 52.3626 222.519 52.9501C221.588 53.6062 220.632 53.1357 219.888 52.0796C218.987 50.8012 219.106 49.1992 220.089 47.8201C220.167 47.7238 220.183 47.629 220.114 47.5317C220.065 47.4623 219.985 47.436 219.872 47.4531C219.481 47.4585 219.055 47.5922 218.568 47.9349C217.068 48.9925 216.809 51.0462 218.278 53.1306C220.061 55.6597 222.167 55.7562 223.806 54.6006C225.571 53.357 225.539 51.5702 224.888 49.2005C224.448 47.5139 224.511 46.6586 225.414 46.0221C226.22 45.4541 227.176 45.5709 227.93 46.6409C228.42 47.3357 228.617 48.3824 228.33 49.3331Z" fill="#85267A"/>
<path d="M102.684 109.53C102.736 109.069 102.765 108.547 102.755 108.371C102.755 107.846 102.611 107.567 102.236 107.525C101.804 107.477 98.4702 108.069 96.5103 107.851C95.2421 107.71 94.9829 106.893 95.1497 105.394C95.3743 103.377 95.7461 101.872 95.8167 101.237C95.8424 101.007 95.7463 100.821 95.5286 100.68C94.7793 100.334 93.4695 100.042 92.6625 99.9526C92.259 99.9077 92.1052 100.241 92.0506 100.731C91.8036 102.95 92.1523 104.798 91.9983 106.181C91.8956 107.104 91.5753 107.36 90.4513 107.235C87.8285 106.943 85.0264 106.427 84.5173 105.757C84.1843 105.341 84.1332 104.751 84.2744 103.483C84.4765 101.668 84.8931 100.547 85.1654 99.9351C85.2135 99.7654 85.2936 99.57 85.3096 99.4259C85.3257 99.2818 85.2584 99.0993 85.0951 98.9936C84.3843 98.5643 83.0265 98.1797 82.2771 98.0963C81.9889 98.0642 81.7199 98.1218 81.6365 98.6086C81.4249 99.723 81.1908 101.302 81.0047 102.973C80.809 104.732 80.6421 106.493 80.6034 107.889C80.5969 108.209 80.7346 108.546 81.0996 108.674C84.5261 109.872 88.8749 110.648 92.7371 111.078C96.8875 111.54 100.439 111.615 101.714 111.435C102.281 111.324 102.434 110.99 102.498 110.677C102.547 110.507 102.63 110.02 102.684 109.53Z" fill="#FE2B4C"/>
<path d="M104.298 98.6728C104.507 98.1628 104.667 97.6954 104.745 97.3514C104.785 97.0231 104.657 96.8768 104.323 96.772C103.652 96.4977 102.473 96.548 101.399 96.1092C99.3855 95.2863 99.3517 92.6095 100.394 90.0593C101.239 87.9923 102.256 87.3429 103.84 87.9903C105.478 88.6596 106.483 89.5718 107.181 89.8571C107.476 89.9778 107.681 89.9363 107.883 89.6739C108.019 89.4164 108.222 88.9979 108.419 88.5147C108.584 88.112 108.721 87.6984 108.837 87.3384C108.959 86.887 108.95 86.6015 108.57 86.3832C107.105 85.5968 105.758 84.9835 104.443 84.4459C97.705 81.6919 91.8767 81.1581 86.0203 84.3723C85.7446 84.5102 85.6141 84.6762 85.5263 84.891C85.4385 85.1057 85.4532 85.2997 85.5046 85.634C87.2574 92.4595 92.7915 96.3192 98.6436 98.7111C100.066 99.2927 101.506 99.7558 102.93 100.181C103.435 100.325 103.63 100.154 103.833 99.7356C104.002 99.3976 104.145 99.0486 104.298 98.6728ZM97.0597 93.7717C96.9828 93.9596 96.8047 94.0121 96.5631 93.9134C94.0935 92.904 90.319 89.9514 89.2481 86.9761C89.1479 86.6845 89.1113 86.5442 89.1662 86.41C89.221 86.2758 89.3723 86.2123 89.5992 86.117C91.7974 85.2611 95.7198 85.0159 98.4579 86.135C98.8337 86.2886 98.9887 86.446 98.8619 86.8328C98.7132 87.2733 98.3474 87.9383 97.8427 89.1731C96.9589 91.4122 97.2681 93.2617 97.0597 93.7717Z" fill="#FE2B4C"/>
<path d="M112.303 81.6199C111.71 81.0653 108.53 79.8387 103.551 75.1845C101.963 73.6991 100.518 72.2294 99.4068 70.9126C99.2995 70.7726 99.2953 70.6496 99.3745 70.5649C99.4538 70.4802 99.5965 70.4548 99.7421 70.5115C102.552 71.7096 107.77 73.7294 112.029 74.6941C112.401 74.7637 112.685 74.6721 112.844 74.5026C113.002 74.3331 113.033 74.0448 112.94 73.7197C111.676 69.6792 109.592 65.6663 107.738 61.7892C107.693 61.6676 107.71 61.5645 107.789 61.4797C107.868 61.395 107.991 61.3909 108.117 61.4687C109.439 62.3475 110.939 63.6307 112.21 64.819C116.489 68.8196 119.196 73.0578 119.79 73.6123C120.001 73.8104 120.226 73.7823 120.485 73.5479C120.684 73.3771 121.044 73.0777 121.38 72.7176C121.876 72.188 122.368 71.5764 122.604 71.2812C122.821 71.0072 122.849 70.6369 122.55 70.2777C120.367 67.6018 118.153 65.2141 115.886 63.095C113.048 60.4411 110.042 58.3058 107.088 56.497C106.711 56.2635 106.364 56.3367 106.065 56.5725C105.707 56.9128 105.388 57.2107 105.111 57.5073C104.755 57.8886 104.418 58.2487 104.183 58.5849C103.95 58.9621 103.963 59.372 104.141 59.7764C105.201 62.6337 106.774 66.0893 108.717 70.1685C108.805 70.3297 108.81 70.4937 108.711 70.5996C108.612 70.7055 108.468 70.6899 108.26 70.6148C103.996 68.8911 100.487 67.6345 97.4018 66.815C96.9652 66.645 96.681 66.7366 96.3402 66.9738C96.0206 67.2307 95.6033 67.6346 95.1676 68.1007C94.7715 68.5243 94.3768 68.989 94.1603 69.263C94.023 69.4523 93.9295 69.7222 94.2288 70.0814C96.8197 73.2976 99.4617 76.2043 102.11 78.68C104.567 80.9773 107.033 82.9256 109.528 84.5036C109.779 84.6593 110.025 84.6511 110.264 84.4378C110.623 84.1385 110.98 83.7572 111.336 83.3759C111.772 82.9098 112.048 82.5723 112.265 82.2983C112.44 82.0256 112.494 81.7981 112.303 81.6199Z" fill="#FE2B4C"/>
<path d="M128.971 68.02C129.189 67.8199 129.267 67.6703 129.087 67.3728C128.786 66.877 125.955 63.7781 123.036 58.9687C119.71 53.49 118.731 49.8097 118.325 49.1403C118.16 48.8676 118.04 48.8384 117.787 48.9243C117.375 49.1402 116.939 49.3713 116.517 49.6271C116.121 49.8678 115.764 50.1183 115.457 50.3387C115.18 50.6087 115.056 50.8531 115.253 51.3444C115.652 52.5609 117.228 56.3874 120.644 62.0149C122.585 65.2128 124.875 68.5383 125.735 69.3396C126.005 69.6168 126.214 69.6256 126.517 69.5097C126.919 69.3335 127.365 69.0627 127.761 68.8219C128.208 68.5511 128.604 68.3103 128.971 68.02Z" fill="#FE2B4C"/>
<path d="M138.571 59.3728C138.463 59.4149 138.339 59.4945 138.067 59.7559C137.121 60.6841 135.863 61.6094 134.62 62.0932C133.593 62.4928 133.18 62.3113 132.528 60.6357C129.846 53.7442 128.498 45.2442 128.267 44.6496C128.172 44.4064 127.98 44.2322 127.564 44.363C127.256 44.4517 126.705 44.635 126.219 44.8243C125.624 45.0557 125.121 45.2826 124.861 45.4148C124.602 45.547 124.486 45.8098 124.558 46.1551C125.555 51.2752 127.512 57.4221 129.474 62.3843C129.968 63.6545 130.469 64.8601 130.943 65.9201C131.223 66.5582 131.589 66.5401 132.194 66.3357C133.432 65.9165 135.199 65.2598 137.009 64.5551C138.09 64.1344 139.188 63.6762 140.113 63.254C140.67 63.0061 140.841 62.5661 140.662 62.1067C140.431 61.5121 139.498 59.9147 139.055 59.4959C138.9 59.3382 138.733 59.3097 138.571 59.3728Z" fill="#FE2B4C"/>
<path d="M147.42 62.098C147.91 62.0426 148.429 61.9839 148.8 61.9126C149.229 61.8349 149.459 61.5462 149.414 61.1428C149.368 60.7394 149.097 59.8944 148.993 58.9723C148.641 55.8602 149.712 53.4625 150.859 50.9686C152.272 47.9777 153.784 44.8298 153.245 40.0751C153.167 39.3835 153.029 39.1949 152.417 39.2057C152.068 39.2161 151.518 39.2492 150.999 39.3079C150.595 39.3536 150.25 39.3927 149.994 39.4509C149.654 39.5477 149.466 39.6858 149.515 40.118C149.55 40.435 149.673 41.0048 149.771 41.8693C150.143 45.1543 148.88 49.4707 147.686 51.036C147.507 51.2605 147.315 51.3698 147.085 51.3959C146.854 51.422 146.607 51.304 146.29 51.0773C144.872 50.1579 142.706 47.7764 142.236 43.6269C142.122 42.6184 142.126 41.6256 142.113 41.2477C142.054 40.729 141.993 40.4441 141.234 40.4425C140.884 40.4528 140.478 40.4696 140.046 40.5186C139.613 40.5675 139.184 40.6452 138.813 40.7165C138.33 40.8295 138.176 41.022 138.251 41.6848C139.165 49.7532 143.202 52.4191 144.912 53.8599C145.329 54.1921 145.592 54.4542 145.628 54.7711C145.644 54.9152 145.638 55.1202 145.571 55.3029C145.292 56.4435 144.479 58.2867 144.779 60.9377C144.877 61.8022 145.051 62.3078 145.832 62.2486C146.297 62.2252 146.844 62.1633 147.42 62.098Z" fill="#FE2B4C"/>
<path d="M247.908 73.9328C247.891 73.8795 247.856 73.8173 247.737 73.6792C247.316 73.198 246.904 72.5663 246.705 71.9539C246.54 71.4479 246.639 71.2539 247.464 70.9854C250.859 69.8812 254.993 69.4642 255.286 69.369C255.406 69.33 255.495 69.2421 255.443 69.0381C255.409 68.8873 255.336 68.6167 255.258 68.3771C255.163 68.0842 255.067 67.8355 255.01 67.7067C254.954 67.5779 254.83 67.515 254.662 67.5404C252.167 67.8808 249.151 68.6557 246.705 69.4657C246.079 69.6692 245.485 69.8774 244.961 70.0772C244.646 70.1945 244.644 70.3715 244.726 70.6688C244.895 71.2765 245.163 72.1462 245.453 73.0383C245.626 73.5708 245.817 74.1123 245.995 74.5696C246.099 74.8449 246.307 74.9394 246.533 74.8658C246.826 74.7705 247.621 74.3646 247.835 74.1625C247.916 74.0922 247.934 74.0127 247.908 73.9328Z" fill="#029C54"/>
<path d="M247.224 79.4794C247.444 80.3911 247.685 81.3267 247.927 82.1469C247.996 82.3749 248.148 82.4678 248.325 82.425C248.625 82.3525 249.428 82.0428 249.674 81.8681C249.787 81.7977 249.811 81.7198 249.788 81.6245C249.768 81.5429 249.728 81.495 249.654 81.3688C249.248 80.7613 248.788 79.6916 248.468 78.3717C248.264 77.5281 248.415 77.3187 250.075 76.917C251.259 76.6306 251.742 77.0179 252.044 78.2698C252.226 79.0182 252.135 79.717 252.185 79.9211C252.211 80.03 252.255 80.0914 252.435 80.12C252.757 80.1428 253.334 80.1472 253.538 80.0978C253.824 80.0286 253.811 79.4988 253.663 78.8865C253.426 77.9068 253.027 77.2688 252.911 76.7925C252.846 76.5204 252.928 76.3852 253.268 76.3028C254.194 76.079 255.427 75.9389 255.837 76.1423C256.067 76.2595 256.207 76.4847 256.339 77.029C256.622 78.1992 256.644 78.943 256.616 79.425C256.609 79.571 256.594 79.6897 256.614 79.7713C256.637 79.8666 256.711 79.9351 256.816 79.9528C257.22 80.0136 257.987 80.0296 258.164 79.9868C258.259 79.9638 258.324 79.876 258.292 79.6822C258.188 79.0159 257.942 77.8799 257.679 76.7913C257.462 75.8932 257.22 75.0153 257.074 74.5898C257.014 74.4025 256.862 74.3097 256.618 74.3112C254.183 74.3675 251.364 74.8623 248.942 75.4483C248.194 75.6294 247.489 75.8142 246.843 75.9995C246.519 76.0921 246.504 76.2685 246.563 76.5712C246.724 77.3534 246.964 78.4045 247.224 79.4794Z" fill="#029C54"/>
<path d="M248.33 84.5218C248.369 84.785 248.417 85.0184 248.469 85.1806C248.533 85.3269 248.622 85.3563 248.787 85.3181C249.133 85.2673 249.611 84.9568 250.165 84.8756C251.204 84.7235 251.875 85.8279 252.068 87.1438C252.224 88.2104 251.961 88.7301 251.143 88.8498C250.298 88.9736 249.656 88.8412 249.296 88.894C249.144 88.9163 249.069 88.9839 249.05 89.1423C249.056 89.2829 249.075 89.5065 249.111 89.7559C249.142 89.9637 249.186 90.1694 249.226 90.3475C249.286 90.565 249.36 90.6816 249.572 90.6789C250.373 90.6463 251.084 90.5706 251.763 90.4711C255.24 89.9619 257.793 88.753 259.439 85.9793C259.52 85.8543 259.533 85.7533 259.517 85.6425C259.501 85.5316 259.447 85.4546 259.343 85.3283C256.939 82.9213 253.691 82.6754 250.672 83.1177C249.937 83.2252 249.225 83.3861 248.529 83.5588C248.284 83.623 248.244 83.742 248.263 83.9656C248.276 84.1478 248.302 84.3278 248.33 84.5218ZM252.543 84.7821C252.528 84.6851 252.589 84.6196 252.714 84.6013C253.989 84.4146 256.282 84.7154 257.458 85.6893C257.571 85.7859 257.621 85.8353 257.631 85.9045C257.641 85.9738 257.594 86.0373 257.523 86.1326C256.819 87.028 255.249 88.0928 253.836 88.2998C253.642 88.3282 253.539 88.3008 253.497 88.1089C253.45 87.8893 253.439 87.5231 253.346 86.8859C253.164 85.7382 252.581 85.0453 252.543 84.7821Z" fill="#029C54"/>
<path d="M259.743 92.1159C257.53 91.8772 255.398 91.8447 253.51 91.9401C252.084 92.0121 250.802 92.161 249.745 92.3265C249.467 92.3686 249.434 92.5525 249.43 92.749C249.44 92.9447 249.437 93.1552 249.447 93.3649C249.458 93.5886 249.484 93.8116 249.492 93.9654C249.514 94.1325 249.589 94.2268 249.743 94.2191C249.924 94.2099 251.309 93.8736 251.91 93.8432C252.721 93.8023 253.047 94.1363 253.089 94.9752C253.149 96.1637 252.105 97.422 249.965 97.7964C249.771 97.8342 249.692 97.9364 249.691 98.1887C249.685 98.3572 249.697 98.581 249.708 98.8047C249.721 99.0563 249.732 99.2801 249.752 99.4052C249.777 99.6142 249.895 99.7344 250.105 99.7238C251.126 99.6723 253.095 98.7037 253.909 97.0505C253.933 96.9792 253.988 96.9484 254.044 96.9456C254.1 96.9427 254.171 96.9672 254.216 97.035C255.076 98.2391 256.209 99.009 257.635 98.9369C259.816 98.8268 260.434 97.1835 260.323 94.9883C260.296 94.457 260.148 92.9085 260.055 92.4506C260.017 92.2563 259.94 92.134 259.743 92.1159ZM254.77 93.5726C256.476 93.4864 258.416 93.5847 258.768 93.9033C258.944 94.0627 259.038 94.5205 259.065 95.0519C259.126 96.2683 258.678 97.118 257.504 97.1773C255.798 97.2635 254.276 95.4479 254.2 93.9378C254.188 93.7001 254.281 93.5973 254.77 93.5726Z" fill="#029C54"/>
<path d="M249.665 102.125C249.654 102.335 249.657 102.559 249.663 102.7C249.667 102.896 249.732 103.012 249.913 103.021C250.179 103.035 253.508 102.63 257.471 102.986C257.624 103.008 257.733 103.069 257.727 103.181C257.724 103.237 257.665 103.304 257.536 103.368C255.536 104.373 252.8 105.523 249.843 106.592C249.559 106.676 249.499 106.743 249.444 107.006C249.423 107.131 249.415 107.299 249.405 107.481C249.394 107.705 249.381 107.956 249.388 108.097C249.401 108.392 249.493 108.509 249.771 108.565C250.937 108.779 252.64 108.936 254.373 109.024C256.387 109.127 258.433 109.133 259.745 108.976C259.971 108.945 260.061 108.823 260.085 108.628C260.107 108.475 260.132 108.252 260.143 108.043C260.154 107.819 260.152 107.595 260.146 107.44C260.139 107.299 260.046 107.197 259.892 107.189C259.375 107.162 256.559 107.664 252.351 107.449C252.225 107.443 252.145 107.368 252.149 107.284C252.152 107.229 252.183 107.174 252.268 107.15C255.874 105.989 258.868 104.445 260.086 103.652C260.246 103.548 260.322 103.44 260.343 103.301C260.364 103.162 260.388 102.967 260.397 102.785C260.406 102.603 260.416 102.407 260.396 102.252C260.378 102.055 260.259 101.923 260.081 101.843C259.394 101.57 257.208 101.262 254.776 101.138C253.182 101.057 251.472 101.054 250.035 101.191C249.838 101.209 249.747 101.33 249.723 101.539C249.701 101.692 249.676 101.901 249.665 102.125Z" fill="#029C54"/>
<path d="M248.148 116.41C247.422 120.077 248.092 121.665 250.249 122.092C251.375 122.315 252.308 122 253.292 121.067C253.377 120.998 253.44 120.968 253.508 120.982C253.591 120.998 253.646 121.08 253.72 121.209C254.114 121.958 254.706 122.575 255.681 122.768C256.271 122.884 256.76 122.796 257.155 122.531C257.909 122.038 258.272 120.997 258.587 119.404C258.756 118.553 258.897 117.696 258.937 117.275C258.964 117.067 258.898 116.897 258.684 116.826C257.06 116.233 255.247 115.731 253.187 115.324C251.827 115.054 250.377 114.81 248.861 114.681C248.595 114.657 248.521 114.814 248.475 114.976C248.366 115.382 248.249 115.902 248.148 116.41ZM254.133 117.466C254.176 117.246 254.352 117.224 254.627 117.278C255.753 117.501 257.151 117.864 257.347 118.102C257.512 118.349 257.439 118.863 257.319 119.467C257.115 120.497 256.705 121.272 255.812 121.095C254.535 120.842 253.807 119.114 254.133 117.466ZM249.447 117.709C249.596 116.953 249.7 116.788 249.93 116.634C250.282 116.447 250.965 116.525 251.872 116.704C252.449 116.819 252.636 116.956 252.769 117.581C252.937 118.314 252.972 119.006 252.909 119.322C252.771 120.022 251.742 120.675 250.726 120.474C249.421 120.215 249.191 119 249.447 117.709Z" fill="#029C54"/>
<path d="M245.95 124.751C245.882 124.98 245.81 125.221 245.771 125.399C245.724 125.605 245.809 125.761 245.997 125.818C246.184 125.874 246.611 125.914 247.04 126.042C248.489 126.475 249.35 127.405 250.24 128.387C251.3 129.581 252.412 130.849 254.625 131.511C254.947 131.607 255.057 131.582 255.168 131.308C255.229 131.151 255.319 130.9 255.391 130.659C255.447 130.471 255.496 130.31 255.518 130.185C255.54 130.017 255.514 129.907 255.313 129.846C255.165 129.802 254.889 129.749 254.487 129.628C252.958 129.171 251.28 127.793 250.812 126.966C250.746 126.844 250.734 126.738 250.766 126.63C250.798 126.523 250.897 126.436 251.058 126.338C251.735 125.883 253.203 125.372 255.134 125.95C255.604 126.09 256.043 126.28 256.214 126.346C256.455 126.418 256.593 126.445 256.738 126.108C256.8 125.951 256.869 125.767 256.929 125.566C256.989 125.365 257.036 125.16 257.075 124.981C257.116 124.745 257.06 124.641 256.751 124.548C252.996 123.425 251.047 124.713 250.083 125.199C249.857 125.321 249.691 125.388 249.543 125.344C249.476 125.324 249.386 125.282 249.318 125.218C248.864 124.878 248.2 124.168 246.966 123.799C246.564 123.678 246.306 123.66 246.184 124.018C246.107 124.228 246.03 124.483 245.95 124.751Z" fill="#029C54"/>
<path d="M230.147 75.7092C230.106 75.8432 230.105 75.9628 230.148 76.0812C230.186 76.1865 230.264 76.2775 230.386 76.3672C232.179 77.5333 234.989 77.7647 238.371 76.5372C239.384 76.1694 240.229 75.7883 241.094 75.3403C241.387 75.2041 241.458 75.0296 241.394 74.8142C241.355 74.6647 241.283 74.4673 241.212 74.2699C241.154 74.112 241.097 73.954 241.041 73.8404C240.943 73.6525 240.853 73.6106 240.695 73.6679C240.432 73.7635 239.026 74.5269 237.263 75.1669C235.157 75.9312 233.238 75.6896 232.362 75.4116C232.246 75.3792 232.174 75.3457 232.151 75.2799C232.131 75.2272 232.165 75.1555 232.238 75.0694C233.495 73.6899 234.326 72.9859 236.261 72.2837C238.314 71.5386 239.507 71.2547 239.757 71.1639C239.928 71.1018 239.991 70.9894 239.941 70.7693C239.897 70.6066 239.834 70.3913 239.753 70.1676C239.676 69.957 239.582 69.7381 239.506 69.5718C239.409 69.3839 239.324 69.3551 239.153 69.4172C238.889 69.5128 237.511 70.1471 235.721 70.7967C233.813 71.4892 232.716 71.5448 230.842 71.1824C230.744 71.1584 230.677 71.1381 230.658 71.0854C230.634 71.0196 230.668 70.9479 230.723 70.8534C231.275 69.9531 232.492 68.7518 234.663 67.9636C236.44 67.3188 238.033 66.949 238.204 66.8869C238.375 66.8248 238.452 66.7076 238.392 66.4612C238.363 66.338 238.305 66.1801 238.243 66.009C238.181 65.8379 238.114 65.6537 238.044 65.5005C237.978 65.3605 237.833 65.2492 237.653 65.285C236.631 65.5069 235.704 65.7838 234.533 66.2089C231.269 67.3934 229.235 69.3383 228.607 71.3832C228.554 71.5662 228.557 71.6989 228.595 71.8042C228.634 71.9095 228.707 71.9873 228.837 72.0591C229.404 72.3896 230.83 72.7505 231.961 72.7871C232.098 72.7967 232.192 72.8075 232.215 72.8733C232.235 72.926 232.17 72.9941 232.066 73.0766C231.1 73.9037 230.342 75.0575 230.147 75.7092Z" fill="#029C54"/>
<path d="M231.906 80.8438C231.969 81.1022 232.039 81.3301 232.106 81.4867C232.183 81.6264 232.275 81.6473 232.435 81.5939C232.775 81.5111 233.222 81.1572 233.766 81.0246C234.786 80.776 235.557 81.8128 235.872 83.105C236.127 84.1523 235.914 84.6943 235.111 84.8899C234.281 85.0921 233.63 85.0203 233.276 85.1065C233.127 85.143 233.058 85.2173 233.054 85.3769C233.074 85.5162 233.113 85.7371 233.173 85.982C233.222 86.186 233.286 86.3867 233.342 86.5602C233.423 86.7712 233.507 86.8804 233.718 86.8579C234.513 86.7505 235.213 86.6087 235.88 86.4462C239.294 85.6142 241.723 84.1719 243.102 81.2565C243.171 81.1245 243.175 81.0226 243.148 80.9138C243.122 80.805 243.061 80.7333 242.946 80.6172C240.328 78.4455 237.071 78.5043 234.106 79.2269C233.385 79.4026 232.691 79.6294 232.014 79.8665C231.775 79.9534 231.748 80.0754 231.787 80.2964C231.817 80.4765 231.86 80.6533 231.906 80.8438ZM236.124 80.7092C236.101 80.614 236.156 80.543 236.278 80.5131C237.529 80.2082 239.841 80.2932 241.103 81.1529C241.224 81.2386 241.279 81.283 241.295 81.351C241.312 81.419 241.271 81.4867 241.209 81.5882C240.592 82.5455 239.128 83.7524 237.741 84.0906C237.55 84.137 237.445 84.1194 237.385 83.9322C237.318 83.7179 237.273 83.3543 237.121 82.7287C236.832 81.603 236.187 80.9676 236.124 80.7092Z" fill="#029C54"/>
<path d="M234.084 91.5258C234.133 91.8582 234.196 92.0895 234.26 92.2356C234.338 92.3797 234.443 92.4207 234.625 92.4077C234.916 92.3645 237.127 91.625 239.523 91.2686C240.783 91.0811 241.986 90.987 242.976 90.9812C243.273 90.9795 243.371 91.0641 243.408 91.3134C243.544 92.2273 243.035 92.8975 243.084 93.2298C243.101 93.3406 243.178 93.3857 243.327 93.4343C243.648 93.4998 244.074 93.5072 244.379 93.4619C244.6 93.4289 244.748 93.3786 244.848 93.0949C245.064 92.4541 245.075 91.3908 244.855 89.9091C244.649 88.5243 244.292 87.4592 244.09 87.0506C243.99 86.8531 243.863 86.7588 243.647 86.7344C243.389 86.7161 242.724 86.716 242.461 86.7551C242.281 86.7819 242.224 86.8753 242.24 86.9861C242.282 87.263 242.927 87.9879 243.084 89.0403C243.115 89.248 243.04 89.3158 242.874 89.3405C242.029 89.4662 240.508 89.3245 236.99 89.8478C236.076 89.9838 235.171 90.1751 234.38 90.3777C234.105 90.4328 234.043 90.5836 234.04 90.7539C234.021 91.0114 234.045 91.2627 234.084 91.5258Z" fill="#029C54"/>
<path d="M234.725 99.3268C234.878 101.744 236.433 102.614 237.97 102.517C238.711 102.47 239.075 102.236 239.058 101.971C239.053 101.887 238.993 101.821 238.878 101.786C237.527 101.493 236.596 100.752 236.514 99.4383C236.417 97.9153 237.509 97.2012 239.66 97.0653C242.287 96.8995 244.194 97.5507 244.275 98.8361C244.348 99.9958 242.902 100.424 241.673 100.501C241.519 100.511 241.295 100.511 241.141 100.521C240.973 100.531 240.893 100.593 240.902 100.732C240.916 100.956 241.249 101.566 241.455 101.721C241.669 102.003 241.928 102.098 242.235 102.079C243.996 101.968 245.985 101.043 245.846 98.8351C245.686 96.2922 242.804 95.0853 239.185 95.3138C236.125 95.507 234.573 96.9235 234.725 99.3268Z" fill="#029C54"/>
<path d="M235.112 105.082C235.105 105.306 235.1 105.502 235.107 105.726C235.13 105.881 235.185 105.939 235.366 105.944C235.702 105.954 237.196 105.649 238.428 105.685C239.323 105.712 239.811 106.273 239.758 108.05C239.721 109.268 239.27 109.856 238.472 109.833C237.534 109.805 235.655 109.412 235.263 109.401C235.081 109.395 235.023 109.478 234.99 109.645C234.955 109.868 234.949 110.078 234.943 110.274C234.937 110.47 234.945 110.68 234.953 110.89C234.975 111.101 235.056 111.201 235.361 111.281C235.889 111.422 237.606 111.628 239.509 111.684C242.686 111.779 244.681 111.559 245.274 111.408C245.528 111.346 245.615 111.25 245.648 111.069C245.683 110.846 245.689 110.65 245.695 110.44C245.7 110.258 245.693 110.048 245.67 109.865C245.646 109.738 245.564 109.68 245.424 109.676C244.962 109.662 243.285 110.018 241.227 109.957C240.976 109.949 240.865 109.89 240.842 109.735C240.821 109.511 241.074 109 241.104 107.978C241.135 106.943 240.942 106.363 240.967 106.013C240.999 105.874 241.1 105.779 241.324 105.786C243.157 105.841 245.172 106.377 245.508 106.387C245.662 106.391 245.747 106.352 245.778 106.241C245.811 106.074 245.832 105.836 245.839 105.598C245.846 105.375 245.839 105.136 245.804 104.925C245.779 104.798 245.712 104.698 245.462 104.621C244.866 104.435 242.903 104.04 239.74 103.946C237.837 103.889 236.111 103.992 235.576 104.102C235.294 104.149 235.222 104.231 235.189 104.398C235.154 104.621 235.119 104.858 235.112 105.082Z" fill="#029C54"/>
<path d="M234.496 115.293C234.509 115.435 234.544 115.509 234.711 115.527C234.989 115.556 237.007 115.374 239.708 115.658C242.785 115.982 244.485 116.682 244.861 116.722C245.015 116.738 245.061 116.7 245.102 116.578C245.139 116.357 245.178 116.121 245.203 115.885C245.226 115.662 245.234 115.452 245.239 115.269C245.217 115.084 245.159 114.965 244.913 114.897C244.329 114.695 242.398 114.182 239.237 113.849C237.441 113.66 235.494 113.568 234.935 113.664C234.749 113.687 234.685 113.764 234.641 113.915C234.591 114.121 234.565 114.371 234.541 114.594C234.515 114.845 234.492 115.067 234.496 115.293Z" fill="#029C54"/>
<path d="M234.068 118.35C234.03 118.556 234.004 118.779 233.992 118.919C233.971 119.115 234.02 119.237 234.199 119.27C234.46 119.318 237.814 119.346 241.698 120.212C241.847 120.253 241.947 120.328 241.927 120.438C241.916 120.493 241.849 120.552 241.712 120.599C239.599 121.337 236.738 122.124 233.668 122.802C233.375 122.848 233.307 122.907 233.218 123.161C233.182 123.283 233.152 123.448 233.119 123.627C233.079 123.847 233.034 124.095 233.022 124.235C232.997 124.53 233.073 124.657 233.341 124.749C234.47 125.112 236.138 125.487 237.846 125.799C239.829 126.161 241.857 126.431 243.179 126.445C243.406 126.444 243.512 126.335 243.561 126.144C243.602 125.996 243.656 125.778 243.694 125.571C243.734 125.351 243.76 125.128 243.774 124.974C243.786 124.834 243.707 124.72 243.555 124.692C243.046 124.599 240.189 124.732 236.044 123.976C235.92 123.953 235.85 123.869 235.865 123.787C235.875 123.731 235.913 123.681 236 123.669C239.726 122.983 242.895 121.839 244.205 121.21C244.377 121.127 244.466 121.03 244.505 120.895C244.543 120.759 244.592 120.569 244.625 120.39C244.658 120.211 244.693 120.018 244.693 119.862C244.701 119.664 244.599 119.517 244.433 119.416C243.787 119.056 241.66 118.469 239.263 118.031C237.693 117.745 235.998 117.521 234.556 117.471C234.358 117.463 234.252 117.572 234.201 117.776C234.16 117.925 234.108 118.129 234.068 118.35Z" fill="#029C54"/>
<path d="M240.382 132.756C240.119 133.671 239.046 133.756 238.373 133.562C238.266 133.531 238.162 133.487 238.041 133.452C237.893 133.41 237.789 133.467 237.75 133.602C237.688 133.817 237.862 134.479 238.064 134.843C238.198 135.085 238.338 135.257 238.634 135.342C239.751 135.663 241.315 135.136 241.826 133.36C242.591 130.696 240.177 128.4 236.665 127.391C233.988 126.621 232.009 127.422 231.267 130.006C230.633 132.213 231.385 133.652 233.094 134.143C233.915 134.379 234.724 134.553 235.468 134.752C235.673 134.797 235.789 134.699 235.828 134.564C235.909 134.282 235.752 133.61 235.8 132.634C235.849 132.007 235.82 131.955 235.511 131.866C235.349 131.82 235.214 131.883 235.143 132.081C234.907 132.8 234.547 132.886 233.902 132.7C232.812 132.387 232.449 131.671 232.786 130.5C233.168 129.168 234.204 128.504 236.545 129.177C239.344 129.981 240.742 131.504 240.382 132.756Z" fill="#029C54"/>
<path d="M205.111 175.405C203.391 173.288 200.938 171.908 199.392 173.163C197.856 174.412 198.695 177.103 200.416 179.22C201.629 180.714 203.122 181.4 204.924 179.936C206.699 178.494 206.325 176.899 205.111 175.405ZM204.083 178.919C203.246 179.599 202.367 179.476 201.313 178.179C200.085 176.668 199.387 174.797 200.19 174.145C200.958 173.521 202.648 174.501 203.938 176.089C204.964 177.352 204.919 178.239 204.083 178.919Z" fill="#04AADC"/>
<path d="M210.032 175.322C210.225 175.142 210.347 174.999 210.414 174.893C210.472 174.778 210.452 174.692 210.363 174.579C210.206 174.41 208.745 173.304 207.451 171.909C206.771 171.175 206.176 170.437 205.733 169.797C205.6 169.606 205.611 169.505 205.757 169.37C206.289 168.876 206.949 168.909 207.143 168.729C207.207 168.67 207.202 168.599 207.168 168.481C207.068 168.244 206.884 167.965 206.719 167.787C206.599 167.658 206.501 167.584 206.273 167.646C205.761 167.79 205.067 168.254 204.204 169.055C203.397 169.803 202.865 170.507 202.69 170.819C202.606 170.972 202.602 171.096 202.681 171.247C202.784 171.422 203.079 171.854 203.221 172.007C203.318 172.112 203.404 172.107 203.469 172.047C203.63 171.898 203.813 171.157 204.426 170.589C204.547 170.477 204.625 170.495 204.714 170.592C205.171 171.084 205.754 172.133 207.654 174.182C208.148 174.714 208.674 175.216 209.156 175.639C209.313 175.793 209.439 175.767 209.551 175.693C209.726 175.591 209.878 175.464 210.032 175.322Z" fill="#04AADC"/>
<path d="M213.669 171.768C213.79 171.64 213.895 171.528 214.008 171.392C214.074 171.289 214.072 171.227 213.968 171.129C213.776 170.948 212.737 170.35 212.032 169.688C211.518 169.206 211.523 168.622 212.479 167.604C213.135 166.906 213.707 166.795 214.164 167.224C214.701 167.728 215.603 168.937 215.828 169.148C215.932 169.246 216.009 169.228 216.116 169.147C216.252 169.033 216.365 168.913 216.471 168.801C216.576 168.688 216.681 168.561 216.786 168.433C216.883 168.297 216.887 168.196 216.748 167.99C216.511 167.632 215.608 166.618 214.517 165.594C212.697 163.885 211.407 162.976 210.98 162.756C210.798 162.661 210.697 162.672 210.584 162.761C210.447 162.874 210.342 162.986 210.229 163.107C210.131 163.211 210.026 163.339 209.944 163.458C209.892 163.545 209.91 163.623 209.991 163.698C210.255 163.946 211.428 164.61 212.607 165.716C212.751 165.852 212.785 165.944 212.718 166.048C212.614 166.191 212.199 166.36 211.649 166.945C211.092 167.538 210.904 167.98 210.708 168.173C210.616 168.238 210.507 168.242 210.379 168.121C209.329 167.135 208.422 165.771 208.229 165.59C208.141 165.507 208.07 165.486 207.994 165.535C207.888 165.616 207.752 165.745 207.624 165.881C207.503 166.01 207.383 166.154 207.294 166.296C207.243 166.384 207.23 166.477 207.337 166.653C207.591 167.073 208.541 168.327 210.354 170.029C211.444 171.053 212.514 171.891 212.886 172.104C213.077 172.223 213.162 172.212 213.268 172.131C213.405 172.018 213.549 171.897 213.669 171.768Z" fill="#04AADC"/>
<path d="M220.458 164.084C220.92 163.51 221.387 162.912 221.782 162.368C221.891 162.216 221.876 162.077 221.764 161.987C221.576 161.835 220.998 161.483 220.771 161.414C220.673 161.378 220.613 161.4 220.565 161.46C220.524 161.511 220.513 161.559 220.47 161.666C220.286 162.21 219.841 163.009 219.172 163.84C218.744 164.372 218.542 164.378 217.496 163.537C216.75 162.937 216.76 162.451 217.395 161.662C217.774 161.191 218.252 160.912 218.356 160.784C218.411 160.715 218.428 160.658 218.36 160.533C218.22 160.321 217.946 159.96 217.817 159.856C217.637 159.711 217.314 159.973 217.003 160.359C216.507 160.976 216.301 161.53 216.06 161.83C215.922 162.002 215.798 162.015 215.584 161.843C215.001 161.374 214.322 160.673 214.253 160.32C214.216 160.121 214.289 159.925 214.564 159.582C215.157 158.845 215.61 158.476 215.923 158.262C216.018 158.197 216.099 158.149 216.14 158.097C216.189 158.037 216.196 157.958 216.156 157.884C216.001 157.604 215.643 157.119 215.532 157.029C215.472 156.981 215.386 156.982 215.281 157.095C214.915 157.479 214.326 158.177 213.774 158.862C213.319 159.428 212.888 159.999 212.693 160.294C212.605 160.42 212.62 160.56 212.738 160.711C213.94 162.201 215.599 163.719 217.125 164.946C217.596 165.325 218.048 165.675 218.474 165.989C218.686 166.146 218.803 166.071 218.964 165.889C219.374 165.414 219.913 164.761 220.458 164.084Z" fill="#04AADC"/>
<path d="M216.551 155.8C217.814 157.009 219.126 158.051 220.347 158.897C221.269 159.535 222.139 160.057 222.876 160.461C223.07 160.568 223.178 160.469 223.275 160.349C223.363 160.222 223.466 160.093 223.56 159.957C223.66 159.812 223.751 159.661 223.82 159.562C223.886 159.447 223.885 159.353 223.785 159.284C223.667 159.202 222.644 158.748 222.255 158.479C221.731 158.116 221.688 157.752 222.064 157.209C222.596 156.44 223.849 156.157 225.361 156.95C225.5 157.019 225.598 156.993 225.72 156.837C225.804 156.735 225.904 156.59 226.004 156.445C226.117 156.282 226.217 156.138 226.265 156.05C226.349 155.908 226.333 155.777 226.198 155.683C225.538 155.226 223.847 154.885 222.548 155.524C222.499 155.557 222.45 155.55 222.414 155.525C222.378 155.5 222.345 155.45 222.349 155.386C222.391 154.224 222.055 153.202 221.132 152.564C219.722 151.587 218.549 152.314 217.566 153.734C217.328 154.078 216.679 155.113 216.517 155.443C216.448 155.582 216.436 155.694 216.551 155.8ZM220.345 157.276C219.241 156.513 218.081 155.522 218.014 155.155C217.981 154.971 218.142 154.641 218.38 154.297C218.925 153.511 219.611 153.196 220.371 153.722C221.474 154.486 221.551 156.346 220.875 157.322C220.769 157.476 220.661 157.496 220.345 157.276Z" fill="#04AADC"/>
<path d="M119.601 84.6669C119.261 85.9079 118.836 88.8659 118.836 90.8549C118.836 91.0759 118.955 91.2289 119.346 91.3989C119.567 91.5009 119.839 91.5859 120.043 91.5859C120.74 91.5859 121.845 90.8889 123.086 90.8889C124.344 90.8889 124.956 91.7219 124.956 92.9799C124.956 94.7649 123.919 95.4279 122.729 95.4279C121.522 95.4279 120.672 94.9519 120.145 94.5609C119.856 94.3229 119.635 94.1019 119.482 94.1019C119.312 94.1019 119.244 94.2039 119.142 94.3569C118.87 94.8329 118.615 95.5129 118.615 95.8359C118.615 96.0569 118.734 96.1929 119.023 96.3799C119.669 96.8389 120.927 97.4509 122.763 97.4509C125.432 97.4509 126.928 95.9889 126.928 92.9629C126.928 90.8209 125.857 89.2059 123.63 89.2059C122.049 89.2059 121.369 89.9709 120.944 89.9709C120.757 89.9709 120.706 89.8179 120.706 89.5799C120.706 88.6789 120.927 86.4349 121.352 86.0609C121.454 85.9419 121.658 85.8569 122.066 85.8569C123.358 85.8569 124.956 86.1799 125.619 86.3669C125.721 86.4009 125.806 86.4179 125.874 86.4179C126.044 86.4179 126.146 86.2989 126.231 85.9929C126.333 85.5849 126.401 84.9219 126.401 84.6499C126.401 84.4799 126.299 84.2929 125.976 84.2759C124.956 84.2249 123.749 84.2079 122.61 84.2079C121.675 84.2079 120.791 84.2249 120.06 84.2419C119.822 84.2419 119.669 84.3949 119.601 84.6669ZM128.865 84.6669C128.525 85.9079 128.1 88.8659 128.1 90.8549C128.1 91.0759 128.219 91.2289 128.61 91.3989C128.831 91.5009 129.103 91.5859 129.307 91.5859C130.004 91.5859 131.109 90.8889 132.35 90.8889C133.608 90.8889 134.22 91.7219 134.22 92.9799C134.22 94.7649 133.183 95.4279 131.993 95.4279C130.786 95.4279 129.936 94.9519 129.409 94.5609C129.12 94.3229 128.899 94.1019 128.746 94.1019C128.576 94.1019 128.508 94.2039 128.406 94.3569C128.134 94.8329 127.879 95.5129 127.879 95.8359C127.879 96.0569 127.998 96.1929 128.287 96.3799C128.933 96.8389 130.191 97.4509 132.027 97.4509C134.696 97.4509 136.192 95.9889 136.192 92.9629C136.192 90.8209 135.121 89.2059 132.894 89.2059C131.313 89.2059 130.633 89.9709 130.208 89.9709C130.021 89.9709 129.97 89.8179 129.97 89.5799C129.97 88.6789 130.191 86.4349 130.616 86.0609C130.718 85.9419 130.922 85.8569 131.33 85.8569C132.622 85.8569 134.22 86.1799 134.883 86.3669C134.985 86.4009 135.07 86.4179 135.138 86.4179C135.308 86.4179 135.41 86.2989 135.495 85.9929C135.597 85.5849 135.665 84.9219 135.665 84.6499C135.665 84.4799 135.563 84.2929 135.24 84.2759C134.22 84.2249 133.013 84.2079 131.874 84.2079C130.939 84.2079 130.055 84.2249 129.324 84.2419C129.086 84.2419 128.933 84.3949 128.865 84.6669ZM140.151 90.2599C139.267 90.2599 138.927 89.4099 138.927 87.8289C138.927 86.3159 139.386 85.4999 140.168 85.4999C140.916 85.4999 141.358 86.3159 141.358 87.8289C141.358 89.4099 141.035 90.2599 140.151 90.2599ZM140.083 91.7899C141.834 91.7899 143.041 90.6509 143.041 88.0329C143.041 85.5679 142.208 84.0379 140.202 84.0379C138.264 84.0379 137.295 85.6359 137.295 88.0329C137.295 90.6509 138.332 91.7899 140.083 91.7899ZM146.118 95.8189C145.234 95.8189 144.894 94.9859 144.894 93.4049C144.894 91.8919 145.37 91.0589 146.152 91.0589C146.9 91.0589 147.325 91.8919 147.325 93.4049C147.325 94.9859 146.985 95.8189 146.118 95.8189ZM146.05 97.3659C147.801 97.3659 148.991 96.2269 148.991 93.5919C148.991 91.1269 148.175 89.6139 146.169 89.6139C144.231 89.6139 143.262 91.2119 143.262 93.5919C143.262 96.2269 144.299 97.3659 146.05 97.3659ZM140.253 96.7879C141.239 95.2239 142.718 92.2999 142.718 91.9259C142.718 91.7559 142.582 91.6539 142.429 91.6539C142.344 91.6539 142.276 91.6879 142.208 91.7389C140.984 92.8779 139.029 95.0709 138.043 96.1929C137.975 96.2949 137.924 96.3799 137.924 96.4819C137.924 96.6009 138.026 96.7199 138.213 96.8049C138.451 96.9239 139.318 97.1959 139.624 97.1959C139.947 97.1959 140.1 97.0259 140.253 96.7879ZM146.152 84.5649C144.265 87.7269 143.619 89.1719 143.619 89.5459C143.619 89.7159 143.738 89.8009 143.874 89.8009C143.959 89.8009 144.044 89.7839 144.112 89.7329C145.421 88.6109 147.342 86.3159 148.362 85.1599C148.43 85.0749 148.481 84.9729 148.481 84.8879C148.481 84.7689 148.379 84.6499 148.192 84.5479C147.954 84.4289 147.087 84.1739 146.781 84.1739C146.458 84.1739 146.288 84.3439 146.152 84.5649Z" fill="#FE2B4C"/>
<path d="M170.997 55.3386C171.206 55.5005 171.648 55.7527 172.027 56.0471C172.728 56.5918 173.463 57.269 173.871 57.5854C174.97 58.4392 175.855 57.9259 176.422 57.1961C176.694 56.8454 176.796 56.4991 176.811 56.2065C176.815 56.1033 176.778 56.0139 176.721 55.9698C176.645 55.9109 176.525 55.9089 176.433 55.9889C176.067 56.3428 175.731 56.5989 175.364 56.6023C174.92 56.6069 174.416 56.2768 172.947 55.136C172.758 54.9888 172.731 54.8468 172.819 54.733C173.335 54.0696 174.083 53.9669 175.657 54.1109C177.582 54.3135 178.541 54.1928 179.402 53.0839C180.33 51.8896 180.08 50.5869 178.858 49.6375C177.796 48.8132 176.568 48.6342 175.635 48.837C175.544 48.857 175.457 48.9108 175.398 48.9866C175.287 49.1288 175.174 49.5877 175.192 49.9361C175.198 50.0466 175.234 50.136 175.31 50.1949C175.358 50.2317 175.42 50.2496 175.511 50.2295C176.517 50.0687 177.378 50.2512 177.947 50.6928C178.525 51.1417 178.606 51.7815 178.245 52.246C177.781 52.8431 177.159 52.8615 175.839 52.7625C173.954 52.6061 172.516 52.6588 171.368 54.1374C170.882 54.763 170.722 55.1251 170.997 55.3386ZM179.118 60.0642C178.17 59.3282 178.501 58.1576 179.826 56.4516C181.261 54.6033 182.466 54.0499 183.338 54.727C184.163 55.3673 183.902 56.6231 182.481 58.4523C181.149 60.1678 180.113 60.837 179.118 60.0642ZM178.185 61.1479C179.692 62.3181 181.554 62.0925 183.57 59.4955C185.425 57.1071 185.851 55.0523 184.154 53.7349C182.457 52.4175 180.397 53.3095 178.594 55.6316C176.592 58.2096 176.668 59.9704 178.185 61.1479ZM186.176 60.9263C185.683 60.5436 185.861 59.9225 186.546 59.0411C187.201 58.1975 187.81 57.9413 188.246 58.2798C188.663 58.6037 188.556 59.25 187.901 60.0935C187.217 60.975 186.669 61.309 186.176 60.9263ZM185.476 61.7499C186.452 62.508 187.618 62.3955 188.751 60.9359C189.818 59.5616 190.016 58.3479 188.898 57.4794C187.817 56.6404 186.585 57.1119 185.548 58.4483C184.414 59.9079 184.499 60.9918 185.476 61.7499ZM187.096 66.6089C186.603 66.2262 186.774 65.6146 187.459 64.7332C188.114 63.8896 188.74 63.6313 189.176 63.9698C189.593 64.2936 189.469 64.9421 188.814 65.7856C188.13 66.6671 187.579 66.9843 187.096 66.6089ZM186.388 67.442C187.365 68.2001 188.521 68.0802 189.662 66.6111C190.729 65.2368 190.929 64.04 189.811 63.1715C188.73 62.3325 187.498 62.8039 186.468 64.1309C185.327 65.6 185.412 66.6839 186.388 67.442ZM183.407 64.61C184.633 64.1649 186.724 63.175 186.886 62.9665C186.959 62.8717 186.928 62.756 186.842 62.6897C186.795 62.6529 186.742 62.6425 186.682 62.6415C185.507 62.7466 183.467 63.1229 182.432 63.3215C182.35 63.349 182.285 63.3743 182.241 63.4311C182.189 63.4975 182.194 63.608 182.262 63.7363C182.343 63.9057 182.709 64.4327 182.879 64.5652C183.059 64.705 183.218 64.6765 183.407 64.61ZM191.987 60.3492C189.566 61.2952 188.58 61.8211 188.418 62.0297C188.345 62.1244 188.374 62.2233 188.45 62.2822C188.498 62.319 188.552 62.3463 188.612 62.3473C189.828 62.2885 191.893 61.8406 192.962 61.6377C193.036 61.6198 193.109 61.585 193.146 61.5376C193.197 61.4712 193.192 61.3607 193.132 61.2229C193.051 61.0535 192.678 60.536 192.507 60.4035C192.327 60.2637 192.159 60.2849 191.987 60.3492Z" fill="#85267A"/>
<path d="M188.629 105.033C188.881 105.033 189.097 105.033 189.301 105.009C189.565 104.961 189.601 104.877 189.601 104.661C189.577 103.557 189.469 101.793 189.469 100.089C189.469 98.3253 189.637 96.4173 189.637 96.0213C189.637 95.7813 189.469 95.6853 189.289 95.6853C188.665 95.6853 187.825 96.0693 187.441 96.3933C187.357 96.4653 187.321 96.5493 187.321 96.6213C187.321 96.7173 187.393 96.8133 187.525 96.8853C187.993 97.1013 188.089 97.3413 188.089 98.2773C188.089 100.473 187.957 102.945 187.957 104.745C187.957 104.937 188.065 104.985 188.209 105.021C188.329 105.033 188.473 105.033 188.629 105.033ZM194.374 103.749C193.174 103.749 192.718 102.621 192.718 100.461C192.718 98.1213 193.33 96.9453 194.434 96.9453C195.478 96.9453 196.042 98.0973 196.042 100.413C196.042 102.585 195.634 103.749 194.374 103.749ZM194.302 105.177C196.21 105.177 197.542 103.857 197.542 100.569C197.542 97.5453 196.618 95.6613 194.47 95.6613C192.322 95.6613 191.242 97.6293 191.242 100.569C191.242 103.833 192.382 105.177 194.302 105.177ZM200.478 100.101C199.854 100.101 199.614 99.5013 199.614 98.3853C199.614 97.3173 199.938 96.7413 200.49 96.7413C201.018 96.7413 201.33 97.3173 201.33 98.3853C201.33 99.5013 201.102 100.101 200.478 100.101ZM200.43 101.181C201.666 101.181 202.518 100.377 202.518 98.5293C202.518 96.7893 201.93 95.7093 200.514 95.7093C199.146 95.7093 198.462 96.8373 198.462 98.5293C198.462 100.377 199.194 101.181 200.43 101.181ZM204.69 104.025C204.066 104.025 203.826 103.437 203.826 102.321C203.826 101.253 204.162 100.665 204.714 100.665C205.242 100.665 205.542 101.253 205.542 102.321C205.542 103.437 205.302 104.025 204.69 104.025ZM204.642 105.117C205.878 105.117 206.718 104.313 206.718 102.453C206.718 100.713 206.142 99.6453 204.726 99.6453C203.358 99.6453 202.674 100.773 202.674 102.453C202.674 104.313 203.406 105.117 204.642 105.117ZM200.55 104.709C201.246 103.605 202.29 101.541 202.29 101.277C202.29 101.157 202.194 101.085 202.086 101.085C202.026 101.085 201.978 101.109 201.93 101.145C201.066 101.949 199.686 103.497 198.99 104.289C198.942 104.361 198.906 104.421 198.906 104.493C198.906 104.577 198.978 104.661 199.11 104.721C199.278 104.805 199.89 104.997 200.106 104.997C200.334 104.997 200.442 104.877 200.55 104.709ZM204.714 96.0813C203.382 98.3133 202.926 99.3333 202.926 99.5973C202.926 99.7173 203.01 99.7773 203.106 99.7773C203.166 99.7773 203.226 99.7653 203.274 99.7293C204.198 98.9373 205.554 97.3173 206.274 96.5013C206.322 96.4413 206.358 96.3693 206.358 96.3093C206.358 96.2253 206.286 96.1413 206.154 96.0693C205.986 95.9853 205.374 95.8053 205.158 95.8053C204.93 95.8053 204.81 95.9253 204.714 96.0813Z" fill="#029C54"/>
<path d="M183.83 150.092C184.02 149.927 184.183 149.785 184.321 149.633C184.488 149.423 184.46 149.336 184.318 149.173C183.575 148.357 182.334 147.098 181.215 145.813C180.056 144.483 178.929 142.934 178.669 142.636C178.511 142.455 178.322 142.493 178.186 142.611C177.715 143.021 177.334 143.862 177.258 144.359C177.242 144.468 177.27 144.555 177.317 144.61C177.38 144.682 177.497 144.707 177.644 144.675C178.139 144.53 178.369 144.648 178.984 145.354C180.427 147.009 181.951 148.959 183.134 150.317C183.26 150.461 183.373 150.426 183.505 150.359C183.604 150.289 183.712 150.195 183.83 150.092ZM180.348 141.348C180.742 142.166 181.888 143.937 182.81 144.996C182.913 145.113 183.047 145.139 183.334 145.049C183.499 145 183.683 144.919 183.792 144.825C184.163 144.502 184.427 143.618 185.088 143.043C185.757 142.459 186.469 142.619 187.053 143.288C187.88 144.238 187.636 145.072 187.003 145.624C186.36 146.184 185.687 146.324 185.226 146.361C184.961 146.368 184.741 146.353 184.66 146.424C184.569 146.503 184.581 146.589 184.597 146.717C184.673 147.097 184.853 147.577 185.003 147.749C185.105 147.866 185.232 147.884 185.472 147.849C186.029 147.794 186.982 147.536 187.959 146.685C189.379 145.447 189.498 143.975 188.094 142.365C187.101 141.225 185.782 140.862 184.597 141.895C183.755 142.628 183.748 143.351 183.522 143.548C183.423 143.634 183.325 143.577 183.214 143.45C182.796 142.97 181.873 141.674 181.926 141.278C181.925 141.167 181.994 141.027 182.211 140.838C182.899 140.239 183.899 139.67 184.339 139.462C184.409 139.432 184.462 139.402 184.498 139.371C184.589 139.292 184.588 139.181 184.491 138.979C184.356 138.714 184.085 138.33 183.959 138.185C183.88 138.095 183.739 138.043 183.559 138.183C182.993 138.629 182.342 139.18 181.736 139.708C181.239 140.142 180.776 140.561 180.395 140.909C180.268 141.019 180.258 141.172 180.348 141.348ZM188.948 139.09C188.477 139.5 187.902 139.205 187.169 138.364C186.467 137.559 186.333 136.912 186.749 136.549C187.148 136.202 187.761 136.431 188.463 137.237C189.196 138.078 189.418 138.68 188.948 139.09ZM189.621 139.936C190.553 139.124 190.667 137.958 189.453 136.565C188.31 135.253 187.157 134.825 186.09 135.755C185.058 136.654 185.284 137.954 186.395 139.229C187.609 140.623 188.689 140.748 189.621 139.936ZM194.701 139.281C194.231 139.691 193.664 139.405 192.93 138.564C192.229 137.759 192.096 137.095 192.512 136.732C192.91 136.385 193.523 136.631 194.224 137.437C194.957 138.278 195.163 138.879 194.701 139.281ZM195.383 140.136C196.314 139.324 196.419 138.166 195.197 136.764C194.054 135.452 192.918 135.025 191.851 135.955C190.82 136.854 191.045 138.154 192.149 139.42C193.371 140.823 194.451 140.948 195.383 140.136ZM192.03 142.517C191.829 141.227 191.26 138.985 191.087 138.786C191.008 138.696 190.888 138.704 190.807 138.775C190.761 138.815 190.741 138.864 190.728 138.923C190.605 140.097 190.582 142.171 190.578 143.225C190.589 143.311 190.601 143.38 190.648 143.434C190.703 143.497 190.813 143.513 190.952 143.472C191.134 143.425 191.721 143.167 191.884 143.025C192.056 142.876 192.059 142.714 192.03 142.517ZM189.5 133.276C189.963 135.834 190.289 136.903 190.462 137.102C190.541 137.192 190.644 137.182 190.716 137.119C190.762 137.08 190.799 137.031 190.811 136.973C190.988 135.768 190.946 133.656 190.952 132.568C190.949 132.491 190.929 132.413 190.89 132.368C190.834 132.305 190.725 132.289 190.578 132.321C190.396 132.368 189.817 132.635 189.654 132.777C189.482 132.926 189.47 133.096 189.5 133.276Z" fill="#04AADC"/>
</svg>
