<svg width="450" height="1258" viewBox="0 0 450 1258" fill="none" xmlns="http://www.w3.org/2000/svg">
<g clip-path="url(#clip0)">
<path d="M-167.705 50.3232V42.0697C-167.705 30.6798 -176.949 21.4359 -188.339 21.4359C-199.729 21.4359 -208.973 30.6798 -208.973 42.0697C-208.973 53.4595 -199.729 62.7034 -188.339 62.7034H-167.705H386.93H407.564C418.954 62.7034 428.197 53.4595 428.197 42.0697C428.197 30.6798 418.954 21.4359 407.564 21.4359C396.174 21.4359 386.93 30.6798 386.93 42.0697V50.3232" stroke="#04AADC" stroke-width="2" stroke-miterlimit="10" stroke-linecap="square"/>
<path d="M-175.958 50.323V42.0695C-175.958 35.2191 -181.488 29.6892 -188.339 29.6892C-195.189 29.6892 -200.719 35.2191 -200.719 42.0695C-200.719 48.9199 -195.189 54.4497 -188.339 54.4497H-167.705H238.723H242.364H386.93H407.564C414.415 54.4497 419.944 48.9199 419.944 42.0695C419.944 35.2191 414.415 29.6892 407.564 29.6892C400.714 29.6892 395.184 35.2191 395.184 42.0695V50.323" stroke="#04AADC" stroke-width="2" stroke-miterlimit="10" stroke-linecap="square"/>
<path d="M-180.087 50.323V42.0695C-180.087 37.5301 -183.801 33.816 -188.34 33.816C-192.88 33.816 -196.594 37.5301 -196.594 42.0695C-196.594 46.609 -192.88 50.323 -188.34 50.323H-167.707H386.929H407.562C412.102 50.323 415.816 46.609 415.816 42.0695C415.816 37.5301 412.102 33.816 407.562 33.816C403.023 33.816 399.309 37.5301 399.309 42.0695V50.323" stroke="#04AADC" stroke-width="2" stroke-miterlimit="10" stroke-linecap="square"/>
<path d="M391.055 50.3232V42.0697C391.055 32.9909 398.483 25.5627 407.562 25.5627C416.641 25.5627 424.069 32.9909 424.069 42.0697C424.069 51.1486 416.641 58.5767 407.562 58.5767H386.928H-167.707H-188.341C-197.42 58.5767 -204.848 51.1486 -204.848 42.0697C-204.848 32.9909 -197.42 25.5627 -188.341 25.5627C-179.262 25.5627 -171.834 32.9909 -171.834 42.0697V50.3232" stroke="#04AADC" stroke-width="2" stroke-miterlimit="10" stroke-linecap="square"/>
<path d="M387.334 64.5769V1274.65" stroke="#04AADC" stroke-width="2" stroke-miterlimit="10" stroke-linecap="square"/>
</g>
<defs>
<clipPath id="clip0">
<rect width="450" height="1258" fill="white"/>
</clipPath>
</defs>
</svg>
