<svg width="450" height="1258" viewBox="0 0 450 1258" fill="none" xmlns="http://www.w3.org/2000/svg">
<g clip-path="url(#clip0)">
<path d="M57.3515 50.0494V41.7959C57.3515 30.406 48.1076 21.1621 36.7177 21.1621C25.3279 21.1621 16.084 30.406 16.084 41.7959C16.084 53.1857 25.3279 62.4296 36.7177 62.4296H57.3515H611.987H632.62C644.01 62.4296 653.254 53.1857 653.254 41.7959C653.254 30.406 644.01 21.1621 632.62 21.1621C621.231 21.1621 611.987 30.406 611.987 41.7959V50.0494" stroke="#04AADC" stroke-width="2" stroke-miterlimit="10" stroke-linecap="square"/>
<path d="M49.0984 50.0492V41.7957C49.0984 34.9452 43.5685 29.4154 36.7181 29.4154C29.8677 29.4154 24.3379 34.9452 24.3379 41.7957C24.3379 48.6461 29.8677 54.1759 36.7181 54.1759H57.3519H463.78H467.42H611.987H632.621C639.471 54.1759 645.001 48.6461 645.001 41.7957C645.001 34.9452 639.471 29.4154 632.621 29.4154C625.77 29.4154 620.241 34.9452 620.241 41.7957V50.0492" stroke="#04AADC" stroke-width="2" stroke-miterlimit="10" stroke-linecap="square"/>
<path d="M44.9699 50.0492V41.7957C44.9699 37.2563 41.2558 33.5422 36.7164 33.5422C32.177 33.5422 28.4629 37.2563 28.4629 41.7957C28.4629 46.3352 32.177 50.0492 36.7164 50.0492H57.3501H611.985H632.619C637.158 50.0492 640.872 46.3352 640.872 41.7957C640.872 37.2563 637.158 33.5422 632.619 33.5422C628.08 33.5422 624.365 37.2563 624.365 41.7957V50.0492" stroke="#04AADC" stroke-width="2" stroke-miterlimit="10" stroke-linecap="square"/>
<path d="M616.112 50.0494V41.7959C616.112 32.7171 623.54 25.2889 632.619 25.2889C641.697 25.2889 649.126 32.7171 649.126 41.7959C649.126 50.8748 641.697 58.3029 632.619 58.3029H611.985H57.3497H36.716C27.6371 58.3029 20.209 50.8748 20.209 41.7959C20.209 32.7171 27.6371 25.2889 36.716 25.2889C45.7948 25.2889 53.223 32.7171 53.223 41.7959V50.0494" stroke="#04AADC" stroke-width="2" stroke-miterlimit="10" stroke-linecap="square"/>
<path d="M57.3105 63.3031V1283.96" stroke="#04AADC" stroke-width="2" stroke-miterlimit="10" stroke-linecap="square"/>
</g>
<defs>
<clipPath id="clip0">
<rect width="450" height="1258" fill="white"/>
</clipPath>
</defs>
</svg>
